<?xml version="1.0" encoding="UTF-8"?><svg id="_レイヤー_2" xmlns="http://www.w3.org/2000/svg" viewBox="0 0 65.76 66.36"><defs><style>.cls-1{fill:none;stroke:#324c5e;stroke-linecap:round;stroke-linejoin:round;stroke-width:2px;}</style></defs><g id="_レイヤー_1-2"><path class="cls-1" d="M34.89,46.32l8.66-4.61c2.04-1.08,6.02-2.73,6.04,1.34l1.46-1c4.1-2.81,7.23-.82,5.69,3.06,7.29-5.3,9.87,1.41,6.62,3.06l-16.14,10.2-6.84,4.32c-4.84,3.06-11.23,3.1-13.03,2.03-10.21-2.63-13.16-5.14-22.06-4M1,42.55l10.56-4.29c2.69-1.1,5.71-.81,6.85,.03,1.91,1.41,3.81,2.83,5.72,4.24,7.94,5.88,8.58,4.41,17.93,4.97,2.07,.12,3.44,3.46,0,4.78-8.73,3.99-14.12,2.2-22.07-1.87M32.88,6.4v3.66m0,15.95v3.66m0-28.67c9.41,0,17.04,7.63,17.04,17.04s-7.63,17.04-17.04,17.04S15.84,27.45,15.84,18.04,23.47,1,32.88,1h0Zm5.3,10.97c-1.69-.56-3.2-1.09-4.73-1.26-8.22-.92-9.27,7.35-.52,7.33,8.5-.03,7.7,8.26-.54,7.33-1.52-.17-3.04-.7-4.72-1.26"/></g></svg>