<?xml version="1.0" encoding="UTF-8"?><svg id="_レイヤー_2" xmlns="http://www.w3.org/2000/svg" xmlns:xlink="http://www.w3.org/1999/xlink" viewBox="0 0 68.5 63.44"><defs><style>.cls-1,.cls-2,.cls-3,.cls-4,.cls-5,.cls-6,.cls-7,.cls-8,.cls-9,.cls-10{fill:none;}.cls-1,.cls-2,.cls-3,.cls-4,.cls-5,.cls-6,.cls-7,.cls-8,.cls-9,.cls-10,.cls-11{stroke-linejoin:round;}.cls-1,.cls-11{stroke:#fff;stroke-width:6px;}.cls-2{stroke:url(#_新規グラデーションスウォッチ_1);}.cls-2,.cls-3,.cls-4,.cls-5,.cls-6,.cls-7,.cls-8,.cls-9,.cls-10{stroke-width:1.8px;}.cls-2,.cls-3,.cls-4,.cls-5,.cls-6,.cls-7,.cls-8,.cls-9,.cls-10,.cls-11{stroke-linecap:round;}.cls-3{stroke:url(#_新規グラデーションスウォッチ_1-9);}.cls-4{stroke:url(#_新規グラデーションスウォッチ_1-7);}.cls-5{stroke:url(#_新規グラデーションスウォッチ_1-8);}.cls-6{stroke:url(#_新規グラデーションスウォッチ_1-3);}.cls-7{stroke:url(#_新規グラデーションスウォッチ_1-4);}.cls-8{stroke:url(#_新規グラデーションスウォッチ_1-6);}.cls-9{stroke:url(#_新規グラデーションスウォッチ_1-2);}.cls-10{stroke:url(#_新規グラデーションスウォッチ_1-5);}.cls-11{fill:#fff;}</style><linearGradient id="_新規グラデーションスウォッチ_1" x1="0" y1="41.54" x2="27.56" y2="41.54" gradientUnits="userSpaceOnUse"><stop offset="0" stop-color="#0d76a3"/><stop offset="0" stop-color="#0d74a2"/><stop offset=".18" stop-color="#10548a"/><stop offset=".37" stop-color="#133b78"/><stop offset=".56" stop-color="#152a6b"/><stop offset=".76" stop-color="#161f63"/><stop offset="1" stop-color="#171c61"/></linearGradient><linearGradient id="_新規グラデーションスウォッチ_1-2" x1="4.98" y1="35.09" x2="7.92" y2="35.09" xlink:href="#_新規グラデーションスウォッチ_1"/><linearGradient id="_新規グラデーションスウォッチ_1-3" x1="40.94" x2="68.5" xlink:href="#_新規グラデーションスウォッチ_1"/><linearGradient id="_新規グラデーションスウォッチ_1-4" x1="60.58" y1="35.09" x2="63.52" y2="35.09" xlink:href="#_新規グラデーションスウォッチ_1"/><linearGradient id="_新規グラデーションスウォッチ_1-5" x1="28.84" y1="7.5" x2="39.64" y2="7.5" xlink:href="#_新規グラデーションスウォッチ_1"/><linearGradient id="_新規グラデーションスウォッチ_1-6" x1="9.82" y1="15.74" x2="58.68" y2="15.74" xlink:href="#_新規グラデーションスウォッチ_1"/><linearGradient id="_新規グラデーションスウォッチ_1-7" x1="7.33" y1="12.31" x2="18.13" y2="12.31" xlink:href="#_新規グラデーションスウォッチ_1"/><linearGradient id="_新規グラデーションスウォッチ_1-8" x1="50.37" y1="12.31" x2="61.17" y2="12.31" xlink:href="#_新規グラデーションスウォッチ_1"/><linearGradient id="_新規グラデーションスウォッチ_1-9" x1="13.98" y1="39.13" x2="54.52" y2="39.13" xlink:href="#_新規グラデーションスウォッチ_1"/></defs><g id="_レイヤー_1-2"><g><path class="cls-2" d="M26.35,20.57s-20.68-.04-20.68-.04c-2.64,.06-4.78,2.32-4.78,5.03l1.02,13.42c.19,2.99,3.07,3.85,5.07,3.76,.02,.01,.02,.01,.04,.02,.06,.76,1.46,19.77,1.46,19.77h8.51s2.74-37.17,2.74-37.17l6.92-.02"/><line class="cls-9" x1="7.02" y1="42.78" x2="5.88" y2="27.4"/><path class="cls-6" d="M42.14,20.57s20.68-.04,20.68-.04c2.64,.06,4.78,2.32,4.78,5.03l-1.02,13.42c-.19,2.99-3.07,3.85-5.07,3.76-.02,.01-.02,.01-.04,.02-.06,.76-1.46,19.77-1.46,19.77h-8.51s-2.74-37.17-2.74-37.17l-6.92-.02"/><line class="cls-7" x1="61.48" y1="42.78" x2="62.62" y2="27.4"/><g><path class="cls-11" d="M34.24,12c2.48,0,4.5-2.02,4.5-4.5s-2.02-4.5-4.5-4.5-4.5,2.02-4.5,4.5,2.02,4.5,4.5,4.5Z"/><path class="cls-10" d="M34.24,12c2.48,0,4.5-2.02,4.5-4.5s-2.02-4.5-4.5-4.5-4.5,2.02-4.5,4.5,2.02,4.5,4.5,4.5Z"/></g><path class="cls-8" d="M57.74,15.76s.02-.02,.04-.03h0s-47.07,0-47.07,0h0s.02,.02,.04,.04"/><path class="cls-11" d="M12.73,16.81c2.48,0,4.5-2.02,4.5-4.5s-2.02-4.5-4.5-4.5-4.5,2.02-4.5,4.5,2.02,4.5,4.5,4.5Z"/><path class="cls-4" d="M12.73,16.81c2.48,0,4.5-2.02,4.5-4.5s-2.02-4.5-4.5-4.5-4.5,2.02-4.5,4.5,2.02,4.5,4.5,4.5Z"/><path class="cls-11" d="M55.77,16.81c-2.48,0-4.5-2.02-4.5-4.5s2.02-4.5,4.5-4.5,4.5,2.02,4.5,4.5-2.02,4.5-4.5,4.5Z"/><path class="cls-5" d="M55.77,16.81c-2.48,0-4.5-2.02-4.5-4.5s2.02-4.5,4.5-4.5,4.5,2.02,4.5,4.5-2.02,4.5-4.5,4.5Z"/><line class="cls-1" x1="40.96" y1="23.36" x2="40.52" y2="29.37"/><line class="cls-1" x1="27.46" y1="23.36" x2="27.9" y2="29.37"/><polyline class="cls-3" points="14.88 20.53 27.25 20.56 29.99 57.73 29.99 57.72 38.51 57.73 41.25 20.56 53.62 20.53"/></g></g></svg>