<?xml version="1.0" encoding="UTF-8"?><svg id="_レイヤー_2" xmlns="http://www.w3.org/2000/svg" xmlns:xlink="http://www.w3.org/1999/xlink" viewBox="0 0 60.2 64.02"><defs><style>.cls-1{fill:none;stroke:url(#_新規グラデーションスウォッチ_1);stroke-linecap:round;stroke-linejoin:round;stroke-width:2px;}.cls-2{fill:url(#_新規グラデーションスウォッチ_1-2);}</style><linearGradient id="_新規グラデーションスウォッチ_1" x1="0" y1="32.01" x2="60.2" y2="32.01" gradientUnits="userSpaceOnUse"><stop offset="0" stop-color="#0d76a3"/><stop offset="0" stop-color="#0d74a2"/><stop offset=".18" stop-color="#10548a"/><stop offset=".37" stop-color="#133b78"/><stop offset=".56" stop-color="#152a6b"/><stop offset=".76" stop-color="#161f63"/><stop offset="1" stop-color="#171c61"/></linearGradient><linearGradient id="_新規グラデーションスウォッチ_1-2" x1="28.52" y1="50.84" x2="33.04" y2="50.84" xlink:href="#_新規グラデーションスウォッチ_1"/></defs><g id="_レイヤー_1-2"><g><path class="cls-1" d="M48.46,61.92v-21.63c0-1-.82-1.81-1.81-1.81H13.55c-1,0-1.81,.82-1.81,1.81v21.63m46.7,1.11H1.75M22.76,29.67c-.84,.5-3.18-1.9-3.39-2.08-4.89-4.28-3.18-20.06,1.17-24C25.02-.46,38.92,.51,37.29,4.65c10.41-.63,6.4,23.8,1.89,25.25m-1.89-25.25c-.48,3.62-5.23,4.59-9.28,5.09-7.69,.95-10.18,9.73-8.64,17.85m30.79,34.85l7.37-6.31c.98-.84,2.2-2.76,1.39-4.32l-8.76-16.92c-.88-1.7-2.6-2.54-4.25-2.88-5.44-1.14-11.49-1.26-11.49-6.9M10.03,62.44l-7.37-6.31c-.98-.84-2.2-2.76-1.39-4.32l8.76-16.92c.88-1.7,2.6-2.54,4.25-2.88,5.44-1.14,11.49-1.26,11.49-6.9m-4.45-8.99c0,5.22,4.25,9.47,9.47,9.47s9.47-4.25,9.47-9.47m-18.29-3.07c-.48,1.13-.65,1.77-.65,3.07,0,5.22,4.25,9.47,9.47,9.47s9.7-4.25,9.47-9.47c-.17-3.84-2.02-6.76-5.25-8.27"/><path class="cls-2" d="M33.04,52.55v.49c0,.25-.06,.48-.17,.7-.11,.22-.27,.42-.47,.59s-.44,.31-.7,.41c-.27,.1-.56,.15-.87,.15-.26,0-.53-.03-.81-.09-.27-.06-.52-.16-.74-.31-.22-.15-.4-.34-.54-.57-.14-.23-.21-.53-.21-.9v-4.38c0-.26,.05-.5,.16-.73,.11-.22,.26-.42,.47-.58,.2-.16,.44-.29,.72-.39,.28-.09,.59-.14,.92-.14,.66,0,1.19,.17,1.6,.52,.2,.17,.36,.37,.47,.61,.11,.23,.17,.49,.17,.76v.45h-1.4v-.38c0-.22-.08-.42-.23-.58-.16-.16-.36-.25-.63-.25-.35,0-.58,.09-.69,.26-.11,.17-.17,.4-.17,.66v4.06c0,.23,.06,.42,.18,.58s.34,.23,.66,.23c.09,0,.19-.01,.29-.04,.1-.03,.2-.07,.29-.13,.08-.06,.15-.14,.21-.25,.05-.1,.08-.23,.08-.39v-.39h1.4Z"/></g></g></svg>