<?xml version="1.0" encoding="UTF-8"?><svg id="_レイヤー_2" xmlns="http://www.w3.org/2000/svg" xmlns:xlink="http://www.w3.org/1999/xlink" viewBox="0 0 63.32 65.42"><defs><style>.cls-1{stroke:url(#_新規グラデーションスウォッチ_1);}.cls-1,.cls-2,.cls-3{fill:none;}.cls-1,.cls-2,.cls-3,.cls-4,.cls-5,.cls-6,.cls-7{stroke-width:1.8px;}.cls-1,.cls-2,.cls-3,.cls-4,.cls-5,.cls-6,.cls-7,.cls-8{stroke-linecap:round;stroke-linejoin:round;}.cls-2{stroke:url(#_新規グラデーションスウォッチ_1-3);}.cls-3{stroke:url(#_新規グラデーションスウォッチ_1-2);}.cls-4{stroke:url(#_新規グラデーションスウォッチ_1-7);}.cls-4,.cls-5,.cls-6,.cls-7,.cls-8{fill:#fff;}.cls-5{stroke:url(#_新規グラデーションスウォッチ_1-4);}.cls-6{stroke:url(#_新規グラデーションスウォッチ_1-6);}.cls-7{stroke:url(#_新規グラデーションスウォッチ_1-5);}.cls-8{stroke:#fff;stroke-width:6px;}</style><linearGradient id="_新規グラデーションスウォッチ_1" x1="41.08" y1="23.7" x2="63.32" y2="23.7" gradientUnits="userSpaceOnUse"><stop offset="0" stop-color="#0d76a3"/><stop offset="0" stop-color="#0d74a2"/><stop offset=".18" stop-color="#10548a"/><stop offset=".37" stop-color="#133b78"/><stop offset=".56" stop-color="#152a6b"/><stop offset=".76" stop-color="#161f63"/><stop offset="1" stop-color="#171c61"/></linearGradient><linearGradient id="_新規グラデーションスウォッチ_1-2" x1="0" x2="22.24" xlink:href="#_新規グラデーションスウォッチ_1"/><linearGradient id="_新規グラデーションスウォッチ_1-3" x1="10.22" y1="23.49" x2="53.1" y2="23.49" xlink:href="#_新規グラデーションスウォッチ_1"/><linearGradient id="_新規グラデーションスウォッチ_1-4" x1="30.76" y1="51.78" x2="32.56" y2="51.78" xlink:href="#_新規グラデーションスウォッチ_1"/><linearGradient id="_新規グラデーションスウォッチ_1-5" x1="16.76" y1="64.52" x2="47.82" y2="64.52" xlink:href="#_新規グラデーションスウォッチ_1"/><linearGradient id="_新規グラデーションスウォッチ_1-6" x1="20.86" y1="59.59" x2="43.73" y2="59.59" xlink:href="#_新規グラデーションスウォッチ_1"/><linearGradient id="_新規グラデーションスウォッチ_1-7" x1="19.72" y1="19.63" x2="43.6" y2="19.63" xlink:href="#_新規グラデーションスウォッチ_1"/></defs><g id="_レイヤー_1-2"><g><g><path class="cls-1" d="M41.98,36.11c11.29,0,20.44-8.74,20.44-19.53v-5.29h-16.71"/><path class="cls-3" d="M21.34,36.11C10.05,36.11,.9,27.37,.9,16.58v-5.29H17.61"/></g><path class="cls-8" d="M52.2,3c0,23.82-9.2,43.13-20.54,43.13S11.12,26.82,11.12,3H52.2Z"/><g><path class="cls-2" d="M52.2,3c0,22.63-9.2,40.98-20.54,40.98S11.12,25.63,11.12,3H52.2Z"/><g><line class="cls-5" x1="31.66" y1="43.98" x2="31.66" y2="59.59"/><line class="cls-7" x1="17.66" y1="64.52" x2="46.92" y2="64.52"/><line class="cls-6" x1="21.76" y1="59.59" x2="42.83" y2="59.59"/></g></g><path class="cls-4" d="M31.66,25.63l-6.02,4.4c-.52,.38-1.22-.13-1.02-.74l2.32-7.09-6.05-4.37c-.52-.38-.25-1.2,.39-1.2l7.46,.02,2.29-7.1c.2-.61,1.06-.61,1.26,0l2.29,7.1,7.46-.02c.64,0,.91,.82,.39,1.2l-6.05,4.37,2.32,7.09c.2,.61-.5,1.12-1.02,.74l-6.02-4.4Z"/></g></g></svg>