<?xml version="1.0" encoding="UTF-8"?><svg id="_レイヤー_2" xmlns="http://www.w3.org/2000/svg" xmlns:xlink="http://www.w3.org/1999/xlink" viewBox="0 0 64.86 68.29"><defs><style>.cls-1{stroke:url(#_新規グラデーションスウォッチ_1);}.cls-1,.cls-2,.cls-3,.cls-4,.cls-5,.cls-6,.cls-7,.cls-8,.cls-9,.cls-10,.cls-11{stroke-width:1.8px;}.cls-1,.cls-2,.cls-3,.cls-4,.cls-5,.cls-6,.cls-7,.cls-8,.cls-9,.cls-10,.cls-11,.cls-12{fill:none;}.cls-1,.cls-2,.cls-3,.cls-4,.cls-5,.cls-6,.cls-7,.cls-8,.cls-9,.cls-10,.cls-11,.cls-12,.cls-13{stroke-linecap:round;stroke-linejoin:round;}.cls-2{stroke:url(#_新規グラデーションスウォッチ_1-9);}.cls-3{stroke:url(#_新規グラデーションスウォッチ_1-7);}.cls-4{stroke:url(#_新規グラデーションスウォッチ_1-8);}.cls-5{stroke:url(#_新規グラデーションスウォッチ_1-3);}.cls-6{stroke:url(#_新規グラデーションスウォッチ_1-4);}.cls-7{stroke:url(#_新規グラデーションスウォッチ_1-6);}.cls-8{stroke:url(#_新規グラデーションスウォッチ_1-2);}.cls-9{stroke:url(#_新規グラデーションスウォッチ_1-5);}.cls-10{stroke:url(#_新規グラデーションスウォッチ_1-10);}.cls-11{stroke:url(#_新規グラデーションスウォッチ_1-11);}.cls-12{stroke-width:8px;}.cls-12,.cls-13{stroke:#fff;}.cls-13{fill:#fff;stroke-width:6px;}</style><linearGradient id="_新規グラデーションスウォッチ_1" x1="3.14" y1="42" x2="4.94" y2="42" gradientUnits="userSpaceOnUse"><stop offset="0" stop-color="#0d76a3"/><stop offset="0" stop-color="#0d74a2"/><stop offset=".18" stop-color="#10548a"/><stop offset=".37" stop-color="#133b78"/><stop offset=".56" stop-color="#152a6b"/><stop offset=".76" stop-color="#161f63"/><stop offset="1" stop-color="#171c61"/></linearGradient><linearGradient id="_新規グラデーションスウォッチ_1-2" x1="9.77" y1="38.66" x2="11.57" y2="38.66" xlink:href="#_新規グラデーションスウォッチ_1"/><linearGradient id="_新規グラデーションスウォッチ_1-3" x1="16.4" y1="35.35" x2="18.2" y2="35.35" xlink:href="#_新規グラデーションスウォッチ_1"/><linearGradient id="_新規グラデーションスウォッチ_1-4" x1="23.03" y1="32.02" x2="24.83" y2="32.02" xlink:href="#_新規グラデーションスウォッチ_1"/><linearGradient id="_新規グラデーションスウォッチ_1-5" x1="29.66" y1="35.35" x2="31.46" y2="35.35" xlink:href="#_新規グラデーションスウォッチ_1"/><linearGradient id="_新規グラデーションスウォッチ_1-6" x1="36.29" y1="31.99" x2="38.09" y2="31.99" xlink:href="#_新規グラデーションスウォッチ_1"/><linearGradient id="_新規グラデーションスウォッチ_1-7" x1="42.92" y1="28.67" x2="44.72" y2="28.67" xlink:href="#_新規グラデーションスウォッチ_1"/><linearGradient id="_新規グラデーションスウォッチ_1-8" x1="3.1" y1="22.11" x2="47.02" y2="22.11" xlink:href="#_新規グラデーションスウォッチ_1"/><linearGradient id="_新規グラデーションスウォッチ_1-9" x1="41.22" y1="7.7" x2="50.65" y2="7.7" xlink:href="#_新規グラデーションスウォッチ_1"/><linearGradient id="_新規グラデーションスウォッチ_1-10" x1="29.02" y1="46.58" x2="58.26" y2="46.58" xlink:href="#_新規グラデーションスウォッチ_1"/><linearGradient id="_新規グラデーションスウォッチ_1-11" x1="50.21" y1="60.81" x2="64.86" y2="60.81" xlink:href="#_新規グラデーションスウォッチ_1"/></defs><g id="_レイヤー_1-2"><g><g><line class="cls-1" x1="4.04" y1="47.41" x2="4.04" y2="36.59"/><line class="cls-8" x1="10.67" y1="47.41" x2="10.67" y2="29.91"/><line class="cls-5" x1="17.3" y1="47.41" x2="17.3" y2="23.28"/><line class="cls-6" x1="23.93" y1="47.41" x2="23.93" y2="16.62"/><line class="cls-9" x1="30.56" y1="47.41" x2="30.56" y2="23.29"/><line class="cls-7" x1="37.19" y1="47.41" x2="37.19" y2="16.56"/><line class="cls-3" x1="43.82" y1="9.93" x2="43.82" y2="47.41"/></g><polyline class="cls-12" points="4 36.59 23.96 16.62 30.55 23.21 49.75 4"/><polyline class="cls-4" points="4 36.59 23.96 16.62 30.55 23.21 46.12 7.63"/><polyline class="cls-2" points="42.12 3.89 49.75 3.89 49.75 11.51"/><g><path class="cls-13" d="M57.36,46.58c0,7.77-6.14,14.06-13.72,14.06s-13.72-6.3-13.72-14.06,6.14-14.06,13.72-14.06,13.72,6.3,13.72,14.06Z"/><path class="cls-10" d="M57.36,46.58c0,7.77-6.14,14.06-13.72,14.06s-13.72-6.3-13.72-14.06,6.14-14.06,13.72-14.06,13.72,6.3,13.72,14.06Z"/><text/><path class="cls-11" d="M51.11,58.53l7.78,7.97c1.16,1.19,3.04,1.19,4.2,0,1.16-1.19,1.16-3.12,0-4.3l-7.78-7.97"/></g></g></g></svg>