<?xml version="1.0" encoding="UTF-8"?><svg id="_レイヤー_2" xmlns="http://www.w3.org/2000/svg" viewBox="0 0 217.74 91.01"><defs><style>.cls-1{fill:#fff;}.cls-2{fill:#333;}</style></defs><g id="_レイヤー_1-2"><g><polygon class="cls-1" points="201.73 91.01 0 91.01 16.01 0 217.74 0 201.73 91.01"/><g><g><path d="M22.37,12.43c.01-1.47,.47-2.59,1.36-3.38,.84-.78,1.84-1.17,3-1.17s2.21,.39,3.05,1.18c.85,.79,1.29,1.92,1.32,3.39v7.01c-.03,1.46-.47,2.59-1.32,3.38-.84,.78-1.86,1.18-3.05,1.2-1.16-.01-2.16-.41-3-1.2-.89-.79-1.35-1.91-1.36-3.37v-7.02Zm6.54,.14c-.04-1.59-.77-2.41-2.17-2.44-1.42,.03-2.14,.84-2.16,2.44v6.75c.03,1.61,.75,2.42,2.16,2.43,1.41-.01,2.13-.83,2.17-2.43v-6.75Z"/><path d="M36.45,10.41l-2.19,1.66v-2.42l2.19-1.63h2.2v15.89h-2.2V10.41Z"/><path d="M44.46,21.63h2.2v2.27h-2.2v-2.27Z"/></g><g><path class="cls-2" d="M22.37,12.43c.01-1.47,.47-2.59,1.36-3.38,.84-.78,1.84-1.17,3-1.17s2.21,.39,3.05,1.18c.85,.79,1.29,1.92,1.32,3.39v7.01c-.03,1.46-.47,2.59-1.32,3.38-.84,.78-1.86,1.18-3.05,1.2-1.16-.01-2.16-.41-3-1.2-.89-.79-1.35-1.91-1.36-3.37v-7.02Zm6.54,.14c-.04-1.59-.77-2.41-2.17-2.44-1.42,.03-2.14,.84-2.16,2.44v6.75c.03,1.61,.75,2.42,2.16,2.43,1.41-.01,2.13-.83,2.17-2.43v-6.75Z"/><path class="cls-2" d="M36.45,10.41l-2.19,1.66v-2.42l2.19-1.63h2.2v15.89h-2.2V10.41Z"/><path class="cls-2" d="M44.46,21.63h2.2v2.27h-2.2v-2.27Z"/></g></g><g><g><path class="cls-2" d="M23.51,44.84q1.94-.32,2.63-.47l.3,1.74c-.5,.05-2.01,.25-2.65,.37l-2.58,.42,.23,1.41c.37,2.34,.45,2.83,.65,3.78l-1.89,.33c-.15-1.32-.38-3.1-.52-3.97l-.2-1.27-2.86,.47c-1.27,.2-1.42,.23-2.63,.45l-.3-1.72c1.31-.15,1.92-.23,2.64-.35l2.88-.49-.38-2.36-2.03,.33c-.62,.1-.65,.1-1.57,.27q-.44,.08-.74,.13l-.28-1.69q.44-.05,2.33-.33l2.04-.33c0-.27-.5-3.03-.59-3.3l1.91-.07c.22,0,.28,.07,.28,.17,0,.08-.05,.15-.25,.33,.12,.8,.28,1.88,.38,2.58l2.01-.33c.69-.12,1.74-.3,2.29-.42l.29,1.72c-1.17,.13-1.86,.23-2.31,.32l-2.03,.33,.39,2.36,2.54-.42Z"/><path class="cls-2" d="M37.2,48.22q.65,2.51,.89,3.31s.12,.37,.13,.47l-1.69,.45c-.07-.4-.47-2.43-.87-4l-.65-2.51-.4,.1c-1.11,.25-1.42,.33-2.68,.69-.12,.03-.15,.03-.33,.08l-.52-1.54c1.12-.2,1.57-.28,3.58-.74q-.72-2.79-.94-3.36l1.67-.18c.25-.03,.37,.08,.37,.22,0,.1-.05,.18-.18,.35q.05,.33,.59,2.63l4.59-1.1,.22-.29,1.32,.94c.17,.12,.2,.17,.2,.27,0,.17-.02,.18-.35,.32-.8,1.69-1.36,2.44-2.83,3.87-.44-.55-.45-.57-1.17-1.16,1.04-.82,1.54-1.37,2.16-2.43l-3.78,.97,.69,2.64Z"/><path class="cls-2" d="M52.08,39.2c.18,0,.28,.07,.28,.17s-.07,.17-.32,.33q0,.49-.02,1.89v3.2c0,1.17,.02,1.91,.03,2.44h-1.96c.03-.57,.05-1.34,.05-2.44v-3.2c0-1.32-.02-2.04-.05-2.51l1.98,.12Zm4.95,5.12c0,3.55-.52,5.09-2.23,6.51-.95,.79-1.77,1.24-3.58,1.98-.3-.87-.55-1.26-1.07-1.64,1.44-.49,2.53-1.04,3.3-1.67,1.26-1.04,1.69-2.33,1.69-5v-3.26c0-1.27-.02-2.04-.05-2.51l1.98,.12c.18,.02,.28,.07,.28,.18,0,.08-.07,.17-.28,.32q-.03,.49-.03,1.89v3.1Z"/><path class="cls-2" d="M63.48,39.45h1.47c.5,0,2.44-.07,3.9-.12l6.83-.27,.25-.25,1.29,1.24c.12,.1,.15,.17,.15,.25q0,.13-.4,.25c-.28,.79-1.04,1.94-1.89,2.93-.54,.6-1.09,1.12-1.87,1.72-.47-.82-.55-.94-1.04-1.41,1.32-1.02,2.16-1.92,2.81-3.05l-6.03,.3c-2.63,.1-3.38,.15-5.04,.3l-.44-1.91Zm7.97,2.9c.13,.02,.27,.12,.27,.23s-.08,.2-.3,.35c-.22,3.57-.65,5.16-1.91,6.9-.64,.9-1.36,1.62-2.23,2.26-.33,.25-.59,.42-.74,.54-.49-.84-.69-1.07-1.22-1.42,3.21-2.14,4.29-4.3,4.29-8.64,0-.1-.02-.18-.03-.35l1.88,.13Z"/><path class="cls-2" d="M90.45,42.78h-6.66c-.57,0-1.46,.02-2.01,.03v-1.79c.5,.02,1.32,.03,2.01,.03h7.13c.57,0,1,0,1.42-.02q-.02,.54-.05,2.66v3.63c0,1.34,.02,2.31,.05,2.95h-1.89v-.79h-6.78c-.55,0-1.51,.02-2.01,.03v-1.79c.5,.02,1.36,.03,2.01,.03h6.78v-4.99Z"/><path class="cls-2" d="M99.03,40.16c1.74,.9,2.38,1.37,3.53,2.64l-1.32,1.46c-1.21-1.34-2.08-2.04-3.31-2.71l1.1-1.39Zm-.64,9.44c2.53-1.07,3.97-1.89,5.88-3.33,2.23-1.71,3.53-3.03,5.26-5.37,.33,.59,.62,.95,1.15,1.59-2.21,2.66-3.45,3.88-5.41,5.36-1.64,1.24-2.88,1.99-5.26,3.2-.07,.23-.13,.35-.25,.35-.08,0-.22-.08-.29-.2l-1.09-1.59Z"/><path class="cls-2" d="M122.16,42.33v-2.98l-.02-1.07,1.79,.12c.22,.02,.32,.07,.32,.18,0,.1-.07,.17-.32,.32v3.43h1.1c.92,0,2.24-.02,3-.05v1.76c-.79-.02-2.11-.05-3-.05h-1.1c-.07,1.62-.07,1.72-.18,2.36-.45,2.68-2.11,4.54-5.62,6.34-.33-.65-.67-1.12-1.15-1.56,1.96-.85,3.33-1.89,4.15-3.08,.75-1.09,.99-2.01,1.04-4.07h-3.3v1.27c0,1.1,.02,1.96,.05,2.44h-1.83c.03-.57,.05-1.34,.05-2.44v-1.27h-1.16c-.82,0-2.28,.03-3,.05v-1.76c.69,.03,2.14,.05,3,.05h1.16v-.87c0-1.32-.02-2.04-.05-2.51l1.83,.12c.18,.02,.28,.07,.28,.18,0,.1-.05,.13-.33,.32v2.76h3.3Z"/><path class="cls-2" d="M135.85,41.68c.1,.02,.2,.1,.2,.18,0,.1-.08,.18-.3,.3-.3,2.91-.59,4-1.37,5.26-.85,1.37-1.76,2.19-3.82,3.45-.22-.59-.57-1.09-1.1-1.61,1.64-.95,2.33-1.51,3.05-2.44,.95-1.27,1.37-2.91,1.37-5.26v-.08l1.97,.2Zm1.16,7.28c.15-.54,.18-1.21,.18-3.11v-2.93c0-1.29-.02-2.01-.05-2.51l1.93,.12c.2,.02,.3,.07,.3,.18,0,.08-.08,.17-.32,.32q-.02,.27-.03,1.89v4.74c2.38-1.15,3.68-2.11,5.64-4.12,.3,.87,.42,1.15,.69,1.79-2.24,2.08-3.7,3.05-6.48,4.39-.08,.22-.17,.32-.27,.32-.07,0-.17-.03-.25-.1l-1.34-.97Z"/></g><g><path class="cls-2" d="M23.51,44.84q1.94-.32,2.63-.47l.3,1.74c-.5,.05-2.01,.25-2.65,.37l-2.58,.42,.23,1.41c.37,2.34,.45,2.83,.65,3.78l-1.89,.33c-.15-1.32-.38-3.1-.52-3.97l-.2-1.27-2.86,.47c-1.27,.2-1.42,.23-2.63,.45l-.3-1.72c1.31-.15,1.92-.23,2.64-.35l2.88-.49-.38-2.36-2.03,.33c-.62,.1-.65,.1-1.57,.27q-.44,.08-.74,.13l-.28-1.69q.44-.05,2.33-.33l2.04-.33c0-.27-.5-3.03-.59-3.3l1.91-.07c.22,0,.28,.07,.28,.17,0,.08-.05,.15-.25,.33,.12,.8,.28,1.88,.38,2.58l2.01-.33c.69-.12,1.74-.3,2.29-.42l.29,1.72c-1.17,.13-1.86,.23-2.31,.32l-2.03,.33,.39,2.36,2.54-.42Z"/><path class="cls-2" d="M37.2,48.22q.65,2.51,.89,3.31s.12,.37,.13,.47l-1.69,.45c-.07-.4-.47-2.43-.87-4l-.65-2.51-.4,.1c-1.11,.25-1.42,.33-2.68,.69-.12,.03-.15,.03-.33,.08l-.52-1.54c1.12-.2,1.57-.28,3.58-.74q-.72-2.79-.94-3.36l1.67-.18c.25-.03,.37,.08,.37,.22,0,.1-.05,.18-.18,.35q.05,.33,.59,2.63l4.59-1.1,.22-.29,1.32,.94c.17,.12,.2,.17,.2,.27,0,.17-.02,.18-.35,.32-.8,1.69-1.36,2.44-2.83,3.87-.44-.55-.45-.57-1.17-1.16,1.04-.82,1.54-1.37,2.16-2.43l-3.78,.97,.69,2.64Z"/><path class="cls-2" d="M52.08,39.2c.18,0,.28,.07,.28,.17s-.07,.17-.32,.33q0,.49-.02,1.89v3.2c0,1.17,.02,1.91,.03,2.44h-1.96c.03-.57,.05-1.34,.05-2.44v-3.2c0-1.32-.02-2.04-.05-2.51l1.98,.12Zm4.95,5.12c0,3.55-.52,5.09-2.23,6.51-.95,.79-1.77,1.24-3.58,1.98-.3-.87-.55-1.26-1.07-1.64,1.44-.49,2.53-1.04,3.3-1.67,1.26-1.04,1.69-2.33,1.69-5v-3.26c0-1.27-.02-2.04-.05-2.51l1.98,.12c.18,.02,.28,.07,.28,.18,0,.08-.07,.17-.28,.32q-.03,.49-.03,1.89v3.1Z"/><path class="cls-2" d="M63.48,39.45h1.47c.5,0,2.44-.07,3.9-.12l6.83-.27,.25-.25,1.29,1.24c.12,.1,.15,.17,.15,.25q0,.13-.4,.25c-.28,.79-1.04,1.94-1.89,2.93-.54,.6-1.09,1.12-1.87,1.72-.47-.82-.55-.94-1.04-1.41,1.32-1.02,2.16-1.92,2.81-3.05l-6.03,.3c-2.63,.1-3.38,.15-5.04,.3l-.44-1.91Zm7.97,2.9c.13,.02,.27,.12,.27,.23s-.08,.2-.3,.35c-.22,3.57-.65,5.16-1.91,6.9-.64,.9-1.36,1.62-2.23,2.26-.33,.25-.59,.42-.74,.54-.49-.84-.69-1.07-1.22-1.42,3.21-2.14,4.29-4.3,4.29-8.64,0-.1-.02-.18-.03-.35l1.88,.13Z"/><path class="cls-2" d="M90.45,42.78h-6.66c-.57,0-1.46,.02-2.01,.03v-1.79c.5,.02,1.32,.03,2.01,.03h7.13c.57,0,1,0,1.42-.02q-.02,.54-.05,2.66v3.63c0,1.34,.02,2.31,.05,2.95h-1.89v-.79h-6.78c-.55,0-1.51,.02-2.01,.03v-1.79c.5,.02,1.36,.03,2.01,.03h6.78v-4.99Z"/><path class="cls-2" d="M99.03,40.16c1.74,.9,2.38,1.37,3.53,2.64l-1.32,1.46c-1.21-1.34-2.08-2.04-3.31-2.71l1.1-1.39Zm-.64,9.44c2.53-1.07,3.97-1.89,5.88-3.33,2.23-1.71,3.53-3.03,5.26-5.37,.33,.59,.62,.95,1.15,1.59-2.21,2.66-3.45,3.88-5.41,5.36-1.64,1.24-2.88,1.99-5.26,3.2-.07,.23-.13,.35-.25,.35-.08,0-.22-.08-.29-.2l-1.09-1.59Z"/><path class="cls-2" d="M122.16,42.33v-2.98l-.02-1.07,1.79,.12c.22,.02,.32,.07,.32,.18,0,.1-.07,.17-.32,.32v3.43h1.1c.92,0,2.24-.02,3-.05v1.76c-.79-.02-2.11-.05-3-.05h-1.1c-.07,1.62-.07,1.72-.18,2.36-.45,2.68-2.11,4.54-5.62,6.34-.33-.65-.67-1.12-1.15-1.56,1.96-.85,3.33-1.89,4.15-3.08,.75-1.09,.99-2.01,1.04-4.07h-3.3v1.27c0,1.1,.02,1.96,.05,2.44h-1.83c.03-.57,.05-1.34,.05-2.44v-1.27h-1.16c-.82,0-2.28,.03-3,.05v-1.76c.69,.03,2.14,.05,3,.05h1.16v-.87c0-1.32-.02-2.04-.05-2.51l1.83,.12c.18,.02,.28,.07,.28,.18,0,.1-.05,.13-.33,.32v2.76h3.3Z"/><path class="cls-2" d="M135.85,41.68c.1,.02,.2,.1,.2,.18,0,.1-.08,.18-.3,.3-.3,2.91-.59,4-1.37,5.26-.85,1.37-1.76,2.19-3.82,3.45-.22-.59-.57-1.09-1.1-1.61,1.64-.95,2.33-1.51,3.05-2.44,.95-1.27,1.37-2.91,1.37-5.26v-.08l1.97,.2Zm1.16,7.28c.15-.54,.18-1.21,.18-3.11v-2.93c0-1.29-.02-2.01-.05-2.51l1.93,.12c.2,.02,.3,.07,.3,.18,0,.08-.08,.17-.32,.32q-.02,.27-.03,1.89v4.74c2.38-1.15,3.68-2.11,5.64-4.12,.3,.87,.42,1.15,.69,1.79-2.24,2.08-3.7,3.05-6.48,4.39-.08,.22-.17,.32-.27,.32-.07,0-.17-.03-.25-.1l-1.34-.97Z"/></g></g><g><path class="cls-2" d="M200.41,31.93c-.05,0-.1,0-.15-.02l-16.1-4.81c-.53-.16-.88-.63-.88-1.18s.35-1.02,.88-1.18l16.1-4.81c.28-.09,.58,.08,.67,.36s-.08,.58-.36,.67l-16.1,4.81c-.08,.02-.11,.07-.11,.15s.04,.13,.11,.15l16.1,4.81c.28,.08,.44,.38,.36,.67-.07,.23-.28,.38-.51,.38Z"/><g><path class="cls-1" d="M200.41,60.15c-.99,0-1.78-.8-1.78-1.78V26.43c0-.99,.8-1.78,1.78-1.78s1.78,.8,1.78,1.78v31.94c0,.99-.8,1.78-1.78,1.78Z"/><path class="cls-2" d="M166.28,71.12h-17.36c-.3,0-.54-.24-.54-.54s.24-.54,.54-.54h16.83v-5.57c0-.3,.24-.54,.54-.54h16.83v-5.57c0-.3,.24-.54,.54-.54h16.24V20.69c0-.3,.24-.54,.54-.54s.54,.24,.54,.54V58.37c0,.3-.24,.54-.54,.54h-16.24v5.57c0,.3-.24,.54-.54,.54h-16.83v5.57c0,.3-.24,.54-.54,.54Z"/><g><path class="cls-2" d="M169.22,28.9c-2.41,0-4.37-1.96-4.37-4.37s1.96-4.37,4.37-4.37,4.37,1.96,4.37,4.37-1.96,4.37-4.37,4.37Zm0-7.67c-1.82,0-3.3,1.48-3.3,3.3s1.48,3.3,3.3,3.3,3.3-1.48,3.3-3.3-1.48-3.3-3.3-3.3Z"/><path class="cls-2" d="M157.01,66.94c-.33,0-.65-.06-.97-.18-1.41-.53-2.12-2.11-1.59-3.52l7.97-27.61h-3.44l-3.64,6.44c-.48,.85-1.39,1.38-2.38,1.38-.47,0-.93-.12-1.34-.35-.64-.36-1.09-.94-1.29-1.65-.19-.7-.1-1.44,.25-2.07l4.43-7.83c.48-.85,1.39-1.38,2.37-1.38h9.93c1.71,0,3.35,.81,4.38,2.17l4.19,5.52,5.52-1.19c.79-.17,1.6,.02,2.24,.51,.63,.48,1.02,1.22,1.06,2.02,.07,1.32-.91,2.54-2.27,2.83l-7.09,1.53c-1.01,.22-2.12-.19-2.75-1.02l-3.01-3.99-2.72,7.82,6.68,.41s.09,.01,.13,.03c.42,.14,.96,.49,1.21,1.38l2.67,9.12c.49,1.39-.27,2.95-1.69,3.45-.29,.1-.59,.15-.9,.15-1.16,0-2.19-.74-2.58-1.83l-2.53-6.58-5.58-.12-4.72,12.78c-.26,.69-.77,1.23-1.43,1.52-.36,.16-.74,.24-1.12,.24Zm1.66-32.37h4.47c.17,0,.33,.08,.43,.21,.1,.13,.13,.31,.09,.47l-8.18,28.33c-.34,.9,.1,1.85,.95,2.18,.41,.16,.86,.14,1.27-.04,.4-.18,.71-.51,.87-.92l4.85-13.14c.08-.21,.3-.35,.51-.35l6.32,.13c.22,0,.41,.14,.49,.34l2.66,6.93c.24,.68,.87,1.13,1.57,1.13,.19,0,.37-.03,.55-.09,.86-.3,1.32-1.25,1.02-2.11l-2.68-9.15c-.12-.45-.33-.58-.45-.63l-7.31-.45c-.17-.01-.32-.1-.41-.24-.09-.14-.11-.31-.06-.47l3.28-9.44c.07-.19,.23-.32,.42-.35,.2-.03,.39,.05,.51,.21l3.61,4.79c.38,.5,1.07,.74,1.67,.62l7.09-1.53c.86-.18,1.47-.93,1.43-1.73-.03-.5-.26-.93-.64-1.23-.39-.3-.88-.41-1.36-.31l-5.85,1.26c-.2,.04-.41-.03-.54-.2l-4.4-5.79c-.83-1.1-2.15-1.75-3.53-1.75h-9.93c-.6,0-1.15,.32-1.44,.84l-4.43,7.83c-.22,.39-.27,.83-.16,1.26,.12,.43,.4,.78,.78,1,.77,.44,1.82,.14,2.26-.63l3.8-6.71c.09-.17,.27-.27,.47-.27Z"/></g></g></g></g></g></svg>