<?xml version="1.0" encoding="UTF-8"?><svg id="_レイヤー_2" xmlns="http://www.w3.org/2000/svg" xmlns:xlink="http://www.w3.org/1999/xlink" viewBox="0 0 217.74 91.01"><defs><style>.cls-1{fill:#fff;}.cls-2{fill:#333;}.cls-3{fill:url(#_新規グラデーションスウォッチ_1);}</style><linearGradient id="_新規グラデーションスウォッチ_1" x1="151.66" y1="48.33" x2="154.41" y2="48.33" gradientUnits="userSpaceOnUse"><stop offset="0" stop-color="#0d76a3"/><stop offset="0" stop-color="#0d74a2"/><stop offset=".18" stop-color="#10548a"/><stop offset=".37" stop-color="#133b78"/><stop offset=".56" stop-color="#152a6b"/><stop offset=".76" stop-color="#161f63"/><stop offset="1" stop-color="#171c61"/></linearGradient></defs><g id="_レイヤー_1-2"><g><polygon class="cls-1" points="201.73 91.01 0 91.01 16.01 0 217.74 0 201.73 91.01"/><g><g><path d="M22.37,12.33c.01-1.47,.47-2.59,1.36-3.38,.84-.78,1.84-1.17,3-1.17s2.21,.39,3.05,1.18c.85,.79,1.29,1.92,1.32,3.39v7.01c-.03,1.46-.47,2.59-1.32,3.38-.84,.78-1.86,1.18-3.05,1.2-1.16-.01-2.16-.41-3-1.2-.89-.79-1.35-1.91-1.36-3.37v-7.02Zm6.54,.14c-.04-1.59-.77-2.41-2.17-2.44-1.42,.03-2.14,.84-2.16,2.44v6.75c.03,1.61,.75,2.42,2.16,2.43,1.41-.01,2.13-.83,2.17-2.43v-6.75Z"/><path d="M36.05,14.6h.76c.75,0,1.34-.22,1.76-.65,.42-.42,.62-.96,.62-1.62-.01-.67-.23-1.22-.64-1.65-.42-.42-.95-.63-1.61-.65-.47,0-.9,.16-1.29,.47-.41,.31-.68,.8-.82,1.46h-2.21c.11-1.18,.57-2.17,1.38-2.97,.8-.8,1.75-1.21,2.85-1.22,1.4,.01,2.51,.48,3.34,1.38,.79,.89,1.19,1.93,1.2,3.14,0,.61-.11,1.2-.33,1.77-.25,.57-.71,1.07-1.36,1.51,.67,.44,1.15,.96,1.45,1.57,.28,.61,.42,1.25,.42,1.92-.01,1.49-.46,2.66-1.34,3.52-.87,.88-1.98,1.33-3.33,1.34-1.05,0-1.98-.35-2.79-1.04s-1.33-1.7-1.57-3.02h2.21c.2,.53,.48,.96,.83,1.29,.37,.34,.85,.51,1.46,.51,.65,0,1.19-.23,1.64-.69,.45-.43,.68-1.04,.7-1.83-.01-.81-.25-1.43-.7-1.88-.44-.43-1.01-.64-1.69-.64h-.94v-2Z"/><path d="M44.47,21.52h2.2v2.27h-2.2v-2.27Z"/></g><g><path class="cls-2" d="M22.37,12.33c.01-1.47,.47-2.59,1.36-3.38,.84-.78,1.84-1.17,3-1.17s2.21,.39,3.05,1.18c.85,.79,1.29,1.92,1.32,3.39v7.01c-.03,1.46-.47,2.59-1.32,3.38-.84,.78-1.86,1.18-3.05,1.2-1.16-.01-2.16-.41-3-1.2-.89-.79-1.35-1.91-1.36-3.37v-7.02Zm6.54,.14c-.04-1.59-.77-2.41-2.17-2.44-1.42,.03-2.14,.84-2.16,2.44v6.75c.03,1.61,.75,2.42,2.16,2.43,1.41-.01,2.13-.83,2.17-2.43v-6.75Z"/><path class="cls-2" d="M36.05,14.6h.76c.75,0,1.34-.22,1.76-.65,.42-.42,.62-.96,.62-1.62-.01-.67-.23-1.22-.64-1.65-.42-.42-.95-.63-1.61-.65-.47,0-.9,.16-1.29,.47-.41,.31-.68,.8-.82,1.46h-2.21c.11-1.18,.57-2.17,1.38-2.97,.8-.8,1.75-1.21,2.85-1.22,1.4,.01,2.51,.48,3.34,1.38,.79,.89,1.19,1.93,1.2,3.14,0,.61-.11,1.2-.33,1.77-.25,.57-.71,1.07-1.36,1.51,.67,.44,1.15,.96,1.45,1.57,.28,.61,.42,1.25,.42,1.92-.01,1.49-.46,2.66-1.34,3.52-.87,.88-1.98,1.33-3.33,1.34-1.05,0-1.98-.35-2.79-1.04s-1.33-1.7-1.57-3.02h2.21c.2,.53,.48,.96,.83,1.29,.37,.34,.85,.51,1.46,.51,.65,0,1.19-.23,1.64-.69,.45-.43,.68-1.04,.7-1.83-.01-.81-.25-1.43-.7-1.88-.44-.43-1.01-.64-1.69-.64h-.94v-2Z"/><path class="cls-2" d="M44.47,21.52h2.2v2.27h-2.2v-2.27Z"/></g></g><g><g><path class="cls-2" d="M21.99,47.43c.13,.02,.2,.08,.2,.18,0,.08-.02,.13-.1,.18l-.17,.1c-.15,1.84-.4,3.18-.8,4.32-.59-.35-.77-.44-1.32-.62,.5-1.41,.7-2.54,.77-4.45l1.42,.28Zm-2.16-2.49c.59-.02,1.11-.02,1.57-.03,.32-.44,.64-.87,.92-1.31-.89-.84-1.44-1.25-2.48-1.96l.72-1.16c.23,.13,.45,.28,.67,.42,.57-.99,1.17-2.29,1.41-3.05l1.44,.6c.08,.03,.17,.15,.17,.22,0,.1-.12,.18-.35,.23-.55,1.14-1.07,2.13-1.51,2.79,.25,.2,.52,.4,.75,.62,.49-.8,.85-1.51,1.16-2.24l1.42,.67c.1,.05,.18,.15,.18,.23,0,.12-.12,.18-.37,.25-1.15,1.96-1.61,2.68-2.29,3.58,.5-.03,1-.1,1.52-.15-.13-.3-.27-.55-.44-.82l1.09-.62c.67,1.1,1,1.84,1.41,2.93l-1.31,.59c-.12-.33-.22-.64-.3-.89-.4,.07-.79,.12-1.19,.18v3.8c0,1.54,.02,2.69,.05,3.43h-1.71c.03-.74,.05-1.89,.05-3.43v-3.55c-.55,.07-1.12,.15-1.64,.22-.13,.17-.2,.23-.28,.23-.1,0-.2-.1-.23-.23l-.44-1.57Zm5.76,2.11c.59,.94,.82,1.49,1.44,3.43l-1.51,.62c-.47-1.97-.64-2.48-1.16-3.5l1.22-.55Zm8.57-6.29c-.57,1.31-1.21,2.59-2.13,3.68,.94,.75,1.96,1.34,3.67,2.06-.44,.57-.59,.84-.87,1.44-1.37-.64-2.71-1.39-3.83-2.41-1.1,1.04-2.11,1.69-4.03,2.64-.3-.64-.37-.77-.79-1.27,1.77-.84,2.78-1.49,3.82-2.51-.35-.45-.67-.92-.94-1.37-.13-.23-.25-.47-.38-.72-.45,.6-1,1.21-1.71,1.88-.32-.5-.45-.64-1.07-1.19,1.72-1.54,2.59-2.86,3.43-5.24l1.51,.59c.08,.03,.12,.08,.12,.17,0,.12-.07,.15-.37,.23-.12,.3-.25,.6-.37,.9h3.05l.25-.32,.94,.94c.08,.08,.12,.18,.12,.28s-.08,.17-.28,.2l-.12,.02Zm-5.59,8.72c2.48,.8,3.51,1.26,5.42,2.41l-.89,1.39c-2.21-1.32-2.85-1.64-5.21-2.49l.67-1.31Zm1.37-2.84c1.14,.42,2.38,1.05,3.45,1.81l-.87,1.25c-1.44-1-1.76-1.17-3.28-1.84l.7-1.22Zm-.38-5.57c.38,.82,.84,1.59,1.39,2.29,.57-.7,1.04-1.47,1.42-2.29h-2.81Z"/><path class="cls-2" d="M50.51,40.48c-1.62,1.44-3.42,2.64-5.31,3.7,0,.42-.02,1.1-.02,2.41v1.69c0,.6,.02,1.76,.03,2.95v.17c0,.85-.13,1.22-.57,1.49-.47,.3-1,.38-2.54,.38h-.44c-.03-.9-.05-1.1-.27-1.76,.57,.03,.8,.05,1.02,.05,.49,0,.82-.03,.97-.12,.13-.07,.15-.13,.15-.55v-4.3c0-1.77-.07-3.5-.13-3.93l1.51,.1c1.09-.65,2.14-1.37,3.08-2.19h-8.34c-.7,0-1.71,.02-2.34,.03v-1.62c.64,.03,1.64,.05,2.34,.05h10.11l.22-.23,1.14,1.04c.08,.08,.15,.18,.15,.29,0,.12-.13,.23-.3,.27l-.47,.1Z"/></g><g><path class="cls-2" d="M21.99,47.43c.13,.02,.2,.08,.2,.18,0,.08-.02,.13-.1,.18l-.17,.1c-.15,1.84-.4,3.18-.8,4.32-.59-.35-.77-.44-1.32-.62,.5-1.41,.7-2.54,.77-4.45l1.42,.28Zm-2.16-2.49c.59-.02,1.11-.02,1.57-.03,.32-.44,.64-.87,.92-1.31-.89-.84-1.44-1.25-2.48-1.96l.72-1.16c.23,.13,.45,.28,.67,.42,.57-.99,1.17-2.29,1.41-3.05l1.44,.6c.08,.03,.17,.15,.17,.22,0,.1-.12,.18-.35,.23-.55,1.14-1.07,2.13-1.51,2.79,.25,.2,.52,.4,.75,.62,.49-.8,.85-1.51,1.16-2.24l1.42,.67c.1,.05,.18,.15,.18,.23,0,.12-.12,.18-.37,.25-1.15,1.96-1.61,2.68-2.29,3.58,.5-.03,1-.1,1.52-.15-.13-.3-.27-.55-.44-.82l1.09-.62c.67,1.1,1,1.84,1.41,2.93l-1.31,.59c-.12-.33-.22-.64-.3-.89-.4,.07-.79,.12-1.19,.18v3.8c0,1.54,.02,2.69,.05,3.43h-1.71c.03-.74,.05-1.89,.05-3.43v-3.55c-.55,.07-1.12,.15-1.64,.22-.13,.17-.2,.23-.28,.23-.1,0-.2-.1-.23-.23l-.44-1.57Zm5.76,2.11c.59,.94,.82,1.49,1.44,3.43l-1.51,.62c-.47-1.97-.64-2.48-1.16-3.5l1.22-.55Zm8.57-6.29c-.57,1.31-1.21,2.59-2.13,3.68,.94,.75,1.96,1.34,3.67,2.06-.44,.57-.59,.84-.87,1.44-1.37-.64-2.71-1.39-3.83-2.41-1.1,1.04-2.11,1.69-4.03,2.64-.3-.64-.37-.77-.79-1.27,1.77-.84,2.78-1.49,3.82-2.51-.35-.45-.67-.92-.94-1.37-.13-.23-.25-.47-.38-.72-.45,.6-1,1.21-1.71,1.88-.32-.5-.45-.64-1.07-1.19,1.72-1.54,2.59-2.86,3.43-5.24l1.51,.59c.08,.03,.12,.08,.12,.17,0,.12-.07,.15-.37,.23-.12,.3-.25,.6-.37,.9h3.05l.25-.32,.94,.94c.08,.08,.12,.18,.12,.28s-.08,.17-.28,.2l-.12,.02Zm-5.59,8.72c2.48,.8,3.51,1.26,5.42,2.41l-.89,1.39c-2.21-1.32-2.85-1.64-5.21-2.49l.67-1.31Zm1.37-2.84c1.14,.42,2.38,1.05,3.45,1.81l-.87,1.25c-1.44-1-1.76-1.17-3.28-1.84l.7-1.22Zm-.38-5.57c.38,.82,.84,1.59,1.39,2.29,.57-.7,1.04-1.47,1.42-2.29h-2.81Z"/><path class="cls-2" d="M50.51,40.48c-1.62,1.44-3.42,2.64-5.31,3.7,0,.42-.02,1.1-.02,2.41v1.69c0,.6,.02,1.76,.03,2.95v.17c0,.85-.13,1.22-.57,1.49-.47,.3-1,.38-2.54,.38h-.44c-.03-.9-.05-1.1-.27-1.76,.57,.03,.8,.05,1.02,.05,.49,0,.82-.03,.97-.12,.13-.07,.15-.13,.15-.55v-4.3c0-1.77-.07-3.5-.13-3.93l1.51,.1c1.09-.65,2.14-1.37,3.08-2.19h-8.34c-.7,0-1.71,.02-2.34,.03v-1.62c.64,.03,1.64,.05,2.34,.05h10.11l.22-.23,1.14,1.04c.08,.08,.15,.18,.15,.29,0,.12-.13,.23-.3,.27l-.47,.1Z"/></g></g><g><path class="cls-2" d="M177.94,28.1l-.45-1.55,14.97-4.39-14.97-4.39,.45-1.55,15.68,4.59c.6,.18,1,.71,1,1.34s-.4,1.16-1,1.34l-15.68,4.59Z"/><path class="cls-1" d="M177.71,78.38c-1.49,0-2.69-1.2-2.69-2.69V15.32c0-1.49,1.2-2.69,2.69-2.69s2.69,1.2,2.69,2.69v60.37c0,1.49-1.2,2.69-2.69,2.69Z"/><path class="cls-2" d="M177.71,76.5c-.45,0-.81-.36-.81-.81V15.32c0-.45,.36-.81,.81-.81s.81,.36,.81,.81v60.37c0,.45-.36,.81-.81,.81Z"/><g><g><path class="cls-1" d="M159.29,30.12c2.47,0,4.49-2.01,4.49-4.49s-2.01-4.49-4.49-4.49-4.49,2.01-4.49,4.49,2.01,4.49,4.49,4.49Z"/><path class="cls-1" d="M159.29,32.81c-3.96,0-7.18-3.22-7.18-7.18s3.22-7.18,7.18-7.18,7.18,3.22,7.18,7.18-3.22,7.18-7.18,7.18Zm0-8.97c-.99,0-1.8,.81-1.8,1.8s.81,1.8,1.8,1.8,1.8-.81,1.8-1.8-.81-1.8-1.8-1.8Z"/></g><path class="cls-2" d="M159.29,30.93c-2.92,0-5.29-2.37-5.29-5.29s2.38-5.29,5.29-5.29,5.29,2.37,5.29,5.29-2.38,5.29-5.29,5.29Zm0-8.97c-2.03,0-3.68,1.65-3.68,3.68s1.65,3.68,3.68,3.68,3.68-1.65,3.68-3.68-1.65-3.68-3.68-3.68Z"/></g><path class="cls-1" d="M163.55,78.38h-8.49c-1.41,0-2.58-1.09-2.68-2.49l-1.29-17.5c-2.73-.69-5.04-2.69-5.25-6.01l-1.01-13.34c0-.07,0-.14,0-.2,0-4.15,3.31-7.6,7.38-7.7h30.56c1.1,0,2.09,.67,2.5,1.7,.2,.51,.24,1.06,.13,1.57-.28,3.54-2.66,6.91-6.8,6.91l-9.81,.02-2.55,34.56c-.1,1.4-1.27,2.49-2.68,2.49Zm-5.99-5.38h3.49l2.55-34.55c.06-.79,.45-1.48,1.04-1.93h-12.37c-1.07,.03-2.03,1.04-2.07,2.24l1,13.26c.08,1.33,2.02,1.27,2.24,1.27,.53-.03,1.05,.11,1.51,.38,.75,.45,1.27,1.26,1.34,2.13l1.27,17.21Z"/><path class="cls-2" d="M163.55,76.5h-8.49c-.42,0-.77-.33-.8-.75l-1.4-18.98c-2.47-.14-4.95-1.53-5.14-4.5l-1.01-13.37c0-3.19,2.49-5.8,5.54-5.88h30.52c.33,0,.63,.2,.75,.51,.07,.18,.07,.39,.01,.57-.15,2.62-1.71,5.33-4.86,5.33-.02,0-.04,0-.06,0l-11.57,.02-2.68,36.3c-.03,.42-.38,.75-.8,.75Zm-7.74-1.61h6.99l2.68-36.3c.03-.42,.38-.75,.8-.75l12.33-.02h.04c2.08,0,2.94-1.74,3.19-3.18h-29.57c-2.17,.05-3.95,1.94-3.95,4.2l1.01,13.32c.16,2.52,2.74,3.07,4.21,3,.17-.01,.32,.03,.45,.11,.22,.14,.41,.39,.43,.65l1.4,18.96Zm26.98-41.02h0s-.04-.04-.04-.04l.03,.04Z"/><path class="cls-3" d="M153.6,56.8c-.42,0-.77-.32-.8-.75l-1.13-15.33c-.03-.44,.3-.83,.75-.86,.44-.03,.83,.3,.86,.75l1.13,15.33c.03,.44-.3,.83-.75,.86-.02,0-.04,0-.06,0Z"/><path class="cls-1" d="M192.99,78.38h-45.22c-1.49,0-2.69-1.2-2.69-2.69s1.2-2.69,2.69-2.69h45.22c1.49,0,2.69,1.2,2.69,2.69s-1.2,2.69-2.69,2.69Z"/><path class="cls-2" d="M192.99,76.5h-45.22c-.45,0-.81-.36-.81-.81s.36-.81,.81-.81h45.22c.45,0,.81,.36,.81,.81s-.36,.81-.81,.81Z"/></g></g></g></svg>