<?xml version="1.0" encoding="UTF-8"?><svg id="_レイヤー_2" xmlns="http://www.w3.org/2000/svg" viewBox="0 0 217.74 91.01"><defs><style>.cls-1{fill:#fff;}.cls-2{fill:#333;}</style></defs><g id="_レイヤー_1-2"><g><polygon class="cls-1" points="201.73 91.01 0 91.01 16.01 0 217.74 0 201.73 91.01"/><g><g><path d="M22.37,12.43c.01-1.47,.47-2.59,1.36-3.38,.84-.78,1.84-1.17,3-1.17s2.21,.39,3.05,1.18c.85,.79,1.29,1.92,1.32,3.39v7.01c-.03,1.46-.47,2.59-1.32,3.38-.84,.78-1.86,1.18-3.05,1.2-1.16-.01-2.16-.41-3-1.2-.89-.79-1.35-1.91-1.36-3.37v-7.02Zm6.54,.14c-.04-1.59-.77-2.41-2.17-2.44-1.42,.03-2.14,.84-2.16,2.44v6.75c.03,1.61,.75,2.42,2.16,2.43,1.41-.01,2.13-.83,2.17-2.43v-6.75Z"/><path d="M32.95,21.76l6.02-7.77c.23-.31,.39-.6,.48-.87,.06-.25,.08-.5,.08-.72,0-.6-.18-1.12-.54-1.56-.37-.44-.9-.67-1.59-.69-.61,0-1.11,.2-1.51,.6-.42,.4-.66,.96-.74,1.69h-2.2c.06-1.32,.49-2.41,1.29-3.28,.81-.84,1.81-1.27,2.99-1.28,1.32,.01,2.4,.45,3.22,1.31,.84,.85,1.26,1.93,1.28,3.24,0,1.05-.31,1.98-.93,2.79l-4.95,6.41h5.88v2.27h-8.78v-2.14Z"/><path d="M44.46,21.63h2.2v2.27h-2.2v-2.27Z"/></g><g><path class="cls-2" d="M22.37,12.43c.01-1.47,.47-2.59,1.36-3.38,.84-.78,1.84-1.17,3-1.17s2.21,.39,3.05,1.18c.85,.79,1.29,1.92,1.32,3.39v7.01c-.03,1.46-.47,2.59-1.32,3.38-.84,.78-1.86,1.18-3.05,1.2-1.16-.01-2.16-.41-3-1.2-.89-.79-1.35-1.91-1.36-3.37v-7.02Zm6.54,.14c-.04-1.59-.77-2.41-2.17-2.44-1.42,.03-2.14,.84-2.16,2.44v6.75c.03,1.61,.75,2.42,2.16,2.43,1.41-.01,2.13-.83,2.17-2.43v-6.75Z"/><path class="cls-2" d="M32.95,21.76l6.02-7.77c.23-.31,.39-.6,.48-.87,.06-.25,.08-.5,.08-.72,0-.6-.18-1.12-.54-1.56-.37-.44-.9-.67-1.59-.69-.61,0-1.11,.2-1.51,.6-.42,.4-.66,.96-.74,1.69h-2.2c.06-1.32,.49-2.41,1.29-3.28,.81-.84,1.81-1.27,2.99-1.28,1.32,.01,2.4,.45,3.22,1.31,.84,.85,1.26,1.93,1.28,3.24,0,1.05-.31,1.98-.93,2.79l-4.95,6.41h5.88v2.27h-8.78v-2.14Z"/><path class="cls-2" d="M44.46,21.63h2.2v2.27h-2.2v-2.27Z"/></g></g><g><g><path class="cls-2" d="M28.14,38.22c.23,.08,.33,.17,.33,.27,0,.13,0,.15-.4,.25,.85,1.32,1.59,2.16,2.64,3,1.24,1,2.58,1.74,4.47,2.51q-.6,.72-1.02,1.59c-2.16-1.04-2.96-1.52-4.32-2.64-1.26-1.04-1.71-1.52-2.75-3.16-.82,1.26-1.44,1.98-2.49,2.95-1.34,1.26-2.38,1.99-4.57,3.26-.39-.79-.55-1.05-.99-1.57,1.94-1,3.06-1.77,4.37-2.98,1.31-1.19,2.06-2.14,3.18-4.02l1.54,.55Zm-1.62,6.18c0-.77,0-.97-.03-1.56l1.79,.12c.18,.02,.3,.07,.3,.17s-.1,.2-.32,.33v2.73h2.38c.64,0,1.49-.02,1.99-.03v1.64c-.5-.03-1.44-.05-1.99-.05h-2.38v3.53h3.03c1.05,0,2.48-.03,3.33-.07v1.72c-.89-.03-2.31-.05-3.33-.05h-8.25c-.92,0-2.43,.02-3.33,.05v-1.72c.72,.03,1.91,.05,2.85,.07v-3.85c0-.77,0-.97-.03-1.54l1.76,.1c.18,.02,.3,.08,.3,.17,0,.1-.1,.2-.33,.33v4.79h2.28v-6.88Z"/><path class="cls-2" d="M44.6,50.36c0,1.27,.02,2.34,.05,2.95h-1.64c.03-.65,.05-1.59,.05-2.95v-.89c-.97,.85-1.61,1.29-2.68,1.88-1.27,.69-2.14,1.04-3.83,1.56-.29-.75-.32-.84-.7-1.47,2.53-.67,4.29-1.44,5.77-2.51h-2.13c-.87,0-1.96,.02-2.66,.05v-1.42c.7,.03,1.79,.05,2.66,.05h3.57v-.82h-2.14c-.85,0-1.96,.02-2.66,.05v-1.41c.7,.02,1.81,.05,2.66,.05h2.14v-.79h-2.96c-.87,0-1.97,.03-2.68,.07v-1.42c.7,.03,1.81,.05,2.68,.05h1.02c-.2-.5-.45-.97-.74-1.42h-.69c-.92,0-2.43,.02-3.33,.05v-1.52c.75,.03,1.98,.05,2.91,.05-.33-.55-.59-.87-1.22-1.57l1.14-.89c.94,.89,1.17,1.16,1.79,2.16l-.47,.3h1.24v-1.64l-.02-1.07,1.57,.12c.2,.02,.32,.07,.32,.17s-.1,.2-.33,.33v2.09h1.22v-1.64c0-.45,0-.82-.02-1.07l1.59,.12c.18,.02,.3,.07,.3,.17s-.1,.2-.33,.33v2.09h.67c.52-1.04,.69-1.52,.9-2.41l1.62,.59c.1,.03,.18,.12,.18,.18,0,.12-.05,.15-.38,.27q-.1,.2-.5,1.02c-.05,.1-.12,.22-.2,.35,1.02,0,2.29-.02,3.08-.05v1.52c-.89-.03-2.31-.05-3.33-.05h-1.09c.22,.07,.27,.15,.27,.22,0,.1-.08,.15-.37,.23q-.12,.22-.5,.97h1.31c.77,0,1.94-.02,2.66-.05v1.42c-.72-.03-1.89-.07-2.66-.07h-3.11v.79h2.28c.77,0,1.96-.03,2.68-.05v1.41c-.72-.03-1.91-.05-2.68-.05h-2.28v.82h3.77c.77,0,1.94-.02,2.66-.05v1.42c-.72-.03-1.89-.05-2.66-.05h-2.48c1.54,1.09,3.26,1.76,5.93,2.34-.38,.62-.47,.8-.75,1.52-1.67-.42-2.83-.87-4.23-1.62-.89-.5-1.39-.85-2.23-1.64v.84Zm.25-6.98c.22-.47,.44-.94,.59-1.42h-3.4c.32,.43,.57,.92,.77,1.42h2.04Z"/><path class="cls-2" d="M64.04,51.51c.52,.05,1.1,.07,1.77,.07,1.04,0,1.86-.03,2.81-.12q-.23,.92-.33,1.62c-.72,.05-1.34,.07-2.39,.07-2.33,0-3.67-.27-4.77-.92-.49-.28-.85-.59-1.19-1l-.03,.05c-.55,.8-1.1,1.32-2.29,2.09-.38-.8-.45-.9-.9-1.37,2.08-1.34,2.58-2.16,3.13-5.12l1.37,.45c.25,.07,.3,.12,.3,.22,0,.12-.05,.15-.35,.27-.17,.8-.32,1.41-.49,1.92,.45,.62,1.02,1.14,1.76,1.42v-4.54h-2.83c-.49,0-1.19,.02-1.67,.03v-1.39c-.49,.27-.99,.5-1.47,.74v1.25c0,.62,0,1.81,.03,3.46v.27c0,.89-.07,1.29-.27,1.56-.38,.52-1.05,.67-2.95,.69-.05-.67-.18-1.27-.37-1.77,.55,.05,.87,.07,1.24,.07,.64,0,.7-.07,.7-.7v-4.08c-.33,.13-.7,.28-1.09,.45l-.08,.2c-.05,.13-.12,.18-.22,.18s-.18-.05-.23-.18l-.74-1.61c.92-.3,1.67-.55,2.36-.8v-2.28h-.67c-.45,0-.99,.02-1.34,.03v-1.59c.37,.02,.97,.03,1.34,.03h.67c-.02-1.82-.05-2.96-.1-3.38l1.79,.12c.15,.02,.25,.08,.25,.17,0,.1-.08,.18-.3,.32-.02,.6-.03,1.67-.03,2.78h.62c.35,0,.95-.02,1.34-.03v1.59c-.37-.02-.89-.03-1.34-.03h-.62v1.64c.67-.3,1.32-.64,2.04-1.02l.29,1.49c-.18,.1-.35,.18-.52,.28,.44,0,.96,.02,1.34,.02h7.13c.49,0,1.19-.02,1.66-.03v1.57c-.47-.02-1.17-.03-1.66-.03h-2.7v1.32h2.24l1.32-.02v1.51l-1.32-.02h-2.24v2.09Zm-2.86-7.33v.52h-1.59c.03-.4,.05-.95,.05-1.77v-3.1c0-.54-.02-1.17-.05-1.47,.37,.02,.72,.02,1.21,.02h4.82c.49,0,.84,0,1.21-.02-.02,.3-.05,.94-.05,1.47v3.1c0,.79,.02,1.36,.05,1.74h-1.57v-.49h-4.07Zm4.07-4.44h-4.07v.87h4.07v-.87Zm0,2.19h-4.07v.87h4.07v-.87Z"/><path class="cls-2" d="M76.56,47.73c0-.45,0-.89-.03-1.34-1.59,.49-3.55,.82-6.14,1.04-.05-.33-.29-1.05-.45-1.39,2.41-.13,4.13-.35,5.57-.7-.6-.12-1.21-.2-1.83-.27-.15,.17-.3,.33-.45,.49l-1.19-.95c.47-.37,.87-.79,1.27-1.22h-.08c-.94,0-2.44,.02-3.35,.05v-1.41c.87,.03,2.38,.05,3.35,.05h1.24c.28-.35,.55-.7,.82-1.07,.15-.23,.32-.47,.44-.72l1.47,.74c.08,.03,.15,.12,.15,.22,0,.13-.12,.2-.52,.23-.18,.22-.35,.42-.52,.6h5.14c1.05,0,2.49-.02,3.35-.05v1.41c-.89-.03-2.33-.05-3.35-.05h-.08c-.49,.58-1.04,1.1-1.66,1.54l.15,.03c2.29,.52,2.58,.6,4.2,1.14l-.94,1.31c-1.86-.7-2.46-.89-4.85-1.44l-.32-.08c-.38,.17-.75,.32-1.15,.43l1.44,.08c.18,.02,.28,.08,.28,.17,0,.1-.1,.2-.33,.33v.84h3.53c1.05,0,2.48-.03,3.33-.07v1.42c-.89-.03-2.31-.07-3.33-.07h-2.53c.49,.35,1,.64,1.71,.97,1.34,.64,2.41,.99,4.47,1.46-.37,.45-.49,.65-.75,1.42-2.08-.55-3.15-.99-4.55-1.82-.8-.47-1.39-.89-1.89-1.32v1.14c0,1.17,.02,1.98,.05,2.46h-1.69c.03-.6,.03-1.39,.03-2.46v-1.14c-1.74,1.46-3.88,2.54-6.63,3.36-.17-.55-.3-.84-.64-1.37,1.59-.42,2.59-.79,3.97-1.46,.89-.42,1.44-.74,2.08-1.24h-2.34c-.92,0-2.43,.03-3.33,.07v-1.42c.85,.03,2.38,.07,3.33,.07h3.57Zm0-9.01c0-.47,0-.84-.02-1.09l1.64,.12c.2,.02,.32,.08,.32,.17,0,.1-.1,.2-.33,.33v.64h2.96c1.16,0,2.46-.02,3.33-.07-.03,.45-.03,.72-.03,.99v.62c0,.37,.02,.77,.05,1.19h-1.72c.03-.37,.05-.85,.05-1.19v-.23h-10.88v.23c0,.33,.02,.82,.03,1.19h-1.71c.03-.42,.05-.82,.05-1.19v-.62c0-.27-.02-.54-.03-.99,.85,.05,2.18,.07,3.31,.07h2.98v-.17Zm-1.36,4.65c-.2,.23-.4,.45-.62,.69,1.09,.13,2.18,.27,3.25,.47,.59-.3,1.11-.7,1.57-1.15h-4.2Z"/></g><g><path class="cls-2" d="M28.14,38.22c.23,.08,.33,.17,.33,.27,0,.13,0,.15-.4,.25,.85,1.32,1.59,2.16,2.64,3,1.24,1,2.58,1.74,4.47,2.51q-.6,.72-1.02,1.59c-2.16-1.04-2.96-1.52-4.32-2.64-1.26-1.04-1.71-1.52-2.75-3.16-.82,1.26-1.44,1.98-2.49,2.95-1.34,1.26-2.38,1.99-4.57,3.26-.39-.79-.55-1.05-.99-1.57,1.94-1,3.06-1.77,4.37-2.98,1.31-1.19,2.06-2.14,3.18-4.02l1.54,.55Zm-1.62,6.18c0-.77,0-.97-.03-1.56l1.79,.12c.18,.02,.3,.07,.3,.17s-.1,.2-.32,.33v2.73h2.38c.64,0,1.49-.02,1.99-.03v1.64c-.5-.03-1.44-.05-1.99-.05h-2.38v3.53h3.03c1.05,0,2.48-.03,3.33-.07v1.72c-.89-.03-2.31-.05-3.33-.05h-8.25c-.92,0-2.43,.02-3.33,.05v-1.72c.72,.03,1.91,.05,2.85,.07v-3.85c0-.77,0-.97-.03-1.54l1.76,.1c.18,.02,.3,.08,.3,.17,0,.1-.1,.2-.33,.33v4.79h2.28v-6.88Z"/><path class="cls-2" d="M44.6,50.36c0,1.27,.02,2.34,.05,2.95h-1.64c.03-.65,.05-1.59,.05-2.95v-.89c-.97,.85-1.61,1.29-2.68,1.88-1.27,.69-2.14,1.04-3.83,1.56-.29-.75-.32-.84-.7-1.47,2.53-.67,4.29-1.44,5.77-2.51h-2.13c-.87,0-1.96,.02-2.66,.05v-1.42c.7,.03,1.79,.05,2.66,.05h3.57v-.82h-2.14c-.85,0-1.96,.02-2.66,.05v-1.41c.7,.02,1.81,.05,2.66,.05h2.14v-.79h-2.96c-.87,0-1.97,.03-2.68,.07v-1.42c.7,.03,1.81,.05,2.68,.05h1.02c-.2-.5-.45-.97-.74-1.42h-.69c-.92,0-2.43,.02-3.33,.05v-1.52c.75,.03,1.98,.05,2.91,.05-.33-.55-.59-.87-1.22-1.57l1.14-.89c.94,.89,1.17,1.16,1.79,2.16l-.47,.3h1.24v-1.64l-.02-1.07,1.57,.12c.2,.02,.32,.07,.32,.17s-.1,.2-.33,.33v2.09h1.22v-1.64c0-.45,0-.82-.02-1.07l1.59,.12c.18,.02,.3,.07,.3,.17s-.1,.2-.33,.33v2.09h.67c.52-1.04,.69-1.52,.9-2.41l1.62,.59c.1,.03,.18,.12,.18,.18,0,.12-.05,.15-.38,.27q-.1,.2-.5,1.02c-.05,.1-.12,.22-.2,.35,1.02,0,2.29-.02,3.08-.05v1.52c-.89-.03-2.31-.05-3.33-.05h-1.09c.22,.07,.27,.15,.27,.22,0,.1-.08,.15-.37,.23q-.12,.22-.5,.97h1.31c.77,0,1.94-.02,2.66-.05v1.42c-.72-.03-1.89-.07-2.66-.07h-3.11v.79h2.28c.77,0,1.96-.03,2.68-.05v1.41c-.72-.03-1.91-.05-2.68-.05h-2.28v.82h3.77c.77,0,1.94-.02,2.66-.05v1.42c-.72-.03-1.89-.05-2.66-.05h-2.48c1.54,1.09,3.26,1.76,5.93,2.34-.38,.62-.47,.8-.75,1.52-1.67-.42-2.83-.87-4.23-1.62-.89-.5-1.39-.85-2.23-1.64v.84Zm.25-6.98c.22-.47,.44-.94,.59-1.42h-3.4c.32,.43,.57,.92,.77,1.42h2.04Z"/><path class="cls-2" d="M64.04,51.51c.52,.05,1.1,.07,1.77,.07,1.04,0,1.86-.03,2.81-.12q-.23,.92-.33,1.62c-.72,.05-1.34,.07-2.39,.07-2.33,0-3.67-.27-4.77-.92-.49-.28-.85-.59-1.19-1l-.03,.05c-.55,.8-1.1,1.32-2.29,2.09-.38-.8-.45-.9-.9-1.37,2.08-1.34,2.58-2.16,3.13-5.12l1.37,.45c.25,.07,.3,.12,.3,.22,0,.12-.05,.15-.35,.27-.17,.8-.32,1.41-.49,1.92,.45,.62,1.02,1.14,1.76,1.42v-4.54h-2.83c-.49,0-1.19,.02-1.67,.03v-1.39c-.49,.27-.99,.5-1.47,.74v1.25c0,.62,0,1.81,.03,3.46v.27c0,.89-.07,1.29-.27,1.56-.38,.52-1.05,.67-2.95,.69-.05-.67-.18-1.27-.37-1.77,.55,.05,.87,.07,1.24,.07,.64,0,.7-.07,.7-.7v-4.08c-.33,.13-.7,.28-1.09,.45l-.08,.2c-.05,.13-.12,.18-.22,.18s-.18-.05-.23-.18l-.74-1.61c.92-.3,1.67-.55,2.36-.8v-2.28h-.67c-.45,0-.99,.02-1.34,.03v-1.59c.37,.02,.97,.03,1.34,.03h.67c-.02-1.82-.05-2.96-.1-3.38l1.79,.12c.15,.02,.25,.08,.25,.17,0,.1-.08,.18-.3,.32-.02,.6-.03,1.67-.03,2.78h.62c.35,0,.95-.02,1.34-.03v1.59c-.37-.02-.89-.03-1.34-.03h-.62v1.64c.67-.3,1.32-.64,2.04-1.02l.29,1.49c-.18,.1-.35,.18-.52,.28,.44,0,.96,.02,1.34,.02h7.13c.49,0,1.19-.02,1.66-.03v1.57c-.47-.02-1.17-.03-1.66-.03h-2.7v1.32h2.24l1.32-.02v1.51l-1.32-.02h-2.24v2.09Zm-2.86-7.33v.52h-1.59c.03-.4,.05-.95,.05-1.77v-3.1c0-.54-.02-1.17-.05-1.47,.37,.02,.72,.02,1.21,.02h4.82c.49,0,.84,0,1.21-.02-.02,.3-.05,.94-.05,1.47v3.1c0,.79,.02,1.36,.05,1.74h-1.57v-.49h-4.07Zm4.07-4.44h-4.07v.87h4.07v-.87Zm0,2.19h-4.07v.87h4.07v-.87Z"/><path class="cls-2" d="M76.56,47.73c0-.45,0-.89-.03-1.34-1.59,.49-3.55,.82-6.14,1.04-.05-.33-.29-1.05-.45-1.39,2.41-.13,4.13-.35,5.57-.7-.6-.12-1.21-.2-1.83-.27-.15,.17-.3,.33-.45,.49l-1.19-.95c.47-.37,.87-.79,1.27-1.22h-.08c-.94,0-2.44,.02-3.35,.05v-1.41c.87,.03,2.38,.05,3.35,.05h1.24c.28-.35,.55-.7,.82-1.07,.15-.23,.32-.47,.44-.72l1.47,.74c.08,.03,.15,.12,.15,.22,0,.13-.12,.2-.52,.23-.18,.22-.35,.42-.52,.6h5.14c1.05,0,2.49-.02,3.35-.05v1.41c-.89-.03-2.33-.05-3.35-.05h-.08c-.49,.58-1.04,1.1-1.66,1.54l.15,.03c2.29,.52,2.58,.6,4.2,1.14l-.94,1.31c-1.86-.7-2.46-.89-4.85-1.44l-.32-.08c-.38,.17-.75,.32-1.15,.43l1.44,.08c.18,.02,.28,.08,.28,.17,0,.1-.1,.2-.33,.33v.84h3.53c1.05,0,2.48-.03,3.33-.07v1.42c-.89-.03-2.31-.07-3.33-.07h-2.53c.49,.35,1,.64,1.71,.97,1.34,.64,2.41,.99,4.47,1.46-.37,.45-.49,.65-.75,1.42-2.08-.55-3.15-.99-4.55-1.82-.8-.47-1.39-.89-1.89-1.32v1.14c0,1.17,.02,1.98,.05,2.46h-1.69c.03-.6,.03-1.39,.03-2.46v-1.14c-1.74,1.46-3.88,2.54-6.63,3.36-.17-.55-.3-.84-.64-1.37,1.59-.42,2.59-.79,3.97-1.46,.89-.42,1.44-.74,2.08-1.24h-2.34c-.92,0-2.43,.03-3.33,.07v-1.42c.85,.03,2.38,.07,3.33,.07h3.57Zm0-9.01c0-.47,0-.84-.02-1.09l1.64,.12c.2,.02,.32,.08,.32,.17,0,.1-.1,.2-.33,.33v.64h2.96c1.16,0,2.46-.02,3.33-.07-.03,.45-.03,.72-.03,.99v.62c0,.37,.02,.77,.05,1.19h-1.72c.03-.37,.05-.85,.05-1.19v-.23h-10.88v.23c0,.33,.02,.82,.03,1.19h-1.71c.03-.42,.05-.82,.05-1.19v-.62c0-.27-.02-.54-.03-.99,.85,.05,2.18,.07,3.31,.07h2.98v-.17Zm-1.36,4.65c-.2,.23-.4,.45-.62,.69,1.09,.13,2.18,.27,3.25,.47,.59-.3,1.11-.7,1.57-1.15h-4.2Z"/></g></g><g><g><path class="cls-2" d="M162.82,46.59c-.43,0-.78-.35-.78-.78v-12.39h-7.72v12.39c0,.43-.35,.78-.78,.78s-.78-.35-.78-.78v-13.17c0-.43,.35-.78,.78-.78h9.27c.43,0,.78,.35,.78,.78v13.17c0,.43-.35,.78-.78,.78Z"/><path class="cls-2" d="M172.09,46.59c-.43,0-.78-.35-.78-.78V25.45h-7.72v20.36c0,.43-.35,.78-.78,.78s-.78-.35-.78-.78V24.67c0-.43,.35-.78,.78-.78h9.27c.43,0,.78,.35,.78,.78v21.14c0,.43-.35,.78-.78,.78Z"/><path class="cls-2" d="M181.35,46.59c-.43,0-.78-.35-.78-.78V17.48h-7.72v28.34c0,.43-.35,.78-.78,.78s-.78-.35-.78-.78V16.7c0-.43,.35-.78,.78-.78h9.27c.43,0,.78,.35,.78,.78v29.11c0,.43-.35,.78-.78,.78Z"/></g><g><path class="cls-1" d="M176.05,65.52h-27.93c-1.43,0-2.59-1.16-2.59-2.59s1.16-2.59,2.59-2.59h26.89l18.69-18.03c-1.71-.93-3.33-.59-5.38,.99-4.24,3.26-11.11,8.67-11.18,8.72-1.12,.89-2.75,.69-3.64-.43-.89-1.12-.69-2.75,.43-3.64,.07-.05,6.96-5.48,11.22-8.76,3.43-2.64,8.7-4.59,14.29,1.14,.48,.49,.75,1.16,.74,1.85-.01,.69-.3,1.35-.79,1.82l-21.55,20.79c-.48,.47-1.13,.73-1.8,.73Z"/><path class="cls-1" d="M176.4,56.73h-16.85c-1.43,0-2.59-1.16-2.59-2.59s1.16-2.59,2.59-2.59h13.87c-.56-1.45-1.62-1.82-2.55-1.82h-8.01c-.52,0-1.04-.16-1.47-.46-3.28-2.26-5.12-2.64-8.97-2.64s-7.25,1.43-12.68,8.4c-.88,1.13-2.5,1.33-3.63,.45-1.13-.88-1.33-2.51-.45-3.63,5.75-7.39,10.6-10.4,16.77-10.4,4.33,0,7.2,.48,11.22,3.1h7.22c3.02,0,8.12,2.02,8.12,9.59,0,1.43-1.16,2.59-2.59,2.59Z"/><path class="cls-2" d="M176.05,63.71h-27.93c-.43,0-.78-.35-.78-.78s.35-.78,.78-.78h27.62l20.75-20.02c-3.02-2.79-5.91-2.86-9.27-.28-4.25,3.27-11.12,8.68-11.19,8.74-.34,.27-.83,.21-1.09-.13-.27-.34-.21-.83,.13-1.09,.07-.05,6.95-5.48,11.21-8.75,4.15-3.19,8.15-2.86,11.89,.97,.14,.15,.22,.35,.22,.55,0,.21-.09,.4-.24,.55l-21.55,20.79c-.14,.14-.34,.22-.54,.22Z"/><path class="cls-2" d="M176.4,54.91h-16.85c-.43,0-.78-.35-.78-.78s.35-.78,.78-.78h16.05c-.31-5.04-3.67-5.44-4.73-5.44h-8.01c-.16,0-.31-.05-.44-.14-3.7-2.55-5.98-2.96-10-2.96-5.06,0-9.01,2.55-14.11,9.1-.26,.34-.75,.4-1.09,.14-.34-.26-.4-.75-.14-1.09,5.36-6.89,9.8-9.7,15.33-9.7,4.2,0,6.77,.45,10.68,3.1h7.77c1.05,0,6.31,.37,6.31,7.77,0,.43-.35,.78-.78,.78Z"/><path class="cls-1" d="M146.73,75.08c-.65,0-1.3-.24-1.8-.73-1.03-.99-1.06-2.63-.06-3.66l2.61-2.71-12.36-12.71-2.5,2.59c-.99,1.03-2.63,1.06-3.66,.06-1.03-.99-1.06-2.63-.06-3.66l4.35-4.51c.49-.5,1.16-.79,1.86-.79h0c.7,0,1.37,.28,1.86,.78l15.97,16.42c.98,1,.98,2.6,0,3.6l-4.35,4.51c-.51,.53-1.19,.79-1.86,.79Z"/><path class="cls-2" d="M146.73,73.27c-.19,0-.39-.07-.54-.22-.31-.3-.32-.79-.02-1.1l3.83-3.97-14.89-15.31-3.8,3.93c-.3,.31-.79,.32-1.1,.02-.31-.3-.32-.79-.02-1.1l4.35-4.51c.15-.15,.35-.24,.56-.24h0c.21,0,.41,.08,.56,.24l15.97,16.42c.29,.3,.29,.78,0,1.08l-4.35,4.51c-.15,.16-.36,.24-.56,.24Z"/></g></g></g></g></svg>