<?xml version="1.0" encoding="UTF-8"?><svg id="_レイヤー_2" xmlns="http://www.w3.org/2000/svg" xmlns:xlink="http://www.w3.org/1999/xlink" viewBox="0 0 53.55 60.98"><defs><style>.cls-1{stroke:url(#_新規グラデーションスウォッチ_1);}.cls-1,.cls-2,.cls-3,.cls-4,.cls-5,.cls-6{fill:none;stroke-linecap:round;stroke-linejoin:round;stroke-width:1.8px;}.cls-2{stroke:url(#_新規グラデーションスウォッチ_1-3);}.cls-3{stroke:url(#_新規グラデーションスウォッチ_1-4);}.cls-4{stroke:url(#_新規グラデーションスウォッチ_1-6);}.cls-5{stroke:url(#_新規グラデーションスウォッチ_1-2);}.cls-6{stroke:url(#_新規グラデーションスウォッチ_1-5);}</style><linearGradient id="_新規グラデーションスウォッチ_1" x1="20.71" y1="6.07" x2="32.85" y2="6.07" gradientUnits="userSpaceOnUse"><stop offset="0" stop-color="#0d76a3"/><stop offset="0" stop-color="#0d74a2"/><stop offset=".18" stop-color="#10548a"/><stop offset=".37" stop-color="#133b78"/><stop offset=".56" stop-color="#152a6b"/><stop offset=".76" stop-color="#161f63"/><stop offset="1" stop-color="#171c61"/></linearGradient><linearGradient id="_新規グラデーションスウォッチ_1-2" x1="18.93" y1="31.36" x2="21.82" y2="31.36" xlink:href="#_新規グラデーションスウォッチ_1"/><linearGradient id="_新規グラデーションスウォッチ_1-3" x1="13.32" y1="23.49" x2="40.23" y2="23.49" xlink:href="#_新規グラデーションスウォッチ_1"/><linearGradient id="_新規グラデーションスウォッチ_1-4" x1="31.74" y1="31.36" x2="34.62" y2="31.36" xlink:href="#_新規グラデーションスウォッチ_1"/><linearGradient id="_新規グラデーションスウォッチ_1-5" x1="0" y1="46.55" x2="25.93" y2="46.55" xlink:href="#_新規グラデーションスウォッチ_1"/><linearGradient id="_新規グラデーションスウォッチ_1-6" x1="23.39" y1="46.55" x2="53.55" y2="46.55" xlink:href="#_新規グラデーションスウォッチ_1"/></defs><g id="_レイヤー_1-2"><g><g><g><path class="cls-1" d="M26.78,11.24c2.85,0,5.17-2.32,5.17-5.17S29.63,.9,26.78,.9s-5.17,2.32-5.17,5.17,2.32,5.17,5.17,5.17Z"/><line class="cls-5" x1="20.92" y1="38.7" x2="19.83" y2="24.02"/></g><path class="cls-2" d="M38.59,31.07l.74-9.82c0-2.87-2.27-5.27-5.07-5.33h-14.97c-2.8,.07-5.07,2.46-5.07,5.33l.74,9.72"/><line class="cls-3" x1="32.64" y1="38.7" x2="33.72" y2="24.02"/></g><g><path class="cls-6" d="M25.03,47.05l-1.94,1.4-1.94,1.4,.75,2.28,.75,2.28,.75,2.28,.75,2.28c.06,.2,.06,.38,0,.55s-.17,.3-.31,.4-.3,.16-.48,.17-.36-.05-.52-.17l-1.93-1.41-1.93-1.41-1.93-1.41-1.93-1.41-1.93,1.41-1.93,1.41-1.93,1.41-1.93,1.41c-.17,.12-.35,.17-.52,.17s-.34-.07-.48-.17-.25-.24-.31-.4-.07-.35,0-.55l.75-2.28,.75-2.28,.75-2.28,.75-2.28-1.94-1.4-1.94-1.4-1.94-1.4-1.94-1.4c-.17-.12-.27-.28-.32-.44s-.04-.34,0-.51,.15-.31,.29-.42,.31-.17,.52-.17h2.4s2.4,.01,2.4,.01h2.4s2.4,.01,2.4,.01l.73-2.28,.73-2.28,.73-2.28,.73-2.28c.06-.2,.18-.34,.32-.44s.31-.15,.48-.15,.34,.05,.48,.15,.26,.25,.32,.44l.73,2.28,.73,2.28,.73,2.28,.73,2.28h2.4s1.29-.01,1.29-.01"/><path class="cls-4" d="M38.47,54.27l-7.74,5.65c-.67,.49-1.57-.17-1.31-.95l2.98-9.11-7.76-5.61c-.67-.48-.33-1.54,.5-1.54l9.58,.02,2.94-9.12c.25-.79,1.36-.79,1.62,0l2.94,9.12,9.58-.02c.82,0,1.17,1.05,.5,1.54l-7.76,5.61,2.98,9.11c.26,.78-.64,1.44-1.31,.95l-7.74-5.65Z"/></g></g></g></svg>