<?xml version="1.0" encoding="UTF-8"?>
<svg id="_レイヤー_2" data-name="レイヤー 2" xmlns="http://www.w3.org/2000/svg" viewBox="0 0 408.41 420.27">
  <defs>
    <style>
      .cls-1 {
        fill: #d5d5d5;
      }

      .cls-1, .cls-2, .cls-3 {
        stroke-width: 0px;
      }

      .cls-2 {
        fill: #333;
      }

      .cls-3 {
        fill: #fff;
      }
    </style>
  </defs>
  <g id="_レイヤー_1-2" data-name="レイヤー 1">
    <g>
      <rect class="cls-1" width="408.41" height="420.27" rx="11.38" ry="11.38"/>
      <g>
        <rect class="cls-2" x="143.46" y="245.88" width="105.83" height="37.99" rx="4.52" ry="4.52"/>
        <g>
          <path class="cls-3" d="m184.6,262.23c.15.01.25.08.25.15,0,.11-.09.18-.31.3v6.13c0,1.35.01,2.42.04,3.08h-1.53c.03-.67.04-1.69.04-3.08v-3.87c-.24.48-.46.85-.83,1.44-.34-.75-.5-.97-.9-1.42,1.35-2.13,2.2-4.25,2.85-7.08l1.44.56c.15.06.23.13.23.22,0,.11-.06.15-.36.24-.42,1.47-.63,2.08-1.14,3.31l.21.02Zm5.05-.27v-1.27c0-1.47-.01-2.28-.04-2.7l1.54.11c.17.01.27.07.27.15,0,.09-.09.18-.3.3-.01.74-.01.75-.01,2.15v.96l2.08-.45.3-.39,1.14.82c.06.04.12.14.12.23,0,.12,0,.15-.34.33-.06,4.24-.15,4.95-.53,5.52-.34.51-.76.66-1.86.66h-.29c-.04-.72-.09-.92-.32-1.53.29.01.42.03.56.03.46,0,.64-.04.73-.18.12-.18.2-1.2.21-2.88,0-.48,0-.66.02-1.14l-1.83.41v3.12c0,1.08,0,2.1.03,2.62h-1.53c.04-.61.04-1.38.04-2.62v-2.81l-1.58.35v5.61c0,.65.02.65,3.18.65,1.62,0,2.37-.06,2.6-.2.18-.11.25-.45.25-1.09q0-.11-.02-.69.36.13,1.52.41c0,1.68-.15,2.25-.66,2.64-.45.33-1.28.42-4.08.42-2.14,0-3.29-.09-3.66-.29-.46-.22-.61-.6-.61-1.46v-5.68c-.53.12-.77.18-1.41.33l-.34-1.42c.72-.13,1.3-.25,1.75-.34v-.24c0-1.44-.02-1.95-.08-2.33l1.67.13c.13,0,.22.08.22.17,0,.12-.09.2-.3.29-.01.46-.03.98-.03,1.59v.09l1.58-.35Z"/>
          <path class="cls-3" d="m197.96,261.98h-1.19s0-1.39,0-1.39c.33.01.87.03,1.19.03h.97v-1.27c0-.67,0-.86-.01-1.38l1.47.09c.17.01.27.08.27.15,0,.11-.09.18-.3.3v2.11h.93l.18-.24.88.78c.06.06.12.17.12.24,0,.12-.04.17-.34.24-.29.61-.58,1.21-.93,1.78-.25.42-.54.81-.84,1.22v.24c.9.51,1.37.86,2.38,1.79l-1,1.2c-.6-.66-.99-1.08-1.38-1.42v2.31c0,1.38.02,2.4.04,3.08h-1.51c.03-.67.04-1.7.04-3.08v-2.52c-.78.81-1.12,1.09-2.01,1.75-.04-.12-.09-.23-.12-.3-.08-.21-.24-.57-.48-1.08,2.11-1.64,3.18-2.81,4.11-4.62h-2.47Zm7.5,2.01h-1.29c-.5,0-1.35.03-1.8.04v-1.46c.45.03,1.22.04,1.8.04h1.29v-2.25c0-1.19-.01-1.82-.04-2.25l1.56.1c.17.01.25.06.25.15s-.08.17-.29.3v1.7s-.01,2.25-.01,2.25h1.65c.58,0,1.35-.01,1.8-.04v1.46c-.46-.01-1.3-.04-1.8-.04h-1.65v6.12h1.6c.6,0,1.58-.02,2.1-.04v1.46c-.55-.02-1.53-.03-2.1-.03h-5.21c-.63,0-1.47.01-2.08.03v-1.46c.57.03,1.43.04,2.08.04h2.13v-6.12Z"/>
        </g>
      </g>
      <g>
        <path class="cls-2" d="m30.86,316.66c.41,1.37.84,2.23,1.54,3.14.83,1.09,1.61,1.69,3.45,2.7-.37.32-.54.53-.85,1-1.64-.9-2.64-1.74-3.54-2.95-.55-.74-.92-1.45-1.24-2.39-.11.43-.24.8-.4,1.17-.52,1.2-1.34,2.23-2.42,3.01-.65.46-1.21.75-2.35,1.21-.17-.44-.28-.64-.61-1.04,1.56-.64,2.38-1.16,3.17-2,.94-.98,1.45-2.18,1.67-3.85h-1.99c-.66,0-1.74.02-2.39.05v-1.21c.61.04,1.7.05,2.39.05h2.1c.02-.53.04-1.31.05-3l1.24.13c.17.02.28.1.28.19,0,.08-.07.13-.28.2-.01.96-.05,1.78-.08,2.47h2.55c.76,0,1.77-.01,2.39-.05v1.21c-.64-.02-1.66-.05-2.39-.05h-2.28Z"/>
        <path class="cls-2" d="m42.78,319.76c.01.47.02,1.09.05,2.13v.18c0,.66-.13.98-.47,1.19-.37.22-.71.25-2.18.26-.02-.54-.06-.75-.19-1.33.5.04.77.05,1.13.05.44,0,.49-.05.49-.5v-1.98h-2.57c-.66,0-1.74.02-2.39.05v-1.2c.62.04,1.7.05,2.39.05h2.57v-1.46h-2.05c-.6,0-1.64.02-2.16.04v-1.18c.49.01,1.54.04,2.16.04h2.05v-1.55c-.91.11-1.62.14-4.07.28-.1-.5-.17-.74-.32-1.12,3.74-.08,6.48-.46,8.56-1.14l.78.82q.11.1.11.14c0,.08-.06.12-.17.12-.07,0-.16,0-.24-.01-1.15.34-2.22.58-3.48.76v1.7h2.08c.66,0,1.62-.02,2.15-.04v1.18c-.56-.02-1.51-.04-2.15-.04h-2.08v1.46h2.57c.75,0,1.77-.01,2.39-.05v1.2c-.64-.02-1.66-.05-2.39-.05h-2.57Z"/>
        <path class="cls-2" d="m54.9,312.75c.17.06.24.12.24.19,0,.1,0,.11-.29.18.61.95,1.14,1.55,1.9,2.15.89.72,1.85,1.25,3.2,1.8q-.43.52-.73,1.14c-1.55-.74-2.12-1.09-3.09-1.9-.9-.74-1.22-1.09-1.97-2.27-.59.9-1.03,1.42-1.79,2.11-.96.9-1.7,1.43-3.27,2.34-.28-.56-.4-.75-.71-1.13,1.39-.72,2.2-1.27,3.13-2.13.94-.85,1.47-1.54,2.28-2.88l1.1.4Zm-1.16,4.43c0-.55,0-.7-.02-1.12l1.28.08c.13.01.22.05.22.12s-.07.14-.23.24v1.96h1.7c.46,0,1.07-.01,1.43-.02v1.18c-.36-.02-1.03-.04-1.43-.04h-1.7v2.53h2.17c.76,0,1.78-.02,2.39-.05v1.24c-.64-.02-1.66-.04-2.39-.04h-5.91c-.66,0-1.74.01-2.39.04v-1.24c.52.02,1.37.04,2.04.05v-2.76c0-.55,0-.7-.02-1.1l1.26.07c.13.01.22.06.22.12,0,.07-.07.14-.24.24v3.43h1.63v-4.93Z"/>
        <path class="cls-2" d="m66.7,321.45c0,.91.01,1.68.04,2.11h-1.17c.02-.47.04-1.14.04-2.11v-.64c-.7.61-1.15.92-1.92,1.34-.91.49-1.54.74-2.75,1.12-.2-.54-.23-.6-.5-1.05,1.81-.48,3.07-1.03,4.14-1.8h-1.52c-.62,0-1.4.01-1.91.04v-1.02c.5.02,1.28.04,1.91.04h2.55v-.59h-1.54c-.61,0-1.4.01-1.91.04v-1.01c.5.01,1.29.04,1.91.04h1.54v-.56h-2.12c-.62,0-1.42.02-1.92.05v-1.02c.5.02,1.29.04,1.92.04h.73c-.14-.36-.32-.7-.53-1.02h-.49c-.66,0-1.74.01-2.39.04v-1.09c.54.02,1.42.04,2.09.04-.24-.4-.42-.62-.88-1.13l.82-.64c.67.64.84.83,1.28,1.55l-.34.22h.89v-1.94s1.12.08,1.12.08c.14.01.23.05.23.12s-.07.14-.24.24v1.5h.88v-1.18c0-.32,0-.59-.01-.77l1.14.08c.13.01.22.05.22.12s-.07.14-.24.24v1.5h.48c.37-.74.49-1.09.65-1.73l1.16.42c.07.02.13.08.13.13,0,.08-.04.11-.28.19q-.07.14-.36.73c-.04.07-.08.16-.14.25.73,0,1.64-.01,2.21-.04v1.09c-.64-.02-1.66-.04-2.39-.04h-.78c.16.05.19.11.19.16,0,.07-.06.11-.26.17q-.08.16-.36.7h.94c.55,0,1.39-.01,1.91-.04v1.02c-.52-.02-1.35-.05-1.91-.05h-2.23v.56h1.63c.55,0,1.4-.02,1.92-.04v1.01c-.52-.02-1.37-.04-1.92-.04h-1.63v.59h2.7c.55,0,1.39-.01,1.91-.04v1.02c-.52-.02-1.35-.04-1.91-.04h-1.78c1.1.78,2.34,1.26,4.25,1.68-.28.44-.34.58-.54,1.09-1.2-.3-2.03-.62-3.03-1.16-.64-.36-1-.61-1.6-1.17v.6Zm.18-5c.16-.34.31-.67.42-1.02h-2.43c.23.31.41.66.55,1.02h1.46Z"/>
        <path class="cls-2" d="m75.46,313.48c.12.02.2.08.2.17,0,.12-.1.19-.32.26-.41,1.81-.58,3.26-.58,5.08,0,1.43.12,2.1.6,3.61-.58.2-.7.26-1.19.54-.42-1.24-.61-2.54-.61-4.1,0-1.44.16-2.99.5-5.11.06-.38.07-.43.08-.67l1.31.22Zm5.62-.16c.11,0,.19.07.19.16s0,.08-.19.25c0,.23.01.85.06,1.86,1.08-.07,1.32-.1,2.15-.24l.04,1.22c-1.08.14-1.42.18-2.17.2.06,1.83.1,2.82.11,2.97,0,.16,0,.19.01.34,1.03.48,1.52.78,2.36,1.46-.43.47-.59.67-.78,1.06-.55-.52-1.08-.92-1.64-1.27-.11,1.1-.8,1.6-2.25,1.6-.88,0-1.46-.16-1.9-.49-.35-.29-.58-.77-.58-1.24,0-.98.88-1.63,2.19-1.63.41,0,.79.05,1.33.16q-.01-.74-.08-2.91c-.65.01-.82.01-1.01.01-.62,0-1.55,0-1.93-.01v-1.25c.72.06,1.25.08,2.16.08.3,0,.37,0,.76-.01v-.49c-.04-.92-.07-1.39-.17-1.89l1.34.07Zm-2.42,7.3c-.61,0-.96.2-.96.58,0,.43.42.66,1.19.66.61,0,.94-.17,1.04-.53.02-.11.07-.46.05-.47-.47-.17-.88-.24-1.32-.24Z"/>
        <path class="cls-2" d="m85.64,319.96c1.01.95,1.54,1.56,2.35,2.7l-1.09.83c-.67-1.05-1.42-1.98-2.19-2.71l.94-.82Z"/>
        <path class="cls-2" d="m105.11,313.8c.74,0,1.78-.01,2.4-.05v1.18c-.62-.04-1.7-.05-2.4-.05h-6.69v2.89c0,2.4-.41,4.03-1.37,5.53-.34-.54-.38-.62-.72-1.01.62-1.09.9-2.48.9-4.61v-2.84c0-.37-.01-.83-.04-1.06.41.01.8.01,1.32.01h3.09v-.65c0-.34-.01-.6-.02-.78l1.24.08c.14.01.22.05.22.12,0,.08-.06.16-.24.24v.98h2.31Zm-4.8,4.81c.07.02.12.07.12.13,0,.07-.04.11-.2.16-.32,1.75-.47,2.22-1.04,3.35-.49-.43-.55-.48-.95-.68.56-1.08.8-1.94.95-3.27l1.13.32Zm1.69-1.61c.11,0,.19.07.19.14,0,.08-.07.14-.25.22-.01.16-.02.32-.02.52v3.72c0,.29.06.37.28.42.14.02.7.07.96.07,1.58,0,1.64-.06,1.64-1.82.59.17.79.22,1.15.28-.04,1.56-.19,2.09-.7,2.36-.42.24-.85.3-2.35.3-1.81,0-2.13-.22-2.13-1.42v-3.79c0-.64-.01-.92-.04-1.1l1.27.11Zm.41-1.91c.89.61,1.46,1.15,2.22,2.09l-.9.78c-.68-.98-1.14-1.46-2-2.16l.68-.71Zm3.31,2.81c1.04,1,1.74,1.96,2.28,3.17l-1.01.7c-.53-1.22-1.13-2.17-2.04-3.2l.77-.66Z"/>
        <path class="cls-2" d="m112.42,319.33c-.28.25-.58.49-.92.76-.8.6-1.43.94-2.54,1.42-.19-.47-.31-.68-.55-1.03.92-.36,1.67-.72,2.31-1.14-.68,0-1.38.01-2.06.05v-1.03c.62.02,1.7.05,2.39.05h.88c.16-.14.31-.3.46-.46h-.59v.2h-1.14c.02-.29.04-.68.04-1.27v-1.06c0-.38-.01-.85-.04-1.07.44.02.78.02,1.4.02h4.39c.54,0,.91,0,1.32-.02-.01.22-.02.68-.02,1.07v1.06c0,.56.01.96.02,1.25h-1.13v-.18h-2.95c-.13.16-.25.31-.37.46h4.04c.75,0,1.77-.02,2.39-.05v1.03c-.74-.04-1.49-.04-2.23-.05.58.4,1.32.71,2.52,1.08-.26.3-.43.59-.62,1.03-.88-.31-1.45-.59-2.1-1.02-.43-.29-.75-.58-1.2-1.09h-3.68Zm3.86-5.29c.01.2.01.41.02.53h-1.13c.01-.13.02-.34.04-.53h-2.06c.01.2.01.42.02.53h-1.13c.01-.13.02-.34.02-.53h-.7c-.66,0-1.74.02-2.39.05v-1.03c.61.04,1.7.05,2.39.05h.71c-.01-.31-.04-.58-.05-.71l1.14.08c.13.01.2.05.2.12s-.06.14-.23.24v.26h2.06c-.01-.31-.02-.58-.04-.71l1.13.08c.13.01.22.05.22.12s-.07.14-.24.24v.26h.75c.76,0,1.79-.01,2.4-.05v1.03c-.65-.02-1.67-.05-2.4-.05h-.75Zm.74,7.09c-.14,1.1-.36,1.67-.72,1.97-.4.32-.77.4-2.03.4h-.14c-.01-.4-.06-.67-.17-1.14.36.04.71.05.95.05.58,0,.8-.19.96-1.08h-1.96c-.26.52-.56.86-1.01,1.2-.65.49-1.28.75-2.57,1.07-.17-.48-.24-.65-.48-1.03,1.43-.31,2-.55,2.51-1.03.07-.07.14-.13.2-.2h-.23c-.35,0-.85.01-1.19.02v-1c.34.01.84.02,1.19.02h.78c.1-.26.18-.56.24-.91l1.09.14c.17.02.24.07.24.17s-.07.14-.26.2c-.05.14-.08.28-.13.4h1.98l.2-.25.73.62c.07.06.11.11.11.17,0,.07-.06.12-.2.18l-.1.04Zm-.4-5.12v-.4h-4.85v.4h4.85Zm-4.85,1.09h4.85v-.38h-4.85v.38Z"/>
        <path class="cls-2" d="m121.87,319.3c.1.01.14.06.14.13,0,.05-.01.07-.07.12l-.11.08c-.06,1.28-.2,2.28-.47,3.11-.41-.22-.58-.29-.96-.41.32-1.03.44-1.91.43-3.2l1.03.17Zm-1.33-1.89c.3,0,.58-.01.84-.01.23-.35.47-.7.7-1.03-.5-.49-.92-.82-1.56-1.26l.52-.84c.13.08.25.17.37.24.44-.82.76-1.49.91-2l.96.4c.06.02.11.11.11.16,0,.07-.08.13-.25.17-.34.71-.65,1.29-.97,1.82.17.13.34.25.49.4.36-.61.62-1.15.83-1.68l1.02.48c.07.04.13.11.13.17,0,.08-.08.13-.26.18-.91,1.54-1.21,2-1.79,2.75.35-.01.71-.04,1.07-.07-.1-.18-.19-.33-.3-.5l.76-.48c.52.77.79,1.27,1.12,2.05l-.91.47c-.1-.26-.19-.48-.26-.68l-.65.11v2.83c0,1.1.01,1.93.04,2.46h-1.22c.02-.53.04-1.36.04-2.46v-2.66c-.35.05-.7.1-1.02.14-.1.12-.16.17-.22.17s-.13-.07-.16-.17l-.31-1.13Zm3.78,1.63c.31.65.38.83.74,2.06l-1.02.46c-.18-.98-.34-1.57-.56-2.11l.84-.41Zm2.04,1.38c.07.02.11.07.11.12,0,.08-.04.11-.19.16-.2.97-.5,1.7-.95,2.31q-.42-.4-.84-.68c.43-.54.77-1.4.88-2.27l1,.36Zm1.38-7.4c.17.07.22.12.22.2s-.07.12-.31.16c-.66,1.43-1.25,2.28-2.2,3.19-.25-.34-.43-.53-.79-.84.98-.91,1.59-1.83,2.12-3.17l.96.46Zm.73,2.36c.06.02.11.07.11.11,0,.08-.07.13-.24.17-.26.56-.37.77-.84,1.58.6-.04,1.21-.07,1.82-.13-.17-.18-.35-.35-.59-.58l.65-.7c.9.73,1.38,1.22,2.05,2.09l-.84.79c-.23-.3-.41-.55-.56-.76-.9.14-2.59.35-4.11.52-.11.13-.16.17-.22.17-.07,0-.12-.06-.16-.17l-.4-1.18c.41,0,.79-.01,1.18-.02.43-.84.77-1.63,1.02-2.4l1.13.5Zm-.79,6.51c0,.43.11.5.83.5.8,0,.85-.06.88-1.12.25.14.65.32,1.06.47-.05.84-.16,1.21-.44,1.45-.24.19-.65.25-1.66.25-1.42,0-1.78-.19-1.78-.95v-2.15c0-.34,0-.6-.01-.77l1.13.07c.14.01.23.06.23.13s-.07.13-.23.24v1.86Zm.24-3.51c.68.46,1.13.86,1.58,1.39l-.77.74c-.73-.84-1-1.09-1.46-1.44l.65-.7Zm1.42-5.85c.61,1.3,1.33,2.13,2.48,2.88q-.31.31-.77.94c-.65-.46-1.12-.89-1.61-1.5-.42-.52-.65-.92-1.04-1.86l.94-.46Zm1.27,7.04c.55.77,1.03,1.67,1.29,2.44l-.98.55c-.24-.78-.7-1.7-1.17-2.44l.86-.55Z"/>
        <path class="cls-2" d="m135.24,317.97c.02-.37.04-.86.04-1.5-.66.73-1.32,1.21-2.36,1.71-.16-.34-.31-.6-.52-.85,1.09-.59,1.66-.96,2.24-1.54h-.72c-.35,0-.85.01-1.2.02v-1.02c.31.01.85.01,1.2.01h.1c-.26-.47-.66-1.02-1-1.42l.77-.55c.48.47.82.89,1.21,1.54l-.67.43h.95v-.49c0-.95-.01-1.45-.04-1.8l1.14.08c.13.01.2.05.2.12s-.06.13-.23.24c-.01.34-.01.74-.01,1.36v.49h.84l-.59-.25c.44-.79.64-1.2.86-1.82l.98.37c.12.04.16.07.16.13s-.02.07-.07.1c-.05.02-.12.05-.16.06-.42.71-.44.74-.9,1.42h.1c.35,0,.89,0,1.19-.01v1.02c-.34-.01-.84-.02-1.19-.02h-1.22v.1c.88.35,1.34.61,1.99,1.14l-.66.82c-.36-.37-.71-.65-1.33-1.04.01.49.01.89.02,1.16h-1.13Zm-1.14,3.89l-.95-.54c.24-.3.54-.74.83-1.24h-.06c-.35,0-.85.01-1.2.02v-1.02c.35.01.85.02,1.2.02h.61c.23-.43.42-.85.55-1.19l1.06.52c.08.04.13.1.13.16,0,.1-.11.14-.37.16-.07.12-.13.24-.2.36h1.87c.35,0,.85-.01,1.19-.02v1.02c-.28-.01-.67-.02-1-.02-.24.47-.49.92-.8,1.34.3.16.6.32.91.5l-.65.94c-.35-.24-.68-.46-1.01-.65-.76.62-1.74,1.01-3.25,1.38-.14-.47-.18-.55-.47-.96,1.25-.26,2.09-.54,2.72-.96-.26-.13-.53-.25-.79-.36l-.32.54Zm1.03-1.77c-.08.16-.18.31-.28.48.38.12.76.26,1.13.42.24-.28.43-.59.61-.9h-1.46Zm8.65-4.15c-.22-.01-.53-.02-.84-.02-.11.9-.28,1.8-.52,2.67-.18.64-.42,1.26-.74,1.83.49.73,1.06,1.25,2.24,2.11-.37.31-.5.47-.79.92-.79-.59-1.57-1.36-2.11-2.08-.7.88-1.64,1.62-2.76,2.21-.23-.46-.25-.5-.6-.92,1.43-.84,2.12-1.42,2.73-2.27-.46-.85-.74-1.8-.9-2.75-.2.41-.44.82-.72,1.24-.3-.33-.42-.43-.85-.72.66-.9.95-1.49,1.32-2.63.34-1.01.5-1.74.73-3.08l1.02.32c.17.05.2.07.2.13,0,.08-.06.13-.26.19-.13.64-.25,1.2-.38,1.7h1.8c.46,0,1.07-.01,1.43-.04v1.16Zm-3.55-.04l-.02.08c.16,1.14.38,2.27.84,3.32.49-1.07.7-2.25.85-3.41h-1.67Z"/>
        <path class="cls-2" d="m150.76,313.03c.13.04.2.1.2.18s-.05.13-.2.22c-.29,1.36-.43,2.06-.56,2.75q-.31,1.75-.42,2.28t-.12.62h.23c.35.01.58.02.6.02q.18,0,.73-.01l-.25,1.22c-.62-.01-.78-.01-1.46-.07-.01.19-.02.3-.02.48,0,.41.05.71.14.95.16.37.62.59,1.26.59,1.08,0,1.68-.6,1.68-1.65,0-.98-.4-1.79-1.52-3.11.36-.2.64-.42.97-.74.95,1.07,1.29,1.57,1.56,2.25.22.53.32,1.07.32,1.66,0,1.81-1.08,2.78-3.09,2.78-1.79,0-2.58-.82-2.58-2.64,0-.17.01-.41.05-.72-1.31-.22-1.89-.71-1.89-1.57,0-.41.18-.76.64-1.27l.88.62c-.23.25-.3.38-.3.54,0,.23.34.42.86.5.08-.44.28-1.51.33-1.91-1.08-.32-1.64-.65-2.22-1.32l.77-.84c.37.4,1.18.83,1.73.92.23-1.15.38-2.35.38-2.99l1.32.25Z"/>
        <path class="cls-2" d="m165.79,314.41c-.89,1.12-1.39,1.62-2.28,2.29-1,.74-2.06,1.33-3.2,1.78-.82.3-1.55.52-3.25.92-.18-.53-.24-.67-.49-1.03,2.31-.49,3.37-.83,4.63-1.5-.34-.4-.7-.76-1.12-1.08-.7.52-1.28.83-2.52,1.4-.19-.44-.37-.74-.58-1,1.33-.55,1.99-.92,2.89-1.65.88-.7,1.31-1.19,1.94-2.23l1.04.42c.13.05.17.1.17.16,0,.1-.05.12-.32.22-.07.1-.13.19-.2.29h2.55l.22-.23.83.83c.08.08.1.11.1.16,0,.08-.05.13-.19.18l-.22.08Zm1.46,4.62c-.98,1.12-1.55,1.62-2.52,2.28-1.93,1.31-3.77,1.88-7.48,2.36-.11-.42-.22-.71-.41-1.09,2.63-.31,3.98-.62,5.55-1.31.08-.04.18-.07.26-.12-.37-.41-.76-.78-1.2-1.1-.93.48-1.87.83-3.78,1.43-.16-.43-.3-.71-.52-1.03,2.4-.71,3.29-1.06,4.47-1.74,1.25-.71,1.99-1.33,2.88-2.36l.95.43c.16.07.17.1.17.17,0,.08-.04.12-.32.2-.3.3-.56.56-.8.79h2.06l.23-.26.84.85c.08.1.12.16.12.24,0,.11-.07.16-.26.2l-.24.06Zm-5.6-4.57c-.23.23-.46.44-.7.65.29.18.55.37.8.61.18.17.35.35.5.53.77-.5,1.44-1.1,2.05-1.79h-2.66Zm1.58,4.54c-.26.18-.53.35-.8.5.54.34.86.64,1.28,1.1.74-.44,1.39-1.01,2.02-1.61h-2.5Z"/>
        <path class="cls-2" d="m176.2,313.68c.08.05.13.13.13.19,0,.1-.08.14-.31.18-.54.64-2.27,2.45-3.15,3.29-.38.36-.46.44-.46.53,0,.07.06.17.22.32,1.5,1.56,2.54,2.81,3.75,4.45l-1.22.86c-.3-.5-.73-1.18-1.13-1.71-.48-.68-1.93-2.41-2.59-3.09-.38-.4-.49-.58-.49-.79,0-.26.23-.58.85-1.17.83-.79,2.08-2.18,2.62-2.9.25-.34.38-.54.59-.91l1.2.77Z"/>
        <path class="cls-2" d="m30.85,340.7c.24.49.52.96.84,1.39.46-.34.89-.68,1.29-1.08.26-.26.52-.54.77-.82l1.03.71c.06.04.1.11.1.17q0,.08-.37.12c-.68.65-1.37,1.21-2.12,1.73l.25.25c.98,1.01,1.7,1.49,3.25,2.21-.34.4-.48.61-.78,1.16-1.49-.8-2.24-1.38-3.2-2.46-.43-.49-.77-.91-1.06-1.38v.53c0,.61.01,1.4.04,3.05v.11c0,.52-.1.74-.42.9-.37.19-.68.23-2.06.24-.08-.54-.14-.82-.29-1.29.52.04.82.06,1.08.06.41,0,.46-.06.46-.5v-2.42c-1.13.94-2.6,1.88-4.09,2.64-.04.23-.1.32-.2.32-.07,0-.14-.05-.18-.12l-.6-1.15.54-.28c1.81-.9,2.47-1.31,4.11-2.51l.42.91v-3.35h-2.48c-.59,0-1.63.01-2.15.04v-1.19c.49.02,1.54.05,2.15.05h2.48c-.01-.38-.01-.76-.01-1.14-.01-.38-.01-.78-.06-1.16l1.33.08c.1.01.17.06.17.12,0,.07-.06.13-.22.24-.02.62-.01,1.24-.01,1.86h2.38c.66,0,1.62-.02,2.15-.05v1.19c-.55-.02-1.51-.04-2.15-.04h-2.38v.86Zm-4.2-.56c.96.88,1.19,1.13,1.79,2.03l-.98.78c-.78-1.1-1.12-1.52-1.68-2.04l.88-.77Zm5.46-3.53c1.02.55,1.17.66,1.76,1.2l-.7.8c-.78-.68-1.14-.95-1.68-1.22l.61-.78Z"/>
        <path class="cls-2" d="m40.03,344.77c0,1.22.01,2.21.05,2.81h-1.16c.02-.66.05-1.59.05-2.81v-.16c-.24.1-.42.16-.58.22q-.75.28-1.13.43c-.08.18-.13.23-.2.23-.06,0-.14-.06-.17-.13l-.42-1.12c.23-.05.43-.1.62-.14v-6.17c-.17,0-.34.01-.47.01v-1.06c.35.01.85.02,1.2.02h1.66c.35,0,.86-.01,1.2-.02v1.06c-.18-.01-.42-.01-.65-.01v6.84Zm-1.87-6.85v1.24h.8v-1.24h-.8Zm0,2.24v1.28h.8v-1.28h-.8Zm0,2.29v1.34c.26-.07.54-.17.8-.25v-1.09h-.8Zm7.6-.83c.01.34.02.65.05.94.02.4.07.77.13,1.13.26-.48.47-1.02.67-1.71l.95.37c.12.05.16.08.16.16,0,.08-.02.1-.26.18-.31.98-.67,1.73-1.17,2.39.07.19.14.37.22.56.1.25.19.38.25.38.12,0,.26-.52.35-1.27.22.12.46.25.86.43-.17.89-.23,1.16-.35,1.55-.16.48-.37.7-.7.7-.59,0-1.03-.44-1.44-1.44-.6.59-1.27,1.01-2.51,1.61-.23-.42-.38-.61-.68-.92.66-.26,1.15-.5,1.57-.77h-.89v-.24h-1.01v.61h-1.04c.01-.29.02-.68.02-1.28v-1.81c0-.38-.01-.84-.02-1.06.26.01.5.01.86.01h1.37c.36,0,.6,0,.86-.01-.01.22-.02.67-.02,1.06v1.48c0,.5.01.88.02,1.15.34-.23.64-.48.94-.79.06-.06.11-.11.16-.17-.28-1.05-.36-2.13-.43-3.21h-2.75c-.5,0-1.17.01-1.67.02v-1.09c.25.01.58.01.91.01-.12-.49-.23-.85-.38-1.31l.72-.24h-.95s0-1.06,0-1.06c.18.01.49.02.72.02h.61v-.77c0-.34-.01-.6-.02-.77l1.1.07c.14.01.22.06.22.12,0,.07-.06.14-.23.25v1.09h.71c.23,0,.54-.01.72-.02v1.07h-.72s-.41-.01-.41-.01l.9.23c.12.04.22.12.22.2,0,.1-.05.12-.31.18-.13.36-.25.68-.35.95h.91c-.02-.78-.04-1.67-.04-2.69,0-.8-.02-1.26-.07-1.47l1.21.13c.13.01.19.06.19.13,0,.08-.07.16-.24.24-.01.4-.01.68-.01,2.07,0,.36.01.95.05,1.58h.38c.48,0,1.26-.01,1.67-.02v1.09c-.44-.01-1.21-.02-1.67-.02h-.34Zm-3.09-1.04c.17-.5.3-1.03.38-1.56h-1.34c.18.42.34.83.46,1.27l-.8.29h1.31Zm.3,2.47h-1.01v.41h1.01v-.41Zm0,1.25h-1.01v.43h1.01v-.43Zm3.67-6.63c.46.71.72,1.25.95,1.86l-.96.44c-.2-.66-.52-1.34-.86-1.89l.88-.41Z"/>
        <path class="cls-2" d="m56.27,338.43c.41-.42.72-.82,1.32-1.61l1.03.55c.14.07.18.12.18.19,0,.12-.1.16-.42.19-.79.9-1.55,1.69-2.34,2.4h1.29c.76,0,1.79-.02,2.4-.05v1.19c-.65-.02-1.67-.04-2.4-.04h-2.6c-.41.32-.84.64-1.28.92h3.49c.42,0,.71,0,1.02-.01q-.01.38-.04,1.91v1.19c0,.96.01,1.66.04,2.11h-1.16v-.5h-4.11v.67h-1.16c.02-.49.04-1.13.04-2.11v-2.11c-.79.43-1.64.85-2.58,1.27-.19-.44-.32-.65-.64-1.02,1.87-.78,3.21-1.46,4.5-2.32h-1.8c-.66,0-1.74.01-2.39.04v-1.19c.61.02,1.7.05,2.39.05h2.06v-1.25h-2.05c-.4,0-1.07.01-1.44.02v-1.15c.36.01.98.02,1.44.02h2.05c0-.7-.01-1.1-.04-1.4l1.21.08c.13.01.2.06.2.12,0,.07-.06.14-.23.24v.96h.58c.46,0,1.08-.01,1.44-.02v.65Zm.53,5.61v-.82h-4.11v.82h4.11Zm-4.11,1.79h4.11v-.83h-4.11v.83Zm1.67-5.67c.49-.4.97-.8,1.42-1.24-.31,0-.62-.01-.93-.01h-.58v1.25h.1Z"/>
        <path class="cls-2" d="m63.23,341.71c.49.34.86.65,1.31,1.12l-.74,1.03c-.17-.24-.36-.5-.56-.73v.95c0,1.57.01,2.73.05,3.5h-1.24c.04-.78.05-1.95.05-3.5v-.71c-.32.98-.62,1.58-1.16,2.45-.32-.73-.43-.94-.65-1.24.76-1.17,1.28-2.52,1.64-4.22h-.36c-.31,0-.7.01-.95.02v-1.14c.26.01.7.02.95.02h.53c-.01-1.52-.04-2.46-.07-2.78l1.26.1c.11,0,.18.05.18.12,0,.06-.06.13-.22.23-.01.37-.01.42-.01,2.34h.3c.26,0,.7-.01.96-.02v1.14c-.25-.01-.64-.02-.96-.02h-.3v1.36Zm5.23.97c.13.28.29.54.47.79.44-.28.64-.44,1.45-1.12l.9.61s.08.08.08.12c0,.07-.07.11-.22.11h-.11q-.24.14-.9.58c-.2.13-.38.24-.64.37l.05.06c.59.62,1.08.96,2.33,1.63-.3.34-.47.56-.7.95-1.08-.61-1.62-1.04-2.25-1.79-.18-.2-.32-.4-.47-.59.01.47.01,1.07.02,1.69v.12c0,.59-.1.85-.4,1.03-.35.22-.73.26-1.89.26-.02-.35-.08-.71-.23-1.24.4.04.59.04.88.04.42,0,.48-.05.48-.47v-.91c-.95.52-2.01,1.07-2.79,1.42-.07.18-.14.26-.22.26-.06,0-.14-.06-.18-.13l-.52-1.04c1.52-.53,2.21-.82,3.71-1.59v-1.59h-1.79c-.36,0-.86,0-1.2.02v-1.13c.34.02.84.02,1.2.02h1.79v-.58h-.88c-.36,0-.86.01-1.2.02v-1.09c.34.02.84.02,1.2.02h.88v-.47h-1.48c-.35,0-.85,0-1.2.02v-1.13c.35.01.85.02,1.2.02h.59c-.29-.47-.52-.79-.77-1.07l.86-.56c.53.53.71.75,1.03,1.29l-.5.34h1.38c.31-.52.53-.98.79-1.64l1.16.52c.06.02.11.08.11.14,0,.08-.1.13-.32.16-.25.41-.4.65-.52.83h.61c.35,0,.86-.01,1.2-.02v1.13c-.34-.02-.85-.02-1.2-.02h-1.81v.47h1.2c.35,0,.85,0,1.2-.02v1.09c-.35-.01-.85-.02-1.2-.02h-1.2v.58h2.11c.35,0,.85,0,1.2-.02v1.13c-.35-.02-.85-.02-1.2-.02h-2.11v.43Zm-2.99-.26c.55.4.83.67,1.31,1.28l-.88.75c-.41-.6-.74-.97-1.21-1.38l.78-.66Z"/>
        <path class="cls-2" d="m77.08,338.91c1.28-.04,1.87-.46,2.13-1.54h.97v9.16h-1.4v-6.81h-1.7v-.82Z"/>
        <path class="cls-2" d="m92.36,336.93c.18.02.3.1.3.18s-.01.1-.32.26c-.04.46-.06.84-.08,1.2.32,1.98.92,3.55,1.83,4.83.82,1.15,1.7,1.86,3.56,2.84-.42.41-.56.59-.82,1.02-1.45-.84-2.25-1.46-3.06-2.36-.73-.83-1.33-1.93-1.73-3.17-.05-.17-.1-.32-.14-.49-.07.29-.16.58-.26.91-.74,2.36-2.35,4.2-4.65,5.3-.24-.53-.37-.73-.68-1.02,1.5-.73,2.39-1.46,3.21-2.65.73-1.03,1.19-2.22,1.43-3.68.12-.82.17-1.46.2-3.31l1.21.13Z"/>
        <path class="cls-2" d="m102.84,338.91c1.28-.04,1.87-.46,2.13-1.54h.97v9.16h-1.4v-6.81h-1.7v-.82Z"/>
        <path class="cls-2" d="m118.13,336.93c.18.02.3.1.3.18s-.01.1-.32.26c-.04.46-.06.84-.08,1.2.32,1.98.92,3.55,1.83,4.83.82,1.15,1.7,1.86,3.56,2.84-.42.41-.56.59-.82,1.02-1.45-.84-2.25-1.46-3.06-2.36-.73-.83-1.33-1.93-1.73-3.17-.05-.17-.1-.32-.14-.49-.07.29-.16.58-.26.91-.74,2.36-2.35,4.2-4.65,5.3-.24-.53-.37-.73-.68-1.02,1.5-.73,2.39-1.46,3.21-2.65.73-1.03,1.19-2.22,1.43-3.68.12-.82.17-1.46.2-3.31l1.21.13Z"/>
        <path class="cls-2" d="m126.98,337.88c.13.04.22.11.22.2,0,.13-.08.2-.32.29-.46,2.53-.52,3.12-.52,4.53s.16,2.39.6,3.59c-.52.16-.82.26-1.22.46-.42-1.15-.61-2.42-.61-4.04,0-1.29.08-2.16.47-4.59.05-.29.07-.42.08-.68l1.31.25Zm2.75,5.06c-.34.44-.43.67-.43.94,0,.62.71.89,2.39.89,1.12,0,1.89-.1,2.84-.34-.1.58-.14.97-.16,1.42-.78.12-1.7.18-2.6.18-1.03,0-1.85-.08-2.38-.26-.86-.29-1.29-.85-1.29-1.69,0-.56.17-.96.71-1.69l.92.56Zm-1.36-3.77c1.42-.37,2.35-.49,3.68-.49.74,0,1.28.04,2.08.13l-.19,1.18c-.22-.01-.38-.02-.49-.04-.74-.06-1.09-.07-1.75-.07-1.18,0-1.8.1-3.06.49l-.26-1.2Z"/>
        <path class="cls-2" d="m140.36,338.5c.34-.71.61-1.43.79-2.18l1.19.4c.1.02.16.08.16.16s0,.07-.23.16c-.1.2-.18.38-.23.48-.24.52-.25.55-.49,1h2.73c.8,0,1.75-.01,2.37-.05q-.01.37-.02,2.34v3.33c0,.32.01,1.2.02,1.85v.18c0,.59-.11.85-.4,1.06-.35.22-.68.26-2.03.26-.02-.48-.08-.82-.23-1.26.4.02.56.04.82.04.59,0,.62-.02.62-.49v-6.15h-7.41v5.11q.01,2.32.04,2.82h-1.26c.01-.47.04-1.58.04-2.34v-4.4q-.01-1.97-.04-2.34c.63.04,1.57.05,2.39.05h1.16Zm.12,6.84h-1.15c.02-.28.04-.67.04-1.27v-2.18c0-.37-.01-.84-.04-1.06.26.01.52.02.86.02h3.09c.35,0,.6-.01.86-.02-.02.22-.04.68-.04,1.06v2.01c0,.56.01.97.04,1.25h-1.15v-.49h-2.52v.68Zm2.52-3.44h-2.52v1.73h2.52v-1.73Z"/>
        <path class="cls-2" d="m156.18,338.48c-.94.38-1.25.49-1.99.71.17.46.41,1.03.56,1.33.66-.23,1.38-.58,2.04-.98l.55,1.03c-.8.44-1.15.6-2.11.96.48.92,1.03,1.74,1.73,2.59l-.89.76c-.95-.67-1.64-.91-2.6-.91-1.04,0-1.63.4-1.63,1.12s.71,1.03,2.27,1.03c.52,0,.83-.02,1.52-.11-.18.42-.26.89-.26,1.33-.47.01-.67.01-1.03.01-1.22,0-1.88-.1-2.5-.35-.78-.34-1.26-1.06-1.26-1.87,0-1.31,1.13-2.17,2.85-2.17.5,0,.94.07,1.45.23-.23-.35-.66-1.13-.76-1.29-.72.22-1.54.36-1.99.36-.88,0-1.32-.35-1.32-1.07,0-.26.05-.46.2-.84l1.06.22c-.08.17-.11.25-.11.35,0,.14.06.2.24.2.31,0,.85-.1,1.42-.25-.11-.23-.42-.96-.58-1.36-.6.16-1.56.31-3.06.52l-.23-1.17c1.12-.1,2.4-.28,2.94-.41-.02-.06-.14-.47-.22-.71-.2-.67-.31-1.02-.32-1.06l1.37-.1c.11-.01.18.07.18.14q0,.08-.18.24c.08.4.19.78.31,1.17.58-.17,1.13-.38,1.83-.72l.5,1.07Z"/>
        <path class="cls-2" d="m168.39,341.72c-.34-.01-.84-.02-1.19-.02h-3.02c-.35,0-.85.01-1.2.02v-.97c-.59.47-1.26.88-2.34,1.48-.24-.5-.42-.77-.7-1.06,1.32-.65,2.23-1.24,3.03-1.96.92-.83,1.62-1.7,2.27-2.87l1.09.35c.14.05.23.12.23.22s-.06.14-.23.19c.58.89,1.14,1.5,1.98,2.16.84.67,1.52,1.03,3.15,1.68l-.17.26c-.11.14-.28.43-.5.84-1.12-.49-1.79-.84-2.41-1.27v.95Zm-5.11,5.82h-1.19c.02-.29.04-.68.04-1.28v-2.37c0-.37-.01-.84-.04-1.06.42.01.79.02,1.33.02h4.59c.53,0,.9-.01,1.32-.02-.02.22-.04.68-.04,1.06v2.4c0,.56.01.97.04,1.25h-1.18v-.55h-4.88v.56Zm3.92-6.93c.31,0,.62-.01.93-.01-.18-.14-.37-.3-.58-.48-.8-.7-1.28-1.27-1.89-2.27-.55.84-1.13,1.51-1.93,2.25-.18.18-.36.34-.55.49.34,0,.66.01,1,.01h3.02Zm.96,3.33h-4.88v1.94h4.88v-1.94Z"/>
        <path class="cls-2" d="m174.71,338.61c.16.02.26.1.26.2,0,.1-.06.14-.28.23-.1.72-.11,1.09-.11,2.4,0,1.13.17,1.99.52,2.69.19.4.5.68.73.68.2,0,.35-.43.56-1.67.66.46.74.5,1.12.68-.43,1.87-.8,2.43-1.62,2.43-.71,0-1.34-.44-1.86-1.32-.3-.52-.56-1.26-.67-1.92-.08-.44-.11-.95-.11-1.76,0-.59.05-1.98.08-2.52q.01-.22.01-.33l1.36.2Zm5.47.54c1.49,1.46,2.18,2.55,2.82,4.5l-1.28.6c-.31-1.14-.55-1.73-1.05-2.52-.43-.68-.84-1.2-1.4-1.76l.92-.82Z"/>
        <path class="cls-2" d="m185.31,341.49c-.25.07-.64.18-1.13.31l-.28-1.14q.17-.04.56-.12c.16-.04.43-.11.84-.2v-3.6s1.14.08,1.14.08c.14,0,.23.05.23.12s-.07.13-.24.24v2.89l1.29-.31c.55-.14.61-.16,1.39-.38l.26,1.14c-.7.16-1,.23-1.39.32l-1.56.37v2.46c0,.3.1.34.74.34.49,0,.62-.07.71-.4.05-.2.07-.4.08-.6.01-.17.01-.48.02-.64.35.12.68.2,1.19.29-.07,1.37-.19,1.83-.52,2.11-.31.26-.65.34-1.78.34-.9,0-1.17-.06-1.37-.3-.16-.17-.22-.41-.22-.84v-2.48Zm8.85-4.43l.77.77c.06.06.1.11.1.16,0,.08,0,.1-.31.23,0,1.67,0,3.33-.05,5-.02.84-.05,2.69-.54,3.54-.44.77-1.39.71-2.17.71h-.35c-.07-.7-.08-.73-.28-1.33q.64.02.82.02c.77,0,.95-.14,1.13-.95.13-.6.18-1.2.22-2.54.04-1.75.05-2.36.05-3.55v-.74h-1.83v1.19c0,3.02-.43,4.54-1.7,5.98-.74.83-1.44,1.36-2.73,2.06q-.24-.54-.62-1.04c1.39-.76,2.08-1.28,2.71-2.15.86-1.14,1.2-2.52,1.2-4.93v-1.12h-.8c-.6,0-1.42.01-1.92.04v-1.18c.5.01,1.32.04,1.92.04h4.25l.17-.2Z"/>
        <path class="cls-2" d="m200.19,341.55q.26-.31,1.25-1.44c.94-1.08,1.31-1.31,2.1-1.31.89,0,1.42.48,1.42,1.29,0,.28-.02.61-.06.98-.02.3-.06.61-.08.95q-.11,1.2-.26,2.58v.22c-.01.31.06.4.32.4.29,0,.59-.14.94-.44.36-.31.58-.61.94-1.33.28.34.48.53.9.89-.52.96-1.01,1.49-1.76,1.86-.36.19-.77.28-1.25.28-.97,0-1.38-.41-1.38-1.33,0-.56.01-.73.34-3.75.05-.38.1-1.05.1-1.19,0-.19-.1-.31-.26-.31-.43,0-.96.44-1.85,1.52-.52.64-.66.82-1.39,1.68q.02,2.9.06,3.89l-1.36.04q.04-.61.08-2.78c-.46.64-.79,1.07-1.04,1.38-.26.32-.35.43-.52.66l-.77-1.13c.71-.71,1.93-2.16,2.32-2.75l.05-.08c.01-.34.01-.6.01-.77s.01-.35.01-.52c-.1.04-.12.04-.32.11-.56.18-.9.31-1.44.54l-.43-1.22c.68-.12,1.42-.31,2.19-.56v-1.09c0-.84-.01-1.34-.06-1.73l1.32.1c.1,0,.16.05.16.12,0,.05-.02.07-.16.17l-.06,1.22c-.01.34-.01.55-.01.66.12-.08.17-.12.3-.26l.52.7c.07.11.1.12.1.17,0,.08-.07.13-.28.17q-.12.13-.44.48t-.22.23v.74Z"/>
        <path class="cls-2" d="m214.77,344.36c.84.31,1.61.74,2.92,1.63-.29.31-.59.71-.76,1.03-1.06-.85-1.27-1-2.18-1.46-.07.46-.18.74-.38,1-.37.44-1.09.7-1.98.7-1.44,0-2.41-.7-2.41-1.74s.91-1.61,2.42-1.61c.4,0,.75.02,1.12.08q-.02-.42-.05-1.22-.3.01-.58.01c-.82,0-1.03-.02-1.4-.18-.42-.17-.68-.56-.68-1.04,0-.44.14-.74.56-1.2l.91.5c-.2.19-.28.3-.28.46,0,.28.28.37,1,.37.14,0,.25,0,.42-.01-.02-.79-.02-.91-.02-1.66q-.86.05-3.08.05h-.32s-.05,0-.41.01l-.04-1.19c.73.02,1.04.02,2.03.02.56,0,1.4-.01,1.82-.05,0-1.12-.02-1.61-.13-2.11l1.43.07c.12.01.18.06.18.13,0,.08-.04.13-.22.24,0,.46-.01.8-.02,1.58.9-.1,1.87-.28,2.69-.5l.13,1.19c-.9.2-2.1.4-2.82.46v.05q0,.2.01.79t.01.77c.96-.2,1.45-.37,2.17-.78l.38,1.07c-.82.42-1.58.67-2.52.83.01.18.04.68.07,1.36v.36Zm-2.47.56c-.72,0-1.09.19-1.09.55,0,.42.41.67,1.09.67.61,0,.98-.2,1.13-.59.04-.11.1-.47.07-.48-.35-.1-.78-.16-1.2-.16Z"/>
        <path class="cls-2" d="m224.24,337.71c.17.01.25.06.25.16,0,.08-.08.17-.29.25,0,.32-.01,1.12-.02,2.37,2.17-.31,2.64-.37,2.76-.4-.06-1.87-.07-2.33-.12-2.95l1.25.05c.1,0,.18.07.18.16,0,.06-.05.12-.18.2q.01.47.04,1.51c0,.07,0,.1.01.84,1.26-.2,1.57-.25,2.77-.52l.16,1.29c-.4.06-1.1.16-2.92.41.01.46.01.7.01.73,0,1.26-.23,1.97-.72,2.23-.23.12-.61.19-1,.19-.31,0-.59-.01-1.03-.06-.01-.41-.04-.64-.17-1.31.49.06.79.08,1.1.08.55,0,.58-.08.61-1.69-.02,0-.95.13-2.78.4v1.38c.02,1.7.06,1.88.35,2.11.24.19,1,.3,2.11.3.92,0,1.8-.07,3.02-.23-.11.42-.16.79-.17,1.29-1.16.1-1.98.13-3.07.13-1.83,0-2.62-.18-3.03-.73-.35-.43-.43-.97-.43-2.65v-1.4s-.07.01-.14.02c-.35.06-.41.07-1.19.2-.49.08-.6.1-1.29.23l-.18-1.32c.8-.06,1.04-.1,2.82-.34v-.29c0-.14.01-.55.02-1.14.01-.88.01-.98.02-1.61l1.25.07Z"/>
        <path class="cls-2" d="m238.07,337.58c.14.07.22.13.22.19,0,.1-.11.16-.3.19-.62,1.38-1.02,2.17-2.22,4.37.36-.13.62-.19.92-.19.48,0,.94.26,1.16.66.17.31.25.71.34,1.56.06.61.14.95.29,1.12.13.16.38.25.64.25,1.27,0,2.32-1.4,2.87-3.83.49.35.72.48,1.15.66-1,3.24-2.09,4.44-4.05,4.44-.53,0-1.02-.13-1.37-.36-.43-.29-.61-.7-.74-1.75-.16-1.24-.16-1.29-.28-1.49-.07-.11-.24-.2-.4-.2-.53,0-1.01.41-1.46,1.24-.17.31-.2.41-.62,1.28-.23.49-.25.54-.58,1.15-.62-.46-.73-.52-1.24-.68.47-.76,1.73-3.2,2.81-5.43,1.14-2.35,1.42-2.97,1.64-3.77l1.22.6Z"/>
        <path class="cls-2" d="m247.86,345.66c0,1.02-.82,1.83-1.82,1.83s-1.83-.82-1.83-1.83.82-1.82,1.83-1.82,1.82.82,1.82,1.82Zm-2.79,0c0,.54.43.97.97.97s.96-.43.96-.97-.43-.96-.96-.96-.97.43-.97.96Z"/>
        <path class="cls-2" d="m29.06,370.01c-.38-.59-.68-1.03-.98-1.4-.05.06-.1.13-.14.2-.79,1.08-1.52,1.71-2.94,2.58-.17-.4-.31-.62-.61-.98,1.32-.74,2.27-1.58,2.95-2.64-.38-.37-.82-.73-1.42-1.17l.6-.78c.5.32.95.62,1.34.95.2-.47.37-.97.5-1.52l1.01.4c.13.06.18.1.18.14,0,.06-.05.12-.11.14l-.17.07c-.23.7-.4,1.16-.58,1.55.44.47.86,1.01,1.31,1.67l-.95.8Zm-1.79-6.19c.12.06.18.13.18.19,0,.1-.04.12-.31.16-.54,1.04-1.1,1.76-1.96,2.52-.25-.4-.34-.49-.71-.88.9-.79,1.4-1.44,1.89-2.45l.9.46Zm0-2.25c0-.54-.01-.68-.02-1.1l1.21.07c.13.01.22.06.22.12,0,.08-.07.14-.24.24v1.26h1.27c.35,0,.85-.01,1.19-.02v1.15c-.34-.01-.84-.02-1.19-.02h-3.68c-.35,0-.85.01-1.19.02v-1.15c.34.01.84.02,1.19.02h1.25v-.59Zm1.8,1.76c.89.77,1.5,1.48,2.02,2.35l-.94.73c-.56-.95-1.12-1.67-1.86-2.41l.78-.67Zm4.13,1.34c-.08,2.25-.37,3.36-1.09,4.53-.52.86-1.27,1.59-2.5,2.42-.2-.41-.4-.65-.76-.95.65-.4,1.32-.96,1.78-1.49.64-.73,1.08-1.75,1.25-2.85.06-.47.11-1.02.14-1.67h-.3c-.35,0-.85.01-1.2.02v-1.15c.35.01.85.02,1.2.02h.33v-.82c0-1.32,0-1.51-.04-2.28l1.17.1c.2.02.29.07.29.16,0,.07-.02.08-.26.23v2.61h1.52l.13-.18.7.59c.08.07.11.11.11.17,0,.11-.01.13-.24.24-.1,4.83-.28,6.06-1.02,6.6-.42.3-.94.41-2.16.42-.07-.74-.11-.86-.25-1.28.23.01.31.01.47.01.68,0,.86-.02,1.06-.18.48-.38.67-1.74.71-5.28h-1.04Z"/>
        <path class="cls-2" d="m42.52,362.56c-.36.53-.74,1.02-1.14,1.51.2.16.41.32.6.49.33-.46.65-.94,1-1.52l.97.48c.08.04.12.07.12.12,0,.07-.07.13-.23.18-1.07,1.38-1.5,1.91-2.11,2.51.52-.05,1.04-.1,1.56-.17-.13-.25-.26-.44-.46-.72l.79-.47c.7.91.95,1.33,1.34,2.18l-1.01.48c-.1-.22-.18-.41-.25-.56-.3.05-.61.1-.92.13v.95h2.57c.75,0,1.77-.02,2.39-.05v1.2c-.64-.02-1.66-.05-2.39-.05h-2.57v.54c0,.78.01,1.39.04,1.75h-1.21c.02-.42.04-.98.04-1.75v-.54h-2.6c-.66,0-1.74.02-2.39.05v-1.2c.62.02,1.7.05,2.39.05h2.6v-.78c-.47.06-1,.13-1.55.2-.1.12-.16.17-.22.17s-.13-.06-.16-.16l-.34-1.14c.29,0,.6-.01.94-.02.32-.32.64-.65.94-1-.47-.48-1.07-1.01-1.72-1.5l.59-.74c.17.12.32.23.47.32.2-.31.41-.62.6-.95h-1.85c-.66,0-1.74.02-2.39.05v-1.16c.62.02,1.7.05,2.39.05h2.27v-.34c0-.34,0-.6-.01-.77l1.19.08c.13.01.22.05.22.12s-.07.14-.24.24v.66h2.31c.76,0,1.79-.02,2.4-.05v1.16c-.65-.02-1.67-.05-2.4-.05h-2.57Zm-2.21,3.18c-.67.44-1.03.66-1.49.9q-1,.52-1.21.65c-.08.16-.14.2-.2.2s-.12-.06-.17-.16l-.46-.95c.8-.25,2.03-.85,3.2-1.58l.32.94Zm-2.57-2.77c.52.25,1.04.65,1.74,1.31l-.74.79c-.62-.61-.92-.86-1.61-1.39l.61-.71Zm6.54,1.09c.78-.38,1.44-.82,1.99-1.29l.83.66c.06.05.08.11.08.17s-.05.1-.13.1c-.04,0-.08,0-.14-.01q-.41.24-1.16.71c-.22.13-.47.26-.94.49l-.53-.82Zm.58.98c1.14.56,1.56.83,2.53,1.64l-.63.94c-.67-.65-1.45-1.24-2.36-1.78l.47-.8Z"/>
        <path class="cls-2" d="m54.72,361.15c.16.01.28.08.28.18,0,.08-.05.14-.22.25-.01.54-.02.78-.02,1.02,0,.28,0,.31.02.98,1.42-.05,2.02-.13,2.94-.44l.35,1.14c-1.07.31-1.75.4-3.29.43.02,1.38.04,1.82.05,2.39.01.38.01.5.02.75q.19.07.68.23c1,.31,1.98.82,2.93,1.49-.24.31-.52.77-.66,1.1-.78-.59-2.13-1.32-2.95-1.61-.07.62-.18.92-.43,1.21-.36.42-1.02.62-1.96.62-1.54,0-2.53-.66-2.53-1.67s1.09-1.78,2.54-1.78c.37,0,.84.05,1.14.11v-.3s-.04-1.73-.11-5.11c-.01-.47-.04-.78-.07-1.08l1.28.07Zm-1.4,7.47c-.24-.06-.58-.1-.85-.1-.82,0-1.32.25-1.32.67,0,.4.41.6,1.18.6.52,0,.88-.11,1.08-.34.1-.11.16-.24.18-.44.01-.13.01-.22.02-.32q-.08-.02-.29-.07Z"/>
        <path class="cls-2" d="m68.2,361.68c.08.05.13.13.13.19,0,.1-.08.14-.31.18-.54.64-2.27,2.45-3.15,3.29-.38.36-.46.44-.46.53,0,.07.06.17.22.32,1.5,1.56,2.54,2.81,3.75,4.45l-1.22.86c-.3-.5-.73-1.18-1.13-1.71-.48-.68-1.93-2.41-2.59-3.09-.38-.4-.49-.58-.49-.79,0-.26.23-.58.85-1.17.83-.79,2.08-2.18,2.62-2.9.25-.34.38-.54.59-.91l1.2.77Z"/>
        <path class="cls-2" d="m77.73,362.4c.06-.56.1-1.22.12-2.04l1.18.12c.14.01.29.1.29.18s-.08.14-.31.23c-.02.65-.06,1.13-.08,1.51h1.74c.82,0,1.75-.02,2.39-.06q-.02.37-.04,2.34v3.2c0,.35.02,1.38.04,2.04v.23c0,.6-.1.88-.4,1.08-.35.23-.71.29-2,.29-.05-.64-.08-.84-.23-1.29.42.04.62.04.97.04.38,0,.44-.06.44-.49v-6.3h-3.05c-.02.1-.04.18-.06.28-.06.28-.13.54-.2.79,1.22.76,2.05,1.48,3.2,2.78l-.83.94c-1.03-1.3-1.68-1.96-2.75-2.74-.26.56-.59,1.06-1.01,1.52-.56.64-.94.94-1.9,1.56-.23-.48-.35-.68-.61-.98,1.28-.8,2.05-1.63,2.51-2.67.19-.46.34-.91.44-1.48h-3.03v5.28q.02,2.33.04,2.83h-1.24q.01-.5.04-2.34v-4.56q-.01-1.97-.04-2.34c.64.04,1.57.06,2.39.06h1.99Z"/>
        <path class="cls-2" d="m90.82,370.02c.4.06.86.08,1.45.08.9,0,2.73-.06,3.54-.12-.17.62-.19.77-.23,1.19-1.9.04-2.46.04-3.09.04-1.74,0-2.57-.13-3.38-.56-.77-.4-1.25-.84-1.69-1.63-.05.1-.1.2-.16.3-.52.92-1.08,1.55-2.06,2.29-.24-.41-.4-.61-.74-.92.94-.71,1.37-1.19,1.82-1.98.49-.89.73-1.64.89-2.87l1.1.29c.18.05.25.1.25.18s-.08.13-.29.18c-.1.5-.2.94-.32,1.34.38.79.92,1.43,1.73,1.82v-4.28h-1.2c-.66,0-1.74.02-2.39.05v-1.2c.61.02,1.7.05,2.39.05h3.56c.76,0,1.77-.02,2.39-.05v1.2c-.64-.04-1.66-.05-2.39-.05h-1.18v1.48h1.15c.58,0,1.39-.01,1.91-.04v1.17c-.52-.01-1.33-.04-1.91-.04h-1.15v2.08Zm-1.22-8.85c0-.32,0-.59-.01-.77l1.2.08c.14.01.23.06.23.12,0,.07-.06.14-.23.24v.79h2.18c.82,0,1.76-.01,2.37-.05-.01.43-.02.66-.02.91v.6c0,.26.01.55.04.9h-1.25c.02-.31.04-.66.04-.9v-.36h-7.86v.36c0,.24.01.59.04.9h-1.25c.02-.35.04-.64.04-.9v-.6c0-.25-.01-.48-.02-.91.61.04,1.56.05,2.37.05h2.14v-.47Z"/>
        <path class="cls-2" d="m104.12,363.2c-1.1.37-1.96.56-3.07.67q-.24.53-.37.77c-.06.1-.07.12-.11.19.36-.19.7-.28,1.08-.28.88,0,1.45.54,1.55,1.44,2.11-1.16,2.13-1.19,2.97-1.73l.76.84c.06.07.1.14.1.2,0,.08-.06.13-.17.13-.06,0-.13,0-.22-.01q-.72.4-2.12,1.13c-.43.23-1.14.6-1.31.7v2.11h-1.21v-1.44q-.07.05-.19.11c-.68.38-1.03.8-1.03,1.26,0,.55.36.68,1.81.68,1.19,0,2.12-.08,3.31-.31-.08.56-.1.72-.12,1.29-1.58.18-1.99.2-3.07.2-1.54,0-2.12-.11-2.6-.47-.41-.3-.61-.73-.61-1.31,0-.77.34-1.36,1.09-1.91.37-.28.5-.35,1.14-.68.14-.07.24-.13.28-.14v-.1c0-.35-.04-.54-.12-.68-.11-.17-.31-.28-.55-.28-.5,0-1.08.34-1.58.91-.23.25-.52.66-.95,1.33l-1.01-.73q.18-.26.82-1.15c.29-.41.8-1.31,1.12-2-.24.01-.42.01-.66.01-.47,0-.73-.01-1.27-.05l-.02-1.14c.6.05.91.06,1.29.06.16,0,.83-.01,1.18-.02.34-.84.62-1.71.71-2.12l1.22.31c.06.01.12.07.12.13,0,.07-.07.13-.23.19q-.11.26-.29.74-.11.28-.18.48c-.04.08-.04.1-.06.17.74-.11,1.38-.26,2.23-.54l.36,1.02Z"/>
        <path class="cls-2" d="m113.98,369.09c0,1.1.01,1.92.04,2.46h-1.22c.02-.54.04-1.36.04-2.46v-.1c-.67.22-.8.25-1.54.44q-.67.19-1.21.32t-.73.18c-.12.18-.16.22-.23.22-.1,0-.11-.02-.18-.22l-.41-1.12c.53-.08.96-.16,1.36-.22v-6.56c-.46,0-.98.01-1.38.04v-1.16c.46.01,1.14.02,1.68.02h3.98c.48,0,1.26-.01,1.68-.02v1.16c-.44-.02-1.22-.04-1.68-.04h-.19v7.04Zm-2.94-7.04v1.27h1.79v-1.27h-1.79Zm0,2.34v1.33h1.79v-1.33h-1.79Zm0,3.99c.6-.13,1.19-.3,1.79-.46v-1.14h-1.79v1.6Zm6.69.17c.47.65,1.09,1.21,2.16,2-.35.32-.56.56-.8.91-.91-.74-1.52-1.32-2-1.96-.55.71-1.2,1.28-2.22,2.01-.25-.49-.35-.65-.65-1.01,1.04-.74,1.69-1.33,2.22-2.04-.05-.08-.1-.17-.14-.26-.6-1.19-.92-2.35-1.2-4.33-.25,0-.49.01-.68.02v-1.18c.44.02,1.19.04,1.67.04h2.49l.2-.25.76.74c.06.06.1.14.1.22,0,.1-.07.17-.23.23l-.11.05c-.41,2.35-.74,3.39-1.49,4.69l-.07.11Zm-1.57-4.68c.17,1.21.41,2.43.92,3.55.56-1.12.86-2.33,1.06-3.55h-1.98Z"/>
        <path class="cls-2" d="m123.07,361.78c1.03-.06,3.06-.37,4.21-.64l.17-.11.88.77c.1.08.12.12.12.17,0,.07-.06.11-.17.14l-.11.04c-1.02,1.27-1.54,1.86-2.71,3.11.71-.29,1.13-.38,1.73-.38,1.8,0,3.05,1.09,3.05,2.7,0,.95-.38,1.76-1.09,2.37-.74.64-1.71.94-3.01.94-1.7,0-2.65-.58-2.65-1.62,0-.83.7-1.45,1.62-1.45.7,0,1.39.35,1.81.91.17.24.25.41.47.95.47-.14.7-.28.96-.56.35-.38.55-.92.55-1.48,0-1.07-.73-1.67-2.05-1.67-.96,0-1.83.35-2.96,1.19-.31.24-.54.42-1.05.89l-.84-1.08c1.34-.98,2.54-2.19,4.64-4.67-.96.23-1.1.26-1.67.4l-.67.17c-.2.05-.7.17-.85.22l-.36-1.29Zm2.03,7c-.35,0-.58.18-.58.44,0,.4.49.66,1.23.66.14,0,.16,0,.41-.04-.23-.77-.54-1.07-1.07-1.07Z"/>
        <path class="cls-2" d="m135.77,366.87c-.28.42-.37.68-.37,1.04,0,1,.78,1.35,2.99,1.35,1.37,0,2.29-.12,3.59-.48-.05.43-.06.64-.06.91,0,.16,0,.26.01.52-.94.23-2.11.35-3.42.35-1.88,0-2.85-.2-3.59-.73-.5-.36-.78-.96-.78-1.68,0-.62.12-1.05.53-1.81l1.1.53Zm.35-4.87c.44.61.65.7,1.85.7.9,0,1.93-.14,2.96-.4l.31,1.21c-1.29.31-2.17.41-3.54.41s-1.89-.25-2.54-1.29l.96-.62Z"/>
        <path class="cls-2" d="m149.86,361.94c0,1.44.08,2.4.26,3.11.66-.29,1.07-.46,1.21-.53q.76-.34,1.19-.59l.78.97c.07.1.1.12.1.16,0,.1-.08.12-.4.12-.44.18-.8.32-1.03.41-2.41.92-2.63,1.02-3.29,1.52-.46.34-.71.82-.71,1.29,0,.78.59,1.08,2.16,1.08,1.32,0,2.36-.12,3.42-.38-.04.49-.05.54-.05,1.42-1.09.14-1.87.19-3.03.19-.91,0-1.61-.07-2.12-.2-1.1-.3-1.64-.95-1.64-2.01,0-1.15.79-2.17,2.29-2.94-.28-.86-.3-1.07-.42-3.38-.01-.34-.04-.58-.08-1.15l1.33.06c.11.01.19.07.19.14s-.05.14-.16.23v.49Z"/>
        <path class="cls-2" d="m164.12,363.2c-1.1.37-1.96.56-3.07.67q-.24.53-.37.77c-.06.1-.07.12-.11.19.36-.19.7-.28,1.08-.28.88,0,1.45.54,1.55,1.44,2.11-1.16,2.13-1.19,2.97-1.73l.76.84c.06.07.1.14.1.2,0,.08-.06.13-.17.13-.06,0-.13,0-.22-.01q-.72.4-2.12,1.13c-.43.23-1.14.6-1.31.7v2.11h-1.21v-1.44q-.07.05-.19.11c-.68.38-1.03.8-1.03,1.26,0,.55.36.68,1.81.68,1.19,0,2.12-.08,3.31-.31-.08.56-.1.72-.12,1.29-1.58.18-1.99.2-3.07.2-1.54,0-2.12-.11-2.6-.47-.41-.3-.61-.73-.61-1.31,0-.77.34-1.36,1.09-1.91.37-.28.5-.35,1.14-.68.14-.07.24-.13.28-.14v-.1c0-.35-.04-.54-.12-.68-.11-.17-.31-.28-.55-.28-.5,0-1.08.34-1.58.91-.23.25-.52.66-.95,1.33l-1.01-.73q.18-.26.82-1.15c.29-.41.8-1.31,1.12-2-.24.01-.42.01-.66.01-.47,0-.73-.01-1.27-.05l-.02-1.14c.6.05.91.06,1.29.06.16,0,.83-.01,1.18-.02.34-.84.62-1.71.71-2.12l1.22.31c.06.01.12.07.12.13,0,.07-.07.13-.23.19q-.11.26-.29.74-.11.28-.18.48c-.04.08-.04.1-.06.17.74-.11,1.38-.26,2.23-.54l.36,1.02Z"/>
        <path class="cls-2" d="m169.81,365.61c-.42,0-.84.01-1.15.02v-1.04c.61.02,1.69.04,2.39.04h6.3c.75,0,1.79-.01,2.39-.04v1.04c-.64-.02-1.66-.04-2.39-.04h-3.54v3.85c0,.91.01,1.68.04,2.11h-1.15c.02-.37.02-.89.02-1.57-1.13.29-2.42.6-3.39.77-.1.23-.13.28-.2.28s-.16-.06-.18-.12l-.4-1.14c.47-.06.89-.12,1.27-.18v-3.98Zm1.98-1.15h-1.17c.02-.29.04-.68.04-1.27v-1.26c0-.38-.01-.85-.04-1.07.42.01.79.02,1.33.02h4.58c.53,0,.9-.01,1.32-.02-.02.22-.04.68-.04,1.07v1.21c0,.56.01.97.04,1.25h-1.17v-.24h-4.88v.31Zm.92,1.74v-.6h-1.81v.6h1.81Zm-1.81.94v.58h1.81v-.58h-1.81Zm0,1.5v.79c.61-.1,1.21-.22,1.81-.35v-.44h-1.81Zm5.77-6.9h-4.88v.42h4.88v-.42Zm0,1.16h-4.88v.4h4.88v-.4Zm2.31,3.8c.1.1.12.13.12.2,0,.08-.07.13-.29.18-.32.84-.67,1.71-1.27,2.4.5.37,1.1.62,2.36,1.06-.28.36-.32.46-.55.98-1.25-.48-1.94-.83-2.53-1.32-.62.53-1.32.92-2.37,1.37-.17-.44-.28-.66-.53-.96,1.03-.38,1.64-.7,2.18-1.13-.26-.31-.5-.66-.68-1.03-.19-.38-.34-.79-.47-1.2-.28.01-.55.01-.74.02v-1.06c.36.01.97.02,1.43.02h2.63l.11-.14.61.6Zm-3.08.54c.19.58.49,1.13.9,1.57.42-.46.67-1.01.9-1.57h-1.8Z"/>
        <path class="cls-2" d="m182.68,363.55c.12.01.2.06.2.12,0,.07-.07.14-.23.24q-.01.23-.01,2.05v3.15c0,1.12.01,1.89.04,2.46h-1.14c.02-.54.05-1.35.05-2.46v-3.39c-.16.35-.32.68-.64,1.26-.24-.5-.41-.77-.67-1.09.41-.72.82-1.68,1.09-2.54.25-.74.48-1.75.66-2.91l1.08.34c.1.02.17.11.17.18,0,.08-.04.12-.29.19-.19,1.01-.3,1.45-.58,2.39l.26.02Zm7.32,4.97c.08.07.11.12.11.18,0,.08-.1.14-.3.19-.38.38-.78.76-1.22,1.08.82.23,1.52.32,3.3.47-.17.32-.24.5-.4,1.01-1.92-.2-2.65-.36-3.72-.78-.06-.02-.16-.06-.23-.1-.2.1-.41.19-.65.28-1.09.42-2.05.61-3.57.72-.05-.26-.07-.37-.11-.48-.01-.04-.04-.11-.07-.2-.02-.06-.06-.14-.1-.25,1.83-.19,2.51-.31,3.41-.62-.34-.23-.64-.48-.94-.76-.47.3-.98.55-1.66.83-.16-.37-.26-.56-.5-.86,1.25-.46,2.06-.92,2.76-1.57-.49-.1-.6-.32-.6-.82v-.28c0-.3-.01-.53-.05-.66l1.06.08c.08.01.16.06.16.12,0,.07-.06.12-.2.18-.01.16-.01.23-.01.34,0,.29.14.32,1.09.32s.92-.01.98-.68c.36.17.53.23.88.3-.16,1.13-.24,1.17-1.92,1.17h-.2c-.13.14-.26.29-.41.42h2.43l.11-.11.58.48Zm-2.48-6.4h1.13c.54,0,.9,0,1.32-.02-.01.22-.02.68-.02,1.07v1.8c.62,0,1.27-.01,1.68-.04v.47s-.01.61-.01.61c0,.13.01.3.02.47h-1.03v-.7h-3.08c.24.18.43.37.61.62l-.64.48c-.17-.24-.41-.5-.68-.77l.43-.34h-3.12v.7h-1.03c.02-.18.02-.34.02-.47v-1.08c.38.02.84.04,1.24.04h.36v-1.8c0-.38-.01-.85-.02-1.07.42.02.78.02,1.32.02h.42l.16-.37h-1.42c-.5,0-1.17.01-1.67.02v-.98c.46.02,1.14.04,1.67.04h4.47c.48,0,1.26-.02,1.68-.04v.98c-.44-.01-1.22-.02-1.68-.02h-1.91l-.22.37Zm-2.3,4.26c.07.04.11.06.11.11,0,.06-.04.08-.17.12-.25.61-.55.97-1.16,1.44-.19-.28-.31-.4-.62-.7.59-.41.84-.72,1.08-1.28l.77.31Zm3.72-3.26v-.26h-3.21v.26h3.21Zm-3.21.94h3.21v-.31h-3.21v.31Zm0,.91h3.21v-.29h-3.21v.29Zm.7,3.98c.35.24.7.46,1.08.63.35-.18.67-.4.98-.63h-2.06Zm3.57-3.08c.54.54.78.86,1.15,1.51l-.78.44c-.35-.64-.62-1.04-1.04-1.52l.67-.43Z"/>
        <path class="cls-2" d="m199.94,369.69c0,.3.06.4.28.44s.46.07.86.07c.97,0,1.34-.06,1.49-.23.08-.1.12-.25.14-.67.01-.26.02-.48.04-.72.44.25.6.31,1.14.47-.05,1.22-.16,1.66-.48,1.92-.3.25-.97.37-2.12.37s-1.63-.04-1.96-.16c-.41-.14-.59-.47-.59-1.1v-3.51h-1.42c-.18,1.51-.52,2.36-1.19,3.15-.64.76-1.45,1.26-3.02,1.87-.2-.46-.41-.78-.66-1.06,1.5-.54,2.2-.95,2.77-1.62.5-.6.74-1.21.9-2.35h-1.08c-.66,0-1.74.02-2.4.05v-1.19c.62.02,1.7.05,2.4.05h2.61v-1.86h-2.28c-.36.61-.77,1.14-1.25,1.62-.23-.29-.5-.5-.89-.73,1.13-1.22,1.64-2.13,2.07-3.71l1.07.3c.16.05.24.11.24.19s0,.08-.31.2c-.12.36-.25.71-.38,1.02h1.73v-.24c0-.95-.01-1.45-.04-1.8l1.21.08c.13.01.22.05.22.12s-.07.13-.23.24c-.01.28-.01.6-.01,1.35v.24h1.9c.58,0,1.39-.01,1.91-.04v1.18c-.52-.02-1.33-.04-1.91-.04h-1.9v1.86h2.53c.75,0,1.77-.02,2.39-.05v1.19c-.64-.02-1.66-.05-2.39-.05h-1.4v3.12Z"/>
        <path class="cls-2" d="m207.46,361.88c.13.04.22.11.22.2,0,.13-.08.2-.32.29-.46,2.53-.52,3.12-.52,4.53s.16,2.39.6,3.59c-.52.16-.82.26-1.22.46-.42-1.15-.61-2.42-.61-4.04,0-1.29.08-2.16.47-4.59.05-.29.07-.42.08-.68l1.31.25Zm2.75,5.06c-.34.44-.43.67-.43.94,0,.62.71.89,2.39.89,1.12,0,1.89-.1,2.84-.34-.1.58-.14.97-.16,1.42-.78.12-1.7.18-2.6.18-1.03,0-1.85-.08-2.38-.26-.86-.29-1.29-.85-1.29-1.69,0-.56.17-.96.71-1.69l.92.56Zm-1.36-3.77c1.42-.37,2.35-.49,3.68-.49.74,0,1.28.04,2.08.13l-.19,1.18c-.22-.01-.38-.02-.49-.04-.74-.06-1.09-.07-1.75-.07-1.18,0-1.8.1-3.06.49l-.26-1.2Z"/>
        <path class="cls-2" d="m223.82,360.48c.16,0,.25.07.25.17s-.05.16-.22.29c0,.43,0,.78-.01,1v.83c2.17-.1,2.92-.14,3.85-.26v1.28h-1.49q-.52,0-2.36.07v2.15c.05.58.06.77.06,1,0,2.42-1.33,3.79-4.37,4.46-.14-.47-.32-.83-.58-1.16,1.18-.26,1.5-.36,2.05-.6.79-.35,1.14-.66,1.4-1.25-.25.17-.37.2-.73.2-1.1,0-1.8-.74-1.8-1.93s.71-2.04,1.71-2.04c.38,0,.7.07,1,.26.01-.22.01-.34.01-.42,0-.04,0-.49-.01-.64-2.27.06-4.56.17-5.43.26l-.08-1.33c.68.04.98.05,1.45.05,1.2,0,2.39-.02,4.07-.07v-.79c-.01-.89-.04-1.26-.1-1.57l1.32.05Zm-2.01,5.19c-.49,0-.84.41-.84.98s.35.97.86.97c.47,0,.79-.4.79-.98s-.34-.97-.82-.97Z"/>
        <path class="cls-2" d="m231.07,361.78c1.03-.06,3.06-.37,4.21-.64l.17-.11.88.77c.1.08.12.12.12.17,0,.07-.06.11-.17.14l-.11.04c-1.02,1.27-1.54,1.86-2.71,3.11.71-.29,1.13-.38,1.73-.38,1.8,0,3.05,1.09,3.05,2.7,0,.95-.38,1.76-1.09,2.37-.74.64-1.71.94-3.01.94-1.7,0-2.65-.58-2.65-1.62,0-.83.7-1.45,1.62-1.45.7,0,1.39.35,1.81.91.17.24.25.41.47.95.47-.14.7-.28.96-.56.35-.38.55-.92.55-1.48,0-1.07-.73-1.67-2.05-1.67-.96,0-1.83.35-2.96,1.19-.31.24-.54.42-1.05.89l-.84-1.08c1.34-.98,2.54-2.19,4.64-4.67-.96.23-1.1.26-1.67.4l-.67.17c-.2.05-.7.17-.85.22l-.36-1.29Zm2.03,7c-.35,0-.58.18-.58.44,0,.4.49.66,1.23.66.14,0,.16,0,.41-.04-.23-.77-.54-1.07-1.07-1.07Z"/>
        <path class="cls-2" d="m245.28,363.08c.56-.12.88-.22,1.58-.47l.38,1.08c-.77.3-1.39.46-2.31.61q-.34,1.2-.67,2.12c-.77,2.13-1.17,3.06-2.03,4.64-.4-.35-.49-.41-1.08-.68.94-1.56,1.69-3.35,2.5-5.94-.79.06-1.15.08-2.04.08v-1.19c1.09,0,1.36-.01,2.39-.1l.02-.08c.23-.92.34-1.46.44-2.27l1.29.32c.1.02.17.08.17.14,0,.08-.05.13-.23.22-.25.96-.26,1.01-.38,1.39l-.04.11Zm1.61,4.98c-.34.48-.44.73-.44,1.04,0,.47.43.59,2.17.59.73,0,1.33-.07,2.27-.26-.08.38-.1.49-.12,1.28-.83.11-1.43.16-2.22.16-1.02,0-1.81-.07-2.27-.19-.65-.18-1.03-.7-1.03-1.39,0-.58.22-1.04.78-1.73l.86.5Zm-1.2-2.66c1.47-.47,2.3-.61,3.59-.61.25,0,.64.01,1.13.04l-.05,1.16c-.92-.04-1.04-.04-1.2-.04-1.01,0-1.64.11-3.18.53l-.29-1.08Z"/>
        <path class="cls-2" d="m255.41,362.04c.18,0,.24.05.24.13s-.05.16-.2.25c.08.72.19,1.37.31,1.85.86-.55,1.47-.78,2.69-.98.4-.9.58-1.44.71-2.18l1.26.42c.1.04.14.08.14.14,0,.08-.06.14-.24.22q-.11.23-.32.82c-.02.07-.07.18-.22.53,1.02.02,1.63.2,2.27.62.89.61,1.38,1.61,1.38,2.82,0,1.55-.73,2.64-2.28,3.44-.59.3-1.07.46-2.15.71-.12-.53-.24-.84-.48-1.25,1.22-.25,1.4-.31,1.93-.56,1.16-.56,1.64-1.27,1.64-2.46,0-1.33-.97-2.21-2.43-2.21h-.3q-.59,1.24-1.02,1.98c-.44.76-.59.97-.92,1.4q.17.18.73.71c-.43.44-.67.73-.91,1.05-.3-.3-.41-.43-.72-.82-.79.83-1.45,1.19-2.18,1.19-.86,0-1.43-.65-1.43-1.67,0-1.12.68-2.34,1.81-3.23-.11-.42-.18-.71-.24-1.01-.13-.73-.23-1.26-.29-1.57-.02-.14-.04-.17-.08-.32l1.31-.02Zm-.31,4.04c-.65.67-.98,1.39-.98,2.06,0,.32.12.54.3.54.36,0,.88-.37,1.39-1-.3-.52-.55-1.09-.71-1.61Zm2.87-1.56c-.74.18-1.26.43-1.93.91.04.07.05.13.06.17.14.43.38.92.54,1.16.49-.64,1.06-1.6,1.33-2.24Z"/>
        <path class="cls-2" d="m265.64,367.96c1.01.95,1.54,1.56,2.35,2.7l-1.09.83c-.67-1.05-1.42-1.98-2.19-2.71l.94-.82Z"/>
        <path class="cls-2" d="m30.85,388.7c.24.49.52.96.84,1.39.46-.34.89-.68,1.29-1.08.26-.26.52-.54.77-.82l1.03.71c.06.04.1.11.1.17q0,.08-.37.12c-.68.65-1.37,1.21-2.12,1.73l.25.25c.98,1.01,1.7,1.49,3.25,2.21-.34.4-.48.61-.78,1.16-1.49-.8-2.24-1.38-3.2-2.46-.43-.49-.77-.91-1.06-1.38v.53c0,.61.01,1.4.04,3.05v.11c0,.52-.1.74-.42.9-.37.19-.68.23-2.06.24-.08-.54-.14-.82-.29-1.29.52.04.82.06,1.08.06.41,0,.46-.06.46-.5v-2.42c-1.13.94-2.6,1.88-4.09,2.64-.04.23-.1.32-.2.32-.07,0-.14-.05-.18-.12l-.6-1.15.54-.28c1.81-.9,2.47-1.31,4.11-2.51l.42.91v-3.35h-2.48c-.59,0-1.63.01-2.15.04v-1.19c.49.02,1.54.05,2.15.05h2.48c-.01-.38-.01-.76-.01-1.14-.01-.38-.01-.78-.06-1.16l1.33.08c.1.01.17.06.17.12,0,.07-.06.13-.22.24-.02.62-.01,1.24-.01,1.86h2.38c.66,0,1.62-.02,2.15-.05v1.19c-.55-.02-1.51-.04-2.15-.04h-2.38v.86Zm-4.2-.56c.96.88,1.19,1.13,1.79,2.03l-.98.78c-.78-1.1-1.12-1.52-1.68-2.04l.88-.77Zm5.46-3.53c1.02.55,1.17.66,1.76,1.2l-.7.8c-.78-.68-1.14-.95-1.68-1.22l.61-.78Z"/>
        <path class="cls-2" d="m40.03,392.77c0,1.22.01,2.21.05,2.81h-1.16c.02-.66.05-1.59.05-2.81v-.16c-.24.1-.42.16-.58.22q-.75.28-1.13.43c-.08.18-.13.23-.2.23-.06,0-.14-.06-.17-.13l-.42-1.12c.23-.05.43-.1.62-.14v-6.17c-.17,0-.34.01-.47.01v-1.06c.35.01.85.02,1.2.02h1.66c.35,0,.86-.01,1.2-.02v1.06c-.18-.01-.42-.01-.65-.01v6.84Zm-1.87-6.85v1.24h.8v-1.24h-.8Zm0,2.24v1.28h.8v-1.28h-.8Zm0,2.29v1.34c.26-.07.54-.17.8-.25v-1.09h-.8Zm7.6-.83c.01.34.02.65.05.94.02.4.07.77.13,1.13.26-.48.47-1.02.67-1.71l.95.37c.12.05.16.08.16.16,0,.08-.02.1-.26.18-.31.98-.67,1.73-1.17,2.39.07.19.14.37.22.56.1.25.19.38.25.38.12,0,.26-.52.35-1.27.22.12.46.25.86.43-.17.89-.23,1.16-.35,1.55-.16.48-.37.7-.7.7-.59,0-1.03-.44-1.44-1.44-.6.59-1.27,1.01-2.51,1.61-.23-.42-.38-.61-.68-.92.66-.26,1.15-.5,1.57-.77h-.89v-.24h-1.01v.61h-1.04c.01-.29.02-.68.02-1.28v-1.81c0-.38-.01-.84-.02-1.06.26.01.5.01.86.01h1.37c.36,0,.6,0,.86-.01-.01.22-.02.67-.02,1.06v1.48c0,.5.01.88.02,1.15.34-.23.64-.48.94-.79.06-.06.11-.11.16-.17-.28-1.05-.36-2.13-.43-3.21h-2.75c-.5,0-1.17.01-1.67.02v-1.09c.25.01.58.01.91.01-.12-.49-.23-.85-.38-1.31l.72-.24h-.95s0-1.06,0-1.06c.18.01.49.02.72.02h.61v-.77c0-.34-.01-.6-.02-.77l1.1.07c.14.01.22.06.22.12,0,.07-.06.14-.23.25v1.09h.71c.23,0,.54-.01.72-.02v1.07h-.72s-.41-.01-.41-.01l.9.23c.12.04.22.12.22.2,0,.1-.05.12-.31.18-.13.36-.25.68-.35.95h.91c-.02-.78-.04-1.67-.04-2.69,0-.8-.02-1.26-.07-1.47l1.21.13c.13.01.19.06.19.13,0,.08-.07.16-.24.24-.01.4-.01.68-.01,2.07,0,.36.01.95.05,1.58h.38c.48,0,1.26-.01,1.67-.02v1.09c-.44-.01-1.21-.02-1.67-.02h-.34Zm-3.09-1.04c.17-.5.3-1.03.38-1.56h-1.34c.18.42.34.83.46,1.27l-.8.29h1.31Zm.3,2.47h-1.01v.41h1.01v-.41Zm0,1.25h-1.01v.43h1.01v-.43Zm3.67-6.63c.46.71.72,1.25.95,1.86l-.96.44c-.2-.66-.52-1.34-.86-1.89l.88-.41Z"/>
        <path class="cls-2" d="m56.27,386.43c.41-.42.72-.82,1.32-1.61l1.03.55c.14.07.18.12.18.19,0,.12-.1.16-.42.19-.79.9-1.55,1.69-2.34,2.4h1.29c.76,0,1.79-.02,2.4-.05v1.19c-.65-.02-1.67-.04-2.4-.04h-2.6c-.41.32-.84.64-1.28.92h3.49c.42,0,.71,0,1.02-.01q-.01.38-.04,1.91v1.19c0,.96.01,1.66.04,2.11h-1.16v-.5h-4.11v.67h-1.16c.02-.49.04-1.13.04-2.11v-2.11c-.79.43-1.64.85-2.58,1.27-.19-.44-.32-.65-.64-1.02,1.87-.78,3.21-1.46,4.5-2.32h-1.8c-.66,0-1.74.01-2.39.04v-1.19c.61.02,1.7.05,2.39.05h2.06v-1.25h-2.05c-.4,0-1.07.01-1.44.02v-1.15c.36.01.98.02,1.44.02h2.05c0-.7-.01-1.1-.04-1.4l1.21.08c.13.01.2.06.2.12,0,.07-.06.14-.23.24v.96h.58c.46,0,1.08-.01,1.44-.02v.65Zm.53,5.61v-.82h-4.11v.82h4.11Zm-4.11,1.79h4.11v-.83h-4.11v.83Zm1.67-5.67c.49-.4.97-.8,1.42-1.24-.31,0-.62-.01-.93-.01h-.58v1.25h.1Z"/>
        <path class="cls-2" d="m63.23,389.71c.49.34.86.65,1.31,1.12l-.74,1.03c-.17-.24-.36-.5-.56-.73v.95c0,1.57.01,2.73.05,3.5h-1.24c.04-.78.05-1.95.05-3.5v-.71c-.32.98-.62,1.58-1.16,2.45-.32-.73-.43-.94-.65-1.24.76-1.17,1.28-2.52,1.64-4.22h-.36c-.31,0-.7.01-.95.02v-1.14c.26.01.7.02.95.02h.53c-.01-1.52-.04-2.46-.07-2.78l1.26.1c.11,0,.18.05.18.12,0,.06-.06.13-.22.23-.01.37-.01.42-.01,2.34h.3c.26,0,.7-.01.96-.02v1.14c-.25-.01-.64-.02-.96-.02h-.3v1.36Zm5.23.97c.13.28.29.54.47.79.44-.28.64-.44,1.45-1.12l.9.61s.08.08.08.12c0,.07-.07.11-.22.11h-.11q-.24.14-.9.58c-.2.13-.38.24-.64.37l.05.06c.59.62,1.08.96,2.33,1.63-.3.34-.47.56-.7.95-1.08-.61-1.62-1.04-2.25-1.79-.18-.2-.32-.4-.47-.59.01.47.01,1.07.02,1.69v.12c0,.59-.1.85-.4,1.03-.35.22-.73.26-1.89.26-.02-.35-.08-.71-.23-1.24.4.04.59.04.88.04.42,0,.48-.05.48-.47v-.91c-.95.52-2.01,1.07-2.79,1.42-.07.18-.14.26-.22.26-.06,0-.14-.06-.18-.13l-.52-1.04c1.52-.53,2.21-.82,3.71-1.59v-1.59h-1.79c-.36,0-.86,0-1.2.02v-1.13c.34.02.84.02,1.2.02h1.79v-.58h-.88c-.36,0-.86.01-1.2.02v-1.09c.34.02.84.02,1.2.02h.88v-.47h-1.48c-.35,0-.85,0-1.2.02v-1.13c.35.01.85.02,1.2.02h.59c-.29-.47-.52-.79-.77-1.07l.86-.56c.53.53.71.75,1.03,1.29l-.5.34h1.38c.31-.52.53-.98.79-1.64l1.16.52c.06.02.11.08.11.14,0,.08-.1.13-.32.16-.25.41-.4.65-.52.83h.61c.35,0,.86-.01,1.2-.02v1.13c-.34-.02-.85-.02-1.2-.02h-1.81v.47h1.2c.35,0,.85,0,1.2-.02v1.09c-.35-.01-.85-.02-1.2-.02h-1.2v.58h2.11c.35,0,.85,0,1.2-.02v1.13c-.35-.02-.85-.02-1.2-.02h-2.11v.43Zm-2.99-.26c.55.4.83.67,1.31,1.28l-.88.75c-.41-.6-.74-.97-1.21-1.38l.78-.66Z"/>
        <path class="cls-2" d="m78.8,387.6c.1.05.14.1.14.14,0,.07-.06.14-.17.2-.43,1.79-.62,2.4-1.1,3.48-.71,1.6-1.49,2.33-2.5,2.33-.66,0-1.14-.29-1.49-.85-.3-.53-.47-1.16-.47-1.83,0-1.5.85-2.97,2.25-3.89.88-.58,1.86-.86,2.99-.86,1.27,0,2.39.35,3.3,1.01,1.01.74,1.51,1.78,1.51,3.11,0,1.58-.74,2.78-2.27,3.62-.48.26-1.39.61-2.23.85-.23-.62-.31-.79-.63-1.2,1.26-.3,1.74-.47,2.4-.86.96-.56,1.47-1.42,1.47-2.42,0-1.23-.74-2.25-2.01-2.76-.46-.18-.98-.29-1.37-.29h-.24l.41.23Zm-3.13.82c-.77.77-1.2,1.75-1.2,2.71,0,.85.28,1.38.72,1.38.38,0,.72-.37,1.15-1.27.7-1.45,1.12-2.77,1.2-3.8-.85.18-1.33.43-1.87.98Z"/>
        <path class="cls-2" d="m87.72,385.45c-.43.78-.6,1.06-.86,1.48.65-.04,1.3-.08,1.94-.16-.22-.25-.44-.49-.7-.72l.71-.62c.85.71,1.28,1.2,1.97,2.21l-.89.7c-.14-.24-.28-.47-.43-.68-1.17.16-2.03.25-4.09.44-.1.14-.17.22-.25.22-.05,0-.13-.08-.16-.17l-.32-1.14c.38-.01.72-.01,1.03-.02.49-.79.86-1.56,1.27-2.6l1.14.37c.08.02.13.07.13.13,0,.08-.01.1-.26.17l-.23.41Zm-1.12,7.84c0,.72.01,1.68.04,2.24h-1.15c.02-.88.02-1.13.02-1.76v-3.85c0-.59-.01-.97-.02-1.38.25.01.62.01.97.01h2.31c.37,0,.76,0,1.02-.01q-.02.59-.02,1.05v2.9c0,.26.01.94.04,1.43v.19c0,1.16-.3,1.37-1.97,1.37h-.1c-.05-.55-.08-.78-.19-1.15.3.02.43.02.68.02.38,0,.44-.06.44-.49v-.74h-2.07v.17Zm2.07-3.73h-2.07v.82h2.07v-.82Zm-2.07,2.61h2.07v-.86h-2.07v.86Zm5.44-5.89c.96-.35,1.52-.65,2.39-1.21l.89.72c.06.05.08.08.08.13,0,.08-.08.13-.23.13h-.12c-.92.52-1.91.91-3.01,1.22v.62c0,.34.04.4.2.44.23.06.37.07.98.07,1.01,0,1.18-.02,1.32-.23.07-.1.12-.32.16-.65l.05-.4c.08.04.14.06.19.08.12.05.4.14.82.29-.14,1.15-.22,1.4-.46,1.64-.26.23-.73.31-1.91.31-1.24,0-1.62-.02-1.92-.13-.41-.13-.58-.47-.58-1.16v-3.69s1.14.08,1.14.08c.16.01.23.05.23.12s-.06.14-.23.24v1.36Zm0,5.5c.96-.36,1.54-.66,2.4-1.22l.89.72s.08.08.08.13c0,.08-.08.13-.23.13h-.12c-.92.52-1.92.92-3.02,1.22v1c0,.34.04.38.2.44.23.06.37.07.98.07,1.01,0,1.18-.04,1.32-.24.07-.08.12-.32.16-.64l.05-.4c.08.04.14.06.19.08.12.05.4.14.82.29-.14,1.15-.22,1.4-.46,1.63-.26.24-.73.31-1.91.31-1.24,0-1.62-.02-1.92-.12-.41-.13-.58-.47-.58-1.16v-4.04s1.14.08,1.14.08c.16.01.23.05.23.12s-.06.14-.23.24v1.34Z"/>
        <path class="cls-2" d="m102.3,388.21c-.16,1.7-.44,2.79-.91,3.73-.6,1.16-1.43,2.01-2.72,2.78-.38.23-.64.37-1.28.7l-.12-.22c-.23-.43-.29-.53-.62-.9,2.9-1.32,4.04-2.72,4.38-6.07l-1.69.04c-1.17.02-1.37.02-2.16.06l-.02-1.24c.18.01.9.02,2.15.02l1.81-.02.04-1.68c0-.29,0-.65-.02-.9l1.37.11c.2.01.32.08.32.2,0,.11-.08.18-.36.34-.01.71-.04,1.33-.07,1.91l3.54-.06.19-.23.89.71c.12.08.14.14.14.22,0,.1-.02.13-.26.24-.01.66-.02.96-.02,1.42-.02,3.3-.24,4.64-.86,5.26-.52.52-.98.61-3.11.62-.08-.61-.17-.9-.37-1.36h.22c.31.02.64.02.98.02,1.01,0,1.28-.11,1.51-.6.28-.6.38-2.04.42-5.18l-3.33.07Z"/>
        <path class="cls-2" d="m111.46,385.88c.13.04.22.11.22.2,0,.13-.08.2-.32.29-.46,2.53-.52,3.12-.52,4.53s.16,2.39.6,3.59c-.52.16-.82.26-1.22.46-.42-1.15-.61-2.42-.61-4.04,0-1.29.08-2.16.47-4.59.05-.29.07-.42.08-.68l1.31.25Zm2.75,5.06c-.34.44-.43.67-.43.94,0,.62.71.89,2.39.89,1.12,0,1.89-.1,2.84-.34-.1.58-.14.97-.16,1.42-.78.12-1.7.18-2.6.18-1.03,0-1.85-.08-2.38-.26-.86-.29-1.29-.85-1.29-1.69,0-.56.17-.96.71-1.69l.92.56Zm-1.36-3.77c1.42-.37,2.35-.49,3.68-.49.74,0,1.28.04,2.08.13l-.19,1.18c-.22-.01-.38-.02-.49-.04-.74-.06-1.09-.07-1.75-.07-1.18,0-1.8.1-3.06.49l-.26-1.2Z"/>
        <path class="cls-2" d="m126.06,387.82c-.32-.02-.78-.02-1.12-.02-.16,1.07-.38,2.12-.75,3.14.62.55,1.19,1.14,1.86,1.93l-.86.91c-.62-.72-1.09-1.25-1.51-1.68-.01.02-.04.06-.05.08-.68,1.26-1.39,2.06-2.61,2.99-.28-.48-.43-.7-.66-.91,1.15-.91,1.75-1.6,2.33-2.7.05-.1.1-.18.14-.28-.55-.48-1.12-.89-1.97-1.45l.65-.9c.7.46,1.26.85,1.76,1.24.23-.78.38-1.57.49-2.38h-1.93c-.35,0-.85,0-1.2.02v-1.15c.35.01.85.02,1.2.02h.92v-1.05c0-.55,0-.7-.02-1.12l1.19.07c.14.01.22.06.22.13s-.06.13-.23.24v1.73h.96c.35,0,.85-.01,1.2-.02v1.15Zm1.03,1.38c1.05,1.2,1.1,1.26,1.69,2.31l-1.02.71c-.32-.77-.89-1.67-1.52-2.39l.85-.64Zm3.48-2.1c.35,0,.86-.01,1.2-.02v1.15c-.33-.02-.85-.02-1.2-.02h-.26v3.02c0,.55.01,1.28.04,2.76v.12c0,.6-.11.9-.43,1.1-.37.24-.72.29-2.06.3q-.02-.47-.23-1.27c.47.04.7.05,1.06.05.43,0,.48-.05.48-.5v-5.58h-1.63c-.35,0-.85,0-1.19.02v-1.15c.34.01.84.02,1.19.02h1.63c-.01-1.39-.04-2.28-.07-2.58l1.28.08c.11,0,.17.06.17.12,0,.07-.06.13-.22.23,0,.37,0,.41-.01,2.15h.26Z"/>
        <path class="cls-2" d="m136.53,385.5c.13,0,.23.07.23.17,0,.08-.05.13-.2.24-.05.98-.18,5.79-.18,6.42,0,1,.36,1.36,1.37,1.36.71,0,1.39-.2,2.11-.62.88-.5,1.37-.96,2.22-2.09.19.44.31.61.78,1.15-.92,1.09-1.46,1.56-2.33,2.06-.94.53-1.93.8-2.93.8s-1.69-.29-2.09-.82c-.3-.4-.44-.97-.44-1.8,0-.32.01-.6.07-2.13.04-1.05.06-2.24.06-3.44,0-.54-.01-.97-.04-1.39l1.37.1Z"/>
        <path class="cls-2" d="m154.59,386.9q.08.13.08.2c0,.1-.05.12-.38.14-1.24.08-1.93.31-2.75.91-1.16.86-1.8,1.93-1.8,3.03,0,1.03.8,1.81,2.15,2.09.66.13,1.25.19,2.18.2-.2.37-.3.64-.48,1.3-1.16-.07-1.81-.17-2.58-.38-1.62-.46-2.54-1.61-2.54-3.19,0-1.31.6-2.34,1.94-3.36-1.08.25-3.68.85-4.35,1.01-.3.06-.37.08-.6.14l-.3-1.37c1.08-.1,2.58-.34,5.35-.86,2.35-.44,2.67-.52,3.45-.8l.62.94Z"/>
        <path class="cls-2" d="m159.07,387.85c.12.01.19.06.19.13s-.07.13-.24.23v4.91c0,1.08.01,1.93.04,2.46h-1.24c.02-.54.05-1.35.05-2.46v-3.27c-.22.47-.4.8-.72,1.33-.28-.61-.4-.8-.72-1.17,1.05-1.68,1.73-3.38,2.24-5.62l1.15.44c.11.04.17.1.17.17,0,.1-.04.12-.29.2-.33,1.17-.5,1.66-.91,2.65h.28Zm7.89-2.59c.07.06.1.11.1.16,0,.07-.06.11-.17.11-.04,0-.1,0-.24-.01-.9.25-1.49.42-2.01.55,0,.74.02,1.51.1,2.25h1.18c.49,0,1.24-.01,1.68-.04v1.16c-.44-.01-1.19-.02-1.68-.02h-1.04c.08.58.19,1.09.34,1.56.4,1.33,1.18,2.65,1.57,2.65.07,0,.14-.06.18-.17.05-.17.07-.22.14-.97.32.18.6.29.94.38-.1,1.62-.36,2.18-.98,2.18-.82,0-1.76-.95-2.46-2.46-.46-1-.76-2-.92-3.18h-2.07v2.63c.72-.16,1.42-.36,2.29-.62l.19,1.01c-1.39.46-2.81.85-3.93,1.13-.1.16-.17.23-.24.23-.06,0-.14-.07-.17-.14l-.44-1.15c.42-.07.79-.13,1.15-.2v-5.23q0-.97-.04-1.91l1.25.4c1.82-.28,3.03-.59,4.45-1.12l.86.83Zm-1.92,9.87c-.35-.01-.85-.02-1.2-.02h-3.13c-.35,0-.86.01-1.2.02v-1.15c.34.01.85.02,1.2.02h3.13c.35,0,.85-.01,1.2-.02v1.15Zm-1.51-6.81c-.01-.19-.02-.4-.04-.6-.01-.29-.01-.3-.05-1.4-.61.11-1.24.19-1.86.28v1.73h1.94Z"/>
        <path class="cls-2" d="m171.18,386.61c.16.02.26.1.26.2,0,.1-.06.14-.28.23-.1.72-.11,1.09-.11,2.4,0,1.13.17,1.99.52,2.69.19.4.5.68.73.68.2,0,.35-.43.56-1.67.66.46.74.5,1.12.68-.43,1.87-.8,2.43-1.62,2.43-.71,0-1.34-.44-1.86-1.32-.3-.52-.56-1.26-.67-1.92-.08-.44-.11-.95-.11-1.76,0-.59.05-1.98.08-2.52q.01-.22.01-.33l1.36.2Zm5.47.54c1.49,1.46,2.18,2.55,2.82,4.5l-1.28.6c-.31-1.14-.55-1.73-1.05-2.52-.43-.68-.84-1.2-1.4-1.76l.92-.82Z"/>
        <path class="cls-2" d="m182.79,393.27q.12-.43.14-2.23v-2.79c0-.92-.02-1.44-.05-1.8l1.37.08c.13.01.2.05.2.12s-.06.13-.23.24q-.01.58-.01,1.36v4.2c2.5-.94,4.79-2.28,6.3-3.72.16.61.24.86.47,1.26-1.12.9-1.82,1.38-3.12,2.12-1.44.83-2.27,1.21-3.77,1.74-.05.17-.11.24-.18.24-.05,0-.13-.04-.18-.07l-.95-.74Z"/>
        <path class="cls-2" d="m192.9,389.97c1.07-.65,1.59-1.02,2.41-1.66.9-.73,1.03-.79,1.48-.79.3,0,.52.07.96.32q.12.06,4.14,2.73c.98.65,1.19.78,1.86,1.2q-.65.82-.89,1.26c-.85-.67-1.79-1.37-4.57-3.36-1.04-.75-1.24-.86-1.46-.86-.19,0-.29.04-.68.36-.29.23-1.81,1.51-2.2,1.85-.02.22-.07.3-.16.3-.06,0-.12-.04-.16-.1l-.73-1.26Zm6.94-3.33c.58.35.94.64,1.52,1.2l-.6.65c-.55-.59-.83-.82-1.45-1.24l.53-.61Zm.94-1.09c.56.35.94.64,1.52,1.2l-.6.66c-.56-.59-.83-.83-1.45-1.25l.53-.61Z"/>
        <path class="cls-2" d="m209.19,387.46c.07.01.14.07.14.13,0,.07-.06.13-.22.22-.22,2.09-.42,2.87-.98,3.77-.61.98-1.26,1.57-2.73,2.47-.16-.42-.41-.78-.79-1.15,1.17-.68,1.67-1.08,2.18-1.75.68-.91.98-2.09.98-3.77v-.06l1.42.14Zm.83,5.22c.11-.38.13-.86.13-2.23v-2.1c0-.92-.01-1.44-.04-1.8l1.38.08c.14.01.22.05.22.13,0,.06-.06.12-.23.23q-.01.19-.02,1.36v3.39c1.7-.83,2.64-1.51,4.04-2.95.22.62.3.83.49,1.28-1.61,1.49-2.65,2.18-4.64,3.14-.06.16-.12.23-.19.23-.05,0-.12-.02-.18-.07l-.96-.7Z"/>
        <path class="cls-2" d="m222.8,387.6c.1.05.14.1.14.14,0,.07-.06.14-.17.2-.43,1.79-.62,2.4-1.1,3.48-.71,1.6-1.49,2.33-2.5,2.33-.66,0-1.14-.29-1.49-.85-.3-.53-.47-1.16-.47-1.83,0-1.5.85-2.97,2.25-3.89.88-.58,1.86-.86,2.99-.86,1.27,0,2.39.35,3.3,1.01,1.01.74,1.51,1.78,1.51,3.11,0,1.58-.74,2.78-2.27,3.62-.48.26-1.39.61-2.23.85-.23-.62-.31-.79-.63-1.2,1.26-.3,1.74-.47,2.4-.86.96-.56,1.47-1.42,1.47-2.42,0-1.23-.74-2.25-2.01-2.76-.46-.18-.98-.29-1.37-.29h-.24l.41.23Zm-3.13.82c-.77.77-1.2,1.75-1.2,2.71,0,.85.28,1.38.72,1.38.38,0,.72-.37,1.15-1.27.7-1.45,1.12-2.77,1.2-3.8-.85.18-1.33.43-1.87.98Z"/>
        <path class="cls-2" d="m234.9,384.75c.17.06.24.12.24.19,0,.1,0,.11-.29.18.61.95,1.14,1.55,1.9,2.15.89.72,1.85,1.25,3.2,1.8q-.43.52-.73,1.14c-1.55-.74-2.12-1.09-3.09-1.9-.9-.74-1.22-1.09-1.97-2.27-.59.9-1.03,1.42-1.79,2.11-.96.9-1.7,1.43-3.27,2.34-.28-.56-.4-.75-.71-1.13,1.39-.72,2.2-1.27,3.13-2.13.94-.85,1.47-1.54,2.28-2.88l1.1.4Zm-1.16,4.43c0-.55,0-.7-.02-1.12l1.28.08c.13.01.22.05.22.12s-.07.14-.23.24v1.96h1.7c.46,0,1.07-.01,1.43-.02v1.18c-.36-.02-1.03-.04-1.43-.04h-1.7v2.53h2.17c.76,0,1.78-.02,2.39-.05v1.24c-.64-.02-1.66-.04-2.39-.04h-5.91c-.66,0-1.74.01-2.39.04v-1.24c.52.02,1.37.04,2.04.05v-2.76c0-.55,0-.7-.02-1.1l1.26.07c.13.01.22.06.22.12,0,.07-.07.14-.24.24v3.43h1.63v-4.93Z"/>
        <path class="cls-2" d="m246.7,393.45c0,.91.01,1.68.04,2.11h-1.17c.02-.47.04-1.14.04-2.11v-.64c-.7.61-1.15.92-1.92,1.34-.91.49-1.54.74-2.75,1.12-.2-.54-.23-.6-.5-1.05,1.81-.48,3.07-1.03,4.14-1.8h-1.52c-.62,0-1.4.01-1.91.04v-1.02c.5.02,1.28.04,1.91.04h2.55v-.59h-1.54c-.61,0-1.4.01-1.91.04v-1.01c.5.01,1.29.04,1.91.04h1.54v-.56h-2.12c-.62,0-1.42.02-1.92.05v-1.02c.5.02,1.29.04,1.92.04h.73c-.14-.36-.32-.7-.53-1.02h-.49c-.66,0-1.74.01-2.39.04v-1.09c.54.02,1.42.04,2.09.04-.24-.4-.42-.62-.88-1.13l.82-.64c.67.64.84.83,1.28,1.55l-.34.22h.89v-1.94s1.12.08,1.12.08c.14.01.23.05.23.12s-.07.14-.24.24v1.5h.88v-1.18c0-.32,0-.59-.01-.77l1.14.08c.13.01.22.05.22.12s-.07.14-.24.24v1.5h.48c.37-.74.49-1.09.65-1.73l1.16.42c.07.02.13.08.13.13,0,.08-.04.11-.28.19q-.07.14-.36.73c-.04.07-.08.16-.14.25.73,0,1.64-.01,2.21-.04v1.09c-.64-.02-1.66-.04-2.39-.04h-.78c.16.05.19.11.19.16,0,.07-.06.11-.26.17q-.08.16-.36.7h.94c.55,0,1.39-.01,1.91-.04v1.02c-.52-.02-1.35-.05-1.91-.05h-2.23v.56h1.63c.55,0,1.4-.02,1.92-.04v1.01c-.52-.02-1.37-.04-1.92-.04h-1.63v.59h2.7c.55,0,1.39-.01,1.91-.04v1.02c-.52-.02-1.35-.04-1.91-.04h-1.78c1.1.78,2.34,1.26,4.25,1.68-.28.44-.34.58-.54,1.09-1.2-.3-2.03-.62-3.03-1.16-.64-.36-1-.61-1.6-1.17v.6Zm.18-5c.16-.34.31-.67.42-1.02h-2.43c.23.31.41.66.55,1.02h1.46Z"/>
        <path class="cls-2" d="m258.06,385.39c.11.02.18.1.18.17,0,.1-.07.16-.28.22q-.41,1.37-.6,1.97s.06,0,.13-.01c.35-.06.6-.08.82-.08.41,0,.82.17,1.14.47.31.3.46.65.46,1.2,0,1.28-.35,3-.83,4.1-.38.89-.96,1.27-1.89,1.27-.42,0-.76-.05-1.36-.18.05-.32.1-.97.11-1.31.58.18.9.24,1.24.24.53,0,.78-.28,1.03-1.16.26-.89.44-2.05.44-2.78,0-.5-.18-.74-.56-.74-.19,0-.4.02-1.09.14-.31.95-.7,1.91-1.23,3.05-.46.92-.74,1.43-1.72,2.89-.36-.36-.64-.54-1.07-.71.9-1.19,1.31-1.83,1.83-2.9.24-.5.7-1.57.88-2.1-.71.13-1.49.28-2.3.43l-.17-1.29c.78-.05,1.78-.16,2.88-.32.34-1.07.62-2.22.71-2.78l1.26.24Zm2.89,2.05c1.39.83,2.03,1.39,3.07,2.78l-1.02.92c-.7-1.15-1.57-2.02-2.77-2.77l.72-.94Zm.08-1.83c.56.35.94.64,1.52,1.2l-.6.65c-.55-.59-.83-.82-1.45-1.24l.53-.61Zm.94-1.09c.56.35.94.64,1.52,1.2l-.6.66c-.56-.59-.83-.83-1.45-1.25l.53-.61Z"/>
        <path class="cls-2" d="m272.52,392.62c-.66-.79-1.07-1.21-1.67-1.71-.56.86-1.27,1.63-2.24,2.45-.8.67-1.13.91-2.33,1.66-.2-.4-.54-.8-.84-1.02,2.01-1.22,3.39-2.46,4.33-3.85-.08-.05-.13-.07-.28-.17-.66-.42-.83-.5-1.99-1.04l.64-1.08c.61.22,1.56.7,2.3,1.15.52-.94.89-1.79,1.14-2.65q.29-1,.34-1.2l1.22.52c.1.04.16.1.16.17,0,.08-.07.16-.25.22-.82,2.4-.91,2.63-1.49,3.69.8.6,1.28,1.05,1.96,1.81l-1,1.07Z"/>
        <path class="cls-2" d="m283.3,388.54c.13.04.18.07.18.16s-.05.13-.24.23c-.01.7-.01,1.26-.01,1.71v2.41c0,.95,0,1.51.01,2.1h-1.4c.06-.49.08-1.15.08-2.1v-2.05c0-.36,0-.74-.01-1.45-1.37,1.31-2.05,1.86-3.65,2.9q-.38-.62-.8-1.04c3.25-2.04,5.17-3.9,6.57-6.4l1.15.53c.08.04.13.1.13.16,0,.08-.06.13-.23.19-.65.96-1.47,2.01-2.06,2.6l.28.06Z"/>
        <path class="cls-2" d="m290.79,386.37c1.25.65,1.7.98,2.53,1.89l-.95,1.04c-.86-.96-1.49-1.46-2.38-1.94l.79-1Zm-.46,6.76c1.81-.77,2.84-1.35,4.21-2.39,1.59-1.22,2.53-2.17,3.77-3.85.24.42.44.68.83,1.14-1.58,1.91-2.47,2.78-3.87,3.84-1.18.89-2.06,1.43-3.77,2.29-.05.17-.1.25-.18.25-.06,0-.16-.06-.2-.14l-.78-1.14Z"/>
        <path class="cls-2" d="m305.86,385.94c0,1.44.08,2.4.26,3.11.66-.29,1.07-.46,1.21-.53q.76-.34,1.19-.59l.78.97c.07.1.1.12.1.16,0,.1-.08.12-.4.12-.44.18-.8.32-1.03.41-2.41.92-2.63,1.02-3.29,1.52-.46.34-.71.82-.71,1.29,0,.78.59,1.08,2.16,1.08,1.32,0,2.36-.12,3.42-.38-.04.49-.05.54-.05,1.42-1.09.14-1.87.19-3.03.19-.91,0-1.61-.07-2.12-.2-1.1-.3-1.64-.95-1.64-2.01,0-1.15.79-2.17,2.29-2.94-.28-.86-.3-1.07-.42-3.38-.01-.34-.04-.58-.08-1.15l1.33.06c.11.01.19.07.19.14s-.05.14-.16.23v.49Z"/>
        <path class="cls-2" d="m318.02,384.99c.1.04.16.08.16.16,0,.08-.06.13-.24.22-.29.78-.43,1.19-.52,1.37.59-.14,1.03-.31,1.45-.53l.49,1.07c-.84.37-1.43.54-2.38.7-.22.59-.59,1.5-1.02,2.43-.42.92-.7,1.44-1.19,2.24-.24.41-.42.7-.53.88-.44-.38-.64-.5-1.09-.68.97-1.32,1.85-2.96,2.55-4.79-.25.04-.46.05-.84.05-.34,0-.6-.01-1.18-.05l-.02-1.22c.58.08.95.11,1.45.11.34,0,.54-.01,1-.05.35-1.02.58-1.85.62-2.28l1.27.38Zm2.61,4.71c-.37.25-.47.4-.47.76,0,.25.01.41.08.97.04.25.05.32.08.7q.01.14.02.24c.75.3,1.55.78,2.66,1.62-.35.29-.55.5-.85.95-.66-.61-.72-.66-1.79-1.32-.11,1.19-.8,1.74-2.23,1.74-1.31,0-2.16-.66-2.16-1.69s.88-1.76,2.16-1.76c.38,0,.64.04.98.13-.04-.29-.04-.37-.07-.68-.04-.28-.06-.78-.06-.92,0-.66.23-1.04.88-1.49l.76.77Zm-2.57,3.24c-.55,0-.94.28-.94.68s.36.64,1.06.64c.43,0,.74-.12.88-.34.1-.14.13-.4.13-.79-.43-.14-.77-.19-1.13-.19Zm1.91-5.5c1.35.25,2.01.49,3.17,1.19l-.64,1.08c-1.03-.71-1.73-1.01-2.87-1.22l.34-1.04Z"/>
        <path class="cls-2" d="m329.03,384.92c.08.01.16.1.16.18,0,.07-.06.12-.24.19-.32,1.13-.55,2.54-.55,3.49,0,.13-.01.18-.01.42h.05c.55-2.16,1.54-3.38,2.73-3.38,1.27,0,1.97,1.2,1.97,3.41,0,1.98-.46,3.54-1.37,4.68-.59.73-1.19,1.16-2.37,1.7-.12-.32-.37-.75-.64-1.12,1.16-.6,1.36-.73,1.8-1.2.86-.92,1.28-2.27,1.28-4.1,0-1.52-.25-2.29-.77-2.29-.34,0-.66.3-1.07.97-.35.59-.83,1.94-.98,2.77-.06.29-.11.89-.11,1.19,0,.08.01.22.04.37l-1.27.3c-.34-1.24-.43-1.97-.43-3.38,0-1.06.07-1.68.34-3.11.08-.46.11-.65.13-.83.04-.31.06-.49.06-.53l1.26.26Z"/>
        <path class="cls-2" d="m343.25,392.36c.84.31,1.61.74,2.92,1.63-.29.31-.59.71-.76,1.03-1.06-.85-1.27-1-2.18-1.46-.07.46-.18.74-.38,1-.37.44-1.09.7-1.98.7-1.44,0-2.41-.7-2.41-1.74s.91-1.61,2.42-1.61c.4,0,.75.02,1.12.08q-.02-.42-.05-1.22-.3.01-.58.01c-.82,0-1.03-.02-1.4-.18-.42-.17-.68-.56-.68-1.04,0-.44.14-.74.56-1.2l.91.5c-.2.19-.28.3-.28.46,0,.28.28.37,1,.37.14,0,.25,0,.42-.01-.02-.79-.02-.91-.02-1.66q-.86.05-3.08.05h-.32s-.05,0-.41.01l-.04-1.19c.73.02,1.04.02,2.03.02.56,0,1.4-.01,1.82-.05,0-1.12-.02-1.61-.13-2.11l1.43.07c.12.01.18.06.18.13,0,.08-.04.13-.22.24,0,.46-.01.8-.02,1.58.9-.1,1.87-.28,2.69-.5l.13,1.19c-.9.2-2.1.4-2.82.46v.05q0,.2.01.79t.01.77c.96-.2,1.45-.37,2.17-.78l.38,1.07c-.82.42-1.58.67-2.52.83.01.18.04.68.07,1.36v.36Zm-2.47.56c-.72,0-1.09.19-1.09.55,0,.42.41.67,1.09.67.61,0,.98-.2,1.13-.59.04-.11.1-.47.07-.48-.35-.1-.78-.16-1.2-.16Z"/>
        <path class="cls-2" d="m355.82,384.48c.16,0,.25.07.25.17s-.05.16-.22.29c0,.43,0,.78-.01,1v.83c2.17-.1,2.92-.14,3.85-.26v1.28h-1.49q-.52,0-2.36.07v2.15c.05.58.06.77.06,1,0,2.42-1.33,3.79-4.37,4.46-.14-.47-.32-.83-.58-1.16,1.18-.26,1.5-.36,2.05-.6.79-.35,1.14-.66,1.4-1.25-.25.17-.37.2-.73.2-1.1,0-1.8-.74-1.8-1.93s.71-2.04,1.71-2.04c.38,0,.7.07,1,.26.01-.22.01-.34.01-.42,0-.04,0-.49-.01-.64-2.27.06-4.56.17-5.43.26l-.08-1.33c.68.04.98.05,1.45.05,1.2,0,2.39-.02,4.07-.07v-.79c-.01-.89-.04-1.26-.1-1.57l1.32.05Zm-2.01,5.19c-.49,0-.84.41-.84.98s.35.97.86.97c.47,0,.79-.4.79-.98s-.34-.97-.82-.97Z"/>
        <path class="cls-2" d="m364.33,393.66c0,1.02-.82,1.83-1.82,1.83s-1.83-.82-1.83-1.83.82-1.82,1.83-1.82,1.82.82,1.82,1.82Zm-2.79,0c0,.54.43.97.97.97s.96-.43.96-.97-.43-.96-.96-.96-.97.43-.97.96Z"/>
      </g>
      <path class="cls-2" d="m380.75,136.12h-115.69c-1.07,0-1.94.87-1.94,1.94v20.23c0,.54-.43.97-.97.97h-115.79c-1.07,0-1.94.87-1.94,1.94v20.23c0,.54-.43.97-.97.97H27.66c-1.07,0-1.94.87-1.94,1.94v24.18c0,.54.43.97.97.97h355.03c.54,0,.97-.43.97-.97v-71.42h0c0-.54-.43-.97-.97-.97h-.97Z"/>
      <g>
        <path class="cls-3" d="m277.72,146.67c-1.17.21-2.13.33-3.85.48-.08-.62-.22-1.06-.48-1.47,3.64-.17,6.25-.75,7.86-1.72l1.16,1.12c.07.07.12.15.12.22,0,.1-.1.17-.3.17h-.22c-1.41.51-2.08.74-2.69.87v2.23h2.83c.62,0,1.59-.01,2.1-.03v1.54c-.56-.02-1.52-.04-2.1-.04h-2.86c-.08,1.41-.29,2.19-.79,3.12-.72,1.31-1.77,2.21-3.75,3.15-.29-.62-.41-.78-.92-1.4,2.54-1.08,3.73-2.58,3.87-4.87h-3.3c-.65,0-1.49.01-2.1.04v-1.54c.57.01,1.42.03,2.1.03h3.33v-1.9Z"/>
        <path class="cls-3" d="m293.61,152.47q.58,2.25.79,2.97s.1.33.12.42l-1.52.41c-.06-.36-.42-2.17-.78-3.58l-.58-2.25-.36.09c-.99.22-1.28.3-2.4.62-.1.03-.13.03-.3.08l-.46-1.38c1-.18,1.41-.25,3.21-.66q-.64-2.5-.84-3.02l1.5-.17c.22-.03.33.08.33.2,0,.09-.04.17-.17.32q.04.3.52,2.35l4.11-.99.19-.25,1.19.84c.15.11.18.15.18.24,0,.15-.01.17-.31.29-.72,1.51-1.22,2.19-2.54,3.46-.39-.5-.41-.51-1.05-1.04.93-.73,1.38-1.23,1.93-2.17l-3.39.87.62,2.37Z"/>
        <path class="cls-3" d="m304.02,153.87q.15-.54.18-2.79v-3.49c0-1.16-.03-1.8-.06-2.25l1.71.1c.17.02.26.06.26.15s-.08.17-.29.3q-.02.72-.02,1.7v5.25c3.12-1.17,5.99-2.85,7.88-4.65.2.76.3,1.08.58,1.58-1.39,1.12-2.28,1.72-3.9,2.65-1.8,1.04-2.83,1.52-4.71,2.17-.06.21-.13.3-.23.3-.06,0-.17-.04-.22-.09l-1.18-.93Z"/>
        <path class="cls-3" d="m319.02,145.24c1.56.81,2.13,1.23,3.16,2.37l-1.18,1.31c-1.08-1.2-1.86-1.83-2.97-2.43l.99-1.24Zm-.57,8.46c2.26-.96,3.55-1.69,5.26-2.98,2-1.53,3.17-2.71,4.71-4.82.3.53.55.86,1.04,1.42-1.98,2.39-3.09,3.48-4.84,4.8-1.47,1.11-2.58,1.79-4.71,2.87-.06.21-.12.32-.23.32-.07,0-.19-.08-.25-.18l-.97-1.42Z"/>
        <path class="cls-3" d="m333.37,147.46c1.25.67,1.8,1.09,2.76,2.01l-1.12,1.33q-1.35-1.25-2.58-2.05l.94-1.29Zm.21,6.67c1.65-.74,3.55-1.91,5.26-3.27,1.75-1.38,3.18-2.82,4.5-4.5.39.54.53.71,1.12,1.31-2.96,3.45-4.65,4.86-9.33,7.77-.06.21-.14.31-.24.31-.08,0-.18-.07-.27-.19l-1.05-1.42Zm2.17-9.9c1.12.68,1.65,1.1,2.7,2.18l-1.11,1.24c-.93-.96-1.68-1.62-2.55-2.19l.96-1.23Zm6.09-.58c.71.44,1.17.79,1.91,1.5l-.75.81c-.71-.74-1.04-1.02-1.82-1.54l.66-.77Zm1.17-1.36c.71.44,1.17.79,1.89,1.5l-.75.82c-.69-.73-1.02-1.03-1.8-1.56l.66-.77Z"/>
        <path class="cls-3" d="m354.16,143.22c.21.07.3.15.3.24,0,.12,0,.13-.36.23.77,1.19,1.43,1.93,2.37,2.68,1.11.9,2.31,1.56,4,2.25q-.54.65-.92,1.43c-1.93-.93-2.65-1.37-3.87-2.37-1.12-.93-1.53-1.37-2.46-2.83-.74,1.12-1.29,1.77-2.24,2.64-1.2,1.12-2.13,1.79-4.09,2.92-.34-.71-.5-.95-.88-1.41,1.74-.9,2.75-1.59,3.92-2.67,1.17-1.06,1.84-1.92,2.85-3.6l1.38.5Zm-1.46,5.53c0-.69,0-.87-.03-1.4l1.61.11c.17.01.27.06.27.15s-.09.18-.29.3v2.45h2.13c.57,0,1.33-.01,1.79-.03v1.47c-.45-.03-1.29-.05-1.79-.05h-2.13v3.17h2.71c.95,0,2.22-.03,2.99-.06v1.54c-.79-.03-2.07-.04-2.99-.04h-7.39c-.82,0-2.17.01-2.98.04v-1.54c.64.03,1.71.04,2.55.06v-3.45c0-.69,0-.87-.03-1.38l1.58.09c.17.01.27.08.27.15,0,.09-.09.18-.3.3v4.29h2.04v-6.16Z"/>
        <path class="cls-3" d="m368.91,154.09c0,1.14.01,2.1.04,2.64h-1.47c.03-.58.04-1.42.04-2.64v-.8c-.87.77-1.44,1.16-2.4,1.68-1.14.61-1.92.93-3.43,1.39-.25-.67-.29-.75-.63-1.32,2.26-.6,3.84-1.29,5.17-2.25h-1.91c-.78,0-1.75.01-2.38.04v-1.28c.63.03,1.6.04,2.38.04h3.2v-.73h-1.92c-.77,0-1.75.01-2.38.04v-1.26c.63.01,1.62.04,2.38.04h1.92v-.71h-2.66c-.78,0-1.77.03-2.4.06v-1.27c.63.03,1.62.04,2.4.04h.92c-.18-.45-.41-.87-.66-1.28h-.62c-.82,0-2.17.01-2.98.04v-1.36c.67.03,1.77.04,2.61.04-.3-.5-.52-.78-1.09-1.41l1.02-.79c.84.79,1.05,1.04,1.6,1.93l-.42.27h1.11v-1.47l-.02-.96,1.41.1c.18.02.29.06.29.15s-.09.18-.3.3v1.88h1.09v-1.47c0-.4,0-.73-.01-.96l1.42.1c.17.02.27.06.27.15s-.09.18-.3.3v1.88h.6c.47-.93.62-1.37.81-2.16l1.46.52c.09.03.17.1.17.17,0,.1-.04.14-.35.24q-.09.18-.45.91c-.04.09-.11.2-.18.32.92,0,2.06-.02,2.76-.04v1.36c-.79-.03-2.07-.04-2.98-.04h-.97c.19.06.24.13.24.2,0,.09-.08.13-.33.21q-.1.2-.45.87h1.17c.69,0,1.74-.02,2.38-.04v1.27c-.65-.03-1.7-.06-2.38-.06h-2.79v.71h2.04c.69,0,1.75-.03,2.4-.04v1.26c-.64-.03-1.71-.04-2.4-.04h-2.04v.73h3.38c.69,0,1.74-.01,2.38-.04v1.28c-.65-.03-1.7-.04-2.38-.04h-2.22c1.38.97,2.93,1.57,5.31,2.1-.35.55-.42.72-.67,1.37-1.5-.38-2.54-.78-3.79-1.46-.79-.45-1.25-.77-2-1.47v.75Zm.22-6.25c.2-.42.39-.84.53-1.28h-3.04c.29.39.51.83.69,1.28h1.83Z"/>
      </g>
      <g>
        <path class="cls-3" d="m169.68,176.12c.42.44.92.79,1.56,1.14,1.08.57,2.27.92,4.42,1.29-.33.42-.46.62-.54.77q-.24.48-.35.64c-2.16-.45-3.49-.96-4.68-1.75-.78-.53-1.33-1.05-1.8-1.74-.15.27-.3.51-.48.74-1.14,1.42-3.14,2.46-5.75,2.96-.23-.63-.33-.83-.66-1.32,2.13-.42,3.74-1.04,4.62-1.77.31-.27.58-.57.83-.95h-2.39c-.75,0-2.05.03-2.7.06v-1.5c.61.01,1.92.04,2.7.04h2.97c.07-.27.12-.54.16-.83h-2.17c-.49,0-1.35.01-1.8.03v-1.41c.45.01,1.21.03,1.8.03h2.33c.01-.24.01-.48.03-.72h-2.45c-.63,0-1.47.02-2.1.03v-1.41c.58.03,1.44.04,2.1.04h2.45c-.02-.67-.03-1.14-.06-1.54l1.5.17c.2.02.32.11.32.21,0,.09-.09.17-.32.25v.92h2.42c.62,0,1.58-.01,2.1-.04v1.41c-.55-.01-1.51-.03-2.1-.03h-2.42v.15c0,.2,0,.39-.01.57h2.35c.57,0,1.35-.02,1.8-.03v1.41c-.46-.02-1.3-.03-1.8-.03h-2.47c-.03.27-.09.55-.15.83h3.62c.83,0,2.01-.03,2.68-.04v1.5c-.7-.03-1.89-.06-2.68-.06h-2.88Zm-1.91-8.95c0-.41,0-.74-.01-.96l1.51.1c.17.01.27.06.27.15s-.08.18-.29.3v.84h2.82c1.02,0,2.19-.03,2.97-.08-.03.54-.03.83-.03,1.16v.39c0,.33.01.72.04,1.16h-1.56c.03-.38.04-.86.04-1.16v-.19h-10.16v.19c0,.3.02.78.05,1.16h-1.56c.03-.44.04-.83.04-1.16v-.39c0-.33,0-.6-.03-1.16.78.04,1.95.08,2.98.08h2.89v-.43Z"/>
        <path class="cls-3" d="m183.63,170.96c-.2,2.13-.55,3.5-1.14,4.67-.75,1.46-1.79,2.52-3.41,3.48-.48.28-.79.46-1.6.87l-.15-.27c-.29-.54-.36-.66-.78-1.12,3.63-1.65,5.05-3.41,5.47-7.59l-2.11.04c-1.47.03-1.71.03-2.7.08l-.03-1.54c.23.01,1.12.03,2.69.03l2.26-.03.04-2.1c0-.36,0-.81-.03-1.12l1.71.13c.25.01.41.11.41.25,0,.13-.11.23-.45.42-.01.88-.04,1.67-.09,2.38l4.42-.07.24-.29,1.11.88c.15.1.18.18.18.27,0,.12-.03.17-.33.3-.02.82-.03,1.2-.03,1.77-.03,4.12-.3,5.8-1.08,6.58-.64.64-1.23.76-3.88.78-.1-.76-.21-1.12-.46-1.69h.27c.39.03.8.03,1.23.03,1.26,0,1.6-.14,1.89-.75.35-.75.48-2.55.53-6.48l-4.17.09Z"/>
        <path class="cls-3" d="m195.12,172.28c.73.5,1.33.97,1.96,1.61l-.86,1.33c-.31-.42-.72-.87-1.11-1.25v1.81c0,1.96.03,3.42.08,4.38h-1.56c.04-.97.08-2.44.08-4.38v-1.33c-.09.24-.17.46-.29.74-.4.99-.71,1.56-1.27,2.46-.44-.86-.57-1.09-.87-1.47,1.02-1.5,1.69-3.2,2.21-5.45h-.75c-.41,0-.89.01-1.2.03v-1.42c.33.01.87.03,1.2.03h.97c-.01-1.66-.04-2.7-.09-3.07l1.58.12c.13,0,.22.06.22.15,0,.08-.08.17-.27.29-.02.43-.02.51-.03,2.52h.84c.33,0,.87-.01,1.2-.03v1.42c-.32-.02-.79-.03-1.2-.03h-.84v1.54Zm4.2,7.62h-1.47c.03-.6.04-1.47.04-2.64v-7.71c0-.9-.03-1.91-.04-2.38.27.03.53.03.88.03h5.17c.35,0,.6,0,.89-.03q-.03.49-.04,2.38v7.54c0,1.19.01,2.07.04,2.62h-1.49v-.71h-3.99v.89Zm3.99-9.27v-2.06h-3.99v2.06h3.99Zm-3.99,3.54h3.99v-2.16h-3.99v2.16Zm0,3.46h3.99v-2.08h-3.99v2.08Z"/>
        <path class="cls-3" d="m217.14,167.95c.93,0,2.22-.01,3-.06v1.47c-.78-.04-2.13-.06-3-.06h-8.37v3.61c0,3-.51,5.04-1.71,6.92-.42-.67-.48-.78-.9-1.26.78-1.37,1.12-3.11,1.12-5.76v-3.55c0-.47-.01-1.04-.04-1.32.51.01,1,.01,1.65.01h3.87v-.81c0-.42-.01-.75-.03-.98l1.54.11c.18.01.27.06.27.15,0,.1-.08.19-.3.3v1.23h2.89Zm-6,6.01c.09.03.15.09.15.17,0,.09-.04.14-.25.2-.41,2.19-.58,2.77-1.31,4.18-.61-.54-.69-.6-1.18-.85.71-1.35,1-2.43,1.18-4.09l1.41.4Zm2.12-2.01c.13,0,.24.09.24.18,0,.1-.09.18-.32.27-.01.2-.03.41-.03.64v4.65c0,.36.08.46.35.52.18.03.87.09,1.2.09,1.98,0,2.06-.08,2.06-2.28.73.21.99.27,1.44.34-.04,1.95-.24,2.61-.87,2.96-.52.3-1.06.38-2.94.38-2.26,0-2.67-.27-2.67-1.77v-4.74c0-.79-.01-1.16-.04-1.38l1.59.13Zm.51-2.38c1.11.76,1.83,1.44,2.78,2.61l-1.12.97c-.86-1.23-1.42-1.83-2.5-2.7l.85-.88Zm4.14,3.51c1.31,1.25,2.17,2.45,2.85,3.96l-1.26.87c-.66-1.53-1.41-2.71-2.55-4l.96-.83Z"/>
        <path class="cls-3" d="m229.38,166.64c.21.08.3.15.3.24,0,.12,0,.13-.36.22.77,1.19,1.43,1.93,2.37,2.68,1.11.9,2.31,1.56,4,2.25q-.54.65-.92,1.43c-1.93-.93-2.65-1.37-3.87-2.37-1.12-.93-1.53-1.37-2.46-2.83-.74,1.12-1.29,1.77-2.24,2.64-1.2,1.12-2.13,1.79-4.09,2.92-.34-.71-.5-.95-.88-1.41,1.74-.9,2.75-1.59,3.92-2.67,1.17-1.06,1.84-1.92,2.85-3.6l1.38.5Zm-1.46,5.54c0-.69,0-.87-.03-1.4l1.61.11c.17.01.27.06.27.15s-.09.18-.29.3v2.45h2.13c.57,0,1.33-.01,1.79-.03v1.47c-.45-.03-1.29-.05-1.79-.05h-2.13v3.17h2.71c.95,0,2.22-.03,2.99-.06v1.54c-.79-.03-2.07-.04-2.99-.04h-7.39c-.82,0-2.17.01-2.98.04v-1.54c.64.03,1.71.04,2.55.06v-3.45c0-.69,0-.87-.03-1.38l1.58.09c.17.01.27.08.27.15,0,.09-.09.18-.3.3v4.29h2.04v-6.16Z"/>
        <path class="cls-3" d="m244.12,177.52c0,1.14.01,2.1.04,2.64h-1.47c.03-.58.04-1.42.04-2.64v-.8c-.87.77-1.44,1.16-2.4,1.68-1.14.61-1.92.93-3.43,1.39-.25-.67-.29-.75-.63-1.32,2.26-.6,3.84-1.29,5.17-2.25h-1.91c-.78,0-1.75.01-2.38.04v-1.28c.63.03,1.6.04,2.38.04h3.2v-.73h-1.92c-.77,0-1.75.01-2.38.04v-1.26c.63.01,1.62.04,2.38.04h1.92v-.71h-2.66c-.78,0-1.77.03-2.4.06v-1.27c.63.03,1.62.04,2.4.04h.92c-.18-.45-.41-.87-.66-1.28h-.62c-.82,0-2.17.01-2.98.04v-1.36c.67.03,1.77.04,2.61.04-.3-.5-.53-.78-1.1-1.41l1.02-.79c.84.79,1.05,1.04,1.6,1.93l-.42.27h1.11v-1.47l-.02-.96,1.41.11c.18.01.29.06.29.15s-.09.18-.3.3v1.88h1.09v-1.47c0-.4,0-.73-.01-.96l1.42.11c.17.01.27.06.27.15s-.09.18-.3.3v1.88h.6c.47-.93.62-1.37.81-2.16l1.46.52c.09.03.17.11.17.17,0,.11-.04.14-.35.24q-.09.18-.45.92c-.04.09-.11.2-.18.32.92,0,2.06-.02,2.76-.04v1.36c-.79-.03-2.07-.04-2.98-.04h-.97c.19.06.24.13.24.2,0,.09-.08.13-.33.21q-.1.2-.45.87h1.17c.69,0,1.74-.02,2.38-.04v1.27c-.65-.03-1.7-.06-2.38-.06h-2.79v.71h2.04c.69,0,1.75-.03,2.4-.04v1.26c-.64-.03-1.71-.04-2.4-.04h-2.04v.73h3.38c.69,0,1.74-.01,2.38-.04v1.28c-.65-.03-1.7-.04-2.38-.04h-2.22c1.38.97,2.93,1.57,5.31,2.1-.35.55-.42.72-.68,1.37-1.5-.38-2.53-.78-3.79-1.46-.79-.45-1.25-.77-2-1.47v.75Zm.22-6.25c.2-.42.39-.84.53-1.28h-3.04c.29.39.51.83.69,1.28h1.83Z"/>
      </g>
      <g>
        <path class="cls-3" d="m51.51,196.26c-.81,0-2.35.03-2.98.06v-1.48c.61.03,2.14.06,2.98.06h1.35c.45-.88.87-1.77,1.2-2.7l1.58.6c.1.03.18.12.18.19,0,.12-.12.18-.42.23-.3.58-.6,1.14-.88,1.68h4.54c.95,0,2.22-.03,2.98-.06v1.48c-.79-.03-2.07-.06-2.98-.06h-.15c-.38,1.15-.84,2.29-1.6,3.25,1.23.54,2.38,1.21,3.5,1.96l-.95,1.39c-1.16-.85-2.37-1.63-3.66-2.25-1.39,1.12-3.3,1.8-6.57,2.37-.09-.6-.25-1.02-.57-1.5,2.64-.36,4.33-.83,5.54-1.54-.83-.3-1.68-.55-2.54-.78-.13.22-.29.43-.42.66l-1.39-.67c.69-.93,1.3-1.9,1.89-2.89h-.62Zm3-6.27c0-.41,0-.74-.01-.96l1.57.1c.18.01.29.08.29.17,0,.08-.09.17-.3.29v1h2.64c1.04,0,2.21-.03,2.99-.06-.03.54-.03.81-.03,1.14v.94c0,.39.01.83.04,1.32h-1.56c.03-.43.04-.97.04-1.32v-.64h-9.79v.64c0,.35.02.89.04,1.32h-1.56c.03-.5.04-.93.04-1.32v-.94c0-.33,0-.6-.03-1.14.78.03,1.95.06,2.99.06h2.64v-.6Zm-.74,6.27c-.33.6-.67,1.18-1.02,1.77,1.04.27,2.07.51,3.08.88.38-.39.71-.82.96-1.3.24-.43.4-.88.57-1.35h-3.58Z"/>
        <path class="cls-3" d="m71.03,197.78h1.75c.6,0,1.58-.01,2.1-.04v1.47c-.56-.01-1.53-.04-2.1-.04h-1.75v2.07h2.7c.95,0,2.22-.03,2.98-.06v1.5c-.79-.03-2.07-.06-2.98-.06h-6.79c-.83,0-2.17.03-2.98.06v-1.5c.76.03,2.13.06,2.98.06h2.66v-2.07h-1.77c-.63,0-1.47.03-2.1.04v-1.47c.58.03,1.44.04,2.1.04h1.77v-1.81h-1.47c-.5,0-1.33.01-1.79.03v-1.17c-.71.53-1.47,1-2.37,1.53-.29-.54-.41-.72-.81-1.26,3.36-1.88,4.9-3.34,6.6-6.29l1.39.51c.2.08.3.17.3.27,0,.12-.03.17-.28.24.72,1.15,1.36,1.92,2.25,2.67,1.08.9,2.28,1.59,3.98,2.31-.42.5-.53.66-.87,1.35-.98-.5-1.63-.85-2.21-1.21v1.05c-.46-.01-1.3-.03-1.8-.03h-1.49v1.81Zm1.49-3.19c.39,0,.85,0,1.26-.02-.33-.24-.66-.5-1.04-.81-1.14-.98-1.54-1.42-2.52-3.03-.78,1.23-1.37,1.94-2.33,2.8-.39.36-.79.71-1.21,1.04.45,0,1,.02,1.44.02h4.39Z"/>
        <path class="cls-3" d="m80.21,202.4c0,.21,0,.34.01.55h-1.46q.03-.78.04-3.54v-6.54q-.01-2.85-.04-3.38c.79.03,1.96.06,2.99.06h7.09c1.02,0,2.19-.03,2.98-.06q-.03.52-.03,3.38v6.54q.01,2.76.03,3.54h-1.44c0-.21.01-.34.01-.55h-10.2Zm10.21-1.23c0-.42,0-.99.01-1.75v-8.62h-10.26v8.62c0,.77,0,1.33.01,1.75h10.23Zm-3.58-7.15c.09.2.21.38.33.55h1.11c.57,0,1.33-.01,1.79-.03v1.19c-.45-.02-1.29-.03-1.79-.03h-.06c.57.48,1.15.86,2.04,1.29-.29.33-.53.69-.75,1.11-.95-.57-1.52-1.02-2.15-1.65,0,.13,0,.34-.01,1.02v.38c0,.3.01.61.04,1.24h-1.23v-.33h-2.22v.39c0,.4.11.43,1.41.43,1.49,0,2.29-.06,2.55-.18.21-.11.29-.38.3-1.14.63.24.81.3,1.19.4-.11,1.94-.25,2.01-4.28,2.01-2.04,0-2.4-.15-2.4-1.03v-.66q-.01-.96-.04-1.2.43.01,1.77.01h1.73v-.57h-2.25c-.27,0-.72.01-.9.03v-.38c-.53.51-1.17.99-2.04,1.56-.21-.48-.41-.79-.71-1.09.98-.58,1.63-1.08,2.16-1.65h-.12c-.5,0-1.35.01-1.8.03v-1.19c.45.02,1.21.03,1.8.03h.98c.12-.18.22-.36.33-.55h-.81c-.5,0-1.33.01-1.8.03v-1.19c.39.02,1.04.03,1.58.03-.23-.55-.44-.95-.74-1.38l.95-.48c.38.47.67.95.97,1.59l-.54.27h.87c.21-.6.41-1.28.58-2.08l1.21.3c.18.04.27.12.27.23s-.11.17-.35.22c-.17.51-.3.96-.43,1.33h.79c.43-.81.64-1.32.76-1.8l1.19.41c.15.04.19.09.19.16,0,.09-.06.14-.27.23-.32.54-.45.76-.6,1h.36c.57,0,1.33-.01,1.79-.03v1.19c-.45-.02-1.29-.03-1.79-.03h-.97Zm-2.81,1.68c-.13.2-.28.39-.45.57h2.04c.52,0,1.05,0,1.56-.02-.06-.06-.12-.13-.2-.21-.1-.12-.21-.24-.3-.34h-2.66Zm.95-1.68c-.08.2-.17.38-.25.55h1.25c-.08-.18-.17-.36-.24-.55h-.75Z"/>
        <path class="cls-3" d="m101.18,189.47c.21.08.3.15.3.24,0,.12,0,.13-.36.22.77,1.19,1.43,1.93,2.37,2.68,1.11.9,2.31,1.56,4,2.25q-.54.65-.92,1.43c-1.93-.93-2.65-1.37-3.87-2.37-1.12-.93-1.53-1.37-2.46-2.83-.74,1.12-1.29,1.77-2.24,2.64-1.2,1.12-2.13,1.79-4.09,2.92-.34-.71-.5-.95-.88-1.41,1.74-.9,2.75-1.59,3.92-2.67,1.17-1.06,1.84-1.92,2.85-3.6l1.38.5Zm-1.46,5.54c0-.69,0-.87-.03-1.4l1.61.11c.17.01.27.06.27.15s-.09.18-.29.3v2.45h2.13c.57,0,1.33-.01,1.79-.03v1.47c-.45-.03-1.29-.05-1.79-.05h-2.13v3.17h2.71c.95,0,2.22-.03,2.99-.06v1.54c-.79-.03-2.07-.04-2.99-.04h-7.39c-.82,0-2.17.01-2.98.04v-1.54c.64.03,1.71.04,2.55.06v-3.45c0-.69,0-.87-.03-1.38l1.58.09c.17.01.27.08.27.15,0,.09-.09.18-.3.3v4.29h2.04v-6.16Z"/>
        <path class="cls-3" d="m115.92,200.34c0,1.14.01,2.1.04,2.64h-1.47c.03-.58.04-1.42.04-2.64v-.8c-.87.77-1.44,1.16-2.4,1.68-1.14.61-1.92.93-3.43,1.39-.25-.67-.29-.75-.63-1.32,2.26-.6,3.84-1.29,5.17-2.25h-1.91c-.78,0-1.75.01-2.38.04v-1.28c.63.03,1.6.04,2.38.04h3.2v-.73h-1.92c-.77,0-1.75.01-2.38.04v-1.26c.63.01,1.62.04,2.38.04h1.92v-.71h-2.66c-.78,0-1.77.03-2.4.06v-1.27c.63.03,1.62.04,2.4.04h.92c-.18-.45-.41-.87-.66-1.28h-.62c-.82,0-2.17.01-2.98.04v-1.36c.67.03,1.77.04,2.61.04-.3-.5-.53-.78-1.1-1.41l1.02-.79c.84.79,1.05,1.04,1.6,1.93l-.42.27h1.11v-1.47l-.02-.96,1.41.11c.18.01.29.06.29.15s-.09.18-.3.3v1.88h1.09v-1.47c0-.4,0-.73-.01-.96l1.42.11c.17.01.27.06.27.15s-.09.18-.3.3v1.88h.6c.47-.93.62-1.37.81-2.16l1.46.52c.09.03.17.11.17.17,0,.11-.04.14-.35.24q-.09.18-.45.92c-.04.09-.11.2-.18.32.92,0,2.06-.02,2.76-.04v1.36c-.79-.03-2.07-.04-2.98-.04h-.97c.19.06.24.13.24.2,0,.09-.08.13-.33.21q-.1.2-.45.87h1.17c.69,0,1.74-.02,2.38-.04v1.27c-.65-.03-1.7-.06-2.38-.06h-2.79v.71h2.04c.69,0,1.75-.03,2.4-.04v1.26c-.64-.03-1.71-.04-2.4-.04h-2.04v.73h3.38c.69,0,1.74-.01,2.38-.04v1.28c-.65-.03-1.7-.04-2.38-.04h-2.22c1.38.97,2.93,1.57,5.31,2.1-.35.55-.42.72-.68,1.37-1.5-.38-2.53-.78-3.79-1.46-.79-.45-1.25-.77-2-1.47v.75Zm.22-6.25c.2-.42.39-.84.53-1.28h-3.04c.29.39.51.83.69,1.28h1.83Z"/>
      </g>
      <g>
        <path class="cls-2" d="m81.94,123.33c-3.17,0-5.76-2.58-5.76-5.76s2.58-5.76,5.76-5.76,5.76,2.58,5.76,5.76-2.58,5.76-5.76,5.76Zm0-10.12c-2.41,0-4.36,1.96-4.36,4.36s1.96,4.36,4.36,4.36,4.36-1.96,4.36-4.36-1.96-4.36-4.36-4.36Z"/>
        <path class="cls-2" d="m85.84,174.72h-7.78c-.87,0-1.59-.68-1.66-1.54l-1.53-20.7c-2.75-.09-5.58-1.6-5.78-4.89l-1.14-15.08c0-3.47,2.71-6.32,6.05-6.4h15.87c3.35.08,6.07,2.93,6.07,6.35l-1.14,15.14c-.21,3.28-3.03,4.79-5.78,4.88l-1.51,20.7h0c-.06.86-.79,1.54-1.66,1.54Zm-10.36-23.64c.17,0,.34.06.46.18.14.12.26.33.27.51l1.58,21.31c.01.14.13.25.27.25h7.78c.14,0,.26-.11.27-.25l1.55-21.31c.01-.18.09-.34.23-.46.14-.12.35-.23.54-.22,1.76.08,4.78-.58,4.97-3.58l1.14-15.09c0-2.61-2.1-4.84-4.69-4.9h-15.84c-2.57.06-4.67,2.28-4.67,4.95l1.14,15.03c.19,3,3.21,3.66,4.97,3.58.01,0,.02,0,.03,0Zm11.32,22.05h0,0Z"/>
        <path class="cls-2" d="m88.36,152.52s-.03,0-.05,0c-.38-.03-.67-.36-.64-.75l1.28-17.28c.03-.38.37-.68.75-.64.38.03.67.36.64.75l-1.28,17.28c-.03.37-.33.65-.7.65Z"/>
        <path class="cls-2" d="m75.52,152.52c-.36,0-.67-.28-.7-.65l-1.28-17.28c-.03-.38.26-.72.64-.75.39-.03.72.26.75.64l1.28,17.28c.03.38-.26.72-.64.75-.02,0-.03,0-.05,0Z"/>
      </g>
      <path class="cls-2" d="m223.74,134.26h-40.29l20.14-34.89,20.14,34.89Zm-35.03-3.03h29.78l-14.89-25.79-14.89,25.79Z"/>
      <g>
        <rect class="cls-2" x="302.73" y="94.5" width="45.45" height="3.03" transform="translate(27.43 258.26) rotate(-45)"/>
        <rect class="cls-2" x="323.94" y="73.3" width="3.03" height="45.45" transform="translate(27.43 258.26) rotate(-45)"/>
      </g>
    </g>
  </g>
</svg>