<?xml version="1.0" encoding="UTF-8"?>
<svg id="_レイヤー_2" data-name="レイヤー 2" xmlns="http://www.w3.org/2000/svg" xmlns:xlink="http://www.w3.org/1999/xlink" viewBox="0 0 926.41 329.59">
  <defs>
    <style>
      .cls-1 {
        fill: url(#_新規グラデーションスウォッチ_1-14);
      }

      .cls-1, .cls-2, .cls-3, .cls-4, .cls-5, .cls-6, .cls-7, .cls-8, .cls-9, .cls-10, .cls-11, .cls-12, .cls-13, .cls-14, .cls-15, .cls-16, .cls-17, .cls-18, .cls-19, .cls-20, .cls-21, .cls-22 {
        stroke-width: 0px;
      }

      .cls-2 {
        fill: url(#_新規グラデーションスウォッチ_1-11);
      }

      .cls-3 {
        fill: url(#_新規グラデーションスウォッチ_1-13);
      }

      .cls-4 {
        fill: url(#_新規グラデーションスウォッチ_1-16);
      }

      .cls-5 {
        fill: url(#_新規グラデーションスウォッチ_1-10);
      }

      .cls-6 {
        fill: url(#_新規グラデーションスウォッチ_1-17);
      }

      .cls-7 {
        fill: url(#_新規グラデーションスウォッチ_1-19);
      }

      .cls-8 {
        fill: url(#_新規グラデーションスウォッチ_1-15);
      }

      .cls-9 {
        fill: url(#_新規グラデーションスウォッチ_1-18);
      }

      .cls-10 {
        fill: url(#_新規グラデーションスウォッチ_1-12);
      }

      .cls-23 {
        stroke: url(#_新規グラデーションスウォッチ_6-2);
      }

      .cls-23, .cls-24 {
        fill: none;
        stroke-dasharray: 0 0 0 2;
        stroke-linecap: round;
        stroke-miterlimit: 10;
        stroke-width: .75px;
      }

      .cls-11 {
        fill: url(#_新規グラデーションスウォッチ_1);
      }

      .cls-12 {
        fill: url(#_新規グラデーションスウォッチ_1-9);
      }

      .cls-13 {
        fill: url(#_新規グラデーションスウォッチ_1-2);
      }

      .cls-14 {
        fill: url(#_新規グラデーションスウォッチ_1-4);
      }

      .cls-15 {
        fill: url(#_新規グラデーションスウォッチ_1-3);
      }

      .cls-16 {
        fill: url(#_新規グラデーションスウォッチ_1-8);
      }

      .cls-17 {
        fill: url(#_新規グラデーションスウォッチ_1-7);
      }

      .cls-18 {
        fill: url(#_新規グラデーションスウォッチ_1-5);
      }

      .cls-19 {
        fill: url(#_新規グラデーションスウォッチ_1-6);
      }

      .cls-20 {
        fill: #231815;
      }

      .cls-21 {
        fill: #333;
      }

      .cls-22 {
        fill: #fff;
      }

      .cls-24 {
        stroke: url(#_新規グラデーションスウォッチ_6);
      }
    </style>
    <linearGradient id="_新規グラデーションスウォッチ_1" data-name="新規グラデーションスウォッチ 1" x1="0" y1="164.79" x2="275.01" y2="164.79" gradientTransform="translate(275.01 329.59) rotate(180)" gradientUnits="userSpaceOnUse">
      <stop offset="0" stop-color="#0d7695"/>
      <stop offset="0" stop-color="#0d7494"/>
      <stop offset=".18" stop-color="#105481"/>
      <stop offset=".37" stop-color="#133b73"/>
      <stop offset=".56" stop-color="#152a69"/>
      <stop offset=".76" stop-color="#161f62"/>
      <stop offset="1" stop-color="#171c61"/>
    </linearGradient>
    <linearGradient id="_新規グラデーションスウォッチ_6" data-name="新規グラデーションスウォッチ 6" x1="399" y1="83.91" x2="774.52" y2="83.91" gradientUnits="userSpaceOnUse">
      <stop offset="0" stop-color="#0d76a6"/>
      <stop offset="0" stop-color="#0d74a5"/>
      <stop offset=".18" stop-color="#10548c"/>
      <stop offset=".37" stop-color="#133b79"/>
      <stop offset=".56" stop-color="#152a6b"/>
      <stop offset=".76" stop-color="#161f63"/>
      <stop offset="1" stop-color="#171c61"/>
    </linearGradient>
    <linearGradient id="_新規グラデーションスウォッチ_1-2" data-name="新規グラデーションスウォッチ 1" x1="303.58" y1="231.1" x2="864.25" y2="231.1" gradientTransform="matrix(1,0,0,1,0,0)" xlink:href="#_新規グラデーションスウォッチ_1"/>
    <linearGradient id="_新規グラデーションスウォッチ_1-3" data-name="新規グラデーションスウォッチ 1" x1="734.58" y1="108.94" x2="812.2" y2="108.94" gradientTransform="matrix(1,0,0,1,0,0)" xlink:href="#_新規グラデーションスウォッチ_1"/>
    <linearGradient id="_新規グラデーションスウォッチ_1-4" data-name="新規グラデーションスウォッチ 1" x1="734.58" y1="108.94" x2="812.2" y2="108.94" gradientTransform="matrix(1,0,0,1,0,0)" xlink:href="#_新規グラデーションスウォッチ_1"/>
    <linearGradient id="_新規グラデーションスウォッチ_1-5" data-name="新規グラデーションスウォッチ 1" x1="734.58" y1="108.94" x2="812.2" y2="108.94" gradientTransform="matrix(1,0,0,1,0,0)" xlink:href="#_新規グラデーションスウォッチ_1"/>
    <linearGradient id="_新規グラデーションスウォッチ_1-6" data-name="新規グラデーションスウォッチ 1" x1="578.07" y1="94.84" x2="588.39" y2="94.84" gradientTransform="matrix(1,0,0,1,0,0)" xlink:href="#_新規グラデーションスウォッチ_1"/>
    <linearGradient id="_新規グラデーションスウォッチ_1-7" data-name="新規グラデーションスウォッチ 1" x1="768.98" y1="36.65" x2="779.3" y2="36.65" gradientTransform="matrix(1,0,0,1,0,0)" xlink:href="#_新規グラデーションスウォッチ_1"/>
    <linearGradient id="_新規グラデーションスウォッチ_6-2" data-name="新規グラデーションスウォッチ 6" x1="303.21" y1="131.17" x2="399.75" y2="131.17" xlink:href="#_新規グラデーションスウォッチ_6"/>
    <linearGradient id="_新規グラデーションスウォッチ_1-8" data-name="新規グラデーションスウォッチ 1" x1="394.22" y1="131.17" x2="404.54" y2="131.17" gradientTransform="matrix(1,0,0,1,0,0)" xlink:href="#_新規グラデーションスウォッチ_1"/>
    <linearGradient id="_新規グラデーションスウォッチ_1-9" data-name="新規グラデーションスウォッチ 1" x1="57.62" y1="247.82" x2="230.76" y2="247.82" gradientTransform="matrix(1,0,0,1,0,0)" xlink:href="#_新規グラデーションスウォッチ_1"/>
    <linearGradient id="_新規グラデーションスウォッチ_1-10" data-name="新規グラデーションスウォッチ 1" x1="57.62" y1="247.82" x2="230.76" y2="247.82" gradientTransform="matrix(1,0,0,1,0,0)" xlink:href="#_新規グラデーションスウォッチ_1"/>
    <linearGradient id="_新規グラデーションスウォッチ_1-11" data-name="新規グラデーションスウォッチ 1" x1="57.62" y1="247.82" x2="230.76" y2="247.82" gradientTransform="matrix(1,0,0,1,0,0)" xlink:href="#_新規グラデーションスウォッチ_1"/>
    <linearGradient id="_新規グラデーションスウォッチ_1-12" data-name="新規グラデーションスウォッチ 1" x1="57.62" y1="247.82" x2="230.76" y2="247.82" gradientTransform="matrix(1,0,0,1,0,0)" xlink:href="#_新規グラデーションスウォッチ_1"/>
    <linearGradient id="_新規グラデーションスウォッチ_1-13" data-name="新規グラデーションスウォッチ 1" x1="57.62" y1="247.82" x2="230.76" y2="247.82" gradientTransform="matrix(1,0,0,1,0,0)" xlink:href="#_新規グラデーションスウォッチ_1"/>
    <linearGradient id="_新規グラデーションスウォッチ_1-14" data-name="新規グラデーションスウォッチ 1" x1="57.62" y1="247.82" x2="230.76" y2="247.82" gradientTransform="matrix(1,0,0,1,0,0)" xlink:href="#_新規グラデーションスウォッチ_1"/>
    <linearGradient id="_新規グラデーションスウォッチ_1-15" data-name="新規グラデーションスウォッチ 1" x1="57.62" y1="247.82" x2="230.76" y2="247.82" gradientTransform="matrix(1,0,0,1,0,0)" xlink:href="#_新規グラデーションスウォッチ_1"/>
    <linearGradient id="_新規グラデーションスウォッチ_1-16" data-name="新規グラデーションスウォッチ 1" x1="57.62" y1="247.82" x2="230.76" y2="247.82" gradientTransform="matrix(1,0,0,1,0,0)" xlink:href="#_新規グラデーションスウォッチ_1"/>
    <linearGradient id="_新規グラデーションスウォッチ_1-17" data-name="新規グラデーションスウォッチ 1" x1="57.62" y1="247.82" x2="230.76" y2="247.82" gradientTransform="matrix(1,0,0,1,0,0)" xlink:href="#_新規グラデーションスウォッチ_1"/>
    <linearGradient id="_新規グラデーションスウォッチ_1-18" data-name="新規グラデーションスウォッチ 1" x1="57.62" y1="247.82" x2="230.76" y2="247.82" gradientTransform="matrix(1,0,0,1,0,0)" xlink:href="#_新規グラデーションスウォッチ_1"/>
    <linearGradient id="_新規グラデーションスウォッチ_1-19" data-name="新規グラデーションスウォッチ 1" x1="57.62" y1="247.82" x2="230.76" y2="247.82" gradientTransform="matrix(1,0,0,1,0,0)" xlink:href="#_新規グラデーションスウォッチ_1"/>
  </defs>
  <g id="_レイヤー_1-2" data-name="レイヤー 1">
    <g>
      <path class="cls-22" d="m275.01,0h639.4C921.03,0,926.41,5.38,926.41,12v305.59c0,6.62-5.38,12-12,12H275.01V0h0Z"/>
      <path class="cls-11" d="m0,0h263.01C269.63,0,275.01,5.38,275.01,12v305.59c0,6.62-5.38,12-12,12H0V0H0Z" transform="translate(275.01 329.59) rotate(-180)"/>
      <polyline class="cls-24" points="399.38 131.17 583.23 94.84 774.14 36.65"/>
      <path class="cls-13" d="m861.2,162.59h-181.71c-1.68,0-3.05,1.36-3.05,3.05v53.57c0,.84-.68,1.52-1.52,1.52h-181.86c-1.68,0-3.05,1.36-3.05,3.05v31.77c0,.84-.68,1.52-1.52,1.52h-181.86c-1.68,0-3.05,1.36-3.05,3.05v37.97c0,.84.68,1.52,1.52,1.52h557.62c.84,0,1.52-.68,1.52-1.52v-133.98h0c0-.84-.68-1.52-1.52-1.52h-1.53Z"/>
      <g>
        <path class="cls-21" d="m388.49,166.83h-3.64c-.19.29-.37.58-.59.9-.87,1.26-1.43,1.92-2.53,2.94-.29-.46-.51-.7-1.09-1.26,2.09-2.07,3.09-3.6,4.13-6.36l1.51.58c.24.1.36.2.36.29q0,.14-.48.25c-.17.42-.34.78-.49,1.12h6.9c1.02,0,2.52-.03,3.4-.07v1.67c-.88-.03-2.38-.07-3.4-.07h-2.41v2.28h2.7c.61,0,1.55-.02,2.02-.03v1.6c-.51-.03-1.46-.05-2.02-.05h-2.7v2.75h2.99c1.39,0,2.23-.02,3.38-.07v1.68c-.9-.03-2.35-.05-3.38-.05h-2.99v.53c0,1.56.02,2.72.05,3.48h-1.77c.03-.76.05-1.92.05-3.48v-.53h-4.27c-.94,0-2.46.02-3.38.05v-1.68c.73.03,1.92.05,2.87.07v-2.8q-.02-1.21-.03-1.5.46.02,1.99.03h2.82v-2.28Zm-3.18,3.79v2.75h3.18v-2.75h-3.18Z"/>
        <path class="cls-21" d="m401.81,178.98c.05-1.07.08-2.69.08-4.79-.85.37-1.39.6-3.08,1.28l-.08.19c-.07.14-.14.2-.24.2s-.19-.07-.24-.19l-.66-1.63c.37-.1.7-.19,1.02-.29v-6.51c0-1.34-.02-2.06-.05-2.55l1.72.12c.19,0,.29.07.29.17s-.08.19-.32.34v7.87c.54-.2,1.1-.42,1.65-.65v-4.22c0-2.79-.03-4.47-.1-5l1.8.12c.15,0,.25.08.25.17,0,.1-.08.19-.31.32q-.02.6-.03,4.39v5.69c0,2.23.03,3.88.08,4.96h-1.79Zm10.78-13c-.51,2.92-1.21,5.93-2.84,8.46.88,1.11,2.11,1.97,3.94,2.91-.59.54-.73.73-1.14,1.44-1.5-.83-2.79-1.87-3.79-3.01-.95,1.14-2.18,2.14-3.84,3.2-.37-.66-.54-.88-1-1.41,1.68-.99,2.84-1.94,3.83-3.18-.65-1.1-1.12-2.41-1.53-4.1-.29-1.19-.42-2.16-.59-4.11-.54.02-1.09.02-1.5.03v-1.67c.73.03,1.89.05,2.72.05h4.76l.22-.27,1.07,1.02c.08.08.14.17.14.25,0,.14-.08.22-.29.31l-.15.07Zm-5.47.19c.29,2.92.49,3.89,1.14,5.56.17.43.34.82.51,1.19,1.21-2.06,1.77-4.42,2.14-6.75h-3.79Z"/>
      </g>
      <g>
        <path class="cls-21" d="m394.74,237.36c-.22,2.7-.48,4.11-.94,5.46-.73,2.12-1.72,2.69-4.74,2.69h-.54q-.07-1.11-.22-1.9c.88.07.9.07,1.26.07,1.17,0,1.73-.2,2.14-.77.63-.92,1.02-2.55,1.26-5.27h-4.45c-.03.2-.07.39-.1.61-.44,2.38-1.72,4.45-3.62,5.93-.82.61-1.48,1-2.77,1.56-.25-.63-.48-1.04-.87-1.53,2.46-1.19,3.5-2.02,4.47-3.67,1.09-1.8,1.43-3.45,1.5-7.29h-2.06c-.93,0-2.46.03-3.4.07v-1.7c.88.05,2.41.07,3.4.07h8.52c1.07,0,2.52-.02,3.38-.07v1.7c-.9-.03-2.35-.07-3.38-.07h-4.72c-.03.95-.07,1.9-.15,2.86h4.91l.29-.32,1.16,1.04c.12.1.15.15.15.24,0,.1-.09.17-.29.24l-.17.07Z"/>
        <path class="cls-21" d="m401.23,241.9q.02,3.28.05,4h-1.85q.02-.71.05-3.31v-7.94q-.02-2.8-.05-3.31c.9.03,2.23.07,3.38.07h7c1.16,0,2.5-.03,3.38-.07q-.02.51-.03,3.31v6.7c0,.37.02,1.46.05,2.18v.25c0,1.02-.25,1.5-.93,1.82-.49.2-1.14.27-2.82.27-.05-1.04-.07-1.17-.32-1.96.75.05,1.14.07,1.65.07.54,0,.63-.1.63-.71v-3.89h-10.18v2.53Zm0-8.89v4.76h4.15v-4.76h-4.15Zm5.9,4.76h4.28v-4.76h-4.28v4.76Z"/>
      </g>
      <g>
        <g>
          <path class="cls-21" d="m359.64,195.12c.26-5.29,3.91-8.34,10.02-8.34,3.01,0,5.33.77,6.97,2.37,1.55,1.5,2.49,3.78,2.49,6.11,0,3.44-1.68,5.8-5.16,7.27,4,1.25,5.89,3.78,5.89,7.91,0,3.18-1.33,6.11-3.66,7.96-1.89,1.46-4.3,2.19-7.35,2.19-6.62,0-10.54-3.18-10.58-8.73h4.56c.09,2.79,2.19,4.34,6.02,4.34s5.93-2.11,5.93-5.68c0-2.41-1.16-4.17-3.27-4.99-.95-.34-2.71-.56-4.69-.56l-1.03.04v-4.21c.6.04.86.04,1.25.04,4.51,0,6.97-1.85,6.97-5.2,0-2.75-1.85-4.51-4.86-4.51s-4.9,1.5-5.16,4h-4.34Z"/>
          <path class="cls-21" d="m403.98,186.82c-4.47,3.4-8.6,8.21-10.1,11.7,1.12-.47,2.49-.73,4.04-.73,5.72,0,9.67,4.51,9.67,11.09,0,6.92-4.3,11.7-10.54,11.7-6.58,0-10.92-4.9-10.92-12.38,0-8.04,4.77-16.12,12.6-21.37h5.25Zm-1.5,22.19c0-4.3-2.28-7.27-5.59-7.27s-5.63,2.97-5.63,7.27,2.37,7.27,5.72,7.27,5.5-2.92,5.5-7.27Z"/>
          <path class="cls-21" d="m436.05,203.72c0,10.58-4.26,16.9-11.35,16.9s-11.39-6.32-11.39-16.9,4.26-16.9,11.39-16.9,11.35,6.32,11.35,16.9Zm-15.52-10.28c-1.38,2.41-2.11,6.06-2.11,10.28s.73,7.87,2.11,10.28c.9,1.55,2.37,2.41,4.17,2.41s3.22-.86,4.13-2.41c1.38-2.41,2.15-6.06,2.15-10.28s-.82-8-2.15-10.28c-.95-1.59-2.37-2.41-4.13-2.41s-3.27.82-4.17,2.41Z"/>
        </g>
        <g>
          <path class="cls-20" d="m359.64,195.12c.26-5.29,3.91-8.34,10.02-8.34,3.01,0,5.33.77,6.97,2.37,1.55,1.5,2.49,3.78,2.49,6.11,0,3.44-1.68,5.8-5.16,7.27,4,1.25,5.89,3.78,5.89,7.91,0,3.18-1.33,6.11-3.66,7.96-1.89,1.46-4.3,2.19-7.35,2.19-6.62,0-10.54-3.18-10.58-8.73h4.56c.09,2.79,2.19,4.34,6.02,4.34s5.93-2.11,5.93-5.68c0-2.41-1.16-4.17-3.27-4.99-.95-.34-2.71-.56-4.69-.56l-1.03.04v-4.21c.6.04.86.04,1.25.04,4.51,0,6.97-1.85,6.97-5.2,0-2.75-1.85-4.51-4.86-4.51s-4.9,1.5-5.16,4h-4.34Z"/>
          <path class="cls-20" d="m403.98,186.82c-4.47,3.4-8.6,8.21-10.1,11.7,1.12-.47,2.49-.73,4.04-.73,5.72,0,9.67,4.51,9.67,11.09,0,6.92-4.3,11.7-10.54,11.7-6.58,0-10.92-4.9-10.92-12.38,0-8.04,4.77-16.12,12.6-21.37h5.25Zm-1.5,22.19c0-4.3-2.28-7.27-5.59-7.27s-5.63,2.97-5.63,7.27,2.37,7.27,5.72,7.27,5.5-2.92,5.5-7.27Z"/>
          <path class="cls-20" d="m436.05,203.72c0,10.58-4.26,16.9-11.35,16.9s-11.39-6.32-11.39-16.9,4.26-16.9,11.39-16.9,11.35,6.32,11.35,16.9Zm-15.52-10.28c-1.38,2.41-2.11,6.06-2.11,10.28s.73,7.87,2.11,10.28c.9,1.55,2.37,2.41,4.17,2.41s3.22-.86,4.13-2.41c1.38-2.41,2.15-6.06,2.15-10.28s-.82-8-2.15-10.28c-.95-1.59-2.37-2.41-4.13-2.41s-3.27.82-4.17,2.41Z"/>
        </g>
        <g>
          <path class="cls-21" d="m359.64,195.12c.26-5.29,3.91-8.34,10.02-8.34,3.01,0,5.33.77,6.97,2.37,1.55,1.5,2.49,3.78,2.49,6.11,0,3.44-1.68,5.8-5.16,7.27,4,1.25,5.89,3.78,5.89,7.91,0,3.18-1.33,6.11-3.66,7.96-1.89,1.46-4.3,2.19-7.35,2.19-6.62,0-10.54-3.18-10.58-8.73h4.56c.09,2.79,2.19,4.34,6.02,4.34s5.93-2.11,5.93-5.68c0-2.41-1.16-4.17-3.27-4.99-.95-.34-2.71-.56-4.69-.56l-1.03.04v-4.21c.6.04.86.04,1.25.04,4.51,0,6.97-1.85,6.97-5.2,0-2.75-1.85-4.51-4.86-4.51s-4.9,1.5-5.16,4h-4.34Z"/>
          <path class="cls-21" d="m403.98,186.82c-4.47,3.4-8.6,8.21-10.1,11.7,1.12-.47,2.49-.73,4.04-.73,5.72,0,9.67,4.51,9.67,11.09,0,6.92-4.3,11.7-10.54,11.7-6.58,0-10.92-4.9-10.92-12.38,0-8.04,4.77-16.12,12.6-21.37h5.25Zm-1.5,22.19c0-4.3-2.28-7.27-5.59-7.27s-5.63,2.97-5.63,7.27,2.37,7.27,5.72,7.27,5.5-2.92,5.5-7.27Z"/>
          <path class="cls-21" d="m436.05,203.72c0,10.58-4.26,16.9-11.35,16.9s-11.39-6.32-11.39-16.9,4.26-16.9,11.39-16.9,11.35,6.32,11.35,16.9Zm-15.52-10.28c-1.38,2.41-2.11,6.06-2.11,10.28s.73,7.87,2.11,10.28c.9,1.55,2.37,2.41,4.17,2.41s3.22-.86,4.13-2.41c1.38-2.41,2.15-6.06,2.15-10.28s-.82-8-2.15-10.28c-.95-1.59-2.37-2.41-4.13-2.41s-3.27.82-4.17,2.41Z"/>
        </g>
      </g>
      <g>
        <path class="cls-21" d="m575.01,130.41h-3.64c-.19.29-.37.58-.59.9-.87,1.26-1.43,1.92-2.53,2.94-.29-.46-.51-.7-1.09-1.26,2.09-2.07,3.09-3.6,4.13-6.36l1.51.58c.24.1.36.2.36.29q0,.14-.48.25c-.17.42-.34.78-.49,1.12h6.9c1.02,0,2.52-.03,3.4-.07v1.67c-.88-.03-2.38-.07-3.4-.07h-2.41v2.28h2.7c.61,0,1.55-.02,2.02-.03v1.6c-.51-.03-1.46-.05-2.02-.05h-2.7v2.75h2.99c1.39,0,2.23-.02,3.38-.07v1.68c-.9-.03-2.35-.05-3.38-.05h-2.99v.53c0,1.56.02,2.72.05,3.48h-1.77c.03-.76.05-1.92.05-3.48v-.53h-4.27c-.94,0-2.46.02-3.38.05v-1.68c.73.03,1.92.05,2.87.07v-2.8q-.02-1.21-.03-1.5.46.02,1.99.03h2.82v-2.28Zm-3.18,3.79v2.75h3.18v-2.75h-3.18Z"/>
        <path class="cls-21" d="m588.34,142.56c.05-1.07.08-2.69.08-4.79-.85.37-1.39.6-3.08,1.28l-.08.19c-.07.14-.14.2-.24.2s-.19-.07-.24-.19l-.66-1.63c.37-.1.7-.19,1.02-.29v-6.51c0-1.34-.02-2.06-.05-2.55l1.72.12c.19,0,.29.07.29.17s-.08.19-.32.34v7.87c.54-.2,1.1-.42,1.65-.65v-4.22c0-2.79-.03-4.47-.1-5l1.8.12c.15,0,.25.08.25.17,0,.1-.08.19-.31.32q-.02.6-.03,4.39v5.69c0,2.23.03,3.88.08,4.96h-1.79Zm10.78-13c-.51,2.92-1.21,5.93-2.84,8.46.88,1.11,2.11,1.97,3.94,2.91-.59.54-.73.73-1.14,1.44-1.5-.83-2.79-1.87-3.79-3.01-.95,1.14-2.18,2.14-3.84,3.2-.37-.66-.54-.88-1-1.41,1.68-.99,2.84-1.94,3.83-3.18-.65-1.1-1.12-2.41-1.53-4.1-.29-1.19-.42-2.16-.59-4.11-.54.02-1.09.02-1.5.03v-1.67c.73.03,1.89.05,2.72.05h4.76l.22-.27,1.07,1.02c.08.08.14.17.14.25,0,.14-.08.22-.29.31l-.15.07Zm-5.47.19c.29,2.92.49,3.89,1.14,5.56.17.43.34.82.51,1.19,1.21-2.06,1.77-4.42,2.14-6.75h-3.79Z"/>
      </g>
      <g>
        <path class="cls-21" d="m581.44,200.94c-.22,2.7-.48,4.11-.94,5.46-.73,2.12-1.72,2.69-4.74,2.69h-.54q-.07-1.11-.22-1.9c.88.07.9.07,1.26.07,1.17,0,1.73-.2,2.14-.77.63-.92,1.02-2.55,1.26-5.27h-4.45c-.03.2-.07.39-.1.61-.44,2.38-1.72,4.45-3.62,5.93-.82.61-1.48,1-2.77,1.56-.25-.63-.48-1.04-.87-1.53,2.46-1.19,3.5-2.02,4.47-3.67,1.09-1.8,1.43-3.45,1.5-7.29h-2.06c-.93,0-2.46.03-3.4.07v-1.7c.88.05,2.41.07,3.4.07h8.52c1.07,0,2.52-.02,3.38-.07v1.7c-.9-.03-2.35-.07-3.38-.07h-4.73c-.03.95-.07,1.9-.15,2.86h4.91l.29-.32,1.16,1.04c.12.1.15.15.15.24,0,.1-.08.17-.29.24l-.17.07Z"/>
        <path class="cls-21" d="m587.93,205.48q.02,3.28.05,4h-1.85q.02-.71.05-3.31v-7.94q-.02-2.8-.05-3.31c.9.03,2.23.07,3.38.07h7c1.16,0,2.5-.03,3.38-.07q-.02.51-.03,3.31v6.7c0,.37.02,1.46.05,2.18v.25c0,1.02-.25,1.5-.93,1.82-.49.2-1.14.27-2.82.27-.05-1.04-.07-1.17-.32-1.96.75.05,1.14.07,1.65.07.54,0,.63-.1.63-.71v-3.89h-10.18v2.53Zm0-8.89v4.76h4.15v-4.76h-4.15Zm5.9,4.76h4.28v-4.76h-4.28v4.76Z"/>
      </g>
      <g>
        <g>
          <path class="cls-21" d="m567.67,172.25v4.13h-4.69v7.57h-4.82v-7.57h-14.58v-3.91l13.89-21.63h5.5v21.41h4.69Zm-9.5-15.39l-9.67,15.39h9.67v-15.39Z"/>
          <path class="cls-21" d="m573.48,159.39c0-5.29,4.08-9.03,9.89-9.03s9.85,3.74,9.85,9.03c0,2.97-1.29,5.2-3.87,6.71,3.23,1.76,4.82,4.39,4.82,8.04,0,5.85-4.51,10.02-10.79,10.02s-10.79-4.17-10.79-10.06c0-3.66,1.55-6.23,4.86-8-2.62-1.5-3.96-3.74-3.96-6.71Zm4.21,14.75c0,3.53,2.32,5.89,5.68,5.89s5.68-2.36,5.68-5.85-2.28-5.89-5.68-5.89-5.68,2.37-5.68,5.85Zm.9-14.79c0,2.92,1.89,4.86,4.77,4.86s4.77-1.94,4.77-4.86-1.94-4.9-4.77-4.9-4.77,2.02-4.77,4.9Z"/>
          <path class="cls-21" d="m622.54,167.3c0,10.58-4.26,16.9-11.35,16.9s-11.39-6.32-11.39-16.9,4.26-16.9,11.39-16.9,11.35,6.32,11.35,16.9Zm-15.52-10.28c-1.38,2.41-2.11,6.06-2.11,10.28s.73,7.87,2.11,10.28c.9,1.55,2.37,2.41,4.17,2.41s3.22-.86,4.13-2.41c1.38-2.41,2.15-6.06,2.15-10.28s-.82-8-2.15-10.28c-.95-1.59-2.37-2.41-4.13-2.41s-3.27.82-4.17,2.41Z"/>
        </g>
        <g>
          <path class="cls-20" d="m567.67,172.25v4.13h-4.69v7.57h-4.82v-7.57h-14.58v-3.91l13.89-21.63h5.5v21.41h4.69Zm-9.5-15.39l-9.67,15.39h9.67v-15.39Z"/>
          <path class="cls-20" d="m573.48,159.39c0-5.29,4.08-9.03,9.89-9.03s9.85,3.74,9.85,9.03c0,2.97-1.29,5.2-3.87,6.71,3.23,1.76,4.82,4.39,4.82,8.04,0,5.85-4.51,10.02-10.79,10.02s-10.79-4.17-10.79-10.06c0-3.66,1.55-6.23,4.86-8-2.62-1.5-3.96-3.74-3.96-6.71Zm4.21,14.75c0,3.53,2.32,5.89,5.68,5.89s5.68-2.36,5.68-5.85-2.28-5.89-5.68-5.89-5.68,2.37-5.68,5.85Zm.9-14.79c0,2.92,1.89,4.86,4.77,4.86s4.77-1.94,4.77-4.86-1.94-4.9-4.77-4.9-4.77,2.02-4.77,4.9Z"/>
          <path class="cls-20" d="m622.54,167.3c0,10.58-4.26,16.9-11.35,16.9s-11.39-6.32-11.39-16.9,4.26-16.9,11.39-16.9,11.35,6.32,11.35,16.9Zm-15.52-10.28c-1.38,2.41-2.11,6.06-2.11,10.28s.73,7.87,2.11,10.28c.9,1.55,2.37,2.41,4.17,2.41s3.22-.86,4.13-2.41c1.38-2.41,2.15-6.06,2.15-10.28s-.82-8-2.15-10.28c-.95-1.59-2.37-2.41-4.13-2.41s-3.27.82-4.17,2.41Z"/>
        </g>
        <g>
          <path class="cls-21" d="m567.67,172.25v4.13h-4.69v7.57h-4.82v-7.57h-14.58v-3.91l13.89-21.63h5.5v21.41h4.69Zm-9.5-15.39l-9.67,15.39h9.67v-15.39Z"/>
          <path class="cls-21" d="m573.48,159.39c0-5.29,4.08-9.03,9.89-9.03s9.85,3.74,9.85,9.03c0,2.97-1.29,5.2-3.87,6.71,3.23,1.76,4.82,4.39,4.82,8.04,0,5.85-4.51,10.02-10.79,10.02s-10.79-4.17-10.79-10.06c0-3.66,1.55-6.23,4.86-8-2.62-1.5-3.96-3.74-3.96-6.71Zm4.21,14.75c0,3.53,2.32,5.89,5.68,5.89s5.68-2.36,5.68-5.85-2.28-5.89-5.68-5.89-5.68,2.37-5.68,5.85Zm.9-14.79c0,2.92,1.89,4.86,4.77,4.86s4.77-1.94,4.77-4.86-1.94-4.9-4.77-4.9-4.77,2.02-4.77,4.9Z"/>
          <path class="cls-21" d="m622.54,167.3c0,10.58-4.26,16.9-11.35,16.9s-11.39-6.32-11.39-16.9,4.26-16.9,11.39-16.9,11.35,6.32,11.35,16.9Zm-15.52-10.28c-1.38,2.41-2.11,6.06-2.11,10.28s.73,7.87,2.11,10.28c.9,1.55,2.37,2.41,4.17,2.41s3.22-.86,4.13-2.41c1.38-2.41,2.15-6.06,2.15-10.28s-.82-8-2.15-10.28c-.95-1.59-2.37-2.41-4.13-2.41s-3.27.82-4.17,2.41Z"/>
        </g>
      </g>
      <g>
        <path class="cls-21" d="m764.67,71.39h-3.64c-.19.29-.37.58-.6.9-.87,1.26-1.43,1.92-2.53,2.94-.29-.46-.51-.7-1.09-1.26,2.09-2.07,3.09-3.6,4.13-6.36l1.51.58c.24.1.36.2.36.29q0,.14-.48.25c-.17.42-.34.78-.49,1.12h6.9c1.02,0,2.52-.03,3.4-.07v1.67c-.88-.03-2.38-.07-3.4-.07h-2.41v2.28h2.7c.61,0,1.55-.02,2.02-.03v1.6c-.51-.03-1.46-.05-2.02-.05h-2.7v2.75h2.99c1.39,0,2.23-.02,3.38-.07v1.68c-.9-.03-2.35-.05-3.38-.05h-2.99v.53c0,1.56.02,2.72.05,3.48h-1.77c.03-.76.05-1.92.05-3.48v-.53h-4.27c-.94,0-2.46.02-3.38.05v-1.68c.73.03,1.92.05,2.87.07v-2.8q-.02-1.21-.03-1.5.46.02,1.99.03h2.82v-2.28Zm-3.18,3.79v2.75h3.18v-2.75h-3.18Z"/>
        <path class="cls-21" d="m778,83.55c.05-1.07.08-2.69.08-4.79-.85.37-1.39.6-3.08,1.28l-.08.19c-.07.14-.14.2-.24.2s-.19-.07-.24-.19l-.66-1.63c.37-.1.7-.19,1.02-.29v-6.51c0-1.34-.02-2.06-.05-2.55l1.72.12c.19,0,.29.07.29.17s-.08.19-.32.34v7.87c.54-.2,1.1-.42,1.65-.65v-4.22c0-2.79-.03-4.47-.1-5l1.8.12c.15,0,.25.08.25.17,0,.1-.08.19-.31.32q-.02.6-.03,4.39v5.69c0,2.23.03,3.88.08,4.96h-1.79Zm10.78-13c-.51,2.92-1.21,5.93-2.84,8.46.88,1.11,2.11,1.97,3.94,2.91-.59.54-.73.73-1.14,1.44-1.5-.83-2.79-1.87-3.79-3.01-.95,1.14-2.18,2.14-3.84,3.2-.37-.66-.54-.88-1-1.41,1.68-.99,2.84-1.94,3.83-3.18-.65-1.1-1.12-2.41-1.53-4.1-.29-1.19-.42-2.16-.59-4.11-.54.02-1.09.02-1.5.03v-1.67c.73.03,1.89.05,2.72.05h4.76l.22-.27,1.07,1.02c.08.08.14.17.14.25,0,.14-.08.22-.29.31l-.15.07Zm-5.47.19c.29,2.92.49,3.89,1.14,5.56.17.43.34.82.51,1.19,1.21-2.06,1.77-4.42,2.14-6.75h-3.79Z"/>
      </g>
      <g>
        <path class="cls-21" d="m771.1,142.58c-.22,2.7-.48,4.11-.94,5.46-.73,2.12-1.72,2.69-4.74,2.69h-.54q-.07-1.11-.22-1.9c.88.07.9.07,1.26.07,1.17,0,1.73-.2,2.14-.77.63-.92,1.02-2.55,1.26-5.27h-4.45c-.03.2-.07.39-.1.61-.44,2.38-1.72,4.45-3.62,5.93-.82.61-1.48,1-2.77,1.56-.25-.63-.48-1.04-.87-1.53,2.46-1.19,3.5-2.02,4.47-3.67,1.09-1.8,1.43-3.45,1.5-7.29h-2.06c-.93,0-2.46.03-3.4.07v-1.7c.88.05,2.41.07,3.4.07h8.52c1.07,0,2.52-.02,3.38-.07v1.7c-.9-.03-2.35-.07-3.38-.07h-4.72c-.03.95-.07,1.9-.15,2.86h4.91l.29-.32,1.16,1.04c.12.1.15.15.15.24,0,.1-.09.17-.29.24l-.17.07Z"/>
        <path class="cls-21" d="m777.59,147.12q.02,3.28.05,4h-1.85q.02-.71.05-3.31v-7.94q-.02-2.8-.05-3.31c.9.03,2.23.07,3.38.07h7c1.16,0,2.5-.03,3.38-.07q-.02.51-.03,3.31v6.7c0,.37.02,1.46.05,2.18v.25c0,1.02-.25,1.5-.93,1.82-.49.2-1.14.27-2.82.27-.05-1.04-.07-1.17-.32-1.96.75.05,1.14.07,1.65.07.54,0,.63-.1.63-.71v-3.89h-10.18v2.53Zm0-8.89v4.76h4.15v-4.76h-4.15Zm5.9,4.76h4.28v-4.76h-4.28v4.76Z"/>
      </g>
      <g>
        <g>
          <path class="cls-21" d="m739.44,117.93c.82,2.28,2.54,3.48,5.12,3.48,3.57,0,5.98-2.92,5.98-7.31,0-4.08-2.19-6.79-5.46-6.79-2.28,0-3.96.95-5.42,3.1l-4.39-.6,2.79-17.16h15.78l-.39,4.52h-11.61l-1.33,7.83c1.81-1.33,3.22-1.81,5.33-1.81,5.93,0,9.98,4.3,9.98,10.71,0,3.22-1.08,6.11-3.05,8.38-2.15,2.41-4.69,3.53-8.04,3.53-5.42,0-9.37-3.1-10.15-7.87h4.86Z"/>
          <path class="cls-21" d="m767.26,117.93c.82,2.28,2.54,3.48,5.12,3.48,3.57,0,5.98-2.92,5.98-7.31,0-4.08-2.19-6.79-5.46-6.79-2.28,0-3.96.95-5.42,3.1l-4.39-.6,2.79-17.16h15.78l-.39,4.52h-11.61l-1.33,7.83c1.81-1.33,3.22-1.81,5.33-1.81,5.93,0,9.98,4.3,9.98,10.71,0,3.22-1.08,6.11-3.05,8.38-2.15,2.41-4.69,3.53-8.04,3.53-5.42,0-9.37-3.1-10.15-7.87h4.86Z"/>
          <path class="cls-21" d="m812.2,108.94c0,10.58-4.26,16.9-11.35,16.9s-11.39-6.32-11.39-16.9,4.26-16.9,11.39-16.9,11.35,6.32,11.35,16.9Zm-15.52-10.28c-1.38,2.41-2.11,6.06-2.11,10.28s.73,7.87,2.11,10.28c.9,1.55,2.37,2.41,4.17,2.41s3.22-.86,4.13-2.41c1.38-2.41,2.15-6.06,2.15-10.28s-.82-8-2.15-10.28c-.95-1.59-2.37-2.41-4.13-2.41s-3.27.82-4.17,2.41Z"/>
        </g>
        <g>
          <path class="cls-20" d="m739.44,117.93c.82,2.28,2.54,3.48,5.12,3.48,3.57,0,5.98-2.92,5.98-7.31,0-4.08-2.19-6.79-5.46-6.79-2.28,0-3.96.95-5.42,3.1l-4.39-.6,2.79-17.16h15.78l-.39,4.52h-11.61l-1.33,7.83c1.81-1.33,3.22-1.81,5.33-1.81,5.93,0,9.98,4.3,9.98,10.71,0,3.22-1.08,6.11-3.05,8.38-2.15,2.41-4.69,3.53-8.04,3.53-5.42,0-9.37-3.1-10.15-7.87h4.86Z"/>
          <path class="cls-20" d="m767.26,117.93c.82,2.28,2.54,3.48,5.12,3.48,3.57,0,5.98-2.92,5.98-7.31,0-4.08-2.19-6.79-5.46-6.79-2.28,0-3.96.95-5.42,3.1l-4.39-.6,2.79-17.16h15.78l-.39,4.52h-11.61l-1.33,7.83c1.81-1.33,3.22-1.81,5.33-1.81,5.93,0,9.98,4.3,9.98,10.71,0,3.22-1.08,6.11-3.05,8.38-2.15,2.41-4.69,3.53-8.04,3.53-5.42,0-9.37-3.1-10.15-7.87h4.86Z"/>
          <path class="cls-20" d="m812.2,108.94c0,10.58-4.26,16.9-11.35,16.9s-11.39-6.32-11.39-16.9,4.26-16.9,11.39-16.9,11.35,6.32,11.35,16.9Zm-15.52-10.28c-1.38,2.41-2.11,6.06-2.11,10.28s.73,7.87,2.11,10.28c.9,1.55,2.37,2.41,4.17,2.41s3.22-.86,4.13-2.41c1.38-2.41,2.15-6.06,2.15-10.28s-.82-8-2.15-10.28c-.95-1.59-2.37-2.41-4.13-2.41s-3.27.82-4.17,2.41Z"/>
        </g>
        <g>
          <path class="cls-15" d="m739.44,117.93c.82,2.28,2.54,3.48,5.12,3.48,3.57,0,5.98-2.92,5.98-7.31,0-4.08-2.19-6.79-5.46-6.79-2.28,0-3.96.95-5.42,3.1l-4.39-.6,2.79-17.16h15.78l-.39,4.52h-11.61l-1.33,7.83c1.81-1.33,3.22-1.81,5.33-1.81,5.93,0,9.98,4.3,9.98,10.71,0,3.22-1.08,6.11-3.05,8.38-2.15,2.41-4.69,3.53-8.04,3.53-5.42,0-9.37-3.1-10.15-7.87h4.86Z"/>
          <path class="cls-14" d="m767.26,117.93c.82,2.28,2.54,3.48,5.12,3.48,3.57,0,5.98-2.92,5.98-7.31,0-4.08-2.19-6.79-5.46-6.79-2.28,0-3.96.95-5.42,3.1l-4.39-.6,2.79-17.16h15.78l-.39,4.52h-11.61l-1.33,7.83c1.81-1.33,3.22-1.81,5.33-1.81,5.93,0,9.98,4.3,9.98,10.71,0,3.22-1.08,6.11-3.05,8.38-2.15,2.41-4.69,3.53-8.04,3.53-5.42,0-9.37-3.1-10.15-7.87h4.86Z"/>
          <path class="cls-18" d="m812.2,108.94c0,10.58-4.26,16.9-11.35,16.9s-11.39-6.32-11.39-16.9,4.26-16.9,11.39-16.9,11.35,6.32,11.35,16.9Zm-15.52-10.28c-1.38,2.41-2.11,6.06-2.11,10.28s.73,7.87,2.11,10.28c.9,1.55,2.37,2.41,4.17,2.41s3.22-.86,4.13-2.41c1.38-2.41,2.15-6.06,2.15-10.28s-.82-8-2.15-10.28c-.95-1.59-2.37-2.41-4.13-2.41s-3.27.82-4.17,2.41Z"/>
        </g>
      </g>
      <g>
        <path class="cls-22" d="m519.82,244.22c-.7,1.79-1.33,3.23-2.07,4.76q-.24.48-.8,1.46-.1.2-.25.49v.12c0,.14-.05.24-.15.24q-.07,0-.24-.15l-1.21-1c1.09-1.53,2.21-3.76,3.43-6.75l1.29.83Zm-3.43-4.35c.87.76,1.45,1.36,2.12,2.21l-1.33,1.07c-.8-1.05-1.14-1.44-1.96-2.24l1.16-1.04Zm1.02-3.76c.83.71,1.28,1.19,2.02,2.14l-1.36,1.04c-.63-.92-.97-1.31-1.85-2.21l1.19-.97Zm4.73,4.11c2.84-.41,4.61-.83,6.75-1.65l1.19,1.16c.07.07.1.15.1.24,0,.12-.08.19-.24.19-.07,0-.15,0-.36-.02-.82.2-1.61.41-2.43.61.1.82.2,1.62.37,2.41,1.09-.68,1.38-.92,2.04-1.56l1.22,1.07c.07.07.12.15.12.24s-.05.15-.12.19c-.03.02-.1.03-.22.05q-.14.02-.24.03c-.99.59-1.53.9-2.46,1.36.17.56.36,1.07.58,1.58.65,1.51,1.39,2.5,2.8,3.74-.46.32-.87.71-1.36,1.33-1.55-1.51-2.24-2.55-2.96-4.35-.68-1.7-1.02-3.2-1.28-5.75-.2.05-.39.07-.59.12v7.11c0,1.29.02,2.38.05,2.99h-1.75c.03-.66.05-1.61.05-2.99v-6.87c-.42.07-.85.12-1.28.19v1.41c0,2.5-.1,3.4-.53,4.67-.48,1.41-1.12,2.36-2.57,3.77-.36-.59-.51-.8-1.05-1.39,1.99-1.9,2.53-3.4,2.53-7.17v-4.49c0-.51-.03-1.17-.05-1.5l1.44.41c2.91-.41,4.95-.87,6.85-1.55l1.09,1.14c.08.08.12.15.12.22,0,.14-.08.2-.25.2t-.36-.02c-3.6.9-3.77.93-7.22,1.36v1.51Z"/>
        <path class="cls-22" d="m537.83,249.24c.05-.41.03-.82.03-1.22v-4.54c0-.49-.02-1.09-.03-1.38.6.03,1.11.03,1.87.03h4.28c.75,0,1.27,0,1.87-.03-.03.29-.05.88-.05,1.38v.66c0,.56.02.93.05,1.22h-1.6v-.34h-4.84v.76h5.18c.76,0,1.28,0,1.87-.02-.02.27-.03.87-.03,1.36v.73c0,.56,0,.93.03,1.22h-1.58v-.41h-5.47v.6h-1.5c1.09.44,2.14.54,4.62.54,1.9,0,4.22-.07,5.58-.17-.22.73-.24.78-.32,1.68-2.91.05-3.32.05-5.73.05-2.19,0-3.64-.25-4.98-.88-.73-.36-1.24-.76-1.7-1.43-.56.61-1.09,1.1-1.48,1.44-.12.1-.31.27-.53.49-.08.27-.15.37-.25.37-.08,0-.17-.07-.24-.15l-.92-1.27c.9-.58,1.77-1.22,2.57-1.94v-3.69h-.68c-.44,0-1.19.02-1.6.05v-1.65c.39.03,1.11.03,1.6.03h.77q1.21,0,1.56-.03-.02.31-.03,1.51v3.91c.36.41.73.66,1.33.93l.36.15Zm-4.1-13.05c1.05.92,1.6,1.51,2.33,2.52l-1.31,1.05c-.8-1.14-.97-1.36-2.11-2.58l1.09-.99Zm5.17,3.37v.42h-1.51c.03-.31.05-.66.05-1.26v-.59c0-.49-.02-1.09-.05-1.36.59.02,1.12.02,1.87.02h1.61c0-.32.02-.66-.02-.99l1.65.1c.2.02.31.08.31.19s-.1.2-.34.34v.36h1.84c.75,0,1.28,0,1.87-.02-.03.27-.05.87-.05,1.36v.59c0,.56.02.92.05,1.22h-1.53v-.39h-2.18v.73h2.82c.78,0,1.97-.02,2.7-.05v1.44c-.73-.02-1.92-.05-2.7-.05h-6.87c-.87,0-1.99.03-2.7.05v-1.44c.71.03,1.84.05,2.7.05h2.45v-.73h-1.97Zm1.97-1.73h-1.97v.7h1.97v-.7Zm3.38,6.07v-.63h-4.84v.63h4.84Zm.63,3.04h-5.47v.65h5.47v-.65Zm-.24-8.41v-.7h-2.18v.7h2.18Z"/>
        <path class="cls-22" d="m553.29,237.85c.19.05.31.15.31.29,0,.19-.12.29-.46.41-.65,3.59-.73,4.42-.73,6.43s.22,3.38.85,5.08c-.73.22-1.16.37-1.73.65-.59-1.63-.87-3.43-.87-5.73,0-1.84.12-3.06.66-6.51.07-.41.1-.59.12-.97l1.85.36Zm3.89,7.17c-.48.63-.61.95-.61,1.33,0,.88,1,1.26,3.38,1.26,1.58,0,2.69-.14,4.03-.48-.14.82-.2,1.38-.22,2-1.11.17-2.41.26-3.69.26-1.46,0-2.62-.12-3.37-.37-1.22-.41-1.84-1.21-1.84-2.4,0-.8.24-1.36,1-2.4l1.31.8Zm-1.92-5.34c2.01-.53,3.33-.7,5.22-.7,1.05,0,1.82.05,2.94.19l-.27,1.67c-.31-.02-.54-.03-.7-.05-1.05-.08-1.55-.1-2.48-.1-1.67,0-2.55.14-4.33.7l-.37-1.7Z"/>
        <path class="cls-22" d="m580.4,239.29q.12.19.12.29c0,.14-.07.17-.54.2-1.75.12-2.74.44-3.89,1.29-1.65,1.22-2.55,2.74-2.55,4.3,0,1.46,1.14,2.57,3.04,2.96.93.19,1.77.27,3.09.29-.29.53-.42.9-.68,1.84-1.65-.1-2.57-.24-3.65-.54-2.29-.65-3.6-2.28-3.6-4.52,0-1.85.85-3.31,2.75-4.76-1.53.36-5.22,1.21-6.17,1.43-.42.08-.53.12-.85.2l-.42-1.94c1.53-.14,3.65-.48,7.58-1.22,3.33-.63,3.79-.73,4.9-1.14l.88,1.33Z"/>
        <path class="cls-22" d="m589.58,239.31c1.82-.05,2.65-.65,3.03-2.18h1.38v12.99h-1.99v-9.66h-2.41v-1.16Z"/>
        <path class="cls-22" d="m610.48,239.43h-3.64c-.19.29-.37.58-.6.9-.87,1.26-1.43,1.92-2.53,2.94-.29-.46-.51-.7-1.09-1.26,2.09-2.07,3.09-3.6,4.13-6.36l1.51.58c.24.1.36.2.36.29q0,.14-.48.25c-.17.42-.34.78-.49,1.12h6.9c1.02,0,2.52-.03,3.4-.07v1.67c-.88-.03-2.38-.07-3.4-.07h-2.41v2.28h2.7c.61,0,1.55-.02,2.02-.03v1.6c-.51-.03-1.46-.05-2.02-.05h-2.7v2.75h2.99c1.39,0,2.23-.02,3.38-.07v1.68c-.9-.03-2.35-.05-3.38-.05h-2.99v.53c0,1.56.02,2.72.05,3.48h-1.77c.03-.76.05-1.92.05-3.48v-.53h-4.27c-.94,0-2.46.02-3.38.05v-1.68c.73.03,1.92.05,2.87.07v-2.8q-.02-1.21-.03-1.5.46.02,1.99.03h2.82v-2.28Zm-3.18,3.79v2.75h3.18v-2.75h-3.18Z"/>
        <path class="cls-22" d="m623.23,243.63h-1.22v.31h-1.62c.03-.41.05-.97.05-1.82v-.42c0-.54-.02-1.19-.05-1.5.59.02,1.12.02,1.87.02h3.62c.75,0,1.28,0,1.87-.02-.03.31-.05.95-.05,1.5v.42c0,.8.02,1.38.05,1.77h-1.61v-.25h-1.31v.88h1.68c.49,0,1.21-.02,1.7-.03v1.38c-.49-.02-1.21-.03-1.7-.03h-1.68v.78h1.17c.49,0,1.21-.02,1.68-.03v1.38c-.48-.02-1.19-.03-1.68-.03h-1.17v.97c1.21-.17,2.41-.41,3.6-.68l.02,1.16c.22-.31.39-.6.61-1.02.85-1.61,1.19-3.31,1.29-6.78h-.31c-.49,0-1.21.02-1.68.03v-1.63c.46.03,1.21.05,1.68.05h.34v-.92c0-1.87-.02-2.14-.05-3.23l1.65.14c.29.03.41.1.41.22,0,.1-.02.12-.36.32v3.47h2.07l.2-.24,1.07.88c.08.07.12.15.12.24,0,.15,0,.19-.37.29-.14,7.14-.39,8.94-1.43,9.69-.37.27-.82.39-1.63.44-.48.03-.82.02-1.17.03-.08-.75-.1-.85-.34-1.78.53.03.75.03.97.03.82,0,1.02-.08,1.26-.49.46-.82.65-2.82.68-7.55h-1.46c-.05,2.07-.19,3.72-.37,4.59-.46,2.18-1.45,4.05-2.86,5.49-.41-.56-.71-.82-1.33-1.17.34-.34.58-.59.78-.83-1.55.34-4.25.78-7.43,1.26-.14.24-.24.32-.34.32-.08,0-.2-.1-.24-.2l-.51-1.5c1.17-.1,2.35-.24,3.52-.41v-1.19h-1.07c-.49,0-1.21.02-1.7.03v-1.38c.49.02,1.21.03,1.7.03h1.07v-.78h-1.58c-.49,0-1.21.02-1.7.03v-1.38c.49.02,1.21.03,1.7.03h1.58v-.88Zm1.5-6.46c0-.59-.02-1.09-.05-1.31l1.58.12c.19,0,.29.07.29.17s-.08.19-.31.32v.7h.42c.49,0,1.22-.02,1.7-.03v1.34c-.48-.02-1.21-.03-1.7-.03h-.44c0,.56.02,1.07.03,1.36h-1.56c.02-.34.03-.78.03-1.36h-1.34c0,.61.02,1.07.05,1.36h-1.58c.03-.34.05-.78.05-1.36h-.34c-.49,0-1.21.02-1.7.03v-1.34c.49.02,1.21.03,1.7.03h.34c-.02-.59-.03-1.09-.05-1.31l1.58.12c.19,0,.29.07.29.17s-.1.2-.34.32v.7h1.34Zm-2.72,4.28v.95h1.22v-.95h-1.22Zm4.13,0h-1.31v.95h1.31v-.95Z"/>
        <path class="cls-22" d="m643.05,237.78c-.37.42-.75.83-1.16,1.21-.32.31-.66.58-1,.87.15.19.31.37.44.56l-.78.58h2.21l.22-.32.97.92c.12.1.14.15.14.22,0,.14-.1.2-.36.25l-.1.02c-.15.36-.22.51-.61,1.43-.19.46-.32.71-.56,1.12-.41-.41-.76-.68-1.21-.95.24-.42.41-.76.61-1.26h-.83v4.01c0,.63.02,1.82.03,3.06v.17c0,.83-.14,1.21-.58,1.46-.48.31-1.02.37-2.65.37-.05-.7-.1-.95-.32-1.73.56.05.83.07,1.24.07.58,0,.68-.08.68-.63l-.02-3.98c-.61,1.38-1.26,2.46-2.14,3.67-.17-.46-.34-.71-.88-1.43,1.11-1.41,2.06-3.13,2.79-5.05h-1.02c-.46,0-1,0-1.36.02v-1.48c.37.02.99.03,1.36.03h1.75c-.51-.73-1.1-1.38-1.75-1.99l.97-.87c.31.25.59.49.88.76.37-.31.73-.63,1.07-.97h-2.48c-.46,0-.99,0-1.34.02v-1.39c.37.02.99.03,1.34.03h3.72l.22-.27,1,.93c.12.12.14.15.14.24,0,.14-.08.2-.31.24l-.32.05Zm4.84,9.01c-.27.8-.65,1.48-1.16,2.12-.99,1.24-2.14,1.99-4.2,2.69-.22-.61-.36-.9-.66-1.43,2.11-.75,2.87-1.24,3.72-2.4.24-.32.44-.65.61-.99h-1.27c-.49,0-1.21.02-1.68.03v-1.55c.48.02,1.19.03,1.68.03h1.78c.12-.53.2-1.12.25-1.87l1.51.27c.19.03.27.1.27.2,0,.12-.08.19-.32.27-.05.41-.1.77-.17,1.12h2.62l.24-.31.97,1c.14.14.15.15.15.22,0,.12-.08.19-.29.25l-.17.07c-.22,2.16-.59,3.52-1.12,4.15-.56.65-1.05.76-3.26.76h-.17c-.02-.68-.08-1.09-.22-1.7.59.05.83.07,1.07.07.97,0,1.26-.12,1.53-.66.24-.51.39-1.19.54-2.38h-2.26Zm2.77-7.68c-.43.9-.95,1.73-1.6,2.46.83.54,1.79.92,3.62,1.44-.31.48-.53.95-.68,1.45-1.9-.56-2.92-1.04-4.01-1.89-1.09.9-1.97,1.33-4.01,2.02-.24-.65-.39-.95-.71-1.36,1.7-.56,2.63-.99,3.57-1.67-.48-.51-.83-1.11-1.14-1.73-.32.53-.65.97-1.05,1.48-.1-.12-.19-.22-.24-.27q-.34-.39-.85-.82c1.24-1.51,1.78-2.52,2.48-4.5l1.31.53c.24.08.27.12.27.22,0,.12-.05.15-.34.25-.15.34-.29.65-.42.92h4.08c.37,0,.99,0,1.36-.02v1.5c-.36-.02-.9-.02-1.36-.02h-.27Zm-3.89,0c.31.56.66,1.1,1.14,1.56.44-.46.78-1,1.07-1.56h-2.21Z"/>
      </g>
      <g>
        <path class="cls-22" d="m379.21,272.45c-.2-.8-.61-1.82-1.04-2.57l1.43-.53c.58,1,.82,1.58,1.12,2.58l-1.48.51h2.6c.9-1.17,1.33-1.89,1.9-3.04l1.43.68c.14.07.19.12.19.2,0,.12-.08.17-.34.22-.61.9-.9,1.29-1.41,1.94h.12c1.16,0,2.5-.03,3.37-.08-.02.61-.02.93-.02,1.31v.85c0,.42.02.94.03,1.5h-1.8c.03-.51.05-1.11.05-1.5v-.61h-11v.61c0,.39.02.99.03,1.5h-1.8c.03-.56.05-1.07.05-1.5v-.85c0-.37-.02-.68-.03-1.31.82.05,2.04.08,3.13.08-.37-.7-.51-.92-1.36-2.04l1.21-.83c.48.48,1,1.17,1.62,2.16l-1.14.71h3.14Zm-.78,7.72c.2-.44.39-.9.56-1.36h-2.02v.7h-1.68c.03-.41.05-.97.05-1.8v-1.44c0-.54-.02-1.21-.05-1.51.59.03,1.12.03,1.87.03h5.51c.76,0,1.28,0,1.87-.03-.02.31-.05.97-.05,1.51v1.34c0,.8.02,1.36.05,1.77h-1.67v-.56h-2.12c-.22.46-.42.92-.68,1.36h3.74c.75,0,1.28-.02,1.87-.03-.03.31-.05.95-.05,1.5v1.8c0,.8.02,1.38.05,1.77h-1.68v-.53h-8.23v.63h-1.68c.03-.41.05-.97.05-1.8v-1.87c0-.54-.02-1.19-.05-1.5.59.02,1.12.03,1.87.03h2.48Zm5.56,1.46h-8.23v1.58h8.23v-1.58Zm-1.12-5.46h-5.9v1.24h5.9v-1.24Z"/>
        <path class="cls-22" d="m397.57,282.34c0,1.29.02,2.38.05,2.99h-1.67c.03-.66.05-1.62.05-2.99v-.9c-.99.87-1.63,1.31-2.72,1.9-1.29.7-2.18,1.05-3.89,1.58-.29-.76-.32-.85-.71-1.5,2.57-.68,4.35-1.46,5.86-2.55h-2.16c-.88,0-1.99.02-2.7.05v-1.44c.71.03,1.82.05,2.7.05h3.62v-.83h-2.18c-.87,0-1.99.02-2.7.05v-1.43c.71.02,1.84.05,2.7.05h2.18v-.8h-3.01c-.88,0-2.01.03-2.72.07v-1.45c.71.03,1.84.05,2.72.05h1.04c-.2-.51-.46-.99-.75-1.45h-.7c-.93,0-2.46.02-3.38.05v-1.55c.77.03,2.01.05,2.96.05-.34-.56-.59-.88-1.24-1.6l1.16-.9c.95.9,1.19,1.17,1.82,2.19l-.48.31h1.26v-1.67l-.02-1.09,1.6.12c.2.02.32.07.32.17s-.1.2-.34.34v2.12h1.24v-1.67c0-.46,0-.83-.02-1.09l1.61.12c.19.02.31.07.31.17s-.1.2-.34.34v2.12h.68c.53-1.05.7-1.55.92-2.45l1.65.59c.1.03.19.12.19.19,0,.12-.05.15-.39.27q-.1.2-.51,1.04c-.05.1-.12.22-.2.36,1.04,0,2.33-.02,3.13-.05v1.55c-.9-.03-2.35-.05-3.38-.05h-1.1c.22.07.27.15.27.22,0,.1-.08.15-.37.24q-.12.22-.51.99h1.33c.78,0,1.97-.02,2.7-.05v1.45c-.73-.03-1.92-.07-2.7-.07h-3.16v.8h2.31c.78,0,1.99-.03,2.72-.05v1.43c-.73-.03-1.94-.05-2.72-.05h-2.31v.83h3.83c.78,0,1.97-.02,2.7-.05v1.44c-.73-.03-1.92-.05-2.7-.05h-2.52c1.56,1.11,3.32,1.79,6.02,2.38-.39.63-.48.82-.76,1.55-1.7-.42-2.87-.88-4.3-1.65-.9-.51-1.41-.87-2.26-1.67v.85Zm.25-7.09c.22-.48.44-.95.6-1.45h-3.45c.32.44.58.93.78,1.45h2.07Z"/>
        <path class="cls-22" d="m410.8,281.37c0,1.73.02,3.13.07,3.98h-1.65c.03-.93.07-2.26.07-3.98v-.22c-.34.14-.59.22-.82.31q-1.07.39-1.6.61c-.12.25-.19.32-.29.32-.08,0-.2-.08-.24-.19l-.6-1.58c.32-.07.61-.14.88-.2v-8.74c-.24,0-.48.02-.66.02v-1.5c.49.02,1.21.03,1.7.03h2.35c.49,0,1.22-.02,1.7-.03v1.5c-.25-.02-.59-.02-.92-.02v9.69Zm-2.65-9.71v1.75h1.14v-1.75h-1.14Zm0,3.18v1.82h1.14v-1.82h-1.14Zm0,3.25v1.9c.37-.1.76-.24,1.14-.36v-1.55h-1.14Zm10.78-1.17c.02.48.03.92.07,1.33.03.56.1,1.09.19,1.6.37-.68.66-1.44.95-2.43l1.34.53c.17.07.22.12.22.22,0,.12-.03.14-.37.25-.44,1.39-.95,2.45-1.67,3.38.1.27.2.53.31.8.14.36.27.54.36.54.17,0,.37-.73.49-1.8.31.17.65.36,1.22.61-.24,1.26-.32,1.65-.49,2.19-.22.68-.53.99-.99.99-.83,0-1.46-.63-2.04-2.04-.85.83-1.8,1.43-3.55,2.28-.32-.59-.54-.87-.97-1.31.94-.37,1.63-.71,2.23-1.09h-1.26v-.34h-1.43v.87h-1.48c.02-.41.03-.97.03-1.82v-2.57c0-.54-.02-1.19-.03-1.5.37.02.71.02,1.22.02h1.94c.51,0,.85,0,1.22-.02-.02.31-.03.95-.03,1.5v2.09c0,.71.02,1.24.03,1.63.48-.32.9-.68,1.33-1.12.08-.08.15-.15.22-.24-.39-1.5-.51-3.03-.61-4.56h-3.89c-.71,0-1.67.02-2.36.03v-1.55c.36.02.82.02,1.29.02-.17-.7-.32-1.21-.54-1.85l1.02-.34h-.32l-1.02.02v-1.51c.25.02.7.03,1.02.03h.87v-1.09c0-.48-.02-.85-.03-1.09l1.56.1c.2.02.31.08.31.17,0,.1-.08.2-.32.36v1.55h1c.32,0,.76-.02,1.02-.03v1.51l-1.02-.02h-.58l1.28.32c.17.05.31.17.31.29,0,.14-.07.17-.44.25-.19.51-.36.97-.49,1.34h1.29c-.03-1.1-.05-2.36-.05-3.81,0-1.14-.03-1.79-.1-2.09l1.72.19c.19.02.27.08.27.19,0,.12-.1.22-.34.34-.02.56-.02.97-.02,2.94,0,.51.02,1.34.07,2.24h.54c.68,0,1.78-.02,2.36-.03v1.55c-.63-.02-1.72-.03-2.36-.03h-.48Zm-4.39-1.48c.24-.71.43-1.46.54-2.21h-1.9c.25.59.48,1.17.65,1.8l-1.14.41h1.85Zm.43,3.5h-1.43v.58h1.43v-.58Zm0,1.77h-1.43v.61h1.43v-.61Zm5.2-9.4c.65,1,1.02,1.77,1.34,2.63l-1.36.63c-.29-.93-.73-1.9-1.22-2.69l1.24-.58Z"/>
      </g>
      <g>
        <path class="cls-22" d="m715.02,182.38c.58,1.94,1.19,3.16,2.18,4.45,1.17,1.55,2.28,2.4,4.9,3.83-.53.46-.76.75-1.21,1.41-2.33-1.28-3.74-2.46-5.01-4.18-.78-1.05-1.31-2.06-1.75-3.38-.15.61-.34,1.14-.56,1.67-.73,1.7-1.9,3.16-3.43,4.27-.92.65-1.72,1.07-3.33,1.72-.24-.63-.39-.9-.87-1.48,2.21-.9,3.37-1.65,4.49-2.84,1.33-1.39,2.06-3.09,2.36-5.46h-2.82c-.94,0-2.46.03-3.38.07v-1.72c.87.05,2.41.07,3.38.07h2.97c.03-.75.05-1.85.07-4.25l1.75.19c.24.03.39.14.39.27,0,.12-.1.19-.39.29-.02,1.36-.07,2.52-.12,3.5h3.62c1.07,0,2.52-.02,3.38-.07v1.72c-.9-.03-2.35-.07-3.38-.07h-3.23Z"/>
        <path class="cls-22" d="m731.91,186.76c.02.66.03,1.55.07,3.03v.25c0,.94-.19,1.39-.66,1.68-.53.31-1,.36-3.09.37-.03-.76-.08-1.07-.27-1.89.71.05,1.09.07,1.6.07.63,0,.7-.07.7-.71v-2.8h-3.64c-.93,0-2.46.03-3.38.07v-1.7c.88.05,2.41.07,3.38.07h3.64v-2.07h-2.91c-.85,0-2.33.03-3.06.05v-1.67c.7.02,2.18.05,3.06.05h2.91v-2.19c-1.29.15-2.29.2-5.76.39-.14-.71-.24-1.05-.46-1.58,5.3-.12,9.18-.65,12.14-1.62l1.1,1.16q.15.14.15.2c0,.12-.08.17-.24.17-.1,0-.22,0-.34-.02-1.63.48-3.14.82-4.93,1.07v2.41h2.94c.94,0,2.29-.03,3.04-.05v1.67c-.8-.03-2.14-.05-3.04-.05h-2.94v2.07h3.64c1.07,0,2.52-.02,3.38-.07v1.7c-.9-.03-2.35-.07-3.38-.07h-3.64Z"/>
        <path class="cls-22" d="m743.08,184.14c0-1.34-.02-2.06-.05-2.55l1.77.12c.19,0,.29.07.29.17s-.08.19-.32.34v7.6h2.92v-10.79h-3.69c-.83,0-2.31.03-3.04.07v-1.68c.7.03,2.18.05,3.04.05h8.24c.93,0,2.29-.02,3.04-.05v1.68c-.8-.03-2.14-.07-3.04-.07h-2.87v4.28h3.25c.36,0,.99-.02,1.36-.03v1.62c-.36-.02-.9-.03-1.36-.03h-3.25v4.96h3.18c1.07,0,2.52-.03,3.38-.07v1.68c-.9-.03-2.35-.07-3.38-.07h-8.94c-.93,0-2.46.03-3.38.07v-1.68c.73.03,1.92.05,2.86.07v-5.68Z"/>
        <path class="cls-22" d="m758.6,180.95l-1.34.02v-1.6c.37.02.99.03,1.34.03h1.11v-1.45c0-.76,0-.97-.02-1.56l1.67.1c.19.02.31.08.31.17,0,.12-.1.2-.34.34v2.4h1.05l.2-.27,1,.88c.07.07.14.19.14.27,0,.14-.05.19-.39.27-.32.7-.66,1.38-1.05,2.02-.29.48-.61.92-.95,1.38v.27c1.02.58,1.55.97,2.7,2.02l-1.14,1.36c-.68-.75-1.12-1.22-1.56-1.62v2.62c0,1.56.02,2.72.05,3.48h-1.72c.03-.76.05-1.92.05-3.48v-2.86c-.88.92-1.28,1.24-2.28,1.99-.05-.14-.1-.25-.14-.34-.08-.24-.27-.65-.54-1.22,2.4-1.85,3.6-3.18,4.66-5.24h-2.8Zm8.5,2.28h-1.46c-.56,0-1.53.03-2.04.05v-1.65c.51.03,1.38.05,2.04.05h1.46v-2.55c0-1.34-.02-2.06-.05-2.55l1.77.12c.19.02.29.07.29.17s-.08.19-.32.34l-.02,1.92v2.55h1.87c.66,0,1.53-.02,2.04-.05v1.65c-.53-.02-1.48-.05-2.04-.05h-1.87v6.94h1.82c.68,0,1.78-.02,2.38-.05v1.65c-.63-.02-1.73-.03-2.38-.03h-5.9c-.71,0-1.67.02-2.36.03v-1.65c.65.03,1.62.05,2.36.05h2.41v-6.94Z"/>
        <path class="cls-22" d="m780.92,189.72c.14.07.2.15.2.26,0,.17-.1.22-.54.25-1.83,1.04-3.3,1.53-5.78,1.95-.14-.71-.27-1.07-.65-1.56,2.41-.32,3.82-.73,5.46-1.55l1.31.65Zm-2.77-.2h-1.75c.03-.68.05-1.67.05-2.98v-2.24c0-1.02-.02-2.16-.05-2.7.68.02,1.33.03,2.28.03h6.87c.99,0,1.68-.02,2.38-.03q-.03.56-.05,2.7v2.18c0,1.36.02,2.35.05,2.99h-1.75v-.48h-8.02v.53Zm.6-8.43h-1.67c.03-.41.05-.97.05-1.8v-.78c0-.54-.02-1.19-.05-1.5.59.02,1.12.03,1.87.03h6.32c.76,0,1.29-.02,1.89-.03-.03.31-.05.95-.05,1.5v.8c0,.8.02,1.38.05,1.77h-1.68v-.41h-6.73v.42Zm7.43,1.9h-8.02v.78h8.02v-.78Zm-8.02,2.74h8.02v-.78h-8.02v.78Zm0,1.96h8.02v-.78h-8.02v.78Zm7.33-9.4h-6.73v1.14h6.73v-1.14Zm-1.44,10.76c1.82.78,3.47,1.19,6.05,1.55-.42.54-.59.87-.76,1.58-1.43-.22-1.97-.34-3.25-.73-1.48-.44-1.96-.63-3.03-1.19l.99-1.21Z"/>
        <path class="cls-22" d="m798.43,179.27c-.2-.8-.61-1.82-1.04-2.57l1.43-.53c.58,1,.82,1.58,1.12,2.58l-1.48.51h2.6c.9-1.17,1.33-1.89,1.9-3.04l1.43.68c.14.07.19.12.19.2,0,.12-.08.17-.34.22-.61.9-.9,1.29-1.41,1.94h.12c1.16,0,2.5-.03,3.37-.08-.02.61-.02.93-.02,1.31v.85c0,.42.02.94.03,1.5h-1.8c.03-.51.05-1.11.05-1.5v-.61h-11v.61c0,.39.02.99.03,1.5h-1.8c.03-.56.05-1.07.05-1.5v-.85c0-.37-.02-.68-.03-1.31.82.05,2.04.08,3.13.08-.37-.7-.51-.92-1.36-2.04l1.21-.83c.48.48,1,1.17,1.62,2.16l-1.14.71h3.14Zm-.78,7.72c.2-.44.39-.9.56-1.36h-2.02v.7h-1.68c.03-.41.05-.97.05-1.8v-1.44c0-.54-.02-1.21-.05-1.51.59.03,1.12.03,1.87.03h5.51c.76,0,1.28,0,1.87-.03-.02.31-.05.97-.05,1.51v1.34c0,.8.02,1.36.05,1.77h-1.67v-.56h-2.12c-.22.46-.42.92-.68,1.36h3.74c.75,0,1.28-.02,1.87-.03-.03.31-.05.95-.05,1.5v1.8c0,.8.02,1.38.05,1.77h-1.68v-.53h-8.23v.63h-1.68c.03-.41.05-.97.05-1.8v-1.87c0-.54-.02-1.19-.05-1.5.59.02,1.12.03,1.87.03h2.48Zm5.56,1.46h-8.23v1.58h8.23v-1.58Zm-1.12-5.46h-5.9v1.24h5.9v-1.24Z"/>
        <path class="cls-22" d="m816.79,189.16c0,1.29.02,2.38.05,2.99h-1.67c.03-.66.05-1.62.05-2.99v-.9c-.99.87-1.63,1.31-2.72,1.9-1.29.7-2.18,1.05-3.89,1.58-.29-.76-.32-.85-.71-1.5,2.57-.68,4.35-1.46,5.86-2.55h-2.16c-.88,0-1.99.02-2.7.05v-1.44c.71.03,1.82.05,2.7.05h3.62v-.83h-2.18c-.87,0-1.99.02-2.7.05v-1.43c.71.02,1.84.05,2.7.05h2.18v-.8h-3.01c-.88,0-2.01.03-2.72.07v-1.45c.71.03,1.84.05,2.72.05h1.04c-.2-.51-.46-.99-.75-1.45h-.7c-.93,0-2.46.02-3.38.05v-1.55c.77.03,2.01.05,2.96.05-.34-.56-.59-.88-1.24-1.6l1.16-.9c.95.9,1.19,1.17,1.82,2.19l-.48.31h1.26v-1.67l-.02-1.09,1.6.12c.2.02.32.07.32.17s-.1.2-.34.34v2.12h1.24v-1.67c0-.46,0-.83-.02-1.09l1.61.12c.19.02.31.07.31.17s-.1.2-.34.34v2.12h.68c.53-1.05.7-1.55.92-2.45l1.65.59c.1.03.19.12.19.19,0,.12-.05.15-.39.27q-.1.2-.51,1.04c-.05.1-.12.22-.2.36,1.04,0,2.33-.02,3.13-.05v1.55c-.9-.03-2.35-.05-3.38-.05h-1.1c.22.07.27.15.27.22,0,.1-.08.15-.37.24q-.12.22-.51.99h1.33c.78,0,1.97-.02,2.7-.05v1.45c-.73-.03-1.92-.07-2.7-.07h-3.16v.8h2.31c.78,0,1.99-.03,2.72-.05v1.43c-.73-.03-1.94-.05-2.72-.05h-2.31v.83h3.83c.78,0,1.97-.02,2.7-.05v1.44c-.73-.03-1.92-.05-2.7-.05h-2.52c1.56,1.11,3.32,1.79,6.02,2.38-.39.63-.48.82-.76,1.55-1.7-.42-2.87-.88-4.3-1.65-.9-.51-1.41-.87-2.26-1.67v.85Zm.25-7.09c.22-.48.44-.95.59-1.45h-3.45c.32.44.58.93.78,1.45h2.07Z"/>
        <path class="cls-22" d="m830.01,188.19c0,1.73.02,3.13.07,3.98h-1.65c.03-.93.07-2.26.07-3.98v-.22c-.34.14-.59.22-.82.31q-1.07.39-1.6.61c-.12.25-.19.32-.29.32-.08,0-.2-.08-.24-.19l-.6-1.58c.32-.07.61-.14.88-.2v-8.74c-.24,0-.48.02-.66.02v-1.5c.49.02,1.21.03,1.7.03h2.35c.49,0,1.22-.02,1.7-.03v1.5c-.25-.02-.59-.02-.92-.02v9.69Zm-2.65-9.71v1.75h1.14v-1.75h-1.14Zm0,3.18v1.82h1.14v-1.82h-1.14Zm0,3.25v1.9c.37-.1.76-.24,1.14-.36v-1.55h-1.14Zm10.78-1.17c.02.48.03.92.07,1.33.03.56.1,1.09.19,1.6.37-.68.66-1.44.95-2.43l1.34.53c.17.07.22.12.22.22,0,.12-.03.14-.37.25-.44,1.39-.95,2.45-1.67,3.38.1.27.2.53.31.8.14.36.27.54.36.54.17,0,.37-.73.49-1.8.31.17.65.36,1.22.61-.24,1.26-.32,1.65-.49,2.19-.22.68-.53.99-.99.99-.83,0-1.46-.63-2.04-2.04-.85.83-1.8,1.43-3.55,2.28-.32-.59-.54-.87-.97-1.31.94-.37,1.63-.71,2.23-1.09h-1.26v-.34h-1.43v.87h-1.48c.02-.41.03-.97.03-1.82v-2.57c0-.54-.02-1.19-.03-1.5.37.02.71.02,1.22.02h1.94c.51,0,.85,0,1.22-.02-.02.31-.03.95-.03,1.5v2.09c0,.71.02,1.24.03,1.63.48-.32.9-.68,1.33-1.12.08-.08.15-.15.22-.24-.39-1.5-.51-3.03-.61-4.56h-3.89c-.71,0-1.67.02-2.36.03v-1.55c.36.02.82.02,1.29.02-.17-.7-.32-1.21-.54-1.85l1.02-.34h-.32l-1.02.02v-1.51c.25.02.7.03,1.02.03h.87v-1.09c0-.48-.02-.85-.03-1.09l1.56.1c.2.02.31.08.31.17,0,.1-.08.2-.32.36v1.55h1c.32,0,.76-.02,1.02-.03v1.51l-1.02-.02h-.58l1.28.32c.17.05.31.17.31.29,0,.14-.07.17-.44.25-.19.51-.36.97-.49,1.34h1.29c-.03-1.1-.05-2.36-.05-3.81,0-1.14-.03-1.79-.1-2.09l1.72.19c.19.02.27.08.27.19,0,.12-.1.22-.34.34-.02.56-.02.97-.02,2.94,0,.51.02,1.34.07,2.24h.54c.68,0,1.78-.02,2.36-.03v1.55c-.63-.02-1.72-.03-2.36-.03h-.48Zm-4.39-1.48c.24-.71.43-1.46.54-2.21h-1.9c.25.59.48,1.17.65,1.8l-1.14.41h1.85Zm.43,3.5h-1.43v.58h1.43v-.58Zm0,1.77h-1.43v.61h1.43v-.61Zm5.2-9.4c.65,1,1.02,1.77,1.34,2.63l-1.36.63c-.29-.93-.73-1.9-1.22-2.69l1.24-.58Z"/>
      </g>
      <circle class="cls-19" cx="583.23" cy="94.84" r="5.16"/>
      <circle class="cls-17" cx="774.14" cy="36.65" r="5.16"/>
      <line class="cls-23" x1="399.38" y1="131.17" x2="303.58" y2="131.17"/>
      <circle class="cls-16" cx="399.38" cy="131.17" r="5.16"/>
      <g>
        <g>
          <g>
            <rect class="cls-22" x="38.79" y="227.36" width="210.56" height="42.54" rx="6.19" ry="6.19"/>
            <g>
              <g>
                <path class="cls-22" d="m67.72,244.65c-.38-1.97-1.49-2.98-3.3-2.98-2.58,0-4.2,2.37-4.2,6.15s1.62,6.11,4.24,6.11c2.02,0,3.19-1.3,3.42-3.84h2.25c-.23,3.88-2.18,5.98-5.58,5.98-4.22,0-6.93-3.21-6.93-8.23,0-2.88.84-5.19,2.44-6.66,1.18-1.07,2.73-1.66,4.39-1.66,1.91,0,3.53.76,4.47,2.1.59.8.86,1.68.99,3.02h-2.18Z"/>
                <path class="cls-22" d="m77.4,244.1c3.09,0,5.29,2.5,5.29,6s-2.21,5.98-5.29,5.98-5.31-2.5-5.31-5.98,2.21-6,5.31-6Zm0,10.06c1.72,0,2.88-1.64,2.88-4.05s-1.16-4.09-2.88-4.09-2.9,1.66-2.9,4.09,1.16,4.05,2.9,4.05Z"/>
                <path class="cls-22" d="m94.43,252.25c-.13.86-.55,1.74-1.11,2.44-.8.92-1.95,1.41-3.38,1.41-3.13,0-5.19-2.37-5.19-5.98s2.04-6,5.21-6c2.35,0,3.97,1.37,4.39,3.74h-2.37c-.29-1.24-.97-1.83-2.08-1.83-1.68,0-2.73,1.6-2.73,4.12,0,1.47.4,2.71,1.11,3.44.38.38.96.59,1.64.59,1.18,0,1.89-.61,2.18-1.91h2.33Z"/>
                <path class="cls-22" d="m104.03,244.42h2.86l-4.72,5.19,5.12,6.17h-3.19l-4.47-5.77v5.77h-2.35v-16.04h2.35v9.64l4.41-4.96Z"/>
                <path class="cls-22" d="m114.01,239.82c2.48,0,3.8.25,4.75.92,1.18.82,1.81,2.23,1.81,4.01,0,1.89-.73,3.34-2.06,4.09-.88.5-2.1.71-4.26.71h-1.8v6.21h-2.48v-15.96h4.05Zm.29,7.62c1.26,0,2.16-.15,2.67-.44.65-.4,1.03-1.22,1.03-2.31,0-1.01-.32-1.79-.92-2.21-.55-.38-1.39-.54-2.83-.54h-1.8v5.5h1.87Z"/>
                <path class="cls-22" d="m125.45,239.82v2.58h-2.58v-2.58h2.58Zm-.13,4.6v11.36h-2.33v-11.36h2.33Z"/>
                <path class="cls-22" d="m134.48,244.42l-.04,1.85h-2.5c-.02,1.37-.08,4.89-.08,5.14v.82c0,.8.04,1.11.23,1.34.19.23.55.38.94.38.55,0,1.11-.13,1.7-.38l-.02,1.97c-.84.34-1.51.46-2.29.46-1.22,0-2.12-.42-2.6-1.22-.29-.46-.4-.99-.4-1.97q0-.4.04-1.51l.15-5.04h-1.74l.04-1.85h1.76l.08-3.28h2.29l-.06,3.28h2.5Z"/>
                <path class="cls-22" d="m147.37,237.82l13.52,9.97-13.52,10.02v-19.99Z"/>
                <path class="cls-22" d="m177.87,241.64c-.25-.99-.76-2.25-1.28-3.17l1.76-.65c.71,1.24,1.01,1.95,1.38,3.19l-1.83.63h3.21c1.11-1.45,1.64-2.33,2.35-3.76l1.76.84c.17.08.23.15.23.25,0,.15-.11.21-.42.27-.76,1.11-1.11,1.6-1.74,2.39h.15c1.43,0,3.09-.04,4.16-.1-.02.76-.02,1.16-.02,1.62v1.05c0,.52.02,1.15.04,1.85h-2.22c.04-.63.06-1.37.06-1.85v-.76h-13.58v.76c0,.48.02,1.22.04,1.85h-2.22c.04-.69.06-1.32.06-1.85v-1.05c0-.46-.02-.84-.04-1.62,1.01.06,2.52.1,3.86.1-.46-.86-.63-1.13-1.68-2.52l1.49-1.03c.59.59,1.24,1.45,1.99,2.67l-1.41.88h3.88Zm-.97,9.53c.25-.55.48-1.11.69-1.68h-2.5v.86h-2.08c.04-.5.06-1.2.06-2.23v-1.79c0-.67-.02-1.49-.06-1.87.74.04,1.39.04,2.31.04h6.8c.94,0,1.57,0,2.31-.04-.02.38-.06,1.2-.06,1.87v1.66c0,.99.02,1.68.06,2.18h-2.06v-.69h-2.62c-.27.57-.53,1.13-.84,1.68h4.62c.92,0,1.57-.02,2.31-.04-.04.38-.06,1.18-.06,1.85v2.23c0,.99.02,1.7.06,2.18h-2.08v-.65h-10.16v.78h-2.08c.04-.5.06-1.2.06-2.22v-2.31c0-.67-.02-1.47-.06-1.85.73.02,1.39.04,2.31.04h3.07Zm6.87,1.8h-10.16v1.95h10.16v-1.95Zm-1.38-6.74h-7.29v1.53h7.29v-1.53Z"/>
                <path class="cls-22" d="m200.55,253.86c0,1.6.02,2.94.06,3.7h-2.06c.04-.82.06-2,.06-3.7v-1.11c-1.22,1.07-2.02,1.62-3.36,2.35-1.6.86-2.69,1.3-4.81,1.95-.36-.95-.4-1.05-.88-1.85,3.17-.84,5.38-1.81,7.24-3.15h-2.67c-1.09,0-2.46.02-3.34.06v-1.78c.88.04,2.25.06,3.34.06h4.47v-1.03h-2.69c-1.07,0-2.46.02-3.34.06v-1.76c.88.02,2.27.06,3.34.06h2.69v-.99h-3.72c-1.09,0-2.48.04-3.36.08v-1.78c.88.04,2.27.06,3.36.06h1.28c-.25-.63-.57-1.22-.92-1.79h-.86c-1.16,0-3.04.02-4.18.06v-1.91c.94.04,2.48.06,3.65.06-.42-.69-.73-1.09-1.53-1.97l1.43-1.11c1.18,1.11,1.47,1.45,2.25,2.71l-.59.38h1.55v-2.06l-.02-1.34,1.97.15c.25.02.4.08.4.21s-.13.25-.42.42v2.62h1.53v-2.06c0-.57,0-1.03-.02-1.34l1.99.15c.23.02.38.08.38.21s-.13.25-.42.42v2.62h.84c.65-1.3.86-1.91,1.13-3.02l2.04.74c.13.04.23.15.23.23,0,.15-.06.19-.48.34q-.13.25-.63,1.28c-.06.12-.15.27-.25.44,1.28,0,2.88-.02,3.86-.06v1.91c-1.11-.04-2.9-.06-4.18-.06h-1.36c.27.08.34.19.34.27,0,.13-.1.19-.46.29q-.15.27-.63,1.22h1.64c.97,0,2.44-.02,3.34-.06v1.78c-.9-.04-2.37-.08-3.34-.08h-3.91v.99h2.86c.97,0,2.46-.04,3.36-.06v1.76c-.9-.04-2.39-.06-3.36-.06h-2.86v1.03h4.72c.97,0,2.44-.02,3.34-.06v1.78c-.9-.04-2.37-.06-3.34-.06h-3.11c1.93,1.37,4.09,2.21,7.43,2.94-.48.78-.59,1.01-.95,1.91-2.1-.52-3.55-1.09-5.31-2.04-1.11-.63-1.74-1.07-2.79-2.06v1.05Zm.32-8.76c.27-.59.54-1.18.73-1.79h-4.26c.4.55.71,1.16.96,1.79h2.56Z"/>
                <path class="cls-22" d="m216.88,252.67c0,2.14.02,3.86.08,4.91h-2.04c.04-1.16.08-2.79.08-4.91v-.27c-.42.17-.73.27-1.01.38q-1.32.48-1.97.76c-.15.31-.23.4-.36.4-.11,0-.25-.11-.29-.23l-.74-1.95c.4-.08.76-.17,1.09-.25v-10.79c-.29,0-.59.02-.82.02v-1.85c.61.02,1.49.04,2.1.04h2.9c.61,0,1.51-.02,2.1-.04v1.85c-.32-.02-.74-.02-1.13-.02v11.97Zm-3.28-11.99v2.16h1.41v-2.16h-1.41Zm0,3.93v2.25h1.41v-2.25h-1.41Zm0,4.01v2.35c.46-.12.95-.29,1.41-.44v-1.91h-1.41Zm13.31-1.45c.02.59.04,1.13.08,1.64.04.69.13,1.34.23,1.97.46-.84.82-1.78,1.18-3l1.66.65c.21.08.27.15.27.27,0,.15-.04.17-.46.32-.54,1.72-1.18,3.02-2.06,4.18.12.34.25.65.38.99.17.44.34.67.44.67.21,0,.46-.9.61-2.23.38.21.8.44,1.51.76-.29,1.55-.4,2.04-.61,2.71-.27.84-.65,1.22-1.22,1.22-1.03,0-1.81-.78-2.52-2.52-1.05,1.03-2.23,1.76-4.39,2.81-.4-.73-.67-1.07-1.2-1.62,1.15-.46,2.02-.88,2.75-1.34h-1.55v-.42h-1.76v1.07h-1.83c.02-.5.04-1.2.04-2.25v-3.17c0-.67-.02-1.47-.04-1.85.46.02.88.02,1.51.02h2.39c.63,0,1.05,0,1.51-.02-.02.38-.04,1.18-.04,1.85v2.58c0,.88.02,1.53.04,2.02.59-.4,1.11-.84,1.64-1.39.1-.11.19-.19.27-.29-.48-1.85-.63-3.74-.76-5.63h-4.81c-.88,0-2.06.02-2.92.04v-1.91c.44.02,1.01.02,1.6.02-.21-.86-.4-1.49-.67-2.29l1.26-.42h-.4l-1.26.02v-1.87c.31.02.86.04,1.26.04h1.07v-1.34c0-.59-.02-1.05-.04-1.34l1.93.13c.25.02.38.1.38.21,0,.13-.1.25-.4.44v1.91h1.24c.4,0,.95-.02,1.26-.04v1.87l-1.26-.02h-.71l1.57.4c.21.06.38.21.38.36,0,.17-.08.21-.55.31-.23.63-.44,1.2-.61,1.66h1.6c-.04-1.36-.06-2.92-.06-4.7,0-1.41-.04-2.2-.13-2.58l2.12.23c.23.02.34.11.34.23,0,.15-.12.27-.42.42-.02.69-.02,1.2-.02,3.63,0,.63.02,1.66.08,2.77h.67c.84,0,2.2-.02,2.92-.04v1.91c-.78-.02-2.12-.04-2.92-.04h-.59Zm-5.42-1.83c.29-.88.53-1.8.67-2.73h-2.35c.31.73.59,1.45.8,2.22l-1.41.5h2.29Zm.53,4.33h-1.76v.71h1.76v-.71Zm0,2.18h-1.76v.76h1.76v-.76Zm6.42-11.61c.8,1.24,1.26,2.18,1.66,3.25l-1.68.78c-.36-1.15-.9-2.35-1.51-3.32l1.53-.71Z"/>
              </g>
              <g>
                <path class="cls-12" d="m67.72,244.65c-.38-1.97-1.49-2.98-3.3-2.98-2.58,0-4.2,2.37-4.2,6.15s1.62,6.11,4.24,6.11c2.02,0,3.19-1.3,3.42-3.84h2.25c-.23,3.88-2.18,5.98-5.58,5.98-4.22,0-6.93-3.21-6.93-8.23,0-2.88.84-5.19,2.44-6.66,1.18-1.07,2.73-1.66,4.39-1.66,1.91,0,3.53.76,4.47,2.1.59.8.86,1.68.99,3.02h-2.18Z"/>
                <path class="cls-5" d="m77.4,244.1c3.09,0,5.29,2.5,5.29,6s-2.21,5.98-5.29,5.98-5.31-2.5-5.31-5.98,2.21-6,5.31-6Zm0,10.06c1.72,0,2.88-1.64,2.88-4.05s-1.16-4.09-2.88-4.09-2.9,1.66-2.9,4.09,1.16,4.05,2.9,4.05Z"/>
                <path class="cls-2" d="m94.43,252.25c-.13.86-.55,1.74-1.11,2.44-.8.92-1.95,1.41-3.38,1.41-3.13,0-5.19-2.37-5.19-5.98s2.04-6,5.21-6c2.35,0,3.97,1.37,4.39,3.74h-2.37c-.29-1.24-.97-1.83-2.08-1.83-1.68,0-2.73,1.6-2.73,4.12,0,1.47.4,2.71,1.11,3.44.38.38.96.59,1.64.59,1.18,0,1.89-.61,2.18-1.91h2.33Z"/>
                <path class="cls-10" d="m104.03,244.42h2.86l-4.72,5.19,5.12,6.17h-3.19l-4.47-5.77v5.77h-2.35v-16.04h2.35v9.64l4.41-4.96Z"/>
                <path class="cls-3" d="m114.01,239.82c2.48,0,3.8.25,4.75.92,1.18.82,1.81,2.23,1.81,4.01,0,1.89-.73,3.34-2.06,4.09-.88.5-2.1.71-4.26.71h-1.8v6.21h-2.48v-15.96h4.05Zm.29,7.62c1.26,0,2.16-.15,2.67-.44.65-.4,1.03-1.22,1.03-2.31,0-1.01-.32-1.79-.92-2.21-.55-.38-1.39-.54-2.83-.54h-1.8v5.5h1.87Z"/>
                <path class="cls-1" d="m125.45,239.82v2.58h-2.58v-2.58h2.58Zm-.13,4.6v11.36h-2.33v-11.36h2.33Z"/>
                <path class="cls-8" d="m134.48,244.42l-.04,1.85h-2.5c-.02,1.37-.08,4.89-.08,5.14v.82c0,.8.04,1.11.23,1.34.19.23.55.38.94.38.55,0,1.11-.13,1.7-.38l-.02,1.97c-.84.34-1.51.46-2.29.46-1.22,0-2.12-.42-2.6-1.22-.29-.46-.4-.99-.4-1.97q0-.4.04-1.51l.15-5.04h-1.74l.04-1.85h1.76l.08-3.28h2.29l-.06,3.28h2.5Z"/>
                <path class="cls-4" d="m147.37,237.82l13.52,9.97-13.52,10.02v-19.99Z"/>
                <path class="cls-6" d="m177.87,241.64c-.25-.99-.76-2.25-1.28-3.17l1.76-.65c.71,1.24,1.01,1.95,1.38,3.19l-1.83.63h3.21c1.11-1.45,1.64-2.33,2.35-3.76l1.76.84c.17.08.23.15.23.25,0,.15-.11.21-.42.27-.76,1.11-1.11,1.6-1.74,2.39h.15c1.43,0,3.09-.04,4.16-.1-.02.76-.02,1.16-.02,1.62v1.05c0,.52.02,1.15.04,1.85h-2.22c.04-.63.06-1.37.06-1.85v-.76h-13.58v.76c0,.48.02,1.22.04,1.85h-2.22c.04-.69.06-1.32.06-1.85v-1.05c0-.46-.02-.84-.04-1.62,1.01.06,2.52.1,3.86.1-.46-.86-.63-1.13-1.68-2.52l1.49-1.03c.59.59,1.24,1.45,1.99,2.67l-1.41.88h3.88Zm-.97,9.53c.25-.55.48-1.11.69-1.68h-2.5v.86h-2.08c.04-.5.06-1.2.06-2.23v-1.79c0-.67-.02-1.49-.06-1.87.74.04,1.39.04,2.31.04h6.8c.94,0,1.57,0,2.31-.04-.02.38-.06,1.2-.06,1.87v1.66c0,.99.02,1.68.06,2.18h-2.06v-.69h-2.62c-.27.57-.53,1.13-.84,1.68h4.62c.92,0,1.57-.02,2.31-.04-.04.38-.06,1.18-.06,1.85v2.23c0,.99.02,1.7.06,2.18h-2.08v-.65h-10.16v.78h-2.08c.04-.5.06-1.2.06-2.22v-2.31c0-.67-.02-1.47-.06-1.85.73.02,1.39.04,2.31.04h3.07Zm6.87,1.8h-10.16v1.95h10.16v-1.95Zm-1.38-6.74h-7.29v1.53h7.29v-1.53Z"/>
                <path class="cls-9" d="m200.55,253.86c0,1.6.02,2.94.06,3.7h-2.06c.04-.82.06-2,.06-3.7v-1.11c-1.22,1.07-2.02,1.62-3.36,2.35-1.6.86-2.69,1.3-4.81,1.95-.36-.95-.4-1.05-.88-1.85,3.17-.84,5.38-1.81,7.24-3.15h-2.67c-1.09,0-2.46.02-3.34.06v-1.78c.88.04,2.25.06,3.34.06h4.47v-1.03h-2.69c-1.07,0-2.46.02-3.34.06v-1.76c.88.02,2.27.06,3.34.06h2.69v-.99h-3.72c-1.09,0-2.48.04-3.36.08v-1.78c.88.04,2.27.06,3.36.06h1.28c-.25-.63-.57-1.22-.92-1.79h-.86c-1.16,0-3.04.02-4.18.06v-1.91c.94.04,2.48.06,3.65.06-.42-.69-.73-1.09-1.53-1.97l1.43-1.11c1.18,1.11,1.47,1.45,2.25,2.71l-.59.38h1.55v-2.06l-.02-1.34,1.97.15c.25.02.4.08.4.21s-.13.25-.42.42v2.62h1.53v-2.06c0-.57,0-1.03-.02-1.34l1.99.15c.23.02.38.08.38.21s-.13.25-.42.42v2.62h.84c.65-1.3.86-1.91,1.13-3.02l2.04.74c.13.04.23.15.23.23,0,.15-.06.19-.48.34q-.13.25-.63,1.28c-.06.12-.15.27-.25.44,1.28,0,2.88-.02,3.86-.06v1.91c-1.11-.04-2.9-.06-4.18-.06h-1.36c.27.08.34.19.34.27,0,.13-.1.19-.46.29q-.15.27-.63,1.22h1.64c.97,0,2.44-.02,3.34-.06v1.78c-.9-.04-2.37-.08-3.34-.08h-3.91v.99h2.86c.97,0,2.46-.04,3.36-.06v1.76c-.9-.04-2.39-.06-3.36-.06h-2.86v1.03h4.72c.97,0,2.44-.02,3.34-.06v1.78c-.9-.04-2.37-.06-3.34-.06h-3.11c1.93,1.37,4.09,2.21,7.43,2.94-.48.78-.59,1.01-.95,1.91-2.1-.52-3.55-1.09-5.31-2.04-1.11-.63-1.74-1.07-2.79-2.06v1.05Zm.32-8.76c.27-.59.54-1.18.73-1.79h-4.26c.4.55.71,1.16.96,1.79h2.56Z"/>
                <path class="cls-7" d="m216.88,252.67c0,2.14.02,3.86.08,4.91h-2.04c.04-1.16.08-2.79.08-4.91v-.27c-.42.17-.73.27-1.01.38q-1.32.48-1.97.76c-.15.31-.23.4-.36.4-.11,0-.25-.11-.29-.23l-.74-1.95c.4-.08.76-.17,1.09-.25v-10.79c-.29,0-.59.02-.82.02v-1.85c.61.02,1.49.04,2.1.04h2.9c.61,0,1.51-.02,2.1-.04v1.85c-.32-.02-.74-.02-1.13-.02v11.97Zm-3.28-11.99v2.16h1.41v-2.16h-1.41Zm0,3.93v2.25h1.41v-2.25h-1.41Zm0,4.01v2.35c.46-.12.95-.29,1.41-.44v-1.91h-1.41Zm13.31-1.45c.02.59.04,1.13.08,1.64.04.69.13,1.34.23,1.97.46-.84.82-1.78,1.18-3l1.66.65c.21.08.27.15.27.27,0,.15-.04.17-.46.32-.54,1.72-1.18,3.02-2.06,4.18.12.34.25.65.38.99.17.44.34.67.44.67.21,0,.46-.9.61-2.23.38.21.8.44,1.51.76-.29,1.55-.4,2.04-.61,2.71-.27.84-.65,1.22-1.22,1.22-1.03,0-1.81-.78-2.52-2.52-1.05,1.03-2.23,1.76-4.39,2.81-.4-.73-.67-1.07-1.2-1.62,1.15-.46,2.02-.88,2.75-1.34h-1.55v-.42h-1.76v1.07h-1.83c.02-.5.04-1.2.04-2.25v-3.17c0-.67-.02-1.47-.04-1.85.46.02.88.02,1.51.02h2.39c.63,0,1.05,0,1.51-.02-.02.38-.04,1.18-.04,1.85v2.58c0,.88.02,1.53.04,2.02.59-.4,1.11-.84,1.64-1.39.1-.11.19-.19.27-.29-.48-1.85-.63-3.74-.76-5.63h-4.81c-.88,0-2.06.02-2.92.04v-1.91c.44.02,1.01.02,1.6.02-.21-.86-.4-1.49-.67-2.29l1.26-.42h-.4l-1.26.02v-1.87c.31.02.86.04,1.26.04h1.07v-1.34c0-.59-.02-1.05-.04-1.34l1.93.13c.25.02.38.1.38.21,0,.13-.1.25-.4.44v1.91h1.24c.4,0,.95-.02,1.26-.04v1.87l-1.26-.02h-.71l1.57.4c.21.06.38.21.38.36,0,.17-.08.21-.55.31-.23.63-.44,1.2-.61,1.66h1.6c-.04-1.36-.06-2.92-.06-4.7,0-1.41-.04-2.2-.13-2.58l2.12.23c.23.02.34.11.34.23,0,.15-.12.27-.42.42-.02.69-.02,1.2-.02,3.63,0,.63.02,1.66.08,2.77h.67c.84,0,2.2-.02,2.92-.04v1.91c-.78-.02-2.12-.04-2.92-.04h-.59Zm-5.42-1.83c.29-.88.53-1.8.67-2.73h-2.35c.31.73.59,1.45.8,2.22l-1.41.5h2.29Zm.53,4.33h-1.76v.71h1.76v-.71Zm0,2.18h-1.76v.76h1.76v-.76Zm6.42-11.61c.8,1.24,1.26,2.18,1.66,3.25l-1.68.78c-.36-1.15-.9-2.35-1.51-3.32l1.53-.71Z"/>
              </g>
            </g>
          </g>
          <g>
            <g>
              <path class="cls-22" d="m144.06,140.12c-8.17,0-14.82-6.65-14.82-14.83s6.65-14.83,14.82-14.83,14.83,6.65,14.83,14.83-6.65,14.83-14.83,14.83Zm0-26.89c-6.65,0-12.06,5.41-12.06,12.07s5.41,12.06,12.06,12.06,12.07-5.41,12.07-12.06-5.41-12.07-12.07-12.07Z"/>
              <path class="cls-22" d="m128.82,211.53c-.72,0-1.32-.55-1.37-1.28l-2.83-38.2c-.06-.76.51-1.42,1.27-1.48.76-.07,1.42.52,1.48,1.27l2.83,38.2c.06.76-.51,1.42-1.27,1.48-.03,0-.07,0-.1,0Z"/>
            </g>
            <path class="cls-22" d="m173.91,203.17s-.07,0-.11,0c-.76-.06-1.33-.72-1.27-1.48l2.8-37.04c0-6.62-5.31-12.23-11.84-12.39h-38.9c-6.49.16-11.8,5.77-11.8,12.49l2.8,36.94c.06.76-.51,1.42-1.27,1.48-.8.08-1.42-.51-1.48-1.27l-2.8-37.04c0-8.32,6.51-15.16,14.52-15.36h38.97c8.04.2,14.56,7.04,14.56,15.25l-2.81,37.15c-.06.72-.66,1.28-1.37,1.28Z"/>
            <path class="cls-22" d="m159.3,211.53s-.07,0-.1,0c-.76-.06-1.33-.72-1.27-1.48l2.83-38.2c.06-.76.75-1.34,1.48-1.27.76.06,1.33.72,1.27,1.48l-2.83,38.2c-.05.72-.66,1.28-1.37,1.28Z"/>
          </g>
        </g>
        <g>
          <g>
            <path class="cls-22" d="m57.61,64.02h-3.5c-.18.28-.36.56-.57.87-.83,1.21-1.37,1.85-2.44,2.83-.28-.44-.49-.67-1.05-1.21,2.01-2,2.98-3.47,3.98-6.12l1.46.56c.23.1.34.2.34.28q0,.13-.46.25c-.16.41-.33.75-.47,1.08h6.64c.98,0,2.42-.03,3.27-.07v1.6c-.85-.03-2.29-.07-3.27-.07h-2.32v2.19h2.6c.59,0,1.49-.02,1.95-.03v1.54c-.49-.03-1.41-.05-1.95-.05h-2.6v2.65h2.88c1.34,0,2.14-.02,3.25-.07v1.62c-.87-.03-2.26-.05-3.25-.05h-2.88v.51c0,1.5.02,2.62.05,3.35h-1.7c.03-.74.05-1.85.05-3.35v-.51h-4.11c-.9,0-2.37.02-3.26.05v-1.62c.7.03,1.85.05,2.76.07v-2.7q-.02-1.16-.03-1.44.44.02,1.91.03h2.72v-2.19Zm-3.06,3.65v2.65h3.06v-2.65h-3.06Z"/>
            <path class="cls-22" d="m54.08,92.06c.05-1.03.08-2.58.08-4.61-.82.36-1.34.57-2.96,1.23l-.08.18c-.07.13-.13.2-.23.2s-.18-.07-.23-.18l-.64-1.57c.36-.1.67-.18.98-.28v-6.26c0-1.29-.02-1.98-.05-2.45l1.65.11c.18,0,.28.07.28.16s-.08.18-.31.33v7.57c.52-.2,1.06-.41,1.59-.62v-4.06c0-2.68-.03-4.3-.1-4.81l1.73.11c.15,0,.25.08.25.16,0,.1-.08.18-.29.31q-.02.57-.03,4.22v5.48c0,2.14.03,3.73.08,4.78h-1.72Zm10.37-12.51c-.49,2.81-1.16,5.71-2.73,8.15.85,1.06,2.03,1.9,3.79,2.8-.57.52-.7.7-1.1,1.39-1.44-.8-2.68-1.8-3.65-2.9-.92,1.1-2.09,2.06-3.7,3.08-.36-.64-.52-.85-.96-1.36,1.62-.95,2.73-1.86,3.68-3.06-.62-1.06-1.08-2.32-1.47-3.94-.28-1.14-.41-2.08-.57-3.96-.52.02-1.05.02-1.44.03v-1.6c.7.03,1.82.05,2.62.05h4.58l.21-.26,1.03.98c.08.08.13.16.13.25,0,.13-.08.21-.28.29l-.15.07Zm-5.27.18c.28,2.81.47,3.75,1.1,5.35.16.41.33.79.49,1.15,1.16-1.98,1.7-4.25,2.06-6.49h-3.65Z"/>
          </g>
          <g>
            <path class="cls-22" d="m164.03,67.25c-.21,2.6-.46,3.96-.9,5.25-.7,2.04-1.65,2.58-4.56,2.58h-.52q-.07-1.06-.21-1.83c.85.07.87.07,1.21.07,1.13,0,1.67-.2,2.06-.74.61-.88.98-2.45,1.21-5.07h-4.29c-.03.2-.07.38-.1.59-.42,2.29-1.65,4.29-3.48,5.71-.79.59-1.42.97-2.67,1.51-.25-.61-.46-1-.83-1.47,2.37-1.14,3.37-1.95,4.3-3.53,1.05-1.73,1.37-3.32,1.44-7.02h-1.98c-.9,0-2.37.03-3.27.07v-1.64c.85.05,2.32.07,3.27.07h8.2c1.03,0,2.42-.02,3.25-.07v1.64c-.87-.03-2.26-.07-3.25-.07h-4.55c-.03.92-.06,1.83-.15,2.75h4.73l.28-.31,1.11,1c.12.1.15.15.15.23,0,.1-.08.16-.28.23l-.16.07Z"/>
            <path class="cls-22" d="m153.92,87.97q.02,3.16.05,3.84h-1.78q.02-.69.05-3.19v-7.64q-.02-2.7-.05-3.19c.87.03,2.14.06,3.25.06h6.74c1.11,0,2.4-.03,3.25-.06q-.02.49-.03,3.19v6.44c0,.36.02,1.41.05,2.09v.25c0,.98-.25,1.44-.9,1.75-.47.2-1.1.26-2.72.26-.05-1-.07-1.13-.31-1.88.72.05,1.1.07,1.59.07.52,0,.6-.1.6-.69v-3.75h-9.8v2.44Zm0-8.55v4.58h3.99v-4.58h-3.99Zm5.68,4.58h4.12v-4.58h-4.12v4.58Z"/>
          </g>
          <g>
            <path class="cls-22" d="m180.01,62.1v17.26c0,3.56.12,4.58.71,5.87.9,2,3.05,3.17,5.87,3.17,3.05,0,5.28-1.37,6.11-3.76.39-1.1.47-2.08.47-5.28v-17.26h4.62v17.34c0,4.46-.16,5.68-.98,7.44-1.57,3.48-5.36,5.52-10.22,5.52s-8.65-2.07-10.25-5.52c-.78-1.76-.94-2.97-.94-7.44v-17.34h4.62Z"/>
            <path class="cls-22" d="m212.77,62.1c4.62,0,7.08.47,8.84,1.72,2.19,1.53,3.37,4.15,3.37,7.48,0,3.52-1.37,6.22-3.83,7.63-1.64.94-3.91,1.33-7.95,1.33h-3.37v11.58h-4.62v-29.75h7.55Zm.55,14.21c2.35,0,4.03-.27,4.97-.82,1.21-.74,1.92-2.27,1.92-4.3,0-1.88-.59-3.33-1.72-4.11-1.02-.71-2.58-1.02-5.28-1.02h-3.37v10.25h3.48Z"/>
          </g>
          <g>
            <path class="cls-22" d="m72.23,65.45c4.44-.12,6.47-1.58,7.39-5.31h3.36v31.71h-4.86v-23.57h-5.89v-2.82Z"/>
            <path class="cls-22" d="m99.96,92.43c4.77-4.69,7.68-8.47,9.79-12.66-1.2.71-2.91,1.12-4.65,1.12-5.64,0-9.46-4.15-9.46-10.25,0-6.47,4.27-10.96,10.46-10.96s10.25,4.32,10.25,11.58c0,5.11-1.74,9.79-5.64,15.23-1.66,2.32-3.24,4.11-5.15,5.93h-5.6Zm.62-21.91c0,3.98,2.08,6.52,5.4,6.52s5.44-2.45,5.44-6.52-2.03-6.68-5.31-6.68-5.52,2.66-5.52,6.68Z"/>
            <path class="cls-22" d="m143.83,76.04c0,10.21-4.11,16.31-10.96,16.31s-11-6.1-11-16.31,4.11-16.31,11-16.31,10.96,6.1,10.96,16.31Zm-14.98-9.92c-1.33,2.32-2.03,5.85-2.03,9.92s.71,7.59,2.03,9.92c.87,1.49,2.28,2.32,4.03,2.32s3.11-.83,3.98-2.32c1.33-2.32,2.08-5.85,2.08-9.92s-.79-7.72-2.08-9.92c-.91-1.54-2.28-2.32-3.98-2.32s-3.15.79-4.03,2.32Z"/>
          </g>
        </g>
      </g>
    </g>
  </g>
</svg>