<?xml version="1.0" encoding="UTF-8"?><svg id="_レイヤー_2" xmlns="http://www.w3.org/2000/svg" xmlns:xlink="http://www.w3.org/1999/xlink" viewBox="0 0 423.92 173.26"><defs><style>.cls-1{fill:#fff;}.cls-2{fill:#333;}.cls-3{fill:#231815;}.cls-4{stroke:url(#_新規グラデーションスウォッチ_6-3);}.cls-4,.cls-5,.cls-6,.cls-7{fill:none;stroke-dasharray:0 0 .1 5;stroke-linecap:round;stroke-miterlimit:10;}.cls-5{stroke:url(#_新規グラデーションスウォッチ_6-4);}.cls-6{stroke:url(#_新規グラデーションスウォッチ_6-2);}.cls-7{stroke:url(#_新規グラデーションスウォッチ_6);}.cls-8{fill:url(#_新規グラデーションスウォッチ_1);}.cls-9{fill:url(#_新規グラデーションスウォッチ_1-6);}.cls-10{fill:url(#_新規グラデーションスウォッチ_1-5);}.cls-11{fill:url(#_新規グラデーションスウォッチ_1-2);}.cls-12{fill:url(#_新規グラデーションスウォッチ_1-4);}.cls-13{fill:url(#_新規グラデーションスウォッチ_1-3);}</style><linearGradient id="_新規グラデーションスウォッチ_6" x1=".57" y1="72.38" x2="1.57" y2="72.38" gradientUnits="userSpaceOnUse"><stop offset="0" stop-color="#0d76b4"/><stop offset="0" stop-color="#0d74b2"/><stop offset=".18" stop-color="#105495"/><stop offset=".37" stop-color="#133b7e"/><stop offset=".56" stop-color="#152a6d"/><stop offset=".76" stop-color="#161f64"/><stop offset="1" stop-color="#171c61"/></linearGradient><linearGradient id="_新規グラデーションスウォッチ_6-2" x1="2462.87" y1="-1365.16" x2="2463.87" y2="-1365.16" gradientTransform="translate(-1168.56 -2462.68) rotate(90)" xlink:href="#_新規グラデーションスウォッチ_6"/><linearGradient id="_新規グラデーションスウォッチ_6-3" x1="131.48" x2="132.48" xlink:href="#_新規グラデーションスウォッチ_6"/><linearGradient id="_新規グラデーションスウォッチ_6-4" x1="262.03" x2="263.03" xlink:href="#_新規グラデーションスウォッチ_6"/><linearGradient id="_新規グラデーションスウォッチ_1" x1="0" y1="132.75" x2="394.28" y2="132.75" gradientUnits="userSpaceOnUse"><stop offset="0" stop-color="#0d76a3"/><stop offset="0" stop-color="#0d74a2"/><stop offset=".18" stop-color="#10548a"/><stop offset=".37" stop-color="#133b78"/><stop offset=".56" stop-color="#152a6b"/><stop offset=".76" stop-color="#161f63"/><stop offset="1" stop-color="#171c61"/></linearGradient><linearGradient id="_新規グラデーションスウォッチ_1-2" x1="1567.05" y1="10.84" x2="1598.87" y2="10.84" gradientTransform="translate(1990.96) rotate(-180) scale(1 -1)" xlink:href="#_新規グラデーションスウォッチ_1"/><linearGradient id="_新規グラデーションスウォッチ_1-3" y1="73" y2="73" xlink:href="#_新規グラデーションスウォッチ_1"/><linearGradient id="_新規グラデーションスウォッチ_1-4" x1="297.75" y1="52.9" x2="362.01" y2="52.9" xlink:href="#_新規グラデーションスウォッチ_1"/><linearGradient id="_新規グラデーションスウォッチ_1-5" x1="297.75" y1="52.9" x2="362.01" y2="52.9" xlink:href="#_新規グラデーションスウォッチ_1"/><linearGradient id="_新規グラデーションスウォッチ_1-6" x1="297.75" y1="52.9" x2="362.01" y2="52.9" xlink:href="#_新規グラデーションスウォッチ_1"/></defs><g id="_レイヤー_1-2"><g><line class="cls-7" x1="1.07" y1="144.08" x2="1.07" y2=".69"/><line class="cls-6" x1="1.07" y1=".69" x2="392.13" y2=".69"/><line class="cls-4" x1="131.98" y1="144.08" x2="131.98" y2=".69"/><line class="cls-5" x1="262.53" y1="144.08" x2="262.53" y2=".69"/><polygon class="cls-8" points="0 144.42 0 173.26 394.28 173.26 394.28 92.23 264.35 92.23 264.35 118.86 133.25 118.86 133.25 144.42 0 144.42"/><g><path class="cls-11" d="M393.06,21.68c.09,0,.18-.01,.28-.04l29-8.67c.95-.28,1.58-1.14,1.58-2.13,0-.99-.64-1.84-1.58-2.12L393.33,.04c-.51-.15-1.05,.14-1.2,.65s.14,1.05,.65,1.2l29,8.67c.14,.04,.21,.13,.21,.28s-.07,.24-.21,.28l-29,8.67c-.51,.15-.8,.69-.65,1.2,.13,.42,.51,.69,.92,.69Z"/><path class="cls-13" d="M132.18,145.53H1.07c-.59,0-1.07-.48-1.07-1.07s.48-1.07,1.07-1.07H131.1v-24.49c0-.59,.48-1.07,1.07-1.07h130.03v-24.49c0-.59,.48-1.07,1.07-1.07h128.85V1.54c0-.59,.48-1.07,1.07-1.07s1.07,.48,1.07,1.07V93.35c0,.59-.48,1.07-1.07,1.07h-128.85v24.49c0,.59-.48,1.07-1.07,1.07H133.25v24.49c0,.59-.48,1.07-1.07,1.07Z"/></g><g><g><path class="cls-2" d="M59.68,80.59h-2.57c-.13,.21-.26,.41-.42,.64-.61,.89-1.01,1.36-1.79,2.07-.2-.32-.36-.49-.77-.89,1.47-1.46,2.18-2.54,2.91-4.49l1.07,.41c.17,.07,.25,.14,.25,.2q0,.1-.34,.18c-.12,.3-.24,.55-.35,.79h4.87c.72,0,1.78-.03,2.4-.05v1.18c-.62-.02-1.68-.05-2.4-.05h-1.7v1.61h1.91c.43,0,1.09-.01,1.43-.02v1.13c-.36-.02-1.03-.04-1.43-.04h-1.91v1.94h2.11c.98,0,1.57-.01,2.39-.05v1.19c-.64-.02-1.66-.04-2.39-.04h-2.11v.37c0,1.1,.01,1.92,.04,2.46h-1.25c.02-.54,.04-1.36,.04-2.46v-.37h-3.01c-.66,0-1.74,.01-2.39,.04v-1.19c.52,.02,1.36,.04,2.03,.05v-1.98q-.01-.85-.02-1.05,.32,.01,1.4,.02h1.99v-1.61Zm-2.24,2.68v1.94h2.24v-1.94h-2.24Z"/><path class="cls-2" d="M69.09,89.16c.04-.76,.06-1.89,.06-3.38-.6,.26-.98,.42-2.17,.9l-.06,.13c-.05,.1-.1,.14-.17,.14s-.13-.05-.17-.13l-.47-1.15c.26-.07,.49-.13,.72-.2v-4.59c0-.95-.01-1.45-.04-1.8l1.21,.08c.13,0,.2,.05,.2,.12s-.06,.13-.23,.24v5.55c.38-.14,.78-.3,1.16-.46v-2.97c0-1.97-.02-3.15-.07-3.53l1.27,.08c.11,0,.18,.06,.18,.12,0,.07-.06,.13-.22,.23q-.01,.42-.02,3.1v4.02c0,1.57,.02,2.73,.06,3.5h-1.26Zm7.6-9.18c-.36,2.06-.85,4.19-2,5.97,.62,.78,1.49,1.39,2.78,2.05-.42,.38-.52,.52-.8,1.02-1.06-.59-1.97-1.32-2.67-2.12-.67,.8-1.54,1.51-2.71,2.26-.26-.47-.38-.62-.71-1,1.19-.7,2-1.37,2.7-2.24-.46-.78-.79-1.7-1.08-2.89-.2-.84-.3-1.52-.42-2.9-.38,.01-.77,.01-1.06,.02v-1.18c.52,.03,1.33,.04,1.92,.04h3.36l.16-.19,.76,.72c.06,.06,.1,.12,.1,.18,0,.1-.06,.16-.2,.22l-.11,.05Zm-3.86,.13c.2,2.06,.35,2.75,.8,3.92,.12,.3,.24,.58,.36,.84,.85-1.45,1.25-3.12,1.51-4.76h-2.67Z"/></g><g><path class="cls-2" d="M64.09,130.2c-.16,1.91-.34,2.9-.66,3.85-.52,1.5-1.21,1.9-3.35,1.9h-.38q-.05-.78-.16-1.34c.62,.05,.64,.05,.89,.05,.83,0,1.22-.14,1.51-.54,.44-.65,.72-1.8,.89-3.72h-3.14c-.02,.14-.05,.28-.07,.43-.31,1.68-1.21,3.14-2.55,4.19-.58,.43-1.04,.71-1.96,1.1-.18-.44-.34-.73-.61-1.08,1.74-.84,2.47-1.43,3.15-2.59,.77-1.27,1.01-2.43,1.06-5.14h-1.45c-.66,0-1.74,.02-2.4,.05v-1.2c.62,.04,1.7,.05,2.4,.05h6.01c.75,0,1.77-.01,2.39-.05v1.2c-.63-.03-1.65-.05-2.39-.05h-3.33c-.02,.67-.05,1.34-.11,2.02h3.47l.2-.23,.82,.73c.08,.07,.11,.11,.11,.17,0,.07-.06,.12-.2,.17l-.12,.05Z"/><path class="cls-2" d="M68.68,133.4q.01,2.31,.04,2.82h-1.31q.01-.5,.04-2.34v-5.6q-.01-1.98-.04-2.34c.64,.03,1.57,.05,2.39,.05h4.94c.82,0,1.76-.02,2.39-.05q-.01,.36-.02,2.34v4.72c0,.26,.01,1.03,.04,1.54v.18c0,.72-.18,1.06-.66,1.28-.35,.14-.8,.19-1.99,.19-.04-.73-.05-.83-.23-1.38,.53,.04,.8,.05,1.16,.05,.38,0,.44-.07,.44-.5v-2.75h-7.18v1.79Zm0-6.27v3.36h2.93v-3.36h-2.93Zm4.16,3.36h3.02v-3.36h-3.02v3.36Z"/></g><g><g><path class="cls-2" d="M39.39,101.25c.15-4.05,2.67-6.42,6.87-6.42s6.75,2.4,6.75,6.12c0,2.19-.75,3.78-3.3,6.87-1.29,1.56-2.94,3.48-6.09,7.05h9.63v3.21h-14.13v-2.82q.51-.63,2.31-2.73c7.29-8.55,7.98-9.54,7.98-11.46s-1.35-3.15-3.33-3.15c-2.13,0-3.42,1.17-3.66,3.33h-3.03Z"/><path class="cls-2" d="M61.59,112.92c.57,1.59,1.77,2.43,3.57,2.43,2.49,0,4.17-2.04,4.17-5.1,0-2.85-1.53-4.74-3.81-4.74-1.59,0-2.76,.66-3.78,2.16l-3.06-.42,1.95-11.97h11.01l-.27,3.15h-8.1l-.93,5.46c1.26-.93,2.25-1.26,3.72-1.26,4.14,0,6.96,3,6.96,7.47,0,2.25-.75,4.26-2.13,5.85-1.5,1.68-3.27,2.46-5.61,2.46-3.78,0-6.54-2.16-7.08-5.49h3.39Z"/><path class="cls-2" d="M92.94,106.65c0,7.38-2.97,11.79-7.92,11.79s-7.95-4.41-7.95-11.79,2.97-11.79,7.95-11.79,7.92,4.41,7.92,11.79Zm-10.83-7.17c-.96,1.68-1.47,4.23-1.47,7.17s.51,5.49,1.47,7.17c.63,1.08,1.65,1.68,2.91,1.68s2.25-.6,2.88-1.68c.96-1.68,1.5-4.23,1.5-7.17s-.57-5.58-1.5-7.17c-.66-1.11-1.65-1.68-2.88-1.68s-2.28,.57-2.91,1.68Z"/></g><g><path class="cls-3" d="M39.39,101.25c.15-4.05,2.67-6.42,6.87-6.42s6.75,2.4,6.75,6.12c0,2.19-.75,3.78-3.3,6.87-1.29,1.56-2.94,3.48-6.09,7.05h9.63v3.21h-14.13v-2.82q.51-.63,2.31-2.73c7.29-8.55,7.98-9.54,7.98-11.46s-1.35-3.15-3.33-3.15c-2.13,0-3.42,1.17-3.66,3.33h-3.03Z"/><path class="cls-3" d="M61.59,112.92c.57,1.59,1.77,2.43,3.57,2.43,2.49,0,4.17-2.04,4.17-5.1,0-2.85-1.53-4.74-3.81-4.74-1.59,0-2.76,.66-3.78,2.16l-3.06-.42,1.95-11.97h11.01l-.27,3.15h-8.1l-.93,5.46c1.26-.93,2.25-1.26,3.72-1.26,4.14,0,6.96,3,6.96,7.47,0,2.25-.75,4.26-2.13,5.85-1.5,1.68-3.27,2.46-5.61,2.46-3.78,0-6.54-2.16-7.08-5.49h3.39Z"/><path class="cls-3" d="M92.94,106.65c0,7.38-2.97,11.79-7.92,11.79s-7.95-4.41-7.95-11.79,2.97-11.79,7.95-11.79,7.92,4.41,7.92,11.79Zm-10.83-7.17c-.96,1.68-1.47,4.23-1.47,7.17s.51,5.49,1.47,7.17c.63,1.08,1.65,1.68,2.91,1.68s2.25-.6,2.88-1.68c.96-1.68,1.5-4.23,1.5-7.17s-.57-5.58-1.5-7.17c-.66-1.11-1.65-1.68-2.88-1.68s-2.28,.57-2.91,1.68Z"/></g><g><path class="cls-2" d="M39.39,101.25c.15-4.05,2.67-6.42,6.87-6.42s6.75,2.4,6.75,6.12c0,2.19-.75,3.78-3.3,6.87-1.29,1.56-2.94,3.48-6.09,7.05h9.63v3.21h-14.13v-2.82q.51-.63,2.31-2.73c7.29-8.55,7.98-9.54,7.98-11.46s-1.35-3.15-3.33-3.15c-2.13,0-3.42,1.17-3.66,3.33h-3.03Z"/><path class="cls-2" d="M61.59,112.92c.57,1.59,1.77,2.43,3.57,2.43,2.49,0,4.17-2.04,4.17-5.1,0-2.85-1.53-4.74-3.81-4.74-1.59,0-2.76,.66-3.78,2.16l-3.06-.42,1.95-11.97h11.01l-.27,3.15h-8.1l-.93,5.46c1.26-.93,2.25-1.26,3.72-1.26,4.14,0,6.96,3,6.96,7.47,0,2.25-.75,4.26-2.13,5.85-1.5,1.68-3.27,2.46-5.61,2.46-3.78,0-6.54-2.16-7.08-5.49h3.39Z"/><path class="cls-2" d="M92.94,106.65c0,7.38-2.97,11.79-7.92,11.79s-7.95-4.41-7.95-11.79,2.97-11.79,7.95-11.79,7.92,4.41,7.92,11.79Zm-10.83-7.17c-.96,1.68-1.47,4.23-1.47,7.17s.51,5.49,1.47,7.17c.63,1.08,1.65,1.68,2.91,1.68s2.25-.6,2.88-1.68c.96-1.68,1.5-4.23,1.5-7.17s-.57-5.58-1.5-7.17c-.66-1.11-1.65-1.68-2.88-1.68s-2.28,.57-2.91,1.68Z"/></g></g></g><g><g><path class="cls-2" d="M190.85,54.43h-2.57c-.13,.21-.26,.41-.42,.64-.61,.89-1.01,1.36-1.79,2.07-.2-.32-.36-.49-.77-.89,1.47-1.46,2.18-2.54,2.91-4.49l1.07,.41c.17,.07,.25,.14,.25,.2q0,.1-.34,.18c-.12,.3-.24,.55-.35,.79h4.87c.72,0,1.78-.03,2.4-.05v1.18c-.62-.02-1.68-.05-2.4-.05h-1.7v1.61h1.91c.43,0,1.09-.01,1.43-.02v1.13c-.36-.02-1.03-.04-1.43-.04h-1.91v1.94h2.11c.98,0,1.57-.01,2.39-.05v1.19c-.64-.02-1.66-.04-2.39-.04h-2.11v.37c0,1.1,.01,1.92,.04,2.46h-1.25c.02-.54,.04-1.36,.04-2.46v-.37h-3.01c-.66,0-1.74,.01-2.39,.04v-1.19c.52,.02,1.36,.04,2.03,.05v-1.98q-.01-.85-.02-1.05,.32,.01,1.4,.02h1.99v-1.61Zm-2.24,2.68v1.94h2.24v-1.94h-2.24Z"/><path class="cls-2" d="M200.26,63.01c.04-.76,.06-1.89,.06-3.38-.6,.26-.98,.42-2.17,.9l-.06,.13c-.05,.1-.1,.14-.17,.14s-.13-.05-.17-.13l-.47-1.15c.26-.07,.49-.13,.72-.2v-4.59c0-.95-.01-1.45-.04-1.8l1.21,.08c.13,0,.2,.05,.2,.12s-.06,.13-.23,.24v5.55c.38-.14,.78-.3,1.16-.46v-2.97c0-1.97-.02-3.15-.07-3.53l1.27,.08c.11,0,.18,.06,.18,.12,0,.07-.06,.13-.22,.23q-.01,.42-.02,3.1v4.02c0,1.57,.02,2.73,.06,3.5h-1.26Zm7.6-9.18c-.36,2.06-.85,4.19-2,5.97,.62,.78,1.49,1.39,2.78,2.05-.42,.38-.52,.52-.8,1.02-1.06-.59-1.97-1.32-2.67-2.12-.67,.8-1.54,1.51-2.71,2.26-.26-.47-.38-.62-.71-1,1.19-.7,2-1.37,2.7-2.24-.46-.78-.79-1.7-1.08-2.89-.2-.84-.3-1.52-.42-2.9-.38,.01-.77,.01-1.06,.02v-1.18c.52,.03,1.33,.04,1.92,.04h3.36l.16-.19,.76,.72c.06,.06,.1,.12,.1,.18,0,.1-.06,.16-.2,.22l-.11,.05Zm-3.86,.13c.2,2.06,.35,2.75,.8,3.92,.12,.3,.24,.58,.36,.84,.85-1.45,1.25-3.12,1.51-4.76h-2.67Z"/></g><g><path class="cls-2" d="M195.38,104.04c-.16,1.91-.34,2.9-.66,3.85-.52,1.5-1.21,1.89-3.35,1.89h-.38q-.05-.78-.16-1.34c.62,.05,.64,.05,.89,.05,.83,0,1.22-.14,1.51-.54,.44-.65,.72-1.8,.89-3.72h-3.14c-.02,.14-.05,.28-.07,.43-.31,1.68-1.21,3.14-2.55,4.19-.58,.43-1.04,.71-1.96,1.1-.18-.44-.34-.73-.61-1.08,1.74-.84,2.47-1.43,3.15-2.59,.77-1.27,1.01-2.44,1.06-5.14h-1.45c-.66,0-1.74,.02-2.4,.05v-1.2c.62,.04,1.7,.05,2.4,.05h6.01c.75,0,1.77-.01,2.39-.05v1.2c-.63-.02-1.65-.05-2.39-.05h-3.33c-.02,.67-.05,1.34-.11,2.01h3.47l.2-.23,.82,.73c.08,.07,.11,.11,.11,.17,0,.07-.06,.12-.2,.17l-.12,.05Z"/><path class="cls-2" d="M199.97,107.24q.01,2.31,.04,2.82h-1.31q.01-.5,.04-2.34v-5.6q-.01-1.98-.04-2.34c.64,.02,1.57,.05,2.39,.05h4.94c.82,0,1.76-.02,2.39-.05q-.01,.36-.02,2.34v4.73c0,.26,.01,1.03,.04,1.54v.18c0,.72-.18,1.05-.66,1.28-.35,.14-.8,.19-1.99,.19-.04-.73-.05-.83-.23-1.38,.53,.04,.8,.05,1.16,.05,.38,0,.44-.07,.44-.5v-2.75h-7.18v1.79Zm0-6.27v3.36h2.93v-3.36h-2.93Zm4.16,3.36h3.02v-3.36h-3.02v3.36Z"/></g><g><g><path class="cls-2" d="M170.77,74.49c.18-3.69,2.73-5.82,6.99-5.82,2.1,0,3.72,.54,4.86,1.65,1.08,1.05,1.74,2.64,1.74,4.26,0,2.4-1.17,4.05-3.6,5.07,2.79,.87,4.11,2.64,4.11,5.52,0,2.22-.93,4.26-2.55,5.55-1.32,1.02-3,1.53-5.13,1.53-4.62,0-7.35-2.22-7.38-6.09h3.18c.06,1.95,1.53,3.03,4.2,3.03s4.14-1.47,4.14-3.96c0-1.68-.81-2.91-2.28-3.48-.66-.24-1.89-.39-3.27-.39l-.72,.03v-2.94c.42,.03,.6,.03,.87,.03,3.15,0,4.86-1.29,4.86-3.63,0-1.92-1.29-3.15-3.39-3.15s-3.42,1.05-3.6,2.79h-3.03Z"/><path class="cls-2" d="M204.67,80.49c0,7.38-2.97,11.79-7.92,11.79s-7.95-4.41-7.95-11.79,2.97-11.79,7.95-11.79,7.92,4.41,7.92,11.79Zm-10.83-7.17c-.96,1.68-1.47,4.23-1.47,7.17s.51,5.49,1.47,7.17c.63,1.08,1.65,1.68,2.91,1.68s2.25-.6,2.88-1.68c.96-1.68,1.5-4.23,1.5-7.17s-.57-5.58-1.5-7.17c-.66-1.11-1.65-1.68-2.88-1.68s-2.28,.57-2.91,1.68Z"/><path class="cls-2" d="M224.08,80.49c0,7.38-2.97,11.79-7.92,11.79s-7.95-4.41-7.95-11.79,2.97-11.79,7.95-11.79,7.92,4.41,7.92,11.79Zm-10.83-7.17c-.96,1.68-1.47,4.23-1.47,7.17s.51,5.49,1.47,7.17c.63,1.08,1.65,1.68,2.91,1.68s2.25-.6,2.88-1.68c.96-1.68,1.5-4.23,1.5-7.17s-.57-5.58-1.5-7.17c-.66-1.11-1.65-1.68-2.88-1.68s-2.28,.57-2.91,1.68Z"/></g><g><path class="cls-3" d="M170.77,74.49c.18-3.69,2.73-5.82,6.99-5.82,2.1,0,3.72,.54,4.86,1.65,1.08,1.05,1.74,2.64,1.74,4.26,0,2.4-1.17,4.05-3.6,5.07,2.79,.87,4.11,2.64,4.11,5.52,0,2.22-.93,4.26-2.55,5.55-1.32,1.02-3,1.53-5.13,1.53-4.62,0-7.35-2.22-7.38-6.09h3.18c.06,1.95,1.53,3.03,4.2,3.03s4.14-1.47,4.14-3.96c0-1.68-.81-2.91-2.28-3.48-.66-.24-1.89-.39-3.27-.39l-.72,.03v-2.94c.42,.03,.6,.03,.87,.03,3.15,0,4.86-1.29,4.86-3.63,0-1.92-1.29-3.15-3.39-3.15s-3.42,1.05-3.6,2.79h-3.03Z"/><path class="cls-3" d="M204.67,80.49c0,7.38-2.97,11.79-7.92,11.79s-7.95-4.41-7.95-11.79,2.97-11.79,7.95-11.79,7.92,4.41,7.92,11.79Zm-10.83-7.17c-.96,1.68-1.47,4.23-1.47,7.17s.51,5.49,1.47,7.17c.63,1.08,1.65,1.68,2.91,1.68s2.25-.6,2.88-1.68c.96-1.68,1.5-4.23,1.5-7.17s-.57-5.58-1.5-7.17c-.66-1.11-1.65-1.68-2.88-1.68s-2.28,.57-2.91,1.68Z"/><path class="cls-3" d="M224.08,80.49c0,7.38-2.97,11.79-7.92,11.79s-7.95-4.41-7.95-11.79,2.97-11.79,7.95-11.79,7.92,4.41,7.92,11.79Zm-10.83-7.17c-.96,1.68-1.47,4.23-1.47,7.17s.51,5.49,1.47,7.17c.63,1.08,1.65,1.68,2.91,1.68s2.25-.6,2.88-1.68c.96-1.68,1.5-4.23,1.5-7.17s-.57-5.58-1.5-7.17c-.66-1.11-1.65-1.68-2.88-1.68s-2.28,.57-2.91,1.68Z"/></g><g><path class="cls-2" d="M170.77,74.49c.18-3.69,2.73-5.82,6.99-5.82,2.1,0,3.72,.54,4.86,1.65,1.08,1.05,1.74,2.64,1.74,4.26,0,2.4-1.17,4.05-3.6,5.07,2.79,.87,4.11,2.64,4.11,5.52,0,2.22-.93,4.26-2.55,5.55-1.32,1.02-3,1.53-5.13,1.53-4.62,0-7.35-2.22-7.38-6.09h3.18c.06,1.95,1.53,3.03,4.2,3.03s4.14-1.47,4.14-3.96c0-1.68-.81-2.91-2.28-3.48-.66-.24-1.89-.39-3.27-.39l-.72,.03v-2.94c.42,.03,.6,.03,.87,.03,3.15,0,4.86-1.29,4.86-3.63,0-1.92-1.29-3.15-3.39-3.15s-3.42,1.05-3.6,2.79h-3.03Z"/><path class="cls-2" d="M204.67,80.49c0,7.38-2.97,11.79-7.92,11.79s-7.95-4.41-7.95-11.79,2.97-11.79,7.95-11.79,7.92,4.41,7.92,11.79Zm-10.83-7.17c-.96,1.68-1.47,4.23-1.47,7.17s.51,5.49,1.47,7.17c.63,1.08,1.65,1.68,2.91,1.68s2.25-.6,2.88-1.68c.96-1.68,1.5-4.23,1.5-7.17s-.57-5.58-1.5-7.17c-.66-1.11-1.65-1.68-2.88-1.68s-2.28,.57-2.91,1.68Z"/><path class="cls-2" d="M224.08,80.49c0,7.38-2.97,11.79-7.92,11.79s-7.95-4.41-7.95-11.79,2.97-11.79,7.95-11.79,7.92,4.41,7.92,11.79Zm-10.83-7.17c-.96,1.68-1.47,4.23-1.47,7.17s.51,5.49,1.47,7.17c.63,1.08,1.65,1.68,2.91,1.68s2.25-.6,2.88-1.68c.96-1.68,1.5-4.23,1.5-7.17s-.57-5.58-1.5-7.17c-.66-1.11-1.65-1.68-2.88-1.68s-2.28,.57-2.91,1.68Z"/></g></g></g><g><g><path class="cls-2" d="M324.23,20.03h-2.57c-.13,.21-.26,.41-.42,.64-.61,.89-1.01,1.36-1.79,2.07-.2-.32-.36-.49-.77-.89,1.47-1.46,2.18-2.54,2.91-4.49l1.07,.41c.17,.07,.25,.14,.25,.2q0,.1-.34,.18c-.12,.3-.24,.55-.35,.79h4.87c.72,0,1.78-.03,2.4-.05v1.18c-.62-.02-1.68-.05-2.4-.05h-1.7v1.61h1.91c.43,0,1.09-.01,1.43-.02v1.13c-.36-.02-1.03-.04-1.43-.04h-1.91v1.94h2.11c.98,0,1.57-.01,2.39-.05v1.19c-.64-.02-1.66-.04-2.39-.04h-2.11v.37c0,1.1,.01,1.92,.04,2.46h-1.25c.02-.54,.04-1.36,.04-2.46v-.37h-3.01c-.66,0-1.74,.01-2.39,.04v-1.19c.52,.02,1.36,.04,2.03,.05v-1.98q-.01-.85-.02-1.05,.32,.01,1.4,.02h1.99v-1.61Zm-2.24,2.68v1.94h2.24v-1.94h-2.24Z"/><path class="cls-2" d="M333.64,28.61c.04-.76,.06-1.89,.06-3.38-.6,.26-.98,.42-2.17,.9l-.06,.13c-.05,.1-.1,.14-.17,.14s-.13-.05-.17-.13l-.47-1.15c.26-.07,.49-.13,.72-.2v-4.59c0-.95-.01-1.45-.04-1.8l1.21,.08c.13,0,.2,.05,.2,.12s-.06,.13-.23,.24v5.55c.38-.14,.78-.3,1.16-.46v-2.97c0-1.97-.02-3.15-.07-3.53l1.27,.08c.11,0,.18,.06,.18,.12,0,.07-.06,.13-.22,.23q-.01,.42-.02,3.1v4.02c0,1.57,.02,2.73,.06,3.5h-1.26Zm7.6-9.18c-.36,2.06-.85,4.19-2,5.97,.62,.78,1.49,1.39,2.78,2.05-.42,.38-.52,.52-.8,1.02-1.06-.59-1.97-1.32-2.67-2.12-.67,.8-1.54,1.51-2.71,2.26-.26-.47-.38-.62-.71-1,1.19-.7,2-1.37,2.7-2.24-.46-.78-.79-1.7-1.08-2.89-.2-.84-.3-1.52-.42-2.9-.38,.01-.77,.01-1.06,.02v-1.18c.52,.03,1.33,.04,1.92,.04h3.36l.16-.19,.76,.72c.06,.06,.1,.12,.1,.18,0,.1-.06,.16-.2,.22l-.11,.05Zm-3.86,.13c.2,2.06,.35,2.75,.8,3.92,.12,.3,.24,.58,.36,.84,.85-1.45,1.25-3.12,1.51-4.76h-2.67Z"/></g><g><path class="cls-2" d="M328.76,78.35c-.16,1.91-.34,2.9-.66,3.85-.52,1.5-1.21,1.89-3.35,1.89h-.38q-.05-.78-.16-1.34c.62,.05,.64,.05,.89,.05,.83,0,1.22-.14,1.51-.54,.44-.65,.72-1.8,.89-3.72h-3.14c-.02,.14-.05,.28-.07,.43-.31,1.68-1.21,3.14-2.55,4.19-.58,.43-1.04,.71-1.96,1.1-.18-.44-.34-.73-.61-1.08,1.74-.84,2.47-1.43,3.15-2.59,.77-1.27,1.01-2.44,1.06-5.14h-1.45c-.66,0-1.74,.02-2.4,.05v-1.2c.62,.04,1.7,.05,2.4,.05h6.01c.75,0,1.77-.01,2.39-.05v1.2c-.63-.02-1.65-.05-2.39-.05h-3.33c-.02,.67-.05,1.34-.11,2.01h3.47l.2-.23,.82,.73c.08,.07,.11,.11,.11,.17,0,.07-.06,.12-.2,.17l-.12,.05Z"/><path class="cls-2" d="M333.35,81.56q.01,2.31,.04,2.82h-1.31q.01-.5,.04-2.34v-5.6q-.01-1.98-.04-2.34c.64,.02,1.57,.05,2.39,.05h4.94c.82,0,1.76-.02,2.39-.05q-.01,.36-.02,2.34v4.73c0,.26,.01,1.03,.04,1.54v.18c0,.72-.18,1.05-.66,1.28-.35,.14-.8,.19-1.99,.19-.04-.73-.05-.83-.23-1.38,.53,.04,.8,.05,1.16,.05,.38,0,.44-.07,.44-.5v-2.75h-7.18v1.79Zm0-6.27v3.36h2.93v-3.36h-2.93Zm4.16,3.36h3.02v-3.36h-3.02v3.36Z"/></g><g><g><path class="cls-2" d="M317.36,56.92v3.36h-3.82v6.16h-3.92v-6.16h-11.87v-3.19l11.31-17.61h4.48v17.43h3.82Zm-7.74-12.53l-7.88,12.53h7.88v-12.53Z"/><path class="cls-2" d="M325.44,60.21c.67,1.86,2.07,2.84,4.17,2.84,2.91,0,4.87-2.38,4.87-5.95,0-3.32-1.79-5.53-4.45-5.53-1.86,0-3.22,.77-4.41,2.52l-3.57-.49,2.28-13.97h12.85l-.32,3.68h-9.45l-1.09,6.37c1.47-1.09,2.63-1.47,4.34-1.47,4.83,0,8.12,3.5,8.12,8.72,0,2.62-.88,4.97-2.49,6.82-1.75,1.96-3.82,2.87-6.55,2.87-4.41,0-7.63-2.52-8.26-6.41h3.96Z"/><path class="cls-2" d="M362.01,52.9c0,8.61-3.46,13.76-9.24,13.76s-9.28-5.15-9.28-13.76,3.46-13.76,9.28-13.76,9.24,5.15,9.24,13.76Zm-12.64-8.37c-1.12,1.96-1.72,4.94-1.72,8.37s.6,6.4,1.72,8.37c.73,1.26,1.92,1.96,3.39,1.96s2.63-.7,3.36-1.96c1.12-1.96,1.75-4.94,1.75-8.37s-.67-6.51-1.75-8.37c-.77-1.29-1.92-1.96-3.36-1.96s-2.66,.66-3.39,1.96Z"/></g><g><path class="cls-3" d="M317.36,56.92v3.36h-3.82v6.16h-3.92v-6.16h-11.87v-3.19l11.31-17.61h4.48v17.43h3.82Zm-7.74-12.53l-7.88,12.53h7.88v-12.53Z"/><path class="cls-3" d="M325.44,60.21c.67,1.86,2.07,2.84,4.17,2.84,2.91,0,4.87-2.38,4.87-5.95,0-3.32-1.79-5.53-4.45-5.53-1.86,0-3.22,.77-4.41,2.52l-3.57-.49,2.28-13.97h12.85l-.32,3.68h-9.45l-1.09,6.37c1.47-1.09,2.63-1.47,4.34-1.47,4.83,0,8.12,3.5,8.12,8.72,0,2.62-.88,4.97-2.49,6.82-1.75,1.96-3.82,2.87-6.55,2.87-4.41,0-7.63-2.52-8.26-6.41h3.96Z"/><path class="cls-3" d="M362.01,52.9c0,8.61-3.46,13.76-9.24,13.76s-9.28-5.15-9.28-13.76,3.46-13.76,9.28-13.76,9.24,5.15,9.24,13.76Zm-12.64-8.37c-1.12,1.96-1.72,4.94-1.72,8.37s.6,6.4,1.72,8.37c.73,1.26,1.92,1.96,3.39,1.96s2.63-.7,3.36-1.96c1.12-1.96,1.75-4.94,1.75-8.37s-.67-6.51-1.75-8.37c-.77-1.29-1.92-1.96-3.36-1.96s-2.66,.66-3.39,1.96Z"/></g><g><path class="cls-12" d="M317.36,56.92v3.36h-3.82v6.16h-3.92v-6.16h-11.87v-3.19l11.31-17.61h4.48v17.43h3.82Zm-7.74-12.53l-7.88,12.53h7.88v-12.53Z"/><path class="cls-10" d="M325.44,60.21c.67,1.86,2.07,2.84,4.17,2.84,2.91,0,4.87-2.38,4.87-5.95,0-3.32-1.79-5.53-4.45-5.53-1.86,0-3.22,.77-4.41,2.52l-3.57-.49,2.28-13.97h12.85l-.32,3.68h-9.45l-1.09,6.37c1.47-1.09,2.63-1.47,4.34-1.47,4.83,0,8.12,3.5,8.12,8.72,0,2.62-.88,4.97-2.49,6.82-1.75,1.96-3.82,2.87-6.55,2.87-4.41,0-7.63-2.52-8.26-6.41h3.96Z"/><path class="cls-9" d="M362.01,52.9c0,8.61-3.46,13.76-9.24,13.76s-9.28-5.15-9.28-13.76,3.46-13.76,9.28-13.76,9.24,5.15,9.24,13.76Zm-12.64-8.37c-1.12,1.96-1.72,4.94-1.72,8.37s.6,6.4,1.72,8.37c.73,1.26,1.92,1.96,3.39,1.96s2.63-.7,3.36-1.96c1.12-1.96,1.75-4.94,1.75-8.37s-.67-6.51-1.75-8.37c-.77-1.29-1.92-1.96-3.36-1.96s-2.66,.66-3.39,1.96Z"/></g></g></g><g><path class="cls-1" d="M146.77,134.34c-.49,1.26-.94,2.28-1.46,3.36q-.17,.34-.56,1.03-.07,.14-.18,.35v.08c0,.1-.04,.17-.11,.17t-.17-.11l-.85-.71c.77-1.08,1.56-2.65,2.42-4.76l.91,.59Zm-2.42-3.07c.61,.54,1.02,.96,1.5,1.56l-.94,.76c-.56-.74-.8-1.02-1.38-1.58l.82-.73Zm.72-2.65c.59,.5,.9,.84,1.43,1.51l-.96,.73c-.44-.65-.68-.92-1.31-1.56l.84-.68Zm3.33,2.9c2-.29,3.25-.59,4.76-1.16l.84,.82s.07,.11,.07,.17c0,.08-.06,.13-.17,.13-.05,0-.11,0-.25-.01-.58,.14-1.14,.29-1.72,.43,.07,.58,.14,1.14,.26,1.7,.77-.48,.97-.65,1.44-1.1l.86,.76s.08,.11,.08,.17-.04,.11-.08,.13c-.02,.01-.07,.02-.16,.04q-.1,.01-.17,.02c-.7,.42-1.08,.64-1.74,.96,.12,.39,.25,.75,.41,1.12,.46,1.07,.98,1.76,1.98,2.64-.32,.23-.61,.5-.96,.94-1.09-1.07-1.58-1.8-2.09-3.07-.48-1.2-.72-2.26-.9-4.05-.14,.04-.28,.05-.42,.08v5.01c0,.91,.01,1.68,.04,2.11h-1.24c.02-.47,.04-1.14,.04-2.11v-4.85c-.3,.05-.6,.08-.9,.13v.99c0,1.76-.07,2.4-.37,3.3-.34,1-.79,1.67-1.81,2.66-.25-.42-.36-.56-.74-.98,1.4-1.34,1.79-2.4,1.79-5.06v-3.17c0-.36-.02-.83-.04-1.05l1.02,.29c2.05-.29,3.49-.61,4.83-1.09l.77,.8c.06,.06,.08,.11,.08,.16,0,.1-.06,.14-.18,.14t-.25-.01c-2.54,.64-2.66,.66-5.1,.96v1.07Z"/><path class="cls-1" d="M159.49,137.88c.04-.29,.02-.57,.02-.86v-3.2c0-.35-.01-.77-.02-.97,.42,.03,.78,.03,1.32,.03h3.02c.53,0,.9,0,1.32-.03-.02,.21-.04,.62-.04,.97v.47c0,.4,.01,.66,.04,.86h-1.13v-.24h-3.42v.54h3.66c.54,0,.9,0,1.32-.01-.01,.19-.02,.61-.02,.96v.52c0,.4,0,.66,.02,.86h-1.12v-.29h-3.86v.42h-1.05c.77,.31,1.51,.38,3.26,.38,1.34,0,2.97-.05,3.93-.12-.16,.52-.17,.55-.23,1.19-2.05,.04-2.34,.04-4.04,.04-1.55,0-2.57-.18-3.51-.62-.52-.25-.88-.54-1.2-1.01-.4,.43-.77,.78-1.04,1.02-.08,.07-.22,.19-.37,.35-.06,.19-.11,.26-.18,.26-.06,0-.12-.05-.17-.11l-.65-.9c.64-.41,1.25-.86,1.81-1.37v-2.6h-.48c-.31,0-.84,.01-1.13,.04v-1.16c.28,.02,.78,.02,1.13,.02h.54q.85,0,1.1-.02-.01,.21-.02,1.07v2.76c.25,.29,.52,.47,.94,.66l.25,.11Zm-2.89-9.21c.74,.65,1.13,1.07,1.64,1.78l-.92,.74c-.56-.8-.68-.96-1.49-1.82l.77-.7Zm3.65,2.38v.3h-1.07c.02-.22,.04-.47,.04-.89v-.42c0-.35-.01-.77-.04-.96,.42,.01,.79,.01,1.32,.01h1.14c0-.23,.01-.47-.01-.7l1.16,.07c.14,.01,.22,.06,.22,.13s-.07,.14-.24,.24v.25h1.29c.53,0,.9,0,1.32-.01-.02,.19-.04,.61-.04,.96v.42c0,.4,.01,.65,.04,.87h-1.08v-.28h-1.54v.52h1.99c.55,0,1.39-.01,1.91-.04v1.02c-.52-.01-1.36-.04-1.91-.04h-4.85c-.61,0-1.4,.03-1.91,.04v-1.02c.5,.02,1.3,.04,1.91,.04h1.73v-.52h-1.39Zm1.39-1.22h-1.39v.49h1.39v-.49Zm2.39,4.28v-.44h-3.42v.44h3.42Zm.44,2.15h-3.86v.46h3.86v-.46Zm-.17-5.94v-.49h-1.54v.49h1.54Z"/><path class="cls-1" d="M170,133.92h-.86v.22h-1.14c.02-.29,.04-.68,.04-1.28v-.3c0-.38-.01-.84-.04-1.05,.42,.01,.79,.01,1.32,.01h2.55c.53,0,.9,0,1.32-.01-.02,.21-.04,.67-.04,1.05v.3c0,.56,.01,.97,.04,1.25h-1.14v-.18h-.92v.62h1.19c.35,0,.85-.01,1.2-.02v.97c-.35-.01-.85-.02-1.2-.02h-1.19v.55h.83c.35,0,.85-.01,1.19-.03v.97c-.34-.01-.84-.03-1.19-.03h-.83v.68c.85-.12,1.7-.29,2.54-.48v.81c.17-.21,.29-.42,.44-.72,.6-1.14,.84-2.34,.91-4.79h-.22c-.35,0-.85,.01-1.19,.02v-1.15c.32,.02,.85,.04,1.19,.04h.24v-.65c0-1.32-.01-1.51-.04-2.28l1.16,.1c.2,.02,.29,.07,.29,.16,0,.07-.01,.08-.25,.23v2.45h1.46l.14-.17,.75,.62c.06,.05,.08,.11,.08,.17,0,.11,0,.13-.26,.21-.1,5.04-.28,6.31-1.01,6.84-.26,.19-.58,.28-1.15,.31-.33,.02-.58,.01-.83,.02-.06-.53-.07-.6-.24-1.26,.37,.02,.53,.02,.68,.02,.58,0,.72-.06,.89-.35,.32-.57,.46-1.99,.48-5.32h-1.03c-.04,1.46-.13,2.63-.26,3.24-.32,1.54-1.02,2.85-2.01,3.87-.29-.39-.5-.57-.94-.83,.24-.24,.41-.42,.55-.59-1.09,.24-3,.55-5.24,.89-.1,.17-.17,.23-.24,.23-.06,0-.14-.07-.17-.14l-.36-1.05c.83-.07,1.66-.17,2.48-.29v-.84h-.75c-.35,0-.85,.01-1.2,.03v-.97c.35,.01,.85,.03,1.2,.03h.75v-.55h-1.12c-.35,0-.85,.01-1.2,.02v-.97c.35,.01,.85,.02,1.2,.02h1.12v-.62Zm1.06-4.56c0-.42-.01-.77-.04-.92l1.12,.08c.13,0,.2,.05,.2,.12s-.06,.13-.22,.23v.49h.3c.35,0,.86-.01,1.2-.03v.95c-.34-.01-.85-.02-1.2-.02h-.31c0,.4,.01,.76,.02,.96h-1.1c.01-.24,.02-.55,.02-.96h-.95c0,.43,.01,.76,.04,.96h-1.12c.02-.24,.04-.55,.04-.96h-.24c-.35,0-.85,.01-1.2,.02v-.95c.35,.01,.85,.03,1.2,.03h.24c-.01-.42-.02-.77-.04-.92l1.12,.08c.13,0,.2,.05,.2,.12s-.07,.14-.24,.23v.49h.95Zm-1.92,3.02v.67h.86v-.67h-.86Zm2.91,0h-.92v.67h.92v-.67Z"/><path class="cls-1" d="M183.99,129.79c-.26,.3-.53,.59-.82,.85-.23,.21-.47,.41-.71,.61,.11,.13,.22,.26,.31,.39l-.55,.41h1.56l.16-.23,.68,.65c.08,.07,.1,.11,.1,.16,0,.1-.07,.14-.25,.18h-.07c-.11,.26-.16,.37-.43,1.02-.13,.32-.23,.5-.4,.79-.29-.29-.54-.48-.85-.67,.17-.3,.29-.54,.43-.89h-.59v2.83c0,.44,.01,1.28,.02,2.16v.12c0,.59-.1,.85-.41,1.03-.33,.22-.72,.26-1.87,.26-.04-.49-.07-.67-.23-1.22,.4,.04,.59,.05,.88,.05,.41,0,.48-.06,.48-.44v-2.81c-.44,.97-.9,1.74-1.52,2.59-.12-.32-.24-.5-.62-1.01,.78-1,1.45-2.21,1.97-3.56h-.72c-.32,0-.71,0-.96,.01v-1.04c.26,.01,.7,.02,.96,.02h1.24c-.36-.52-.78-.97-1.24-1.4l.68-.61c.22,.18,.42,.35,.62,.54,.26-.22,.52-.44,.75-.68h-1.75c-.32,0-.7,0-.95,.01v-.98c.26,.01,.7,.02,.95,.02h2.63l.16-.19,.71,.66c.08,.08,.1,.11,.1,.17,0,.1-.06,.14-.22,.17l-.23,.04Zm3.42,6.36c-.19,.56-.46,1.04-.82,1.5-.7,.88-1.51,1.4-2.96,1.89-.16-.43-.25-.63-.47-1.01,1.49-.53,2.03-.88,2.63-1.69,.17-.23,.31-.46,.43-.7h-.9c-.35,0-.85,.01-1.19,.02v-1.09c.34,.01,.84,.02,1.19,.02h1.26c.08-.37,.14-.79,.18-1.32l1.07,.19c.13,.02,.19,.07,.19,.14,0,.08-.06,.13-.23,.19-.04,.29-.07,.54-.12,.79h1.85l.17-.22,.68,.71c.1,.1,.11,.11,.11,.16,0,.08-.06,.13-.2,.18l-.12,.05c-.16,1.52-.42,2.48-.79,2.93-.4,.46-.74,.54-2.3,.54h-.12c-.01-.48-.06-.77-.16-1.2,.42,.04,.59,.05,.76,.05,.68,0,.89-.08,1.08-.47,.17-.36,.28-.84,.38-1.68h-1.59Zm1.96-5.42c-.3,.63-.67,1.22-1.13,1.74,.59,.38,1.26,.65,2.55,1.02-.22,.34-.37,.67-.48,1.02-1.34-.4-2.06-.73-2.83-1.33-.77,.64-1.39,.94-2.83,1.43-.17-.46-.28-.67-.5-.96,1.2-.4,1.86-.7,2.52-1.18-.34-.36-.59-.78-.8-1.22-.23,.37-.46,.68-.74,1.04-.07-.08-.13-.16-.17-.19q-.24-.28-.6-.58c.88-1.07,1.26-1.78,1.75-3.18l.92,.37c.17,.06,.19,.08,.19,.16,0,.08-.04,.11-.24,.18-.11,.24-.2,.46-.3,.65h2.88c.26,0,.7,0,.96-.01v1.06c-.25-.01-.64-.01-.96-.01h-.19Zm-2.75,0c.22,.39,.47,.78,.8,1.1,.31-.32,.55-.71,.76-1.1h-1.56Z"/><path class="cls-1" d="M194.4,129.84c.13,.04,.22,.11,.22,.21,0,.13-.08,.2-.32,.29-.46,2.53-.52,3.12-.52,4.53s.16,2.39,.6,3.59c-.52,.16-.82,.26-1.22,.46-.42-1.15-.61-2.42-.61-4.04,0-1.29,.08-2.16,.47-4.59,.05-.29,.07-.42,.08-.68l1.31,.25Zm2.75,5.06c-.34,.44-.43,.67-.43,.94,0,.62,.71,.89,2.39,.89,1.12,0,1.89-.1,2.84-.34-.1,.58-.14,.97-.16,1.42-.78,.12-1.7,.18-2.6,.18-1.03,0-1.85-.08-2.38-.26-.86-.29-1.29-.85-1.29-1.69,0-.56,.17-.96,.71-1.69l.92,.56Zm-1.36-3.77c1.42-.37,2.35-.49,3.68-.49,.74,0,1.28,.04,2.08,.13l-.19,1.18c-.22-.01-.38-.02-.49-.04-.74-.06-1.09-.07-1.75-.07-1.18,0-1.8,.1-3.06,.49l-.26-1.2Z"/><path class="cls-1" d="M213.54,130.86q.08,.13,.08,.21c0,.1-.05,.12-.38,.14-1.24,.08-1.93,.31-2.75,.91-1.16,.86-1.8,1.93-1.8,3.04,0,1.03,.8,1.81,2.15,2.09,.66,.13,1.25,.19,2.18,.2-.2,.37-.3,.64-.48,1.3-1.16-.07-1.81-.17-2.58-.38-1.62-.46-2.54-1.61-2.54-3.19,0-1.31,.6-2.34,1.94-3.36-1.08,.25-3.68,.85-4.35,1.01-.3,.06-.37,.08-.6,.14l-.3-1.37c1.08-.1,2.58-.34,5.35-.86,2.35-.45,2.67-.52,3.45-.8l.62,.94Z"/><path class="cls-1" d="M221.7,133.91h2.13q1.07-.01,1.42-.02-.01,.21-.02,1.05v.37l1.46-.04v1.02c-.49-.01-.97-.04-1.46-.04v.67c0,.45,0,.6,.02,1.19h-1.16v-.42h-2.35v.22s.01,.07,.01,.18c0,.62-.11,.91-.4,1.13-.35,.24-.67,.3-1.91,.3-.02-.46-.08-.78-.23-1.24,.36,.04,.58,.05,.85,.05,.46,0,.5-.05,.5-.5v-.13h-2.78c-.4,0-1.07,.01-1.44,.04v-1c.36,.01,.97,.02,1.44,.02h2.78v-.52h-2.61c-.66,0-1.74,.03-2.39,.05v-1.02c.62,.02,1.7,.05,2.39,.05h2.61v-.49h-2.78c-.4,0-1.07,.02-1.44,.04v-1c.36,.03,.97,.04,1.44,.04h2.78v-.58h-2.1v.29h-1.13c.01-.28,.02-.68,.02-1.21v-.37c0-.37-.01-.84-.02-1.05,.26,.01,.5,.02,.86,.02h2.36v-.56h-2.45c-.66,0-1.74,.03-2.39,.05v-1.08c.61,.02,1.7,.04,2.39,.04h2.42c0-.35-.01-.71-.05-1.06l1.26,.08c.11,.01,.18,.06,.18,.13,0,.06-.06,.12-.22,.23-.01,.21-.01,.41-.01,.61h2.42c.76,0,1.78-.01,2.39-.04v1.08c-.64-.02-1.66-.05-2.39-.05h-2.42c-.01,.19-.01,.37-.01,.56h2.35c.36,0,.6-.01,.88-.02-.02,.21-.04,.68-.04,1.05v.31c0,.56,.01,.97,.04,1.25h-1.14v-.26h-2.09v.58Zm-1.13-2.02h-2.1v.55h2.1v-.55Zm3.21,.55v-.55h-2.09v.55h2.09Zm.3,2.39h-2.39v.49h2.39v-.49Zm0,1.41h-2.38v.52h2.38v-.52Z"/><path class="cls-1" d="M231.99,129.79c-.26,.3-.53,.59-.82,.85-.23,.21-.47,.41-.71,.61,.11,.13,.22,.26,.31,.39l-.55,.41h1.56l.16-.23,.68,.65c.08,.07,.1,.11,.1,.16,0,.1-.07,.14-.25,.18h-.07c-.11,.26-.16,.37-.43,1.02-.13,.32-.23,.5-.4,.79-.29-.29-.54-.48-.85-.67,.17-.3,.29-.54,.43-.89h-.59v2.83c0,.44,.01,1.28,.02,2.16v.12c0,.59-.1,.85-.41,1.03-.33,.22-.72,.26-1.87,.26-.04-.49-.07-.67-.23-1.22,.4,.04,.59,.05,.88,.05,.41,0,.48-.06,.48-.44v-2.81c-.44,.97-.9,1.74-1.52,2.59-.12-.32-.24-.5-.62-1.01,.78-1,1.45-2.21,1.97-3.56h-.72c-.32,0-.71,0-.96,.01v-1.04c.26,.01,.7,.02,.96,.02h1.24c-.36-.52-.78-.97-1.24-1.4l.68-.61c.22,.18,.42,.35,.62,.54,.26-.22,.52-.44,.75-.68h-1.75c-.32,0-.7,0-.95,.01v-.98c.26,.01,.7,.02,.95,.02h2.63l.16-.19,.71,.66c.08,.08,.1,.11,.1,.17,0,.1-.06,.14-.22,.17l-.23,.04Zm3.42,6.36c-.19,.56-.46,1.04-.82,1.5-.7,.88-1.51,1.4-2.96,1.89-.16-.43-.25-.63-.47-1.01,1.49-.53,2.03-.88,2.63-1.69,.17-.23,.31-.46,.43-.7h-.9c-.35,0-.85,.01-1.19,.02v-1.09c.34,.01,.84,.02,1.19,.02h1.26c.08-.37,.14-.79,.18-1.32l1.07,.19c.13,.02,.19,.07,.19,.14,0,.08-.06,.13-.23,.19-.04,.29-.07,.54-.12,.79h1.85l.17-.22,.68,.71c.1,.1,.11,.11,.11,.16,0,.08-.06,.13-.2,.18l-.12,.05c-.16,1.52-.42,2.48-.79,2.93-.4,.46-.74,.54-2.3,.54h-.12c-.01-.48-.06-.77-.16-1.2,.42,.04,.59,.05,.76,.05,.68,0,.89-.08,1.08-.47,.17-.36,.28-.84,.38-1.68h-1.59Zm1.96-5.42c-.3,.63-.67,1.22-1.13,1.74,.59,.38,1.26,.65,2.55,1.02-.22,.34-.37,.67-.48,1.02-1.34-.4-2.06-.73-2.83-1.33-.77,.64-1.39,.94-2.83,1.43-.17-.46-.28-.67-.5-.96,1.2-.4,1.86-.7,2.52-1.18-.34-.36-.59-.78-.8-1.22-.23,.37-.46,.68-.74,1.04-.07-.08-.13-.16-.17-.19q-.24-.28-.6-.58c.88-1.07,1.26-1.78,1.75-3.18l.92,.37c.17,.06,.19,.08,.19,.16,0,.08-.04,.11-.24,.18-.11,.24-.2,.46-.3,.65h2.88c.26,0,.7,0,.96-.01v1.06c-.25-.01-.64-.01-.96-.01h-.19Zm-2.75,0c.22,.39,.47,.78,.8,1.1,.31-.32,.55-.71,.76-1.1h-1.56Z"/><path class="cls-1" d="M242.98,136.73c0,1.22,.01,2.21,.05,2.81h-1.16c.02-.66,.05-1.6,.05-2.81v-.16c-.24,.1-.42,.16-.58,.22q-.75,.28-1.13,.43c-.08,.18-.13,.23-.2,.23-.06,0-.14-.06-.17-.13l-.42-1.12c.23-.05,.43-.1,.62-.14v-6.16c-.17,0-.34,.01-.47,.01v-1.05c.35,.01,.85,.02,1.2,.02h1.66c.35,0,.86-.01,1.2-.02v1.05c-.18-.01-.42-.01-.65-.01v6.84Zm-1.87-6.85v1.23h.8v-1.23h-.8Zm0,2.24v1.28h.8v-1.28h-.8Zm0,2.29v1.34c.26-.07,.54-.17,.8-.25v-1.09h-.8Zm7.6-.83c.01,.34,.02,.65,.05,.94,.02,.4,.07,.77,.13,1.13,.26-.48,.47-1.02,.67-1.71l.95,.37c.12,.05,.16,.08,.16,.15,0,.08-.02,.1-.26,.18-.31,.98-.67,1.73-1.17,2.39,.07,.19,.14,.37,.22,.56,.1,.25,.19,.38,.25,.38,.12,0,.26-.52,.35-1.27,.22,.12,.46,.25,.86,.43-.17,.89-.23,1.16-.35,1.55-.16,.48-.37,.7-.7,.7-.59,0-1.03-.44-1.44-1.44-.6,.59-1.27,1.01-2.51,1.61-.23-.42-.38-.61-.68-.92,.66-.26,1.15-.5,1.57-.77h-.89v-.24h-1.01v.61h-1.04c.01-.29,.02-.68,.02-1.29v-1.81c0-.38-.01-.84-.02-1.05,.26,.01,.5,.01,.86,.01h1.37c.36,0,.6,0,.86-.01-.01,.21-.02,.67-.02,1.05v1.48c0,.5,.01,.88,.02,1.15,.34-.23,.64-.48,.94-.79,.06-.06,.11-.11,.16-.17-.28-1.06-.36-2.13-.43-3.21h-2.75c-.5,0-1.17,.01-1.67,.02v-1.09c.25,.01,.58,.01,.91,.01-.12-.49-.23-.85-.38-1.31l.72-.24h-.95s0-1.06,0-1.06c.18,.01,.49,.02,.72,.02h.61v-.77c0-.33-.01-.6-.02-.77l1.1,.07c.14,.01,.22,.06,.22,.12,0,.07-.06,.14-.23,.25v1.09h.71c.23,0,.54-.01,.72-.02v1.07h-.72s-.41-.01-.41-.01l.9,.23c.12,.04,.22,.12,.22,.21,0,.1-.05,.12-.31,.18-.13,.36-.25,.68-.35,.95h.91c-.02-.78-.04-1.67-.04-2.69,0-.8-.02-1.26-.07-1.47l1.21,.13c.13,.01,.19,.06,.19,.13,0,.08-.07,.16-.24,.24-.01,.4-.01,.68-.01,2.07,0,.36,.01,.95,.05,1.58h.38c.48,0,1.26-.01,1.67-.02v1.09c-.44-.01-1.21-.02-1.67-.02h-.34Zm-3.09-1.04c.17-.5,.3-1.03,.38-1.56h-1.34c.18,.42,.34,.83,.46,1.27l-.8,.29h1.31Zm.3,2.47h-1.01v.41h1.01v-.41Zm0,1.25h-1.01v.43h1.01v-.43Zm3.67-6.63c.46,.71,.72,1.25,.95,1.86l-.96,.45c-.2-.66-.52-1.34-.86-1.9l.88-.41Z"/></g><g><path class="cls-1" d="M51.12,159.15c.35-.17,.71-.35,1.16-.6l.17,1.09c-.52,.29-.94,.52-1.33,.72,0,.44,0,1.29,.02,2.47v.19c0,.63-.05,.92-.19,1.12-.28,.37-.76,.48-2.11,.49-.04-.48-.13-.91-.26-1.27,.4,.04,.62,.05,.89,.05,.46,0,.5-.05,.5-.5v-1.99c-.17,.07-.35,.14-.54,.23l-.06,.14c-.04,.08-.08,.13-.16,.13s-.13-.05-.17-.13l-.53-1.15c.6-.2,1.06-.36,1.45-.5v-2.52h-.32c-.32,0-.7,.01-.95,.03v-1.14c.26,.01,.7,.03,.95,.03h.32c-.01-1.33-.04-2.15-.07-2.45l1.28,.08c.11,.01,.18,.06,.18,.12,0,.07-.06,.13-.22,.23-.01,.43-.01,1.21-.02,2.02h.25c.25,0,.68-.01,.96-.03v1.14c-.26-.01-.64-.03-.96-.03h-.25v2.04Zm1.28,1.79v-1.12c.67,.03,1.35,.04,2.03,.05,.22-.46,.42-.91,.58-1.38h-.42c-.62,0-1.42,.02-2.18,.05v-1.12c.7,.02,1.39,.04,2.09,.04-.17-.47-.37-.91-.62-1.33l.64-.34h-.36c-.4,0-1.07,.01-1.44,.02v-1.13c.36,.02,.98,.04,1.44,.04h1.32v-1.15s1.16,.08,1.16,.08c.13,.01,.22,.06,.22,.12,0,.07-.06,.14-.23,.24v.71h1.38c.46,0,1.08-.01,1.43-.04v1.13c-.36-.01-1.03-.02-1.43-.02h-.06l.47,.22c.07,.04,.12,.08,.12,.13,0,.08-.06,.12-.32,.17-.33,.6-.52,.91-.65,1.15,.74,0,1.5-.01,2.25-.04v1.12c-.8-.04-1.5-.05-2.4-.05h-1.5l.43,.14c.07,.03,.13,.08,.13,.16,0,.1-.1,.14-.36,.19-.17,.32-.31,.62-.44,.89h1.74c.89,0,1.67-.02,2.4-.05v1.12c-.48-.01-.95-.04-1.43-.04-.28,.55-.6,1.09-1,1.58l.17,.07c.8,.37,1.27,.64,2.08,1.15l-.67,.97c-.46-.31-.92-.63-1.42-.9-.31-.17-.64-.34-.95-.49-.98,.8-2.28,1.22-4.44,1.4-.07-.39-.18-.67-.42-1.08,2.01-.16,2.94-.36,3.72-.86-.37-.16-.76-.29-1.14-.41-.11,.19-.23,.37-.35,.56l-.97-.54c.34-.47,.64-.96,.91-1.46l-1.5,.04Zm2.41,.56c.52,.16,1.01,.31,1.51,.52,.32-.34,.59-.72,.8-1.13h-1.99l-.32,.61Zm1.56-4.04c.3-.53,.52-1.1,.73-1.67h-2.22c.31,.43,.54,.89,.74,1.37l-.61,.3h1.36Z"/><path class="cls-1" d="M62.38,155.76v.28c0,.28,.01,.71,.04,1.05h-1.27c.02-.39,.04-.76,.04-1.05v-.47c0-.25-.01-.48-.02-.91,.61,.02,1.56,.05,2.38,.05h2.13v-1.14s1.16,.08,1.16,.08c.14,.01,.22,.05,.22,.12s-.06,.14-.23,.24v.7h2.16c.82,0,1.76-.02,2.37-.05-.01,.43-.01,.66-.01,.91v.5c0,.3,.01,.65,.02,1.04h-1.27c.02-.35,.04-.77,.04-1.04v-.31h-4.67l.43,.18c.1,.04,.16,.1,.16,.16,0,.07-.06,.11-.29,.14-.12,.16-.23,.31-.33,.46h3l.14-.17,.9,.81c.08,.07,.12,.13,.12,.19,0,.12-.1,.18-.44,.24-.58,.53-1.18,1.03-1.81,1.46,1.21,.48,2.29,.74,4.58,1.13-.22,.39-.36,.75-.48,1.13-.56-.11-1.28-.26-2.03-.46-.01,.24-.02,.62-.02,.96v1.36c0,.56,.01,.97,.04,1.25h-1.17v-.3h-3.97v.37h-1.19c.02-.29,.04-.68,.04-1.27v-1.4c0-.24,0-.5-.01-.72-.59,.21-1.27,.43-2.1,.68-.12-.38-.26-.7-.53-1.12,1.99-.49,3.48-.99,4.75-1.62-.06-.05-.11-.08-.17-.13-.35-.29-.58-.53-.94-.97-.67,.61-1.39,1.12-2.29,1.62-.35-.63-.37-.66-.64-.96,1.66-.96,2.64-1.8,3.49-3.02h-2.31Zm6.67,5.19c-.26-.07-.54-.15-.8-.23-.67-.19-1.36-.48-1.98-.83-.18,.1-.37,.2-.56,.3-.53,.28-1.06,.5-1.69,.75h5.04Zm-.8,1.01h-3.97v1.33h3.97v-1.33Zm-3.15-4.27c.35,.36,.73,.7,1.14,.98,.48-.3,.95-.62,1.38-.98h-2.52Z"/><path class="cls-1" d="M78.74,162.57c0,.91,.01,1.68,.04,2.11h-1.17c.02-.47,.04-1.14,.04-2.11v-.63c-.7,.61-1.15,.92-1.92,1.34-.91,.49-1.54,.74-2.75,1.12-.2-.54-.23-.6-.5-1.06,1.81-.48,3.07-1.03,4.14-1.8h-1.52c-.62,0-1.4,.01-1.91,.04v-1.02c.5,.02,1.28,.04,1.91,.04h2.55v-.59h-1.54c-.61,0-1.4,.01-1.91,.04v-1.01c.5,.01,1.29,.04,1.91,.04h1.54v-.56h-2.12c-.62,0-1.42,.02-1.92,.05v-1.02c.5,.03,1.29,.04,1.92,.04h.73c-.14-.36-.32-.7-.53-1.02h-.49c-.66,0-1.74,.01-2.39,.04v-1.09c.54,.03,1.42,.04,2.09,.04-.24-.4-.42-.62-.88-1.13l.82-.64c.67,.64,.84,.83,1.28,1.55l-.34,.22h.89v-1.94s1.12,.08,1.12,.08c.14,.01,.23,.05,.23,.12s-.07,.14-.24,.24v1.5h.88v-1.18c0-.32,0-.59-.01-.77l1.14,.08c.13,.01,.22,.05,.22,.12s-.07,.14-.24,.24v1.5h.48c.37-.74,.49-1.09,.65-1.73l1.16,.42c.07,.02,.13,.08,.13,.13,0,.08-.04,.11-.28,.19q-.07,.14-.36,.73c-.04,.07-.08,.16-.14,.25,.73,0,1.64-.01,2.21-.04v1.09c-.64-.02-1.66-.04-2.39-.04h-.78c.16,.05,.19,.11,.19,.16,0,.07-.06,.11-.26,.17q-.08,.15-.36,.7h.94c.55,0,1.39-.01,1.91-.04v1.02c-.52-.02-1.35-.05-1.91-.05h-2.23v.56h1.63c.55,0,1.4-.02,1.92-.04v1.01c-.52-.02-1.37-.04-1.92-.04h-1.63v.59h2.7c.55,0,1.39-.01,1.91-.04v1.02c-.52-.02-1.35-.04-1.91-.04h-1.78c1.1,.78,2.34,1.26,4.25,1.68-.28,.44-.34,.58-.54,1.09-1.2-.3-2.03-.62-3.03-1.16-.64-.36-1-.61-1.6-1.18v.6Zm.18-5c.16-.34,.31-.67,.42-1.02h-2.43c.23,.31,.41,.66,.55,1.02h1.46Z"/></g><g><path class="cls-1" d="M306.78,108.11c.41,1.37,.84,2.23,1.54,3.14,.83,1.09,1.61,1.69,3.45,2.7-.37,.32-.54,.53-.85,1-1.64-.9-2.64-1.74-3.54-2.95-.55-.74-.92-1.45-1.24-2.39-.11,.43-.24,.8-.4,1.18-.52,1.2-1.34,2.23-2.42,3.01-.65,.46-1.21,.75-2.35,1.21-.17-.44-.28-.64-.61-1.04,1.56-.63,2.38-1.16,3.17-2,.94-.98,1.45-2.18,1.67-3.85h-1.99c-.66,0-1.74,.02-2.39,.05v-1.21c.61,.04,1.7,.05,2.39,.05h2.1c.02-.53,.04-1.31,.05-3l1.24,.13c.17,.02,.28,.1,.28,.19,0,.08-.07,.13-.28,.21-.01,.96-.05,1.78-.08,2.47h2.55c.76,0,1.77-.01,2.39-.05v1.21c-.64-.02-1.66-.05-2.39-.05h-2.28Z"/><path class="cls-1" d="M318.69,111.21c.01,.47,.02,1.09,.05,2.13v.18c0,.66-.13,.98-.47,1.19-.37,.22-.71,.25-2.18,.26-.02-.54-.06-.76-.19-1.33,.5,.04,.77,.05,1.13,.05,.44,0,.49-.05,.49-.5v-1.98h-2.57c-.66,0-1.74,.02-2.39,.05v-1.2c.62,.04,1.7,.05,2.39,.05h2.57v-1.46h-2.05c-.6,0-1.64,.02-2.16,.04v-1.17c.49,.01,1.54,.04,2.16,.04h2.05v-1.55c-.91,.11-1.62,.14-4.07,.28-.1-.5-.17-.74-.32-1.12,3.74-.08,6.48-.46,8.56-1.14l.78,.81q.11,.1,.11,.14c0,.08-.06,.12-.17,.12-.07,0-.16,0-.24-.01-1.15,.34-2.22,.58-3.48,.76v1.7h2.08c.66,0,1.62-.02,2.15-.04v1.17c-.56-.02-1.51-.04-2.15-.04h-2.08v1.46h2.57c.75,0,1.77-.01,2.39-.05v1.2c-.64-.03-1.66-.05-2.39-.05h-2.57Z"/><path class="cls-1" d="M326.58,109.36c0-.95-.01-1.45-.04-1.8l1.25,.08c.13,0,.2,.05,.2,.12s-.06,.13-.23,.24v5.36h2.06v-7.62h-2.6c-.59,0-1.63,.02-2.15,.05v-1.19c.49,.02,1.54,.04,2.15,.04h5.82c.66,0,1.62-.01,2.15-.04v1.19c-.56-.03-1.51-.05-2.15-.05h-2.03v3.02h2.29c.25,0,.7-.01,.96-.03v1.14c-.25-.01-.64-.03-.96-.03h-2.29v3.5h2.24c.75,0,1.77-.02,2.39-.05v1.19c-.64-.02-1.66-.05-2.39-.05h-6.31c-.66,0-1.74,.03-2.39,.05v-1.19c.52,.02,1.35,.04,2.01,.05v-4.01Z"/><path class="cls-1" d="M337.54,107.1h-.95s0-1.12,0-1.12c.26,.01,.7,.02,.95,.02h.78v-1.02c0-.54,0-.68-.01-1.1l1.18,.07c.13,.01,.22,.06,.22,.12,0,.08-.07,.14-.24,.24v1.69h.74l.14-.19,.71,.62s.1,.13,.1,.19c0,.1-.04,.13-.28,.19-.23,.49-.47,.97-.74,1.43-.2,.33-.43,.65-.67,.97v.19c.72,.41,1.09,.68,1.91,1.43l-.8,.96c-.48-.53-.79-.86-1.1-1.14v1.85c0,1.1,.01,1.92,.04,2.46h-1.21c.02-.54,.04-1.36,.04-2.46v-2.01c-.62,.65-.9,.88-1.61,1.4-.04-.1-.07-.18-.1-.24-.06-.17-.19-.46-.38-.86,1.69-1.31,2.54-2.24,3.29-3.69h-1.98Zm6,1.61h-1.03c-.4,0-1.08,.02-1.44,.04v-1.16c.36,.02,.97,.04,1.44,.04h1.03v-1.8c0-.95-.01-1.45-.04-1.8l1.25,.08c.13,.01,.2,.05,.2,.12s-.06,.13-.23,.24v1.36s-.01,1.8-.01,1.8h1.32c.47,0,1.08-.01,1.44-.04v1.16c-.37-.01-1.04-.04-1.44-.04h-1.32v4.89h1.28c.48,0,1.26-.01,1.68-.04v1.16c-.44-.01-1.22-.02-1.68-.02h-4.16c-.5,0-1.17,.01-1.67,.02v-1.16c.46,.02,1.14,.04,1.67,.04h1.7v-4.89Z"/><path class="cls-1" d="M353.29,113.29c.1,.05,.14,.11,.14,.18,0,.12-.07,.16-.38,.18-1.29,.73-2.33,1.08-4.08,1.38-.1-.5-.19-.76-.46-1.1,1.7-.23,2.7-.52,3.85-1.09l.92,.46Zm-1.96-.14h-1.24c.02-.48,.04-1.18,.04-2.1v-1.58c0-.72-.01-1.52-.04-1.91,.48,.01,.94,.03,1.61,.03h4.85c.7,0,1.19-.01,1.68-.03q-.02,.4-.04,1.91v1.54c0,.96,.01,1.65,.04,2.11h-1.24v-.33h-5.66v.37Zm.42-5.95h-1.18c.02-.29,.04-.68,.04-1.27v-.55c0-.38-.01-.84-.04-1.06,.42,.01,.79,.03,1.32,.03h4.46c.54,0,.91-.01,1.33-.03-.02,.22-.04,.67-.04,1.06v.56c0,.56,.01,.97,.04,1.25h-1.19v-.29h-4.75v.3Zm5.24,1.34h-5.66v.55h5.66v-.55Zm-5.66,1.93h5.66v-.55h-5.66v.55Zm0,1.38h5.66v-.55h-5.66v.55Zm5.17-6.63h-4.75v.8h4.75v-.8Zm-1.02,7.59c1.28,.55,2.45,.84,4.27,1.09-.3,.38-.42,.61-.54,1.12-1.01-.16-1.39-.24-2.29-.52-1.04-.31-1.38-.44-2.13-.84l.7-.85Z"/><path class="cls-1" d="M297.5,125.62c.25,0,.68-.01,.95-.02v1.14c-.25-.01-.64-.02-.95-.02h-.38v1.41c.47-.2,.92-.43,1.44-.71l.17,1.09c-.6,.32-1.1,.58-1.61,.81v.52c0,.61,.01,1.4,.04,3.05v.11c0,.5-.1,.73-.4,.89-.34,.19-.64,.23-1.91,.24-.05-.48-.13-.91-.26-1.27,.38,.04,.62,.05,.89,.05,.44,0,.49-.05,.49-.5v-2.54c-.24,.1-.48,.2-.76,.31l-.06,.14c-.04,.1-.08,.13-.16,.13s-.13-.04-.17-.13l-.53-1.15c.66-.21,1.2-.39,1.67-.56v-1.88h-.48c-.32,0-.71,.01-.96,.02v-1.14c.26,.01,.7,.02,.96,.02h.48c-.01-1.39-.04-2.24-.07-2.55l1.28,.08c.11,.01,.18,.06,.18,.12,0,.07-.06,.13-.22,.23-.01,.46-.01,1.28-.02,2.12h.38Zm6.72,3.38c.46,0,1.07-.01,1.43-.03v1.1c-.36-.01-1.03-.02-1.43-.02h-1.21c.67,.86,1.51,1.5,2.89,2.22-.31,.36-.48,.6-.71,1.01-.95-.54-1.46-.94-2.15-1.63-.29-.29-.49-.52-.67-.78v1.16c0,.91,.01,1.68,.04,2.11h-1.2c.01-.47,.02-1.14,.02-2.11v-1.05c-.86,1.03-1.85,1.8-3.19,2.49-.19-.5-.35-.77-.62-1.05,1.4-.67,2.37-1.38,3.2-2.36h-1.04c-.4,0-1.07,.01-1.43,.02v-1.1c.36,.01,.97,.03,1.43,.03h1.66c-.01-.5-.01-1.02-.04-1.52l1.21,.08c.12,.01,.2,.06,.2,.12,0,.07-.07,.14-.23,.24-.02,.36-.01,.72-.01,1.08h1.85Zm.44-4.98c-2.39,.58-3.37,.74-6.01,1.02-.1-.39-.19-.68-.34-1.02,2.67-.21,4.08-.46,5.86-1.01l.79,.76s.07,.1,.07,.13c0,.07-.08,.12-.19,.12h-.19Zm-5.03,1.09c.41,.47,.85,1.15,1.21,1.87l-.97,.56c-.3-.68-.54-1.12-1.07-1.92l.83-.52Zm2.09-.42c.42,.53,.65,.92,1.1,1.94l-1.02,.48c-.41-1.03-.48-1.19-.95-1.98l.86-.44Zm.98,2.63c.62-.8,1.22-1.86,1.56-2.79l1.07,.48c.08,.04,.12,.08,.12,.13,0,.08-.08,.13-.3,.19-.6,1.21-.94,1.81-1.49,2.57l-.96-.58Z"/><path class="cls-1" d="M312.75,131.28c0,1.1,.01,1.92,.04,2.46h-1.22c.02-.54,.04-1.36,.04-2.46v-.88h-2.64c-.08,.54-.2,1.03-.35,1.39-.32,.86-.71,1.39-1.63,2.34-.18-.34-.49-.76-.7-.94,.76-.82,1.09-1.36,1.34-2.21,.2-.64,.34-1.7,.34-2.62v-2.75c-.01-1.14-.02-1.79-.04-1.94,.74,.04,1.57,.06,2.85,.06h3.44c.82,0,1.76-.02,2.39-.06q-.01,.37-.02,2.34v4.62c0,.31,.01,1.29,.02,2v.21c0,1.05-.38,1.27-2.19,1.27h-.31c-.04-.45-.1-.77-.23-1.27,.5,.04,.83,.05,1.09,.05,.38,0,.44-.07,.44-.5v-1.99h-2.66v.88Zm-1.15-3.72h-2.47v.84c0,.29-.01,.6-.04,.9h2.51v-1.74Zm0-2.72h-2.47v1.63h2.47v-1.63Zm3.81,1.63v-1.63h-2.66v1.63h2.66Zm0,2.83v-1.74h-2.66v1.74h2.66Z"/><path class="cls-1" d="M326.64,126.26q1.07,0,1.42-.01-.02,.22-.04,1.06v.49c.59,0,1.19-.02,1.6-.04v1.1c-.43-.02-1.03-.04-1.6-.05v.6c0,.45,.01,.6,.04,1.18h-1.14v-.25h-.95c.4,.48,.8,.85,1.37,1.25,.72,.52,1.36,.81,2.51,1.19-.29,.36-.38,.49-.44,.59q-.18,.36-.25,.48c-1.19-.49-1.8-.84-2.57-1.5-.41-.35-.71-.66-1-1.03v.39c0,1.1,.01,1.92,.04,2.46h-1.13c.02-.54,.04-1.36,.04-2.46v-1.37h-1.15v1.37c0,1.1,.01,1.92,.04,2.46h-1.13c.02-.54,.04-1.36,.04-2.46v-.36c-.32,.36-.67,.68-1.12,1.03-.59,.47-1.02,.76-2.35,1.5-.14-.41-.25-.6-.58-1.04,1.56-.67,2.66-1.43,3.65-2.49-.7,0-1.69,.01-2.3,.05v-1.1c.64,.02,1.69,.05,2.39,.05h.31v-.52h-1.33c-.66,0-1.74,.03-2.39,.05v-1.1c.61,.02,1.7,.05,2.39,.05h1.33v-.53h-1.26c-.36,0-1.07,.01-1.43,.03v-1.07c.35,.01,.97,.02,1.43,.02h1.26v-.63h-1.22c-.66,0-1.74,.01-2.39,.05v-1.1c.62,.02,1.7,.05,2.39,.05h.76c-.18-.42-.35-.71-.68-1.2l.95-.46c.43,.49,.68,.89,.95,1.41l-.47,.24h2.21c.32-.65,.44-.95,.62-1.61l1.15,.3c.1,.02,.16,.07,.16,.13,0,.07-.05,.11-.22,.18-.18,.38-.28,.6-.5,1h1.08c.75,0,1.79-.02,2.4-.05v1.1c-.64-.04-1.66-.05-2.4-.05h-1.51v.63h1.06Zm-2.11-.63h-1.15v.63h1.15v-.63Zm-1.15,1.65v.53h1.15v-.53h-1.15Zm1.15,1.54h-1.15v.52h1.15v-.52Zm1.06-1.01h1.33v-.53h-1.33v.53Zm0,1.01v.52h1.33v-.52h-1.33Z"/><path class="cls-1" d="M336.81,123.37c.17,.06,.24,.12,.24,.19,0,.1,0,.11-.29,.18,.61,.95,1.14,1.55,1.9,2.15,.89,.72,1.85,1.25,3.2,1.8q-.43,.52-.73,1.14c-1.55-.74-2.12-1.09-3.09-1.89-.9-.74-1.22-1.09-1.97-2.27-.59,.9-1.03,1.41-1.79,2.11-.96,.9-1.7,1.43-3.27,2.34-.28-.56-.4-.76-.71-1.13,1.39-.72,2.2-1.27,3.13-2.13,.94-.85,1.47-1.54,2.28-2.88l1.1,.4Zm-1.16,4.42c0-.55,0-.7-.02-1.12l1.28,.08c.13,.01,.22,.05,.22,.12s-.07,.14-.23,.24v1.95h1.7c.46,0,1.07-.01,1.43-.02v1.18c-.36-.02-1.03-.04-1.43-.04h-1.7v2.53h2.17c.76,0,1.78-.02,2.39-.05v1.23c-.64-.02-1.66-.04-2.39-.04h-5.91c-.66,0-1.74,.01-2.39,.04v-1.23c.52,.02,1.37,.04,2.04,.05v-2.76c0-.55,0-.7-.02-1.1l1.26,.07c.13,.01,.22,.06,.22,.12,0,.07-.07,.14-.24,.24v3.43h1.63v-4.93Z"/><path class="cls-1" d="M346.34,131.82h-1.17c.01-.48,.02-1.19,.02-2.11v-2.04c0-.73-.01-1.54-.02-1.91,.31,.01,.6,.01,1.02,.01h1.34v-1.01h-2.58c-.66,0-1.74,.02-2.39,.05v-1.2c.62,.04,1.7,.05,2.39,.05h6.31c.75,0,1.77-.01,2.39-.05v1.2c-.64-.03-1.66-.05-2.39-.05h-2.57v1.01h1.38c.41,0,.7,0,1.02-.01q-.02,.38-.04,1.91v1.87c0,.95,.01,1.65,.04,2.1h-1.19v-.36h-3.56v.54Zm-2.01,1.62v.61h-1.21c.02-.53,.05-1.36,.05-2.46v-3.63c0-1.37-.02-2.12-.06-2.49l1.27,.08c.12,0,.2,.05,.2,.12,0,.06-.07,.13-.24,.23q-.01,.34-.01,2.06v4.38h7.56v-4.38c0-1.37-.01-2.12-.05-2.49l1.27,.08c.12,0,.19,.05,.19,.12,0,.06-.06,.13-.23,.23q-.01,.34-.01,2.06v3.63c0,1.08,.01,1.93,.02,2.46h-1.2v-.61h-7.56Zm2.01-6.62v1.12h1.19v-1.12h-1.19Zm1.19,3.42v-1.26h-1.19v1.26h1.19Zm2.38-3.42h-1.21v1.12h1.21v-1.12Zm0,2.16h-1.21v1.26h1.21v-1.26Z"/><path class="cls-1" d="M357.95,131.38c0,1.22,.01,2.21,.05,2.81h-1.16c.02-.66,.05-1.59,.05-2.81v-.15c-.24,.1-.42,.15-.58,.21q-.75,.28-1.13,.43c-.08,.18-.13,.23-.2,.23-.06,0-.14-.06-.17-.13l-.42-1.12c.23-.05,.43-.1,.62-.14v-6.17c-.17,0-.34,.01-.47,.01v-1.05c.35,.01,.85,.02,1.2,.02h1.66c.35,0,.86-.01,1.2-.02v1.05c-.18-.01-.42-.01-.65-.01v6.84Zm-1.87-6.85v1.24h.8v-1.24h-.8Zm0,2.24v1.28h.8v-1.28h-.8Zm0,2.29v1.34c.26-.07,.54-.17,.8-.25v-1.09h-.8Zm7.6-.83c.01,.34,.02,.65,.05,.94,.02,.39,.07,.77,.13,1.13,.26-.48,.47-1.02,.67-1.71l.95,.37c.12,.05,.16,.08,.16,.16,0,.08-.02,.1-.26,.18-.31,.98-.67,1.73-1.17,2.39,.07,.19,.14,.37,.22,.56,.1,.25,.19,.38,.25,.38,.12,0,.26-.52,.35-1.27,.22,.12,.46,.25,.86,.43-.17,.89-.23,1.16-.35,1.55-.16,.48-.37,.7-.7,.7-.59,0-1.03-.45-1.44-1.44-.6,.59-1.27,1.01-2.51,1.61-.23-.42-.38-.61-.68-.92,.66-.26,1.15-.5,1.57-.77h-.89v-.24h-1.01v.61h-1.04c.01-.29,.02-.68,.02-1.28v-1.81c0-.38-.01-.84-.02-1.06,.26,.01,.5,.01,.86,.01h1.37c.36,0,.6,0,.86-.01-.01,.22-.02,.67-.02,1.06v1.47c0,.5,.01,.88,.02,1.15,.34-.23,.64-.48,.94-.79,.06-.06,.11-.11,.16-.17-.28-1.05-.36-2.13-.43-3.21h-2.75c-.5,0-1.17,.01-1.67,.02v-1.09c.25,.01,.58,.01,.91,.01-.12-.49-.23-.85-.38-1.31l.72-.24h-.95s0-1.05,0-1.05c.18,.01,.49,.02,.72,.02h.61v-.77c0-.34-.01-.6-.02-.77l1.1,.07c.14,.01,.22,.06,.22,.12,0,.07-.06,.14-.23,.25v1.09h.71c.23,0,.54-.01,.72-.02v1.07h-.72s-.41-.01-.41-.01l.9,.23c.12,.04,.22,.12,.22,.2,0,.1-.05,.12-.31,.18-.13,.36-.25,.68-.35,.95h.91c-.02-.78-.04-1.67-.04-2.69,0-.8-.02-1.26-.07-1.47l1.21,.13c.13,.01,.19,.06,.19,.13,0,.08-.07,.15-.24,.24-.01,.4-.01,.68-.01,2.08,0,.36,.01,.95,.05,1.58h.38c.48,0,1.26-.01,1.67-.02v1.09c-.44-.01-1.21-.02-1.67-.02h-.34Zm-3.09-1.04c.17-.5,.3-1.03,.38-1.56h-1.34c.18,.42,.34,.83,.46,1.27l-.8,.29h1.31Zm.3,2.47h-1.01v.41h1.01v-.41Zm0,1.25h-1.01v.43h1.01v-.43Zm3.67-6.63c.46,.71,.72,1.25,.95,1.86l-.96,.44c-.2-.66-.52-1.34-.86-1.89l.88-.41Z"/></g></g></g></svg>