<?xml version="1.0" encoding="UTF-8"?>
<svg id="_レイヤー_2" xmlns="http://www.w3.org/2000/svg" xmlns:xlink="http://www.w3.org/1999/xlink"
    viewBox="0 0 313.65 144">
    <defs>
        <style>
            .cls-1{fill:#fff;}.cls-2{fill:#333;}.cls-3{fill:url(#_新規グラデーションスウォッチ_1-17);}.cls-4{fill:url(#_新規グラデーションスウォッチ_1-14);}.cls-5{fill:url(#_新規グラデーションスウォッチ_1-11);}.cls-6{fill:url(#_新規グラデーションスウォッチ_1-16);}.cls-7{fill:url(#_新規グラデーションスウォッチ_1-13);}.cls-8{fill:url(#_新規グラデーションスウォッチ_1-10);}.cls-9{fill:url(#_新規グラデーションスウォッチ_1-12);}.cls-10{fill:url(#_新規グラデーションスウォッチ_1-15);}.cls-11{stroke:url(#_新規グラデーションスウォッチ_1-3);}.cls-11,.cls-12{fill:none;}.cls-11,.cls-12,.cls-13{stroke-miterlimit:10;stroke-width:2px;}.cls-12{stroke:url(#_新規グラデーションスウォッチ_1-4);}.cls-13{fill:url(#_新規グラデーションスウォッチ_1);stroke:url(#_新規グラデーションスウォッチ_1-2);}.cls-14{fill:url(#_新規グラデーションスウォッチ_1-9);}.cls-15{fill:url(#_新規グラデーションスウォッチ_1-6);}.cls-16{fill:url(#_新規グラデーションスウォッチ_1-5);}.cls-17{fill:url(#_新規グラデーションスウォッチ_1-7);}.cls-18{fill:url(#_新規グラデーションスウォッチ_1-8);}</style>
        <linearGradient id="_新規グラデーションスウォッチ_1" x1="527.3" y1="24.63" x2="721.17" y2="24.63"
            gradientTransform="translate(-408.53) skewX(-10)" gradientUnits="userSpaceOnUse">
            <stop offset="0" stop-color="#0d76a3" />
            <stop offset="0" stop-color="#0d74a2" />
            <stop offset=".18" stop-color="#10548a" />
            <stop offset=".37" stop-color="#133b78" />
            <stop offset=".56" stop-color="#152a6b" />
            <stop offset=".76" stop-color="#161f63" />
            <stop offset="1" stop-color="#171c61" />
        </linearGradient>
        <linearGradient id="_新規グラデーションスウォッチ_1-2" x1="109.07" x2="313.65"
            gradientTransform="matrix(1, 0, 0, 1, 0, 0)" xlink:href="#_新規グラデーションスウォッチ_1" />
        <linearGradient id="_新規グラデーションスウォッチ_1-3" x1="100.73" y1="71.9" x2="305.32" y2="71.9"
            gradientTransform="matrix(1, 0, 0, 1, 0, 0)" xlink:href="#_新規グラデーションスウォッチ_1" />
        <linearGradient id="_新規グラデーションスウォッチ_1-4" x1="92.38" y1="119.37" x2="296.97" y2="119.37"
            gradientTransform="matrix(1, 0, 0, 1, 0, 0)" xlink:href="#_新規グラデーションスウォッチ_1" />
        <linearGradient id="_新規グラデーションスウォッチ_1-5" x1="152.49" y1="71.91" x2="253.56" y2="71.91"
            gradientTransform="matrix(1, 0, 0, 1, 0, 0)" xlink:href="#_新規グラデーションスウォッチ_1" />
        <linearGradient id="_新規グラデーションスウォッチ_1-6" x1="152.49" y1="71.91" x2="253.56" y2="71.91"
            gradientTransform="matrix(1, 0, 0, 1, 0, 0)" xlink:href="#_新規グラデーションスウォッチ_1" />
        <linearGradient id="_新規グラデーションスウォッチ_1-7" x1="152.49" y1="71.91" x2="253.56" y2="71.91"
            gradientTransform="matrix(1, 0, 0, 1, 0, 0)" xlink:href="#_新規グラデーションスウォッチ_1" />
        <linearGradient id="_新規グラデーションスウォッチ_1-8" x1="152.49" y1="71.91" x2="253.56" y2="71.91"
            gradientTransform="matrix(1, 0, 0, 1, 0, 0)" xlink:href="#_新規グラデーションスウォッチ_1" />
        <linearGradient id="_新規グラデーションスウォッチ_1-9" x1="152.49" y1="71.91" x2="253.56" y2="71.91"
            gradientTransform="matrix(1, 0, 0, 1, 0, 0)" xlink:href="#_新規グラデーションスウォッチ_1" />
        <linearGradient id="_新規グラデーションスウォッチ_1-10" x1="152.49" y1="71.91" x2="253.56" y2="71.91"
            gradientTransform="matrix(1, 0, 0, 1, 0, 0)" xlink:href="#_新規グラデーションスウォッチ_1" />
        <linearGradient id="_新規グラデーションスウォッチ_1-11" x1="144.14" y1="119.37" x2="245.21" y2="119.37"
            gradientTransform="matrix(1, 0, 0, 1, 0, 0)" xlink:href="#_新規グラデーションスウォッチ_1" />
        <linearGradient id="_新規グラデーションスウォッチ_1-12" x1="144.14" y1="119.37" x2="245.21" y2="119.37"
            gradientTransform="matrix(1, 0, 0, 1, 0, 0)" xlink:href="#_新規グラデーションスウォッチ_1" />
        <linearGradient id="_新規グラデーションスウォッチ_1-13" x1="144.14" y1="119.37" x2="245.21" y2="119.37"
            gradientTransform="matrix(1, 0, 0, 1, 0, 0)" xlink:href="#_新規グラデーションスウォッチ_1" />
        <linearGradient id="_新規グラデーションスウォッチ_1-14" x1="144.14" y1="119.37" x2="245.21" y2="119.37"
            gradientTransform="matrix(1, 0, 0, 1, 0, 0)" xlink:href="#_新規グラデーションスウォッチ_1" />
        <linearGradient id="_新規グラデーションスウォッチ_1-15" x1="144.14" y1="119.37" x2="245.21" y2="119.37"
            gradientTransform="matrix(1, 0, 0, 1, 0, 0)" xlink:href="#_新規グラデーションスウォッチ_1" />
        <linearGradient id="_新規グラデーションスウォッチ_1-16" x1="144.14" y1="119.37" x2="245.21" y2="119.37"
            gradientTransform="matrix(1, 0, 0, 1, 0, 0)" xlink:href="#_新規グラデーションスウォッチ_1" />
        <linearGradient id="_新規グラデーションスウォッチ_1-17" x1="0" y1="16.26" x2="84.99" y2="16.26"
            gradientTransform="matrix(1, 0, 0, 1, 0, 0)" xlink:href="#_新規グラデーションスウォッチ_1" />
    </defs>
    <g id="_レイヤー_1-2">
        <g>
            <polygon class="cls-13" points="304.12 48.27 110.26 48.27 118.6 1 312.46 1 304.12 48.27" />
            <polygon class="cls-11"
                points="295.79 95.54 101.93 95.54 110.26 48.27 304.12 48.27 295.79 95.54" />
            <polygon class="cls-12"
                points="287.44 143 93.58 143 101.91 95.74 295.77 95.74 287.44 143" />
            <g>
                <path class="cls-1"
                    d="M159.1,21.41c-1.33,.24-2.41,.37-4.37,.54-.08-.7-.25-1.21-.54-1.67,4.13-.19,7.09-.85,8.91-1.96l1.31,1.28c.08,.08,.14,.17,.14,.25,0,.12-.12,.19-.34,.19l-.25-.02c-1.6,.59-2.36,.85-3.04,1v2.53h3.21c.7,0,1.8-.02,2.38-.03v1.75c-.63-.02-1.72-.05-2.38-.05h-3.25c-.08,1.6-.32,2.48-.9,3.54-.82,1.48-2.01,2.5-4.25,3.57-.32-.7-.46-.88-1.04-1.58,2.87-1.22,4.23-2.92,4.39-5.52h-3.74c-.73,0-1.68,.02-2.38,.05v-1.75c.65,.02,1.62,.03,2.38,.03h3.77v-2.16Z" />
                <path class="cls-1"
                    d="M177.1,27.99q.66,2.55,.9,3.37c.02,.05,.12,.37,.14,.48l-1.72,.46c-.07-.41-.48-2.46-.88-4.06l-.66-2.55-.41,.1c-1.12,.25-1.44,.34-2.72,.7-.12,.03-.15,.03-.34,.08l-.53-1.56c1.14-.2,1.6-.29,3.64-.75q-.73-2.84-.95-3.42l1.7-.19c.25-.03,.37,.08,.37,.22,0,.1-.05,.19-.19,.36q.05,.34,.59,2.67l4.66-1.12,.22-.29,1.34,.95c.17,.12,.2,.17,.2,.27,0,.17-.02,.19-.36,.32-.82,1.72-1.38,2.48-2.87,3.93-.44-.56-.46-.58-1.19-1.17,1.05-.83,1.56-1.39,2.19-2.46l-3.84,.99,.7,2.69Z" />
                <path class="cls-1"
                    d="M188.9,29.57q.17-.61,.2-3.16v-3.96c0-1.31-.03-2.04-.07-2.55l1.94,.12c.19,.02,.29,.07,.29,.17s-.08,.19-.32,.34q-.02,.82-.02,1.92v5.95c3.54-1.33,6.78-3.23,8.92-5.27,.22,.87,.34,1.22,.66,1.79-1.58,1.27-2.58,1.95-4.42,3.01-2.04,1.17-3.21,1.72-5.34,2.46-.07,.24-.15,.34-.25,.34-.07,0-.19-.05-.25-.1l-1.34-1.05Z" />
                <path class="cls-1"
                    d="M205.9,19.8c1.77,.92,2.41,1.39,3.59,2.69l-1.34,1.48c-1.22-1.36-2.11-2.07-3.37-2.75l1.12-1.41Zm-.65,9.59c2.57-1.09,4.03-1.92,5.97-3.38,2.26-1.73,3.59-3.08,5.34-5.46,.34,.59,.63,.97,1.17,1.62-2.24,2.7-3.5,3.94-5.49,5.44-1.67,1.26-2.92,2.02-5.34,3.25-.07,.24-.14,.36-.25,.36-.08,0-.22-.08-.29-.2l-1.11-1.62Z" />
                <path class="cls-1"
                    d="M222.17,22.31c1.41,.77,2.04,1.24,3.13,2.28l-1.27,1.51q-1.53-1.41-2.92-2.33l1.07-1.46Zm.24,7.56c1.87-.83,4.03-2.16,5.97-3.71,1.99-1.56,3.6-3.2,5.1-5.1,.44,.61,.6,.8,1.28,1.48-3.35,3.91-5.27,5.51-10.57,8.81-.07,.24-.15,.36-.27,.36-.08,0-.2-.08-.31-.22l-1.19-1.62Zm2.46-11.22c1.27,.76,1.87,1.24,3.06,2.46l-1.26,1.41c-1.05-1.09-1.9-1.84-2.89-2.48l1.09-1.39Zm6.9-.66c.8,.49,1.33,.9,2.16,1.7l-.85,.92c-.8-.83-1.17-1.16-2.06-1.75l.75-.87Zm1.33-1.55c.8,.49,1.33,.9,2.14,1.7l-.85,.93c-.78-.83-1.16-1.17-2.04-1.77l.75-.87Z" />
                <path class="cls-1"
                    d="M245.73,17.51c.24,.08,.34,.17,.34,.27,0,.14,0,.15-.41,.25,.87,1.34,1.62,2.19,2.69,3.04,1.26,1.02,2.62,1.77,4.54,2.55q-.61,.73-1.04,1.61c-2.19-1.05-3.01-1.55-4.38-2.69-1.28-1.05-1.73-1.55-2.79-3.21-.83,1.28-1.46,2.01-2.53,2.99-1.36,1.27-2.41,2.02-4.64,3.31-.39-.8-.56-1.07-1-1.6,1.97-1.02,3.11-1.8,4.44-3.03,1.33-1.21,2.09-2.18,3.23-4.08l1.56,.56Zm-1.65,6.27c0-.78,0-.99-.03-1.58l1.82,.12c.19,.02,.31,.07,.31,.17s-.1,.2-.32,.34v2.77h2.41c.65,0,1.51-.02,2.02-.03v1.67c-.51-.03-1.46-.05-2.02-.05h-2.41v3.59h3.08c1.07,0,2.52-.03,3.38-.07v1.75c-.9-.03-2.35-.05-3.38-.05h-8.38c-.93,0-2.46,.02-3.38,.05v-1.75c.73,.03,1.94,.05,2.89,.07v-3.91c0-.78,0-.99-.03-1.56l1.78,.1c.19,.02,.31,.08,.31,.17,0,.1-.1,.2-.34,.34v4.86h2.31v-6.99Z" />
                <path class="cls-1"
                    d="M262.44,29.83c0,1.29,.02,2.38,.05,2.99h-1.67c.03-.66,.05-1.62,.05-2.99v-.9c-.99,.87-1.63,1.31-2.72,1.9-1.29,.7-2.18,1.05-3.89,1.58-.29-.76-.32-.85-.71-1.5,2.57-.68,4.35-1.46,5.86-2.55h-2.16c-.88,0-1.99,.02-2.7,.05v-1.44c.71,.03,1.82,.05,2.7,.05h3.62v-.83h-2.18c-.87,0-1.99,.02-2.7,.05v-1.43c.71,.02,1.84,.05,2.7,.05h2.18v-.8h-3.01c-.88,0-2.01,.03-2.72,.07v-1.45c.71,.03,1.84,.05,2.72,.05h1.04c-.2-.51-.46-.99-.75-1.45h-.7c-.93,0-2.46,.02-3.38,.05v-1.55c.77,.03,2.01,.05,2.96,.05-.34-.56-.59-.88-1.24-1.6l1.16-.9c.95,.9,1.19,1.17,1.82,2.19l-.48,.31h1.26v-1.67l-.02-1.09,1.6,.12c.2,.02,.32,.07,.32,.17s-.1,.2-.34,.34v2.12h1.24v-1.67c0-.46,0-.83-.02-1.09l1.61,.12c.19,.02,.31,.07,.31,.17s-.1,.2-.34,.34v2.12h.68c.53-1.05,.7-1.55,.92-2.45l1.65,.59c.1,.03,.19,.12,.19,.19,0,.12-.05,.15-.39,.27q-.1,.2-.51,1.04c-.05,.1-.12,.22-.2,.36,1.04,0,2.33-.02,3.13-.05v1.55c-.9-.03-2.35-.05-3.38-.05h-1.1c.22,.07,.27,.15,.27,.22,0,.1-.08,.15-.37,.24q-.12,.22-.51,.99h1.33c.78,0,1.97-.02,2.7-.05v1.45c-.73-.03-1.92-.07-2.7-.07h-3.16v.8h2.31c.78,0,1.99-.03,2.72-.05v1.43c-.73-.03-1.94-.05-2.72-.05h-2.31v.83h3.83c.78,0,1.97-.02,2.7-.05v1.44c-.73-.03-1.92-.05-2.7-.05h-2.52c1.56,1.11,3.32,1.79,6.02,2.38-.39,.63-.48,.82-.76,1.55-1.7-.42-2.87-.88-4.3-1.65-.9-.51-1.41-.87-2.26-1.67v.85Zm.25-7.09c.22-.48,.44-.95,.6-1.45h-3.45c.32,.44,.58,.93,.78,1.45h2.07Z" />
            </g>
            <g>
                <g>
                    <path class="cls-2"
                        d="M161.86,75.26c.48,.49,1.04,.9,1.77,1.29,1.22,.65,2.57,1.04,5.01,1.46-.37,.48-.53,.7-.61,.87q-.27,.54-.39,.73c-2.45-.51-3.96-1.09-5.3-1.99-.88-.6-1.51-1.19-2.04-1.97-.17,.31-.34,.58-.54,.83-1.29,1.61-3.55,2.79-6.51,3.35-.25-.71-.37-.94-.75-1.5,2.41-.48,4.23-1.17,5.24-2.01,.36-.31,.66-.65,.94-1.07h-2.7c-.85,0-2.33,.03-3.06,.07v-1.7c.7,.02,2.18,.05,3.06,.05h3.37c.08-.31,.14-.61,.19-.93h-2.46c-.56,0-1.53,.02-2.04,.03v-1.6c.51,.02,1.38,.03,2.04,.03h2.63c.02-.27,.02-.54,.03-.82h-2.77c-.71,0-1.67,.02-2.38,.03v-1.6c.66,.03,1.63,.05,2.38,.05h2.77c-.02-.76-.03-1.29-.07-1.75l1.7,.19c.22,.02,.36,.12,.36,.24,0,.1-.1,.19-.36,.29v1.04h2.74c.7,0,1.79-.02,2.38-.05v1.6c-.63-.02-1.72-.03-2.38-.03h-2.74v.17c0,.22,0,.44-.02,.65h2.67c.65,0,1.53-.02,2.04-.03v1.6c-.53-.02-1.48-.03-2.04-.03h-2.8c-.03,.31-.1,.63-.17,.93h4.1c.94,0,2.28-.03,3.04-.05v1.7c-.8-.03-2.14-.07-3.04-.07h-3.26Zm-2.16-10.15c0-.46,0-.83-.02-1.09l1.72,.12c.19,.02,.31,.07,.31,.17s-.08,.2-.32,.34v.95h3.2c1.16,0,2.48-.03,3.37-.09-.03,.61-.03,.94-.03,1.31v.44c0,.37,.02,.82,.05,1.31h-1.77c.03-.43,.05-.97,.05-1.31v-.22h-11.51v.22c0,.34,.02,.88,.05,1.31h-1.77c.03-.49,.05-.94,.05-1.31v-.44c0-.37,0-.68-.03-1.31,.88,.05,2.21,.09,3.38,.09h3.28v-.49Z" />
                    <path class="cls-2"
                        d="M177.67,69.41c-.22,2.41-.63,3.96-1.29,5.29-.85,1.65-2.02,2.86-3.86,3.94-.54,.32-.9,.53-1.82,.99l-.17-.31c-.32-.61-.41-.75-.88-1.27,4.11-1.87,5.73-3.86,6.2-8.6l-2.4,.05c-1.67,.03-1.94,.03-3.06,.08l-.03-1.75c.25,.02,1.28,.03,3.04,.03l2.57-.03,.05-2.38c0-.41,0-.92-.03-1.28l1.94,.15c.29,.02,.46,.12,.46,.29,0,.15-.12,.25-.51,.48-.02,1-.05,1.89-.1,2.7l5.01-.08,.27-.32,1.26,1c.17,.12,.2,.2,.2,.31,0,.14-.03,.19-.37,.34-.02,.93-.03,1.36-.03,2.01-.03,4.67-.34,6.58-1.22,7.46-.73,.73-1.39,.87-4.4,.88-.12-.87-.24-1.28-.53-1.92l.31,.02c.44,.02,.9,.02,1.39,.02,1.43,0,1.82-.15,2.14-.85,.39-.85,.54-2.89,.59-7.34l-4.73,.1Z" />
                    <path class="cls-2"
                        d="M190.69,70.91c.83,.56,1.51,1.11,2.23,1.82l-.97,1.51c-.36-.48-.82-.99-1.26-1.41v2.06c0,2.23,.03,3.88,.08,4.96h-1.77c.05-1.1,.08-2.77,.08-4.96v-1.51c-.1,.27-.19,.53-.32,.83-.46,1.12-.8,1.77-1.45,2.79-.49-.97-.65-1.24-.99-1.67,1.16-1.7,1.92-3.62,2.5-6.17h-.85c-.46,0-1,.02-1.36,.03v-1.61c.37,.02,.99,.03,1.36,.03h1.11c-.02-1.89-.05-3.06-.1-3.48l1.79,.14c.15,0,.25,.07,.25,.17,0,.09-.08,.19-.31,.32-.02,.49-.02,.58-.03,2.86h.95c.37,0,.99-.02,1.36-.03v1.61c-.36-.02-.9-.03-1.36-.03h-.95v1.75Zm4.76,8.64h-1.67c.03-.68,.05-1.67,.05-2.99v-8.74c0-1.02-.03-2.16-.05-2.7,.31,.03,.59,.03,1,.03h5.86c.39,0,.68,0,1-.03q-.03,.56-.05,2.7v8.55c0,1.34,.02,2.35,.05,2.97h-1.68v-.8h-4.52v1Zm4.52-10.5v-2.33h-4.52v2.33h4.52Zm-4.52,4.01h4.52v-2.45h-4.52v2.45Zm0,3.93h4.52v-2.36h-4.52v2.36Z" />
                    <path class="cls-2"
                        d="M215.65,66c1.05,0,2.52-.02,3.4-.07v1.67c-.88-.05-2.41-.07-3.4-.07h-9.49v4.1c0,3.4-.58,5.71-1.94,7.84-.48-.77-.54-.88-1.02-1.43,.88-1.55,1.28-3.52,1.28-6.53v-4.03c0-.53-.02-1.17-.05-1.5,.58,.02,1.14,.02,1.87,.02h4.39v-.92c0-.48-.02-.85-.03-1.11l1.75,.12c.2,.02,.31,.07,.31,.17,0,.12-.08,.22-.34,.34v1.39h3.28Zm-6.8,6.82c.1,.03,.17,.1,.17,.19,0,.1-.05,.15-.29,.22-.46,2.48-.66,3.14-1.48,4.74-.7-.61-.78-.68-1.34-.97,.8-1.53,1.14-2.75,1.34-4.64l1.6,.46Zm2.4-2.28c.15,0,.27,.1,.27,.2,0,.12-.1,.2-.36,.31-.02,.22-.03,.46-.03,.73v5.27c0,.41,.08,.53,.39,.59,.2,.03,.99,.1,1.36,.1,2.24,0,2.33-.08,2.33-2.58,.83,.24,1.12,.31,1.63,.39-.05,2.21-.27,2.96-.99,3.35-.6,.34-1.21,.42-3.33,.42-2.57,0-3.03-.31-3.03-2.01v-5.37c0-.9-.02-1.31-.05-1.56l1.8,.15Zm.58-2.7c1.26,.87,2.07,1.63,3.15,2.96l-1.28,1.11c-.97-1.39-1.61-2.07-2.84-3.06l.97-1Zm4.69,3.98c1.48,1.41,2.46,2.77,3.23,4.49l-1.43,.99c-.75-1.73-1.6-3.08-2.89-4.54l1.09-.93Z" />
                    <path class="cls-2"
                        d="M229.52,64.52c.24,.08,.34,.17,.34,.27,0,.14,0,.15-.41,.25,.87,1.34,1.62,2.19,2.69,3.04,1.26,1.02,2.62,1.77,4.54,2.55q-.61,.73-1.04,1.61c-2.19-1.05-3.01-1.55-4.38-2.69-1.28-1.05-1.73-1.55-2.79-3.21-.83,1.28-1.46,2.01-2.53,2.99-1.36,1.27-2.41,2.02-4.64,3.31-.39-.8-.56-1.07-1-1.6,1.97-1.02,3.11-1.8,4.44-3.03,1.33-1.21,2.09-2.18,3.23-4.08l1.56,.56Zm-1.65,6.27c0-.78,0-.99-.03-1.58l1.82,.12c.19,.02,.31,.07,.31,.17s-.1,.2-.32,.34v2.77h2.41c.65,0,1.51-.02,2.02-.03v1.67c-.51-.03-1.46-.05-2.02-.05h-2.41v3.59h3.08c1.07,0,2.52-.03,3.38-.07v1.75c-.9-.03-2.35-.05-3.38-.05h-8.38c-.93,0-2.46,.02-3.38,.05v-1.75c.73,.03,1.94,.05,2.89,.07v-3.91c0-.78,0-.99-.03-1.56l1.78,.1c.19,.02,.31,.08,.31,.17,0,.1-.1,.2-.34,.34v4.86h2.31v-6.99Z" />
                    <path class="cls-2"
                        d="M246.23,76.84c0,1.29,.02,2.38,.05,2.99h-1.67c.03-.66,.05-1.62,.05-2.99v-.9c-.99,.87-1.63,1.31-2.72,1.9-1.29,.7-2.18,1.05-3.89,1.58-.29-.76-.32-.85-.71-1.5,2.57-.68,4.35-1.46,5.86-2.55h-2.16c-.88,0-1.99,.02-2.7,.05v-1.44c.71,.03,1.82,.05,2.7,.05h3.62v-.83h-2.18c-.87,0-1.99,.02-2.7,.05v-1.43c.71,.02,1.84,.05,2.7,.05h2.18v-.8h-3.01c-.88,0-2.01,.03-2.72,.07v-1.45c.71,.03,1.84,.05,2.72,.05h1.04c-.2-.51-.46-.99-.75-1.45h-.7c-.93,0-2.46,.02-3.38,.05v-1.55c.77,.03,2.01,.05,2.96,.05-.34-.56-.59-.88-1.24-1.6l1.16-.9c.95,.9,1.19,1.17,1.82,2.19l-.48,.31h1.26v-1.67l-.02-1.09,1.6,.12c.2,.02,.32,.07,.32,.17s-.1,.2-.34,.34v2.12h1.24v-1.67c0-.46,0-.83-.02-1.09l1.61,.12c.19,.02,.31,.07,.31,.17s-.1,.2-.34,.34v2.12h.68c.53-1.05,.7-1.55,.92-2.45l1.65,.59c.1,.03,.19,.12,.19,.19,0,.12-.05,.15-.39,.27q-.1,.2-.51,1.04c-.05,.1-.12,.22-.2,.36,1.04,0,2.33-.02,3.13-.05v1.55c-.9-.03-2.35-.05-3.38-.05h-1.1c.22,.07,.27,.15,.27,.22,0,.1-.08,.15-.37,.24q-.12,.22-.51,.99h1.33c.78,0,1.97-.02,2.7-.05v1.45c-.73-.03-1.92-.07-2.7-.07h-3.16v.8h2.31c.78,0,1.99-.03,2.72-.05v1.43c-.73-.03-1.94-.05-2.72-.05h-2.31v.83h3.83c.78,0,1.97-.02,2.7-.05v1.44c-.73-.03-1.92-.05-2.7-.05h-2.52c1.56,1.11,3.32,1.79,6.02,2.38-.39,.63-.48,.82-.76,1.55-1.7-.42-2.87-.88-4.3-1.65-.9-.51-1.41-.87-2.26-1.67v.85Zm.25-7.09c.22-.48,.44-.95,.59-1.45h-3.45c.32,.44,.58,.93,.78,1.45h2.07Z" />
                </g>
                <g>
                    <path class="cls-16"
                        d="M161.86,75.26c.48,.49,1.04,.9,1.77,1.29,1.22,.65,2.57,1.04,5.01,1.46-.37,.48-.53,.7-.61,.87q-.27,.54-.39,.73c-2.45-.51-3.96-1.09-5.3-1.99-.88-.6-1.51-1.19-2.04-1.97-.17,.31-.34,.58-.54,.83-1.29,1.61-3.55,2.79-6.51,3.35-.25-.71-.37-.94-.75-1.5,2.41-.48,4.23-1.17,5.24-2.01,.36-.31,.66-.65,.94-1.07h-2.7c-.85,0-2.33,.03-3.06,.07v-1.7c.7,.02,2.18,.05,3.06,.05h3.37c.08-.31,.14-.61,.19-.93h-2.46c-.56,0-1.53,.02-2.04,.03v-1.6c.51,.02,1.38,.03,2.04,.03h2.63c.02-.27,.02-.54,.03-.82h-2.77c-.71,0-1.67,.02-2.38,.03v-1.6c.66,.03,1.63,.05,2.38,.05h2.77c-.02-.76-.03-1.29-.07-1.75l1.7,.19c.22,.02,.36,.12,.36,.24,0,.1-.1,.19-.36,.29v1.04h2.74c.7,0,1.79-.02,2.38-.05v1.6c-.63-.02-1.72-.03-2.38-.03h-2.74v.17c0,.22,0,.44-.02,.65h2.67c.65,0,1.53-.02,2.04-.03v1.6c-.53-.02-1.48-.03-2.04-.03h-2.8c-.03,.31-.1,.63-.17,.93h4.1c.94,0,2.28-.03,3.04-.05v1.7c-.8-.03-2.14-.07-3.04-.07h-3.26Zm-2.16-10.15c0-.46,0-.83-.02-1.09l1.72,.12c.19,.02,.31,.07,.31,.17s-.08,.2-.32,.34v.95h3.2c1.16,0,2.48-.03,3.37-.09-.03,.61-.03,.94-.03,1.31v.44c0,.37,.02,.82,.05,1.31h-1.77c.03-.43,.05-.97,.05-1.31v-.22h-11.51v.22c0,.34,.02,.88,.05,1.31h-1.77c.03-.49,.05-.94,.05-1.31v-.44c0-.37,0-.68-.03-1.31,.88,.05,2.21,.09,3.38,.09h3.28v-.49Z" />
                    <path class="cls-15"
                        d="M177.67,69.41c-.22,2.41-.63,3.96-1.29,5.29-.85,1.65-2.02,2.86-3.86,3.94-.54,.32-.9,.53-1.82,.99l-.17-.31c-.32-.61-.41-.75-.88-1.27,4.11-1.87,5.73-3.86,6.2-8.6l-2.4,.05c-1.67,.03-1.94,.03-3.06,.08l-.03-1.75c.25,.02,1.28,.03,3.04,.03l2.57-.03,.05-2.38c0-.41,0-.92-.03-1.28l1.94,.15c.29,.02,.46,.12,.46,.29,0,.15-.12,.25-.51,.48-.02,1-.05,1.89-.1,2.7l5.01-.08,.27-.32,1.26,1c.17,.12,.2,.2,.2,.31,0,.14-.03,.19-.37,.34-.02,.93-.03,1.36-.03,2.01-.03,4.67-.34,6.58-1.22,7.46-.73,.73-1.39,.87-4.4,.88-.12-.87-.24-1.28-.53-1.92l.31,.02c.44,.02,.9,.02,1.39,.02,1.43,0,1.82-.15,2.14-.85,.39-.85,.54-2.89,.59-7.34l-4.73,.1Z" />
                    <path class="cls-17"
                        d="M190.69,70.91c.83,.56,1.51,1.11,2.23,1.82l-.97,1.51c-.36-.48-.82-.99-1.26-1.41v2.06c0,2.23,.03,3.88,.08,4.96h-1.77c.05-1.1,.08-2.77,.08-4.96v-1.51c-.1,.27-.19,.53-.32,.83-.46,1.12-.8,1.77-1.45,2.79-.49-.97-.65-1.24-.99-1.67,1.16-1.7,1.92-3.62,2.5-6.17h-.85c-.46,0-1,.02-1.36,.03v-1.61c.37,.02,.99,.03,1.36,.03h1.11c-.02-1.89-.05-3.06-.1-3.48l1.79,.14c.15,0,.25,.07,.25,.17,0,.09-.08,.19-.31,.32-.02,.49-.02,.58-.03,2.86h.95c.37,0,.99-.02,1.36-.03v1.61c-.36-.02-.9-.03-1.36-.03h-.95v1.75Zm4.76,8.64h-1.67c.03-.68,.05-1.67,.05-2.99v-8.74c0-1.02-.03-2.16-.05-2.7,.31,.03,.59,.03,1,.03h5.86c.39,0,.68,0,1-.03q-.03,.56-.05,2.7v8.55c0,1.34,.02,2.35,.05,2.97h-1.68v-.8h-4.52v1Zm4.52-10.5v-2.33h-4.52v2.33h4.52Zm-4.52,4.01h4.52v-2.45h-4.52v2.45Zm0,3.93h4.52v-2.36h-4.52v2.36Z" />
                    <path class="cls-18"
                        d="M215.65,66c1.05,0,2.52-.02,3.4-.07v1.67c-.88-.05-2.41-.07-3.4-.07h-9.49v4.1c0,3.4-.58,5.71-1.94,7.84-.48-.77-.54-.88-1.02-1.43,.88-1.55,1.28-3.52,1.28-6.53v-4.03c0-.53-.02-1.17-.05-1.5,.58,.02,1.14,.02,1.87,.02h4.39v-.92c0-.48-.02-.85-.03-1.11l1.75,.12c.2,.02,.31,.07,.31,.17,0,.12-.08,.22-.34,.34v1.39h3.28Zm-6.8,6.82c.1,.03,.17,.1,.17,.19,0,.1-.05,.15-.29,.22-.46,2.48-.66,3.14-1.48,4.74-.7-.61-.78-.68-1.34-.97,.8-1.53,1.14-2.75,1.34-4.64l1.6,.46Zm2.4-2.28c.15,0,.27,.1,.27,.2,0,.12-.1,.2-.36,.31-.02,.22-.03,.46-.03,.73v5.27c0,.41,.08,.53,.39,.59,.2,.03,.99,.1,1.36,.1,2.24,0,2.33-.08,2.33-2.58,.83,.24,1.12,.31,1.63,.39-.05,2.21-.27,2.96-.99,3.35-.6,.34-1.21,.42-3.33,.42-2.57,0-3.03-.31-3.03-2.01v-5.37c0-.9-.02-1.31-.05-1.56l1.8,.15Zm.58-2.7c1.26,.87,2.07,1.63,3.15,2.96l-1.28,1.11c-.97-1.39-1.61-2.07-2.84-3.06l.97-1Zm4.69,3.98c1.48,1.41,2.46,2.77,3.23,4.49l-1.43,.99c-.75-1.73-1.6-3.08-2.89-4.54l1.09-.93Z" />
                    <path class="cls-14"
                        d="M229.52,64.52c.24,.08,.34,.17,.34,.27,0,.14,0,.15-.41,.25,.87,1.34,1.62,2.19,2.69,3.04,1.26,1.02,2.62,1.77,4.54,2.55q-.61,.73-1.04,1.61c-2.19-1.05-3.01-1.55-4.38-2.69-1.28-1.05-1.73-1.55-2.79-3.21-.83,1.28-1.46,2.01-2.53,2.99-1.36,1.27-2.41,2.02-4.64,3.31-.39-.8-.56-1.07-1-1.6,1.97-1.02,3.11-1.8,4.44-3.03,1.33-1.21,2.09-2.18,3.23-4.08l1.56,.56Zm-1.65,6.27c0-.78,0-.99-.03-1.58l1.82,.12c.19,.02,.31,.07,.31,.17s-.1,.2-.32,.34v2.77h2.41c.65,0,1.51-.02,2.02-.03v1.67c-.51-.03-1.46-.05-2.02-.05h-2.41v3.59h3.08c1.07,0,2.52-.03,3.38-.07v1.75c-.9-.03-2.35-.05-3.38-.05h-8.38c-.93,0-2.46,.02-3.38,.05v-1.75c.73,.03,1.94,.05,2.89,.07v-3.91c0-.78,0-.99-.03-1.56l1.78,.1c.19,.02,.31,.08,.31,.17,0,.1-.1,.2-.34,.34v4.86h2.31v-6.99Z" />
                    <path class="cls-8"
                        d="M246.23,76.84c0,1.29,.02,2.38,.05,2.99h-1.67c.03-.66,.05-1.62,.05-2.99v-.9c-.99,.87-1.63,1.31-2.72,1.9-1.29,.7-2.18,1.05-3.89,1.58-.29-.76-.32-.85-.71-1.5,2.57-.68,4.35-1.46,5.86-2.55h-2.16c-.88,0-1.99,.02-2.7,.05v-1.44c.71,.03,1.82,.05,2.7,.05h3.62v-.83h-2.18c-.87,0-1.99,.02-2.7,.05v-1.43c.71,.02,1.84,.05,2.7,.05h2.18v-.8h-3.01c-.88,0-2.01,.03-2.72,.07v-1.45c.71,.03,1.84,.05,2.72,.05h1.04c-.2-.51-.46-.99-.75-1.45h-.7c-.93,0-2.46,.02-3.38,.05v-1.55c.77,.03,2.01,.05,2.96,.05-.34-.56-.59-.88-1.24-1.6l1.16-.9c.95,.9,1.19,1.17,1.82,2.19l-.48,.31h1.26v-1.67l-.02-1.09,1.6,.12c.2,.02,.32,.07,.32,.17s-.1,.2-.34,.34v2.12h1.24v-1.67c0-.46,0-.83-.02-1.09l1.61,.12c.19,.02,.31,.07,.31,.17s-.1,.2-.34,.34v2.12h.68c.53-1.05,.7-1.55,.92-2.45l1.65,.59c.1,.03,.19,.12,.19,.19,0,.12-.05,.15-.39,.27q-.1,.2-.51,1.04c-.05,.1-.12,.22-.2,.36,1.04,0,2.33-.02,3.13-.05v1.55c-.9-.03-2.35-.05-3.38-.05h-1.1c.22,.07,.27,.15,.27,.22,0,.1-.08,.15-.37,.24q-.12,.22-.51,.99h1.33c.78,0,1.97-.02,2.7-.05v1.45c-.73-.03-1.92-.07-2.7-.07h-3.16v.8h2.31c.78,0,1.99-.03,2.72-.05v1.43c-.73-.03-1.94-.05-2.72-.05h-2.31v.83h3.83c.78,0,1.97-.02,2.7-.05v1.44c-.73-.03-1.92-.05-2.7-.05h-2.52c1.56,1.11,3.32,1.79,6.02,2.38-.39,.63-.48,.82-.76,1.55-1.7-.42-2.87-.88-4.3-1.65-.9-.51-1.41-.87-2.26-1.67v.85Zm.25-7.09c.22-.48,.44-.95,.59-1.45h-3.45c.32,.44,.58,.93,.78,1.45h2.07Z" />
                </g>
            </g>
            <g>
                <g>
                    <path class="cls-2"
                        d="M153.51,122.74c.48,.49,1.04,.9,1.77,1.29,1.22,.65,2.57,1.04,5.01,1.46-.37,.48-.53,.7-.61,.87q-.27,.54-.39,.73c-2.45-.51-3.96-1.09-5.3-1.99-.88-.6-1.51-1.19-2.04-1.97-.17,.31-.34,.58-.54,.83-1.29,1.61-3.55,2.79-6.51,3.35-.25-.71-.37-.94-.75-1.5,2.41-.48,4.23-1.17,5.24-2.01,.36-.31,.66-.65,.93-1.07h-2.7c-.85,0-2.33,.03-3.06,.07v-1.7c.7,.02,2.18,.05,3.06,.05h3.37c.08-.31,.14-.61,.19-.93h-2.46c-.56,0-1.53,.02-2.04,.03v-1.6c.51,.02,1.38,.03,2.04,.03h2.63c.02-.27,.02-.54,.03-.82h-2.77c-.71,0-1.67,.02-2.38,.03v-1.6c.66,.03,1.63,.05,2.38,.05h2.77c-.02-.76-.03-1.29-.07-1.75l1.7,.19c.22,.02,.36,.12,.36,.24,0,.1-.1,.19-.36,.29v1.04h2.74c.7,0,1.79-.02,2.38-.05v1.6c-.63-.02-1.72-.03-2.38-.03h-2.74v.17c0,.22,0,.44-.02,.65h2.67c.65,0,1.53-.02,2.04-.03v1.6c-.53-.02-1.48-.03-2.04-.03h-2.8c-.03,.31-.1,.63-.17,.93h4.1c.94,0,2.28-.03,3.04-.05v1.7c-.8-.03-2.14-.07-3.04-.07h-3.26Zm-2.16-10.15c0-.46,0-.83-.02-1.09l1.72,.12c.19,.02,.31,.07,.31,.17s-.08,.2-.32,.34v.95h3.2c1.16,0,2.48-.03,3.37-.09-.03,.61-.03,.94-.03,1.31v.44c0,.37,.02,.82,.05,1.31h-1.77c.03-.43,.05-.97,.05-1.31v-.22h-11.51v.22c0,.34,.02,.88,.05,1.31h-1.77c.03-.49,.05-.94,.05-1.31v-.44c0-.37,0-.68-.03-1.31,.88,.05,2.21,.09,3.38,.09h3.28v-.49Z" />
                    <path class="cls-2"
                        d="M169.32,116.89c-.22,2.41-.63,3.96-1.29,5.29-.85,1.65-2.02,2.86-3.86,3.94-.54,.32-.9,.53-1.82,.99l-.17-.31c-.32-.61-.41-.75-.88-1.27,4.11-1.87,5.73-3.86,6.2-8.6l-2.4,.05c-1.67,.03-1.94,.03-3.06,.08l-.03-1.75c.25,.02,1.28,.03,3.04,.03l2.57-.03,.05-2.38c0-.41,0-.92-.03-1.28l1.94,.15c.29,.02,.46,.12,.46,.29,0,.15-.12,.25-.51,.48-.02,1-.05,1.89-.1,2.7l5.01-.08,.27-.32,1.26,1c.17,.12,.2,.2,.2,.31,0,.14-.03,.19-.37,.34-.02,.93-.03,1.36-.03,2.01-.03,4.67-.34,6.58-1.22,7.46-.73,.73-1.39,.87-4.4,.88-.12-.87-.24-1.28-.53-1.92l.31,.02c.44,.02,.9,.02,1.39,.02,1.43,0,1.82-.15,2.14-.85,.39-.85,.54-2.89,.6-7.34l-4.73,.1Z" />
                    <path class="cls-2"
                        d="M186.93,116.34c2.01,.75,3.88,1.8,5.71,2.89l-1.07,1.68c-1.46-1.05-3.01-2.01-4.64-2.79v4.93c0,1.75,.03,3.13,.07,3.98h-1.89c.05-.93,.07-2.24,.07-3.98v-8.67h-3.49c-.93,0-2.46,.03-3.38,.07v-1.73c.88,.03,2.41,.07,3.38,.07h8.94c1.07,0,2.52-.03,3.38-.07v1.73c-.9-.03-2.35-.07-3.38-.07h-3.71v1.96Z" />
                    <path class="cls-2"
                        d="M207.54,118.11l.24-.36,1.24,1.07c.08,.07,.14,.17,.14,.24,0,.15-.12,.27-.41,.37-.03,.34-.08,.92-.22,2.46-.15,1.58-.58,3.2-1.05,3.94-.7,1.07-1.6,1.38-4.1,1.38h-.53c-.07-.58-.08-.65-.12-.8-.02-.08-.07-.25-.14-.53-.03-.1-.08-.29-.14-.49q.92,.03,1.07,.03c1.53,0,1.92-.1,2.33-.56,.41-.46,.75-1.51,.92-2.86,.02-.14,.08-.93,.22-2.36h-4.37c-.08,.34-.17,.68-.29,1.04-.93,3.04-3.06,5.17-6.41,6.39-.34-.82-.41-.93-.78-1.48,2.21-.93,3.16-1.6,4.17-2.87,1.33-1.72,1.89-3.47,2.14-6.94h-2.57c-.94,0-2.46,.03-3.38,.07v-1.68c.88,.03,2.41,.07,3.38,.07h3.31v-1.5c0-.48,0-.85-.02-1.09l1.77,.12c.2,0,.31,.07,.31,.17s-.08,.2-.34,.34v1.96h3.52c1.07,0,2.53-.03,3.4-.07v1.68c-.92-.03-2.36-.07-3.4-.07h-4.23c-.08,.77-.15,1.55-.27,2.31h4.61Z" />
                    <path class="cls-2"
                        d="M221.17,111.99c.24,.08,.34,.17,.34,.27,0,.14,0,.15-.41,.25,.87,1.34,1.62,2.19,2.69,3.04,1.26,1.02,2.62,1.77,4.54,2.55q-.61,.73-1.04,1.61c-2.19-1.05-3.01-1.55-4.38-2.69-1.28-1.05-1.73-1.55-2.79-3.21-.83,1.28-1.46,2.01-2.53,2.99-1.36,1.27-2.41,2.02-4.64,3.31-.39-.8-.56-1.07-1-1.6,1.97-1.02,3.11-1.8,4.44-3.03,1.33-1.21,2.09-2.18,3.23-4.08l1.56,.56Zm-1.65,6.27c0-.78,0-.99-.03-1.58l1.82,.12c.19,.02,.31,.07,.31,.17s-.1,.2-.32,.34v2.77h2.41c.65,0,1.51-.02,2.02-.03v1.67c-.51-.03-1.46-.05-2.02-.05h-2.41v3.59h3.08c1.07,0,2.52-.03,3.38-.07v1.75c-.9-.03-2.35-.05-3.38-.05h-8.38c-.93,0-2.46,.02-3.38,.05v-1.75c.73,.03,1.94,.05,2.89,.07v-3.91c0-.78,0-.99-.03-1.56l1.78,.1c.19,.02,.31,.08,.31,.17,0,.1-.1,.2-.34,.34v4.86h2.31v-6.99Z" />
                    <path class="cls-2"
                        d="M237.88,124.32c0,1.29,.02,2.38,.05,2.99h-1.67c.03-.66,.05-1.62,.05-2.99v-.9c-.99,.87-1.63,1.31-2.72,1.9-1.29,.7-2.18,1.05-3.89,1.58-.29-.76-.32-.85-.71-1.5,2.57-.68,4.35-1.46,5.86-2.55h-2.16c-.88,0-1.99,.02-2.7,.05v-1.44c.71,.03,1.82,.05,2.7,.05h3.62v-.83h-2.18c-.87,0-1.99,.02-2.7,.05v-1.43c.71,.02,1.84,.05,2.7,.05h2.18v-.8h-3.01c-.88,0-2.01,.03-2.72,.07v-1.45c.71,.03,1.84,.05,2.72,.05h1.04c-.2-.51-.46-.99-.75-1.45h-.7c-.93,0-2.46,.02-3.38,.05v-1.55c.77,.03,2.01,.05,2.96,.05-.34-.56-.59-.88-1.24-1.6l1.16-.9c.95,.9,1.19,1.17,1.82,2.19l-.48,.31h1.26v-1.67l-.02-1.09,1.6,.12c.2,.02,.32,.07,.32,.17s-.1,.2-.34,.34v2.12h1.24v-1.67c0-.46,0-.83-.02-1.09l1.61,.12c.19,.02,.31,.07,.31,.17s-.1,.2-.34,.34v2.12h.68c.53-1.05,.7-1.55,.92-2.45l1.65,.59c.1,.03,.19,.12,.19,.19,0,.12-.05,.15-.39,.27q-.1,.2-.51,1.04c-.05,.1-.12,.22-.2,.36,1.04,0,2.33-.02,3.13-.05v1.55c-.9-.03-2.35-.05-3.38-.05h-1.1c.22,.07,.27,.15,.27,.22,0,.1-.08,.15-.37,.24q-.12,.22-.51,.99h1.33c.78,0,1.97-.02,2.7-.05v1.45c-.73-.03-1.92-.07-2.7-.07h-3.16v.8h2.31c.78,0,1.99-.03,2.72-.05v1.43c-.73-.03-1.94-.05-2.72-.05h-2.31v.83h3.83c.78,0,1.97-.02,2.7-.05v1.44c-.73-.03-1.92-.05-2.7-.05h-2.52c1.56,1.11,3.32,1.79,6.02,2.38-.39,.63-.48,.82-.76,1.55-1.7-.42-2.87-.88-4.3-1.65-.9-.51-1.41-.87-2.26-1.67v.85Zm.25-7.09c.22-.48,.44-.95,.6-1.45h-3.45c.32,.44,.58,.93,.78,1.45h2.07Z" />
                </g>
                <g>
                    <path class="cls-5"
                        d="M153.51,122.74c.48,.49,1.04,.9,1.77,1.29,1.22,.65,2.57,1.04,5.01,1.46-.37,.48-.53,.7-.61,.87q-.27,.54-.39,.73c-2.45-.51-3.96-1.09-5.3-1.99-.88-.6-1.51-1.19-2.04-1.97-.17,.31-.34,.58-.54,.83-1.29,1.61-3.55,2.79-6.51,3.35-.25-.71-.37-.94-.75-1.5,2.41-.48,4.23-1.17,5.24-2.01,.36-.31,.66-.65,.93-1.07h-2.7c-.85,0-2.33,.03-3.06,.07v-1.7c.7,.02,2.18,.05,3.06,.05h3.37c.08-.31,.14-.61,.19-.93h-2.46c-.56,0-1.53,.02-2.04,.03v-1.6c.51,.02,1.38,.03,2.04,.03h2.63c.02-.27,.02-.54,.03-.82h-2.77c-.71,0-1.67,.02-2.38,.03v-1.6c.66,.03,1.63,.05,2.38,.05h2.77c-.02-.76-.03-1.29-.07-1.75l1.7,.19c.22,.02,.36,.12,.36,.24,0,.1-.1,.19-.36,.29v1.04h2.74c.7,0,1.79-.02,2.38-.05v1.6c-.63-.02-1.72-.03-2.38-.03h-2.74v.17c0,.22,0,.44-.02,.65h2.67c.65,0,1.53-.02,2.04-.03v1.6c-.53-.02-1.48-.03-2.04-.03h-2.8c-.03,.31-.1,.63-.17,.93h4.1c.94,0,2.28-.03,3.04-.05v1.7c-.8-.03-2.14-.07-3.04-.07h-3.26Zm-2.16-10.15c0-.46,0-.83-.02-1.09l1.72,.12c.19,.02,.31,.07,.31,.17s-.08,.2-.32,.34v.95h3.2c1.16,0,2.48-.03,3.37-.09-.03,.61-.03,.94-.03,1.31v.44c0,.37,.02,.82,.05,1.31h-1.77c.03-.43,.05-.97,.05-1.31v-.22h-11.51v.22c0,.34,.02,.88,.05,1.31h-1.77c.03-.49,.05-.94,.05-1.31v-.44c0-.37,0-.68-.03-1.31,.88,.05,2.21,.09,3.38,.09h3.28v-.49Z" />
                    <path class="cls-9"
                        d="M169.32,116.89c-.22,2.41-.63,3.96-1.29,5.29-.85,1.65-2.02,2.86-3.86,3.94-.54,.32-.9,.53-1.82,.99l-.17-.31c-.32-.61-.41-.75-.88-1.27,4.11-1.87,5.73-3.86,6.2-8.6l-2.4,.05c-1.67,.03-1.94,.03-3.06,.08l-.03-1.75c.25,.02,1.28,.03,3.04,.03l2.57-.03,.05-2.38c0-.41,0-.92-.03-1.28l1.94,.15c.29,.02,.46,.12,.46,.29,0,.15-.12,.25-.51,.48-.02,1-.05,1.89-.1,2.7l5.01-.08,.27-.32,1.26,1c.17,.12,.2,.2,.2,.31,0,.14-.03,.19-.37,.34-.02,.93-.03,1.36-.03,2.01-.03,4.67-.34,6.58-1.22,7.46-.73,.73-1.39,.87-4.4,.88-.12-.87-.24-1.28-.53-1.92l.31,.02c.44,.02,.9,.02,1.39,.02,1.43,0,1.82-.15,2.14-.85,.39-.85,.54-2.89,.6-7.34l-4.73,.1Z" />
                    <path class="cls-7"
                        d="M186.93,116.34c2.01,.75,3.88,1.8,5.71,2.89l-1.07,1.68c-1.46-1.05-3.01-2.01-4.64-2.79v4.93c0,1.75,.03,3.13,.07,3.98h-1.89c.05-.93,.07-2.24,.07-3.98v-8.67h-3.49c-.93,0-2.46,.03-3.38,.07v-1.73c.88,.03,2.41,.07,3.38,.07h8.94c1.07,0,2.52-.03,3.38-.07v1.73c-.9-.03-2.35-.07-3.38-.07h-3.71v1.96Z" />
                    <path class="cls-4"
                        d="M207.54,118.11l.24-.36,1.24,1.07c.08,.07,.14,.17,.14,.24,0,.15-.12,.27-.41,.37-.03,.34-.08,.92-.22,2.46-.15,1.58-.58,3.2-1.05,3.94-.7,1.07-1.6,1.38-4.1,1.38h-.53c-.07-.58-.08-.65-.12-.8-.02-.08-.07-.25-.14-.53-.03-.1-.08-.29-.14-.49q.92,.03,1.07,.03c1.53,0,1.92-.1,2.33-.56,.41-.46,.75-1.51,.92-2.86,.02-.14,.08-.93,.22-2.36h-4.37c-.08,.34-.17,.68-.29,1.04-.93,3.04-3.06,5.17-6.41,6.39-.34-.82-.41-.93-.78-1.48,2.21-.93,3.16-1.6,4.17-2.87,1.33-1.72,1.89-3.47,2.14-6.94h-2.57c-.94,0-2.46,.03-3.38,.07v-1.68c.88,.03,2.41,.07,3.38,.07h3.31v-1.5c0-.48,0-.85-.02-1.09l1.77,.12c.2,0,.31,.07,.31,.17s-.08,.2-.34,.34v1.96h3.52c1.07,0,2.53-.03,3.4-.07v1.68c-.92-.03-2.36-.07-3.4-.07h-4.23c-.08,.77-.15,1.55-.27,2.31h4.61Z" />
                    <path class="cls-10"
                        d="M221.17,111.99c.24,.08,.34,.17,.34,.27,0,.14,0,.15-.41,.25,.87,1.34,1.62,2.19,2.69,3.04,1.26,1.02,2.62,1.77,4.54,2.55q-.61,.73-1.04,1.61c-2.19-1.05-3.01-1.55-4.38-2.69-1.28-1.05-1.73-1.55-2.79-3.21-.83,1.28-1.46,2.01-2.53,2.99-1.36,1.27-2.41,2.02-4.64,3.31-.39-.8-.56-1.07-1-1.6,1.97-1.02,3.11-1.8,4.44-3.03,1.33-1.21,2.09-2.18,3.23-4.08l1.56,.56Zm-1.65,6.27c0-.78,0-.99-.03-1.58l1.82,.12c.19,.02,.31,.07,.31,.17s-.1,.2-.32,.34v2.77h2.41c.65,0,1.51-.02,2.02-.03v1.67c-.51-.03-1.46-.05-2.02-.05h-2.41v3.59h3.08c1.07,0,2.52-.03,3.38-.07v1.75c-.9-.03-2.35-.05-3.38-.05h-8.38c-.93,0-2.46,.02-3.38,.05v-1.75c.73,.03,1.94,.05,2.89,.07v-3.91c0-.78,0-.99-.03-1.56l1.78,.1c.19,.02,.31,.08,.31,.17,0,.1-.1,.2-.34,.34v4.86h2.31v-6.99Z" />
                    <path class="cls-6"
                        d="M237.88,124.32c0,1.29,.02,2.38,.05,2.99h-1.67c.03-.66,.05-1.62,.05-2.99v-.9c-.99,.87-1.63,1.31-2.72,1.9-1.29,.7-2.18,1.05-3.89,1.58-.29-.76-.32-.85-.71-1.5,2.57-.68,4.35-1.46,5.86-2.55h-2.16c-.88,0-1.99,.02-2.7,.05v-1.44c.71,.03,1.82,.05,2.7,.05h3.62v-.83h-2.18c-.87,0-1.99,.02-2.7,.05v-1.43c.71,.02,1.84,.05,2.7,.05h2.18v-.8h-3.01c-.88,0-2.01,.03-2.72,.07v-1.45c.71,.03,1.84,.05,2.72,.05h1.04c-.2-.51-.46-.99-.75-1.45h-.7c-.93,0-2.46,.02-3.38,.05v-1.55c.77,.03,2.01,.05,2.96,.05-.34-.56-.59-.88-1.24-1.6l1.16-.9c.95,.9,1.19,1.17,1.82,2.19l-.48,.31h1.26v-1.67l-.02-1.09,1.6,.12c.2,.02,.32,.07,.32,.17s-.1,.2-.34,.34v2.12h1.24v-1.67c0-.46,0-.83-.02-1.09l1.61,.12c.19,.02,.31,.07,.31,.17s-.1,.2-.34,.34v2.12h.68c.53-1.05,.7-1.55,.92-2.45l1.65,.59c.1,.03,.19,.12,.19,.19,0,.12-.05,.15-.39,.27q-.1,.2-.51,1.04c-.05,.1-.12,.22-.2,.36,1.04,0,2.33-.02,3.13-.05v1.55c-.9-.03-2.35-.05-3.38-.05h-1.1c.22,.07,.27,.15,.27,.22,0,.1-.08,.15-.37,.24q-.12,.22-.51,.99h1.33c.78,0,1.97-.02,2.7-.05v1.45c-.73-.03-1.92-.07-2.7-.07h-3.16v.8h2.31c.78,0,1.99-.03,2.72-.05v1.43c-.73-.03-1.94-.05-2.72-.05h-2.31v.83h3.83c.78,0,1.97-.02,2.7-.05v1.44c-.73-.03-1.92-.05-2.7-.05h-2.52c1.56,1.11,3.32,1.79,6.02,2.38-.39,.63-.48,.82-.76,1.55-1.7-.42-2.87-.88-4.3-1.65-.9-.51-1.41-.87-2.26-1.67v.85Zm.25-7.09c.22-.48,.44-.95,.6-1.45h-3.45c.32,.44,.58,.93,.78,1.45h2.07Z" />
                </g>
            </g>
            <rect class="cls-3" y="1" width="84.99" height="30.51" rx="5" ry="5" />
            <g>
                <path class="cls-1"
                    d="M22.17,14c-.27-1.41-1.06-2.13-2.35-2.13-1.84,0-3,1.69-3,4.39s1.16,4.36,3.03,4.36c1.44,0,2.28-.93,2.44-2.74h1.61c-.17,2.77-1.56,4.27-3.99,4.27-3.01,0-4.95-2.29-4.95-5.88,0-2.05,.6-3.71,1.74-4.75,.84-.76,1.95-1.18,3.13-1.18,1.37,0,2.52,.54,3.2,1.5,.42,.57,.61,1.2,.71,2.16h-1.56Z" />
                <path class="cls-1"
                    d="M29.09,13.61c2.2,0,3.78,1.79,3.78,4.29s-1.58,4.27-3.78,4.27-3.79-1.78-3.79-4.27,1.57-4.29,3.79-4.29Zm0,7.18c1.23,0,2.05-1.17,2.05-2.89s-.83-2.92-2.05-2.92-2.07,1.18-2.07,2.92,.83,2.89,2.07,2.89Z" />
                <path class="cls-1"
                    d="M41.25,19.43c-.09,.61-.39,1.24-.79,1.74-.57,.66-1.39,1-2.42,1-2.23,0-3.7-1.69-3.7-4.27s1.45-4.29,3.72-4.29c1.68,0,2.83,.98,3.13,2.67h-1.7c-.21-.88-.69-1.3-1.48-1.3-1.2,0-1.95,1.14-1.95,2.94,0,1.05,.29,1.94,.79,2.46,.27,.27,.69,.42,1.17,.42,.84,0,1.35-.43,1.56-1.36h1.67Z" />
                <path class="cls-1"
                    d="M48.11,13.83h2.04l-3.38,3.7,3.66,4.41h-2.28l-3.2-4.12v4.12h-1.68V10.49h1.68v6.88l3.15-3.54Z" />
                <path class="cls-1"
                    d="M55.23,10.55c1.77,0,2.71,.18,3.39,.66,.84,.58,1.29,1.59,1.29,2.86,0,1.35-.53,2.38-1.47,2.92-.63,.36-1.5,.51-3.04,.51h-1.29v4.44h-1.77V10.55h2.89Zm.21,5.44c.9,0,1.54-.1,1.91-.31,.46-.29,.73-.87,.73-1.65,0-.72-.22-1.27-.66-1.57-.39-.27-.99-.39-2.02-.39h-1.29v3.93h1.33Z" />
                <path class="cls-1"
                    d="M63.41,10.55v1.84h-1.84v-1.84h1.84Zm-.09,3.29v8.11h-1.67V13.83h1.67Z" />
                <path class="cls-1"
                    d="M69.86,13.83l-.03,1.32h-1.78c-.02,.98-.06,3.5-.06,3.67v.58c0,.57,.03,.79,.17,.96s.39,.27,.67,.27c.39,0,.79-.09,1.21-.27v1.41c-.61,.24-1.09,.33-1.65,.33-.87,0-1.51-.3-1.86-.87-.21-.33-.29-.71-.29-1.41q0-.28,.03-1.08l.11-3.6h-1.25l.03-1.32h1.26l.06-2.34h1.63l-.04,2.34h1.79Z" />
            </g>
        </g>
    </g>
</svg>