<?xml version="1.0" encoding="UTF-8"?>
<svg id="_レイヤー_2" data-name="レイヤー 2" xmlns="http://www.w3.org/2000/svg" xmlns:xlink="http://www.w3.org/1999/xlink" viewBox="0 0 408.41 420.27">
  <defs>
    <style>
      .cls-1 {
        fill: url(#_新規グラデーションスウォッチ_2-12);
      }

      .cls-1, .cls-2, .cls-3, .cls-4, .cls-5, .cls-6, .cls-7, .cls-8, .cls-9, .cls-10, .cls-11, .cls-12, .cls-13, .cls-14, .cls-15, .cls-16, .cls-17, .cls-18, .cls-19 {
        stroke-width: 0px;
      }

      .cls-2 {
        fill: url(#_新規グラデーションスウォッチ_2-11);
      }

      .cls-3 {
        fill: url(#_新規グラデーションスウォッチ_2-10);
      }

      .cls-4 {
        fill: url(#_新規グラデーションスウォッチ_2-13);
      }

      .cls-5 {
        fill: url(#_新規グラデーションスウォッチ_2);
      }

      .cls-6 {
        fill: url(#_新規グラデーションスウォッチ_3);
      }

      .cls-7 {
        fill: url(#_新規グラデーションスウォッチ_3-2);
      }

      .cls-8 {
        fill: url(#_新規グラデーションスウォッチ_2-7);
      }

      .cls-9 {
        fill: url(#_新規グラデーションスウォッチ_2-5);
      }

      .cls-10 {
        fill: url(#_新規グラデーションスウォッチ_2-6);
      }

      .cls-11 {
        fill: url(#_新規グラデーションスウォッチ_2-4);
      }

      .cls-12 {
        fill: url(#_新規グラデーションスウォッチ_2-8);
      }

      .cls-13 {
        fill: url(#_新規グラデーションスウォッチ_2-2);
      }

      .cls-14 {
        fill: url(#_新規グラデーションスウォッチ_2-9);
      }

      .cls-15 {
        fill: url(#_新規グラデーションスウォッチ_2-3);
      }

      .cls-16 {
        fill: url(#_名称未設定グラデーション_7);
      }

      .cls-17 {
        fill: #d5d5d5;
      }

      .cls-18 {
        fill: #333;
      }

      .cls-19 {
        fill: #fff;
      }
    </style>
    <linearGradient id="_新規グラデーションスウォッチ_2" data-name="新規グラデーションスウォッチ 2" x1="151.29" y1="264.87" x2="257.12" y2="264.87" gradientUnits="userSpaceOnUse">
      <stop offset="0" stop-color="#0d7697"/>
      <stop offset="0" stop-color="#0d7496"/>
      <stop offset=".18" stop-color="#105483"/>
      <stop offset=".37" stop-color="#133b74"/>
      <stop offset=".56" stop-color="#152a69"/>
      <stop offset=".76" stop-color="#161f63"/>
      <stop offset="1" stop-color="#171c61"/>
    </linearGradient>
    <linearGradient id="_新規グラデーションスウォッチ_2-2" data-name="新規グラデーションスウォッチ 2" x1="25.72" y1="172.8" x2="382.69" y2="172.8" xlink:href="#_新規グラデーションスウォッチ_2"/>
    <linearGradient id="_新規グラデーションスウォッチ_2-3" data-name="新規グラデーションスウォッチ 2" x1="199.63" y1="98.43" x2="211.39" y2="98.43" xlink:href="#_新規グラデーションスウォッチ_2"/>
    <linearGradient id="_新規グラデーションスウォッチ_2-4" data-name="新規グラデーションスウォッチ 2" x1="179.99" y1="130.75" x2="226.35" y2="130.75" xlink:href="#_新規グラデーションスウォッチ_2"/>
    <linearGradient id="_新規グラデーションスウォッチ_2-5" data-name="新規グラデーションスウォッチ 2" x1="161.81" y1="47.05" x2="234" y2="47.05" xlink:href="#_新規グラデーションスウォッチ_2"/>
    <linearGradient id="_新規グラデーションスウォッチ_2-6" data-name="新規グラデーションスウォッチ 2" x1="161.81" y1="47.02" x2="234" y2="47.02" xlink:href="#_新規グラデーションスウォッチ_2"/>
    <linearGradient id="_新規グラデーションスウォッチ_2-7" data-name="新規グラデーションスウォッチ 2" x1="161.81" y1="48.71" x2="234" y2="48.71" xlink:href="#_新規グラデーションスウォッチ_2"/>
    <linearGradient id="_新規グラデーションスウォッチ_2-8" data-name="新規グラデーションスウォッチ 2" x1="161.81" y1="47.1" x2="234" y2="47.1" xlink:href="#_新規グラデーションスウォッチ_2"/>
    <linearGradient id="_新規グラデーションスウォッチ_2-9" data-name="新規グラデーションスウォッチ 2" x1="161.81" y1="47.1" x2="234" y2="47.1" xlink:href="#_新規グラデーションスウォッチ_2"/>
    <linearGradient id="_新規グラデーションスウォッチ_2-10" data-name="新規グラデーションスウォッチ 2" x1="161.81" y1="48.71" x2="234" y2="48.71" xlink:href="#_新規グラデーションスウォッチ_2"/>
    <linearGradient id="_新規グラデーションスウォッチ_2-11" data-name="新規グラデーションスウォッチ 2" x1="161.81" y1="48.62" x2="234" y2="48.62" xlink:href="#_新規グラデーションスウォッチ_2"/>
    <linearGradient id="_新規グラデーションスウォッチ_2-12" data-name="新規グラデーションスウォッチ 2" x1="161.81" y1="50.39" x2="234" y2="50.39" xlink:href="#_新規グラデーションスウォッチ_2"/>
    <linearGradient id="_新規グラデーションスウォッチ_2-13" data-name="新規グラデーションスウォッチ 2" x1="161.81" y1="48.71" x2="234" y2="48.71" xlink:href="#_新規グラデーションスウォッチ_2"/>
    <linearGradient id="_新規グラデーションスウォッチ_3" data-name="新規グラデーションスウォッチ 3" x1="273.13" y1="79.94" x2="371.46" y2="79.94" gradientUnits="userSpaceOnUse">
      <stop offset="0" stop-color="#0d76a8"/>
      <stop offset="0" stop-color="#0d74a6"/>
      <stop offset=".18" stop-color="#10548d"/>
      <stop offset=".37" stop-color="#133b7a"/>
      <stop offset=".56" stop-color="#152a6c"/>
      <stop offset=".76" stop-color="#161f63"/>
      <stop offset="1" stop-color="#171c61"/>
    </linearGradient>
    <linearGradient id="_新規グラデーションスウォッチ_3-2" data-name="新規グラデーションスウォッチ 3" x1="47.79" y1="145.57" x2="124.94" y2="145.57" xlink:href="#_新規グラデーションスウォッチ_3"/>
    <linearGradient id="_名称未設定グラデーション_7" data-name="名称未設定グラデーション 7" x1="218.66" y1="62.47" x2="384.32" y2="62.47" gradientTransform="translate(-111.85 37.75) rotate(-3.82)" gradientUnits="userSpaceOnUse">
      <stop offset=".47" stop-color="#0d76a8"/>
      <stop offset=".48" stop-color="#0d74a6"/>
      <stop offset=".57" stop-color="#10548d"/>
      <stop offset=".67" stop-color="#133b7a"/>
      <stop offset=".77" stop-color="#152a6c"/>
      <stop offset=".88" stop-color="#161f63"/>
      <stop offset="1" stop-color="#171c61"/>
    </linearGradient>
  </defs>
  <g id="_レイヤー_1-2" data-name="レイヤー 1">
    <g>
      <rect class="cls-17" y="0" width="408.41" height="420.27" rx="11.38" ry="11.38"/>
      <g>
        <rect class="cls-5" x="151.29" y="245.88" width="105.83" height="37.99" rx="4.52" ry="4.52"/>
        <g>
          <path class="cls-19" d="m183.56,262.68c-.27-1.41-1.06-2.13-2.35-2.13-1.84,0-3,1.69-3,4.4s1.16,4.36,3.03,4.36c1.44,0,2.28-.93,2.44-2.75h1.61c-.17,2.77-1.56,4.27-3.99,4.27-3.01,0-4.95-2.29-4.95-5.88,0-2.05.6-3.7,1.74-4.75.84-.76,1.95-1.18,3.13-1.18,1.37,0,2.52.54,3.2,1.5.42.57.61,1.2.71,2.16h-1.56Z"/>
          <path class="cls-19" d="m190.48,262.29c2.2,0,3.78,1.79,3.78,4.29s-1.58,4.27-3.78,4.27-3.79-1.79-3.79-4.27,1.57-4.29,3.79-4.29Zm0,7.19c1.23,0,2.05-1.17,2.05-2.9s-.83-2.92-2.05-2.92-2.07,1.19-2.07,2.92.83,2.9,2.07,2.9Z"/>
          <path class="cls-19" d="m202.64,268.11c-.09.62-.39,1.25-.79,1.74-.57.66-1.39,1-2.42,1-2.23,0-3.7-1.69-3.7-4.27s1.45-4.29,3.72-4.29c1.68,0,2.83.98,3.13,2.67h-1.7c-.21-.88-.69-1.3-1.48-1.3-1.2,0-1.95,1.14-1.95,2.94,0,1.05.29,1.93.79,2.46.27.27.69.42,1.17.42.84,0,1.35-.44,1.56-1.37h1.67Z"/>
          <path class="cls-19" d="m209.49,262.51h2.04l-3.37,3.71,3.66,4.41h-2.28l-3.2-4.12v4.12h-1.68v-11.46h1.68v6.88l3.15-3.54Z"/>
          <path class="cls-19" d="m216.62,259.23c1.77,0,2.71.18,3.39.66.84.58,1.29,1.59,1.29,2.87,0,1.35-.53,2.38-1.47,2.92-.63.36-1.5.51-3.04.51h-1.29v4.44h-1.77v-11.4h2.89Zm.21,5.44c.9,0,1.54-.1,1.91-.31.46-.29.73-.87.73-1.65,0-.72-.22-1.27-.66-1.57-.39-.27-.99-.39-2.02-.39h-1.29v3.93h1.33Z"/>
          <path class="cls-19" d="m224.79,259.23v1.84h-1.84v-1.84h1.84Zm-.09,3.28v8.11h-1.67v-8.11h1.67Z"/>
          <path class="cls-19" d="m231.24,262.51l-.03,1.32h-1.78c-.02.98-.06,3.5-.06,3.67v.59c0,.57.03.79.17.96.13.16.39.27.67.27.39,0,.79-.09,1.21-.27v1.41c-.61.24-1.09.33-1.65.33-.87,0-1.51-.3-1.86-.87-.21-.33-.29-.71-.29-1.41q0-.29.03-1.08l.11-3.6h-1.25l.03-1.32h1.26l.06-2.34h1.63l-.04,2.34h1.79Z"/>
        </g>
      </g>
      <g>
        <path class="cls-18" d="m37.62,316.18c-.22-1.13-.85-1.7-1.88-1.7-1.47,0-2.4,1.36-2.4,3.51s.92,3.49,2.42,3.49c1.15,0,1.82-.74,1.96-2.19h1.28c-.13,2.22-1.25,3.42-3.19,3.42-2.41,0-3.96-1.83-3.96-4.7,0-1.64.48-2.96,1.39-3.8.67-.61,1.56-.95,2.51-.95,1.09,0,2.01.43,2.55,1.2.34.46.49.96.56,1.73h-1.25Z"/>
        <path class="cls-18" d="m43.15,315.87c1.76,0,3.02,1.43,3.02,3.43s-1.26,3.42-3.02,3.42-3.03-1.43-3.03-3.42,1.26-3.43,3.03-3.43Zm0,5.75c.98,0,1.64-.94,1.64-2.31s-.66-2.34-1.64-2.34-1.66.95-1.66,2.34.66,2.31,1.66,2.31Z"/>
        <path class="cls-18" d="m52.88,320.52c-.07.49-.31,1-.63,1.39-.46.53-1.12.8-1.93.8-1.79,0-2.96-1.35-2.96-3.42s1.16-3.43,2.97-3.43c1.34,0,2.27.78,2.51,2.13h-1.35c-.17-.71-.55-1.04-1.19-1.04-.96,0-1.56.91-1.56,2.35,0,.84.23,1.55.64,1.97.22.22.55.34.94.34.67,0,1.08-.35,1.25-1.09h1.33Z"/>
        <path class="cls-18" d="m58.37,316.05h1.63l-2.7,2.96,2.93,3.53h-1.82l-2.55-3.3v3.3h-1.34v-9.16h1.34v5.5l2.52-2.83Z"/>
        <path class="cls-18" d="m64.07,313.42c1.42,0,2.17.14,2.71.53.67.47,1.03,1.27,1.03,2.29,0,1.08-.42,1.91-1.18,2.34-.5.29-1.2.41-2.43.41h-1.03v3.55h-1.42v-9.12h2.31Zm.17,4.35c.72,0,1.24-.08,1.52-.25.37-.23.59-.7.59-1.32,0-.58-.18-1.02-.53-1.26-.31-.22-.79-.31-1.62-.31h-1.03v3.14h1.07Z"/>
        <path class="cls-18" d="m70.61,313.42v1.48h-1.47v-1.48h1.47Zm-.07,2.63v6.49h-1.33v-6.49h1.33Z"/>
        <path class="cls-18" d="m75.77,316.05l-.02,1.06h-1.43c-.01.78-.05,2.79-.05,2.94v.47c0,.46.02.64.13.77.11.13.31.22.54.22.31,0,.64-.07.97-.22v1.13c-.49.19-.88.26-1.32.26-.7,0-1.21-.24-1.49-.7-.17-.26-.23-.56-.23-1.13q0-.23.02-.86l.08-2.88h-1l.02-1.06h1.01l.05-1.87h1.31l-.04,1.87h1.43Z"/>
        <path class="cls-18" d="m82.58,313.48c.12.02.2.08.2.17,0,.12-.1.19-.32.26-.41,1.81-.58,3.26-.58,5.08,0,1.43.12,2.1.6,3.61-.58.2-.7.26-1.19.54-.42-1.24-.61-2.54-.61-4.1,0-1.44.16-2.99.5-5.11.06-.38.07-.43.08-.67l1.31.22Zm5.62-.16c.11,0,.19.07.19.16s0,.08-.19.25c0,.23.01.85.06,1.86,1.08-.07,1.32-.1,2.15-.24l.04,1.22c-1.08.14-1.42.18-2.17.2.06,1.83.1,2.82.11,2.97,0,.16,0,.19.01.34,1.03.48,1.52.78,2.36,1.46-.43.47-.59.67-.78,1.06-.55-.52-1.08-.92-1.64-1.27-.11,1.1-.8,1.6-2.25,1.6-.88,0-1.46-.16-1.9-.49-.35-.29-.58-.77-.58-1.24,0-.98.88-1.63,2.19-1.63.41,0,.79.05,1.33.16q-.01-.74-.08-2.91c-.65.01-.82.01-1.01.01-.62,0-1.55,0-1.93-.01v-1.25c.72.06,1.25.08,2.16.08.3,0,.37,0,.76-.01v-.49c-.04-.92-.07-1.39-.17-1.9l1.34.07Zm-2.42,7.3c-.61,0-.96.2-.96.58,0,.43.42.66,1.19.66.61,0,.94-.17,1.04-.53.02-.11.07-.46.05-.47-.47-.17-.88-.24-1.32-.24Z"/>
        <path class="cls-18" d="m96.61,319.47c-.2,1.08-.42,1.61-.82,2.12-.74,1-1.64,1.48-3.68,1.99-.11-.41-.26-.78-.47-1.14,2.45-.54,3.37-1.21,3.77-2.97h-1.03c-.59,0-1.63.02-2.15.05v-1.19c.49.02,1.54.04,2.15.04h5.89c.66,0,1.62-.01,2.15-.04v1.19c-.55-.02-1.51-.05-2.15-.05h-1.15v2.28c0,.46.14.52,1.08.52.7,0,1.08-.05,1.24-.14.22-.14.31-.59.31-1.4v-.18q.73.22,1.15.3c-.1,2.38-.28,2.53-2.76,2.53-1.81,0-2.2-.22-2.2-1.27v-2.63h-1.33Zm3.43-5.78c.83,0,1.76-.02,2.38-.05-.01.52-.01.65-.01.91v.64c0,.3.01.66.04,1.04h-1.24c.02-.35.04-.77.04-1.04v-.44h-7.84v.44c0,.28.01.7.04,1.04h-1.24c.02-.38.04-.74.04-1.04v-.64c0-.26,0-.48-.01-.91.61.02,1.55.05,2.38.05h2.12v-.48c0-.32,0-.6-.01-.77l1.2.08c.14.01.22.05.22.12s-.06.14-.23.24v.8h2.15Zm.72,3.33c-.36-.01-1.04-.02-1.44-.02h-4.04c-.4,0-1.07.01-1.43.02v-1.15c.36.01.97.02,1.43.02h4.04c.47,0,1.08-.01,1.44-.02v1.15Z"/>
        <path class="cls-18" d="m109.9,319.4h1.4c.48,0,1.26-.01,1.68-.04v1.18c-.44-.01-1.22-.04-1.68-.04h-1.4v1.66h2.16c.76,0,1.78-.02,2.39-.05v1.2c-.64-.02-1.66-.05-2.39-.05h-5.43c-.66,0-1.74.02-2.39.05v-1.2c.61.02,1.7.05,2.39.05h2.12v-1.66h-1.42c-.5,0-1.17.02-1.68.04v-1.18c.47.02,1.15.04,1.68.04h1.42v-1.45h-1.17c-.4,0-1.07.01-1.43.02v-.94c-.56.42-1.17.8-1.89,1.22-.23-.43-.32-.58-.65-1.01,2.69-1.5,3.92-2.67,5.28-5.03l1.12.41c.16.06.24.13.24.22,0,.1-.02.13-.23.19.58.92,1.09,1.54,1.8,2.14.86.72,1.82,1.27,3.18,1.85-.34.4-.42.53-.7,1.08-.78-.4-1.31-.68-1.76-.97v.84c-.37-.01-1.04-.02-1.44-.02h-1.19v1.45Zm1.19-2.55c.31,0,.68,0,1.01-.01-.26-.19-.53-.4-.83-.65-.91-.78-1.23-1.14-2.01-2.42-.62.98-1.09,1.55-1.86,2.24-.31.29-.64.56-.97.83.36,0,.8.01,1.15.01h3.51Z"/>
        <path class="cls-18" d="m117.19,319.22c.08.02.13.07.13.14,0,.05-.02.08-.08.12l-.12.07c-.13,1.21-.35,2.27-.64,3.09-.52-.35-.54-.36-.95-.54.38-1.04.54-1.81.65-3.15l1.01.26Zm-1.48-1.81c.29,0,.58-.01.85-.01.24-.34.48-.67.72-1.02-.46-.4-.88-.71-1.51-1.14l.49-.9c.11.07.22.13.32.2.4-.71.79-1.54.95-2.06l1.02.42c.06.02.11.1.11.16,0,.07-.07.12-.25.17-.35.74-.7,1.39-1,1.87.16.11.31.23.46.35.34-.56.59-1.07.79-1.57l1.02.49c.07.04.13.11.13.17,0,.08-.07.13-.26.17-.85,1.46-1.16,1.96-1.69,2.64.36-.02.72-.05,1.08-.08-.11-.23-.2-.43-.32-.62l.86-.48c.46.78.67,1.22.97,2.05l-.97.47c-.06-.19-.12-.36-.18-.52-.24.04-.47.07-.71.11v2.79c0,1.1.01,1.93.04,2.46h-1.22c.02-.53.04-1.36.04-2.46v-2.65c-.36.05-.71.1-1.04.13-.1.12-.16.17-.2.17-.07,0-.14-.07-.17-.17l-.31-1.13Zm3.9,1.44c.41.68.62,1.27.86,2.27l-1,.43c-.26-1.22-.38-1.61-.7-2.31l.83-.38Zm6.34-6.04l.7.62c.08.07.11.12.11.18,0,.08-.06.14-.22.2h-.04c-.19,2.23-.46,3.3-.92,3.73-.4.37-.85.48-2.23.48-.07-.65-.12-.86-.29-1.27.29.02.54.04.85.04.52,0,.73-.11.9-.44.22-.42.38-1.13.52-2.27h-1.96c-.13,1.04-.31,1.63-.7,2.29-.42.74-.92,1.31-1.72,1.92-.19-.37-.43-.71-.71-.95.78-.59,1.07-.92,1.45-1.67.26-.54.38-.9.47-1.6h-.23c-.5,0-1.21.01-1.67.04v-1.16c.46.01,1.16.02,1.67.02h3.87l.13-.17Zm-4.08,10.75h-1.16c.02-.48.04-1.18.04-2.11v-.98c0-.72-.02-1.52-.04-1.91.31.01.6.02,1.02.02h3.59c.41,0,.7-.01,1.02-.02q-.02.4-.04,1.91v.82c0,.96.01,1.66.04,2.11h-1.16v-.47h-3.3v.64Zm3.3-1.74v-2.13h-3.3v2.13h3.3Z"/>
        <path class="cls-18" d="m130.87,317.29c0-.29,0-.52-.01-.68-.77.61-1.57,1.09-2.66,1.63-.17-.52-.31-.79-.61-1.18,1.46-.72,2.28-1.25,3.11-1.97.91-.82,1.56-1.63,2.18-2.76l1.14.36c.13.05.19.12.19.22s-.05.14-.22.19c.55.84,1.09,1.42,1.9,2.03.88.68,1.67,1.09,3.19,1.64-.28.41-.41.67-.6,1.2-1.38-.48-2.28-.97-3.36-1.82-.8-.62-1.25-1.1-1.87-2.1-.54.85-1.07,1.43-1.85,2.11-.14.13-.29.25-.43.37l1.09.07c.16.01.23.05.23.12s-.06.14-.24.24v2.08c0,1.32-.2,2.25-.62,2.85-.47.68-1.09,1.09-2.55,1.71-.2-.43-.38-.7-.71-1.09,2.19-.85,2.71-1.51,2.71-3.48v-1.75Zm3.39,6.24c.05-.59.07-1.44.07-2.7v-1.57c0-1.51-.04-2.45-.08-2.72l1.35.11c.11,0,.18.06.18.12,0,.07-.06.13-.22.22q-.02.3-.04,2.28v1.57c0,1.26.02,2.12.07,2.7h-1.34Z"/>
        <path class="cls-18" d="m143.61,320.07c0,1.57.02,2.73.06,3.5h-1.25c.04-.78.06-1.95.06-3.5v-.48h-1.13v2.03c0,.55.01,1.01.04,1.27h-1.18c.02-.29.02-.68.02-1.27v-2.02c0-.38-.01-.84-.02-1.06.42.01.78.01,1.32.01h.95v-.94h-1.28c-.4,0-1.07.01-1.44.02v-1.16c.36.02.97.04,1.44.04h1.28v-1.27h-1.28c-.19.47-.37.78-.65,1.2q-.32-.3-.88-.68c.6-.95.89-1.63,1.26-3.06l.98.29c.16.05.22.08.22.16s-.07.12-.28.18c-.1.31-.19.58-.26.82h.88c-.01-.85-.04-1.39-.06-1.62l1.26.08c.11,0,.18.06.18.12,0,.07-.06.13-.23.23v1.19h.88c.46,0,1.07-.01,1.43-.02v1.15c-.36-.01-1.03-.02-1.43-.02h-.89v1.27h1.37c.46,0,1.07-.01,1.43-.04v1.16c-.36-.01-1.03-.02-1.43-.02h-1.37v.94h1.02c.53,0,.9,0,1.32-.01-.02.22-.04.67-.04,1.06v.79c0,.18.02.64.04.96v.19c.01,1.06-.42,1.36-1.88,1.36h-.1c-.04-.6-.06-.79-.17-1.2.34.01.49.01.56.01.37,0,.43-.06.43-.49v-1.63h-1.19v.48Zm4.5-6.54c.12.01.18.05.18.12s-.06.14-.22.23q0,.25-.01,2.4v2.18c0,1.27.02,2.22.05,2.81h-1.24c.02-.66.05-1.58.05-2.81v-2.18c0-1.57-.02-2.53-.06-2.82l1.25.07Zm2.35-.74c.1.01.17.06.17.13,0,.06-.06.12-.22.23q-.01.41-.01,3.08v3c0,.54.01,1.26.04,2.7v.16c0,.62-.11.92-.4,1.13-.33.24-.65.29-1.92.3-.02-.5-.05-.65-.23-1.27.36.04.58.05.85.05.46,0,.5-.05.5-.5v-5.55c0-1.96-.02-3.15-.07-3.53l1.28.08Z"/>
        <path class="cls-18" d="m157.93,315.59c.1.05.14.1.14.14,0,.07-.06.14-.17.2-.43,1.79-.62,2.4-1.1,3.48-.71,1.6-1.49,2.33-2.5,2.33-.66,0-1.14-.29-1.49-.85-.3-.53-.47-1.16-.47-1.83,0-1.5.85-2.97,2.25-3.89.88-.58,1.86-.86,2.99-.86,1.27,0,2.39.35,3.3,1.01,1.01.74,1.51,1.78,1.51,3.11,0,1.58-.74,2.78-2.27,3.62-.48.26-1.39.61-2.23.85-.23-.62-.31-.79-.63-1.2,1.26-.3,1.74-.47,2.4-.86.96-.56,1.47-1.42,1.47-2.42,0-1.23-.74-2.25-2.01-2.76-.46-.18-.98-.29-1.37-.29h-.24l.41.23Zm-3.13.82c-.77.77-1.2,1.75-1.2,2.71,0,.85.28,1.38.72,1.38.38,0,.72-.37,1.15-1.27.7-1.45,1.12-2.77,1.2-3.8-.85.18-1.33.43-1.87.98Z"/>
        <path class="cls-18" d="m168.4,315.08c.56-.12.88-.22,1.58-.47l.38,1.08c-.77.3-1.39.46-2.31.61q-.34,1.2-.67,2.12c-.77,2.13-1.17,3.06-2.03,4.64-.4-.35-.49-.41-1.08-.68.94-1.56,1.69-3.35,2.5-5.94-.79.06-1.15.08-2.04.08v-1.19c1.09,0,1.36-.01,2.39-.1l.02-.08c.23-.92.34-1.46.44-2.27l1.29.32c.1.02.17.08.17.14,0,.08-.05.13-.23.22-.25.96-.26,1.01-.38,1.39l-.04.11Zm1.61,4.98c-.34.48-.44.73-.44,1.04,0,.47.43.59,2.17.59.73,0,1.33-.07,2.27-.26-.08.38-.1.49-.12,1.28-.83.11-1.43.16-2.22.16-1.02,0-1.81-.07-2.27-.19-.65-.18-1.03-.7-1.03-1.39,0-.58.22-1.04.78-1.73l.86.5Zm-1.2-2.66c1.47-.47,2.3-.61,3.59-.61.25,0,.64.01,1.13.04l-.05,1.16c-.92-.04-1.04-.04-1.2-.04-1.01,0-1.64.11-3.18.53l-.29-1.08Z"/>
        <path class="cls-18" d="m178.53,314.04c.18,0,.24.05.24.13s-.05.16-.2.25c.08.72.19,1.37.31,1.85.86-.55,1.47-.78,2.69-.98.4-.9.58-1.44.71-2.18l1.26.42c.1.04.14.08.14.14,0,.08-.06.14-.24.22q-.11.23-.32.82c-.02.07-.07.18-.22.53,1.02.02,1.63.2,2.27.62.89.61,1.38,1.61,1.38,2.82,0,1.55-.73,2.64-2.28,3.44-.59.3-1.07.46-2.15.71-.12-.53-.24-.84-.48-1.25,1.22-.25,1.4-.31,1.93-.56,1.16-.56,1.64-1.27,1.64-2.46,0-1.33-.97-2.21-2.43-2.21h-.3q-.59,1.24-1.02,1.98c-.44.76-.59.97-.92,1.4q.17.18.73.71c-.43.44-.67.73-.91,1.06-.3-.3-.41-.43-.72-.82-.79.83-1.45,1.19-2.18,1.19-.86,0-1.43-.65-1.43-1.67,0-1.12.68-2.34,1.81-3.23-.11-.42-.18-.71-.24-1.01-.13-.73-.23-1.26-.29-1.57-.02-.14-.04-.17-.08-.32l1.31-.02Zm-.31,4.04c-.65.67-.98,1.39-.98,2.06,0,.32.12.54.3.54.36,0,.88-.37,1.39-1-.3-.52-.55-1.09-.71-1.61Zm2.87-1.56c-.74.18-1.26.43-1.93.91.04.07.05.13.06.17.14.43.38.92.54,1.16.49-.64,1.06-1.6,1.33-2.24Z"/>
        <path class="cls-18" d="m188.76,319.96c1.01.95,1.54,1.56,2.35,2.7l-1.09.83c-.67-1.06-1.42-1.98-2.19-2.71l.94-.82Z"/>
        <path class="cls-18" d="m37.86,340.7c.24.49.52.96.84,1.39.46-.34.89-.68,1.29-1.08.26-.26.52-.54.77-.82l1.03.71c.06.04.1.11.1.17q0,.08-.37.12c-.68.65-1.37,1.21-2.12,1.73l.25.25c.98,1.01,1.7,1.49,3.25,2.21-.34.4-.48.61-.78,1.16-1.49-.8-2.24-1.38-3.2-2.46-.43-.49-.77-.91-1.06-1.38v.53c0,.61.01,1.4.04,3.05v.11c0,.52-.1.74-.42.9-.37.19-.68.23-2.06.24-.08-.54-.14-.82-.29-1.3.52.04.82.06,1.08.06.41,0,.46-.06.46-.5v-2.42c-1.13.94-2.6,1.88-4.09,2.64-.04.23-.1.32-.2.32-.07,0-.14-.05-.18-.12l-.6-1.15.54-.28c1.81-.9,2.47-1.31,4.11-2.51l.42.91v-3.35h-2.48c-.59,0-1.63.01-2.15.04v-1.19c.49.02,1.54.05,2.15.05h2.48c-.01-.38-.01-.76-.01-1.14-.01-.38-.01-.78-.06-1.16l1.33.08c.1.01.17.06.17.12,0,.07-.06.13-.22.24-.02.62-.01,1.24-.01,1.86h2.38c.66,0,1.62-.02,2.15-.05v1.19c-.55-.02-1.51-.04-2.15-.04h-2.38v.86Zm-4.2-.56c.96.88,1.19,1.13,1.79,2.03l-.98.78c-.78-1.1-1.12-1.52-1.68-2.04l.88-.77Zm5.46-3.53c1.02.55,1.17.66,1.76,1.2l-.7.8c-.78-.68-1.14-.95-1.68-1.22l.61-.78Z"/>
        <path class="cls-18" d="m47.04,344.76c0,1.22.01,2.21.05,2.81h-1.16c.02-.66.05-1.59.05-2.81v-.16c-.24.1-.42.16-.58.22q-.75.28-1.13.43c-.08.18-.13.23-.2.23-.06,0-.14-.06-.17-.13l-.42-1.12c.23-.05.43-.1.62-.14v-6.16c-.17,0-.34.01-.47.01v-1.06c.35.01.85.02,1.2.02h1.66c.35,0,.86-.01,1.2-.02v1.06c-.18-.01-.42-.01-.65-.01v6.84Zm-1.87-6.85v1.24h.8v-1.24h-.8Zm0,2.24v1.28h.8v-1.28h-.8Zm0,2.29v1.34c.26-.07.54-.17.8-.25v-1.09h-.8Zm7.6-.83c.01.34.02.65.05.94.02.4.07.77.13,1.13.26-.48.47-1.02.67-1.71l.95.37c.12.05.16.08.16.16,0,.08-.02.1-.26.18-.31.98-.67,1.73-1.17,2.39.07.19.14.37.22.56.1.25.19.38.25.38.12,0,.26-.52.35-1.27.22.12.46.25.86.43-.17.89-.23,1.16-.35,1.55-.16.48-.37.7-.7.7-.59,0-1.03-.44-1.44-1.44-.6.59-1.27,1.01-2.51,1.61-.23-.42-.38-.61-.68-.92.66-.26,1.15-.5,1.57-.77h-.89v-.24h-1.01v.61h-1.04c.01-.29.02-.68.02-1.28v-1.81c0-.38-.01-.84-.02-1.06.26.01.5.01.86.01h1.37c.36,0,.6,0,.86-.01-.01.22-.02.67-.02,1.06v1.48c0,.5.01.88.02,1.15.34-.23.64-.48.94-.79.06-.06.11-.11.16-.17-.28-1.06-.36-2.13-.43-3.21h-2.75c-.5,0-1.17.01-1.67.02v-1.09c.25.01.58.01.91.01-.12-.49-.23-.85-.38-1.31l.72-.24h-.95s0-1.06,0-1.06c.18.01.49.02.72.02h.61v-.77c0-.34-.01-.6-.02-.77l1.1.07c.14.01.22.06.22.12,0,.07-.06.14-.23.25v1.09h.71c.23,0,.54-.01.72-.02v1.07h-.72s-.41-.01-.41-.01l.9.23c.12.04.22.12.22.2,0,.1-.05.12-.31.18-.13.36-.25.68-.35.95h.91c-.02-.78-.04-1.67-.04-2.69,0-.8-.02-1.26-.07-1.48l1.21.13c.13.01.19.06.19.13,0,.08-.07.16-.24.24-.01.4-.01.68-.01,2.07,0,.36.01.95.05,1.58h.38c.48,0,1.26-.01,1.67-.02v1.09c-.44-.01-1.21-.02-1.67-.02h-.34Zm-3.09-1.04c.17-.5.3-1.03.38-1.56h-1.34c.18.42.34.83.46,1.27l-.8.29h1.31Zm.3,2.47h-1.01v.41h1.01v-.41Zm0,1.25h-1.01v.43h1.01v-.43Zm3.67-6.63c.46.71.72,1.25.95,1.86l-.96.44c-.2-.66-.52-1.34-.86-1.9l.88-.41Z"/>
        <path class="cls-18" d="m63.27,338.43c.41-.42.72-.82,1.32-1.61l1.03.55c.14.07.18.12.18.19,0,.12-.1.16-.42.19-.79.9-1.55,1.69-2.34,2.4h1.29c.76,0,1.79-.02,2.4-.05v1.19c-.65-.02-1.67-.04-2.4-.04h-2.6c-.41.32-.84.64-1.28.92h3.49c.42,0,.71,0,1.02-.01q-.01.38-.04,1.91v1.19c0,.96.01,1.66.04,2.11h-1.16v-.5h-4.11v.67h-1.16c.02-.49.04-1.13.04-2.11v-2.11c-.79.43-1.64.85-2.58,1.27-.19-.44-.32-.65-.64-1.02,1.87-.78,3.21-1.46,4.5-2.31h-1.8c-.66,0-1.74.01-2.39.04v-1.19c.61.02,1.7.05,2.39.05h2.06v-1.25h-2.05c-.4,0-1.07.01-1.44.02v-1.15c.36.01.98.02,1.44.02h2.05c0-.7-.01-1.1-.04-1.4l1.21.08c.13.01.2.06.2.12,0,.07-.06.14-.23.24v.96h.58c.46,0,1.08-.01,1.44-.02v.65Zm.53,5.61v-.82h-4.11v.82h4.11Zm-4.11,1.79h4.11v-.83h-4.11v.83Zm1.67-5.67c.49-.4.97-.8,1.42-1.24-.31,0-.62-.01-.93-.01h-.58v1.25h.1Z"/>
        <path class="cls-18" d="m70.23,341.71c.49.34.86.65,1.31,1.12l-.74,1.03c-.17-.24-.36-.5-.56-.73v.95c0,1.57.01,2.73.05,3.5h-1.24c.04-.78.05-1.95.05-3.5v-.71c-.32.98-.62,1.58-1.16,2.45-.32-.73-.43-.94-.65-1.24.76-1.18,1.28-2.52,1.64-4.22h-.36c-.31,0-.7.01-.95.02v-1.14c.26.01.7.02.95.02h.53c-.01-1.52-.04-2.46-.07-2.78l1.26.1c.11,0,.18.05.18.12,0,.06-.06.13-.22.23-.01.37-.01.42-.01,2.34h.3c.26,0,.7-.01.96-.02v1.14c-.25-.01-.64-.02-.96-.02h-.3v1.35Zm5.23.97c.13.28.29.54.47.79.44-.28.64-.44,1.45-1.12l.9.61s.08.08.08.12c0,.07-.07.11-.22.11h-.11q-.24.14-.9.58c-.2.13-.38.24-.64.37l.05.06c.59.62,1.08.96,2.33,1.63-.3.34-.47.56-.7.95-1.08-.61-1.62-1.04-2.25-1.79-.18-.2-.32-.4-.47-.59.01.47.01,1.07.02,1.69v.12c0,.59-.1.85-.4,1.03-.35.22-.73.26-1.89.26-.02-.35-.08-.71-.23-1.24.4.04.59.04.88.04.42,0,.48-.05.48-.47v-.91c-.95.52-2.01,1.07-2.79,1.42-.07.18-.14.26-.22.26-.06,0-.14-.06-.18-.13l-.52-1.04c1.52-.53,2.21-.82,3.71-1.6v-1.59h-1.79c-.36,0-.86,0-1.2.02v-1.13c.34.02.84.02,1.2.02h1.79v-.58h-.88c-.36,0-.86.01-1.2.02v-1.09c.34.02.84.02,1.2.02h.88v-.47h-1.48c-.35,0-.85,0-1.2.02v-1.13c.35.01.85.02,1.2.02h.59c-.29-.47-.52-.79-.77-1.07l.86-.56c.53.53.71.76,1.03,1.3l-.5.34h1.38c.31-.52.53-.98.79-1.64l1.16.52c.06.02.11.08.11.14,0,.08-.1.13-.32.16-.25.41-.4.65-.52.83h.61c.35,0,.86-.01,1.2-.02v1.13c-.34-.02-.85-.02-1.2-.02h-1.81v.47h1.2c.35,0,.85,0,1.2-.02v1.09c-.35-.01-.85-.02-1.2-.02h-1.2v.58h2.11c.35,0,.85,0,1.2-.02v1.13c-.35-.02-.85-.02-1.2-.02h-2.11v.43Zm-2.99-.26c.55.4.83.67,1.31,1.28l-.88.76c-.41-.6-.74-.97-1.21-1.38l.78-.66Z"/>
        <path class="cls-18" d="m85.81,339.59c.1.05.14.1.14.14,0,.07-.06.14-.17.2-.43,1.79-.62,2.4-1.1,3.48-.71,1.6-1.49,2.33-2.5,2.33-.66,0-1.14-.29-1.49-.85-.3-.53-.47-1.16-.47-1.83,0-1.5.85-2.97,2.25-3.89.88-.58,1.86-.86,2.99-.86,1.27,0,2.39.35,3.3,1.01,1.01.74,1.51,1.78,1.51,3.11,0,1.58-.74,2.78-2.27,3.62-.48.26-1.39.61-2.23.85-.23-.62-.31-.79-.63-1.2,1.26-.3,1.74-.47,2.4-.86.96-.56,1.47-1.42,1.47-2.42,0-1.23-.74-2.25-2.01-2.76-.46-.18-.98-.29-1.37-.29h-.24l.41.23Zm-3.13.82c-.77.77-1.2,1.75-1.2,2.71,0,.85.28,1.38.72,1.38.38,0,.72-.37,1.15-1.27.7-1.45,1.12-2.77,1.2-3.8-.85.18-1.33.43-1.87.98Z"/>
        <path class="cls-18" d="m97.6,336.93c.18.02.3.1.3.18s-.01.1-.32.26c-.04.46-.06.84-.08,1.2.32,1.98.92,3.55,1.83,4.83.82,1.15,1.7,1.86,3.56,2.84-.42.41-.56.59-.82,1.02-1.45-.84-2.25-1.46-3.06-2.36-.73-.83-1.33-1.93-1.73-3.17-.05-.17-.1-.32-.14-.49-.07.29-.16.58-.26.91-.74,2.36-2.35,4.2-4.65,5.3-.24-.53-.37-.73-.68-1.02,1.5-.73,2.39-1.46,3.21-2.65.73-1.03,1.19-2.22,1.43-3.68.12-.82.17-1.46.2-3.31l1.21.13Z"/>
        <path class="cls-18" d="m108.72,343.4h-1.02c-.66,0-1.74.02-2.39.05v-1.21c.62.02,1.7.05,2.39.05h1.02v-1.99h-2.73c-.05.13-.11.25-.17.4-.46,1.07-.77,1.59-1.38,2.37-.49-.53-.6-.64-.89-.88,1.14-1.6,1.68-2.88,2.15-5.13l1.13.31c.19.06.29.13.29.23s-.08.16-.34.24c-.12.53-.24.95-.37,1.34h2.31v-.94c0-.96-.01-1.46-.04-1.8l1.26.07c.13.01.2.06.2.12,0,.07-.06.14-.23.24v2.3h1.73c.72,0,1.78-.02,2.4-.05v1.21c-.62-.02-1.68-.05-2.4-.05h-1.73v1.99h1.13c.76,0,1.78-.01,2.39-.05v1.21c-.64-.02-1.66-.05-2.39-.05h-1.13v2.47h2.42c.76,0,1.79-.02,2.4-.05v1.21c-.65-.04-1.67-.05-2.4-.05h-6.3c-.66,0-1.74.02-2.39.05v-1.21c.61.02,1.7.05,2.39.05h2.67v-2.47Z"/>
        <path class="cls-18" d="m123.13,339.2c-1.1.37-1.96.56-3.07.67q-.24.53-.37.77c-.06.1-.07.12-.11.19.36-.19.7-.28,1.08-.28.88,0,1.45.54,1.55,1.44,2.11-1.16,2.13-1.19,2.97-1.73l.76.84c.06.07.1.14.1.2,0,.08-.06.13-.17.13-.06,0-.13,0-.22-.01q-.72.4-2.12,1.13c-.43.23-1.14.6-1.31.7v2.11h-1.21v-1.44q-.07.05-.19.11c-.68.38-1.03.8-1.03,1.26,0,.55.36.68,1.81.68,1.19,0,2.12-.08,3.31-.31-.08.56-.1.72-.12,1.3-1.58.18-1.99.2-3.07.2-1.54,0-2.12-.11-2.6-.47-.41-.3-.61-.73-.61-1.31,0-.77.34-1.36,1.09-1.91.37-.28.5-.35,1.14-.68.14-.07.24-.13.28-.14v-.1c0-.35-.04-.54-.12-.68-.11-.17-.31-.28-.55-.28-.5,0-1.08.34-1.58.91-.23.25-.52.66-.95,1.33l-1.01-.73q.18-.26.82-1.15c.29-.41.8-1.31,1.12-2-.24.01-.42.01-.66.01-.47,0-.73-.01-1.27-.05l-.02-1.14c.6.05.91.06,1.29.06.16,0,.83-.01,1.18-.02.34-.84.62-1.72.71-2.12l1.22.31c.06.01.12.07.12.13,0,.07-.07.13-.23.19q-.11.26-.29.74-.11.28-.18.48c-.04.08-.04.1-.06.17.74-.11,1.38-.26,2.23-.54l.36,1.02Z"/>
        <path class="cls-18" d="m136.63,343.73l.17-.22.83.71c.07.06.12.14.12.22,0,.06-.02.12-.07.14-.05.02-.17.06-.25.08-.34,1.25-.61,1.85-.97,2.25-.41.44-1.07.64-2.22.64-.18,0-.47,0-.84-.01-.02-.47-.05-.6-.19-1.26.5.06.73.07,1.01.07,1.1,0,1.43-.19,1.9-1.62h-4.65c-.04.19-.05.24-.1.46l-1.24-.1c.14-.48.32-1.29.49-2.17-.82.4-1.67.77-2.65,1.16-.14-.47-.28-.73-.49-1.04,1.36-.48,2.39-.91,3.35-1.39.02-.19.05-.38.07-.56l.59.2c.31-.18.64-.37.95-.56h-2.35c-.66,0-1.74.02-2.39.05v-1.12c.62.02,1.7.05,2.39.05h1.96v-.96h-1.94c-.4,0-1.07.01-1.43.02v-1.09c.36.02.97.04,1.43.04h1.94v-.16c0-.55-.01-.7-.02-1.12l1.2.08c.13,0,.22.05.22.12s-.06.14-.23.24v.83h.74c.46,0,1.07-.01,1.43-.04v.79c.49-.48.96-1.02,1.48-1.67l.9.48c.18.1.2.12.2.2,0,.12-.07.16-.38.2-.78.85-1.39,1.48-2,2.02h.77c.75,0,1.77-.02,2.39-.05v1.12c-.64-.02-1.66-.05-2.39-.05h-2.04c-.31.22-.62.43-.98.66-.46.29-.9.56-1.34.82-.01.05-.01.07-.02.12,1.83-.34,3.2-.73,4.23-1.22l.94.84c.06.05.08.1.08.14,0,.08-.1.16-.23.16-.04,0-.1-.01-.16-.02-2.11.6-2.89.78-5.05,1.09-.02.14-.05.28-.07.42h4.95Zm-2.72-4.02c.4-.3.78-.61,1.14-.95-.37,0-.74-.01-1.12-.01h-.74v.96h.72Z"/>
        <path class="cls-18" d="m140.87,345.82q.66-.56,2.05-2.01c1.92-1.98,2.06-2.13,2.59-2.77-1.91.29-3.05.47-3.39.53l-.28-1.28c2.36-.13,2.97-.18,4.53-.35.16-.04.2-.06.34-.16.11.08.19.14.24.18.5.37.65.52.65.62,0,.06-.04.11-.13.17-.11.06-.14.08-.25.17q-.1.1-.31.29c-.53.52-1.03,1.02-1.5,1.52-.31.35-.35.38-.6.64.16-.05.24-.06.35-.06.32,0,.63.16.82.42.13.17.16.23.43,1.06.26.76.36.83,1.19.83s1.49-.07,2.54-.3c-.1.35-.18.62-.13,1.27-1.06.16-1.51.19-2.22.19-1.12,0-1.57-.08-1.89-.32-.18-.14-.25-.26-.41-.64-.1-.23-.25-.65-.31-.83-.22-.64-.35-.79-.68-.79s-.52.16-2.03,1.97c-.3.35-.38.44-.64.71l-.95-1.04Zm5.79-6.9c-1.58-.41-2.51-.88-3.44-1.72l.78-.83c1.03.74,1.76,1.08,3.09,1.4l-.43,1.14Z"/>
        <path class="cls-18" d="m152.64,343.96c1.01.95,1.54,1.56,2.35,2.7l-1.09.83c-.67-1.06-1.42-1.98-2.19-2.71l.94-.82Z"/>
        <path class="cls-18" d="m168.75,339.51c-.94.17-1.7.26-3.08.38-.06-.49-.18-.85-.38-1.18,2.91-.13,5-.6,6.28-1.38l.92.9c.06.06.1.12.1.18,0,.08-.08.13-.24.13h-.18c-1.13.41-1.67.59-2.15.7v1.79h2.27c.49,0,1.27-.01,1.68-.02v1.24c-.44-.01-1.21-.04-1.68-.04h-2.29c-.06,1.13-.23,1.75-.63,2.49-.58,1.04-1.42,1.76-3,2.52-.23-.49-.32-.62-.73-1.12,2.03-.86,2.99-2.06,3.09-3.9h-2.64c-.52,0-1.19.01-1.68.04v-1.24c.46.01,1.14.02,1.68.02h2.66v-1.52Z"/>
        <path class="cls-18" d="m181.46,344.15q.47,1.8.64,2.37s.08.26.1.34l-1.21.32c-.05-.29-.34-1.74-.62-2.87l-.47-1.8-.29.07c-.79.18-1.02.24-1.92.49-.08.02-.11.02-.24.06l-.37-1.1c.8-.14,1.13-.2,2.57-.53q-.52-2-.67-2.41l1.2-.13c.18-.02.26.06.26.16,0,.07-.04.13-.13.25q.04.24.42,1.88l3.29-.79.16-.2.95.67c.12.08.14.12.14.19,0,.12-.01.13-.25.23-.58,1.21-.97,1.75-2.03,2.77-.31-.4-.32-.41-.84-.83.74-.59,1.1-.98,1.55-1.74l-2.71.7.49,1.9Z"/>
        <path class="cls-18" d="m189.79,345.27q.12-.43.14-2.23v-2.79c0-.92-.02-1.44-.05-1.8l1.37.08c.13.01.2.05.2.12s-.06.13-.23.24q-.01.58-.01,1.36v4.2c2.5-.94,4.79-2.28,6.3-3.72.16.61.24.86.47,1.26-1.12.9-1.82,1.38-3.12,2.12-1.44.83-2.27,1.21-3.77,1.74-.05.17-.11.24-.18.24-.05,0-.13-.04-.18-.07l-.95-.74Z"/>
        <path class="cls-18" d="m201.79,338.37c1.25.65,1.7.98,2.53,1.9l-.95,1.04c-.86-.96-1.49-1.46-2.38-1.94l.79-1Zm-.46,6.76c1.81-.77,2.84-1.35,4.21-2.39,1.59-1.22,2.53-2.17,3.77-3.85.24.42.44.68.83,1.14-1.58,1.91-2.47,2.78-3.87,3.84-1.18.89-2.06,1.43-3.77,2.29-.05.17-.1.25-.18.25-.06,0-.16-.06-.2-.14l-.78-1.14Z"/>
        <path class="cls-18" d="m213.27,340.15c1,.54,1.44.88,2.21,1.61l-.9,1.07q-1.08-1-2.06-1.64l.76-1.03Zm.17,5.34c1.32-.59,2.84-1.52,4.21-2.61,1.4-1.1,2.54-2.25,3.6-3.6.31.43.42.56.9,1.04-2.36,2.76-3.72,3.89-7.46,6.21-.05.17-.11.25-.19.25-.06,0-.14-.06-.22-.16l-.84-1.14Zm1.74-7.92c.9.54,1.32.88,2.16,1.74l-.89,1c-.74-.77-1.34-1.3-2.04-1.75l.77-.98Zm4.87-.47c.56.35.94.64,1.52,1.2l-.6.65c-.56-.59-.83-.82-1.45-1.24l.53-.61Zm.94-1.09c.56.35.93.64,1.51,1.2l-.6.66c-.55-.59-.82-.83-1.44-1.25l.53-.61Z"/>
        <path class="cls-18" d="m231.13,339.2c-1.1.37-1.96.56-3.07.67q-.24.53-.37.77c-.06.1-.07.12-.11.19.36-.19.7-.28,1.08-.28.88,0,1.45.54,1.55,1.44,2.11-1.16,2.13-1.19,2.97-1.73l.76.84c.06.07.1.14.1.2,0,.08-.06.13-.17.13-.06,0-.13,0-.22-.01q-.72.4-2.12,1.13c-.43.23-1.14.6-1.31.7v2.11h-1.21v-1.44q-.07.05-.19.11c-.68.38-1.03.8-1.03,1.26,0,.55.36.68,1.81.68,1.19,0,2.12-.08,3.31-.31-.08.56-.1.72-.12,1.3-1.58.18-1.99.2-3.07.2-1.54,0-2.12-.11-2.6-.47-.41-.3-.61-.73-.61-1.31,0-.77.34-1.36,1.09-1.91.37-.28.5-.35,1.14-.68.14-.07.24-.13.28-.14v-.1c0-.35-.04-.54-.12-.68-.11-.17-.31-.28-.55-.28-.5,0-1.08.34-1.58.91-.23.25-.52.66-.95,1.33l-1.01-.73q.18-.26.82-1.15c.29-.41.8-1.31,1.12-2-.24.01-.42.01-.66.01-.47,0-.73-.01-1.27-.05l-.02-1.14c.6.05.91.06,1.29.06.16,0,.83-.01,1.18-.02.34-.84.62-1.72.71-2.12l1.22.31c.06.01.12.07.12.13,0,.07-.07.13-.23.19q-.11.26-.29.74-.11.28-.18.48c-.04.08-.04.1-.06.17.74-.11,1.38-.26,2.23-.54l.36,1.02Z"/>
        <path class="cls-18" d="m244.11,337.8c.74,0,1.78-.01,2.4-.05v1.18c-.62-.04-1.7-.05-2.4-.05h-6.69v2.89c0,2.4-.41,4.03-1.37,5.53-.34-.54-.38-.62-.72-1.01.62-1.09.9-2.48.9-4.61v-2.84c0-.37-.01-.83-.04-1.06.41.01.8.01,1.32.01h3.09v-.65c0-.34-.01-.6-.02-.78l1.24.08c.14.01.22.05.22.12,0,.08-.06.16-.24.24v.98h2.31Zm-4.8,4.81c.07.02.12.07.12.13,0,.07-.04.11-.2.16-.32,1.75-.47,2.22-1.04,3.35-.49-.43-.55-.48-.95-.68.56-1.08.8-1.94.95-3.27l1.13.32Zm1.69-1.61c.11,0,.19.07.19.14,0,.08-.07.14-.25.22-.01.16-.02.32-.02.52v3.72c0,.29.06.37.28.42.14.02.7.07.96.07,1.58,0,1.64-.06,1.64-1.82.59.17.79.22,1.15.28-.04,1.56-.19,2.09-.7,2.36-.42.24-.85.3-2.35.3-1.81,0-2.13-.22-2.13-1.42v-3.79c0-.64-.01-.92-.04-1.1l1.27.11Zm.41-1.91c.89.61,1.46,1.15,2.22,2.09l-.9.78c-.68-.98-1.14-1.46-2-2.16l.68-.71Zm3.31,2.81c1.04,1,1.74,1.96,2.28,3.17l-1.01.7c-.53-1.22-1.13-2.17-2.04-3.2l.77-.66Z"/>
        <path class="cls-18" d="m249.05,340.06h-.47c-.32,0-.71,0-.96.01v-1.14c.26.01.7.02.96.02h.47c-.01-1.34-.04-2.17-.07-2.47l1.28.08c.11.01.18.06.18.12,0,.07-.07.13-.23.23,0,.36,0,.41-.01,2.04h.38c.25,0,.68-.01.95-.02v1.14c-.25-.01-.64-.01-.95-.01h-.38v1.44c.4-.2.77-.42,1.1-.62l.3,1.04c-.52.31-.97.56-1.4.79v.47c0,.61.01,1.4.04,3.06v.11c0,.49-.1.72-.4.89-.34.18-.64.22-1.91.23-.06-.54-.11-.82-.24-1.26.41.02.66.04.86.04.44,0,.49-.05.49-.49v-2.45c-.22.11-.44.2-.68.31-.08.22-.13.28-.2.28s-.16-.05-.18-.11l-.43-1.13c.48-.17,1-.37,1.5-.6v-1.99Zm7.88,3.09l.16-.19.77.78c.06.07.08.11.08.17,0,.1-.05.12-.37.22-.35.55-.74,1.09-1.24,1.52.73.3,1.42.46,2.63.65-.23.4-.32.64-.47,1.14-1.61-.34-2.34-.56-3.19-1.04-.78.47-1.56.79-2.82,1.16-.16-.46-.29-.72-.52-1.04,1.07-.26,1.77-.49,2.37-.8-.38-.35-.71-.78-.97-1.22-.61.84-1.34,1.56-2.32,2.23-.18-.4-.37-.67-.67-.95.95-.61,1.64-1.3,2.23-2.17.22-.32.4-.65.55-1h-.07c-.4,0-1.07.01-1.44.02v-1.04c.36.01.98.02,1.44.02h.44c.07-.24.14-.48.19-.73h-.28c-.4,0-1.08.01-1.44.02v-1.04c.26.01.66.02,1.04.04-.3-.53-.54-.9-.83-1.27l.67-.46c-.24.04-.49.06-.77.1-.16-.48-.18-.55-.41-1.01,2.2-.17,3.59-.38,5.58-.88l.7.73s.07.1.07.12c0,.07-.08.13-.19.13-.02,0-.13-.01-.19-.01-1.01.23-1.79.4-2.7.54.35.37.67.82,1.02,1.43l-.91.58h.95c.47-.74.71-1.27.98-2.21l1.14.44c.1.04.14.07.14.13,0,.08-.04.11-.29.2-.35.68-.53,1.03-.79,1.43.42,0,.89-.01,1.19-.04v1.04c-.36-.01-1.03-.02-1.43-.02h-2.11c-.06.24-.12.49-.18.73h2.63c.47,0,1.08-.01,1.44-.02v1.04c-.37-.01-1.04-.02-1.44-.02h-2.95c-.07.19-.14.37-.23.55h2.78Zm-1.93-3.26c-.24-.53-.53-.97-.95-1.54l.62-.42c-.5.07-1.02.14-1.52.2.35.37.67.83,1.03,1.44l-.43.31h1.25Zm-.68,4.22c.28.37.61.71,1,.98.37-.28.7-.61.97-.98h-1.97Z"/>
        <path class="cls-18" d="m263.53,337.5c.13,0,.23.07.23.17,0,.08-.05.13-.2.24-.05.98-.18,5.79-.18,6.42,0,1,.36,1.36,1.37,1.36.71,0,1.39-.2,2.11-.62.88-.5,1.37-.96,2.22-2.09.19.44.31.61.78,1.15-.92,1.09-1.46,1.56-2.33,2.06-.94.53-1.93.8-2.93.8s-1.69-.29-2.09-.82c-.3-.4-.44-.97-.44-1.8,0-.32.01-.6.07-2.13.04-1.06.06-2.24.06-3.44,0-.54-.01-.97-.04-1.39l1.37.1Z"/>
        <path class="cls-18" d="m278.25,344.36c.84.31,1.61.74,2.92,1.63-.29.31-.59.71-.76,1.03-1.06-.85-1.27-1-2.18-1.46-.07.46-.18.74-.38,1-.37.44-1.09.7-1.98.7-1.44,0-2.41-.7-2.41-1.74s.91-1.61,2.42-1.61c.4,0,.75.02,1.12.08q-.02-.42-.05-1.22-.3.01-.58.01c-.82,0-1.03-.02-1.4-.18-.42-.17-.68-.56-.68-1.04,0-.44.14-.74.56-1.2l.91.5c-.2.19-.28.3-.28.46,0,.28.28.37,1,.37.14,0,.25,0,.42-.01-.02-.79-.02-.91-.02-1.66q-.86.05-3.08.05h-.32s-.05,0-.41.01l-.04-1.19c.73.02,1.04.02,2.03.02.56,0,1.4-.01,1.82-.05,0-1.12-.02-1.61-.13-2.11l1.43.07c.12.01.18.06.18.13,0,.08-.04.13-.22.24,0,.46-.01.8-.02,1.58.9-.1,1.87-.28,2.69-.5l.13,1.19c-.9.2-2.1.4-2.82.46v.05q0,.2.01.79t.01.77c.96-.2,1.45-.37,2.17-.78l.38,1.07c-.82.42-1.58.67-2.52.83.01.18.04.68.07,1.36v.36Zm-2.47.56c-.72,0-1.09.19-1.09.55,0,.42.41.67,1.09.67.61,0,.98-.2,1.13-.59.04-.11.1-.47.07-.48-.35-.1-.78-.16-1.2-.16Z"/>
        <path class="cls-18" d="m290.83,336.48c.16,0,.25.07.25.17s-.05.16-.22.29c0,.43,0,.78-.01,1v.83c2.17-.1,2.92-.14,3.85-.26v1.28h-1.49q-.52,0-2.36.07v2.15c.05.58.06.77.06,1,0,2.42-1.33,3.79-4.37,4.46-.14-.47-.32-.83-.58-1.16,1.18-.26,1.5-.36,2.05-.6.79-.35,1.14-.66,1.4-1.25-.25.17-.37.2-.73.2-1.1,0-1.8-.74-1.8-1.93s.71-2.04,1.71-2.04c.38,0,.7.07,1,.26.01-.22.01-.34.01-.42,0-.04,0-.49-.01-.64-2.27.06-4.56.17-5.43.26l-.08-1.33c.68.04.98.05,1.45.05,1.2,0,2.39-.02,4.07-.07v-.79c-.01-.89-.04-1.26-.1-1.57l1.32.05Zm-2.01,5.19c-.49,0-.84.41-.84.98s.35.97.86.97c.47,0,.79-.4.79-.98s-.34-.97-.82-.97Z"/>
        <path class="cls-18" d="m299.34,345.66c0,1.02-.82,1.83-1.82,1.83s-1.83-.82-1.83-1.83.82-1.82,1.83-1.82,1.82.82,1.82,1.82Zm-2.79,0c0,.54.43.97.97.97s.96-.43.96-.97-.43-.96-.96-.96-.97.43-.97.96Z"/>
        <path class="cls-18" d="m37.86,364.7c.24.49.52.96.84,1.39.46-.34.89-.68,1.29-1.08.26-.26.52-.54.77-.82l1.03.71c.06.04.1.11.1.17q0,.08-.37.12c-.68.65-1.37,1.21-2.12,1.73l.25.25c.98,1.01,1.7,1.49,3.25,2.21-.34.4-.48.61-.78,1.16-1.49-.8-2.24-1.38-3.2-2.46-.43-.49-.77-.91-1.06-1.38v.53c0,.61.01,1.4.04,3.05v.11c0,.52-.1.74-.42.9-.37.19-.68.23-2.06.24-.08-.54-.14-.82-.29-1.3.52.04.82.06,1.08.06.41,0,.46-.06.46-.5v-2.42c-1.13.94-2.6,1.88-4.09,2.64-.04.23-.1.32-.2.32-.07,0-.14-.05-.18-.12l-.6-1.15.54-.28c1.81-.9,2.47-1.31,4.11-2.51l.42.91v-3.35h-2.48c-.59,0-1.63.01-2.15.04v-1.19c.49.02,1.54.05,2.15.05h2.48c-.01-.38-.01-.76-.01-1.14-.01-.38-.01-.78-.06-1.16l1.33.08c.1.01.17.06.17.12,0,.07-.06.13-.22.24-.02.62-.01,1.24-.01,1.86h2.38c.66,0,1.62-.02,2.15-.05v1.19c-.55-.02-1.51-.04-2.15-.04h-2.38v.86Zm-4.2-.56c.96.88,1.19,1.13,1.79,2.03l-.98.78c-.78-1.1-1.12-1.52-1.68-2.04l.88-.77Zm5.46-3.53c1.02.55,1.17.66,1.76,1.2l-.7.8c-.78-.68-1.14-.95-1.68-1.22l.61-.78Z"/>
        <path class="cls-18" d="m47.04,368.76c0,1.22.01,2.21.05,2.81h-1.16c.02-.66.05-1.59.05-2.81v-.16c-.24.1-.42.16-.58.22q-.75.28-1.13.43c-.08.18-.13.23-.2.23-.06,0-.14-.06-.17-.13l-.42-1.12c.23-.05.43-.1.62-.14v-6.16c-.17,0-.34.01-.47.01v-1.06c.35.01.85.02,1.2.02h1.66c.35,0,.86-.01,1.2-.02v1.06c-.18-.01-.42-.01-.65-.01v6.84Zm-1.87-6.85v1.24h.8v-1.24h-.8Zm0,2.24v1.28h.8v-1.28h-.8Zm0,2.29v1.34c.26-.07.54-.17.8-.25v-1.09h-.8Zm7.6-.83c.01.34.02.65.05.94.02.4.07.77.13,1.13.26-.48.47-1.02.67-1.71l.95.37c.12.05.16.08.16.16,0,.08-.02.1-.26.18-.31.98-.67,1.73-1.17,2.39.07.19.14.37.22.56.1.25.19.38.25.38.12,0,.26-.52.35-1.27.22.12.46.25.86.43-.17.89-.23,1.16-.35,1.55-.16.48-.37.7-.7.7-.59,0-1.03-.44-1.44-1.44-.6.59-1.27,1.01-2.51,1.61-.23-.42-.38-.61-.68-.92.66-.26,1.15-.5,1.57-.77h-.89v-.24h-1.01v.61h-1.04c.01-.29.02-.68.02-1.28v-1.81c0-.38-.01-.84-.02-1.06.26.01.5.01.86.01h1.37c.36,0,.6,0,.86-.01-.01.22-.02.67-.02,1.06v1.48c0,.5.01.88.02,1.15.34-.23.64-.48.94-.79.06-.06.11-.11.16-.17-.28-1.06-.36-2.13-.43-3.21h-2.75c-.5,0-1.17.01-1.67.02v-1.09c.25.01.58.01.91.01-.12-.49-.23-.85-.38-1.31l.72-.24h-.95s0-1.06,0-1.06c.18.01.49.02.72.02h.61v-.77c0-.34-.01-.6-.02-.77l1.1.07c.14.01.22.06.22.12,0,.07-.06.14-.23.25v1.09h.71c.23,0,.54-.01.72-.02v1.07h-.72s-.41-.01-.41-.01l.9.23c.12.04.22.12.22.2,0,.1-.05.12-.31.18-.13.36-.25.68-.35.95h.91c-.02-.78-.04-1.67-.04-2.69,0-.8-.02-1.26-.07-1.48l1.21.13c.13.01.19.06.19.13,0,.08-.07.16-.24.24-.01.4-.01.68-.01,2.07,0,.36.01.95.05,1.58h.38c.48,0,1.26-.01,1.67-.02v1.09c-.44-.01-1.21-.02-1.67-.02h-.34Zm-3.09-1.04c.17-.5.3-1.03.38-1.56h-1.34c.18.42.34.83.46,1.27l-.8.29h1.31Zm.3,2.47h-1.01v.41h1.01v-.41Zm0,1.25h-1.01v.43h1.01v-.43Zm3.67-6.63c.46.71.72,1.25.95,1.86l-.96.44c-.2-.66-.52-1.34-.86-1.9l.88-.41Z"/>
        <path class="cls-18" d="m63.27,362.43c.41-.42.72-.82,1.32-1.61l1.03.55c.14.07.18.12.18.19,0,.12-.1.16-.42.19-.79.9-1.55,1.69-2.34,2.4h1.29c.76,0,1.79-.02,2.4-.05v1.19c-.65-.02-1.67-.04-2.4-.04h-2.6c-.41.32-.84.64-1.28.92h3.49c.42,0,.71,0,1.02-.01q-.01.38-.04,1.91v1.19c0,.96.01,1.66.04,2.11h-1.16v-.5h-4.11v.67h-1.16c.02-.49.04-1.13.04-2.11v-2.11c-.79.43-1.64.85-2.58,1.27-.19-.44-.32-.65-.64-1.02,1.87-.78,3.21-1.46,4.5-2.31h-1.8c-.66,0-1.74.01-2.39.04v-1.19c.61.02,1.7.05,2.39.05h2.06v-1.25h-2.05c-.4,0-1.07.01-1.44.02v-1.15c.36.01.98.02,1.44.02h2.05c0-.7-.01-1.1-.04-1.4l1.21.08c.13.01.2.06.2.12,0,.07-.06.14-.23.24v.96h.58c.46,0,1.08-.01,1.44-.02v.65Zm.53,5.61v-.82h-4.11v.82h4.11Zm-4.11,1.79h4.11v-.83h-4.11v.83Zm1.67-5.67c.49-.4.97-.8,1.42-1.24-.31,0-.62-.01-.93-.01h-.58v1.25h.1Z"/>
        <path class="cls-18" d="m70.23,365.71c.49.34.86.65,1.31,1.12l-.74,1.03c-.17-.24-.36-.5-.56-.73v.95c0,1.57.01,2.73.05,3.5h-1.24c.04-.78.05-1.95.05-3.5v-.71c-.32.98-.62,1.58-1.16,2.45-.32-.73-.43-.94-.65-1.24.76-1.18,1.28-2.52,1.64-4.22h-.36c-.31,0-.7.01-.95.02v-1.14c.26.01.7.02.95.02h.53c-.01-1.52-.04-2.46-.07-2.78l1.26.1c.11,0,.18.05.18.12,0,.06-.06.13-.22.23-.01.37-.01.42-.01,2.34h.3c.26,0,.7-.01.96-.02v1.14c-.25-.01-.64-.02-.96-.02h-.3v1.35Zm5.23.97c.13.28.29.54.47.79.44-.28.64-.44,1.45-1.12l.9.61s.08.08.08.12c0,.07-.07.11-.22.11h-.11q-.24.14-.9.58c-.2.13-.38.24-.64.37l.05.06c.59.62,1.08.96,2.33,1.63-.3.34-.47.56-.7.95-1.08-.61-1.62-1.04-2.25-1.79-.18-.2-.32-.4-.47-.59.01.47.01,1.07.02,1.69v.12c0,.59-.1.85-.4,1.03-.35.22-.73.26-1.89.26-.02-.35-.08-.71-.23-1.24.4.04.59.04.88.04.42,0,.48-.05.48-.47v-.91c-.95.52-2.01,1.07-2.79,1.42-.07.18-.14.26-.22.26-.06,0-.14-.06-.18-.13l-.52-1.04c1.52-.53,2.21-.82,3.71-1.6v-1.59h-1.79c-.36,0-.86,0-1.2.02v-1.13c.34.02.84.02,1.2.02h1.79v-.58h-.88c-.36,0-.86.01-1.2.02v-1.09c.34.02.84.02,1.2.02h.88v-.47h-1.48c-.35,0-.85,0-1.2.02v-1.13c.35.01.85.02,1.2.02h.59c-.29-.47-.52-.79-.77-1.07l.86-.56c.53.53.71.76,1.03,1.3l-.5.34h1.38c.31-.52.53-.98.79-1.64l1.16.52c.06.02.11.08.11.14,0,.08-.1.13-.32.16-.25.41-.4.65-.52.83h.61c.35,0,.86-.01,1.2-.02v1.13c-.34-.02-.85-.02-1.2-.02h-1.81v.47h1.2c.35,0,.85,0,1.2-.02v1.09c-.35-.01-.85-.02-1.2-.02h-1.2v.58h2.11c.35,0,.85,0,1.2-.02v1.13c-.35-.02-.85-.02-1.2-.02h-2.11v.43Zm-2.99-.26c.55.4.83.67,1.31,1.28l-.88.76c-.41-.6-.74-.97-1.21-1.38l.78-.66Z"/>
        <path class="cls-18" d="m85.81,363.59c.1.05.14.1.14.14,0,.07-.06.14-.17.2-.43,1.79-.62,2.4-1.1,3.48-.71,1.6-1.49,2.33-2.5,2.33-.66,0-1.14-.29-1.49-.85-.3-.53-.47-1.16-.47-1.83,0-1.5.85-2.97,2.25-3.89.88-.58,1.86-.86,2.99-.86,1.27,0,2.39.35,3.3,1.01,1.01.74,1.51,1.78,1.51,3.11,0,1.58-.74,2.78-2.27,3.62-.48.26-1.39.61-2.23.85-.23-.62-.31-.79-.63-1.2,1.26-.3,1.74-.47,2.4-.86.96-.56,1.47-1.42,1.47-2.42,0-1.23-.74-2.25-2.01-2.76-.46-.18-.98-.29-1.37-.29h-.24l.41.23Zm-3.13.82c-.77.77-1.2,1.75-1.2,2.71,0,.85.28,1.38.72,1.38.38,0,.72-.37,1.15-1.27.7-1.45,1.12-2.77,1.2-3.8-.85.18-1.33.43-1.87.98Z"/>
        <path class="cls-18" d="m94.73,361.45c-.43.78-.6,1.06-.86,1.48.65-.04,1.3-.08,1.94-.16-.22-.25-.44-.49-.7-.72l.71-.62c.85.71,1.28,1.2,1.97,2.21l-.89.7c-.14-.24-.28-.47-.43-.68-1.17.16-2.03.25-4.09.44-.1.14-.17.22-.25.22-.05,0-.13-.08-.16-.17l-.32-1.14c.38-.01.72-.01,1.03-.02.49-.79.86-1.56,1.27-2.6l1.14.37c.08.02.13.07.13.13,0,.08-.01.1-.26.17l-.23.41Zm-1.12,7.84c0,.72.01,1.68.04,2.24h-1.15c.02-.88.02-1.13.02-1.76v-3.85c0-.59-.01-.97-.02-1.38.25.01.62.01.97.01h2.31c.37,0,.76,0,1.02-.01q-.02.59-.02,1.06v2.9c0,.26.01.94.04,1.43v.19c0,1.16-.3,1.37-1.97,1.37h-.1c-.05-.55-.08-.78-.19-1.15.3.02.43.02.68.02.38,0,.44-.06.44-.49v-.74h-2.07v.17Zm2.07-3.73h-2.07v.82h2.07v-.82Zm-2.07,2.61h2.07v-.86h-2.07v.86Zm5.44-5.89c.96-.35,1.52-.65,2.39-1.21l.89.72c.06.05.08.08.08.13,0,.08-.08.13-.23.13h-.12c-.92.52-1.91.91-3.01,1.22v.62c0,.34.04.4.2.44.23.06.37.07.98.07,1.01,0,1.18-.02,1.32-.23.07-.1.12-.32.16-.65l.05-.4c.08.04.14.06.19.08.12.05.4.14.82.29-.14,1.15-.22,1.4-.46,1.64-.26.23-.73.31-1.91.31-1.24,0-1.62-.02-1.92-.13-.41-.13-.58-.47-.58-1.16v-3.69s1.14.08,1.14.08c.16.01.23.05.23.12s-.06.14-.23.24v1.36Zm0,5.5c.96-.36,1.54-.66,2.4-1.22l.89.72s.08.08.08.13c0,.08-.08.13-.23.13h-.12c-.92.52-1.92.92-3.02,1.22v1c0,.34.04.38.2.44.23.06.37.07.98.07,1.01,0,1.18-.04,1.32-.24.07-.08.12-.32.16-.64l.05-.4c.08.04.14.06.19.08.12.05.4.14.82.29-.14,1.15-.22,1.4-.46,1.63-.26.24-.73.31-1.91.31-1.24,0-1.62-.02-1.92-.12-.41-.13-.58-.47-.58-1.16v-4.04s1.14.08,1.14.08c.16.01.23.05.23.12s-.06.14-.23.24v1.34Z"/>
        <path class="cls-18" d="m109.3,364.21c-.16,1.7-.44,2.79-.91,3.73-.6,1.16-1.43,2.01-2.72,2.78-.38.23-.64.37-1.28.7l-.12-.22c-.23-.43-.29-.53-.62-.9,2.9-1.32,4.04-2.72,4.38-6.07l-1.69.04c-1.17.02-1.37.02-2.16.06l-.02-1.24c.18.01.9.02,2.15.02l1.81-.02.04-1.68c0-.29,0-.65-.02-.9l1.37.11c.2.01.32.08.32.2,0,.11-.08.18-.36.34-.01.71-.04,1.33-.07,1.91l3.54-.06.19-.23.89.71c.12.08.14.14.14.22,0,.1-.02.13-.26.24-.01.66-.02.96-.02,1.42-.02,3.3-.24,4.64-.86,5.27-.52.52-.98.61-3.11.62-.08-.61-.17-.9-.37-1.35h.22c.31.02.64.02.98.02,1.01,0,1.28-.11,1.51-.6.28-.6.38-2.04.42-5.18l-3.33.07Z"/>
        <path class="cls-18" d="m118.2,368.18c1.22-.52,2.34-1.06,3.63-1.77l.29,1.04c-1.69.94-2.07,1.15-2.85,1.5q-2.15.96-2.87,1.26l-.02.11c-.04.14-.08.19-.16.19-.1,0-.18-.08-.25-.23l-.52-1.06c.54-.19,1.04-.37,1.52-.55v-4.91c0-1.57-.02-2.54-.06-2.83l1.33.08c.11,0,.18.05.18.12s-.06.13-.22.23q0,.25-.01,2.4v4.41Zm6.9-4.63c0,2.15-.13,3.38-.49,4.33,1.1.68,1.58,1.16,2.36,2.29l-.94,1c-.77-1.14-1.21-1.65-1.98-2.24-.88,1.24-2.34,1.99-4.67,2.43-.11-.48-.28-.85-.56-1.2,1.69-.34,1.94-.4,2.64-.73,1.12-.54,1.82-1.32,2.13-2.35.24-.82.34-1.88.34-3.86,0-1.16-.01-1.81-.04-2.33l1.25.14c.11.01.22.1.22.16q0,.1-.26.24v2.12Zm-5.12-2.09c1.25.84,1.69,1.22,2.63,2.29l-.88.85c-.95-1.14-1.43-1.6-2.45-2.35l.7-.79Z"/>
        <path class="cls-18" d="m132.45,363.04c0-1.19-.02-1.81-.05-2.16l1.29.08c.13.01.22.06.22.12,0,.07-.07.14-.24.24v3.15h2.54c.46,0,1.08-.01,1.44-.04v1.18c-.37-.01-1.04-.02-1.44-.02h-2.54v4.21h2.67c.75,0,1.77-.02,2.39-.05v1.21c-.64-.02-1.66-.05-2.39-.05h-6.31c-.66,0-1.74.02-2.39.05v-1.21c.62.02,1.7.05,2.39.05h2.41v-6.76Z"/>
        <path class="cls-18" d="m145.81,363.59c.1.05.14.1.14.14,0,.07-.06.14-.17.2-.43,1.79-.62,2.4-1.1,3.48-.71,1.6-1.49,2.33-2.5,2.33-.66,0-1.14-.29-1.49-.85-.3-.53-.47-1.16-.47-1.83,0-1.5.85-2.97,2.25-3.89.88-.58,1.86-.86,2.99-.86,1.27,0,2.39.35,3.3,1.01,1.01.74,1.51,1.78,1.51,3.11,0,1.58-.74,2.78-2.27,3.62-.48.26-1.39.61-2.23.85-.23-.62-.31-.79-.63-1.2,1.26-.3,1.74-.47,2.4-.86.96-.56,1.47-1.42,1.47-2.42,0-1.23-.74-2.25-2.01-2.76-.46-.18-.98-.29-1.37-.29h-.24l.41.23Zm-3.13.82c-.77.77-1.2,1.75-1.2,2.71,0,.85.28,1.38.72,1.38.38,0,.72-.37,1.15-1.27.7-1.45,1.12-2.77,1.2-3.8-.85.18-1.33.43-1.87.98Z"/>
        <path class="cls-18" d="m157.9,360.75c.17.06.24.12.24.19,0,.1,0,.11-.29.18.61.95,1.14,1.55,1.9,2.15.89.72,1.85,1.25,3.2,1.8q-.43.52-.73,1.14c-1.55-.74-2.12-1.09-3.09-1.9-.9-.74-1.22-1.09-1.97-2.27-.59.9-1.03,1.42-1.79,2.11-.96.9-1.7,1.43-3.27,2.34-.28-.56-.4-.76-.71-1.13,1.39-.72,2.2-1.27,3.13-2.14.94-.85,1.47-1.54,2.28-2.88l1.1.4Zm-1.16,4.43c0-.55,0-.7-.02-1.12l1.28.08c.13.01.22.05.22.12s-.07.14-.23.24v1.96h1.7c.46,0,1.07-.01,1.43-.02v1.18c-.36-.02-1.03-.04-1.43-.04h-1.7v2.53h2.17c.76,0,1.78-.02,2.39-.05v1.23c-.64-.02-1.66-.04-2.39-.04h-5.91c-.66,0-1.74.01-2.39.04v-1.23c.52.02,1.37.04,2.04.05v-2.76c0-.55,0-.7-.02-1.1l1.26.07c.13.01.22.06.22.12,0,.07-.07.14-.24.24v3.43h1.63v-4.93Z"/>
        <path class="cls-18" d="m169.7,369.45c0,.91.01,1.68.04,2.11h-1.17c.02-.47.04-1.14.04-2.11v-.64c-.7.61-1.15.92-1.92,1.34-.91.49-1.54.74-2.75,1.12-.2-.54-.23-.6-.5-1.06,1.81-.48,3.07-1.03,4.14-1.8h-1.52c-.62,0-1.4.01-1.91.04v-1.02c.5.02,1.28.04,1.91.04h2.55v-.59h-1.54c-.61,0-1.4.01-1.91.04v-1.01c.5.01,1.29.04,1.91.04h1.54v-.56h-2.12c-.62,0-1.42.02-1.92.05v-1.02c.5.02,1.29.04,1.92.04h.73c-.14-.36-.32-.7-.53-1.02h-.49c-.66,0-1.74.01-2.39.04v-1.09c.54.02,1.42.04,2.09.04-.24-.4-.42-.62-.88-1.13l.82-.64c.67.64.84.83,1.28,1.55l-.34.22h.89v-1.94s1.12.08,1.12.08c.14.01.23.05.23.12s-.07.14-.24.24v1.5h.88v-1.18c0-.32,0-.59-.01-.77l1.14.08c.13.01.22.05.22.12s-.07.14-.24.24v1.5h.48c.37-.74.49-1.09.65-1.73l1.16.42c.07.02.13.08.13.13,0,.08-.04.11-.28.19q-.07.14-.36.73c-.04.07-.08.16-.14.25.73,0,1.64-.01,2.21-.04v1.09c-.64-.02-1.66-.04-2.39-.04h-.78c.16.05.19.11.19.16,0,.07-.06.11-.26.17q-.08.16-.36.7h.94c.55,0,1.39-.01,1.91-.04v1.02c-.52-.02-1.35-.05-1.91-.05h-2.23v.56h1.63c.55,0,1.4-.02,1.92-.04v1.01c-.52-.02-1.37-.04-1.92-.04h-1.63v.59h2.7c.55,0,1.39-.01,1.91-.04v1.02c-.52-.02-1.35-.04-1.91-.04h-1.78c1.1.78,2.34,1.26,4.25,1.68-.28.44-.34.58-.54,1.09-1.2-.3-2.03-.62-3.03-1.16-.64-.36-1-.61-1.6-1.18v.6Zm.18-5c.16-.34.31-.67.42-1.02h-2.43c.23.31.41.66.55,1.02h1.46Z"/>
        <path class="cls-18" d="m181.06,361.39c.11.02.18.1.18.17,0,.1-.07.16-.28.22q-.41,1.37-.6,1.97s.06,0,.13-.01c.35-.06.6-.08.82-.08.41,0,.82.17,1.14.47.31.3.46.65.46,1.2,0,1.28-.35,3-.83,4.1-.38.89-.96,1.27-1.89,1.27-.42,0-.76-.05-1.36-.18.05-.32.1-.97.11-1.31.58.18.9.24,1.24.24.53,0,.78-.28,1.03-1.16.26-.89.44-2.05.44-2.78,0-.5-.18-.74-.56-.74-.19,0-.4.02-1.09.14-.31.95-.7,1.91-1.23,3.05-.46.92-.74,1.43-1.72,2.89-.36-.36-.64-.54-1.07-.71.9-1.19,1.31-1.83,1.83-2.9.24-.5.7-1.57.88-2.1-.71.13-1.49.28-2.3.43l-.17-1.3c.78-.05,1.78-.16,2.88-.32.34-1.07.62-2.22.71-2.78l1.26.24Zm2.89,2.05c1.39.83,2.03,1.39,3.07,2.78l-1.02.92c-.7-1.15-1.57-2.02-2.77-2.77l.72-.94Z"/>
        <path class="cls-18" d="m191.19,363.54c.11.02.17.1.17.18s-.07.14-.26.2c-.17.96-.25,1.82-.31,3.01h.06c.9-1.31,2.42-2.12,3.97-2.12,1.71,0,2.76.91,2.76,2.42,0,1.43-.86,2.53-2.47,3.17-.7.28-1.81.54-2.97.71-.06-.44-.18-.9-.35-1.32,1.28-.13,2.12-.3,2.88-.6,1.01-.41,1.61-1.14,1.61-1.99,0-.8-.53-1.26-1.44-1.26-1.06,0-1.97.41-2.9,1.31-.55.52-.98,1.24-1.1,1.8l-1.24-.02c-.01-.61-.01-.74-.01-1.02,0-.88.06-1.91.2-3.38.04-.36.04-.47.07-.91.01-.22.01-.23.05-.48l1.3.31Zm-.22-2.6c1.12.3,1.95.7,2.94,1.39l-.72,1.09c-.88-.67-1.68-1.09-2.79-1.42l.58-1.07Z"/>
        <path class="cls-18" d="m202.77,366.87c-.28.42-.37.68-.37,1.04,0,1,.78,1.35,2.99,1.35,1.37,0,2.29-.12,3.59-.48-.05.43-.06.64-.06.91,0,.16,0,.26.01.52-.94.23-2.11.35-3.42.35-1.88,0-2.85-.2-3.59-.73-.5-.36-.78-.96-.78-1.68,0-.62.12-1.06.53-1.81l1.1.53Zm.35-4.87c.44.61.65.7,1.85.7.9,0,1.93-.14,2.96-.4l.31,1.21c-1.29.31-2.17.41-3.54.41s-1.89-.25-2.54-1.3l.96-.62Zm5.5-.74c.56.35.92.64,1.51,1.2l-.6.66c-.55-.59-.83-.83-1.44-1.25l.53-.61Zm.92-1.08c.58.35.94.64,1.52,1.2l-.6.65c-.55-.59-.83-.82-1.45-1.24l.53-.61Z"/>
        <path class="cls-18" d="m219.64,370.28c.37.04.79.05,1.27.05.74,0,1.33-.02,2.01-.08q-.17.66-.24,1.16c-.52.04-.96.05-1.71.05-1.67,0-2.63-.19-3.42-.66-.35-.2-.61-.42-.85-.72l-.02.04c-.4.58-.79.95-1.64,1.5-.28-.58-.32-.65-.65-.98,1.49-.96,1.85-1.55,2.24-3.67l.98.32c.18.05.22.08.22.16,0,.08-.04.11-.25.19-.12.58-.23,1.01-.35,1.38.32.44.73.82,1.26,1.02v-3.25h-2.03c-.35,0-.85.01-1.2.02v-1c-.35.19-.71.36-1.05.53v.9c0,.44,0,1.3.02,2.48v.19c0,.64-.05.92-.19,1.12-.28.37-.76.48-2.11.49-.04-.48-.13-.91-.26-1.27.4.04.62.05.89.05.46,0,.5-.05.5-.5v-2.93c-.24.1-.5.2-.78.32l-.06.14c-.04.1-.08.13-.16.13s-.13-.04-.17-.13l-.53-1.15c.66-.22,1.2-.4,1.69-.58v-1.63h-.48c-.32,0-.71.01-.96.02v-1.14c.26.01.7.02.96.02h.48c-.01-1.31-.04-2.12-.07-2.42l1.28.08c.11.01.18.06.18.12,0,.07-.06.13-.22.23-.01.43-.02,1.2-.02,1.99h.44c.25,0,.68-.01.96-.02v1.14c-.26-.01-.64-.02-.96-.02h-.44v1.18c.48-.22.95-.46,1.46-.73l.2,1.07c-.13.07-.25.13-.37.2.31,0,.68.01.96.01h5.11c.35,0,.85-.01,1.19-.02v1.13c-.34-.01-.84-.02-1.19-.02h-1.93v.95h2.55s0,1.07,0,1.07h-.95s-1.61-.01-1.61-.01v1.5Zm-2.05-5.25v.37h-1.14c.02-.29.04-.68.04-1.27v-2.22c0-.38-.01-.84-.04-1.06.26.01.52.01.86.01h3.45c.35,0,.6,0,.86-.01-.01.22-.04.67-.04,1.06v2.22c0,.56.01.97.04,1.25h-1.13v-.35h-2.91Zm2.91-3.18h-2.91v.62h2.91v-.62Zm0,1.57h-2.91v.62h2.91v-.62Z"/>
        <path class="cls-18" d="m227.33,366.37c.11.04.18.12.18.18,0,.07-.01.08-.25.18-.85,1.67-1.45,2.46-2.93,3.86-.3-.38-.53-.64-.86-.9.79-.66,1.16-1.04,1.74-1.8.53-.7.77-1.1,1.12-1.91l1.01.38Zm2.47,1.57c0,.43.01,1,.04,2.01v.16c.01.6-.11.88-.46,1.09-.4.24-.82.31-1.98.31h-.13c-.01-.5-.06-.82-.18-1.3.47.02.7.04,1.06.04.42,0,.48-.05.48-.47v-4.5h-2.45c-.66,0-1.74.02-2.39.05v-1.19c.61.02,1.69.05,2.39.05h6.02c.76,0,1.79-.02,2.39-.05v1.19c-.64-.02-1.66-.05-2.39-.05h-2.4v2.65Zm3.31-5.53c-.44-.01-1.22-.04-1.68-.04h-4.46c-.52,0-1.19.01-1.68.04v-1.16c.46.02,1.14.04,1.68.04h4.46c.48,0,1.26-.01,1.68-.04v1.16Zm-1.25,3.57c.96,1.44,1.7,2.3,3.01,3.5-.37.25-.59.44-.94.82-1.71-1.81-2.09-2.28-2.97-3.78l.9-.54Z"/>
        <path class="cls-18" d="m239.53,361.5c.13,0,.23.07.23.17,0,.08-.05.13-.2.24-.05.98-.18,5.79-.18,6.42,0,1,.36,1.36,1.37,1.36.71,0,1.39-.2,2.11-.62.88-.5,1.37-.96,2.22-2.09.19.44.31.61.78,1.15-.92,1.09-1.46,1.56-2.33,2.06-.94.53-1.93.8-2.93.8s-1.69-.29-2.09-.82c-.3-.4-.44-.97-.44-1.8,0-.32.01-.6.07-2.13.04-1.06.06-2.24.06-3.44,0-.54-.01-.97-.04-1.39l1.37.1Z"/>
        <path class="cls-18" d="m248.64,367.96c1.01.95,1.54,1.56,2.35,2.7l-1.09.83c-.67-1.06-1.42-1.98-2.19-2.71l.94-.82Z"/>
        <path class="cls-18" d="m33.05,394.19h-1.14c.02-.46.04-1.15.04-2.11v-4.76q-.01-1.52-.04-1.91c.23.01.43.01.71.01h1.83c.29,0,.49,0,.71-.01-.01.38-.04,1.19-.04,1.91v4.17c0,1.01.01,1.66.04,2.11h-1.13v-.55h-.98v1.14Zm.98-5.55v-2.13h-.98v2.13h.98Zm-.98,3.35h.98v-2.27h-.98v2.27Zm5.41-4.99h-1.25c-.35,0-.85,0-1.19.02v-1.15c.34.01.84.02,1.19.02h1.25c0-.76-.01-1.18-.04-1.49l1.21.08c.13,0,.22.05.22.12s-.07.13-.23.24c-.01.24-.01.5-.01,1.04h1.33c.36,0,.86-.01,1.2-.02v1.15c-.33-.02-.84-.02-1.2-.02h-1.33v1.08h1.56c.48,0,1.26-.01,1.68-.04v1.16c-.44-.01-1.22-.02-1.68-.02h-3.99c-.52,0-1.19.01-1.68.02v-1.16c.46.02,1.14.04,1.68.04h1.28v-1.08Zm2.78,5.89c0,.22.02.85.04,1.27v.18c0,.52-.12.82-.42,1.03-.33.23-.74.3-1.67.3h-.22c-.02-.4-.07-.62-.23-1.26.35.02.54.04.83.04.47,0,.52-.05.52-.49v-2.39h-2.77c-.5,0-1.17.01-1.67.04v-1.16c.46.01,1.14.04,1.67.04h2.76c-.01-.54-.04-1-.07-1.13l1.31.08c.11.01.18.06.18.12,0,.07-.06.14-.22.23-.02.18-.02.23-.02.7.48,0,1.14-.02,1.52-.04v1.16c-.4-.02-1.07-.04-1.54-.04v1.32Zm-3.61-1.14c.73.54,1.17.95,1.73,1.62l-.9.8c-.54-.71-.94-1.13-1.56-1.64l.73-.78Z"/>
        <path class="cls-18" d="m45.14,392.75c0,1.27.01,2.21.05,2.81h-1.15c.02-.68.04-1.57.04-2.81v-6.88c0-.38-.01-.85-.04-1.07.36.02.71.02,1.21.02h2.03c.55,0,.94,0,1.33-.02-.02.22-.04.68-.04,1.07v1.94c0,.56.01.97.04,1.25h-1.09v-.37h-2.37v4.07Zm2.37-7h-2.37v.59h2.37v-.59Zm0,1.43h-2.37v.59h2.37v-.59Zm.43,7.46h-1.12c.02-.29.02-.68.02-1.28v-2.7c0-.38-.01-.85-.02-1.07.26.01.52.02.86.02h3.06c.35,0,.6-.01.86-.02-.01.22-.04.68-.04,1.07v2.53c0,.56.01.97.04,1.25h-1.12v-.49h-2.55v.7Zm2.55-4.02h-2.55v.66h2.55v-.66Zm0,1.67h-2.55v.65h2.55v-.65Zm.38-3.23h-1.08c.02-.28.04-.68.04-1.25v-1.94c0-.38-.01-.85-.04-1.07.38.02.77.02,1.32.02h2.04c.5,0,.84,0,1.2-.02-.01.22-.04.68-.04,1.07v6.07c0,.46.01,1.15.02,2.11,0,.02.01.05.01.13,0,.6-.11.88-.41,1.07-.34.2-.71.26-1.8.26h-.05c-.02-.42-.07-.72-.23-1.27.4.04.59.05.91.05.42,0,.48-.06.48-.47v-5.13h-2.39v.37Zm2.39-3.31h-2.39v.59h2.39v-.59Zm0,1.43h-2.39v.59h2.39v-.59Z"/>
        <path class="cls-18" d="m63.13,387.2c-1.1.37-1.96.56-3.07.67q-.24.53-.37.77c-.06.1-.07.12-.11.19.36-.19.7-.28,1.08-.28.88,0,1.45.54,1.55,1.44,2.11-1.16,2.13-1.19,2.97-1.73l.76.84c.06.07.1.14.1.2,0,.08-.06.13-.17.13-.06,0-.13,0-.22-.01q-.72.4-2.12,1.13c-.43.23-1.14.6-1.31.7v2.11h-1.21v-1.44q-.07.05-.19.11c-.68.38-1.03.8-1.03,1.26,0,.55.36.68,1.81.68,1.19,0,2.12-.08,3.31-.31-.08.56-.1.72-.12,1.3-1.58.18-1.99.2-3.07.2-1.54,0-2.12-.11-2.6-.47-.41-.3-.61-.73-.61-1.31,0-.77.34-1.36,1.09-1.91.37-.28.5-.35,1.14-.68.14-.07.24-.13.28-.14v-.1c0-.35-.04-.54-.12-.68-.11-.17-.31-.28-.55-.28-.5,0-1.08.34-1.58.91-.23.25-.52.66-.95,1.33l-1.01-.73q.18-.26.82-1.15c.29-.41.8-1.31,1.12-2-.24.01-.42.01-.66.01-.47,0-.73-.01-1.27-.05l-.02-1.14c.6.05.91.06,1.29.06.16,0,.83-.01,1.18-.02.34-.84.62-1.72.71-2.12l1.22.31c.06.01.12.07.12.13,0,.07-.07.13-.23.19q-.11.26-.29.74-.11.28-.18.48c-.04.08-.04.1-.06.17.74-.11,1.38-.26,2.23-.54l.36,1.02Z"/>
        <path class="cls-18" d="m73.06,385.39c.11.02.18.1.18.17,0,.1-.07.16-.28.22q-.41,1.37-.6,1.97s.06,0,.13-.01c.35-.06.6-.08.82-.08.41,0,.82.17,1.14.47.31.3.46.65.46,1.2,0,1.28-.35,3-.83,4.1-.38.89-.96,1.27-1.89,1.27-.42,0-.76-.05-1.36-.18.05-.32.1-.97.11-1.31.58.18.9.24,1.24.24.53,0,.78-.28,1.03-1.16.26-.89.44-2.05.44-2.78,0-.5-.18-.74-.56-.74-.19,0-.4.02-1.09.14-.31.95-.7,1.91-1.23,3.05-.46.92-.74,1.43-1.72,2.89-.36-.36-.64-.54-1.07-.71.9-1.19,1.31-1.83,1.83-2.9.24-.5.7-1.57.88-2.1-.71.13-1.49.28-2.3.43l-.17-1.3c.78-.05,1.78-.16,2.88-.32.34-1.07.62-2.22.71-2.78l1.26.24Zm2.89,2.05c1.39.83,2.03,1.39,3.07,2.78l-1.02.92c-.7-1.15-1.57-2.02-2.77-2.77l.72-.94Z"/>
        <path class="cls-18" d="m82.5,385.46c.12.01.2.1.2.19,0,.12-.1.19-.31.26-.32,2.28-.38,2.82-.38,3.9,0,1.87.24,3.12.85,4.51-.24.11-.78.38-1.2.61-.59-1.38-.89-3.05-.89-5.03,0-.84.02-1.09.34-3.95q.06-.48.07-.71l1.32.2Zm4.59,3.41c-.42.01-.97.02-1.8.02-.25,0-1.02-.01-1.64-.02l.02-1.24c.64.02,1.43.05,1.78.05h1.63c-.04-1.58-.07-2.47-.1-2.7l1.33.07c.14.01.23.07.23.17s-.08.18-.25.26l.05,2.12c.74-.06,1.42-.13,1.98-.2l.11,1.2q-.8.1-2.09.19c-.02.96-.04,1.48-.04,1.54-.08,1.79-.33,2.73-.98,3.65-.42.6-.85.97-1.71,1.48-.2-.44-.34-.61-.78-1.04.9-.49,1.28-.85,1.64-1.51.47-.88.62-1.9.62-3.99v-.04Z"/>
        <path class="cls-18" d="m101.6,386.9q.08.13.08.2c0,.1-.05.12-.38.14-1.24.08-1.93.31-2.75.91-1.16.86-1.8,1.93-1.8,3.03,0,1.03.8,1.81,2.15,2.09.66.13,1.25.19,2.18.2-.2.37-.3.64-.48,1.3-1.16-.07-1.81-.17-2.58-.38-1.62-.46-2.54-1.61-2.54-3.19,0-1.31.6-2.34,1.94-3.36-1.08.25-3.68.85-4.35,1.01-.3.06-.37.08-.6.14l-.3-1.37c1.08-.1,2.58-.34,5.35-.86,2.35-.44,2.67-.52,3.45-.8l.62.94Z"/>
        <path class="cls-18" d="m113.6,386.9q.08.13.08.2c0,.1-.05.12-.38.14-1.24.08-1.93.31-2.75.91-1.16.86-1.8,1.93-1.8,3.03,0,1.03.8,1.81,2.15,2.09.66.13,1.25.19,2.18.2-.2.37-.3.64-.48,1.3-1.16-.07-1.81-.17-2.58-.38-1.62-.46-2.54-1.61-2.54-3.19,0-1.31.6-2.34,1.94-3.36-1.08.25-3.68.85-4.35,1.01-.3.06-.37.08-.6.14l-.3-1.37c1.08-.1,2.58-.34,5.35-.86,2.35-.44,2.67-.52,3.45-.8l.62.94Zm-1.22,1.83c.58.35.94.64,1.52,1.2l-.6.66c-.55-.59-.83-.83-1.45-1.25l.53-.61Zm.94-1.09c.56.35.94.65,1.52,1.21l-.6.65c-.55-.59-.83-.82-1.45-1.24l.53-.62Z"/>
        <path class="cls-18" d="m121.76,385.03c.13.04.2.1.2.18s-.05.13-.2.22c-.29,1.36-.43,2.06-.56,2.75q-.31,1.75-.42,2.28t-.12.62h.23c.35.01.58.02.6.02q.18,0,.73-.01l-.25,1.22c-.62-.01-.78-.01-1.46-.07-.01.19-.02.3-.02.48,0,.41.05.71.14.95.16.37.62.59,1.26.59,1.08,0,1.68-.6,1.68-1.65,0-.98-.4-1.79-1.52-3.11.36-.2.64-.42.97-.74.95,1.07,1.29,1.57,1.56,2.25.22.53.32,1.07.32,1.66,0,1.81-1.08,2.78-3.09,2.78-1.79,0-2.58-.82-2.58-2.64,0-.17.01-.41.05-.72-1.31-.22-1.89-.71-1.89-1.57,0-.41.18-.76.64-1.27l.88.62c-.23.25-.3.38-.3.54,0,.23.34.42.86.5.08-.44.28-1.51.33-1.91-1.08-.32-1.64-.65-2.22-1.32l.77-.84c.37.4,1.18.83,1.73.92.23-1.15.38-2.35.38-2.99l1.32.25Z"/>
        <path class="cls-18" d="m128.64,391.96c1.01.95,1.54,1.56,2.35,2.7l-1.09.83c-.67-1.06-1.42-1.98-2.19-2.71l.94-.82Z"/>
        <path class="cls-18" d="m145.9,384.75c.17.06.24.12.24.19,0,.1,0,.11-.29.18.61.95,1.14,1.55,1.9,2.15.89.72,1.85,1.25,3.2,1.8q-.43.52-.73,1.14c-1.55-.74-2.12-1.09-3.09-1.9-.9-.74-1.22-1.09-1.97-2.27-.59.9-1.03,1.42-1.79,2.11-.96.9-1.7,1.43-3.27,2.34-.28-.56-.4-.76-.71-1.13,1.39-.72,2.2-1.27,3.13-2.14.94-.85,1.47-1.54,2.28-2.88l1.1.4Zm-1.16,4.43c0-.55,0-.7-.02-1.12l1.28.08c.13.01.22.05.22.12s-.07.14-.23.24v1.96h1.7c.46,0,1.07-.01,1.43-.02v1.18c-.36-.02-1.03-.04-1.43-.04h-1.7v2.53h2.17c.76,0,1.78-.02,2.39-.05v1.23c-.64-.02-1.66-.04-2.39-.04h-5.91c-.66,0-1.74.01-2.39.04v-1.23c.52.02,1.37.04,2.04.05v-2.76c0-.55,0-.7-.02-1.1l1.26.07c.13.01.22.06.22.12,0,.07-.07.14-.24.24v3.43h1.63v-4.93Z"/>
        <path class="cls-18" d="m157.7,393.45c0,.91.01,1.68.04,2.11h-1.17c.02-.47.04-1.14.04-2.11v-.64c-.7.61-1.15.92-1.92,1.34-.91.49-1.54.74-2.75,1.12-.2-.54-.23-.6-.5-1.06,1.81-.48,3.07-1.03,4.14-1.8h-1.52c-.62,0-1.4.01-1.91.04v-1.02c.5.02,1.28.04,1.91.04h2.55v-.59h-1.54c-.61,0-1.4.01-1.91.04v-1.01c.5.01,1.29.04,1.91.04h1.54v-.56h-2.12c-.62,0-1.42.02-1.92.05v-1.02c.5.02,1.29.04,1.92.04h.73c-.14-.36-.32-.7-.53-1.02h-.49c-.66,0-1.74.01-2.39.04v-1.09c.54.02,1.42.04,2.09.04-.24-.4-.42-.62-.88-1.13l.82-.64c.67.64.84.83,1.28,1.55l-.34.22h.89v-1.94s1.12.08,1.12.08c.14.01.23.05.23.12s-.07.14-.24.24v1.5h.88v-1.18c0-.32,0-.59-.01-.77l1.14.08c.13.01.22.05.22.12s-.07.14-.24.24v1.5h.48c.37-.74.49-1.09.65-1.73l1.16.42c.07.02.13.08.13.13,0,.08-.04.11-.28.19q-.07.14-.36.73c-.04.07-.08.16-.14.25.73,0,1.64-.01,2.21-.04v1.09c-.64-.02-1.66-.04-2.39-.04h-.78c.16.05.19.11.19.16,0,.07-.06.11-.26.17q-.08.16-.36.7h.94c.55,0,1.39-.01,1.91-.04v1.02c-.52-.02-1.35-.05-1.91-.05h-2.23v.56h1.63c.55,0,1.4-.02,1.92-.04v1.01c-.52-.02-1.37-.04-1.92-.04h-1.63v.59h2.7c.55,0,1.39-.01,1.91-.04v1.02c-.52-.02-1.35-.04-1.91-.04h-1.78c1.1.78,2.34,1.26,4.25,1.68-.28.44-.34.58-.54,1.09-1.2-.3-2.03-.62-3.03-1.16-.64-.36-1-.61-1.6-1.18v.6Zm.18-5c.16-.34.31-.67.42-1.02h-2.43c.23.31.41.66.55,1.02h1.46Z"/>
        <path class="cls-18" d="m165.79,393.27q.12-.43.14-2.23v-2.79c0-.92-.02-1.44-.05-1.8l1.37.08c.13.01.2.05.2.12s-.06.13-.23.24q-.01.58-.01,1.36v4.2c2.5-.94,4.79-2.28,6.3-3.72.16.61.24.86.47,1.26-1.12.9-1.82,1.38-3.12,2.12-1.44.83-2.27,1.21-3.77,1.74-.05.17-.11.24-.18.24-.05,0-.13-.04-.18-.07l-.95-.74Z"/>
        <path class="cls-18" d="m175.91,389.97c1.07-.65,1.59-1.02,2.41-1.66.9-.73,1.03-.79,1.48-.79.3,0,.52.07.96.32q.12.06,4.14,2.73c.98.65,1.19.78,1.86,1.2q-.65.82-.89,1.26c-.85-.67-1.79-1.37-4.57-3.36-1.04-.76-1.24-.86-1.46-.86-.19,0-.29.04-.68.36-.29.23-1.81,1.51-2.2,1.85-.02.22-.07.3-.16.3-.06,0-.12-.04-.16-.1l-.73-1.26Zm6.94-3.33c.58.35.94.64,1.52,1.2l-.6.65c-.55-.59-.83-.82-1.45-1.24l.53-.61Zm.94-1.09c.56.35.94.64,1.52,1.2l-.6.66c-.56-.59-.83-.83-1.45-1.25l.53-.61Z"/>
        <path class="cls-18" d="m192.19,387.46c.07.01.14.07.14.13,0,.07-.06.13-.22.22-.22,2.09-.42,2.87-.98,3.77-.61.98-1.26,1.57-2.73,2.47-.16-.42-.41-.78-.79-1.15,1.17-.68,1.67-1.08,2.18-1.75.68-.91.98-2.09.98-3.77v-.06l1.42.14Zm.83,5.22c.11-.38.13-.86.13-2.23v-2.1c0-.92-.01-1.44-.04-1.8l1.38.08c.14.01.22.05.22.13,0,.06-.06.12-.23.23q-.01.19-.02,1.36v3.39c1.7-.83,2.64-1.51,4.04-2.95.22.62.3.83.49,1.28-1.61,1.49-2.65,2.18-4.64,3.14-.06.16-.12.23-.19.23-.05,0-.12-.02-.18-.07l-.96-.7Z"/>
        <path class="cls-18" d="m205.81,387.59c.1.05.14.1.14.14,0,.07-.06.14-.17.2-.43,1.79-.62,2.4-1.1,3.48-.71,1.6-1.49,2.33-2.5,2.33-.66,0-1.14-.29-1.49-.85-.3-.53-.47-1.16-.47-1.83,0-1.5.85-2.97,2.25-3.89.88-.58,1.86-.86,2.99-.86,1.27,0,2.39.35,3.3,1.01,1.01.74,1.51,1.78,1.51,3.11,0,1.58-.74,2.78-2.27,3.62-.48.26-1.39.61-2.23.85-.23-.62-.31-.79-.63-1.2,1.26-.3,1.74-.47,2.4-.86.96-.56,1.47-1.42,1.47-2.42,0-1.23-.74-2.25-2.01-2.76-.46-.18-.98-.29-1.37-.29h-.24l.41.23Zm-3.13.82c-.77.77-1.2,1.75-1.2,2.71,0,.85.28,1.38.72,1.38.38,0,.72-.37,1.15-1.27.7-1.45,1.12-2.77,1.2-3.8-.85.18-1.33.43-1.87.98Z"/>
        <path class="cls-18" d="m212.82,389.61c-.42,0-.84.01-1.15.02v-1.04c.61.02,1.69.04,2.39.04h6.3c.75,0,1.79-.01,2.39-.04v1.04c-.64-.02-1.66-.04-2.39-.04h-3.54v3.85c0,.91.01,1.68.04,2.11h-1.15c.02-.37.02-.89.02-1.57-1.13.29-2.42.6-3.39.77-.1.23-.13.28-.2.28s-.16-.06-.18-.12l-.4-1.14c.47-.06.89-.12,1.27-.18v-3.98Zm1.98-1.15h-1.17c.02-.29.04-.68.04-1.27v-1.26c0-.38-.01-.85-.04-1.07.42.01.79.02,1.33.02h4.58c.53,0,.9-.01,1.32-.02-.02.22-.04.68-.04,1.07v1.21c0,.56.01.97.04,1.25h-1.17v-.24h-4.88v.31Zm.92,1.74v-.6h-1.81v.6h1.81Zm-1.81.94v.58h1.81v-.58h-1.81Zm0,1.5v.79c.61-.1,1.21-.22,1.81-.35v-.44h-1.81Zm5.77-6.9h-4.88v.42h4.88v-.42Zm0,1.16h-4.88v.4h4.88v-.4Zm2.31,3.8c.1.1.12.13.12.2,0,.08-.07.13-.29.18-.32.84-.67,1.71-1.27,2.4.5.37,1.1.62,2.36,1.06-.28.36-.32.46-.55.98-1.25-.48-1.94-.83-2.53-1.32-.62.53-1.32.92-2.37,1.37-.17-.44-.28-.66-.53-.96,1.03-.38,1.64-.7,2.18-1.13-.26-.31-.5-.66-.68-1.03-.19-.38-.34-.79-.47-1.2-.28.01-.55.01-.74.02v-1.06c.36.01.97.02,1.43.02h2.63l.11-.14.61.6Zm-3.08.54c.19.58.49,1.13.9,1.57.42-.46.67-1.01.9-1.57h-1.8Z"/>
        <path class="cls-18" d="m231.2,388.97h1.55s0,.89,0,.89h-.71s-.84-.01-.84-.01v.5c.61,0,.91,0,1.33-.01-.01.22-.04.67-.04,1.06v.36c0,.26.01.35.04.98h-.97v-.16h-1.68v.41h-1c.04-.67.04-.72.04-1v-.6c0-.38-.01-.84-.04-1.06.42.01.79.01,1.31.01v-.5h-1.62s0-.89,0-.89h.72s.9.01.9.01v-.44h-1.87v2.42q.02,2.31.04,2.82h-1.1c.84.37,1.61.47,3.61.47,1.34,0,2.99-.05,3.95-.11-.16.5-.17.54-.23,1.18-1.8.04-2.73.05-4.15.05s-2.6-.22-3.43-.61c-.47-.23-.84-.53-1.15-.97-.37.42-.79.8-1.07,1.04-.08.07-.22.19-.37.35-.06.19-.11.26-.18.26-.06,0-.12-.05-.17-.11l-.65-.9c.64-.41,1.12-.77,1.66-1.24v-2.73h-.32c-.31,0-.84.01-1.13.04v-1.16c.28.02.78.02,1.13.02h.38q.84,0,1.1-.02-.01.22-.02,1.07v2.51c.16.22.32.41.54.58.14.11.3.2.46.28.01-.53.02-1.58.02-2.31v-1.77q-.01-1.81-.02-2.16c.46.04,1.12.05,1.75.05-.16-.35-.26-.52-.53-.88l.6-.26h-.92c-.4,0-1.07.02-1.44.04v-1.1c.36.02.97.04,1.44.04h1.96v-.23c0-.32,0-.59-.01-.77l1.16.08c.16.01.23.05.23.12s-.06.14-.23.24v.55h2.09c.46,0,1.07-.01,1.43-.04v1.1c-.36-.01-1.03-.04-1.43-.04h-1.01l.53.2c.06.02.11.08.11.14,0,.08-.1.13-.32.14-.19.31-.32.5-.41.65h.17c.64,0,1.32-.01,1.77-.05q-.01.28-.02,1.76v1.76c0,.29.02,1,.04,1.5v.18c0,1.06-.38,1.31-2.03,1.32-.02-.59-.04-.68-.2-1.13.31.02.48.02.66.02.38,0,.44-.06.44-.49v-3.9h-1.82v.44Zm-6.63-4.13c.74.65,1.13,1.07,1.63,1.79l-.91.73c-.56-.8-.7-.96-1.49-1.81l.77-.71Zm4.92,1.56c.22.25.41.55.58.88l-.59.26h1.57c.2-.37.4-.74.56-1.14h-2.12Zm2.08,5.37v-.62h-1.68v.62h1.68Z"/>
        <path class="cls-18" d="m239.22,385.39l.22-.25.79.62c.06.05.08.11.08.16,0,.08,0,.1-.22.16-.25.47-.54.92-.84,1.37h.02c.47,0,1.12-.01,1.46-.04q-.01.4-.02,2.33v3.26c0,.22.01.86.04,1.28v.16c0,.89-.4,1.08-2.21,1.08h-.08c-.02-.42-.05-.56-.23-1.24.38.04.54.05.83.05.56,0,.6-.04.6-.5v-1.27h-2.27c-.12,1.28-.41,2.03-.98,2.96-.26-.3-.61-.59-.91-.74.76-1.14.91-1.99.91-5.04v-1.24c-.12.19-.26.37-.41.55q-.08-.14-.28-.46c-.11-.18-.18-.28-.36-.44.44-.54.8-1.14,1.15-1.91q.29-.64.65-1.85l1.08.36c.06.02.11.07.11.13,0,.08-.04.11-.28.18l-.11.32h1.25Zm-1.61.94c-.16.38-.35.74-.54,1.1.35.01.7.01,1.06.01.24-.36.48-.72.67-1.12h-1.19Zm.47,4.07h-.6c0,.42-.01.84-.02,1.26h.62v-1.26Zm0-2.05h-.6v1.16h.6v-1.16Zm1.58,1.16v-1.16h-.6v1.16h.6Zm0,2.15v-1.26h-.6v1.26h.6Zm4.21-5.49c-.23.88-.41,1.27-.79,1.79-.43.58-.8.94-1.52,1.45-.28-.49-.37-.62-.7-.9.7-.46,1.08-.8,1.44-1.33.2-.3.32-.54.47-1.01h-.48c-.32,0-.71,0-.96.01v-.98h.96s3.43.01,3.43.01l.19-.25.79.65c.06.05.08.08.08.14,0,.08-.04.13-.2.2-.14,1.19-.34,1.87-.61,2.27-.32.44-.68.54-2,.54h-.13c-.06-.53-.07-.56-.22-1.18.54.04.55.04.72.04.56,0,.77-.16.91-.68.07-.25.11-.41.17-.77h-1.55Zm.78,7.65c0,.79.01,1.4.02,1.75h-1.17c.02-.42.02-.96.02-1.75v-.41h-1.42c-.32,0-.7.01-.95.02v-1.06c.26.01.7.02.95.02h1.42v-1.02h-1.09c-.17.35-.35.65-.55.92-.43-.34-.56-.42-.88-.56.64-.94.88-1.52,1.08-2.63l1.02.28c.12.04.18.08.18.16,0,.08-.04.11-.28.18-.06.23-.12.43-.19.64h.71c0-.65,0-1.02-.02-1.3l1.19.07c.13.01.2.06.2.13,0,.06-.06.13-.23.24-.01.14-.01.18-.01.85h.88c.25,0,.68-.01.95-.02v1.06c-.25-.01-.64-.01-.95-.01h-.88v1.02h1.16c.26,0,.7-.01.96-.02v1.06c-.25-.01-.64-.02-.96-.02h-1.16v.41Z"/>
        <path class="cls-18" d="m255.13,387.2c-1.1.37-1.96.56-3.07.67q-.24.53-.37.77c-.06.1-.07.12-.11.19.36-.19.7-.28,1.08-.28.88,0,1.45.54,1.55,1.44,2.11-1.16,2.13-1.19,2.97-1.73l.76.84c.06.07.1.14.1.2,0,.08-.06.13-.17.13-.06,0-.13,0-.22-.01q-.72.4-2.12,1.13c-.43.23-1.14.6-1.31.7v2.11h-1.21v-1.44q-.07.05-.19.11c-.68.38-1.03.8-1.03,1.26,0,.55.36.68,1.81.68,1.19,0,2.12-.08,3.31-.31-.08.56-.1.72-.12,1.3-1.58.18-1.99.2-3.07.2-1.54,0-2.12-.11-2.6-.47-.41-.3-.61-.73-.61-1.31,0-.77.34-1.36,1.09-1.91.37-.28.5-.35,1.14-.68.14-.07.24-.13.28-.14v-.1c0-.35-.04-.54-.12-.68-.11-.17-.31-.28-.55-.28-.5,0-1.08.34-1.58.91-.23.25-.52.66-.95,1.33l-1.01-.73q.18-.26.82-1.15c.29-.41.8-1.31,1.12-2-.24.01-.42.01-.66.01-.47,0-.73-.01-1.27-.05l-.02-1.14c.6.05.91.06,1.29.06.16,0,.83-.01,1.18-.02.34-.84.62-1.72.71-2.12l1.22.31c.06.01.12.07.12.13,0,.07-.07.13-.23.19q-.11.26-.29.74-.11.28-.18.48c-.04.08-.04.1-.06.17.74-.11,1.38-.26,2.23-.54l.36,1.02Z"/>
        <path class="cls-18" d="m266.73,391.68v2.25c0,.31.08.34,1.17.34.43,0,1.14-.06,1.3-.1.35-.11.43-.32.43-1.2,0-.1,0-.16-.02-.29.47.22.71.29,1.18.38-.01,1.51-.11,1.82-.61,2.08-.3.14-1.1.22-2.55.22-.86,0-1.21-.02-1.51-.13-.42-.13-.59-.46-.59-1.1v-2.45h-.72c-.25,1.16-.49,1.69-1.02,2.25-.73.77-1.55,1.13-3.71,1.66-.08-.46-.22-.78-.46-1.15,1.4-.28,1.99-.46,2.59-.82.78-.44,1.14-.96,1.39-1.94h-.7v.58h-1.21c.02-.48.04-1.18.04-2.11v-3.24c0-.72-.01-1.52-.04-1.91.32.01.61.02,1.02.02h5c.42,0,.71,0,1.02-.02q-.02.4-.04,1.91v3.07c0,.96.01,1.66.04,2.11h-1.2v-.41h-.8Zm.8-5.6h-4.63v.84h4.63v-.84Zm0,1.85h-4.63v.79h4.63v-.79Zm0,1.8h-4.63v.91h4.63v-.91Z"/>
        <path class="cls-18" d="m271.93,388.9c.64-.22.71-.25,2.33-.94,2.23-.96,3.19-1.22,4.5-1.22,2.23,0,3.5,1.15,3.5,3.15,0,1.33-.58,2.43-1.68,3.17-.64.43-1.74.89-2.91,1.2-.41.11-.88.2-1.78.37-.14-.53-.24-.77-.54-1.33,3.91-.5,5.59-1.52,5.59-3.38,0-1.29-.77-2-2.19-2-1.22,0-2.36.38-4.67,1.57q-.65.34-1.52.78l-.62-1.37Z"/>
        <path class="cls-18" d="m286.5,385.46c.12.01.2.1.2.19,0,.12-.1.19-.31.26-.32,2.28-.38,2.82-.38,3.9,0,1.87.24,3.12.85,4.51-.24.11-.78.38-1.2.61-.59-1.38-.89-3.05-.89-5.03,0-.84.02-1.09.34-3.95q.06-.48.07-.71l1.32.2Zm4.59,3.41c-.42.01-.97.02-1.8.02-.25,0-1.02-.01-1.64-.02l.02-1.24c.64.02,1.43.05,1.78.05h1.63c-.04-1.58-.07-2.47-.1-2.7l1.33.07c.14.01.23.07.23.17s-.08.18-.25.26l.05,2.12c.74-.06,1.42-.13,1.98-.2l.11,1.2q-.8.1-2.09.19c-.02.96-.04,1.48-.04,1.54-.08,1.79-.33,2.73-.98,3.65-.42.6-.85.97-1.71,1.48-.2-.44-.34-.61-.78-1.04.9-.49,1.28-.85,1.64-1.51.47-.88.62-1.9.62-3.99v-.04Z"/>
        <path class="cls-18" d="m300.6,388.49v-2.17c0-.95-.01-1.45-.04-1.8l1.26.08c.13,0,.2.05.2.12s-.06.13-.23.24c-.01.28-.01.6-.01,1.36v2.17h2.51v-1.32c0-.96-.01-1.46-.04-1.8l1.24.07c.13.01.22.06.22.12,0,.07-.07.14-.23.24-.01.28-.01.61-.01,1.37v1.03c0,.8.01,1.42.02,1.76h-1.2v-.37h-2.51v4.13h2.95v-1.34c0-.96-.01-1.46-.05-1.8l1.25.07c.13.01.2.06.2.13,0,.06-.06.13-.23.23v2.46c0,.8.01,1.42.02,1.76h-1.2v-.41h-7.12v.66h-1.2c.01-.42.02-.98.02-1.75v-1.35c0-.96-.01-1.46-.04-1.8l1.25.07c.13.01.2.06.2.13,0,.06-.06.13-.23.23v1.37s-.01,1.34-.01,1.34h2.99v-4.13h-2.54v.53h-1.2c.01-.42.02-1,.02-1.75v-1.2c0-.96-.01-1.46-.04-1.8l1.25.07c.12.01.2.06.2.12,0,.07-.06.14-.23.24-.01.28-.01.61-.01,1.37v1.32h2.54Z"/>
        <path class="cls-18" d="m311.53,385.5c.13,0,.23.07.23.17,0,.08-.05.13-.2.24-.05.98-.18,5.79-.18,6.42,0,1,.36,1.36,1.37,1.36.71,0,1.39-.2,2.11-.62.88-.5,1.37-.96,2.22-2.09.19.44.31.61.78,1.15-.92,1.09-1.46,1.56-2.33,2.06-.94.53-1.93.8-2.93.8s-1.69-.29-2.09-.82c-.3-.4-.44-.97-.44-1.8,0-.32.01-.6.07-2.13.04-1.06.06-2.24.06-3.44,0-.54-.01-.97-.04-1.39l1.37.1Z"/>
        <path class="cls-18" d="m326.25,392.36c.84.31,1.61.74,2.92,1.63-.29.31-.59.71-.76,1.03-1.06-.85-1.27-1-2.18-1.46-.07.46-.18.74-.38,1-.37.44-1.09.7-1.98.7-1.44,0-2.41-.7-2.41-1.74s.91-1.61,2.42-1.61c.4,0,.75.02,1.12.08q-.02-.42-.05-1.22-.3.01-.58.01c-.82,0-1.03-.02-1.4-.18-.42-.17-.68-.56-.68-1.04,0-.44.14-.74.56-1.2l.91.5c-.2.19-.28.3-.28.46,0,.28.28.37,1,.37.14,0,.25,0,.42-.01-.02-.79-.02-.91-.02-1.66q-.86.05-3.08.05h-.32s-.05,0-.41.01l-.04-1.19c.73.02,1.04.02,2.03.02.56,0,1.4-.01,1.82-.05,0-1.12-.02-1.61-.13-2.11l1.43.07c.12.01.18.06.18.13,0,.08-.04.13-.22.24,0,.46-.01.8-.02,1.58.9-.1,1.87-.28,2.69-.5l.13,1.19c-.9.2-2.1.4-2.82.46v.05q0,.2.01.79t.01.77c.96-.2,1.45-.37,2.17-.78l.38,1.07c-.82.42-1.58.67-2.52.83.01.18.04.68.07,1.36v.36Zm-2.47.56c-.72,0-1.09.19-1.09.55,0,.42.41.67,1.09.67.61,0,.98-.2,1.13-.59.04-.11.1-.47.07-.48-.35-.1-.78-.16-1.2-.16Z"/>
        <path class="cls-18" d="m338.83,384.48c.16,0,.25.07.25.17s-.05.16-.22.29c0,.43,0,.78-.01,1v.83c2.17-.1,2.92-.14,3.85-.26v1.28h-1.49q-.52,0-2.36.07v2.15c.05.58.06.77.06,1,0,2.42-1.33,3.79-4.37,4.46-.14-.47-.32-.83-.58-1.16,1.18-.26,1.5-.36,2.05-.6.79-.35,1.14-.66,1.4-1.25-.25.17-.37.2-.73.2-1.1,0-1.8-.74-1.8-1.93s.71-2.04,1.71-2.04c.38,0,.7.07,1,.26.01-.22.01-.34.01-.42,0-.04,0-.49-.01-.64-2.27.06-4.56.17-5.43.26l-.08-1.33c.68.04.98.05,1.45.05,1.2,0,2.39-.02,4.07-.07v-.79c-.01-.89-.04-1.26-.1-1.57l1.32.05Zm-2.01,5.19c-.49,0-.84.41-.84.98s.35.97.86.97c.47,0,.79-.4.79-.98s-.34-.97-.82-.97Z"/>
        <path class="cls-18" d="m347.34,393.66c0,1.02-.82,1.83-1.82,1.83s-1.83-.82-1.83-1.83.82-1.82,1.83-1.82,1.82.82,1.82,1.82Zm-2.79,0c0,.54.43.97.97.97s.96-.43.96-.97-.43-.96-.96-.96-.97.43-.97.96Z"/>
      </g>
      <path class="cls-13" d="m380.75,136.12h-115.69c-1.07,0-1.94.87-1.94,1.94v20.23c0,.54-.43.97-.97.97h-115.79c-1.07,0-1.94.87-1.94,1.94v20.23c0,.54-.43.97-.97.97H27.66c-1.07,0-1.94.87-1.94,1.94v24.18c0,.54.43.97.97.97h355.03c.54,0,.97-.43.97-.97v-71.42h0c0-.54-.43-.97-.97-.97h-.97Z"/>
      <g>
        <path class="cls-15" d="m205.51,104.31c-3.24,0-5.88-2.64-5.88-5.88s2.64-5.88,5.88-5.88,5.88,2.64,5.88,5.88-2.64,5.88-5.88,5.88Zm0-10.32c-2.45,0-4.44,1.99-4.44,4.44s1.99,4.44,4.44,4.44,4.44-1.99,4.44-4.44-1.99-4.44-4.44-4.44Z"/>
        <path class="cls-11" d="m189.11,155.46c-.44,0-.88-.08-1.3-.24-1.89-.72-2.85-2.84-2.13-4.73l10.71-37.12h-4.63l-4.9,8.66c-.65,1.15-1.87,1.86-3.19,1.86-.63,0-1.25-.16-1.8-.47-.85-.48-1.47-1.27-1.73-2.21-.26-.94-.14-1.93.34-2.79l5.95-10.52c.65-1.15,1.87-1.86,3.19-1.86h13.35c2.3,0,4.5,1.09,5.89,2.92l5.64,7.42,7.42-1.6c1.06-.22,2.15.03,3.01.68.85.65,1.37,1.64,1.43,2.72.1,1.77-1.22,3.41-3.06,3.81l-9.54,2.05c-1.35.29-2.85-.25-3.69-1.37l-4.05-5.36-3.65,10.52,8.99.56c.06,0,.12.02.18.03.56.18,1.29.65,1.62,1.85l3.59,12.26c.65,1.87-.36,3.97-2.27,4.64-.39.14-.79.2-1.21.2-1.56,0-2.95-.99-3.46-2.46l-3.4-8.85-7.51-.16-6.35,17.19c-.35.92-1.03,1.65-1.92,2.05-.48.22-.99.33-1.51.33Zm2.23-43.52h6.01c.23,0,.44.11.58.29.14.18.18.42.12.63l-10.99,38.09c-.45,1.2.13,2.49,1.28,2.93.56.21,1.16.19,1.7-.05.54-.24.96-.69,1.17-1.24l6.53-17.66c.11-.29.4-.47.69-.47l8.5.18c.29,0,.55.19.66.46l3.58,9.32c.32.92,1.17,1.52,2.11,1.52.25,0,.5-.04.73-.12,1.16-.4,1.78-1.68,1.37-2.84l-3.6-12.3c-.16-.6-.45-.78-.61-.85l-9.83-.61c-.22-.01-.43-.13-.55-.32-.12-.19-.15-.42-.08-.64l4.4-12.69c.09-.25.31-.43.57-.47.26-.04.53.07.69.28l4.86,6.43c.51.67,1.43,1,2.24.83l9.54-2.05c1.15-.25,1.98-1.25,1.92-2.32-.04-.67-.34-1.25-.87-1.66-.52-.4-1.19-.55-1.83-.42l-7.87,1.69c-.27.06-.56-.05-.72-.27l-5.91-7.78c-1.12-1.47-2.89-2.35-4.74-2.35h-13.35c-.8,0-1.54.43-1.94,1.13l-5.95,10.52c-.29.52-.37,1.12-.21,1.69.16.57.53,1.05,1.05,1.34,1.04.59,2.45.19,3.04-.84l5.11-9.03c.13-.23.37-.37.63-.37Z"/>
      </g>
      <g>
        <path class="cls-19" d="m277.72,146.67c-1.17.21-2.13.33-3.85.48-.08-.62-.22-1.06-.48-1.47,3.64-.17,6.25-.75,7.86-1.72l1.16,1.12c.07.07.12.15.12.22,0,.1-.1.17-.3.17h-.22c-1.41.51-2.08.74-2.69.87v2.23h2.83c.62,0,1.59-.02,2.1-.03v1.54c-.56-.02-1.52-.04-2.1-.04h-2.86c-.08,1.41-.29,2.19-.79,3.12-.72,1.31-1.77,2.21-3.75,3.15-.29-.61-.41-.78-.92-1.4,2.54-1.08,3.73-2.58,3.87-4.87h-3.3c-.65,0-1.49.01-2.1.04v-1.54c.57.01,1.42.03,2.1.03h3.33v-1.9Z"/>
        <path class="cls-19" d="m293.61,152.47q.58,2.25.79,2.97s.1.33.12.42l-1.52.41c-.06-.36-.42-2.17-.78-3.58l-.58-2.25-.36.09c-.99.22-1.28.3-2.4.61-.1.03-.13.03-.3.08l-.46-1.38c1-.18,1.41-.25,3.21-.66q-.64-2.5-.84-3.02l1.5-.17c.22-.03.33.08.33.2,0,.09-.04.17-.17.31q.04.3.52,2.35l4.11-.99.19-.25,1.19.84c.15.1.18.15.18.24,0,.15-.01.17-.31.29-.72,1.51-1.22,2.19-2.54,3.46-.39-.5-.41-.51-1.05-1.04.93-.73,1.38-1.23,1.93-2.17l-3.39.87.62,2.37Z"/>
        <path class="cls-19" d="m304.02,153.87q.15-.54.18-2.79v-3.49c0-1.16-.03-1.8-.06-2.25l1.71.1c.17.02.26.06.26.15s-.08.17-.29.3q-.02.72-.02,1.7v5.25c3.12-1.17,5.99-2.85,7.88-4.65.2.77.3,1.08.58,1.58-1.39,1.12-2.28,1.73-3.9,2.65-1.8,1.04-2.83,1.52-4.71,2.17-.06.21-.13.3-.23.3-.06,0-.17-.04-.22-.09l-1.18-.93Z"/>
        <path class="cls-19" d="m319.02,145.24c1.56.81,2.13,1.23,3.16,2.37l-1.18,1.31c-1.08-1.2-1.86-1.83-2.97-2.43l.99-1.24Zm-.57,8.46c2.26-.96,3.55-1.69,5.26-2.98,2-1.53,3.17-2.71,4.71-4.81.3.52.55.85,1.04,1.42-1.98,2.39-3.09,3.48-4.84,4.8-1.47,1.11-2.58,1.79-4.71,2.87-.06.21-.12.31-.23.31-.07,0-.19-.08-.25-.18l-.97-1.42Z"/>
        <path class="cls-19" d="m333.37,147.46c1.25.67,1.8,1.09,2.76,2.01l-1.12,1.33q-1.35-1.24-2.58-2.05l.94-1.29Zm.21,6.67c1.65-.73,3.55-1.91,5.26-3.27,1.75-1.38,3.18-2.82,4.5-4.5.39.54.53.71,1.12,1.31-2.96,3.45-4.65,4.86-9.33,7.77-.06.21-.14.31-.24.31-.08,0-.18-.07-.27-.19l-1.05-1.42Zm2.17-9.9c1.12.68,1.65,1.1,2.7,2.18l-1.11,1.24c-.93-.96-1.68-1.62-2.55-2.19l.96-1.23Zm6.09-.58c.71.44,1.17.79,1.91,1.5l-.75.81c-.71-.73-1.04-1.02-1.82-1.54l.66-.77Zm1.17-1.36c.71.44,1.17.79,1.89,1.5l-.75.82c-.69-.73-1.02-1.03-1.8-1.56l.66-.77Z"/>
        <path class="cls-19" d="m354.16,143.22c.21.07.3.15.3.24,0,.12,0,.13-.36.23.77,1.19,1.43,1.93,2.37,2.68,1.11.9,2.31,1.56,4,2.25q-.54.65-.92,1.43c-1.93-.93-2.65-1.37-3.87-2.37-1.12-.93-1.53-1.36-2.46-2.83-.74,1.12-1.29,1.77-2.24,2.64-1.2,1.12-2.13,1.78-4.09,2.92-.34-.71-.5-.95-.88-1.41,1.74-.9,2.75-1.59,3.92-2.67,1.17-1.06,1.84-1.92,2.85-3.6l1.38.5Zm-1.46,5.53c0-.69,0-.87-.03-1.4l1.61.1c.17.02.27.06.27.15s-.09.18-.29.3v2.45h2.13c.57,0,1.33-.02,1.79-.03v1.47c-.45-.03-1.29-.05-1.79-.05h-2.13v3.17h2.71c.95,0,2.22-.03,2.99-.06v1.54c-.79-.03-2.07-.04-2.99-.04h-7.39c-.82,0-2.17.02-2.98.04v-1.54c.64.03,1.71.04,2.55.06v-3.45c0-.69,0-.87-.03-1.38l1.58.09c.17.02.27.08.27.15,0,.09-.09.18-.3.3v4.29h2.04v-6.16Z"/>
        <path class="cls-19" d="m368.91,154.09c0,1.14.01,2.1.04,2.64h-1.47c.03-.58.04-1.42.04-2.64v-.8c-.87.77-1.44,1.16-2.4,1.68-1.14.61-1.92.93-3.43,1.4-.25-.67-.29-.75-.63-1.32,2.26-.6,3.84-1.29,5.17-2.25h-1.91c-.78,0-1.75.02-2.38.04v-1.27c.63.03,1.6.04,2.38.04h3.2v-.73h-1.92c-.77,0-1.75.02-2.38.04v-1.26c.63.01,1.62.04,2.38.04h1.92v-.71h-2.66c-.78,0-1.77.03-2.4.06v-1.27c.63.03,1.62.04,2.4.04h.92c-.18-.45-.41-.87-.66-1.27h-.62c-.82,0-2.17.01-2.98.04v-1.36c.67.03,1.77.04,2.61.04-.3-.5-.52-.78-1.09-1.41l1.02-.79c.84.79,1.05,1.04,1.6,1.94l-.42.27h1.11v-1.47l-.02-.96,1.41.1c.18.02.29.06.29.15s-.09.18-.3.3v1.88h1.09v-1.47c0-.4,0-.73-.01-.96l1.42.1c.17.02.27.06.27.15s-.09.18-.3.3v1.88h.6c.47-.93.62-1.37.81-2.16l1.46.52c.09.03.17.1.17.17,0,.1-.04.14-.35.24q-.09.18-.45.92c-.04.09-.11.19-.18.31.92,0,2.06-.02,2.76-.04v1.36c-.79-.03-2.07-.04-2.98-.04h-.97c.19.06.24.13.24.19,0,.09-.08.14-.33.21q-.1.2-.45.87h1.17c.69,0,1.74-.02,2.38-.04v1.27c-.65-.03-1.7-.06-2.38-.06h-2.79v.71h2.04c.69,0,1.75-.03,2.4-.04v1.26c-.64-.03-1.71-.04-2.4-.04h-2.04v.73h3.38c.69,0,1.74-.02,2.38-.04v1.27c-.65-.03-1.7-.04-2.38-.04h-2.22c1.38.98,2.93,1.57,5.31,2.1-.35.56-.42.72-.67,1.37-1.5-.38-2.54-.78-3.79-1.46-.79-.45-1.25-.77-2-1.47v.75Zm.22-6.25c.2-.42.39-.84.53-1.27h-3.04c.29.39.51.82.69,1.27h1.83Z"/>
      </g>
      <g>
        <path class="cls-19" d="m169.68,176.12c.42.44.92.79,1.56,1.14,1.08.57,2.27.92,4.42,1.29-.33.42-.46.62-.54.77q-.24.48-.35.65c-2.16-.45-3.49-.96-4.68-1.75-.78-.53-1.33-1.05-1.8-1.74-.15.27-.3.51-.48.74-1.14,1.42-3.14,2.46-5.75,2.95-.23-.63-.33-.82-.66-1.32,2.13-.42,3.74-1.04,4.62-1.77.31-.27.58-.57.83-.94h-2.39c-.75,0-2.05.03-2.7.06v-1.5c.61.01,1.92.04,2.7.04h2.97c.07-.27.12-.54.16-.83h-2.17c-.49,0-1.35.02-1.8.03v-1.41c.45.02,1.21.03,1.8.03h2.33c.01-.24.01-.48.03-.72h-2.45c-.63,0-1.47.02-2.1.03v-1.41c.58.03,1.44.04,2.1.04h2.45c-.02-.67-.03-1.14-.06-1.54l1.5.17c.2.02.32.1.32.21,0,.09-.09.17-.32.25v.92h2.42c.62,0,1.58-.01,2.1-.04v1.41c-.55-.02-1.51-.03-2.1-.03h-2.42v.15c0,.2,0,.39-.01.57h2.35c.57,0,1.35-.02,1.8-.03v1.41c-.46-.02-1.3-.03-1.8-.03h-2.47c-.03.27-.09.56-.15.83h3.62c.83,0,2.01-.03,2.68-.04v1.5c-.7-.03-1.89-.06-2.68-.06h-2.88Zm-1.91-8.95c0-.41,0-.74-.01-.96l1.51.1c.17.01.27.06.27.15s-.08.18-.29.3v.84h2.82c1.02,0,2.19-.03,2.97-.08-.03.54-.03.82-.03,1.15v.39c0,.33.01.72.04,1.15h-1.56c.03-.38.04-.85.04-1.15v-.19h-10.16v.19c0,.3.02.78.05,1.15h-1.56c.03-.44.04-.82.04-1.15v-.39c0-.33,0-.6-.03-1.15.78.04,1.95.08,2.98.08h2.89v-.44Z"/>
        <path class="cls-19" d="m183.63,170.96c-.2,2.13-.55,3.5-1.14,4.67-.75,1.46-1.79,2.52-3.41,3.48-.48.28-.79.46-1.6.87l-.15-.27c-.29-.54-.36-.66-.78-1.12,3.63-1.65,5.05-3.41,5.47-7.59l-2.11.04c-1.47.03-1.71.03-2.7.08l-.03-1.54c.23.01,1.12.03,2.69.03l2.26-.03.04-2.1c0-.36,0-.81-.03-1.12l1.71.14c.25.01.41.1.41.25,0,.13-.11.23-.45.42-.01.88-.04,1.67-.09,2.38l4.42-.07.24-.29,1.11.88c.15.1.18.18.18.27,0,.12-.03.17-.33.3-.02.82-.03,1.2-.03,1.77-.03,4.12-.3,5.8-1.08,6.58-.64.65-1.23.77-3.88.78-.1-.76-.21-1.12-.46-1.69l.27.02c.39.02.8.02,1.23.02,1.26,0,1.6-.14,1.89-.75.35-.75.48-2.55.53-6.48l-4.17.09Z"/>
        <path class="cls-19" d="m195.12,172.28c.73.49,1.33.97,1.96,1.6l-.86,1.33c-.31-.42-.72-.87-1.11-1.25v1.81c0,1.96.03,3.42.08,4.38h-1.56c.04-.98.08-2.44.08-4.38v-1.33c-.09.24-.17.46-.29.73-.4.99-.71,1.56-1.27,2.46-.44-.85-.57-1.09-.87-1.47,1.02-1.5,1.69-3.19,2.21-5.44h-.75c-.41,0-.89.01-1.2.03v-1.42c.33.02.87.03,1.2.03h.97c-.01-1.66-.04-2.7-.09-3.07l1.58.12c.13,0,.22.06.22.15,0,.08-.08.17-.27.29-.02.43-.02.51-.03,2.52h.84c.33,0,.87-.01,1.2-.03v1.42c-.32-.02-.79-.03-1.2-.03h-.84v1.54Zm4.2,7.62h-1.47c.03-.6.04-1.47.04-2.64v-7.71c0-.9-.03-1.9-.04-2.38.27.03.53.03.88.03h5.17c.35,0,.6,0,.89-.03q-.03.49-.04,2.38v7.54c0,1.19.01,2.07.04,2.62h-1.49v-.71h-3.99v.89Zm3.99-9.27v-2.06h-3.99v2.06h3.99Zm-3.99,3.54h3.99v-2.16h-3.99v2.16Zm0,3.46h3.99v-2.08h-3.99v2.08Z"/>
        <path class="cls-19" d="m217.14,167.95c.93,0,2.22-.02,3-.06v1.47c-.78-.05-2.13-.06-3-.06h-8.37v3.61c0,3-.51,5.04-1.71,6.91-.42-.67-.48-.78-.9-1.26.78-1.36,1.12-3.1,1.12-5.76v-3.55c0-.47-.01-1.04-.04-1.32.51.02,1,.02,1.65.02h3.87v-.81c0-.42-.01-.75-.03-.98l1.54.11c.18.01.27.06.27.15,0,.1-.08.19-.3.3v1.23h2.89Zm-6,6.01c.09.03.15.09.15.17,0,.09-.04.14-.25.2-.41,2.19-.58,2.77-1.31,4.18-.61-.54-.69-.6-1.18-.85.71-1.35,1-2.43,1.18-4.09l1.41.4Zm2.12-2.01c.13,0,.24.09.24.18,0,.1-.09.18-.32.27-.01.19-.03.4-.03.64v4.65c0,.36.08.47.35.52.18.03.87.09,1.2.09,1.98,0,2.06-.08,2.06-2.28.73.21.99.27,1.44.35-.04,1.95-.24,2.61-.87,2.96-.52.3-1.06.38-2.94.38-2.26,0-2.67-.27-2.67-1.77v-4.74c0-.79-.01-1.16-.04-1.38l1.59.14Zm.51-2.38c1.11.76,1.83,1.44,2.78,2.61l-1.12.97c-.86-1.23-1.42-1.83-2.5-2.7l.85-.88Zm4.14,3.51c1.31,1.25,2.17,2.44,2.85,3.96l-1.26.87c-.66-1.53-1.41-2.71-2.55-4l.96-.82Z"/>
        <path class="cls-19" d="m229.38,166.64c.21.07.3.15.3.24,0,.12,0,.13-.36.23.77,1.19,1.43,1.93,2.37,2.68,1.11.9,2.31,1.56,4,2.25q-.54.65-.92,1.43c-1.93-.93-2.65-1.37-3.87-2.37-1.12-.93-1.53-1.36-2.46-2.83-.74,1.12-1.29,1.77-2.24,2.64-1.2,1.12-2.13,1.78-4.09,2.92-.34-.71-.5-.95-.88-1.41,1.74-.9,2.75-1.59,3.92-2.67,1.17-1.06,1.84-1.92,2.85-3.6l1.38.5Zm-1.46,5.53c0-.69,0-.87-.03-1.4l1.61.1c.17.02.27.06.27.15s-.09.18-.29.3v2.45h2.13c.57,0,1.33-.02,1.79-.03v1.47c-.45-.03-1.29-.05-1.79-.05h-2.13v3.17h2.71c.95,0,2.22-.03,2.99-.06v1.54c-.79-.03-2.07-.04-2.99-.04h-7.39c-.82,0-2.17.02-2.98.04v-1.54c.64.03,1.71.04,2.55.06v-3.45c0-.69,0-.87-.03-1.38l1.58.09c.17.02.27.08.27.15,0,.09-.09.18-.3.3v4.29h2.04v-6.16Z"/>
        <path class="cls-19" d="m244.12,177.52c0,1.14.01,2.1.04,2.64h-1.47c.03-.58.04-1.42.04-2.64v-.8c-.87.77-1.44,1.16-2.4,1.68-1.14.61-1.92.93-3.43,1.4-.25-.67-.29-.75-.63-1.32,2.26-.6,3.84-1.29,5.17-2.25h-1.91c-.78,0-1.75.02-2.38.04v-1.27c.63.03,1.6.04,2.38.04h3.2v-.73h-1.92c-.77,0-1.75.02-2.38.04v-1.26c.63.01,1.62.04,2.38.04h1.92v-.71h-2.66c-.78,0-1.77.03-2.4.06v-1.27c.63.03,1.62.04,2.4.04h.92c-.18-.45-.41-.87-.66-1.27h-.62c-.82,0-2.17.01-2.98.04v-1.36c.67.03,1.77.04,2.61.04-.3-.5-.53-.78-1.1-1.41l1.02-.79c.84.79,1.05,1.04,1.6,1.94l-.42.27h1.11v-1.47l-.02-.96,1.41.1c.18.02.29.06.29.15s-.09.18-.3.3v1.88h1.09v-1.47c0-.4,0-.73-.01-.96l1.42.1c.17.02.27.06.27.15s-.09.18-.3.3v1.88h.6c.47-.93.62-1.37.81-2.16l1.46.52c.09.03.17.1.17.17,0,.1-.04.14-.35.24q-.09.18-.45.92c-.04.09-.11.19-.18.31.92,0,2.06-.02,2.76-.04v1.36c-.79-.03-2.07-.04-2.98-.04h-.97c.19.06.24.13.24.19,0,.09-.08.14-.33.21q-.1.2-.45.87h1.17c.69,0,1.74-.02,2.38-.04v1.27c-.65-.03-1.7-.06-2.38-.06h-2.79v.71h2.04c.69,0,1.75-.03,2.4-.04v1.26c-.64-.03-1.71-.04-2.4-.04h-2.04v.73h3.38c.69,0,1.74-.02,2.38-.04v1.27c-.65-.03-1.7-.04-2.38-.04h-2.22c1.38.98,2.93,1.57,5.31,2.1-.35.56-.42.72-.68,1.37-1.5-.38-2.53-.78-3.79-1.46-.79-.45-1.25-.77-2-1.47v.75Zm.22-6.25c.2-.42.39-.84.53-1.27h-3.04c.29.39.51.82.69,1.27h1.83Z"/>
      </g>
      <g>
        <g>
          <path class="cls-19" d="m169.02,44.86c-.27-1.41-1.06-2.13-2.35-2.13-1.84,0-3,1.69-3,4.4s1.16,4.36,3.03,4.36c1.44,0,2.28-.93,2.44-2.75h1.61c-.17,2.77-1.56,4.27-3.99,4.27-3.01,0-4.95-2.29-4.95-5.88,0-2.05.6-3.7,1.74-4.75.84-.76,1.95-1.18,3.13-1.18,1.37,0,2.52.54,3.2,1.5.42.57.61,1.2.71,2.16h-1.56Z"/>
          <path class="cls-19" d="m174.37,41.35v4.26c.6-.73,1.37-1.09,2.33-1.09s1.86.42,2.28,1.09c.33.5.42,1.05.42,2.53v4.67h-1.68v-4.4c0-.88-.06-1.33-.22-1.66-.24-.48-.71-.75-1.29-.75-.64,0-1.21.33-1.53.9-.21.38-.3.87-.3,1.6v4.3h-1.68v-11.46h1.68Z"/>
          <path class="cls-19" d="m181.74,46.98c.09-.81.33-1.29.81-1.71.57-.48,1.47-.75,2.49-.75,1.36,0,2.34.45,2.7,1.26.2.46.25.88.25,1.9v3.17c0,1.09.05,1.5.26,1.96h-1.56c-.1-.4-.12-.56-.13-1-.45.79-1.21,1.19-2.33,1.19-1.71,0-2.77-.89-2.77-2.31,0-1.12.64-1.98,1.86-2.43.75-.29,1.25-.41,3.04-.72v-.23c0-1.03-.39-1.42-1.41-1.42-.93,0-1.44.34-1.59,1.09h-1.62Zm4.62,1.73c-1.26.18-1.95.36-2.4.62-.53.28-.78.67-.78,1.17,0,.69.57,1.18,1.38,1.18.69,0,1.28-.31,1.56-.85.18-.31.24-.75.24-1.5v-.62Z"/>
          <path class="cls-19" d="m192.22,50.83c0,.56.12.66.67.66.32,0,.54-.02.86-.09v1.47c-.65.09-.87.1-1.29.1-.69,0-1.18-.1-1.47-.31-.33-.25-.45-.6-.45-1.37v-9.94h1.68v9.48Z"/>
          <path class="cls-19" d="m196.84,50.83c0,.56.12.66.67.66.32,0,.54-.02.86-.09v1.47c-.65.09-.87.1-1.29.1-.69,0-1.18-.1-1.47-.31-.33-.25-.45-.6-.45-1.37v-9.94h1.68v9.48Z"/>
          <path class="cls-19" d="m200.92,49.12c.08,1.68.83,2.54,2.22,2.54.86,0,1.38-.33,1.74-1.11h1.53c-.38,1.59-1.58,2.49-3.32,2.49-2.37,0-3.87-1.64-3.87-4.19s1.48-4.38,3.73-4.38,3.51,1.67,3.51,4.27v.38h-5.55Zm3.84-1.26c-.17-1.35-.78-2.06-1.83-2.06s-1.69.68-1.96,2.06h3.79Z"/>
          <path class="cls-19" d="m209.89,44.7c.14.36.17.56.17,1.11.58-.85,1.4-1.29,2.45-1.29s1.92.46,2.33,1.24c.27.52.31.87.31,2.38v4.67h-1.68v-4.4c0-.94-.04-1.35-.2-1.68-.22-.48-.67-.73-1.26-.73-.64,0-1.23.33-1.54.88-.2.35-.29.84-.29,1.59v4.33h-1.68v-5.28c0-2-.01-2.04-.22-2.83h1.62Z"/>
          <path class="cls-19" d="m224.8,45.93l-1.67-.02c.36.39.55,1.01.55,1.64,0,.93-.42,1.67-1.15,2.01-.57.27-.77.31-2.4.56-.48.07-.85.33-.85.58,0,.33.15.38,1.71.52,1.72.17,2.29.31,2.82.71.5.38.79,1.02.79,1.71,0,1.65-1.44,2.64-3.87,2.64s-3.87-.93-3.87-2.37c0-.94.51-1.54,1.67-1.95-.62-.24-.88-.52-.88-.94,0-.56.39-.92,1.44-1.32-1.02-.46-1.49-1.2-1.49-2.32,0-1.73,1.25-2.82,3.21-2.82.48,0,.84.06,1.41.23l2.58-.08v1.23Zm-6.46,7.84c0,.75.95,1.21,2.43,1.21,1.37,0,2.22-.45,2.22-1.19,0-.78-.88-1.21-2.46-1.21-1.37,0-2.19.45-2.19,1.19Zm.76-6.42c0,.85.62,1.41,1.56,1.41s1.56-.56,1.56-1.42-.63-1.5-1.53-1.5c-.95,0-1.59.61-1.59,1.51Z"/>
          <path class="cls-19" d="m227.64,49.12c.08,1.68.83,2.54,2.22,2.54.86,0,1.38-.33,1.74-1.11h1.53c-.38,1.59-1.58,2.49-3.32,2.49-2.37,0-3.87-1.64-3.87-4.19s1.48-4.38,3.73-4.38,3.51,1.67,3.51,4.27v.38h-5.55Zm3.84-1.26c-.17-1.35-.78-2.06-1.83-2.06s-1.69.68-1.96,2.06h3.79Z"/>
        </g>
        <g>
          <path class="cls-9" d="m169.11,44.77c-.27-1.43-1.08-2.15-2.38-2.15-1.87,0-3.03,1.71-3.03,4.45s1.17,4.42,3.06,4.42c1.46,0,2.31-.94,2.47-2.78h1.62c-.17,2.81-1.58,4.32-4.04,4.32-3.05,0-5.01-2.32-5.01-5.95,0-2.08.61-3.75,1.76-4.81.85-.77,1.97-1.2,3.17-1.2,1.38,0,2.55.55,3.23,1.52.42.58.62,1.21.71,2.18h-1.58Z"/>
          <path class="cls-10" d="m174.52,41.22v4.31c.61-.74,1.38-1.11,2.35-1.11s1.88.43,2.31,1.11c.33.5.43,1.06.43,2.56v4.72h-1.7v-4.45c0-.89-.06-1.35-.23-1.68-.24-.49-.71-.76-1.3-.76-.65,0-1.23.33-1.55.91-.21.38-.3.88-.3,1.62v4.35h-1.7v-11.59h1.7Z"/>
          <path class="cls-8" d="m181.97,46.91c.09-.82.33-1.31.82-1.73.58-.49,1.49-.76,2.52-.76,1.38,0,2.37.46,2.73,1.27.2.47.26.9.26,1.93v3.2c0,1.11.05,1.52.26,1.99h-1.58c-.11-.41-.12-.56-.14-1.02-.45.8-1.23,1.2-2.35,1.2-1.73,0-2.81-.9-2.81-2.34,0-1.14.65-2,1.88-2.46.76-.29,1.26-.41,3.08-.73v-.23c0-1.05-.39-1.44-1.43-1.44-.94,0-1.46.35-1.61,1.11h-1.64Zm4.67,1.75c-1.27.18-1.97.36-2.43.62-.53.29-.79.68-.79,1.18,0,.7.58,1.2,1.4,1.2.7,0,1.29-.32,1.58-.86.18-.32.24-.76.24-1.52v-.62Z"/>
          <path class="cls-12" d="m192.57,50.81c0,.56.12.67.68.67.32,0,.55-.02.87-.09v1.49c-.65.09-.88.11-1.31.11-.7,0-1.2-.11-1.49-.32-.33-.26-.46-.61-.46-1.38v-10.06h1.7v9.59Z"/>
          <path class="cls-14" d="m197.25,50.81c0,.56.12.67.68.67.32,0,.55-.02.87-.09v1.49c-.65.09-.88.11-1.31.11-.7,0-1.2-.11-1.49-.32-.33-.26-.46-.61-.46-1.38v-10.06h1.7v9.59Z"/>
          <path class="cls-3" d="m201.37,49.08c.08,1.7.83,2.56,2.25,2.56.87,0,1.4-.33,1.76-1.12h1.55c-.38,1.61-1.59,2.52-3.35,2.52-2.4,0-3.91-1.65-3.91-4.23s1.5-4.43,3.78-4.43,3.55,1.68,3.55,4.32v.38h-5.61Zm3.88-1.27c-.17-1.37-.79-2.08-1.85-2.08s-1.71.68-1.99,2.08h3.84Z"/>
          <path class="cls-2" d="m210.44,44.6c.14.36.17.56.17,1.12.59-.87,1.41-1.31,2.47-1.31s1.94.47,2.35,1.26c.27.53.32.88.32,2.41v4.72h-1.7v-4.45c0-.96-.05-1.37-.2-1.7-.23-.49-.68-.74-1.27-.74-.65,0-1.24.33-1.56.9-.2.35-.29.85-.29,1.61v4.38h-1.7v-5.34c0-2.02-.01-2.06-.23-2.87h1.64Z"/>
          <path class="cls-1" d="m225.52,45.85l-1.68-.02c.36.39.56,1.02.56,1.65,0,.94-.42,1.68-1.17,2.03-.58.27-.77.32-2.43.56-.49.08-.86.33-.86.59,0,.33.15.38,1.73.53,1.75.17,2.32.32,2.85.71.5.38.8,1.03.8,1.73,0,1.67-1.46,2.67-3.91,2.67s-3.91-.94-3.91-2.4c0-.96.52-1.56,1.68-1.97-.62-.24-.9-.53-.9-.96,0-.56.39-.93,1.46-1.34-1.03-.47-1.5-1.21-1.5-2.35,0-1.74,1.26-2.85,3.25-2.85.49,0,.85.06,1.43.23l2.61-.08v1.24Zm-6.54,7.93c0,.76.96,1.23,2.46,1.23,1.38,0,2.24-.45,2.24-1.2,0-.79-.89-1.23-2.49-1.23-1.38,0-2.22.46-2.22,1.2Zm.77-6.49c0,.87.62,1.43,1.58,1.43s1.58-.56,1.58-1.44-.64-1.52-1.55-1.52c-.96,0-1.61.62-1.61,1.53Z"/>
          <path class="cls-4" d="m228.39,49.08c.08,1.7.83,2.56,2.24,2.56.87,0,1.4-.33,1.76-1.12h1.55c-.38,1.61-1.59,2.52-3.35,2.52-2.4,0-3.91-1.65-3.91-4.23s1.5-4.43,3.78-4.43,3.55,1.68,3.55,4.32v.38h-5.61Zm3.88-1.27c-.17-1.37-.79-2.08-1.85-2.08s-1.71.68-1.99,2.08h3.84Z"/>
        </g>
      </g>
      <g>
        <path class="cls-19" d="m51.51,196.26c-.81,0-2.35.03-2.98.06v-1.48c.61.03,2.14.06,2.98.06h1.35c.45-.89.87-1.77,1.2-2.7l1.58.6c.1.03.18.12.18.19,0,.12-.12.18-.42.23-.3.58-.6,1.14-.88,1.68h4.54c.95,0,2.22-.03,2.98-.06v1.48c-.79-.03-2.07-.06-2.98-.06h-.15c-.38,1.15-.84,2.29-1.6,3.25,1.23.54,2.38,1.21,3.5,1.96l-.95,1.4c-1.16-.85-2.37-1.63-3.66-2.25-1.39,1.12-3.3,1.8-6.57,2.37-.09-.6-.25-1.02-.57-1.5,2.64-.36,4.33-.83,5.54-1.54-.83-.3-1.68-.56-2.54-.78-.13.22-.29.43-.42.66l-1.39-.67c.69-.93,1.3-1.9,1.89-2.9h-.62Zm3-6.27c0-.41,0-.74-.01-.96l1.57.1c.18.01.29.07.29.17,0,.07-.09.17-.3.28v1h2.64c1.04,0,2.21-.03,2.99-.06-.03.54-.03.81-.03,1.14v.94c0,.39.01.83.04,1.32h-1.56c.03-.44.04-.98.04-1.32v-.64h-9.79v.64c0,.35.02.89.04,1.32h-1.56c.03-.5.04-.93.04-1.32v-.94c0-.33,0-.6-.03-1.14.78.03,1.95.06,2.99.06h2.64v-.6Zm-.74,6.27c-.33.6-.67,1.19-1.02,1.77,1.04.27,2.07.51,3.08.88.38-.39.71-.82.96-1.3.24-.44.4-.89.57-1.35h-3.58Z"/>
        <path class="cls-19" d="m71.03,197.78h1.75c.6,0,1.58-.02,2.1-.04v1.47c-.56-.02-1.53-.04-2.1-.04h-1.75v2.07h2.7c.95,0,2.22-.03,2.98-.06v1.5c-.79-.03-2.07-.06-2.98-.06h-6.79c-.83,0-2.17.03-2.98.06v-1.5c.76.03,2.13.06,2.98.06h2.66v-2.07h-1.77c-.63,0-1.47.03-2.1.04v-1.47c.58.03,1.44.04,2.1.04h1.77v-1.81h-1.47c-.5,0-1.33.01-1.79.03v-1.17c-.71.52-1.47,1-2.37,1.53-.29-.54-.41-.72-.81-1.26,3.36-1.88,4.9-3.34,6.6-6.28l1.39.51c.2.08.3.17.3.27,0,.12-.03.17-.28.24.72,1.15,1.36,1.92,2.25,2.67,1.08.9,2.28,1.59,3.98,2.31-.42.5-.53.66-.87,1.35-.98-.5-1.63-.85-2.21-1.21v1.05c-.46-.02-1.3-.03-1.8-.03h-1.49v1.81Zm1.49-3.19c.39,0,.85,0,1.26-.02-.33-.24-.66-.5-1.04-.81-1.14-.98-1.54-1.42-2.52-3.03-.78,1.23-1.37,1.94-2.33,2.8-.39.36-.79.71-1.21,1.04.45,0,1,.02,1.44.02h4.39Z"/>
        <path class="cls-19" d="m80.21,202.4c0,.21,0,.35.01.56h-1.46q.03-.78.04-3.54v-6.54q-.01-2.85-.04-3.38c.79.03,1.96.06,2.99.06h7.09c1.02,0,2.19-.03,2.98-.06q-.03.52-.03,3.38v6.54q.01,2.76.03,3.54h-1.44c0-.21.01-.35.01-.56h-10.2Zm10.21-1.23c0-.42,0-.99.01-1.75v-8.62h-10.26v8.62c0,.77,0,1.33.01,1.75h10.23Zm-3.58-7.15c.09.2.21.38.33.56h1.11c.57,0,1.33-.02,1.79-.03v1.19c-.45-.02-1.29-.03-1.79-.03h-.06c.57.48,1.15.85,2.04,1.29-.29.33-.53.69-.75,1.11-.95-.57-1.52-1.02-2.15-1.65,0,.13,0,.34-.01,1.02v.38c0,.3.01.61.04,1.24h-1.23v-.33h-2.22v.39c0,.4.11.44,1.41.44,1.49,0,2.29-.06,2.55-.18.21-.1.29-.38.3-1.14.63.24.81.3,1.19.4-.11,1.94-.25,2.01-4.28,2.01-2.04,0-2.4-.15-2.4-1.03v-.66q-.01-.96-.04-1.2.43.01,1.77.01h1.73v-.57h-2.25c-.27,0-.72.02-.9.03v-.38c-.53.51-1.17.99-2.04,1.56-.21-.48-.41-.79-.71-1.09.98-.58,1.63-1.08,2.16-1.65h-.12c-.5,0-1.35.01-1.8.03v-1.19c.45.02,1.21.03,1.8.03h.98c.12-.18.22-.36.33-.56h-.81c-.5,0-1.33.02-1.8.03v-1.19c.39.02,1.04.03,1.58.03-.23-.55-.44-.94-.74-1.38l.95-.48c.38.47.67.95.97,1.59l-.54.27h.87c.21-.6.41-1.27.58-2.08l1.21.3c.18.04.27.12.27.23s-.11.17-.35.22c-.17.51-.3.96-.43,1.33h.79c.43-.81.64-1.32.76-1.8l1.19.41c.15.04.19.09.19.16,0,.09-.06.14-.27.23-.32.54-.45.77-.6,1h.36c.57,0,1.33-.01,1.79-.03v1.19c-.45-.02-1.29-.03-1.79-.03h-.97Zm-2.81,1.68c-.13.19-.28.39-.45.57h2.04c.52,0,1.05,0,1.56-.02-.06-.06-.12-.13-.2-.21-.1-.12-.21-.24-.3-.34h-2.66Zm.95-1.68c-.08.2-.17.38-.25.56h1.25c-.08-.18-.17-.36-.24-.56h-.75Z"/>
        <path class="cls-19" d="m101.18,189.47c.21.07.3.15.3.24,0,.12,0,.13-.36.23.77,1.19,1.43,1.93,2.37,2.68,1.11.9,2.31,1.56,4,2.25q-.54.65-.92,1.43c-1.93-.93-2.65-1.37-3.87-2.37-1.12-.93-1.53-1.36-2.46-2.83-.74,1.12-1.29,1.77-2.24,2.64-1.2,1.12-2.13,1.78-4.09,2.92-.34-.71-.5-.95-.88-1.41,1.74-.9,2.75-1.59,3.92-2.67,1.17-1.06,1.84-1.92,2.85-3.6l1.38.5Zm-1.46,5.53c0-.69,0-.87-.03-1.4l1.61.1c.17.02.27.06.27.15s-.09.18-.29.3v2.45h2.13c.57,0,1.33-.02,1.79-.03v1.47c-.45-.03-1.29-.05-1.79-.05h-2.13v3.17h2.71c.95,0,2.22-.03,2.99-.06v1.54c-.79-.03-2.07-.04-2.99-.04h-7.39c-.82,0-2.17.02-2.98.04v-1.54c.64.03,1.71.04,2.55.06v-3.45c0-.69,0-.87-.03-1.38l1.58.09c.17.02.27.08.27.15,0,.09-.09.18-.3.3v4.29h2.04v-6.16Z"/>
        <path class="cls-19" d="m115.92,200.34c0,1.14.01,2.1.04,2.64h-1.47c.03-.58.04-1.42.04-2.64v-.8c-.87.77-1.44,1.16-2.4,1.68-1.14.61-1.92.93-3.43,1.4-.25-.67-.29-.75-.63-1.32,2.26-.6,3.84-1.29,5.17-2.25h-1.91c-.78,0-1.75.02-2.38.04v-1.27c.63.03,1.6.04,2.38.04h3.2v-.73h-1.92c-.77,0-1.75.02-2.38.04v-1.26c.63.01,1.62.04,2.38.04h1.92v-.71h-2.66c-.78,0-1.77.03-2.4.06v-1.27c.63.03,1.62.04,2.4.04h.92c-.18-.45-.41-.87-.66-1.27h-.62c-.82,0-2.17.01-2.98.04v-1.36c.67.03,1.77.04,2.61.04-.3-.5-.53-.78-1.1-1.41l1.02-.79c.84.79,1.05,1.04,1.6,1.94l-.42.27h1.11v-1.47l-.02-.96,1.41.1c.18.02.29.06.29.15s-.09.18-.3.3v1.88h1.09v-1.47c0-.4,0-.73-.01-.96l1.42.1c.17.02.27.06.27.15s-.09.18-.3.3v1.88h.6c.47-.93.62-1.37.81-2.16l1.46.52c.09.03.17.1.17.17,0,.1-.04.14-.35.24q-.09.18-.45.92c-.04.09-.11.19-.18.31.92,0,2.06-.02,2.76-.04v1.36c-.79-.03-2.07-.04-2.98-.04h-.97c.19.06.24.13.24.19,0,.09-.08.14-.33.21q-.1.2-.45.87h1.17c.69,0,1.74-.02,2.38-.04v1.27c-.65-.03-1.7-.06-2.38-.06h-2.79v.71h2.04c.69,0,1.75-.03,2.4-.04v1.26c-.64-.03-1.71-.04-2.4-.04h-2.04v.73h3.38c.69,0,1.74-.02,2.38-.04v1.27c-.65-.03-1.7-.04-2.38-.04h-2.22c1.38.98,2.93,1.57,5.31,2.1-.35.56-.42.72-.68,1.37-1.5-.38-2.53-.78-3.79-1.46-.79-.45-1.25-.77-2-1.47v.75Zm.22-6.25c.2-.42.39-.84.53-1.27h-3.04c.29.39.51.82.69,1.27h1.83Z"/>
      </g>
      <path class="cls-6" d="m274.11,129.1c-.54,0-.98-.44-.98-.98s.44-.98.98-.98h7.23V31.75c0-.54.44-.98.98-.98h58.78c.54,0,.98.44.98.98v15.1h20.2c.54,0,.98.44.98.98v77.51c0,.15-.03.29-.1.43l-.67,1.37h8c.54,0,.98.44.98.98s-.44.98-.98.98h-96.37Zm67.96-1.96h20l-.67-1.37c-.07-.14-.1-.28-.1-.43V48.81h-19.22v78.33Zm-24.95-9.96c.54,0,.98.44.98.98v8.98h22.01V32.73h-56.82v94.41h22.01v-8.98c0-.54.44-.98.98-.98h10.83Zm-9.85,9.96h8.87v-8h-8.87v8Zm17.42-5.95c-.54,0-.98-.44-.98-.98s.44-.98.98-.98h7.61c.54,0,.98.44.98.98s-.44.98-.98.98h-7.61Zm-33.83,0c-.54,0-.98-.44-.98-.98s.44-.98.98-.98h7.61c.54,0,.98.44.98.98s-.44.98-.98.98h-7.61Zm60.46-4.9c-.54,0-.98-.44-.98-.98v-4.98c0-.54.44-.98.98-.98s.98.44.98.98v4.98c0,.54-.44.98-.98.98Zm-60.21-4.99c-.54,0-.98-.44-.98-.98s.44-.98.98-.98h41.19c.54,0,.98.44.98.98s-.44.98-.98.98h-41.19Zm0-9.75c-.54,0-.98-.44-.98-.98s.44-.98.98-.98h41.19c.54,0,.98.44.98.98s-.44.98-.98.98h-41.19Zm60.21-2.06c-.54,0-.98-.44-.98-.98v-4.98c0-.54.44-.98.98-.98s.98.44.98.98v4.98c0,.54-.44.98-.98.98Zm-60.21-7.69c-.54,0-.98-.44-.98-.98s.44-.98.98-.98h41.19c.54,0,.98.44.98.98s-.44.98-.98.98h-41.19Zm60.21-9.12c-.54,0-.98-.44-.98-.98v-4.98c0-.54.44-.98.98-.98s.98.44.98.98v4.98c0,.54-.44.98-.98.98Zm-60.21-.63c-.54,0-.98-.44-.98-.98s.44-.98.98-.98h41.19c.54,0,.98.44.98.98s-.44.98-.98.98h-41.19Zm0-9.75c-.54,0-.98-.44-.98-.98s.44-.98.98-.98h41.19c.54,0,.98.44.98.98s-.44.98-.98.98h-41.19Zm60.21-6.42c-.54,0-.98-.44-.98-.98v-4.98c0-.54.44-.98.98-.98s.98.44.98.98v4.98c0,.54-.44.98-.98.98Zm-60.21-3.33c-.54,0-.98-.44-.98-.98s.44-.98.98-.98h41.19c.54,0,.98.44.98.98s-.44.98-.98.98h-41.19Zm0-9.75c-.54,0-.98-.44-.98-.98s.44-.98.98-.98h41.19c.54,0,.98.44.98.98s-.44.98-.98.98h-41.19Zm0-9.75c-.54,0-.98-.44-.98-.98s.44-.98.98-.98h41.19c.54,0,.98.44.98.98s-.44.98-.98.98h-41.19Z"/>
      <path class="cls-7" d="m115.96,172.99h8c.54,0,.98.44.98.98s-.44.98-.98.98H48.77c-.54,0-.98-.44-.98-.98s.44-.98.98-.98h7.23v-55.81c0-.54.44-.98.98-.98h58.78c.54,0,.98.44.98.98v55.81h-1.18m-23.77-9.96c.54,0,.98.44.98.98v8.98h22.01v-54.83h-56.82v54.83h22.01v-8.98c0-.54.44-.98.98-.98h10.83Zm-9.85,9.96h8.87v-8h-8.87v8Zm17.42-5.95c-.54,0-.98-.44-.98-.98s.44-.98.98-.98h7.61c.54,0,.98.44.98.98s-.44.98-.98.98h-7.61Zm-33.83,0c-.54,0-.98-.44-.98-.98s.44-.98.98-.98h7.61c.54,0,.98.44.98.98s-.44.98-.98.98h-7.61Zm.25-9.89c-.54,0-.98-.44-.98-.98s.44-.98.98-.98h41.19c.54,0,.98.44.98.98s-.44.98-.98.98h-41.19Zm0-9.75c-.54,0-.98-.44-.98-.98s.44-.98.98-.98h41.19c.54,0,.98.44.98.98s-.44.98-.98.98h-41.19Zm0-9.75c-.54,0-.98-.44-.98-.98s.44-.98.98-.98h41.19c.54,0,.98.44.98.98s-.44.98-.98.98h-41.19Zm0-9.75c-.54,0-.98-.44-.98-.98s.44-.98.98-.98h41.19c.54,0,.98.44.98.98s-.44.98-.98.98h-41.19Zm0-9.75c-.54,0-.98-.44-.98-.98s.44-.98.98-.98h41.19c.54,0,.98.44.98.98s-.44.98-.98.98h-41.19Z"/>
      <path class="cls-16" d="m111.56,101.56l142.4-37.36c.39-.12.39-.68,0-.8l-7.48-2.26c-.45-.13-.37-.79.09-.82l27.73-1.85c.39-.03.6.46.31.73l-21.56,19.85c-.33.3-.83-.05-.67-.46l3.06-9.97c.13-.32-.17-.65-.51-.55l-143.37,33.49Z"/>
    </g>
  </g>
</svg>