<?xml version="1.0" encoding="UTF-8"?><svg id="_レイヤー_2" xmlns="http://www.w3.org/2000/svg" xmlns:xlink="http://www.w3.org/1999/xlink" viewBox="0 0 396.11 152.63"><defs><style>.cls-1,.cls-2,.cls-3,.cls-4,.cls-5{fill:none;}.cls-6{fill:#fff;}.cls-7{fill:#333;}.cls-8{fill:#231815;}.cls-2{stroke:url(#_新規グラデーションスウォッチ_6-3);}.cls-2,.cls-3,.cls-4,.cls-5{stroke-dasharray:0 0 .1 5;stroke-linecap:round;stroke-miterlimit:10;}.cls-3{stroke:url(#_新規グラデーションスウォッチ_6-4);}.cls-4{stroke:url(#_新規グラデーションスウォッチ_6-2);}.cls-5{stroke:url(#_新規グラデーションスウォッチ_6);}.cls-9{fill:url(#_新規グラデーションスウォッチ_1);}.cls-10{fill:url(#_新規グラデーションスウォッチ_1-6);}.cls-11{fill:url(#_新規グラデーションスウォッチ_1-5);}.cls-12{fill:url(#_新規グラデーションスウォッチ_1-2);}.cls-13{fill:url(#_新規グラデーションスウォッチ_1-4);}.cls-14{fill:url(#_新規グラデーションスウォッチ_1-3);}</style><linearGradient id="_新規グラデーションスウォッチ_6" x1=".57" y1="62.99" x2="1.57" y2="62.99" gradientUnits="userSpaceOnUse"><stop offset="0" stop-color="#0d76b4"/><stop offset="0" stop-color="#0d74b2"/><stop offset=".18" stop-color="#105495"/><stop offset=".37" stop-color="#133b7e"/><stop offset=".56" stop-color="#152a6d"/><stop offset=".76" stop-color="#161f64"/><stop offset="1" stop-color="#171c61"/></linearGradient><linearGradient id="_新規グラデーションスウォッチ_6-2" x1="2774.29" y1="-1611.97" x2="2775.29" y2="-1611.97" gradientTransform="translate(-1480.17 -2774.29) rotate(90)" xlink:href="#_新規グラデーションスウォッチ_6"/><linearGradient id="_新規グラデーションスウォッチ_6-3" x1="131.48" x2="132.48" xlink:href="#_新規グラデーションスウォッチ_6"/><linearGradient id="_新規グラデーションスウォッチ_6-4" x1="262.03" x2="263.03" xlink:href="#_新規グラデーションスウォッチ_6"/><linearGradient id="_新規グラデーションスウォッチ_1" x1="0" y1="124.22" x2="264.35" y2="124.22" gradientUnits="userSpaceOnUse"><stop offset="0" stop-color="#0d76a3"/><stop offset="0" stop-color="#0d74a2"/><stop offset=".18" stop-color="#10548a"/><stop offset=".37" stop-color="#133b78"/><stop offset=".56" stop-color="#152a6b"/><stop offset=".76" stop-color="#161f63"/><stop offset="1" stop-color="#171c61"/></linearGradient><linearGradient id="_新規グラデーションスウォッチ_1-2" x1="1696.93" y1="15.01" x2="1728.76" y2="15.01" gradientTransform="translate(1990.96) rotate(-180) scale(1 -1)" xlink:href="#_新規グラデーションスウォッチ_1"/><linearGradient id="_新規グラデーションスウォッチ_1-3" y1="64.27" y2="64.27" xlink:href="#_新規グラデーションスウォッチ_1"/><linearGradient id="_新規グラデーションスウォッチ_1-4" x1="165.87" y1="56.3" x2="229.04" y2="56.3" xlink:href="#_新規グラデーションスウォッチ_1"/><linearGradient id="_新規グラデーションスウォッチ_1-5" x1="165.87" y1="56.3" x2="229.04" y2="56.3" xlink:href="#_新規グラデーションスウォッチ_1"/><linearGradient id="_新規グラデーションスウォッチ_1-6" x1="165.87" y1="56.3" x2="229.04" y2="56.3" xlink:href="#_新規グラデーションスウォッチ_1"/></defs><g id="_レイヤー_1-2"><g><line class="cls-5" x1="1.07" y1="121.12" x2="1.07" y2="4.86"/><line class="cls-4" x1="1.07" y1=".5" x2="262.53" y2=".5"/><line class="cls-2" x1="131.98" y1="121.12" x2="131.98" y2="4.86"/><line class="cls-3" x1="262.53" y1="121.12" x2="262.53" y2="4.86"/><polygon class="cls-9" points="0 122.58 0 151.42 264.35 151.42 264.35 97.02 264.35 97.02 264.35 97.02 133.25 97.02 133.25 122.58 0 122.58"/><g><path class="cls-12" d="M263.17,25.85c.09,0,.18-.01,.28-.04l29-8.67c.95-.28,1.58-1.14,1.58-2.13,0-.99-.64-1.84-1.58-2.12l-29-8.67c-.51-.15-1.05,.14-1.2,.65s.14,1.05,.65,1.2l29,8.67c.14,.04,.21,.13,.21,.28s-.07,.24-.21,.28l-29,8.67c-.51,.15-.8,.69-.65,1.2,.13,.42,.51,.69,.92,.69Z"/><path class="cls-14" d="M264.35,5.93h0V97.06c0,.59-.48,1.07-1.07,1.07H133.25v24.49c0,.59-.48,1.07-1.07,1.07H1.07c-.59,0-1.07-.48-1.07-1.07s.48-1.07,1.07-1.07H131.1v-24.49c0-.59,.48-1.07,1.07-1.07h130.03V4.86"/></g><g><g><path class="cls-7" d="M59.68,57.15h-2.57c-.13,.21-.26,.41-.42,.64-.61,.89-1.01,1.36-1.79,2.07-.2-.32-.36-.49-.77-.89,1.47-1.46,2.18-2.54,2.91-4.49l1.07,.41c.17,.07,.25,.14,.25,.2q0,.1-.34,.18c-.12,.3-.24,.55-.35,.79h4.87c.72,0,1.78-.03,2.4-.05v1.18c-.62-.02-1.68-.05-2.4-.05h-1.7v1.61h1.91c.43,0,1.09-.01,1.43-.02v1.13c-.36-.02-1.03-.04-1.43-.04h-1.91v1.94h2.11c.98,0,1.57-.01,2.39-.05v1.19c-.64-.02-1.66-.04-2.39-.04h-2.11v.37c0,1.1,.01,1.92,.04,2.46h-1.25c.02-.54,.04-1.36,.04-2.46v-.37h-3.01c-.66,0-1.74,.01-2.39,.04v-1.19c.52,.02,1.36,.04,2.03,.05v-1.98q-.01-.85-.02-1.05,.32,.01,1.4,.02h1.99v-1.61Zm-2.24,2.68v1.94h2.24v-1.94h-2.24Z"/><path class="cls-7" d="M69.09,65.72c.04-.76,.06-1.89,.06-3.38-.6,.26-.98,.42-2.17,.9l-.06,.13c-.05,.1-.1,.14-.17,.14s-.13-.05-.17-.13l-.47-1.15c.26-.07,.49-.13,.72-.2v-4.59c0-.95-.01-1.45-.04-1.8l1.21,.08c.13,0,.2,.05,.2,.12s-.06,.13-.23,.24v5.55c.38-.14,.78-.3,1.16-.46v-2.97c0-1.97-.02-3.15-.07-3.53l1.27,.08c.11,0,.18,.06,.18,.12,0,.07-.06,.13-.22,.23q-.01,.42-.02,3.1v4.02c0,1.57,.02,2.73,.06,3.5h-1.26Zm7.6-9.18c-.36,2.06-.85,4.19-2,5.97,.62,.78,1.49,1.39,2.78,2.05-.42,.38-.52,.52-.8,1.02-1.06-.59-1.97-1.32-2.67-2.12-.67,.8-1.54,1.51-2.71,2.26-.26-.47-.38-.62-.71-1,1.19-.7,2-1.37,2.7-2.24-.46-.78-.79-1.7-1.08-2.89-.2-.84-.3-1.52-.42-2.9-.38,.01-.77,.01-1.06,.02v-1.18c.52,.03,1.33,.04,1.92,.04h3.36l.16-.19,.76,.72c.06,.06,.1,.12,.1,.18,0,.1-.06,.16-.2,.22l-.11,.05Zm-3.86,.13c.2,2.06,.35,2.75,.8,3.92,.12,.3,.24,.58,.36,.84,.85-1.45,1.25-3.12,1.51-4.76h-2.67Z"/></g><g><path class="cls-7" d="M64.09,106.76c-.16,1.91-.34,2.9-.66,3.85-.52,1.5-1.21,1.89-3.35,1.89h-.38q-.05-.78-.16-1.34c.62,.05,.64,.05,.89,.05,.83,0,1.22-.14,1.51-.54,.44-.65,.72-1.8,.89-3.72h-3.14c-.02,.14-.05,.28-.07,.43-.31,1.68-1.21,3.14-2.55,4.19-.58,.43-1.04,.71-1.96,1.1-.18-.44-.34-.73-.61-1.08,1.74-.84,2.47-1.43,3.15-2.59,.77-1.27,1.01-2.43,1.06-5.14h-1.45c-.66,0-1.74,.02-2.4,.05v-1.2c.62,.04,1.7,.05,2.4,.05h6.01c.75,0,1.77-.01,2.39-.05v1.2c-.63-.03-1.65-.05-2.39-.05h-3.33c-.02,.67-.05,1.34-.11,2.02h3.47l.2-.23,.82,.73c.08,.07,.11,.11,.11,.17,0,.07-.06,.12-.2,.17l-.12,.05Z"/><path class="cls-7" d="M68.68,109.96q.01,2.31,.04,2.82h-1.31q.01-.5,.04-2.34v-5.6q-.01-1.98-.04-2.34c.64,.02,1.57,.05,2.39,.05h4.94c.82,0,1.76-.03,2.39-.05q-.01,.36-.02,2.34v4.72c0,.26,.01,1.03,.04,1.54v.18c0,.72-.18,1.06-.66,1.28-.35,.14-.8,.19-1.99,.19-.04-.73-.05-.83-.23-1.38,.53,.04,.8,.05,1.16,.05,.38,0,.44-.07,.44-.5v-2.75h-7.18v1.79Zm0-6.27v3.36h2.93v-3.36h-2.93Zm4.16,3.36h3.02v-3.36h-3.02v3.36Z"/></g><g><g><path class="cls-7" d="M39.63,77.21c.18-3.69,2.73-5.82,6.99-5.82,2.1,0,3.72,.54,4.86,1.65,1.08,1.05,1.74,2.64,1.74,4.26,0,2.4-1.17,4.05-3.6,5.07,2.79,.87,4.11,2.64,4.11,5.52,0,2.22-.93,4.26-2.55,5.55-1.32,1.02-3,1.53-5.13,1.53-4.62,0-7.35-2.22-7.38-6.09h3.18c.06,1.95,1.53,3.03,4.2,3.03s4.14-1.47,4.14-3.96c0-1.68-.81-2.91-2.28-3.48-.66-.24-1.89-.39-3.27-.39l-.72,.03v-2.94c.42,.03,.6,.03,.87,.03,3.15,0,4.86-1.29,4.86-3.63,0-1.92-1.29-3.15-3.39-3.15s-3.42,1.05-3.6,2.79h-3.03Z"/><path class="cls-7" d="M61.59,89.48c.57,1.59,1.77,2.43,3.57,2.43,2.49,0,4.17-2.04,4.17-5.1,0-2.85-1.53-4.74-3.81-4.74-1.59,0-2.76,.66-3.78,2.16l-3.06-.42,1.95-11.97h11.01l-.27,3.15h-8.1l-.93,5.46c1.26-.93,2.25-1.26,3.72-1.26,4.14,0,6.96,3,6.96,7.47,0,2.25-.75,4.26-2.13,5.85-1.5,1.68-3.27,2.46-5.61,2.46-3.78,0-6.54-2.16-7.08-5.49h3.39Z"/><path class="cls-7" d="M92.94,83.21c0,7.38-2.97,11.79-7.92,11.79s-7.95-4.41-7.95-11.79,2.97-11.79,7.95-11.79,7.92,4.41,7.92,11.79Zm-10.83-7.17c-.96,1.68-1.47,4.23-1.47,7.17s.51,5.49,1.47,7.17c.63,1.08,1.65,1.68,2.91,1.68s2.25-.6,2.88-1.68c.96-1.68,1.5-4.23,1.5-7.17s-.57-5.58-1.5-7.17c-.66-1.11-1.65-1.68-2.88-1.68s-2.28,.57-2.91,1.68Z"/></g><g><path class="cls-8" d="M39.63,77.21c.18-3.69,2.73-5.82,6.99-5.82,2.1,0,3.72,.54,4.86,1.65,1.08,1.05,1.74,2.64,1.74,4.26,0,2.4-1.17,4.05-3.6,5.07,2.79,.87,4.11,2.64,4.11,5.52,0,2.22-.93,4.26-2.55,5.55-1.32,1.02-3,1.53-5.13,1.53-4.62,0-7.35-2.22-7.38-6.09h3.18c.06,1.95,1.53,3.03,4.2,3.03s4.14-1.47,4.14-3.96c0-1.68-.81-2.91-2.28-3.48-.66-.24-1.89-.39-3.27-.39l-.72,.03v-2.94c.42,.03,.6,.03,.87,.03,3.15,0,4.86-1.29,4.86-3.63,0-1.92-1.29-3.15-3.39-3.15s-3.42,1.05-3.6,2.79h-3.03Z"/><path class="cls-8" d="M61.59,89.48c.57,1.59,1.77,2.43,3.57,2.43,2.49,0,4.17-2.04,4.17-5.1,0-2.85-1.53-4.74-3.81-4.74-1.59,0-2.76,.66-3.78,2.16l-3.06-.42,1.95-11.97h11.01l-.27,3.15h-8.1l-.93,5.46c1.26-.93,2.25-1.26,3.72-1.26,4.14,0,6.96,3,6.96,7.47,0,2.25-.75,4.26-2.13,5.85-1.5,1.68-3.27,2.46-5.61,2.46-3.78,0-6.54-2.16-7.08-5.49h3.39Z"/><path class="cls-8" d="M92.94,83.21c0,7.38-2.97,11.79-7.92,11.79s-7.95-4.41-7.95-11.79,2.97-11.79,7.95-11.79,7.92,4.41,7.92,11.79Zm-10.83-7.17c-.96,1.68-1.47,4.23-1.47,7.17s.51,5.49,1.47,7.17c.63,1.08,1.65,1.68,2.91,1.68s2.25-.6,2.88-1.68c.96-1.68,1.5-4.23,1.5-7.17s-.57-5.58-1.5-7.17c-.66-1.11-1.65-1.68-2.88-1.68s-2.28,.57-2.91,1.68Z"/></g><g><path class="cls-7" d="M39.63,77.21c.18-3.69,2.73-5.82,6.99-5.82,2.1,0,3.72,.54,4.86,1.65,1.08,1.05,1.74,2.64,1.74,4.26,0,2.4-1.17,4.05-3.6,5.07,2.79,.87,4.11,2.64,4.11,5.52,0,2.22-.93,4.26-2.55,5.55-1.32,1.02-3,1.53-5.13,1.53-4.62,0-7.35-2.22-7.38-6.09h3.18c.06,1.95,1.53,3.03,4.2,3.03s4.14-1.47,4.14-3.96c0-1.68-.81-2.91-2.28-3.48-.66-.24-1.89-.39-3.27-.39l-.72,.03v-2.94c.42,.03,.6,.03,.87,.03,3.15,0,4.86-1.29,4.86-3.63,0-1.92-1.29-3.15-3.39-3.15s-3.42,1.05-3.6,2.79h-3.03Z"/><path class="cls-7" d="M61.59,89.48c.57,1.59,1.77,2.43,3.57,2.43,2.49,0,4.17-2.04,4.17-5.1,0-2.85-1.53-4.74-3.81-4.74-1.59,0-2.76,.66-3.78,2.16l-3.06-.42,1.95-11.97h11.01l-.27,3.15h-8.1l-.93,5.46c1.26-.93,2.25-1.26,3.72-1.26,4.14,0,6.96,3,6.96,7.47,0,2.25-.75,4.26-2.13,5.85-1.5,1.68-3.27,2.46-5.61,2.46-3.78,0-6.54-2.16-7.08-5.49h3.39Z"/><path class="cls-7" d="M92.94,83.21c0,7.38-2.97,11.79-7.92,11.79s-7.95-4.41-7.95-11.79,2.97-11.79,7.95-11.79,7.92,4.41,7.92,11.79Zm-10.83-7.17c-.96,1.68-1.47,4.23-1.47,7.17s.51,5.49,1.47,7.17c.63,1.08,1.65,1.68,2.91,1.68s2.25-.6,2.88-1.68c.96-1.68,1.5-4.23,1.5-7.17s-.57-5.58-1.5-7.17c-.66-1.11-1.65-1.68-2.88-1.68s-2.28,.57-2.91,1.68Z"/></g></g></g><g><g><path class="cls-7" d="M191.25,23.43h-2.57c-.13,.2-.26,.41-.42,.63-.61,.89-1.01,1.36-1.79,2.08-.2-.32-.36-.49-.77-.89,1.47-1.46,2.18-2.54,2.91-4.48l1.07,.41c.17,.07,.25,.14,.25,.21q0,.1-.34,.18c-.12,.3-.24,.55-.35,.79h4.87c.72,0,1.78-.02,2.4-.05v1.17c-.62-.02-1.68-.05-2.4-.05h-1.7v1.61h1.91c.43,0,1.09-.01,1.43-.03v1.13c-.36-.03-1.03-.04-1.43-.04h-1.91v1.94h2.11c.98,0,1.57-.01,2.39-.05v1.19c-.64-.02-1.66-.04-2.39-.04h-2.11v.37c0,1.1,.01,1.92,.04,2.46h-1.25c.02-.54,.04-1.36,.04-2.46v-.37h-3.01c-.66,0-1.74,.01-2.39,.04v-1.19c.52,.03,1.36,.04,2.03,.05v-1.98q-.01-.85-.02-1.06,.32,.01,1.4,.03h1.99v-1.61Zm-2.24,2.67v1.94h2.24v-1.94h-2.24Z"/><path class="cls-7" d="M200.66,32.01c.04-.76,.06-1.89,.06-3.38-.6,.26-.98,.42-2.17,.9l-.06,.13c-.05,.1-.1,.14-.17,.14s-.13-.05-.17-.13l-.47-1.15c.26-.07,.49-.13,.72-.2v-4.59c0-.95-.01-1.45-.04-1.8l1.21,.08c.13,0,.2,.05,.2,.12s-.06,.13-.23,.24v5.55c.38-.14,.78-.3,1.16-.46v-2.97c0-1.97-.02-3.15-.07-3.53l1.27,.08c.11,0,.18,.06,.18,.12,0,.07-.06,.13-.22,.23q-.01,.42-.02,3.09v4.02c0,1.57,.02,2.73,.06,3.5h-1.26Zm7.6-9.17c-.36,2.06-.85,4.19-2,5.97,.62,.78,1.49,1.39,2.78,2.05-.42,.38-.52,.52-.8,1.02-1.06-.59-1.97-1.32-2.67-2.12-.67,.8-1.54,1.51-2.71,2.25-.26-.47-.38-.62-.71-.99,1.19-.7,2-1.37,2.7-2.24-.46-.78-.79-1.7-1.08-2.89-.2-.84-.3-1.52-.42-2.9-.38,.01-.77,.01-1.06,.03v-1.18c.52,.02,1.33,.04,1.92,.04h3.36l.16-.19,.76,.72c.06,.06,.1,.12,.1,.18,0,.1-.06,.15-.2,.21l-.11,.05Zm-3.86,.13c.2,2.06,.35,2.75,.8,3.92,.12,.3,.24,.58,.36,.84,.85-1.45,1.25-3.12,1.51-4.76h-2.67Z"/></g><g><path class="cls-7" d="M195.78,81.75c-.16,1.91-.34,2.9-.66,3.85-.52,1.5-1.21,1.89-3.35,1.89h-.38q-.05-.78-.16-1.34c.62,.05,.64,.05,.89,.05,.83,0,1.22-.14,1.51-.54,.44-.65,.72-1.8,.89-3.72h-3.14c-.02,.14-.05,.28-.07,.43-.31,1.68-1.21,3.14-2.55,4.19-.58,.43-1.04,.71-1.96,1.1-.18-.44-.34-.73-.61-1.08,1.74-.84,2.47-1.43,3.15-2.59,.77-1.27,1.01-2.43,1.06-5.14h-1.45c-.66,0-1.74,.02-2.4,.05v-1.2c.62,.04,1.7,.05,2.4,.05h6.01c.75,0,1.77-.01,2.39-.05v1.2c-.63-.03-1.65-.05-2.39-.05h-3.33c-.02,.67-.05,1.34-.11,2.02h3.47l.2-.23,.82,.73c.08,.07,.11,.11,.11,.17,0,.07-.06,.12-.2,.17l-.12,.05Z"/><path class="cls-7" d="M200.37,84.96q.01,2.31,.04,2.82h-1.31q.01-.5,.04-2.34v-5.6q-.01-1.98-.04-2.34c.64,.02,1.57,.05,2.39,.05h4.94c.82,0,1.76-.03,2.39-.05q-.01,.36-.02,2.34v4.72c0,.26,.01,1.03,.04,1.54v.18c0,.72-.18,1.06-.66,1.28-.35,.14-.8,.19-1.99,.19-.04-.73-.05-.83-.23-1.38,.53,.04,.8,.05,1.16,.05,.38,0,.44-.07,.44-.5v-2.75h-7.18v1.79Zm0-6.27v3.36h2.93v-3.36h-2.93Zm4.16,3.36h3.02v-3.36h-3.02v3.36Z"/></g><g><g><path class="cls-7" d="M169.82,63.62c.67,1.86,2.07,2.83,4.17,2.83,2.91,0,4.87-2.38,4.87-5.95,0-3.33-1.79-5.53-4.45-5.53-1.86,0-3.22,.77-4.41,2.52l-3.57-.49,2.28-13.96h12.85l-.32,3.67h-9.45l-1.09,6.37c1.47-1.08,2.63-1.47,4.34-1.47,4.83,0,8.12,3.5,8.12,8.72,0,2.62-.88,4.97-2.49,6.83-1.75,1.96-3.82,2.87-6.55,2.87-4.41,0-7.63-2.52-8.26-6.4h3.96Z"/><path class="cls-7" d="M192.47,63.62c.67,1.86,2.07,2.83,4.17,2.83,2.91,0,4.87-2.38,4.87-5.95,0-3.33-1.79-5.53-4.45-5.53-1.86,0-3.22,.77-4.41,2.52l-3.57-.49,2.28-13.96h12.85l-.32,3.67h-9.45l-1.09,6.37c1.47-1.08,2.63-1.47,4.34-1.47,4.83,0,8.12,3.5,8.12,8.72,0,2.62-.88,4.97-2.49,6.83-1.75,1.96-3.82,2.87-6.55,2.87-4.41,0-7.63-2.52-8.26-6.4h3.96Z"/><path class="cls-7" d="M229.04,56.3c0,8.61-3.46,13.76-9.24,13.76s-9.28-5.14-9.28-13.76,3.46-13.76,9.28-13.76,9.24,5.14,9.24,13.76Zm-12.64-8.37c-1.12,1.96-1.72,4.94-1.72,8.37s.6,6.41,1.72,8.37c.73,1.26,1.92,1.96,3.39,1.96s2.63-.7,3.36-1.96c1.12-1.96,1.75-4.94,1.75-8.37s-.67-6.51-1.75-8.37c-.77-1.29-1.92-1.96-3.36-1.96s-2.66,.67-3.39,1.96Z"/></g><g><path class="cls-8" d="M169.82,63.62c.67,1.86,2.07,2.83,4.17,2.83,2.91,0,4.87-2.38,4.87-5.95,0-3.33-1.79-5.53-4.45-5.53-1.86,0-3.22,.77-4.41,2.52l-3.57-.49,2.28-13.96h12.85l-.32,3.67h-9.45l-1.09,6.37c1.47-1.08,2.63-1.47,4.34-1.47,4.83,0,8.12,3.5,8.12,8.72,0,2.62-.88,4.97-2.49,6.83-1.75,1.96-3.82,2.87-6.55,2.87-4.41,0-7.63-2.52-8.26-6.4h3.96Z"/><path class="cls-8" d="M192.47,63.62c.67,1.86,2.07,2.83,4.17,2.83,2.91,0,4.87-2.38,4.87-5.95,0-3.33-1.79-5.53-4.45-5.53-1.86,0-3.22,.77-4.41,2.52l-3.57-.49,2.28-13.96h12.85l-.32,3.67h-9.45l-1.09,6.37c1.47-1.08,2.63-1.47,4.34-1.47,4.83,0,8.12,3.5,8.12,8.72,0,2.62-.88,4.97-2.49,6.83-1.75,1.96-3.82,2.87-6.55,2.87-4.41,0-7.63-2.52-8.26-6.4h3.96Z"/><path class="cls-8" d="M229.04,56.3c0,8.61-3.46,13.76-9.24,13.76s-9.28-5.14-9.28-13.76,3.46-13.76,9.28-13.76,9.24,5.14,9.24,13.76Zm-12.64-8.37c-1.12,1.96-1.72,4.94-1.72,8.37s.6,6.41,1.72,8.37c.73,1.26,1.92,1.96,3.39,1.96s2.63-.7,3.36-1.96c1.12-1.96,1.75-4.94,1.75-8.37s-.67-6.51-1.75-8.37c-.77-1.29-1.92-1.96-3.36-1.96s-2.66,.67-3.39,1.96Z"/></g><g><path class="cls-13" d="M169.82,63.62c.67,1.86,2.07,2.83,4.17,2.83,2.91,0,4.87-2.38,4.87-5.95,0-3.33-1.79-5.53-4.45-5.53-1.86,0-3.22,.77-4.41,2.52l-3.57-.49,2.28-13.96h12.85l-.32,3.67h-9.45l-1.09,6.37c1.47-1.08,2.63-1.47,4.34-1.47,4.83,0,8.12,3.5,8.12,8.72,0,2.62-.88,4.97-2.49,6.83-1.75,1.96-3.82,2.87-6.55,2.87-4.41,0-7.63-2.52-8.26-6.4h3.96Z"/><path class="cls-11" d="M192.47,63.62c.67,1.86,2.07,2.83,4.17,2.83,2.91,0,4.87-2.38,4.87-5.95,0-3.33-1.79-5.53-4.45-5.53-1.86,0-3.22,.77-4.41,2.52l-3.57-.49,2.28-13.96h12.85l-.32,3.67h-9.45l-1.09,6.37c1.47-1.08,2.63-1.47,4.34-1.47,4.83,0,8.12,3.5,8.12,8.72,0,2.62-.88,4.97-2.49,6.83-1.75,1.96-3.82,2.87-6.55,2.87-4.41,0-7.63-2.52-8.26-6.4h3.96Z"/><path class="cls-10" d="M229.04,56.3c0,8.61-3.46,13.76-9.24,13.76s-9.28-5.14-9.28-13.76,3.46-13.76,9.28-13.76,9.24,5.14,9.24,13.76Zm-12.64-8.37c-1.12,1.96-1.72,4.94-1.72,8.37s.6,6.41,1.72,8.37c.73,1.26,1.92,1.96,3.39,1.96s2.63-.7,3.36-1.96c1.12-1.96,1.75-4.94,1.75-8.37s-.67-6.51-1.75-8.37c-.77-1.29-1.92-1.96-3.36-1.96s-2.66,.67-3.39,1.96Z"/></g></g></g><g><path class="cls-6" d="M141.87,112.5c-.49,1.26-.94,2.28-1.46,3.36q-.17,.34-.56,1.03-.07,.14-.18,.35v.08c0,.1-.04,.17-.11,.17t-.17-.11l-.85-.71c.77-1.08,1.56-2.65,2.42-4.76l.91,.59Zm-2.42-3.07c.61,.54,1.02,.96,1.5,1.56l-.94,.76c-.56-.74-.8-1.02-1.38-1.58l.82-.73Zm.72-2.65c.59,.5,.9,.84,1.43,1.51l-.96,.73c-.44-.65-.68-.92-1.31-1.56l.84-.68Zm3.33,2.9c2-.29,3.25-.59,4.76-1.16l.84,.82s.07,.11,.07,.17c0,.08-.06,.13-.17,.13-.05,0-.11,0-.25-.01-.58,.14-1.14,.29-1.72,.43,.07,.58,.14,1.14,.26,1.7,.77-.48,.97-.65,1.44-1.1l.86,.76s.08,.11,.08,.17-.04,.11-.08,.13c-.02,.01-.07,.02-.16,.04q-.1,.01-.17,.02c-.7,.42-1.08,.64-1.74,.96,.12,.39,.25,.75,.41,1.12,.46,1.07,.98,1.76,1.98,2.64-.32,.23-.61,.5-.96,.94-1.09-1.07-1.58-1.8-2.09-3.07-.48-1.2-.72-2.26-.9-4.05-.14,.04-.28,.05-.42,.08v5.01c0,.91,.01,1.68,.04,2.11h-1.24c.02-.47,.04-1.14,.04-2.11v-4.85c-.3,.05-.6,.08-.9,.13v.99c0,1.76-.07,2.4-.37,3.3-.34,1-.79,1.67-1.81,2.66-.25-.42-.36-.56-.74-.98,1.4-1.34,1.79-2.4,1.79-5.06v-3.17c0-.36-.02-.83-.04-1.05l1.02,.29c2.05-.29,3.49-.61,4.83-1.09l.77,.8c.06,.06,.08,.11,.08,.16,0,.1-.06,.14-.18,.14t-.25-.01c-2.54,.64-2.66,.66-5.1,.96v1.07Z"/><path class="cls-6" d="M154.59,116.03c.04-.29,.02-.57,.02-.86v-3.2c0-.35-.01-.77-.02-.97,.42,.03,.78,.03,1.32,.03h3.02c.53,0,.9,0,1.32-.03-.02,.21-.04,.62-.04,.97v.47c0,.4,.01,.66,.04,.86h-1.13v-.24h-3.42v.54h3.66c.54,0,.9,0,1.32-.01-.01,.19-.02,.61-.02,.96v.52c0,.4,0,.66,.02,.86h-1.12v-.29h-3.86v.42h-1.05c.77,.31,1.51,.38,3.26,.38,1.34,0,2.97-.05,3.93-.12-.16,.52-.17,.55-.23,1.19-2.05,.04-2.34,.04-4.04,.04-1.55,0-2.57-.18-3.51-.62-.52-.25-.88-.54-1.2-1.01-.4,.43-.77,.78-1.04,1.02-.08,.07-.22,.19-.37,.35-.06,.19-.11,.26-.18,.26-.06,0-.12-.05-.17-.11l-.65-.9c.64-.41,1.25-.86,1.81-1.37v-2.6h-.48c-.31,0-.84,.01-1.13,.04v-1.16c.28,.02,.78,.02,1.13,.02h.54q.85,0,1.1-.02-.01,.21-.02,1.07v2.76c.25,.29,.52,.47,.94,.66l.25,.11Zm-2.89-9.21c.74,.65,1.13,1.07,1.64,1.78l-.92,.74c-.56-.8-.68-.96-1.49-1.82l.77-.7Zm3.65,2.38v.3h-1.07c.02-.22,.04-.47,.04-.89v-.42c0-.35-.01-.77-.04-.96,.42,.01,.79,.01,1.32,.01h1.14c0-.23,.01-.47-.01-.7l1.16,.07c.14,.01,.22,.06,.22,.13s-.07,.14-.24,.24v.25h1.29c.53,0,.9,0,1.32-.01-.02,.19-.04,.61-.04,.96v.42c0,.4,.01,.65,.04,.87h-1.08v-.28h-1.54v.52h1.99c.55,0,1.39-.01,1.91-.04v1.02c-.52-.01-1.36-.04-1.91-.04h-4.85c-.61,0-1.4,.03-1.91,.04v-1.02c.5,.02,1.3,.04,1.91,.04h1.73v-.52h-1.39Zm1.39-1.22h-1.39v.49h1.39v-.49Zm2.39,4.28v-.44h-3.42v.44h3.42Zm.44,2.15h-3.86v.46h3.86v-.46Zm-.17-5.94v-.49h-1.54v.49h1.54Z"/><path class="cls-6" d="M165.11,112.08h-.86v.22h-1.14c.02-.29,.04-.68,.04-1.28v-.3c0-.38-.01-.84-.04-1.05,.42,.01,.79,.01,1.32,.01h2.55c.53,0,.9,0,1.32-.01-.02,.21-.04,.67-.04,1.05v.3c0,.56,.01,.97,.04,1.25h-1.14v-.18h-.92v.62h1.19c.35,0,.85-.01,1.2-.02v.97c-.35-.01-.85-.02-1.2-.02h-1.19v.55h.83c.35,0,.85-.01,1.19-.03v.97c-.34-.01-.84-.03-1.19-.03h-.83v.68c.85-.12,1.7-.29,2.54-.48v.81c.17-.21,.29-.42,.44-.72,.6-1.14,.84-2.34,.91-4.79h-.22c-.35,0-.85,.01-1.19,.02v-1.15c.32,.02,.85,.04,1.19,.04h.24v-.65c0-1.32-.01-1.51-.04-2.28l1.16,.1c.2,.02,.29,.07,.29,.16,0,.07-.01,.08-.25,.23v2.45h1.46l.14-.17,.75,.62c.06,.05,.08,.11,.08,.17,0,.11,0,.13-.26,.21-.1,5.04-.28,6.31-1.01,6.84-.26,.19-.58,.28-1.15,.31-.33,.02-.58,.01-.83,.02-.06-.53-.07-.6-.24-1.26,.37,.02,.53,.02,.68,.02,.58,0,.72-.06,.89-.35,.32-.57,.46-1.99,.48-5.32h-1.03c-.04,1.46-.13,2.63-.26,3.24-.32,1.54-1.02,2.85-2.01,3.87-.29-.39-.5-.57-.94-.83,.24-.24,.41-.42,.55-.59-1.09,.24-3,.55-5.24,.89-.1,.17-.17,.23-.24,.23-.06,0-.14-.07-.17-.14l-.36-1.05c.83-.07,1.66-.17,2.48-.29v-.84h-.75c-.35,0-.85,.01-1.2,.03v-.97c.35,.01,.85,.03,1.2,.03h.75v-.55h-1.12c-.35,0-.85,.01-1.2,.02v-.97c.35,.01,.85,.02,1.2,.02h1.12v-.62Zm1.06-4.56c0-.42-.01-.77-.04-.92l1.12,.08c.13,0,.2,.05,.2,.12s-.06,.13-.22,.23v.49h.3c.35,0,.86-.01,1.2-.03v.95c-.34-.01-.85-.02-1.2-.02h-.31c0,.4,.01,.76,.02,.96h-1.1c.01-.24,.02-.55,.02-.96h-.95c0,.43,.01,.76,.04,.96h-1.12c.02-.24,.04-.55,.04-.96h-.24c-.35,0-.85,.01-1.2,.02v-.95c.35,.01,.85,.03,1.2,.03h.24c-.01-.42-.02-.77-.04-.92l1.12,.08c.13,0,.2,.05,.2,.12s-.07,.14-.24,.23v.49h.95Zm-1.92,3.02v.67h.86v-.67h-.86Zm2.91,0h-.92v.67h.92v-.67Z"/><path class="cls-6" d="M179.1,107.95c-.26,.3-.53,.59-.82,.85-.23,.21-.47,.41-.71,.61,.11,.13,.22,.26,.31,.39l-.55,.41h1.56l.16-.23,.68,.65c.08,.07,.1,.11,.1,.16,0,.1-.07,.14-.25,.18h-.07c-.11,.26-.16,.37-.43,1.02-.13,.32-.23,.5-.4,.79-.29-.29-.54-.48-.85-.67,.17-.3,.29-.54,.43-.89h-.59v2.83c0,.44,.01,1.28,.02,2.16v.12c0,.59-.1,.85-.41,1.03-.33,.22-.72,.26-1.87,.26-.04-.49-.07-.67-.23-1.22,.4,.04,.59,.05,.88,.05,.41,0,.48-.06,.48-.44v-2.81c-.44,.97-.9,1.74-1.52,2.59-.12-.32-.24-.5-.62-1.01,.78-1,1.45-2.21,1.97-3.56h-.72c-.32,0-.71,0-.96,.01v-1.04c.26,.01,.7,.02,.96,.02h1.24c-.36-.52-.78-.97-1.24-1.4l.68-.61c.22,.18,.42,.35,.62,.54,.26-.22,.52-.44,.75-.68h-1.75c-.32,0-.7,0-.95,.01v-.98c.26,.01,.7,.02,.95,.02h2.63l.16-.19,.71,.66c.08,.08,.1,.11,.1,.17,0,.1-.06,.14-.22,.17l-.23,.04Zm3.42,6.36c-.19,.56-.46,1.04-.82,1.5-.7,.88-1.51,1.4-2.96,1.89-.16-.43-.25-.63-.47-1.01,1.49-.53,2.03-.88,2.63-1.69,.17-.23,.31-.46,.43-.7h-.9c-.35,0-.85,.01-1.19,.02v-1.09c.34,.01,.84,.02,1.19,.02h1.26c.08-.37,.14-.79,.18-1.32l1.07,.19c.13,.02,.19,.07,.19,.14,0,.08-.06,.13-.23,.19-.04,.29-.07,.54-.12,.79h1.85l.17-.22,.68,.71c.1,.1,.11,.11,.11,.16,0,.08-.06,.13-.2,.18l-.12,.05c-.16,1.52-.42,2.48-.79,2.93-.4,.46-.74,.54-2.3,.54h-.12c-.01-.48-.06-.77-.16-1.2,.42,.04,.59,.05,.76,.05,.68,0,.89-.08,1.08-.47,.17-.36,.28-.84,.38-1.68h-1.59Zm1.96-5.42c-.3,.63-.67,1.22-1.13,1.74,.59,.38,1.26,.65,2.55,1.02-.22,.34-.37,.67-.48,1.02-1.34-.4-2.06-.73-2.83-1.33-.77,.64-1.39,.94-2.83,1.43-.17-.46-.28-.67-.5-.96,1.2-.4,1.86-.7,2.52-1.18-.34-.36-.59-.78-.8-1.22-.23,.37-.46,.68-.74,1.04-.07-.08-.13-.16-.17-.19q-.24-.28-.6-.58c.88-1.07,1.26-1.78,1.75-3.18l.92,.37c.17,.06,.19,.08,.19,.16,0,.08-.04,.11-.24,.18-.11,.24-.2,.46-.3,.65h2.88c.26,0,.7,0,.96-.01v1.06c-.25-.01-.64-.01-.96-.01h-.19Zm-2.75,0c.22,.39,.47,.78,.8,1.1,.31-.32,.55-.71,.76-1.1h-1.56Z"/><path class="cls-6" d="M195.33,108.26l1.03,.84c.08,.07,.12,.12,.12,.19,0,.08-.08,.16-.3,.22-.48,1.68-1.1,2.95-1.98,3.99-1.15,1.38-2.45,2.28-4.8,3.36-.25-.56-.47-.85-.86-1.14,2.39-1,3.61-1.81,4.69-3.13,.68-.81,1.32-2.03,1.54-2.9l-3.01,.22c-1.62,.1-2.81,.17-3.39,.24l-.13-1.34h.35c.22,.01,.48,0,.98-.03,.3-.01,.65-.04,1.02-.05,.55-.02,.94-.04,1.15-.05l3.39-.19,.2-.23Z"/><path class="cls-6" d="M203.23,109.58c.07,.01,.14,.07,.14,.13,0,.07-.06,.13-.22,.22-.22,2.09-.42,2.87-.98,3.77-.61,.98-1.26,1.57-2.73,2.47-.16-.42-.41-.78-.79-1.15,1.17-.68,1.67-1.08,2.18-1.75,.68-.91,.98-2.09,.98-3.77v-.06l1.42,.14Zm.83,5.22c.11-.38,.13-.86,.13-2.23v-2.1c0-.92-.01-1.44-.04-1.8l1.38,.08c.14,.01,.22,.05,.22,.13,0,.06-.06,.12-.23,.23q-.01,.19-.02,1.36v3.39c1.7-.83,2.64-1.51,4.04-2.95,.22,.62,.3,.83,.49,1.28-1.61,1.49-2.65,2.18-4.64,3.14-.06,.16-.12,.23-.19,.23-.05,0-.12-.02-.18-.07l-.96-.7Z"/><path class="cls-6" d="M215.17,107.81c.13,0,.2,.05,.2,.12s-.05,.12-.23,.24q0,.35-.01,1.36v2.29c0,.84,.01,1.37,.02,1.75h-1.4c.02-.41,.04-.96,.04-1.75v-2.29c0-.95-.01-1.46-.04-1.8l1.42,.08Zm3.55,3.67c0,2.54-.37,3.65-1.6,4.67-.68,.56-1.27,.89-2.57,1.41-.22-.62-.4-.9-.77-1.17,1.03-.35,1.81-.74,2.36-1.2,.9-.74,1.21-1.67,1.21-3.59v-2.34c0-.91-.01-1.46-.04-1.8l1.42,.08c.13,.01,.2,.05,.2,.13,0,.06-.05,.12-.2,.23q-.02,.35-.02,1.36v2.22Z"/><path class="cls-6" d="M228.06,114.7c0,.41,.11,.46,.94,.46,1.01,0,1.73-.04,2.87-.16v1.24c-1.03,.11-1.69,.14-3.17,.14-1.61,0-1.89-.23-1.89-1.5v-2.03l-2.15,.05c-.52,.01-1.19,.05-1.68,.07v-1.25q.18,.01,.34,.01c.3,0,1.06,0,1.33-.01l2.16-.05v-1.01c0-.38,0-.49-.01-.78l1.27,.08c.14,.01,.23,.05,.23,.12s-.06,.14-.23,.24v1.32l3.14-.07c.49-.01,1.21-.05,1.68-.08v1.25s-1.65,0-1.65,0l-3.17,.08v1.87Zm3.13-5.1c-.12-.01-.19-.01-.22-.01-.12,0-.54,0-1.22,.01l-3.92,.08c-.36,.01-.97,.04-1.44,.06v-1.24c.41,.01,1.16,.01,1.42,0l3.93-.1c.62-.01,1.03-.02,1.43-.06l.02,1.25Z"/><path class="cls-6" d="M244.89,112.73c-.56-.01-1.51-.04-2.15-.04h-5.02c-.59,0-1.63,.02-2.15,.04v-1.28c.49,.01,1.54,.04,2.15,.04h5.02c.66,0,1.61-.01,2.15-.04v1.28Z"/><path class="cls-6" d="M252.01,110.66c1.61,.59,2.57,1.07,3.75,1.84l-.75,1.14c-.92-.7-1.85-1.21-3-1.68v2.55c0,1.13,.01,1.83,.02,2.45h-1.43c.07-.59,.11-1.37,.11-2.45v-4.8c0-1.37-.01-2.12-.05-2.49l1.4,.08c.12,0,.19,.05,.19,.12s-.07,.14-.23,.23c-.02,.79-.02,.94-.02,2.06v.95Z"/><path class="cls-6" d="M179.01,129.93c-.34,1.61-.68,2.66-1.29,3.78-.68,1.3-1.37,2.1-2.62,3.12-.18-.32-.44-.67-.68-.92,1.14-.95,1.73-1.64,2.36-2.82,.05-.08,.08-.16,.12-.23-.36-.37-.73-.71-1.14-1.03-.22,.36-.47,.7-.79,1.08-.14-.3-.23-.44-.31-.58l-.29-.43c.53-.74,.96-1.54,1.26-2.4,.24-.67,.4-1.37,.52-2.06h-.28c-.35,0-.85,.01-1.2,.02v-1.15c.35,.01,.85,.02,1.2,.02h2.71c.35,0,.85-.01,1.19-.02v1.15c-.34-.01-.84-.02-1.19-.02h-1.28c-.1,.53-.22,1.07-.35,1.58h1.46l.13-.17,.71,.67c.08,.08,.11,.11,.11,.17,0,.07-.06,.12-.2,.18l-.14,.06Zm-2.4,.13c-.05,.11-.08,.21-.13,.32-.08,.2-.16,.38-.24,.55,.38,.28,.79,.54,1.14,.85,.22-.56,.36-1.14,.49-1.73h-1.26Zm5.7-1.14c.01,.23,.02,.46,.04,.67l1.44-.14c.89-.11,1.37-.16,1.42-.17l.08,1.15c-.92,.07-1.18,.1-1.43,.12l-1.4,.14c0,.1,.01,.18,.02,.26,.02,.16,.05,.31,.07,.46l1.74-.14c.49-.05,1.07-.12,1.43-.17l.08,1.15c-.49,.04-1.03,.08-1.43,.12l-1.6,.14c.1,.32,.2,.65,.32,.96,.42-.29,.83-.62,1.24-1l.79,.59c.14,.11,.18,.14,.18,.22,0,.1-.08,.14-.24,.14h-.17c-.44,.38-.88,.72-1.32,1.03,.13,.22,.28,.41,.43,.59,.26,.3,.52,.48,.67,.48,.22,0,.31-.25,.54-1.38q.32,.25,.91,.53c-.22,1-.25,1.13-.43,1.55-.19,.43-.43,.61-.79,.61-.82,0-1.63-.63-2.31-1.76-1.42,.79-3.03,1.33-5.37,1.83-.13-.49-.22-.76-.38-1.07,2.3-.48,3.91-.98,5.26-1.74-.19-.48-.36-.97-.48-1.49l-1.31,.12c-.62,.06-.97,.1-1.43,.16l-.08-1.16,1.44-.11,1.16-.1c-.05-.24-.07-.48-.11-.71l-.26,.02c-.22,.02-1.03,.12-1.43,.17l-.07-1.15c.84-.07,1.32-.11,1.43-.12l.24-.02c-.01-.23-.04-.46-.05-.68l-.53,.05-1.42,.16-.11-1.16c.72-.04,.82-.04,1.44-.1l.58-.05v-.91c-.01-.58-.04-1.05-.07-1.25l1.28,.13c.13,.01,.19,.06,.19,.13,0,.08-.06,.16-.24,.24-.01,.31-.01,.65-.01,1.51v.04l1.75-.15c.28-.03,.78-.08,1.43-.17l.1,1.14c-.7,.06-1.17,.11-1.44,.13l-1.8,.15Zm1.02-3.03c.38,.29,.78,.68,1.15,1.13l-.76,.62c-.32-.44-.53-.67-1.03-1.17l.64-.58Z"/><path class="cls-6" d="M192.74,134.73c0,.91,.01,1.68,.04,2.11h-1.17c.02-.47,.04-1.14,.04-2.11v-.63c-.7,.61-1.15,.92-1.92,1.34-.91,.49-1.54,.74-2.75,1.12-.2-.54-.23-.6-.5-1.06,1.81-.48,3.07-1.03,4.14-1.8h-1.52c-.62,0-1.4,.01-1.91,.04v-1.02c.5,.02,1.28,.04,1.91,.04h2.55v-.59h-1.54c-.61,0-1.4,.01-1.91,.04v-1.01c.5,.01,1.29,.04,1.91,.04h1.54v-.56h-2.12c-.62,0-1.42,.02-1.92,.05v-1.02c.5,.03,1.29,.04,1.92,.04h.73c-.14-.36-.32-.7-.53-1.02h-.49c-.66,0-1.74,.01-2.39,.04v-1.09c.54,.03,1.42,.04,2.09,.04-.24-.4-.42-.62-.88-1.13l.82-.64c.67,.64,.84,.83,1.28,1.55l-.34,.22h.89v-1.94s1.12,.08,1.12,.08c.14,.01,.23,.05,.23,.12s-.07,.14-.24,.24v1.5h.88v-1.18c0-.32,0-.59-.01-.77l1.14,.08c.13,.01,.22,.05,.22,.12s-.07,.14-.24,.24v1.5h.48c.37-.74,.49-1.09,.65-1.73l1.16,.42c.07,.02,.13,.08,.13,.13,0,.08-.04,.11-.28,.19q-.07,.14-.36,.73c-.04,.07-.08,.16-.14,.25,.73,0,1.64-.01,2.21-.04v1.09c-.64-.02-1.66-.04-2.39-.04h-.78c.16,.05,.19,.11,.19,.16,0,.07-.06,.11-.26,.17q-.08,.15-.36,.7h.94c.55,0,1.39-.01,1.91-.04v1.02c-.52-.02-1.35-.05-1.91-.05h-2.23v.56h1.63c.55,0,1.4-.02,1.92-.04v1.01c-.52-.03-1.37-.04-1.92-.04h-1.63v.59h2.7c.55,0,1.39-.01,1.91-.04v1.02c-.52-.03-1.35-.04-1.91-.04h-1.78c1.1,.78,2.34,1.26,4.25,1.68-.28,.44-.34,.58-.54,1.09-1.2-.3-2.03-.62-3.03-1.16-.64-.36-1-.61-1.6-1.18v.6Zm.18-5c.16-.34,.31-.67,.42-1.02h-2.43c.23,.31,.41,.66,.55,1.02h1.46Z"/><path class="cls-6" d="M204.07,126.28c.1,.04,.16,.08,.16,.16,0,.08-.06,.13-.24,.22-.29,.78-.43,1.19-.52,1.37,.59-.14,1.03-.31,1.45-.53l.49,1.07c-.84,.37-1.43,.54-2.38,.7-.22,.59-.59,1.5-1.02,2.44-.42,.92-.7,1.44-1.19,2.24-.24,.41-.42,.7-.53,.88-.44-.38-.64-.5-1.09-.68,.97-1.32,1.85-2.96,2.55-4.79-.25,.04-.46,.05-.84,.05-.34,0-.6-.01-1.18-.05l-.02-1.22c.58,.08,.95,.11,1.45,.11,.34,0,.54-.01,1-.05,.35-1.02,.58-1.85,.62-2.28l1.27,.38Zm2.61,4.71c-.37,.25-.47,.39-.47,.75,0,.25,.01,.41,.08,.97,.04,.25,.05,.32,.08,.7q.01,.14,.02,.24c.75,.3,1.55,.78,2.66,1.62-.35,.29-.55,.5-.85,.95-.66-.61-.72-.66-1.79-1.32-.11,1.19-.8,1.74-2.23,1.74-1.31,0-2.16-.66-2.16-1.69s.88-1.76,2.16-1.76c.38,0,.64,.04,.98,.13-.04-.29-.04-.37-.07-.68-.04-.28-.06-.78-.06-.92,0-.66,.23-1.04,.88-1.49l.76,.77Zm-2.57,3.24c-.55,0-.94,.28-.94,.68s.36,.63,1.06,.63c.43,0,.74-.12,.88-.34,.1-.14,.13-.4,.13-.79-.43-.14-.77-.19-1.13-.19Zm1.91-5.51c1.35,.25,2.01,.49,3.17,1.19l-.64,1.08c-1.03-.71-1.73-1.01-2.87-1.22l.34-1.04Z"/><path class="cls-6" d="M214.57,126.78c.13,0,.23,.07,.23,.17,0,.08-.05,.13-.2,.24-.05,.98-.18,5.79-.18,6.42,0,1,.36,1.36,1.37,1.36,.71,0,1.39-.2,2.11-.62,.88-.5,1.37-.96,2.22-2.09,.19,.45,.31,.61,.78,1.15-.92,1.09-1.46,1.56-2.33,2.06-.94,.53-1.93,.8-2.93,.8s-1.69-.29-2.09-.81c-.3-.4-.44-.97-.44-1.8,0-.32,.01-.6,.07-2.13,.04-1.06,.06-2.24,.06-3.44,0-.54-.01-.97-.04-1.39l1.37,.1Z"/></g><g><path class="cls-6" d="M29.61,137.31c-.34,1.61-.68,2.66-1.29,3.78-.68,1.29-1.37,2.1-2.62,3.12-.18-.32-.44-.67-.68-.92,1.14-.95,1.73-1.64,2.36-2.82,.05-.08,.08-.16,.12-.23-.36-.37-.73-.71-1.14-1.03-.22,.36-.47,.7-.79,1.08-.14-.3-.23-.45-.31-.58l-.29-.43c.53-.74,.96-1.54,1.26-2.4,.24-.67,.4-1.37,.52-2.06h-.28c-.35,0-.85,.01-1.2,.03v-1.15c.35,.01,.85,.03,1.2,.03h2.71c.35,0,.85-.01,1.19-.03v1.15c-.34-.01-.84-.03-1.19-.03h-1.28c-.1,.53-.22,1.07-.35,1.58h1.46l.13-.17,.71,.67c.08,.08,.11,.11,.11,.17,0,.07-.06,.12-.2,.18l-.14,.06Zm-2.4,.13c-.05,.11-.08,.22-.13,.32-.08,.2-.16,.38-.24,.55,.38,.28,.79,.54,1.14,.85,.22-.56,.36-1.14,.49-1.73h-1.26Zm5.7-1.14c.01,.23,.02,.46,.04,.67l1.44-.14c.89-.11,1.37-.16,1.42-.17l.08,1.15c-.92,.07-1.18,.1-1.43,.12l-1.4,.14c0,.1,.01,.18,.02,.26,.02,.16,.05,.31,.07,.46l1.74-.14c.49-.05,1.07-.12,1.43-.17l.08,1.15c-.49,.04-1.03,.08-1.43,.12l-1.6,.14c.1,.32,.2,.65,.32,.96,.42-.29,.83-.62,1.24-.99l.79,.59c.14,.11,.18,.14,.18,.21,0,.1-.08,.14-.24,.14h-.17c-.44,.38-.88,.72-1.32,1.03,.13,.21,.28,.41,.43,.59,.26,.3,.52,.48,.67,.48,.22,0,.31-.25,.54-1.38q.32,.25,.91,.53c-.22,1-.25,1.13-.43,1.55-.19,.43-.43,.61-.79,.61-.82,0-1.63-.64-2.31-1.76-1.42,.79-3.03,1.33-5.37,1.84-.13-.49-.22-.76-.38-1.07,2.3-.48,3.91-.98,5.27-1.74-.19-.48-.36-.97-.48-1.49l-1.31,.12c-.62,.06-.97,.1-1.43,.15l-.08-1.16,1.44-.11,1.16-.1c-.05-.24-.07-.48-.11-.71l-.26,.02c-.22,.03-1.03,.12-1.43,.17l-.07-1.15c.84-.07,1.32-.11,1.43-.12l.24-.02c-.01-.23-.04-.46-.05-.68l-.53,.05-1.42,.16-.11-1.16c.72-.04,.82-.04,1.44-.1l.58-.05v-.91c-.01-.58-.04-1.06-.07-1.25l1.28,.13c.13,.01,.19,.06,.19,.13,0,.08-.06,.16-.24,.24-.01,.31-.01,.65-.01,1.51v.04l1.75-.16c.28-.02,.78-.08,1.43-.17l.1,1.14c-.7,.06-1.17,.11-1.44,.13l-1.8,.16Zm1.02-3.04c.38,.29,.78,.68,1.15,1.13l-.76,.62c-.32-.44-.53-.67-1.03-1.18l.64-.58Z"/><path class="cls-6" d="M43.33,142.1c0,.91,.01,1.68,.04,2.11h-1.17c.02-.47,.04-1.14,.04-2.11v-.64c-.7,.61-1.15,.92-1.92,1.34-.91,.49-1.54,.74-2.75,1.12-.2-.54-.23-.6-.5-1.05,1.81-.48,3.07-1.03,4.14-1.8h-1.52c-.62,0-1.4,.01-1.91,.04v-1.02c.5,.03,1.28,.04,1.91,.04h2.55v-.59h-1.54c-.61,0-1.4,.01-1.91,.04v-1.01c.5,.01,1.29,.04,1.91,.04h1.54v-.56h-2.12c-.62,0-1.42,.03-1.92,.05v-1.02c.5,.02,1.29,.04,1.92,.04h.73c-.14-.36-.32-.7-.53-1.02h-.49c-.66,0-1.74,.01-2.39,.04v-1.09c.54,.02,1.42,.04,2.09,.04-.24-.39-.42-.62-.88-1.13l.82-.63c.67,.63,.84,.83,1.28,1.55l-.34,.21h.89v-1.94s1.12,.08,1.12,.08c.14,.01,.23,.05,.23,.12s-.07,.14-.24,.24v1.5h.88v-1.17c0-.32,0-.59-.01-.77l1.14,.08c.13,.01,.22,.05,.22,.12s-.07,.14-.24,.24v1.5h.48c.37-.74,.49-1.09,.65-1.73l1.16,.42c.07,.02,.13,.08,.13,.13,0,.08-.04,.11-.28,.19q-.07,.14-.36,.73c-.04,.07-.08,.16-.14,.25,.73,0,1.64-.01,2.21-.04v1.09c-.64-.03-1.66-.04-2.39-.04h-.78c.16,.05,.19,.11,.19,.16,0,.07-.06,.11-.26,.17q-.08,.16-.36,.7h.94c.55,0,1.39-.01,1.91-.04v1.02c-.52-.02-1.35-.05-1.91-.05h-2.23v.56h1.63c.55,0,1.4-.02,1.92-.04v1.01c-.52-.02-1.37-.04-1.92-.04h-1.63v.59h2.7c.55,0,1.39-.01,1.91-.04v1.02c-.52-.02-1.35-.04-1.91-.04h-1.78c1.1,.78,2.34,1.26,4.25,1.68-.28,.44-.34,.57-.54,1.09-1.2-.3-2.03-.62-3.03-1.16-.64-.36-1-.61-1.6-1.18v.6Zm.18-5c.16-.34,.31-.67,.42-1.02h-2.44c.23,.31,.41,.66,.55,1.02h1.46Z"/><path class="cls-6" d="M52.96,140c-.1,.96-.29,1.52-.66,2.11-.54,.88-1.2,1.47-2.35,2.15-.36-.67-.4-.73-.73-1.05,1.12-.61,1.73-1.19,2.12-1.99,.37-.76,.49-1.66,.49-3.62v-1.91c0-.71-.01-1.52-.04-1.91,.41,.01,.78,.03,1.37,.03h3.67c.59,0,1-.01,1.4-.03q-.02,.38-.04,1.91v4.98c0,.44,0,.86,.01,2.09v.14c0,.55-.1,.83-.4,1.02-.32,.21-.73,.26-1.74,.26h-.36c-.04-.55-.05-.68-.2-1.34,.48,.04,.75,.04,1.08,.04,.38,0,.44-.06,.44-.49v-2.38h-4.08Zm4.08-2.55h-3.99v.11c0,.44,0,.9-.01,1.34h4.01v-1.45Zm0-2.55h-3.99v1.45h3.99v-1.45Z"/><path class="cls-6" d="M65.09,136.23c.07-1.47,1.09-2.33,2.79-2.33,.84,0,1.49,.21,1.94,.66,.43,.42,.7,1.06,.7,1.7,0,.96-.47,1.62-1.44,2.03,1.12,.35,1.64,1.06,1.64,2.21,0,.89-.37,1.7-1.02,2.22-.53,.41-1.2,.61-2.05,.61-1.85,0-2.94-.89-2.95-2.43h1.27c.02,.78,.61,1.21,1.68,1.21s1.66-.59,1.66-1.58c0-.67-.32-1.16-.91-1.39-.26-.1-.76-.16-1.31-.16h-.29s0-1.16,0-1.16c.17,.01,.24,.01,.35,.01,1.26,0,1.94-.52,1.94-1.45,0-.77-.52-1.26-1.35-1.26s-1.37,.42-1.44,1.12h-1.21Z"/><path class="cls-6" d="M78.65,138.63c0,2.95-1.19,4.71-3.17,4.71s-3.18-1.76-3.18-4.71,1.19-4.71,3.18-4.71,3.17,1.76,3.17,4.71Zm-4.33-2.87c-.38,.67-.59,1.69-.59,2.87s.2,2.2,.59,2.87c.25,.43,.66,.67,1.16,.67s.9-.24,1.15-.67c.38-.67,.6-1.69,.6-2.87s-.23-2.23-.6-2.87c-.26-.45-.66-.67-1.15-.67s-.91,.23-1.16,.67Z"/><path class="cls-6" d="M84.21,142.85h-1.14c.02-.46,.04-1.15,.04-2.11v-4.76q-.01-1.52-.04-1.91c.23,.01,.43,.01,.71,.01h1.83c.29,0,.49,0,.71-.01-.01,.38-.04,1.19-.04,1.91v4.17c0,1.01,.01,1.65,.04,2.11h-1.13v-.55h-.98v1.14Zm.98-5.55v-2.13h-.98v2.13h.98Zm-.98,3.35h.98v-2.27h-.98v2.27Zm5.41-4.99h-1.25c-.35,0-.85,0-1.19,.03v-1.15c.34,.01,.84,.02,1.19,.02h1.25c0-.76-.01-1.17-.04-1.49l1.21,.08c.13,0,.22,.05,.22,.12s-.07,.13-.23,.24c-.01,.24-.01,.5-.01,1.04h1.33c.36,0,.86-.01,1.2-.02v1.15c-.34-.03-.84-.03-1.2-.03h-1.33v1.08h1.56c.48,0,1.26-.01,1.68-.04v1.16c-.44-.01-1.22-.02-1.68-.02h-3.99c-.52,0-1.19,.01-1.68,.02v-1.16c.46,.02,1.14,.04,1.68,.04h1.28v-1.08Zm2.78,5.89c0,.22,.02,.85,.04,1.27v.18c0,.52-.12,.82-.42,1.03-.33,.23-.74,.3-1.67,.3h-.22c-.02-.4-.07-.62-.23-1.26,.35,.02,.54,.04,.83,.04,.47,0,.52-.05,.52-.49v-2.39h-2.77c-.5,0-1.17,.01-1.67,.04v-1.16c.46,.01,1.14,.04,1.67,.04h2.76c-.01-.54-.04-1-.07-1.13l1.31,.08c.11,.01,.18,.06,.18,.12,0,.07-.06,.14-.22,.23-.02,.18-.02,.23-.02,.7,.48,0,1.14-.02,1.52-.04v1.16c-.4-.02-1.07-.04-1.54-.04v1.32Zm-3.61-1.14c.73,.54,1.17,.95,1.73,1.62l-.9,.8c-.54-.71-.94-1.13-1.56-1.64l.73-.78Z"/><path class="cls-6" d="M96.3,141.41c0,1.27,.01,2.21,.05,2.81h-1.15c.02-.68,.04-1.57,.04-2.81v-6.88c0-.38-.01-.85-.04-1.07,.36,.02,.71,.02,1.21,.02h2.03c.55,0,.94,0,1.33-.02-.02,.21-.04,.68-.04,1.07v1.94c0,.56,.01,.97,.04,1.25h-1.09v-.37h-2.37v4.07Zm2.37-7h-2.37v.59h2.37v-.59Zm0,1.43h-2.37v.59h2.37v-.59Zm.43,7.46h-1.12c.02-.29,.02-.68,.02-1.28v-2.7c0-.38-.01-.85-.02-1.07,.26,.01,.52,.02,.86,.02h3.06c.35,0,.6-.01,.86-.02-.01,.21-.04,.68-.04,1.07v2.53c0,.56,.01,.97,.04,1.25h-1.12v-.49h-2.55v.7Zm2.55-4.02h-2.55v.66h2.55v-.66Zm0,1.67h-2.55v.65h2.55v-.65Zm.38-3.23h-1.08c.02-.28,.04-.68,.04-1.25v-1.94c0-.38-.01-.85-.04-1.07,.38,.02,.77,.02,1.32,.02h2.04c.5,0,.84,0,1.2-.02-.01,.21-.04,.68-.04,1.07v6.07c0,.46,.01,1.15,.02,2.11,0,.02,.01,.05,.01,.13,0,.6-.11,.88-.41,1.07-.34,.2-.71,.26-1.8,.26h-.05c-.02-.42-.07-.72-.23-1.27,.4,.04,.59,.05,.91,.05,.42,0,.48-.06,.48-.47v-5.13h-2.39v.37Zm2.39-3.31h-2.39v.59h2.39v-.59Zm0,1.43h-2.39v.59h2.39v-.59Z"/></g><rect class="cls-1" x="295.88" y="1.98" width="100.23" height="150.65"/></g></g></svg>