<?xml version="1.0" encoding="UTF-8"?><svg id="_レイヤー_2" xmlns="http://www.w3.org/2000/svg" xmlns:xlink="http://www.w3.org/1999/xlink" viewBox="0 0 30.17 60.98"><defs><style>.cls-1{stroke:url(#_新規グラデーションスウォッチ_1);}.cls-1,.cls-2,.cls-3,.cls-4,.cls-5{fill:none;stroke-linecap:round;stroke-linejoin:round;stroke-width:1.8px;}.cls-2{stroke:url(#_新規グラデーションスウォッチ_1-3);}.cls-3{stroke:url(#_新規グラデーションスウォッチ_1-4);}.cls-4{stroke:url(#_新規グラデーションスウォッチ_1-2);}.cls-5{stroke:url(#_新規グラデーションスウォッチ_1-5);}</style><linearGradient id="_新規グラデーションスウォッチ_1" x1="9.03" y1="6.07" x2="21.17" y2="6.07" gradientUnits="userSpaceOnUse"><stop offset="0" stop-color="#0d76a3"/><stop offset="0" stop-color="#0d74a2"/><stop offset=".18" stop-color="#10548a"/><stop offset=".37" stop-color="#133b78"/><stop offset=".56" stop-color="#152a6b"/><stop offset=".76" stop-color="#161f63"/><stop offset="1" stop-color="#171c61"/></linearGradient><linearGradient id="_新規グラデーションスウォッチ_1-2" x1="7.26" y1="31.36" x2="10.14" y2="31.36" xlink:href="#_新規グラデーションスウォッチ_1"/><linearGradient id="_新規グラデーションスウォッチ_1-3" x1="1.65" y1="25.7" x2="28.56" y2="25.7" xlink:href="#_新規グラデーションスウォッチ_1"/><linearGradient id="_新規グラデーションスウォッチ_1-4" x1="20.06" y1="31.36" x2="22.95" y2="31.36" xlink:href="#_新規グラデーションスウォッチ_1"/><linearGradient id="_新規グラデーションスウォッチ_1-5" x1="0" y1="46.55" x2="30.17" y2="46.55" xlink:href="#_新規グラデーションスウォッチ_1"/></defs><g id="_レイヤー_1-2"><g><g><g><path class="cls-1" d="M15.1,11.24c2.85,0,5.17-2.32,5.17-5.17S17.95,.9,15.1,.9s-5.17,2.32-5.17,5.17,2.32,5.17,5.17,5.17Z"/><line class="cls-4" x1="9.24" y1="38.7" x2="8.16" y2="24.02"/></g><path class="cls-2" d="M26.58,35.49l1.08-14.24c0-2.87-2.27-5.27-5.07-5.33H7.62c-2.8,.07-5.07,2.46-5.07,5.33l1.08,14.24"/><line class="cls-3" x1="20.96" y1="38.7" x2="22.05" y2="24.02"/></g><path class="cls-5" d="M15.08,54.27l-7.74,5.65c-.67,.49-1.57-.17-1.31-.95l2.98-9.11-7.76-5.61c-.67-.48-.33-1.54,.5-1.54l9.58,.02,2.94-9.12c.25-.79,1.36-.79,1.62,0l2.94,9.12,9.58-.02c.82,0,1.17,1.05,.5,1.54l-7.76,5.61,2.98,9.11c.26,.78-.64,1.44-1.31,.95l-7.74-5.65Z"/></g></g></svg>