<?xml version="1.0" encoding="UTF-8"?>
<svg id="_レイヤー_2" data-name="レイヤー 2" xmlns="http://www.w3.org/2000/svg" xmlns:xlink="http://www.w3.org/1999/xlink" viewBox="0 0 538.47 554.11">
  <defs>
    <style>
      .cls-1 {
        fill: url(#_新規グラデーションスウォッチ_1-11);
      }

      .cls-1, .cls-2, .cls-3, .cls-4, .cls-5, .cls-6, .cls-7, .cls-8, .cls-9, .cls-10, .cls-11, .cls-12, .cls-13, .cls-14, .cls-15, .cls-16, .cls-17 {
        stroke-width: 0px;
      }

      .cls-2 {
        fill: url(#_新規グラデーションスウォッチ_1-13);
      }

      .cls-3 {
        fill: url(#_新規グラデーションスウォッチ_1-10);
      }

      .cls-4 {
        fill: url(#_新規グラデーションスウォッチ_1-12);
      }

      .cls-5 {
        fill: url(#_新規グラデーションスウォッチ_1);
      }

      .cls-6 {
        fill: url(#_新規グラデーションスウォッチ_6);
      }

      .cls-18 {
        letter-spacing: .25em;
      }

      .cls-7 {
        fill: url(#_新規グラデーションスウォッチ_6-2);
      }

      .cls-8 {
        fill: url(#_新規グラデーションスウォッチ_1-9);
      }

      .cls-9 {
        fill: url(#_新規グラデーションスウォッチ_1-2);
      }

      .cls-10 {
        fill: url(#_新規グラデーションスウォッチ_1-4);
      }

      .cls-11 {
        fill: url(#_新規グラデーションスウォッチ_1-3);
      }

      .cls-12 {
        fill: url(#_新規グラデーションスウォッチ_1-8);
      }

      .cls-13 {
        fill: url(#_新規グラデーションスウォッチ_1-7);
      }

      .cls-14 {
        fill: url(#_新規グラデーションスウォッチ_1-5);
      }

      .cls-15 {
        fill: url(#_新規グラデーションスウォッチ_1-6);
      }

      .cls-16 {
        fill: url(#_名称未設定グラデーション_7);
      }

      .cls-19 {
        fill: #fff;
        font-size: 20px;
      }

      .cls-19, .cls-20 {
        font-family: DNPShueiGoGinStd-B-83pv-RKSJ-H, 'DNP ShueiGoGinStd';
      }

      .cls-21 {
        letter-spacing: -.5em;
      }

      .cls-20 {
        fill: #333;
        font-size: 17px;
      }

      .cls-17 {
        fill: #d3d3d3;
      }
    </style>
    <linearGradient id="_新規グラデーションスウォッチ_1" data-name="新規グラデーションスウォッチ 1" x1="199.47" y1="349.23" x2="339.01" y2="349.23" gradientUnits="userSpaceOnUse">
      <stop offset="0" stop-color="#0d7695"/>
      <stop offset="0" stop-color="#0d7494"/>
      <stop offset=".18" stop-color="#105481"/>
      <stop offset=".37" stop-color="#133b73"/>
      <stop offset=".56" stop-color="#152a69"/>
      <stop offset=".76" stop-color="#161f62"/>
      <stop offset="1" stop-color="#171c61"/>
    </linearGradient>
    <linearGradient id="_新規グラデーションスウォッチ_1-2" data-name="新規グラデーションスウォッチ 1" x1="33.91" y1="227.83" x2="504.57" y2="227.83" xlink:href="#_新規グラデーションスウォッチ_1"/>
    <linearGradient id="_新規グラデーションスウォッチ_1-3" data-name="新規グラデーションスウォッチ 1" x1="263.21" y1="129.78" x2="278.72" y2="129.78" xlink:href="#_新規グラデーションスウォッチ_1"/>
    <linearGradient id="_新規グラデーションスウォッチ_1-4" data-name="新規グラデーションスウォッチ 1" x1="237.31" y1="172.39" x2="298.44" y2="172.39" xlink:href="#_新規グラデーションスウォッチ_1"/>
    <linearGradient id="_新規グラデーションスウォッチ_1-5" data-name="新規グラデーションスウォッチ 1" x1="213.34" y1="64.2" x2="308.52" y2="64.2" xlink:href="#_新規グラデーションスウォッチ_1"/>
    <linearGradient id="_新規グラデーションスウォッチ_1-6" data-name="新規グラデーションスウォッチ 1" x1="213.34" y1="64.2" x2="308.52" y2="64.2" xlink:href="#_新規グラデーションスウォッチ_1"/>
    <linearGradient id="_新規グラデーションスウォッチ_1-7" data-name="新規グラデーションスウォッチ 1" x1="213.34" y1="64.2" x2="308.52" y2="64.2" xlink:href="#_新規グラデーションスウォッチ_1"/>
    <linearGradient id="_新規グラデーションスウォッチ_1-8" data-name="新規グラデーションスウォッチ 1" x1="213.34" y1="64.2" x2="308.52" y2="64.2" xlink:href="#_新規グラデーションスウォッチ_1"/>
    <linearGradient id="_新規グラデーションスウォッチ_1-9" data-name="新規グラデーションスウォッチ 1" x1="213.34" y1="64.2" x2="308.52" y2="64.2" xlink:href="#_新規グラデーションスウォッチ_1"/>
    <linearGradient id="_新規グラデーションスウォッチ_1-10" data-name="新規グラデーションスウォッチ 1" x1="213.34" y1="64.2" x2="308.52" y2="64.2" xlink:href="#_新規グラデーションスウォッチ_1"/>
    <linearGradient id="_新規グラデーションスウォッチ_1-11" data-name="新規グラデーションスウォッチ 1" x1="213.34" y1="64.2" x2="308.52" y2="64.2" xlink:href="#_新規グラデーションスウォッチ_1"/>
    <linearGradient id="_新規グラデーションスウォッチ_1-12" data-name="新規グラデーションスウォッチ 1" x1="213.34" y1="64.2" x2="308.52" y2="64.2" xlink:href="#_新規グラデーションスウォッチ_1"/>
    <linearGradient id="_新規グラデーションスウォッチ_1-13" data-name="新規グラデーションスウォッチ 1" x1="213.34" y1="64.2" x2="308.52" y2="64.2" xlink:href="#_新規グラデーションスウォッチ_1"/>
    <linearGradient id="_新規グラデーションスウォッチ_6" data-name="新規グラデーションスウォッチ 6" x1="360.12" y1="105.4" x2="489.76" y2="105.4" gradientUnits="userSpaceOnUse">
      <stop offset="0" stop-color="#0d76a6"/>
      <stop offset="0" stop-color="#0d74a5"/>
      <stop offset=".18" stop-color="#10548c"/>
      <stop offset=".37" stop-color="#133b79"/>
      <stop offset=".56" stop-color="#152a6b"/>
      <stop offset=".76" stop-color="#161f63"/>
      <stop offset="1" stop-color="#171c61"/>
    </linearGradient>
    <linearGradient id="_新規グラデーションスウォッチ_6-2" data-name="新規グラデーションスウォッチ 6" x1="63.02" y1="191.93" x2="164.74" y2="191.93" xlink:href="#_新規グラデーションスウォッチ_6"/>
    <linearGradient id="_名称未設定グラデーション_7" data-name="名称未設定グラデーション 7" x1="238.91" y1="-173.91" x2="457.33" y2="-173.91" gradientTransform="translate(-81.12 302.19) rotate(-3.82)" gradientUnits="userSpaceOnUse">
      <stop offset=".47" stop-color="#0d76a6"/>
      <stop offset=".48" stop-color="#0d74a5"/>
      <stop offset=".57" stop-color="#10548c"/>
      <stop offset=".67" stop-color="#133b79"/>
      <stop offset=".77" stop-color="#152a6b"/>
      <stop offset=".88" stop-color="#161f63"/>
      <stop offset="1" stop-color="#171c61"/>
    </linearGradient>
  </defs>
  <g id="_レイヤー_1-2" data-name="レイヤー 1">
    <g>
      <rect class="cls-17" width="538.47" height="554.11" rx="15" ry="15"/>
      <g>
        <rect class="cls-5" x="199.47" y="324.18" width="139.54" height="50.09" rx="5.96" ry="5.96"/>
        <text class="cls-19" transform="translate(231.44 356.82)"><tspan x="0" y="0">CockPit</tspan></text>
      </g>
      <text class="cls-20" transform="translate(41.13 425.26)"><tspan x="0" y="0">CockPi</tspan><tspan class="cls-18" x="57.22" y="0">t</tspan><tspan x="68.17" y="0">は完全紹介制のため</tspan><tspan class="cls-21" x="221.17" y="0">、</tspan><tspan x="0" y="32.2">求職者様の人生を考え、チャレンジを応援します</tspan><tspan class="cls-21" x="374" y="32.2">。</tspan><tspan x="0" y="64.4">求職者様の能力以上の企業からご提示し</tspan><tspan class="cls-21" x="306" y="64.4">、</tspan><tspan x="0" y="96.6">時間をかけてでも、企業レベルの最適解を見つけ出します</tspan><tspan class="cls-21" x="442" y="96.6">。</tspan></text>
      <path class="cls-9" d="m502.01,179.46h-152.54c-1.41,0-2.56,1.15-2.56,2.56v26.67c0,.71-.57,1.28-1.28,1.28h-152.67c-1.41,0-2.56,1.15-2.56,2.56v26.67c0,.71-.57,1.28-1.28,1.28H36.47c-1.41,0-2.56,1.15-2.56,2.56v31.88c0,.71.57,1.28,1.28,1.28h468.1c.71,0,1.28-.57,1.28-1.28v-94.17h0c0-.71-.57-1.28-1.28-1.28h-1.28Z"/>
      <g>
        <path class="cls-11" d="m270.96,137.53c-4.27,0-7.75-3.48-7.75-7.75s3.48-7.75,7.75-7.75,7.75,3.48,7.75,7.75-3.48,7.75-7.75,7.75Zm0-13.6c-3.23,0-5.85,2.63-5.85,5.85s2.63,5.85,5.85,5.85,5.85-2.63,5.85-5.85-2.63-5.85-5.85-5.85Z"/>
        <path class="cls-10" d="m249.33,204.97c-.58,0-1.16-.11-1.71-.32-2.49-.94-3.75-3.74-2.81-6.23l14.12-48.94h-6.11l-6.46,11.42c-.86,1.51-2.47,2.45-4.21,2.45-.83,0-1.65-.22-2.38-.63-1.13-.64-1.94-1.67-2.28-2.92-.34-1.24-.19-2.55.45-3.67l7.85-13.87c.86-1.51,2.47-2.45,4.21-2.45h17.6c3.03,0,5.93,1.44,7.76,3.85l7.43,9.78,9.79-2.11c1.39-.29,2.84.03,3.97.9,1.12.86,1.8,2.17,1.88,3.59.13,2.34-1.61,4.5-4.03,5.02l-12.58,2.71c-1.78.38-3.75-.33-4.87-1.8l-5.34-7.07-4.81,13.87,11.85.73c.08,0,.16.02.24.05.74.24,1.7.86,2.14,2.44l4.73,16.16c.86,2.47-.47,5.23-2.99,6.11-.51.18-1.05.27-1.59.27-2.05,0-3.89-1.3-4.57-3.25l-4.48-11.67-9.9-.21-8.37,22.66c-.46,1.21-1.36,2.17-2.54,2.7-.64.29-1.31.43-1.99.43Zm2.94-57.39h7.92c.3,0,.58.14.76.38.18.24.24.55.15.83l-14.5,50.22c-.6,1.59.17,3.29,1.68,3.86.74.28,1.53.25,2.25-.07.72-.32,1.26-.9,1.54-1.64l8.61-23.29c.14-.38.53-.62.91-.62l11.21.24c.39,0,.73.25.87.61l4.72,12.29c.42,1.21,1.54,2,2.79,2,.33,0,.66-.06.97-.16,1.53-.53,2.34-2.21,1.81-3.74l-4.75-16.22c-.22-.79-.59-1.03-.8-1.12l-12.96-.8c-.3-.02-.57-.17-.73-.42-.16-.25-.2-.56-.11-.84l5.81-16.73c.12-.33.4-.57.75-.63.35-.06.69.09.9.37l6.41,8.48c.68.89,1.89,1.32,2.96,1.09l12.58-2.71c1.52-.33,2.61-1.64,2.54-3.06-.05-.88-.45-1.65-1.14-2.18-.69-.53-1.57-.73-2.42-.55l-10.37,2.23c-.36.08-.73-.06-.96-.35l-7.8-10.26c-1.48-1.94-3.81-3.1-6.25-3.1h-17.6c-1.06,0-2.04.57-2.56,1.49l-7.85,13.87c-.39.68-.48,1.47-.27,2.23.21.76.7,1.39,1.39,1.77,1.37.77,3.23.25,4-1.11l6.73-11.9c.17-.3.48-.48.83-.48Z"/>
      </g>
      <text class="cls-19" transform="translate(357.01 204.97)"><tspan x="0" y="0">チャレンジ企業</tspan></text>
      <text class="cls-19" transform="translate(212.26 235.85)"><tspan x="0" y="0">実力相応企業</tspan></text>
      <g>
        <path class="cls-14" d="m222.97,59.03c-.36-1.88-1.42-2.84-3.14-2.84-2.46,0-4,2.26-4,5.86s1.54,5.82,4.04,5.82c1.92,0,3.04-1.24,3.26-3.66h2.14c-.22,3.7-2.08,5.7-5.32,5.7-4.02,0-6.6-3.06-6.6-7.84,0-2.74.8-4.94,2.32-6.34,1.12-1.02,2.6-1.58,4.18-1.58,1.82,0,3.36.72,4.26,2,.56.76.82,1.6.94,2.88h-2.08Z"/>
        <path class="cls-15" d="m230.1,54.35v5.68c.8-.98,1.82-1.46,3.1-1.46s2.48.56,3.04,1.46c.44.66.56,1.4.56,3.38v6.22h-2.24v-5.86c0-1.18-.08-1.78-.3-2.22-.32-.64-.94-1-1.72-1-.86,0-1.62.44-2.04,1.2-.28.5-.4,1.16-.4,2.14v5.74h-2.24v-15.28h2.24Z"/>
        <path class="cls-13" d="m239.92,61.85c.12-1.08.44-1.72,1.08-2.28.76-.64,1.96-1,3.32-1,1.82,0,3.12.6,3.6,1.68.26.62.34,1.18.34,2.54v4.22c0,1.46.06,2,.34,2.62h-2.08c-.14-.54-.16-.74-.18-1.34-.6,1.06-1.62,1.58-3.1,1.58-2.28,0-3.7-1.18-3.7-3.08,0-1.5.86-2.64,2.48-3.24,1-.38,1.66-.54,4.06-.96v-.3c0-1.38-.52-1.9-1.88-1.9-1.24,0-1.92.46-2.12,1.46h-2.16Zm6.16,2.3c-1.68.24-2.6.48-3.2.82-.7.38-1.04.9-1.04,1.56,0,.92.76,1.58,1.84,1.58.92,0,1.7-.42,2.08-1.14.24-.42.32-1,.32-2v-.82Z"/>
        <path class="cls-12" d="m253.9,66.99c0,.74.16.88.9.88.42,0,.72-.02,1.14-.12v1.96c-.86.12-1.16.14-1.72.14-.92,0-1.58-.14-1.96-.42-.44-.34-.6-.8-.6-1.82v-13.26h2.24v12.64Z"/>
        <path class="cls-8" d="m260.06,66.99c0,.74.16.88.9.88.42,0,.72-.02,1.14-.12v1.96c-.86.12-1.16.14-1.72.14-.92,0-1.58-.14-1.96-.42-.44-.34-.6-.8-.6-1.82v-13.26h2.24v12.64Z"/>
        <path class="cls-3" d="m265.5,64.71c.1,2.24,1.1,3.38,2.96,3.38,1.14,0,1.84-.44,2.32-1.48h2.04c-.5,2.12-2.1,3.32-4.42,3.32-3.16,0-5.16-2.18-5.16-5.58s1.98-5.84,4.98-5.84,4.68,2.22,4.68,5.7v.5h-7.4Zm5.12-1.68c-.22-1.8-1.04-2.74-2.44-2.74s-2.26.9-2.62,2.74h5.06Z"/>
        <path class="cls-1" d="m277.46,58.81c.18.48.22.74.22,1.48.78-1.14,1.86-1.72,3.26-1.72s2.56.62,3.1,1.66c.36.7.42,1.16.42,3.18v6.22h-2.24v-5.86c0-1.26-.06-1.8-.26-2.24-.3-.64-.9-.98-1.68-.98-.86,0-1.64.44-2.06,1.18-.26.46-.38,1.12-.38,2.12v5.78h-2.24v-7.04c0-2.66-.02-2.72-.3-3.78h2.16Z"/>
        <path class="cls-4" d="m297.35,60.45l-2.22-.02c.48.52.74,1.34.74,2.18,0,1.24-.56,2.22-1.54,2.68-.76.36-1.02.42-3.2.74-.64.1-1.14.44-1.14.78,0,.44.2.5,2.28.7,2.3.22,3.06.42,3.76.94.66.5,1.06,1.36,1.06,2.28,0,2.2-1.92,3.52-5.16,3.52s-5.16-1.24-5.16-3.16c0-1.26.68-2.06,2.22-2.6-.82-.32-1.18-.7-1.18-1.26,0-.74.52-1.22,1.92-1.76-1.36-.62-1.98-1.6-1.98-3.1,0-2.3,1.66-3.76,4.28-3.76.64,0,1.12.08,1.88.3l3.44-.1v1.64Zm-8.62,10.46c0,1,1.26,1.62,3.24,1.62,1.82,0,2.96-.6,2.96-1.58,0-1.04-1.18-1.62-3.28-1.62-1.82,0-2.92.6-2.92,1.58Zm1.02-8.56c0,1.14.82,1.88,2.08,1.88s2.08-.74,2.08-1.9-.84-2-2.04-2c-1.26,0-2.12.82-2.12,2.02Z"/>
        <path class="cls-2" d="m301.12,64.71c.1,2.24,1.1,3.38,2.96,3.38,1.14,0,1.84-.44,2.32-1.48h2.04c-.5,2.12-2.1,3.32-4.42,3.32-3.16,0-5.16-2.18-5.16-5.58s1.98-5.84,4.98-5.84,4.68,2.22,4.68,5.7v.5h-7.4Zm5.12-1.68c-.22-1.8-1.04-2.74-2.44-2.74s-2.26.9-2.62,2.74h5.06Z"/>
      </g>
      <text class="cls-19" transform="translate(63.02 265.94)"><tspan x="0" y="0">安全圏企業</tspan></text>
      <path class="cls-6" d="m361.41,170.22c-.71,0-1.29-.58-1.29-1.29s.58-1.29,1.29-1.29h9.53V41.87c0-.71.58-1.29,1.29-1.29h77.49c.71,0,1.29.58,1.29,1.29v19.91h26.63c.71,0,1.29.58,1.29,1.29v102.19c0,.2-.05.39-.13.57l-.89,1.81h10.55c.71,0,1.29.58,1.29,1.29s-.58,1.29-1.29,1.29h-127.06Zm89.61-2.58h26.36l-.89-1.81c-.09-.18-.13-.37-.13-.57v-100.9h-25.34v103.28Zm-32.9-13.14c.71,0,1.29.58,1.29,1.29v11.84h29.02V43.16h-74.91v124.47h29.02v-11.84c0-.71.58-1.29,1.29-1.29h14.28Zm-12.99,13.14h11.7v-10.55h-11.7v10.55Zm22.97-7.84c-.71,0-1.29-.58-1.29-1.29s.58-1.29,1.29-1.29h10.03c.71,0,1.29.58,1.29,1.29s-.58,1.29-1.29,1.29h-10.03Zm-44.61,0c-.71,0-1.29-.58-1.29-1.29s.58-1.29,1.29-1.29h10.03c.71,0,1.29.58,1.29,1.29s-.58,1.29-1.29,1.29h-10.03Zm79.72-6.46c-.71,0-1.29-.58-1.29-1.29v-6.57c0-.71.58-1.29,1.29-1.29s1.29.58,1.29,1.29v6.57c0,.71-.58,1.29-1.29,1.29Zm-79.38-6.58c-.71,0-1.29-.58-1.29-1.29s.58-1.29,1.29-1.29h54.3c.71,0,1.29.58,1.29,1.29s-.58,1.29-1.29,1.29h-54.3Zm0-12.85c-.71,0-1.29-.58-1.29-1.29s.58-1.29,1.29-1.29h54.3c.71,0,1.29.58,1.29,1.29s-.58,1.29-1.29,1.29h-54.3Zm79.38-2.72c-.71,0-1.29-.58-1.29-1.29v-6.57c0-.71.58-1.29,1.29-1.29s1.29.58,1.29,1.29v6.57c0,.71-.58,1.29-1.29,1.29Zm-79.38-10.13c-.71,0-1.29-.58-1.29-1.29s.58-1.29,1.29-1.29h54.3c.71,0,1.29.58,1.29,1.29s-.58,1.29-1.29,1.29h-54.3Zm79.38-12.02c-.71,0-1.29-.58-1.29-1.29v-6.57c0-.71.58-1.29,1.29-1.29s1.29.58,1.29,1.29v6.57c0,.71-.58,1.29-1.29,1.29Zm-79.38-.83c-.71,0-1.29-.58-1.29-1.29s.58-1.29,1.29-1.29h54.3c.71,0,1.29.58,1.29,1.29s-.58,1.29-1.29,1.29h-54.3Zm0-12.85c-.71,0-1.29-.58-1.29-1.29s.58-1.29,1.29-1.29h54.3c.71,0,1.29.58,1.29,1.29s-.58,1.29-1.29,1.29h-54.3Zm79.38-8.46c-.71,0-1.29-.58-1.29-1.29v-6.57c0-.71.58-1.29,1.29-1.29s1.29.58,1.29,1.29v6.57c0,.71-.58,1.29-1.29,1.29Zm-79.38-4.39c-.71,0-1.29-.58-1.29-1.29s.58-1.29,1.29-1.29h54.3c.71,0,1.29.58,1.29,1.29s-.58,1.29-1.29,1.29h-54.3Zm0-12.85c-.71,0-1.29-.58-1.29-1.29s.58-1.29,1.29-1.29h54.3c.71,0,1.29.58,1.29,1.29s-.58,1.29-1.29,1.29h-54.3Zm0-12.85c-.71,0-1.29-.58-1.29-1.29s.58-1.29,1.29-1.29h54.3c.71,0,1.29.58,1.29,1.29s-.58,1.29-1.29,1.29h-54.3Z"/>
      <path class="cls-7" d="m152.89,228.08h10.55c.71,0,1.29.58,1.29,1.29s-.58,1.29-1.29,1.29h-99.14c-.71,0-1.29-.58-1.29-1.29s.58-1.29,1.29-1.29h9.53v-73.59c0-.71.58-1.29,1.29-1.29h77.49c.71,0,1.29.58,1.29,1.29v73.59h-1.56m-31.34-13.14c.71,0,1.29.58,1.29,1.29v11.84h29.02v-72.29h-74.91v72.29h29.02v-11.84c0-.71.58-1.29,1.29-1.29h14.28Zm-12.99,13.14h11.7v-10.55h-11.7v10.55Zm22.97-7.84c-.71,0-1.29-.58-1.29-1.29s.58-1.29,1.29-1.29h10.03c.71,0,1.29.58,1.29,1.29s-.58,1.29-1.29,1.29h-10.03Zm-44.61,0c-.71,0-1.29-.58-1.29-1.29s.58-1.29,1.29-1.29h10.03c.71,0,1.29.58,1.29,1.29s-.58,1.29-1.29,1.29h-10.03Zm.34-13.04c-.71,0-1.29-.58-1.29-1.29s.58-1.29,1.29-1.29h54.3c.71,0,1.29.58,1.29,1.29s-.58,1.29-1.29,1.29h-54.3Zm0-12.85c-.71,0-1.29-.58-1.29-1.29s.58-1.29,1.29-1.29h54.3c.71,0,1.29.58,1.29,1.29s-.58,1.29-1.29,1.29h-54.3Zm0-12.85c-.71,0-1.29-.58-1.29-1.29s.58-1.29,1.29-1.29h54.3c.71,0,1.29.58,1.29,1.29s-.58,1.29-1.29,1.29h-54.3Zm0-12.85c-.71,0-1.29-.58-1.29-1.29s.58-1.29,1.29-1.29h54.3c.71,0,1.29.58,1.29,1.29s-.58,1.29-1.29,1.29h-54.3Zm0-12.85c-.71,0-1.29-.58-1.29-1.29s.58-1.29,1.29-1.29h54.3c.71,0,1.29.58,1.29,1.29s-.58,1.29-1.29,1.29h-54.3Z"/>
      <path class="cls-16" d="m147.08,133.9l187.74-49.25c.52-.16.52-.9,0-1.06l-9.87-2.98c-.59-.18-.49-1.04.12-1.08l36.57-2.44c.52-.03.79.6.41.96l-28.43,26.18c-.43.4-1.1-.06-.89-.61l4.04-13.14c.17-.43-.23-.86-.67-.73l-189.03,44.16Z"/>
    </g>
  </g>
</svg>