<?xml version="1.0" encoding="UTF-8"?>
<svg id="_レイヤー_2" data-name="レイヤー 2" xmlns="http://www.w3.org/2000/svg" xmlns:xlink="http://www.w3.org/1999/xlink" viewBox="0 0 926.41 329.59">
  <defs>
    <style>
      .cls-1 {
        fill: url(#_新規グラデーションスウォッチ_1-14);
      }

      .cls-1, .cls-2, .cls-3, .cls-4, .cls-5, .cls-6, .cls-7, .cls-8, .cls-9, .cls-10, .cls-11, .cls-12, .cls-13, .cls-14, .cls-15, .cls-16, .cls-17, .cls-18, .cls-19, .cls-20, .cls-21, .cls-22, .cls-23, .cls-24, .cls-25, .cls-26 {
        stroke-width: 0px;
      }

      .cls-2 {
        fill: url(#_新規グラデーションスウォッチ_1-11);
      }

      .cls-3 {
        fill: url(#_新規グラデーションスウォッチ_1-13);
      }

      .cls-4 {
        fill: url(#_新規グラデーションスウォッチ_1-16);
      }

      .cls-5 {
        fill: url(#_新規グラデーションスウォッチ_1-10);
      }

      .cls-6 {
        fill: url(#_新規グラデーションスウォッチ_1-17);
      }

      .cls-7 {
        fill: url(#_新規グラデーションスウォッチ_1-19);
      }

      .cls-8 {
        fill: url(#_新規グラデーションスウォッチ_1-15);
      }

      .cls-9 {
        fill: url(#_新規グラデーションスウォッチ_1-18);
      }

      .cls-10 {
        fill: url(#_新規グラデーションスウォッチ_1-12);
      }

      .cls-11 {
        fill: url(#_新規グラデーションスウォッチ_1-21);
      }

      .cls-12 {
        fill: url(#_新規グラデーションスウォッチ_1-22);
      }

      .cls-13 {
        fill: url(#_新規グラデーションスウォッチ_1-20);
      }

      .cls-14 {
        fill: url(#_新規グラデーションスウォッチ_1-23);
      }

      .cls-27 {
        stroke: url(#_新規グラデーションスウォッチ_6-2);
      }

      .cls-27, .cls-28 {
        fill: none;
        stroke-dasharray: 0 0 0 2;
        stroke-linecap: round;
        stroke-miterlimit: 10;
        stroke-width: .75px;
      }

      .cls-15 {
        fill: url(#_新規グラデーションスウォッチ_1);
      }

      .cls-16 {
        fill: url(#_新規グラデーションスウォッチ_1-9);
      }

      .cls-17 {
        fill: url(#_新規グラデーションスウォッチ_1-2);
      }

      .cls-18 {
        fill: url(#_新規グラデーションスウォッチ_1-4);
      }

      .cls-19 {
        fill: url(#_新規グラデーションスウォッチ_1-3);
      }

      .cls-20 {
        fill: url(#_新規グラデーションスウォッチ_1-8);
      }

      .cls-21 {
        fill: url(#_新規グラデーションスウォッチ_1-7);
      }

      .cls-22 {
        fill: url(#_新規グラデーションスウォッチ_1-5);
      }

      .cls-23 {
        fill: url(#_新規グラデーションスウォッチ_1-6);
      }

      .cls-24 {
        fill: #231815;
      }

      .cls-25 {
        fill: #333;
      }

      .cls-26 {
        fill: #fff;
      }

      .cls-28 {
        stroke: url(#_新規グラデーションスウォッチ_6);
      }
    </style>
    <linearGradient id="_新規グラデーションスウォッチ_1" data-name="新規グラデーションスウォッチ 1" x1="0" y1="164.79" x2="275.01" y2="164.79" gradientTransform="translate(275.01 329.59) rotate(180)" gradientUnits="userSpaceOnUse">
      <stop offset="0" stop-color="#0d7695"/>
      <stop offset="0" stop-color="#0d7494"/>
      <stop offset=".18" stop-color="#105481"/>
      <stop offset=".37" stop-color="#133b73"/>
      <stop offset=".56" stop-color="#152a69"/>
      <stop offset=".76" stop-color="#161f62"/>
      <stop offset="1" stop-color="#171c61"/>
    </linearGradient>
    <linearGradient id="_新規グラデーションスウォッチ_1-2" data-name="新規グラデーションスウォッチ 1" x1="303.58" y1="238.72" x2="864.25" y2="238.72" gradientTransform="matrix(1,0,0,1,0,0)" xlink:href="#_新規グラデーションスウォッチ_1"/>
    <linearGradient id="_新規グラデーションスウォッチ_1-3" data-name="新規グラデーションスウォッチ 1" x1="726.78" y1="126.17" x2="818.58" y2="126.17" gradientTransform="matrix(1,0,0,1,0,0)" xlink:href="#_新規グラデーションスウォッチ_1"/>
    <linearGradient id="_新規グラデーションスウォッチ_1-4" data-name="新規グラデーションスウォッチ 1" x1="726.78" y1="126.17" x2="818.58" y2="126.17" gradientTransform="matrix(1,0,0,1,0,0)" xlink:href="#_新規グラデーションスウォッチ_1"/>
    <linearGradient id="_新規グラデーションスウォッチ_1-5" data-name="新規グラデーションスウォッチ 1" x1="726.78" y1="126.17" x2="818.58" y2="126.17" gradientTransform="matrix(1,0,0,1,0,0)" xlink:href="#_新規グラデーションスウォッチ_1"/>
    <linearGradient id="_新規グラデーションスウォッチ_6" data-name="新規グラデーションスウォッチ 6" x1="399" y1="87.54" x2="774.52" y2="87.54" gradientUnits="userSpaceOnUse">
      <stop offset="0" stop-color="#0d76a6"/>
      <stop offset="0" stop-color="#0d74a5"/>
      <stop offset=".18" stop-color="#10548c"/>
      <stop offset=".37" stop-color="#133b79"/>
      <stop offset=".56" stop-color="#152a6b"/>
      <stop offset=".76" stop-color="#161f63"/>
      <stop offset="1" stop-color="#171c61"/>
    </linearGradient>
    <linearGradient id="_新規グラデーションスウォッチ_1-6" data-name="新規グラデーションスウォッチ 1" x1="578.07" y1="91.98" x2="588.39" y2="91.98" gradientTransform="matrix(1,0,0,1,0,0)" xlink:href="#_新規グラデーションスウォッチ_1"/>
    <linearGradient id="_新規グラデーションスウォッチ_1-7" data-name="新規グラデーションスウォッチ 1" x1="768.98" y1="46.76" x2="779.3" y2="46.76" gradientTransform="matrix(1,0,0,1,0,0)" xlink:href="#_新規グラデーションスウォッチ_1"/>
    <linearGradient id="_新規グラデーションスウォッチ_6-2" data-name="新規グラデーションスウォッチ 6" x1="303.21" y1="128.31" x2="399.75" y2="128.31" xlink:href="#_新規グラデーションスウォッチ_6"/>
    <linearGradient id="_新規グラデーションスウォッチ_1-8" data-name="新規グラデーションスウォッチ 1" x1="394.22" y1="128.31" x2="404.54" y2="128.31" gradientTransform="matrix(1,0,0,1,0,0)" xlink:href="#_新規グラデーションスウォッチ_1"/>
    <linearGradient id="_新規グラデーションスウォッチ_1-9" data-name="新規グラデーションスウォッチ 1" x1="42.29" y1="249.69" x2="233.14" y2="249.69" gradientTransform="matrix(1,0,0,1,0,0)" xlink:href="#_新規グラデーションスウォッチ_1"/>
    <linearGradient id="_新規グラデーションスウォッチ_1-10" data-name="新規グラデーションスウォッチ 1" x1="42.29" y1="249.69" x2="233.14" y2="249.69" gradientTransform="matrix(1,0,0,1,0,0)" xlink:href="#_新規グラデーションスウォッチ_1"/>
    <linearGradient id="_新規グラデーションスウォッチ_1-11" data-name="新規グラデーションスウォッチ 1" x1="42.29" y1="249.69" x2="233.14" y2="249.69" gradientTransform="matrix(1,0,0,1,0,0)" xlink:href="#_新規グラデーションスウォッチ_1"/>
    <linearGradient id="_新規グラデーションスウォッチ_1-12" data-name="新規グラデーションスウォッチ 1" x1="42.29" y1="249.69" x2="233.14" y2="249.69" gradientTransform="matrix(1,0,0,1,0,0)" xlink:href="#_新規グラデーションスウォッチ_1"/>
    <linearGradient id="_新規グラデーションスウォッチ_1-13" data-name="新規グラデーションスウォッチ 1" x1="42.29" y1="249.69" x2="233.14" y2="249.69" gradientTransform="matrix(1,0,0,1,0,0)" xlink:href="#_新規グラデーションスウォッチ_1"/>
    <linearGradient id="_新規グラデーションスウォッチ_1-14" data-name="新規グラデーションスウォッチ 1" x1="42.29" y1="249.69" x2="233.14" y2="249.69" gradientTransform="matrix(1,0,0,1,0,0)" xlink:href="#_新規グラデーションスウォッチ_1"/>
    <linearGradient id="_新規グラデーションスウォッチ_1-15" data-name="新規グラデーションスウォッチ 1" x1="42.29" y1="249.69" x2="233.14" y2="249.69" gradientTransform="matrix(1,0,0,1,0,0)" xlink:href="#_新規グラデーションスウォッチ_1"/>
    <linearGradient id="_新規グラデーションスウォッチ_1-16" data-name="新規グラデーションスウォッチ 1" x1="42.29" y1="249.69" x2="233.14" y2="249.69" gradientTransform="matrix(1,0,0,1,0,0)" xlink:href="#_新規グラデーションスウォッチ_1"/>
    <linearGradient id="_新規グラデーションスウォッチ_1-17" data-name="新規グラデーションスウォッチ 1" x1="42.29" y1="249.69" x2="233.14" y2="249.69" gradientTransform="matrix(1,0,0,1,0,0)" xlink:href="#_新規グラデーションスウォッチ_1"/>
    <linearGradient id="_新規グラデーションスウォッチ_1-18" data-name="新規グラデーションスウォッチ 1" x1="42.29" y1="249.69" x2="233.14" y2="249.69" gradientTransform="matrix(1,0,0,1,0,0)" xlink:href="#_新規グラデーションスウォッチ_1"/>
    <linearGradient id="_新規グラデーションスウォッチ_1-19" data-name="新規グラデーションスウォッチ 1" x1="42.29" y1="249.69" x2="233.14" y2="249.69" gradientTransform="matrix(1,0,0,1,0,0)" xlink:href="#_新規グラデーションスウォッチ_1"/>
    <linearGradient id="_新規グラデーションスウォッチ_1-20" data-name="新規グラデーションスウォッチ 1" x1="42.29" y1="249.69" x2="233.14" y2="249.69" gradientTransform="matrix(1,0,0,1,0,0)" xlink:href="#_新規グラデーションスウォッチ_1"/>
    <linearGradient id="_新規グラデーションスウォッチ_1-21" data-name="新規グラデーションスウォッチ 1" x1="42.29" y1="249.69" x2="233.14" y2="249.69" gradientTransform="matrix(1,0,0,1,0,0)" xlink:href="#_新規グラデーションスウォッチ_1"/>
    <linearGradient id="_新規グラデーションスウォッチ_1-22" data-name="新規グラデーションスウォッチ 1" x1="42.29" y1="249.69" x2="233.14" y2="249.69" gradientTransform="matrix(1,0,0,1,0,0)" xlink:href="#_新規グラデーションスウォッチ_1"/>
    <linearGradient id="_新規グラデーションスウォッチ_1-23" data-name="新規グラデーションスウォッチ 1" x1="42.29" y1="249.69" x2="233.14" y2="249.69" gradientTransform="matrix(1,0,0,1,0,0)" xlink:href="#_新規グラデーションスウォッチ_1"/>
  </defs>
  <g id="_レイヤー_1-2" data-name="レイヤー 1">
    <g>
      <path class="cls-15" d="m0,0h263.01C269.63,0,275.01,5.38,275.01,12v305.59c0,6.62-5.38,12-12,12H0V0H0Z" transform="translate(275.01 329.59) rotate(-180)"/>
      <path class="cls-26" d="m275.01,0h639.4C921.03,0,926.41,5.38,926.41,12v305.59c0,6.62-5.38,12-12,12H275.01V0h0Z"/>
      <path class="cls-17" d="m861.2,181.1h-181.71c-1.68,0-3.05,1.36-3.05,3.05v31.77c0,.84-.68,1.52-1.52,1.52h-181.86c-1.68,0-3.05,1.36-3.05,3.05v31.77c0,.84-.68,1.52-1.52,1.52h-181.86c-1.68,0-3.05,1.36-3.05,3.05v37.97c0,.84.68,1.52,1.52,1.52h557.62c.84,0,1.52-.68,1.52-1.52v-112.18h0c0-.84-.68-1.52-1.52-1.52h-1.53Z"/>
      <g>
        <path class="cls-25" d="m388.49,164.1h-3.64c-.19.29-.37.58-.59.9-.87,1.26-1.43,1.92-2.53,2.94-.29-.46-.51-.7-1.09-1.26,2.09-2.07,3.09-3.6,4.13-6.36l1.51.58c.24.1.36.2.36.29q0,.14-.48.25c-.17.42-.34.78-.49,1.12h6.9c1.02,0,2.52-.03,3.4-.07v1.67c-.88-.03-2.38-.07-3.4-.07h-2.41v2.28h2.7c.61,0,1.55-.02,2.02-.03v1.6c-.51-.03-1.46-.05-2.02-.05h-2.7v2.75h2.99c1.39,0,2.23-.02,3.38-.07v1.68c-.9-.03-2.35-.05-3.38-.05h-2.99v.53c0,1.56.02,2.72.05,3.48h-1.77c.03-.76.05-1.92.05-3.48v-.53h-4.27c-.94,0-2.46.02-3.38.05v-1.68c.73.03,1.92.05,2.87.07v-2.8q-.02-1.21-.03-1.5.46.02,1.99.03h2.82v-2.28Zm-3.18,3.79v2.75h3.18v-2.75h-3.18Z"/>
        <path class="cls-25" d="m401.81,176.26c.05-1.07.08-2.69.08-4.79-.85.37-1.39.6-3.08,1.28l-.08.19c-.07.14-.14.2-.24.2s-.19-.07-.24-.19l-.66-1.63c.37-.1.7-.19,1.02-.29v-6.51c0-1.34-.02-2.06-.05-2.55l1.72.12c.19,0,.29.07.29.17s-.08.19-.32.34v7.87c.54-.2,1.1-.42,1.65-.65v-4.22c0-2.79-.03-4.47-.1-5l1.8.12c.15,0,.25.08.25.17,0,.1-.08.19-.31.32q-.02.6-.03,4.39v5.69c0,2.23.03,3.88.08,4.96h-1.79Zm10.78-13c-.51,2.92-1.21,5.93-2.84,8.46.88,1.11,2.11,1.97,3.94,2.91-.59.54-.73.73-1.14,1.44-1.5-.83-2.79-1.87-3.79-3.01-.95,1.14-2.18,2.14-3.84,3.2-.37-.66-.54-.88-1-1.41,1.68-.99,2.84-1.94,3.83-3.18-.65-1.1-1.12-2.41-1.53-4.1-.29-1.19-.42-2.16-.59-4.11-.54.02-1.09.02-1.5.03v-1.67c.73.03,1.89.05,2.72.05h4.76l.22-.27,1.07,1.02c.08.08.14.17.14.25,0,.14-.08.22-.29.31l-.15.07Zm-5.47.19c.29,2.92.49,3.89,1.14,5.56.17.43.34.82.51,1.19,1.21-2.06,1.77-4.42,2.14-6.75h-3.79Z"/>
      </g>
      <g>
        <path class="cls-25" d="m394.74,234.64c-.22,2.7-.48,4.11-.94,5.46-.73,2.12-1.72,2.69-4.74,2.69h-.54q-.07-1.11-.22-1.9c.88.07.9.07,1.26.07,1.17,0,1.73-.2,2.14-.77.63-.92,1.02-2.55,1.26-5.27h-4.45c-.03.2-.07.39-.1.61-.44,2.38-1.72,4.45-3.62,5.93-.82.61-1.48,1-2.77,1.56-.25-.63-.48-1.04-.87-1.53,2.46-1.19,3.5-2.02,4.47-3.67,1.09-1.8,1.43-3.45,1.5-7.29h-2.06c-.93,0-2.46.03-3.4.07v-1.7c.88.05,2.41.07,3.4.07h8.52c1.07,0,2.52-.02,3.38-.07v1.7c-.9-.03-2.35-.07-3.38-.07h-4.72c-.03.95-.07,1.9-.15,2.86h4.91l.29-.32,1.16,1.04c.12.1.15.15.15.24,0,.1-.09.17-.29.24l-.17.07Z"/>
        <path class="cls-25" d="m401.23,239.17q.02,3.28.05,4h-1.85q.02-.71.05-3.31v-7.94q-.02-2.8-.05-3.31c.9.03,2.23.07,3.38.07h7c1.16,0,2.5-.03,3.38-.07q-.02.51-.03,3.31v6.7c0,.37.02,1.46.05,2.18v.25c0,1.02-.25,1.5-.93,1.82-.49.2-1.14.27-2.82.27-.05-1.04-.07-1.17-.32-1.96.75.05,1.14.07,1.65.07.54,0,.63-.1.63-.71v-3.89h-10.18v2.53Zm0-8.89v4.76h4.15v-4.76h-4.15Zm5.9,4.76h4.28v-4.76h-4.28v4.76Z"/>
      </g>
      <g>
        <g>
          <path class="cls-25" d="m359.3,193.26c.21-5.8,3.83-9.2,9.85-9.2s9.67,3.44,9.67,8.77c0,3.14-1.08,5.42-4.73,9.85-1.85,2.24-4.21,4.99-8.73,10.11h13.8v4.6h-20.25v-4.04q.73-.9,3.31-3.91c10.45-12.25,11.44-13.67,11.44-16.43s-1.93-4.51-4.77-4.51c-3.05,0-4.9,1.68-5.25,4.77h-4.34Z"/>
          <path class="cls-25" d="m391.12,209.98c.82,2.28,2.54,3.48,5.12,3.48,3.57,0,5.98-2.92,5.98-7.31,0-4.08-2.19-6.79-5.46-6.79-2.28,0-3.96.95-5.42,3.1l-4.39-.6,2.79-17.16h15.78l-.39,4.52h-11.61l-1.33,7.83c1.81-1.33,3.22-1.81,5.33-1.81,5.93,0,9.98,4.3,9.98,10.71,0,3.22-1.08,6.11-3.05,8.38-2.15,2.41-4.69,3.53-8.04,3.53-5.42,0-9.37-3.1-10.15-7.87h4.86Z"/>
          <path class="cls-25" d="m436.05,201c0,10.58-4.26,16.9-11.35,16.9s-11.39-6.32-11.39-16.9,4.26-16.9,11.39-16.9,11.35,6.32,11.35,16.9Zm-15.52-10.28c-1.38,2.41-2.11,6.06-2.11,10.28s.73,7.87,2.11,10.28c.9,1.55,2.37,2.41,4.17,2.41s3.22-.86,4.13-2.41c1.38-2.41,2.15-6.06,2.15-10.28s-.82-8-2.15-10.28c-.95-1.59-2.37-2.41-4.13-2.41s-3.27.82-4.17,2.41Z"/>
        </g>
        <g>
          <path class="cls-24" d="m359.3,193.26c.21-5.8,3.83-9.2,9.85-9.2s9.67,3.44,9.67,8.77c0,3.14-1.08,5.42-4.73,9.85-1.85,2.24-4.21,4.99-8.73,10.11h13.8v4.6h-20.25v-4.04q.73-.9,3.31-3.91c10.45-12.25,11.44-13.67,11.44-16.43s-1.93-4.51-4.77-4.51c-3.05,0-4.9,1.68-5.25,4.77h-4.34Z"/>
          <path class="cls-24" d="m391.12,209.98c.82,2.28,2.54,3.48,5.12,3.48,3.57,0,5.98-2.92,5.98-7.31,0-4.08-2.19-6.79-5.46-6.79-2.28,0-3.96.95-5.42,3.1l-4.39-.6,2.79-17.16h15.78l-.39,4.52h-11.61l-1.33,7.83c1.81-1.33,3.22-1.81,5.33-1.81,5.93,0,9.98,4.3,9.98,10.71,0,3.22-1.08,6.11-3.05,8.38-2.15,2.41-4.69,3.53-8.04,3.53-5.42,0-9.37-3.1-10.15-7.87h4.86Z"/>
          <path class="cls-24" d="m436.05,201c0,10.58-4.26,16.9-11.35,16.9s-11.39-6.32-11.39-16.9,4.26-16.9,11.39-16.9,11.35,6.32,11.35,16.9Zm-15.52-10.28c-1.38,2.41-2.11,6.06-2.11,10.28s.73,7.87,2.11,10.28c.9,1.55,2.37,2.41,4.17,2.41s3.22-.86,4.13-2.41c1.38-2.41,2.15-6.06,2.15-10.28s-.82-8-2.15-10.28c-.95-1.59-2.37-2.41-4.13-2.41s-3.27.82-4.17,2.41Z"/>
        </g>
        <g>
          <path class="cls-25" d="m359.3,193.26c.21-5.8,3.83-9.2,9.85-9.2s9.67,3.44,9.67,8.77c0,3.14-1.08,5.42-4.73,9.85-1.85,2.24-4.21,4.99-8.73,10.11h13.8v4.6h-20.25v-4.04q.73-.9,3.31-3.91c10.45-12.25,11.44-13.67,11.44-16.43s-1.93-4.51-4.77-4.51c-3.05,0-4.9,1.68-5.25,4.77h-4.34Z"/>
          <path class="cls-25" d="m391.12,209.98c.82,2.28,2.54,3.48,5.12,3.48,3.57,0,5.98-2.92,5.98-7.31,0-4.08-2.19-6.79-5.46-6.79-2.28,0-3.96.95-5.42,3.1l-4.39-.6,2.79-17.16h15.78l-.39,4.52h-11.61l-1.33,7.83c1.81-1.33,3.22-1.81,5.33-1.81,5.93,0,9.98,4.3,9.98,10.71,0,3.22-1.08,6.11-3.05,8.38-2.15,2.41-4.69,3.53-8.04,3.53-5.42,0-9.37-3.1-10.15-7.87h4.86Z"/>
          <path class="cls-25" d="m436.05,201c0,10.58-4.26,16.9-11.35,16.9s-11.39-6.32-11.39-16.9,4.26-16.9,11.39-16.9,11.35,6.32,11.35,16.9Zm-15.52-10.28c-1.38,2.41-2.11,6.06-2.11,10.28s.73,7.87,2.11,10.28c.9,1.55,2.37,2.41,4.17,2.41s3.22-.86,4.13-2.41c1.38-2.41,2.15-6.06,2.15-10.28s-.82-8-2.15-10.28c-.95-1.59-2.37-2.41-4.13-2.41s-3.27.82-4.17,2.41Z"/>
        </g>
      </g>
      <g>
        <path class="cls-25" d="m575.01,127.87h-3.64c-.19.29-.37.58-.59.9-.87,1.26-1.43,1.92-2.53,2.94-.29-.46-.51-.7-1.09-1.26,2.09-2.07,3.09-3.6,4.13-6.36l1.51.58c.24.1.36.2.36.29q0,.14-.48.25c-.17.42-.34.78-.49,1.12h6.9c1.02,0,2.52-.03,3.4-.07v1.67c-.88-.03-2.38-.07-3.4-.07h-2.41v2.28h2.7c.61,0,1.55-.02,2.02-.03v1.6c-.51-.03-1.46-.05-2.02-.05h-2.7v2.75h2.99c1.39,0,2.23-.02,3.38-.07v1.68c-.9-.03-2.35-.05-3.38-.05h-2.99v.53c0,1.56.02,2.72.05,3.48h-1.77c.03-.76.05-1.92.05-3.48v-.53h-4.27c-.94,0-2.46.02-3.38.05v-1.68c.73.03,1.92.05,2.87.07v-2.8q-.02-1.21-.03-1.5.46.02,1.99.03h2.82v-2.28Zm-3.18,3.79v2.75h3.18v-2.75h-3.18Z"/>
        <path class="cls-25" d="m588.34,140.02c.05-1.07.08-2.69.08-4.79-.85.37-1.39.6-3.08,1.28l-.08.19c-.07.14-.14.2-.24.2s-.19-.07-.24-.19l-.66-1.63c.37-.1.7-.19,1.02-.29v-6.51c0-1.34-.02-2.06-.05-2.55l1.72.12c.19,0,.29.07.29.17s-.08.19-.32.34v7.87c.54-.2,1.1-.42,1.65-.65v-4.22c0-2.79-.03-4.47-.1-5l1.8.12c.15,0,.25.08.25.17,0,.1-.08.19-.31.32q-.02.6-.03,4.39v5.69c0,2.23.03,3.88.08,4.96h-1.79Zm10.78-13c-.51,2.92-1.21,5.93-2.84,8.46.88,1.11,2.11,1.97,3.94,2.91-.59.54-.73.73-1.14,1.44-1.5-.83-2.79-1.87-3.79-3.01-.95,1.14-2.18,2.14-3.84,3.2-.37-.66-.54-.88-1-1.41,1.68-.99,2.84-1.94,3.83-3.18-.65-1.1-1.12-2.41-1.53-4.1-.29-1.19-.42-2.16-.59-4.11-.54.02-1.09.02-1.5.03v-1.67c.73.03,1.89.05,2.72.05h4.76l.22-.27,1.07,1.02c.08.08.14.17.14.25,0,.14-.08.22-.29.31l-.15.07Zm-5.47.19c.29,2.92.49,3.89,1.14,5.56.17.43.34.82.51,1.19,1.21-2.06,1.77-4.42,2.14-6.75h-3.79Z"/>
      </g>
      <g>
        <path class="cls-25" d="m581.44,198.4c-.22,2.7-.48,4.11-.94,5.46-.73,2.12-1.72,2.69-4.74,2.69h-.54q-.07-1.11-.22-1.9c.88.07.9.07,1.26.07,1.17,0,1.73-.2,2.14-.77.63-.92,1.02-2.55,1.26-5.27h-4.45c-.03.2-.07.39-.1.61-.44,2.38-1.72,4.45-3.62,5.93-.82.61-1.48,1-2.77,1.56-.25-.63-.48-1.04-.87-1.53,2.46-1.19,3.5-2.02,4.47-3.67,1.09-1.8,1.43-3.45,1.5-7.29h-2.06c-.93,0-2.46.03-3.4.07v-1.7c.88.05,2.41.07,3.4.07h8.52c1.07,0,2.52-.02,3.38-.07v1.7c-.9-.03-2.35-.07-3.38-.07h-4.73c-.03.95-.07,1.9-.15,2.86h4.91l.29-.32,1.16,1.04c.12.1.15.15.15.24,0,.1-.08.17-.29.24l-.17.07Z"/>
        <path class="cls-25" d="m587.93,202.94q.02,3.28.05,4h-1.85q.02-.71.05-3.31v-7.94q-.02-2.8-.05-3.31c.9.03,2.23.07,3.38.07h7c1.16,0,2.5-.03,3.38-.07q-.02.51-.03,3.31v6.7c0,.37.02,1.46.05,2.18v.25c0,1.02-.25,1.5-.93,1.82-.49.2-1.14.27-2.82.27-.05-1.04-.07-1.17-.32-1.96.75.05,1.14.07,1.65.07.54,0,.63-.1.63-.71v-3.89h-10.18v2.53Zm0-8.89v4.76h4.15v-4.76h-4.15Zm5.9,4.76h4.28v-4.76h-4.28v4.76Z"/>
      </g>
      <g>
        <g>
          <path class="cls-25" d="m546.13,156.16c.26-5.29,3.91-8.34,10.02-8.34,3.01,0,5.33.77,6.97,2.36,1.55,1.51,2.49,3.78,2.49,6.11,0,3.44-1.68,5.8-5.16,7.27,4,1.25,5.89,3.78,5.89,7.91,0,3.18-1.33,6.11-3.66,7.96-1.89,1.46-4.3,2.19-7.35,2.19-6.62,0-10.54-3.18-10.58-8.73h4.56c.09,2.79,2.19,4.34,6.02,4.34s5.93-2.11,5.93-5.68c0-2.41-1.16-4.17-3.27-4.99-.95-.34-2.71-.56-4.69-.56l-1.03.04v-4.21c.6.04.86.04,1.25.04,4.51,0,6.97-1.85,6.97-5.2,0-2.75-1.85-4.51-4.86-4.51s-4.9,1.5-5.16,4h-4.34Z"/>
          <path class="cls-25" d="m577.6,173.75c.82,2.28,2.54,3.48,5.12,3.48,3.57,0,5.98-2.92,5.98-7.31,0-4.08-2.19-6.79-5.46-6.79-2.28,0-3.96.95-5.42,3.1l-4.39-.6,2.79-17.16h15.78l-.39,4.52h-11.61l-1.33,7.83c1.81-1.33,3.22-1.81,5.33-1.81,5.93,0,9.98,4.3,9.98,10.71,0,3.22-1.08,6.11-3.05,8.38-2.15,2.41-4.69,3.53-8.04,3.53-5.42,0-9.37-3.1-10.15-7.87h4.86Z"/>
          <path class="cls-25" d="m622.54,164.76c0,10.58-4.26,16.9-11.35,16.9s-11.39-6.32-11.39-16.9,4.26-16.9,11.39-16.9,11.35,6.32,11.35,16.9Zm-15.52-10.28c-1.38,2.41-2.11,6.06-2.11,10.28s.73,7.87,2.11,10.28c.9,1.55,2.37,2.41,4.17,2.41s3.22-.86,4.13-2.41c1.38-2.41,2.15-6.06,2.15-10.28s-.82-8-2.15-10.28c-.95-1.59-2.37-2.41-4.13-2.41s-3.27.82-4.17,2.41Z"/>
        </g>
        <g>
          <path class="cls-24" d="m546.13,156.16c.26-5.29,3.91-8.34,10.02-8.34,3.01,0,5.33.77,6.97,2.36,1.55,1.51,2.49,3.78,2.49,6.11,0,3.44-1.68,5.8-5.16,7.27,4,1.25,5.89,3.78,5.89,7.91,0,3.18-1.33,6.11-3.66,7.96-1.89,1.46-4.3,2.19-7.35,2.19-6.62,0-10.54-3.18-10.58-8.73h4.56c.09,2.79,2.19,4.34,6.02,4.34s5.93-2.11,5.93-5.68c0-2.41-1.16-4.17-3.27-4.99-.95-.34-2.71-.56-4.69-.56l-1.03.04v-4.21c.6.04.86.04,1.25.04,4.51,0,6.97-1.85,6.97-5.2,0-2.75-1.85-4.51-4.86-4.51s-4.9,1.5-5.16,4h-4.34Z"/>
          <path class="cls-24" d="m577.6,173.75c.82,2.28,2.54,3.48,5.12,3.48,3.57,0,5.98-2.92,5.98-7.31,0-4.08-2.19-6.79-5.46-6.79-2.28,0-3.96.95-5.42,3.1l-4.39-.6,2.79-17.16h15.78l-.39,4.52h-11.61l-1.33,7.83c1.81-1.33,3.22-1.81,5.33-1.81,5.93,0,9.98,4.3,9.98,10.71,0,3.22-1.08,6.11-3.05,8.38-2.15,2.41-4.69,3.53-8.04,3.53-5.42,0-9.37-3.1-10.15-7.87h4.86Z"/>
          <path class="cls-24" d="m622.54,164.76c0,10.58-4.26,16.9-11.35,16.9s-11.39-6.32-11.39-16.9,4.26-16.9,11.39-16.9,11.35,6.32,11.35,16.9Zm-15.52-10.28c-1.38,2.41-2.11,6.06-2.11,10.28s.73,7.87,2.11,10.28c.9,1.55,2.37,2.41,4.17,2.41s3.22-.86,4.13-2.41c1.38-2.41,2.15-6.06,2.15-10.28s-.82-8-2.15-10.28c-.95-1.59-2.37-2.41-4.13-2.41s-3.27.82-4.17,2.41Z"/>
        </g>
        <g>
          <path class="cls-25" d="m546.13,156.16c.26-5.29,3.91-8.34,10.02-8.34,3.01,0,5.33.77,6.97,2.36,1.55,1.51,2.49,3.78,2.49,6.11,0,3.44-1.68,5.8-5.16,7.27,4,1.25,5.89,3.78,5.89,7.91,0,3.18-1.33,6.11-3.66,7.96-1.89,1.46-4.3,2.19-7.35,2.19-6.62,0-10.54-3.18-10.58-8.73h4.56c.09,2.79,2.19,4.34,6.02,4.34s5.93-2.11,5.93-5.68c0-2.41-1.16-4.17-3.27-4.99-.95-.34-2.71-.56-4.69-.56l-1.03.04v-4.21c.6.04.86.04,1.25.04,4.51,0,6.97-1.85,6.97-5.2,0-2.75-1.85-4.51-4.86-4.51s-4.9,1.5-5.16,4h-4.34Z"/>
          <path class="cls-25" d="m577.6,173.75c.82,2.28,2.54,3.48,5.12,3.48,3.57,0,5.98-2.92,5.98-7.31,0-4.08-2.19-6.79-5.46-6.79-2.28,0-3.96.95-5.42,3.1l-4.39-.6,2.79-17.16h15.78l-.39,4.52h-11.61l-1.33,7.83c1.81-1.33,3.22-1.81,5.33-1.81,5.93,0,9.98,4.3,9.98,10.71,0,3.22-1.08,6.11-3.05,8.38-2.15,2.41-4.69,3.53-8.04,3.53-5.42,0-9.37-3.1-10.15-7.87h4.86Z"/>
          <path class="cls-25" d="m622.54,164.76c0,10.58-4.26,16.9-11.35,16.9s-11.39-6.32-11.39-16.9,4.26-16.9,11.39-16.9,11.35,6.32,11.35,16.9Zm-15.52-10.28c-1.38,2.41-2.11,6.06-2.11,10.28s.73,7.87,2.11,10.28c.9,1.55,2.37,2.41,4.17,2.41s3.22-.86,4.13-2.41c1.38-2.41,2.15-6.06,2.15-10.28s-.82-8-2.15-10.28c-.95-1.59-2.37-2.41-4.13-2.41s-3.27.82-4.17,2.41Z"/>
        </g>
      </g>
      <g>
        <path class="cls-25" d="m764.67,79.55h-3.64c-.19.29-.37.58-.6.9-.87,1.26-1.43,1.92-2.53,2.94-.29-.46-.51-.7-1.09-1.26,2.09-2.07,3.09-3.6,4.13-6.36l1.51.58c.24.1.36.2.36.29q0,.14-.48.25c-.17.42-.34.78-.49,1.12h6.9c1.02,0,2.52-.03,3.4-.07v1.67c-.88-.03-2.38-.07-3.4-.07h-2.41v2.28h2.7c.61,0,1.55-.02,2.02-.03v1.6c-.51-.03-1.46-.05-2.02-.05h-2.7v2.75h2.99c1.39,0,2.23-.02,3.38-.07v1.68c-.9-.03-2.35-.05-3.38-.05h-2.99v.53c0,1.56.02,2.72.05,3.48h-1.77c.03-.76.05-1.92.05-3.48v-.53h-4.27c-.94,0-2.46.02-3.38.05v-1.68c.73.03,1.92.05,2.87.07v-2.8q-.02-1.21-.03-1.5.46.02,1.99.03h2.82v-2.28Zm-3.18,3.79v2.75h3.18v-2.75h-3.18Z"/>
        <path class="cls-25" d="m778,91.71c.05-1.07.08-2.69.08-4.79-.85.37-1.39.6-3.08,1.28l-.08.19c-.07.14-.14.2-.24.2s-.19-.07-.24-.19l-.66-1.63c.37-.1.7-.19,1.02-.29v-6.51c0-1.34-.02-2.06-.05-2.55l1.72.12c.19,0,.29.07.29.17s-.08.19-.32.34v7.87c.54-.2,1.1-.42,1.65-.65v-4.22c0-2.79-.03-4.47-.1-5l1.8.12c.15,0,.25.08.25.17,0,.1-.08.19-.31.32q-.02.6-.03,4.39v5.69c0,2.23.03,3.88.08,4.96h-1.79Zm10.78-13c-.51,2.92-1.21,5.93-2.84,8.46.88,1.11,2.11,1.97,3.94,2.91-.59.54-.73.73-1.14,1.44-1.5-.83-2.79-1.87-3.79-3.01-.95,1.14-2.18,2.14-3.84,3.2-.37-.66-.54-.88-1-1.41,1.68-.99,2.84-1.94,3.83-3.18-.65-1.1-1.12-2.41-1.53-4.1-.29-1.19-.42-2.16-.59-4.11-.54.02-1.09.02-1.5.03v-1.67c.73.03,1.89.05,2.72.05h4.76l.22-.27,1.07,1.02c.08.08.14.17.14.25,0,.14-.08.22-.29.31l-.15.07Zm-5.47.19c.29,2.92.49,3.89,1.14,5.56.17.43.34.82.51,1.19,1.21-2.06,1.77-4.42,2.14-6.75h-3.79Z"/>
      </g>
      <g>
        <path class="cls-25" d="m771.1,162.48c-.22,2.7-.48,4.11-.94,5.46-.73,2.12-1.72,2.69-4.74,2.69h-.54q-.07-1.11-.22-1.9c.88.07.9.07,1.26.07,1.17,0,1.73-.2,2.14-.77.63-.92,1.02-2.55,1.26-5.27h-4.45c-.03.2-.07.39-.1.61-.44,2.38-1.72,4.45-3.62,5.93-.82.61-1.48,1-2.77,1.56-.25-.63-.48-1.04-.87-1.53,2.46-1.19,3.5-2.02,4.47-3.67,1.09-1.8,1.43-3.45,1.5-7.29h-2.06c-.93,0-2.46.03-3.4.07v-1.7c.88.05,2.41.07,3.4.07h8.52c1.07,0,2.52-.02,3.38-.07v1.7c-.9-.03-2.35-.07-3.38-.07h-4.72c-.03.95-.07,1.9-.15,2.86h4.91l.29-.32,1.16,1.04c.12.1.15.15.15.24,0,.1-.09.17-.29.24l-.17.07Z"/>
        <path class="cls-25" d="m777.59,167.01q.02,3.28.05,4h-1.85q.02-.71.05-3.31v-7.94q-.02-2.8-.05-3.31c.9.03,2.23.07,3.38.07h7c1.16,0,2.5-.03,3.38-.07q-.02.51-.03,3.31v6.7c0,.37.02,1.46.05,2.18v.25c0,1.02-.25,1.5-.93,1.82-.49.2-1.14.27-2.82.27-.05-1.04-.07-1.17-.32-1.96.75.05,1.14.07,1.65.07.54,0,.63-.1.63-.71v-3.89h-10.18v2.53Zm0-8.89v4.76h4.15v-4.76h-4.15Zm5.9,4.76h4.28v-4.76h-4.28v4.76Z"/>
      </g>
      <g>
        <g>
          <path class="cls-25" d="m754.78,131.92v4.8h-5.45v8.8h-5.6v-8.8h-16.95v-4.55l16.15-25.15h6.4v24.9h5.45Zm-11.05-17.9l-11.25,17.9h11.25v-17.9Z"/>
          <path class="cls-25" d="m786.23,126.17c0,12.3-4.95,19.65-13.2,19.65s-13.25-7.35-13.25-19.65,4.95-19.65,13.25-19.65,13.2,7.35,13.2,19.65Zm-18.05-11.95c-1.6,2.8-2.45,7.05-2.45,11.95s.85,9.15,2.45,11.95c1.05,1.8,2.75,2.8,4.85,2.8s3.75-1,4.8-2.8c1.6-2.8,2.5-7.05,2.5-11.95s-.95-9.3-2.5-11.95c-1.1-1.85-2.75-2.8-4.8-2.8s-3.8.95-4.85,2.8Z"/>
          <path class="cls-25" d="m818.58,126.17c0,12.3-4.95,19.65-13.2,19.65s-13.25-7.35-13.25-19.65,4.95-19.65,13.25-19.65,13.2,7.35,13.2,19.65Zm-18.05-11.95c-1.6,2.8-2.45,7.05-2.45,11.95s.85,9.15,2.45,11.95c1.05,1.8,2.75,2.8,4.85,2.8s3.75-1,4.8-2.8c1.6-2.8,2.5-7.05,2.5-11.95s-.95-9.3-2.5-11.95c-1.1-1.85-2.75-2.8-4.8-2.8s-3.8.95-4.85,2.8Z"/>
        </g>
        <g>
          <path class="cls-24" d="m754.78,131.92v4.8h-5.45v8.8h-5.6v-8.8h-16.95v-4.55l16.15-25.15h6.4v24.9h5.45Zm-11.05-17.9l-11.25,17.9h11.25v-17.9Z"/>
          <path class="cls-24" d="m786.23,126.17c0,12.3-4.95,19.65-13.2,19.65s-13.25-7.35-13.25-19.65,4.95-19.65,13.25-19.65,13.2,7.35,13.2,19.65Zm-18.05-11.95c-1.6,2.8-2.45,7.05-2.45,11.95s.85,9.15,2.45,11.95c1.05,1.8,2.75,2.8,4.85,2.8s3.75-1,4.8-2.8c1.6-2.8,2.5-7.05,2.5-11.95s-.95-9.3-2.5-11.95c-1.1-1.85-2.75-2.8-4.8-2.8s-3.8.95-4.85,2.8Z"/>
          <path class="cls-24" d="m818.58,126.17c0,12.3-4.95,19.65-13.2,19.65s-13.25-7.35-13.25-19.65,4.95-19.65,13.25-19.65,13.2,7.35,13.2,19.65Zm-18.05-11.95c-1.6,2.8-2.45,7.05-2.45,11.95s.85,9.15,2.45,11.95c1.05,1.8,2.75,2.8,4.85,2.8s3.75-1,4.8-2.8c1.6-2.8,2.5-7.05,2.5-11.95s-.95-9.3-2.5-11.95c-1.1-1.85-2.75-2.8-4.8-2.8s-3.8.95-4.85,2.8Z"/>
        </g>
        <g>
          <path class="cls-19" d="m754.78,131.92v4.8h-5.45v8.8h-5.6v-8.8h-16.95v-4.55l16.15-25.15h6.4v24.9h5.45Zm-11.05-17.9l-11.25,17.9h11.25v-17.9Z"/>
          <path class="cls-18" d="m786.23,126.17c0,12.3-4.95,19.65-13.2,19.65s-13.25-7.35-13.25-19.65,4.95-19.65,13.25-19.65,13.2,7.35,13.2,19.65Zm-18.05-11.95c-1.6,2.8-2.45,7.05-2.45,11.95s.85,9.15,2.45,11.95c1.05,1.8,2.75,2.8,4.85,2.8s3.75-1,4.8-2.8c1.6-2.8,2.5-7.05,2.5-11.95s-.95-9.3-2.5-11.95c-1.1-1.85-2.75-2.8-4.8-2.8s-3.8.95-4.85,2.8Z"/>
          <path class="cls-22" d="m818.58,126.17c0,12.3-4.95,19.65-13.2,19.65s-13.25-7.35-13.25-19.65,4.95-19.65,13.25-19.65,13.2,7.35,13.2,19.65Zm-18.05-11.95c-1.6,2.8-2.45,7.05-2.45,11.95s.85,9.15,2.45,11.95c1.05,1.8,2.75,2.8,4.85,2.8s3.75-1,4.8-2.8c1.6-2.8,2.5-7.05,2.5-11.95s-.95-9.3-2.5-11.95c-1.1-1.85-2.75-2.8-4.8-2.8s-3.8.95-4.85,2.8Z"/>
        </g>
      </g>
      <g>
        <path class="cls-26" d="m545.8,235.5l1.46,1.19c.12.1.17.17.17.27,0,.12-.12.22-.42.31-.68,2.38-1.56,4.18-2.8,5.66-1.63,1.96-3.47,3.23-6.8,4.76-.36-.8-.66-1.21-1.22-1.62,3.38-1.41,5.12-2.57,6.65-4.44.97-1.16,1.87-2.87,2.18-4.11l-4.27.31c-2.29.14-3.98.24-4.81.34l-.19-1.9.49.02c.31,0,.68-.02,1.39-.05.42-.02.92-.05,1.44-.07.78-.03,1.33-.05,1.63-.07l4.81-.27.29-.32Z"/>
        <path class="cls-26" d="m556.9,234.85c.19,0,.29.07.29.17s-.07.17-.32.34q0,.49-.02,1.92v3.25c0,1.19.02,1.94.03,2.48h-1.99c.03-.58.05-1.36.05-2.48v-3.25c0-1.34-.02-2.07-.05-2.55l2.01.12Zm5.03,5.2c0,3.6-.53,5.17-2.26,6.61-.97.8-1.8,1.26-3.64,2-.31-.88-.56-1.27-1.09-1.67,1.46-.49,2.57-1.05,3.35-1.7,1.28-1.05,1.72-2.36,1.72-5.08v-3.32c0-1.29-.02-2.07-.05-2.55l2.01.12c.19.02.29.07.29.19,0,.08-.07.17-.29.32q-.03.49-.03,1.92v3.15Z"/>
        <path class="cls-26" d="m582.01,241.82c-.8-.02-2.14-.05-3.04-.05h-7.12c-.83,0-2.31.03-3.04.05v-1.82c.7.02,2.18.05,3.04.05h7.12c.93,0,2.28-.02,3.04-.05v1.82Z"/>
        <path class="cls-26" d="m586.89,237.94c.53.02,1.19.03,1.7.03h7.73l.25-.29,1.33,1.19c.14.12.17.17.17.26,0,.14-.12.22-.41.31-.7,2.12-1.53,3.64-2.87,5.13-1.38,1.53-3.04,2.69-5.59,3.88-.51-.9-.68-1.17-1.09-1.6,2.96-1.24,4.76-2.57,6.21-4.57.61-.85,1.12-1.84,1.36-2.6h-7.09c-.46,0-1.14.02-1.7.03v-1.77Zm9.62-1.77c-.48-.02-1.21-.03-1.7-.03h-4.73c-.49,0-1.21.02-1.7.03v-1.77c.49.02,1.21.03,1.7.03h4.73c.49,0,1.22-.02,1.7-.03v1.77Z"/>
        <path class="cls-26" d="m604.59,235.82c1.77.92,2.41,1.39,3.59,2.69l-1.34,1.48c-1.22-1.36-2.11-2.07-3.37-2.75l1.12-1.41Zm-.65,9.59c2.57-1.09,4.03-1.92,5.97-3.38,2.26-1.73,3.59-3.08,5.34-5.46.34.59.63.97,1.17,1.62-2.24,2.7-3.5,3.94-5.49,5.44-1.67,1.26-2.92,2.02-5.34,3.25-.07.24-.14.36-.25.36-.08,0-.22-.08-.29-.2l-1.11-1.62Z"/>
        <path class="cls-26" d="m620.99,236.45c1.44,0,3.89-.07,5.15-.14l3.11-.19.25-.31,1.29,1.17c.14.14.17.17.17.27s-.07.15-.2.19l-.2.05c-1.43,2.4-1.5,2.48-2.43,3.64.05.03.15.1.24.17,1.5,1.16,1.68,1.31,2.58,2.24.73.75,1.07,1.16,1.7,2.02l-1.48,1.31c-1.16-1.65-1.89-2.52-2.74-3.26q-1.22-1.05-1.44-1.22c-1.82,1.92-3.76,3.25-6.66,4.55-.41-.85-.54-1.07-.99-1.61,3.35-1.46,5.03-2.62,7.02-4.83.78-.87,1.34-1.61,1.8-2.36q.14-.2.22-.36l-2.14.2c-.15.02-.75.05-1.62.1-.82.05-2.7.19-3.48.25l-.15-1.9Z"/>
        <path class="cls-26" d="m542.21,263.88h3.03q1.51-.02,2-.03-.02.31-.03,1.5v.53l2.07-.05v1.44c-.7-.02-1.38-.05-2.07-.05v.95c0,.63,0,.85.03,1.68h-1.65v-.59h-3.33v.31c0,.05.02.1.02.25,0,.88-.15,1.29-.56,1.6-.49.34-.95.43-2.7.43-.03-.65-.12-1.11-.32-1.75.51.05.82.07,1.21.07.65,0,.71-.07.71-.71v-.19h-3.94c-.56,0-1.51.02-2.04.05v-1.41c.51.02,1.38.03,2.04.03h3.94v-.73h-3.71c-.93,0-2.46.03-3.38.07v-1.44c.88.03,2.41.07,3.38.07h3.71v-.7h-3.94c-.56,0-1.51.03-2.04.05v-1.41c.51.03,1.38.05,2.04.05h3.94v-.82h-2.97v.41h-1.6c.02-.39.03-.97.03-1.72v-.53c0-.53-.02-1.19-.03-1.5.37.02.71.03,1.22.03h3.35l-.02-.8h-3.45c-.93,0-2.46.03-3.38.07v-1.53c.87.03,2.41.05,3.38.05h3.43c0-.49-.02-1-.07-1.5l1.78.12c.15.02.25.08.25.19,0,.08-.08.17-.31.32-.02.29-.02.58-.02.87h3.43c1.07,0,2.52-.02,3.38-.05v1.53c-.9-.03-2.35-.07-3.38-.07h-3.43c-.02.27-.02.53-.02.8h3.33c.51,0,.85-.02,1.24-.03-.03.31-.05.97-.05,1.5v.44c0,.8.02,1.38.05,1.77h-1.61v-.37h-2.96v.82Zm-1.6-2.86h-2.97v.78h2.97v-.78Zm4.56.78v-.78h-2.96v.78h2.96Zm.42,3.38h-3.38v.7h3.38v-.7Zm0,2.01h-3.37v.73h3.37v-.73Z"/>
        <path class="cls-26" d="m556.8,258.05c-.37.42-.75.83-1.16,1.21-.32.31-.66.58-1,.87.15.19.31.37.44.56l-.78.58h2.21l.22-.32.97.92c.12.1.14.15.14.22,0,.14-.1.2-.36.25l-.1.02c-.15.36-.22.51-.61,1.43-.19.46-.32.71-.56,1.12-.41-.41-.76-.68-1.21-.95.24-.42.41-.76.61-1.26h-.83v4.01c0,.63.02,1.82.03,3.06v.17c0,.83-.14,1.21-.58,1.46-.48.31-1.02.37-2.65.37-.05-.7-.1-.95-.32-1.73.56.05.83.07,1.24.07.58,0,.68-.08.68-.63l-.02-3.98c-.61,1.38-1.26,2.46-2.14,3.67-.17-.46-.34-.71-.88-1.43,1.11-1.41,2.06-3.13,2.79-5.05h-1.02c-.46,0-1,0-1.36.02v-1.48c.37.02.99.03,1.36.03h1.75c-.51-.73-1.1-1.38-1.75-1.99l.97-.87c.31.25.59.49.88.76.37-.31.73-.63,1.07-.97h-2.48c-.46,0-.99,0-1.34.02v-1.39c.37.02.99.03,1.34.03h3.72l.22-.27,1,.93c.12.12.14.15.14.24,0,.14-.08.2-.31.24l-.32.05Zm4.84,9.01c-.27.8-.65,1.48-1.16,2.12-.99,1.24-2.14,1.99-4.2,2.69-.22-.61-.36-.9-.66-1.43,2.11-.75,2.87-1.24,3.72-2.4.24-.32.44-.65.61-.99h-1.27c-.49,0-1.21.02-1.68.03v-1.55c.48.02,1.19.03,1.68.03h1.78c.12-.53.2-1.12.25-1.87l1.51.27c.19.03.27.1.27.2,0,.12-.08.19-.32.27-.05.41-.1.77-.17,1.12h2.62l.24-.31.97,1c.14.14.15.15.15.22,0,.12-.08.19-.29.25l-.17.07c-.22,2.16-.59,3.52-1.12,4.15-.56.65-1.05.76-3.26.76h-.17c-.02-.68-.08-1.09-.22-1.7.59.05.83.07,1.07.07.97,0,1.26-.12,1.53-.66.24-.51.39-1.19.54-2.38h-2.26Zm2.77-7.68c-.43.9-.95,1.73-1.6,2.46.83.54,1.79.92,3.62,1.44-.31.48-.53.95-.68,1.45-1.9-.56-2.92-1.04-4.01-1.89-1.09.9-1.97,1.33-4.01,2.02-.24-.65-.39-.95-.71-1.36,1.7-.56,2.63-.99,3.57-1.67-.48-.51-.83-1.11-1.14-1.73-.32.53-.65.97-1.05,1.48-.1-.12-.19-.22-.24-.27q-.34-.39-.85-.82c1.24-1.51,1.78-2.52,2.48-4.5l1.31.53c.24.08.27.12.27.22,0,.12-.05.15-.34.25-.15.34-.29.65-.42.92h4.08c.37,0,.99,0,1.36-.02v1.5c-.36-.02-.9-.02-1.36-.02h-.27Zm-3.89,0c.31.56.66,1.1,1.14,1.56.44-.46.78-1,1.07-1.56h-2.21Z"/>
        <path class="cls-26" d="m574.6,266.18c0-.46,0-.9-.03-1.36-1.62.49-3.6.83-6.24,1.05-.05-.34-.29-1.07-.46-1.41,2.45-.14,4.2-.36,5.66-.71-.61-.12-1.22-.2-1.85-.27-.15.17-.31.34-.46.49l-1.21-.97c.48-.37.88-.8,1.29-1.24h-.08c-.95,0-2.48.02-3.4.05v-1.43c.88.03,2.41.05,3.4.05h1.26c.29-.36.56-.71.83-1.09.15-.24.32-.48.44-.73l1.5.75c.08.03.15.12.15.22,0,.14-.12.2-.53.24-.19.22-.36.42-.53.61h5.22c1.07,0,2.53-.02,3.4-.05v1.43c-.9-.03-2.36-.05-3.4-.05h-.08c-.49.59-1.05,1.12-1.68,1.56l.15.03c2.33.53,2.62.61,4.27,1.16l-.95,1.33c-1.89-.71-2.5-.9-4.93-1.46l-.32-.08c-.39.17-.76.32-1.17.44l1.46.08c.19.02.29.08.29.17,0,.1-.1.2-.34.34v.85h3.59c1.07,0,2.52-.03,3.38-.07v1.44c-.9-.03-2.35-.07-3.38-.07h-2.57c.49.36,1.02.65,1.73.99,1.36.65,2.45,1,4.54,1.48-.37.46-.49.66-.76,1.45-2.11-.56-3.2-1-4.62-1.85-.82-.48-1.41-.9-1.92-1.34v1.16c0,1.19.02,2.01.05,2.5h-1.72c.03-.61.03-1.41.03-2.5v-1.16c-1.77,1.48-3.94,2.58-6.73,3.42-.17-.56-.31-.85-.65-1.39,1.62-.42,2.63-.8,4.03-1.48.9-.43,1.46-.75,2.11-1.26h-2.38c-.93,0-2.46.03-3.38.07v-1.44c.87.03,2.41.07,3.38.07h3.62Zm0-9.14c0-.48,0-.85-.02-1.11l1.67.12c.2.02.32.08.32.17,0,.1-.1.2-.34.34v.65h3.01c1.17,0,2.5-.02,3.38-.07-.03.46-.03.73-.03,1v.63c0,.37.02.78.05,1.21h-1.75c.03-.37.05-.87.05-1.21v-.24h-11.05v.24c0,.34.02.83.03,1.21h-1.73c.03-.42.05-.83.05-1.21v-.63c0-.27-.02-.54-.03-1,.87.05,2.21.07,3.37.07h3.03v-.17Zm-1.38,4.73c-.2.24-.41.46-.63.7,1.1.14,2.21.27,3.3.48.59-.31,1.12-.71,1.6-1.17h-4.27Z"/>
        <path class="cls-26" d="m587.87,260.91c.17.02.29.08.29.17,0,.1-.1.2-.32.34-.02.85-.03,1.67-.03,2.91v4.05c0,1.53.02,2.74.05,3.48h-1.73c.03-.76.05-1.92.05-3.48v-4.73c-.29.66-.51,1.1-.93,1.84-.39-.85-.56-1.11-1.02-1.63,1.43-2.36,2.38-4.84,3.06-7.96l1.63.63c.15.05.24.14.24.24,0,.14-.05.17-.41.29-.49,1.68-.73,2.38-1.34,3.83l.48.03Zm5.93-1.17c-.02-1.95-.07-3.16-.12-3.59l1.87.12c.15,0,.25.08.25.17,0,.1-.08.19-.31.32-.02.51-.02.58-.03,2.97h1.79c.7,0,1.75-.02,2.36-.05v1.65c-.61-.02-1.67-.03-2.36-.03h-1.79v3.18h2.52c.68,0,1.79-.02,2.38-.03v1.65c-.63-.03-1.73-.05-2.38-.05h-2.52v.8c0,2.23.03,3.88.08,4.96h-1.84c.05-1.11.08-2.77.08-4.96v-.8h-2.72c-.73,0-1.68.02-2.38.05v-1.65c.65.02,1.61.03,2.38.03h2.72v-3.18h-2.74c-.51,1.04-1.05,1.94-1.75,2.84-.65-.7-.68-.71-1.29-1.12,1.43-1.84,2.38-3.91,2.87-6.26l1.56.51c.24.07.32.14.32.25,0,.14-.03.15-.41.31-.22.7-.42,1.33-.65,1.9h2.07Z"/>
        <path class="cls-26" d="m609.62,260.15c.19.07.27.14.27.25s-.09.19-.27.2l-.2.03c-.08.14-.19.29-.27.42h4.4c1.07,0,2.52-.03,3.38-.07v1.65c-.9-.03-2.35-.07-3.38-.07h-.76c1.07,1.36,2.29,2.09,4.79,2.96-.44.54-.65.87-.92,1.44-1.39-.54-2.07-.9-2.94-1.51-1.19-.87-1.92-1.65-2.63-2.89h-3.01c-.63.76-1.24,1.34-2.04,1.97-1.21.94-2.19,1.5-4.03,2.28-.27-.63-.39-.83-.8-1.38,1.92-.82,2.97-1.39,4.13-2.33.22-.19.42-.36.63-.54h-.65c-.93,0-2.46.03-3.38.07v-1.65c.87.03,2.41.07,3.38.07h1.99c.31-.41.59-.85.87-1.29-1.22.07-2.45.12-3.67.22l-.17.15c-.1.1-.15.14-.22.14-.1,0-.19-.1-.25-.29l-.53-1.65,1.5.02c.49,0,.99,0,1.46-.02.7-.76,1.21-1.68,1.77-2.55l1.51.66c.08.03.15.12.15.19,0,.14-.07.15-.42.2-.51.63-.75.92-1.24,1.46,1.33-.02,2.63-.07,3.94-.14-.32-.27-.66-.53-1-.78l.95-.97c1.67,1.02,2.87,1.99,3.88,3.16l-1.19,1.09c-.37-.46-.76-.9-1.17-1.31-1.07.14-2.16.2-3.23.29-.58.03-1.16.07-1.72.1l1.1.39Zm1.41,4.4c-1.09.94-1.82,1.41-3.25,2.07-1.44.7-2.38,1.02-4.08,1.44-.25-.75-.27-.82-.56-1.39,1.63-.42,2.55-.75,3.79-1.33,1.33-.61,2.02-1.07,3.09-2.02l1.26.78c.19.1.22.15.22.25,0,.12-.1.19-.25.19h-.22Zm4.5,4.11c-1.82,1.09-2.99,1.61-4.83,2.12-2.12.6-3.65.87-6.7,1.16-.14-.66-.2-.92-.46-1.51,2.96-.29,4.39-.53,6.39-1.07,1.9-.49,2.92-.95,4.56-2.04l1.31.9c.2.14.22.15.22.24,0,.14-.1.2-.27.2h-.22Zm-2.48-2.01c-2.53,1.65-4.49,2.38-8.87,3.33-.14-.51-.29-.99-.49-1.46,4.18-.82,5.97-1.48,8.36-3.18l1.28.87c.2.14.22.15.22.25,0,.12-.1.19-.27.19h-.22Z"/>
        <path class="cls-26" d="m623.91,268.51h-1.67c.02-.68.03-1.68.03-2.99v-2.89c0-1.04-.02-2.18-.03-2.7.44.02.85.02,1.44.02h1.9v-1.43h-3.66c-.93,0-2.46.03-3.38.07v-1.7c.88.05,2.41.07,3.38.07h8.94c1.07,0,2.52-.02,3.38-.07v1.7c-.9-.03-2.35-.07-3.38-.07h-3.64v1.43h1.96c.58,0,.99,0,1.44-.02q-.03.54-.05,2.7v2.65c0,1.34.02,2.35.05,2.97h-1.68v-.51h-5.05v.76Zm-2.86,2.29v.87h-1.72c.03-.75.07-1.92.07-3.48v-5.15c0-1.94-.03-3.01-.08-3.54l1.8.12c.17,0,.29.07.29.17,0,.08-.1.19-.34.32q-.02.48-.02,2.92v6.2h10.71v-6.2c0-1.94-.02-3.01-.07-3.54l1.8.12c.17,0,.27.07.27.17,0,.08-.08.19-.32.32q-.02.48-.02,2.92v5.15c0,1.53.02,2.74.03,3.48h-1.7v-.87h-10.71Zm2.86-9.38v1.58h1.68v-1.58h-1.68Zm1.68,4.84v-1.78h-1.68v1.78h1.68Zm3.37-4.84h-1.72v1.58h1.72v-1.58Zm0,3.06h-1.72v1.78h1.72v-1.78Z"/>
      </g>
      <g>
        <path class="cls-26" d="m357.86,274.6c0-1.34-.02-2.06-.05-2.55l1.77.12c.19,0,.29.07.29.17s-.08.19-.32.34v7.6h2.92v-10.79h-3.69c-.83,0-2.31.03-3.04.07v-1.68c.7.03,2.18.05,3.04.05h8.24c.93,0,2.29-.02,3.04-.05v1.68c-.8-.03-2.14-.07-3.04-.07h-2.87v4.28h3.25c.36,0,.99-.02,1.36-.03v1.62c-.36-.02-.9-.03-1.36-.03h-3.25v4.96h3.18c1.07,0,2.52-.03,3.38-.07v1.68c-.9-.03-2.35-.07-3.38-.07h-8.94c-.93,0-2.46.03-3.38.07v-1.68c.73.03,1.92.05,2.86.07v-5.68Z"/>
        <path class="cls-26" d="m373.38,271.4l-1.34.02v-1.6c.37.02.99.03,1.34.03h1.11v-1.45c0-.76,0-.97-.02-1.56l1.67.1c.19.02.31.08.31.17,0,.12-.1.2-.34.34v2.4h1.05l.2-.27,1,.88c.07.07.14.19.14.27,0,.14-.05.19-.39.27-.32.7-.66,1.38-1.05,2.02-.29.48-.61.92-.95,1.38v.27c1.02.58,1.55.97,2.7,2.02l-1.14,1.36c-.68-.75-1.12-1.22-1.56-1.62v2.62c0,1.56.02,2.72.05,3.48h-1.72c.03-.76.05-1.92.05-3.48v-2.86c-.88.92-1.28,1.24-2.28,1.99-.05-.14-.1-.25-.14-.34-.08-.24-.27-.65-.54-1.22,2.4-1.85,3.6-3.18,4.66-5.24h-2.8Zm8.5,2.28h-1.46c-.56,0-1.53.03-2.04.05v-1.65c.51.03,1.38.05,2.04.05h1.46v-2.55c0-1.34-.02-2.06-.05-2.55l1.77.12c.19.02.29.07.29.17s-.08.19-.32.34l-.02,1.92v2.55h1.87c.66,0,1.53-.02,2.04-.05v1.65c-.53-.02-1.48-.05-2.04-.05h-1.87v6.94h1.82c.68,0,1.78-.02,2.38-.05v1.65c-.63-.02-1.73-.03-2.38-.03h-5.9c-.71,0-1.67.02-2.36.03v-1.65c.65.03,1.62.05,2.36.05h2.41v-6.94Z"/>
        <path class="cls-26" d="m395.7,280.17c.14.07.2.15.2.26,0,.17-.1.22-.54.25-1.84,1.04-3.3,1.53-5.78,1.95-.14-.71-.27-1.07-.65-1.56,2.41-.32,3.82-.73,5.46-1.55l1.31.65Zm-2.77-.2h-1.75c.03-.68.05-1.67.05-2.98v-2.24c0-1.02-.02-2.16-.05-2.7.68.02,1.33.03,2.28.03h6.87c.99,0,1.68-.02,2.38-.03q-.03.56-.05,2.7v2.18c0,1.36.02,2.35.05,2.99h-1.75v-.48h-8.02v.53Zm.59-8.43h-1.67c.03-.41.05-.97.05-1.8v-.78c0-.54-.02-1.19-.05-1.5.59.02,1.12.03,1.87.03h6.32c.77,0,1.29-.02,1.89-.03-.03.31-.05.95-.05,1.5v.8c0,.8.02,1.38.05,1.77h-1.68v-.41h-6.73v.42Zm7.43,1.9h-8.02v.78h8.02v-.78Zm-8.02,2.74h8.02v-.78h-8.02v.78Zm0,1.96h8.02v-.78h-8.02v.78Zm7.33-9.4h-6.73v1.14h6.73v-1.14Zm-1.44,10.76c1.82.78,3.47,1.19,6.05,1.55-.42.54-.59.87-.76,1.58-1.43-.22-1.97-.34-3.25-.73-1.48-.44-1.96-.63-3.03-1.19l.99-1.21Z"/>
        <path class="cls-26" d="m414.66,274.65h3.03q1.51-.02,2-.03-.02.31-.03,1.5v.53l2.07-.05v1.44c-.7-.02-1.38-.05-2.07-.05v.95c0,.63,0,.85.03,1.68h-1.65v-.59h-3.33v.31c0,.05.02.1.02.25,0,.88-.15,1.29-.56,1.6-.49.34-.95.43-2.7.43-.03-.65-.12-1.11-.32-1.75.51.05.82.07,1.21.07.65,0,.71-.07.71-.71v-.19h-3.94c-.56,0-1.51.02-2.04.05v-1.41c.51.02,1.38.03,2.04.03h3.94v-.73h-3.71c-.93,0-2.46.03-3.38.07v-1.44c.88.03,2.41.07,3.38.07h3.71v-.7h-3.94c-.56,0-1.51.03-2.04.05v-1.41c.51.03,1.38.05,2.04.05h3.94v-.82h-2.97v.41h-1.6c.02-.39.03-.97.03-1.72v-.53c0-.53-.02-1.19-.03-1.5.37.02.71.03,1.22.03h3.35l-.02-.8h-3.45c-.93,0-2.46.03-3.38.07v-1.53c.87.03,2.41.05,3.38.05h3.43c0-.49-.02-1-.07-1.5l1.78.12c.15.02.25.08.25.19,0,.08-.08.17-.31.32-.02.29-.02.58-.02.87h3.43c1.07,0,2.52-.02,3.38-.05v1.53c-.9-.03-2.35-.07-3.38-.07h-3.43c-.02.27-.02.53-.02.8h3.33c.51,0,.85-.02,1.24-.03-.03.31-.05.97-.05,1.5v.44c0,.8.02,1.38.05,1.77h-1.61v-.37h-2.96v.82Zm-1.6-2.86h-2.97v.78h2.97v-.78Zm4.56.78v-.78h-2.96v.78h2.96Zm.42,3.38h-3.38v.7h3.38v-.7Zm0,2.01h-3.37v.73h3.37v-.73Z"/>
        <path class="cls-26" d="m429.24,268.82c-.37.42-.75.83-1.16,1.21-.32.31-.66.58-1,.87.15.19.31.37.44.56l-.78.58h2.21l.22-.32.97.92c.12.1.14.15.14.22,0,.14-.1.2-.36.25l-.1.02c-.15.36-.22.51-.61,1.43-.19.46-.32.71-.56,1.12-.41-.41-.76-.68-1.21-.95.24-.42.41-.76.61-1.26h-.83v4.01c0,.63.02,1.82.03,3.06v.17c0,.83-.14,1.21-.58,1.46-.48.31-1.02.37-2.65.37-.05-.7-.1-.95-.32-1.73.56.05.83.07,1.24.07.58,0,.68-.08.68-.63l-.02-3.98c-.61,1.38-1.26,2.46-2.14,3.67-.17-.46-.34-.71-.88-1.43,1.11-1.41,2.06-3.13,2.79-5.05h-1.02c-.46,0-1,0-1.36.02v-1.48c.37.02.99.03,1.36.03h1.75c-.51-.73-1.1-1.38-1.75-1.99l.97-.87c.31.25.59.49.88.76.37-.31.73-.63,1.07-.97h-2.48c-.46,0-.99,0-1.34.02v-1.39c.37.02.99.03,1.34.03h3.72l.22-.27,1,.93c.12.12.14.15.14.24,0,.14-.08.2-.31.24l-.32.05Zm4.84,9.01c-.27.8-.65,1.48-1.16,2.12-.99,1.24-2.14,1.99-4.2,2.69-.22-.61-.36-.9-.66-1.43,2.11-.75,2.87-1.24,3.72-2.4.24-.32.44-.65.61-.99h-1.27c-.49,0-1.21.02-1.68.03v-1.55c.48.02,1.19.03,1.68.03h1.78c.12-.53.2-1.12.25-1.87l1.51.27c.19.03.27.1.27.2,0,.12-.08.19-.32.27-.05.41-.1.77-.17,1.12h2.62l.24-.31.97,1c.14.14.15.15.15.22,0,.12-.08.19-.29.25l-.17.07c-.22,2.16-.59,3.52-1.12,4.15-.56.65-1.05.76-3.26.76h-.17c-.02-.68-.08-1.09-.22-1.7.59.05.83.07,1.07.07.97,0,1.26-.12,1.53-.66.24-.51.39-1.19.54-2.38h-2.26Zm2.77-7.68c-.43.9-.95,1.73-1.6,2.46.83.54,1.79.92,3.62,1.44-.31.48-.53.95-.68,1.45-1.9-.56-2.92-1.04-4.01-1.89-1.09.9-1.97,1.33-4.01,2.02-.24-.65-.39-.95-.71-1.36,1.7-.56,2.63-.99,3.57-1.67-.48-.51-.83-1.11-1.14-1.73-.32.53-.65.97-1.05,1.48-.1-.12-.19-.22-.24-.27q-.34-.39-.85-.82c1.24-1.51,1.78-2.52,2.48-4.5l1.31.53c.24.08.27.12.27.22,0,.12-.05.15-.34.25-.15.34-.29.65-.42.92h4.08c.37,0,.99,0,1.36-.02v1.5c-.36-.02-.9-.02-1.36-.02h-.27Zm-3.89,0c.31.56.66,1.1,1.14,1.56.44-.46.78-1,1.07-1.56h-2.21Z"/>
      </g>
      <g>
        <path class="cls-26" d="m718.46,200.64l1.46,1.19c.12.1.17.17.17.27,0,.12-.12.22-.42.31-.68,2.38-1.56,4.18-2.8,5.66-1.63,1.96-3.47,3.23-6.8,4.76-.36-.8-.66-1.21-1.22-1.62,3.38-1.41,5.12-2.57,6.65-4.44.97-1.16,1.87-2.87,2.18-4.11l-4.27.31c-2.29.14-3.98.24-4.81.34l-.19-1.9.49.02c.31,0,.68-.02,1.39-.05.42-.02.92-.05,1.44-.07.78-.03,1.33-.05,1.63-.07l4.81-.27.29-.32Z"/>
        <path class="cls-26" d="m729.64,202.51c.1.02.2.1.2.19,0,.1-.08.19-.31.31-.31,2.96-.6,4.06-1.39,5.34-.87,1.39-1.78,2.23-3.88,3.5-.22-.59-.58-1.1-1.12-1.63,1.67-.97,2.36-1.53,3.09-2.48.97-1.29,1.39-2.96,1.39-5.34v-.08l2.01.2Zm1.17,7.39c.15-.54.19-1.22.19-3.16v-2.97c0-1.31-.02-2.04-.05-2.55l1.96.12c.2.02.31.07.31.19,0,.08-.08.17-.32.32q-.02.27-.03,1.92v4.81c2.41-1.17,3.74-2.14,5.73-4.18.31.88.42,1.17.7,1.82-2.28,2.11-3.76,3.09-6.58,4.45-.08.22-.17.32-.27.32-.07,0-.17-.03-.25-.1l-1.36-.99Z"/>
        <path class="cls-26" d="m746.56,200c.19,0,.29.07.29.17s-.07.17-.32.34q0,.49-.02,1.92v3.25c0,1.19.02,1.94.03,2.48h-1.99c.03-.58.05-1.36.05-2.48v-3.25c0-1.34-.02-2.07-.05-2.55l2.01.12Zm5.03,5.2c0,3.6-.53,5.17-2.26,6.61-.97.8-1.8,1.26-3.64,2-.31-.88-.56-1.27-1.09-1.67,1.46-.49,2.57-1.05,3.35-1.7,1.28-1.05,1.72-2.36,1.72-5.08v-3.32c0-1.29-.02-2.07-.05-2.55l2.01.12c.19.02.29.07.29.19,0,.08-.07.17-.29.32q-.03.49-.03,1.92v3.15Z"/>
        <path class="cls-26" d="m764.82,209.77c0,.58.15.65,1.33.65,1.43,0,2.45-.05,4.06-.22l.02,1.75c-1.48.15-2.41.2-4.5.2-2.28,0-2.69-.32-2.69-2.12v-2.87l-3.04.07c-.73.02-1.68.07-2.38.1l-.02-1.77q.27.02.49.02c.42,0,1.5,0,1.89-.02l3.06-.07v-1.43c0-.54,0-.7-.02-1.1l1.8.12c.2.02.32.07.32.17s-.08.2-.32.34v1.87l4.45-.1c.7-.02,1.72-.07,2.38-.12l.02,1.77h-2.36l-4.49.12v2.65Zm4.44-7.22c-.17-.02-.27-.02-.31-.02-.17,0-.77,0-1.73.02l-5.56.12c-.51.02-1.38.05-2.04.08l-.02-1.75c.6.02,1.67.02,2.02,0l5.58-.14c.88-.02,1.46-.03,2.02-.08l.03,1.77Z"/>
        <path class="cls-26" d="m788.67,206.96c-.8-.02-2.14-.05-3.04-.05h-7.12c-.83,0-2.31.03-3.04.05v-1.82c.7.02,2.18.05,3.04.05h7.12c.93,0,2.28-.02,3.04-.05v1.82Z"/>
        <path class="cls-26" d="m798.75,204.04c2.28.83,3.64,1.51,5.32,2.6l-1.07,1.62c-1.31-.99-2.62-1.72-4.25-2.38v3.62c0,1.6.02,2.6.03,3.47h-2.02c.1-.83.15-1.94.15-3.47v-6.8c0-1.94-.02-3.01-.07-3.54l1.99.12c.17,0,.27.07.27.17s-.1.2-.32.32c-.03,1.12-.03,1.33-.03,2.92v1.34Z"/>
        <path class="cls-26" d="m812.2,200.27c.19.05.31.15.31.29,0,.19-.12.29-.46.41-.65,3.59-.73,4.42-.73,6.43s.22,3.38.85,5.08c-.73.22-1.16.37-1.73.65-.59-1.63-.87-3.43-.87-5.73,0-1.84.12-3.06.66-6.51.07-.41.1-.59.12-.97l1.85.36Zm3.89,7.17c-.48.63-.61.95-.61,1.33,0,.88,1,1.26,3.38,1.26,1.58,0,2.69-.14,4.03-.48-.14.82-.2,1.38-.22,2-1.11.17-2.41.26-3.69.26-1.46,0-2.62-.12-3.37-.37-1.22-.41-1.84-1.21-1.84-2.4,0-.8.24-1.36,1-2.4l1.31.8Zm-1.92-5.34c2.01-.53,3.33-.7,5.22-.7,1.05,0,1.82.05,2.94.19l-.27,1.67c-.31-.02-.54-.03-.7-.05-1.05-.08-1.55-.1-2.48-.1-1.67,0-2.55.14-4.33.7l-.37-1.7Z"/>
        <path class="cls-26" d="m839.31,201.71q.12.19.12.29c0,.14-.07.17-.54.2-1.75.12-2.74.44-3.89,1.29-1.65,1.22-2.55,2.74-2.55,4.3,0,1.46,1.14,2.57,3.04,2.96.93.19,1.77.27,3.09.29-.29.53-.42.9-.68,1.84-1.65-.1-2.57-.24-3.65-.54-2.29-.65-3.6-2.28-3.6-4.52,0-1.85.85-3.31,2.75-4.76-1.53.36-5.22,1.21-6.17,1.43-.42.08-.53.12-.85.2l-.42-1.94c1.53-.14,3.65-.48,7.58-1.22,3.33-.63,3.79-.73,4.9-1.14l.88,1.33Z"/>
        <path class="cls-26" d="m731.87,229.03h3.03q1.51-.02,2-.03-.02.31-.03,1.5v.53l2.07-.05v1.44c-.7-.02-1.38-.05-2.07-.05v.95c0,.63,0,.85.03,1.68h-1.65v-.59h-3.33v.31c0,.05.02.1.02.25,0,.88-.15,1.29-.56,1.6-.49.34-.95.43-2.7.43-.03-.65-.12-1.11-.32-1.75.51.05.82.07,1.21.07.65,0,.71-.07.71-.71v-.19h-3.94c-.56,0-1.51.02-2.04.05v-1.41c.51.02,1.38.03,2.04.03h3.94v-.73h-3.71c-.93,0-2.46.03-3.38.07v-1.44c.88.03,2.41.07,3.38.07h3.71v-.7h-3.94c-.56,0-1.51.03-2.04.05v-1.41c.51.03,1.38.05,2.04.05h3.94v-.82h-2.97v.41h-1.6c.02-.39.03-.97.03-1.72v-.53c0-.53-.02-1.19-.03-1.5.37.02.71.03,1.22.03h3.35l-.02-.8h-3.45c-.93,0-2.46.03-3.38.07v-1.53c.87.03,2.41.05,3.38.05h3.43c0-.49-.02-1-.07-1.5l1.78.12c.15.02.25.08.25.19,0,.08-.08.17-.31.32-.02.29-.02.58-.02.87h3.43c1.07,0,2.52-.02,3.38-.05v1.53c-.9-.03-2.35-.07-3.38-.07h-3.43c-.02.27-.02.53-.02.8h3.33c.51,0,.85-.02,1.24-.03-.03.31-.05.97-.05,1.5v.44c0,.8.02,1.38.05,1.77h-1.62v-.37h-2.96v.82Zm-1.6-2.86h-2.97v.78h2.97v-.78Zm4.56.78v-.78h-2.96v.78h2.96Zm.42,3.38h-3.38v.7h3.38v-.7Zm0,2.01h-3.37v.73h3.37v-.73Z"/>
        <path class="cls-26" d="m746.46,223.2c-.37.42-.75.83-1.16,1.21-.32.31-.66.58-1,.87.15.19.31.37.44.56l-.78.58h2.21l.22-.32.97.92c.12.1.14.15.14.22,0,.14-.1.2-.36.25l-.1.02c-.15.36-.22.51-.61,1.43-.19.46-.32.71-.56,1.12-.41-.41-.76-.68-1.21-.95.24-.42.41-.76.61-1.26h-.83v4.01c0,.63.02,1.82.03,3.06v.17c0,.83-.14,1.21-.58,1.46-.48.31-1.02.37-2.65.37-.05-.7-.1-.95-.32-1.73.56.05.83.07,1.24.07.58,0,.68-.08.68-.63l-.02-3.98c-.61,1.38-1.26,2.46-2.14,3.67-.17-.46-.34-.71-.88-1.43,1.11-1.41,2.06-3.13,2.79-5.05h-1.02c-.46,0-1,0-1.36.02v-1.48c.37.02.99.03,1.36.03h1.75c-.51-.73-1.1-1.38-1.75-1.99l.97-.87c.31.25.59.49.88.76.37-.31.73-.63,1.07-.97h-2.48c-.46,0-.99,0-1.34.02v-1.39c.37.02.99.03,1.34.03h3.72l.22-.27,1,.93c.12.12.14.15.14.24,0,.14-.08.2-.31.24l-.32.05Zm4.84,9.01c-.27.8-.65,1.48-1.16,2.12-.99,1.24-2.14,1.99-4.2,2.69-.22-.61-.36-.9-.66-1.43,2.11-.75,2.87-1.24,3.72-2.4.24-.32.44-.65.61-.99h-1.27c-.49,0-1.21.02-1.68.03v-1.55c.48.02,1.19.03,1.68.03h1.78c.12-.53.2-1.12.25-1.87l1.51.27c.19.03.27.1.27.2,0,.12-.08.19-.32.27-.05.41-.1.77-.17,1.12h2.62l.24-.31.97,1c.14.14.15.15.15.22,0,.12-.08.19-.29.25l-.17.07c-.22,2.16-.59,3.52-1.12,4.15-.56.65-1.05.76-3.26.76h-.17c-.02-.68-.08-1.09-.22-1.7.59.05.83.07,1.07.07.97,0,1.26-.12,1.53-.66.24-.51.39-1.19.54-2.38h-2.26Zm2.77-7.68c-.43.9-.95,1.73-1.6,2.46.83.54,1.79.92,3.62,1.44-.31.48-.53.95-.68,1.45-1.9-.56-2.92-1.04-4.01-1.89-1.09.9-1.97,1.33-4.01,2.02-.24-.65-.39-.95-.71-1.36,1.7-.56,2.63-.99,3.57-1.67-.48-.51-.83-1.11-1.14-1.73-.32.53-.65.97-1.05,1.48-.1-.12-.19-.22-.24-.27q-.34-.39-.85-.82c1.24-1.51,1.78-2.52,2.48-4.5l1.31.53c.24.08.27.12.27.22,0,.12-.05.15-.34.25-.15.34-.29.65-.42.92h4.08c.37,0,.99,0,1.36-.02v1.5c-.36-.02-.9-.02-1.36-.02h-.27Zm-3.89,0c.31.56.66,1.1,1.14,1.56.44-.46.78-1,1.07-1.56h-2.21Z"/>
        <path class="cls-26" d="m764.26,231.32c0-.46,0-.9-.03-1.36-1.62.49-3.6.83-6.24,1.05-.05-.34-.29-1.07-.46-1.41,2.45-.14,4.2-.36,5.66-.71-.61-.12-1.22-.2-1.85-.27-.15.17-.31.34-.46.49l-1.21-.97c.48-.37.88-.8,1.29-1.24h-.08c-.95,0-2.48.02-3.4.05v-1.43c.88.03,2.41.05,3.4.05h1.26c.29-.36.56-.71.83-1.09.15-.24.32-.48.44-.73l1.5.75c.08.03.15.12.15.22,0,.14-.12.2-.53.24-.19.22-.36.42-.53.61h5.22c1.07,0,2.53-.02,3.4-.05v1.43c-.9-.03-2.36-.05-3.4-.05h-.08c-.49.59-1.05,1.12-1.68,1.56l.15.03c2.33.53,2.62.61,4.27,1.16l-.95,1.33c-1.89-.71-2.5-.9-4.93-1.46l-.32-.08c-.39.17-.76.32-1.17.44l1.46.08c.19.02.29.08.29.17,0,.1-.1.2-.34.34v.85h3.59c1.07,0,2.52-.03,3.38-.07v1.44c-.9-.03-2.35-.07-3.38-.07h-2.57c.49.36,1.02.65,1.73.99,1.36.65,2.45,1,4.54,1.48-.37.46-.49.66-.76,1.45-2.11-.56-3.2-1-4.62-1.85-.82-.48-1.41-.9-1.92-1.34v1.16c0,1.19.02,2.01.05,2.5h-1.72c.03-.61.03-1.41.03-2.5v-1.16c-1.77,1.48-3.94,2.58-6.73,3.42-.17-.56-.31-.85-.65-1.39,1.62-.42,2.63-.8,4.03-1.48.9-.43,1.46-.75,2.11-1.26h-2.38c-.93,0-2.46.03-3.38.07v-1.44c.87.03,2.41.07,3.38.07h3.62Zm0-9.14c0-.48,0-.85-.02-1.11l1.67.12c.2.02.32.08.32.17,0,.1-.1.2-.34.34v.65h3.01c1.17,0,2.5-.02,3.38-.07-.03.46-.03.73-.03,1v.63c0,.37.02.78.05,1.21h-1.75c.03-.37.05-.87.05-1.21v-.24h-11.05v.24c0,.34.02.83.03,1.21h-1.73c.03-.42.05-.83.05-1.21v-.63c0-.27-.02-.54-.03-1,.87.05,2.21.07,3.37.07h3.03v-.17Zm-1.38,4.73c-.2.24-.41.46-.63.7,1.1.14,2.21.27,3.3.48.6-.31,1.12-.71,1.6-1.17h-4.27Z"/>
        <path class="cls-26" d="m777.53,226.05c.17.02.29.08.29.17,0,.1-.1.2-.32.34-.02.85-.03,1.67-.03,2.91v4.05c0,1.53.02,2.74.05,3.48h-1.73c.03-.76.05-1.92.05-3.48v-4.73c-.29.66-.51,1.1-.93,1.84-.39-.85-.56-1.11-1.02-1.63,1.43-2.36,2.38-4.84,3.06-7.96l1.63.63c.15.05.24.14.24.24,0,.14-.05.17-.41.29-.49,1.68-.73,2.38-1.34,3.83l.48.03Zm5.93-1.17c-.02-1.95-.07-3.16-.12-3.59l1.87.12c.15,0,.25.08.25.17,0,.1-.08.19-.31.32-.02.51-.02.58-.03,2.97h1.79c.7,0,1.75-.02,2.36-.05v1.65c-.61-.02-1.67-.03-2.36-.03h-1.79v3.18h2.52c.68,0,1.79-.02,2.38-.03v1.65c-.63-.03-1.73-.05-2.38-.05h-2.52v.8c0,2.23.03,3.88.08,4.96h-1.84c.05-1.11.08-2.77.08-4.96v-.8h-2.72c-.73,0-1.68.02-2.38.05v-1.65c.65.02,1.61.03,2.38.03h2.72v-3.18h-2.74c-.51,1.04-1.05,1.94-1.75,2.84-.65-.7-.68-.71-1.29-1.12,1.43-1.84,2.38-3.91,2.87-6.26l1.56.51c.24.07.32.14.32.25,0,.14-.03.15-.41.31-.22.7-.42,1.33-.65,1.9h2.07Z"/>
        <path class="cls-26" d="m799.28,225.29c.19.07.27.14.27.25s-.08.19-.27.2l-.2.03c-.08.14-.19.29-.27.42h4.4c1.07,0,2.52-.03,3.38-.07v1.65c-.9-.03-2.35-.07-3.38-.07h-.76c1.07,1.36,2.29,2.09,4.79,2.96-.44.54-.65.87-.92,1.44-1.39-.54-2.07-.9-2.94-1.51-1.19-.87-1.92-1.65-2.63-2.89h-3.01c-.63.76-1.24,1.34-2.04,1.97-1.21.94-2.19,1.5-4.03,2.28-.27-.63-.39-.83-.8-1.38,1.92-.82,2.97-1.39,4.13-2.33.22-.19.42-.36.63-.54h-.65c-.93,0-2.46.03-3.38.07v-1.65c.87.03,2.41.07,3.38.07h1.99c.31-.41.59-.85.87-1.29-1.22.07-2.45.12-3.67.22l-.17.15c-.1.1-.15.14-.22.14-.1,0-.19-.1-.25-.29l-.53-1.65,1.5.02c.49,0,.99,0,1.46-.02.7-.76,1.21-1.68,1.77-2.55l1.51.66c.08.03.15.12.15.19,0,.14-.07.15-.42.2-.51.63-.75.92-1.24,1.46,1.33-.02,2.63-.07,3.94-.14-.32-.27-.66-.53-1-.78l.95-.97c1.67,1.02,2.87,1.99,3.88,3.16l-1.19,1.09c-.37-.46-.76-.9-1.17-1.31-1.07.14-2.16.2-3.23.29-.58.03-1.16.07-1.72.1l1.1.39Zm1.41,4.4c-1.09.94-1.82,1.41-3.25,2.07-1.44.7-2.38,1.02-4.08,1.44-.25-.75-.27-.82-.56-1.39,1.63-.42,2.55-.75,3.79-1.33,1.33-.61,2.02-1.07,3.09-2.02l1.26.78c.19.1.22.15.22.25,0,.12-.1.19-.25.19h-.22Zm4.5,4.11c-1.82,1.09-2.99,1.61-4.83,2.12-2.12.6-3.65.87-6.7,1.16-.14-.66-.2-.92-.46-1.51,2.96-.29,4.39-.53,6.39-1.07,1.9-.49,2.92-.95,4.56-2.04l1.31.9c.2.14.22.15.22.24,0,.14-.1.2-.27.2h-.22Zm-2.48-2.01c-2.53,1.65-4.49,2.38-8.87,3.33-.14-.51-.29-.99-.49-1.46,4.18-.82,5.97-1.48,8.36-3.18l1.28.87c.2.14.22.15.22.25,0,.12-.1.19-.27.19h-.22Z"/>
        <path class="cls-26" d="m813.57,233.65h-1.67c.02-.68.03-1.68.03-2.99v-2.89c0-1.04-.02-2.18-.03-2.7.44.02.85.02,1.44.02h1.9v-1.43h-3.66c-.93,0-2.46.03-3.38.07v-1.7c.88.05,2.41.07,3.38.07h8.94c1.07,0,2.52-.02,3.38-.07v1.7c-.9-.03-2.35-.07-3.38-.07h-3.64v1.43h1.96c.58,0,.99,0,1.44-.02q-.03.54-.05,2.7v2.65c0,1.34.02,2.35.05,2.97h-1.68v-.51h-5.05v.76Zm-2.86,2.29v.87h-1.72c.03-.75.07-1.92.07-3.48v-5.15c0-1.94-.03-3.01-.08-3.54l1.8.12c.17,0,.29.07.29.17,0,.08-.1.19-.34.32q-.02.48-.02,2.92v6.2h10.71v-6.2c0-1.94-.02-3.01-.07-3.54l1.8.12c.17,0,.27.07.27.17,0,.08-.08.19-.32.32q-.02.48-.02,2.92v5.15c0,1.53.02,2.74.03,3.48h-1.7v-.87h-10.71Zm2.86-9.38v1.58h1.68v-1.58h-1.68Zm1.68,4.84v-1.78h-1.68v1.78h1.68Zm3.37-4.84h-1.72v1.58h1.72v-1.58Zm0,3.06h-1.72v1.78h1.72v-1.78Z"/>
      </g>
      <polyline class="cls-28" points="399.38 128.31 583.23 91.98 774.14 46.76"/>
      <circle class="cls-23" cx="583.23" cy="91.98" r="5.16"/>
      <circle class="cls-21" cx="774.14" cy="46.76" r="5.16"/>
      <line class="cls-27" x1="399.38" y1="128.31" x2="303.58" y2="128.31"/>
      <circle class="cls-20" cx="399.38" cy="128.31" r="5.16"/>
      <g>
        <g>
          <g>
            <rect class="cls-26" x="30.55" y="227.34" width="213.9" height="42.54" rx="6.19" ry="6.19"/>
            <g>
              <g>
                <path class="cls-26" d="m49.99,247.27c-.29-1.5-1.14-2.27-2.51-2.27-1.97,0-3.2,1.81-3.2,4.69s1.23,4.66,3.23,4.66c1.54,0,2.43-.99,2.61-2.93h1.71c-.18,2.96-1.67,4.56-4.26,4.56-3.22,0-5.28-2.45-5.28-6.27,0-2.19.64-3.95,1.86-5.07.9-.82,2.08-1.26,3.35-1.26,1.46,0,2.69.58,3.41,1.6.45.61.66,1.28.75,2.3h-1.67Z"/>
                <path class="cls-26" d="m57.36,246.85c2.35,0,4.03,1.9,4.03,4.58s-1.68,4.56-4.03,4.56-4.05-1.91-4.05-4.56,1.68-4.58,4.05-4.58Zm0,7.67c1.31,0,2.19-1.25,2.19-3.09s-.88-3.12-2.19-3.12-2.21,1.26-2.21,3.12.88,3.09,2.21,3.09Z"/>
                <path class="cls-26" d="m70.34,253.06c-.1.66-.42,1.33-.85,1.86-.61.7-1.49,1.07-2.58,1.07-2.39,0-3.95-1.81-3.95-4.56s1.55-4.58,3.97-4.58c1.79,0,3.03,1.04,3.35,2.85h-1.81c-.22-.94-.74-1.39-1.58-1.39-1.28,0-2.08,1.22-2.08,3.14,0,1.12.3,2.06.85,2.62.29.29.74.45,1.25.45.9,0,1.44-.46,1.67-1.46h1.78Z"/>
                <path class="cls-26" d="m77.65,247.09h2.18l-3.6,3.95,3.91,4.71h-2.43l-3.41-4.4v4.4h-1.79v-12.23h1.79v7.35l3.36-3.78Z"/>
                <path class="cls-26" d="m85.25,243.59c1.89,0,2.9.19,3.62.7.9.62,1.38,1.7,1.38,3.06,0,1.44-.56,2.54-1.57,3.12-.67.38-1.6.54-3.25.54h-1.38v4.74h-1.89v-12.17h3.09Zm.22,5.81c.96,0,1.65-.11,2.03-.34.5-.3.78-.93.78-1.76,0-.77-.24-1.36-.7-1.68-.42-.29-1.06-.42-2.16-.42h-1.38v4.19h1.42Z"/>
                <path class="cls-26" d="m93.97,243.59v1.97h-1.97v-1.97h1.97Zm-.1,3.51v8.66h-1.78v-8.66h1.78Z"/>
                <path class="cls-26" d="m100.85,247.09l-.03,1.41h-1.9c-.02,1.04-.06,3.73-.06,3.92v.62c0,.61.03.85.18,1.02.14.18.42.29.72.29.42,0,.85-.1,1.3-.29l-.02,1.5c-.64.26-1.15.35-1.74.35-.93,0-1.62-.32-1.99-.93-.22-.35-.3-.75-.3-1.5q0-.3.03-1.15l.11-3.84h-1.33l.03-1.41h1.34l.06-2.5h1.75l-.05,2.5h1.91Z"/>
                <path class="cls-26" d="m117.72,244.55l1.38,1.12c.11.1.16.16.16.26,0,.11-.11.21-.4.29-.64,2.24-1.47,3.94-2.64,5.33-1.54,1.84-3.26,3.04-6.4,4.48-.34-.75-.62-1.14-1.15-1.52,3.19-1.33,4.82-2.42,6.26-4.18.91-1.09,1.76-2.71,2.05-3.87l-4.02.29c-2.16.13-3.75.22-4.53.32l-.18-1.79.46.02c.29,0,.64-.02,1.31-.05.4-.02.86-.05,1.36-.06.74-.03,1.25-.05,1.54-.06l4.53-.26.27-.3Z"/>
                <path class="cls-26" d="m128.24,246.31c.1.02.19.1.19.18,0,.1-.08.18-.29.29-.29,2.79-.56,3.83-1.31,5.03-.82,1.31-1.68,2.1-3.65,3.3-.21-.56-.54-1.04-1.06-1.54,1.57-.91,2.23-1.44,2.91-2.34.91-1.22,1.31-2.79,1.31-5.03v-.08l1.89.19Zm1.1,6.96c.14-.51.18-1.15.18-2.98v-2.8c0-1.23-.02-1.92-.05-2.4l1.84.11c.19.02.29.06.29.18,0,.08-.08.16-.3.3q-.02.26-.03,1.81v4.53c2.27-1.1,3.52-2.02,5.39-3.94.29.83.4,1.1.66,1.71-2.14,1.98-3.54,2.91-6.19,4.19-.08.21-.16.3-.26.3-.06,0-.16-.03-.24-.1l-1.28-.93Z"/>
                <path class="cls-26" d="m144.16,243.94c.18,0,.27.06.27.16s-.06.16-.3.32q0,.46-.02,1.81v3.06c0,1.12.02,1.83.03,2.34h-1.87c.03-.54.05-1.28.05-2.34v-3.06c0-1.26-.02-1.95-.05-2.4l1.89.11Zm4.74,4.9c0,3.39-.5,4.87-2.13,6.23-.91.75-1.7,1.18-3.42,1.89-.29-.83-.53-1.2-1.02-1.57,1.38-.46,2.42-.99,3.15-1.6,1.2-.99,1.62-2.22,1.62-4.79v-3.12c0-1.22-.02-1.95-.05-2.4l1.89.11c.18.02.27.06.27.18,0,.08-.06.16-.27.3q-.03.46-.03,1.81v2.96Z"/>
                <path class="cls-26" d="m161.35,253.14c0,.54.14.61,1.25.61,1.34,0,2.3-.05,3.83-.21l.02,1.65c-1.39.14-2.27.19-4.24.19-2.14,0-2.53-.3-2.53-2v-2.71l-2.86.06c-.69.02-1.58.06-2.24.1l-.02-1.67q.26.02.46.02c.4,0,1.41,0,1.78-.02l2.88-.06v-1.34c0-.51,0-.66-.02-1.04l1.7.11c.19.02.3.06.3.16s-.08.19-.3.32v1.76l4.19-.1c.66-.02,1.62-.06,2.24-.11l.02,1.67h-2.22l-4.23.11v2.5Zm4.18-6.8c-.16-.02-.26-.02-.29-.02-.16,0-.72,0-1.63.02l-5.23.11c-.48.02-1.3.05-1.92.08l-.02-1.65c.56.02,1.57.02,1.9,0l5.25-.13c.83-.02,1.38-.03,1.91-.08l.03,1.66Z"/>
                <path class="cls-26" d="m183.8,250.5c-.75-.02-2.02-.05-2.87-.05h-6.71c-.78,0-2.18.03-2.87.05v-1.71c.66.02,2.05.05,2.87.05h6.71c.88,0,2.14-.02,2.87-.05v1.71Z"/>
                <path class="cls-26" d="m193.28,247.75c2.14.78,3.42,1.42,5.01,2.45l-1.01,1.52c-1.23-.93-2.47-1.62-4-2.24v3.41c0,1.5.02,2.45.03,3.27h-1.91c.1-.78.14-1.83.14-3.27v-6.4c0-1.83-.02-2.83-.06-3.33l1.87.11c.16,0,.26.06.26.16s-.1.19-.3.3c-.03,1.06-.03,1.25-.03,2.75v1.26Z"/>
                <path class="cls-26" d="m205.41,249.64h-1.15v.29h-1.52c.03-.38.05-.91.05-1.71v-.4c0-.51-.02-1.12-.05-1.41.56.02,1.06.02,1.76.02h3.41c.7,0,1.2,0,1.76-.02-.03.29-.05.9-.05,1.41v.4c0,.75.02,1.3.05,1.67h-1.52v-.24h-1.23v.83h1.58c.46,0,1.14-.02,1.6-.03v1.3c-.46-.02-1.14-.03-1.6-.03h-1.58v.74h1.1c.46,0,1.14-.02,1.58-.03v1.3c-.45-.02-1.12-.03-1.58-.03h-1.1v.91c1.14-.16,2.27-.38,3.39-.64l.02,1.09c.21-.29.37-.56.58-.96.8-1.52,1.12-3.12,1.22-6.39h-.29c-.46,0-1.14.02-1.58.03v-1.54c.43.03,1.14.05,1.58.05h.32v-.87c0-1.76-.02-2.02-.05-3.04l1.55.13c.27.03.38.1.38.21,0,.1-.02.11-.34.3v3.27h1.95l.19-.22,1.01.83c.08.06.11.14.11.22,0,.14,0,.18-.35.27-.13,6.72-.37,8.42-1.34,9.12-.35.26-.77.37-1.54.42-.45.03-.77.02-1.1.03-.08-.7-.1-.8-.32-1.68.5.03.7.03.91.03.77,0,.96-.08,1.18-.46.43-.77.61-2.66.64-7.11h-1.38c-.05,1.95-.18,3.51-.35,4.32-.43,2.05-1.36,3.81-2.69,5.17-.38-.53-.67-.77-1.25-1.1.32-.32.54-.56.74-.78-1.46.32-4,.74-7,1.18-.13.22-.22.3-.32.3-.08,0-.19-.1-.22-.19l-.48-1.41c1.1-.1,2.21-.22,3.31-.38v-1.12h-1.01c-.46,0-1.14.02-1.6.03v-1.3c.46.02,1.14.03,1.6.03h1.01v-.74h-1.49c-.46,0-1.14.02-1.6.03v-1.3c.46.02,1.14.03,1.6.03h1.49v-.83Zm1.41-6.08c0-.56-.02-1.02-.05-1.23l1.49.11c.18,0,.27.06.27.16s-.08.18-.29.3v.66h.4c.46,0,1.15-.02,1.6-.03v1.26c-.45-.02-1.14-.03-1.6-.03h-.42c0,.53.02,1.01.03,1.28h-1.47c.02-.32.03-.74.03-1.28h-1.26c0,.58.02,1.01.05,1.28h-1.49c.03-.32.05-.74.05-1.28h-.32c-.46,0-1.14.02-1.6.03v-1.26c.46.02,1.14.03,1.6.03h.32c-.02-.56-.03-1.02-.05-1.23l1.49.11c.18,0,.27.06.27.16s-.1.19-.32.3v.66h1.26Zm-2.56,4.03v.9h1.15v-.9h-1.15Zm3.89,0h-1.23v.9h1.23v-.9Z"/>
                <path class="cls-26" d="m224.07,244.13c-.35.4-.7.79-1.09,1.14-.3.29-.62.54-.94.82.14.18.29.35.42.53l-.74.54h2.08l.21-.3.91.86c.11.1.13.14.13.21,0,.13-.1.19-.34.24l-.1.02c-.14.34-.21.48-.58,1.34-.18.43-.3.67-.53,1.06-.38-.38-.72-.64-1.14-.9.22-.4.38-.72.58-1.18h-.78v3.78c0,.59.02,1.71.03,2.88v.16c0,.79-.13,1.14-.54,1.38-.45.29-.96.35-2.5.35-.05-.66-.1-.9-.3-1.63.53.05.78.06,1.17.06.54,0,.64-.08.64-.59l-.02-3.75c-.58,1.3-1.18,2.32-2.02,3.46-.16-.43-.32-.67-.83-1.34,1.04-1.33,1.94-2.95,2.62-4.75h-.96c-.43,0-.94,0-1.28.02v-1.39c.35.02.93.03,1.28.03h1.65c-.48-.69-1.04-1.3-1.65-1.87l.91-.82c.29.24.56.46.83.72.35-.29.69-.59,1.01-.91h-2.34c-.43,0-.93,0-1.26.02v-1.31c.35.02.93.03,1.26.03h3.5l.21-.26.95.88c.11.11.13.14.13.22,0,.13-.08.19-.29.22l-.3.05Zm4.56,8.48c-.26.75-.61,1.39-1.09,2-.93,1.17-2.02,1.87-3.95,2.53-.21-.58-.34-.85-.62-1.34,1.99-.7,2.71-1.17,3.51-2.26.22-.3.42-.61.58-.93h-1.2c-.46,0-1.14.02-1.58.03v-1.46c.45.02,1.12.03,1.58.03h1.68c.11-.5.19-1.06.24-1.76l1.42.26c.18.03.26.1.26.19,0,.11-.08.18-.3.26-.05.38-.1.72-.16,1.06h2.46l.22-.29.91.94c.13.13.14.14.14.21,0,.11-.08.18-.27.24l-.16.06c-.21,2.03-.56,3.31-1.06,3.91-.53.61-.99.72-3.07.72h-.16c-.02-.64-.08-1.02-.21-1.6.56.05.78.06,1.01.06.91,0,1.18-.11,1.44-.62.22-.48.37-1.12.51-2.24h-2.13Zm2.61-7.23c-.4.85-.9,1.63-1.5,2.32.79.51,1.68.86,3.41,1.36-.29.45-.5.9-.64,1.36-1.79-.53-2.75-.98-3.78-1.78-1.02.85-1.86,1.25-3.78,1.9-.22-.61-.37-.9-.67-1.28,1.6-.53,2.48-.93,3.36-1.57-.45-.48-.78-1.04-1.07-1.63-.3.5-.61.91-.99,1.39-.1-.11-.18-.21-.22-.26q-.32-.37-.8-.77c1.17-1.42,1.68-2.37,2.34-4.24l1.23.5c.22.08.26.11.26.21,0,.11-.05.14-.32.24-.14.32-.27.61-.4.86h3.84c.35,0,.93,0,1.28-.02v1.41c-.34-.02-.85-.02-1.28-.02h-.26Zm-3.67,0c.29.53.62,1.04,1.07,1.47.42-.43.74-.94,1.01-1.47h-2.08Z"/>
              </g>
              <g>
                <path class="cls-16" d="m49.99,247.27c-.29-1.5-1.14-2.27-2.51-2.27-1.97,0-3.2,1.81-3.2,4.69s1.23,4.66,3.23,4.66c1.54,0,2.43-.99,2.61-2.93h1.71c-.18,2.96-1.67,4.56-4.26,4.56-3.22,0-5.28-2.45-5.28-6.27,0-2.19.64-3.95,1.86-5.07.9-.82,2.08-1.26,3.35-1.26,1.46,0,2.69.58,3.41,1.6.45.61.66,1.28.75,2.3h-1.67Z"/>
                <path class="cls-5" d="m57.36,246.85c2.35,0,4.03,1.9,4.03,4.58s-1.68,4.56-4.03,4.56-4.05-1.91-4.05-4.56,1.68-4.58,4.05-4.58Zm0,7.67c1.31,0,2.19-1.25,2.19-3.09s-.88-3.12-2.19-3.12-2.21,1.26-2.21,3.12.88,3.09,2.21,3.09Z"/>
                <path class="cls-2" d="m70.34,253.06c-.1.66-.42,1.33-.85,1.86-.61.7-1.49,1.07-2.58,1.07-2.39,0-3.95-1.81-3.95-4.56s1.55-4.58,3.97-4.58c1.79,0,3.03,1.04,3.35,2.85h-1.81c-.22-.94-.74-1.39-1.58-1.39-1.28,0-2.08,1.22-2.08,3.14,0,1.12.3,2.06.85,2.62.29.29.74.45,1.25.45.9,0,1.44-.46,1.67-1.46h1.78Z"/>
                <path class="cls-10" d="m77.65,247.09h2.18l-3.6,3.95,3.91,4.71h-2.43l-3.41-4.4v4.4h-1.79v-12.23h1.79v7.35l3.36-3.78Z"/>
                <path class="cls-3" d="m85.25,243.59c1.89,0,2.9.19,3.62.7.9.62,1.38,1.7,1.38,3.06,0,1.44-.56,2.54-1.57,3.12-.67.38-1.6.54-3.25.54h-1.38v4.74h-1.89v-12.17h3.09Zm.22,5.81c.96,0,1.65-.11,2.03-.34.5-.3.78-.93.78-1.76,0-.77-.24-1.36-.7-1.68-.42-.29-1.06-.42-2.16-.42h-1.38v4.19h1.42Z"/>
                <path class="cls-1" d="m93.97,243.59v1.97h-1.97v-1.97h1.97Zm-.1,3.51v8.66h-1.78v-8.66h1.78Z"/>
                <path class="cls-8" d="m100.85,247.09l-.03,1.41h-1.9c-.02,1.04-.06,3.73-.06,3.92v.62c0,.61.03.85.18,1.02.14.18.42.29.72.29.42,0,.85-.1,1.3-.29l-.02,1.5c-.64.26-1.15.35-1.74.35-.93,0-1.62-.32-1.99-.93-.22-.35-.3-.75-.3-1.5q0-.3.03-1.15l.11-3.84h-1.33l.03-1.41h1.34l.06-2.5h1.75l-.05,2.5h1.91Z"/>
                <path class="cls-4" d="m117.72,244.55l1.38,1.12c.11.1.16.16.16.26,0,.11-.11.21-.4.29-.64,2.24-1.47,3.94-2.64,5.33-1.54,1.84-3.26,3.04-6.4,4.48-.34-.75-.62-1.14-1.15-1.52,3.19-1.33,4.82-2.42,6.26-4.18.91-1.09,1.76-2.71,2.05-3.87l-4.02.29c-2.16.13-3.75.22-4.53.32l-.18-1.79.46.02c.29,0,.64-.02,1.31-.05.4-.02.86-.05,1.36-.06.74-.03,1.25-.05,1.54-.06l4.53-.26.27-.3Z"/>
                <path class="cls-6" d="m128.24,246.31c.1.02.19.1.19.18,0,.1-.08.18-.29.29-.29,2.79-.56,3.83-1.31,5.03-.82,1.31-1.68,2.1-3.65,3.3-.21-.56-.54-1.04-1.06-1.54,1.57-.91,2.23-1.44,2.91-2.34.91-1.22,1.31-2.79,1.31-5.03v-.08l1.89.19Zm1.1,6.96c.14-.51.18-1.15.18-2.98v-2.8c0-1.23-.02-1.92-.05-2.4l1.84.11c.19.02.29.06.29.18,0,.08-.08.16-.3.3q-.02.26-.03,1.81v4.53c2.27-1.1,3.52-2.02,5.39-3.94.29.83.4,1.1.66,1.71-2.14,1.98-3.54,2.91-6.19,4.19-.08.21-.16.3-.26.3-.06,0-.16-.03-.24-.1l-1.28-.93Z"/>
                <path class="cls-9" d="m144.16,243.94c.18,0,.27.06.27.16s-.06.16-.3.32q0,.46-.02,1.81v3.06c0,1.12.02,1.83.03,2.34h-1.87c.03-.54.05-1.28.05-2.34v-3.06c0-1.26-.02-1.95-.05-2.4l1.89.11Zm4.74,4.9c0,3.39-.5,4.87-2.13,6.23-.91.75-1.7,1.18-3.42,1.89-.29-.83-.53-1.2-1.02-1.57,1.38-.46,2.42-.99,3.15-1.6,1.2-.99,1.62-2.22,1.62-4.79v-3.12c0-1.22-.02-1.95-.05-2.4l1.89.11c.18.02.27.06.27.18,0,.08-.06.16-.27.3q-.03.46-.03,1.81v2.96Z"/>
                <path class="cls-7" d="m161.35,253.14c0,.54.14.61,1.25.61,1.34,0,2.3-.05,3.83-.21l.02,1.65c-1.39.14-2.27.19-4.24.19-2.14,0-2.53-.3-2.53-2v-2.71l-2.86.06c-.69.02-1.58.06-2.24.1l-.02-1.67q.26.02.46.02c.4,0,1.41,0,1.78-.02l2.88-.06v-1.34c0-.51,0-.66-.02-1.04l1.7.11c.19.02.3.06.3.16s-.08.19-.3.32v1.76l4.19-.1c.66-.02,1.62-.06,2.24-.11l.02,1.67h-2.22l-4.23.11v2.5Zm4.18-6.8c-.16-.02-.26-.02-.29-.02-.16,0-.72,0-1.63.02l-5.23.11c-.48.02-1.3.05-1.92.08l-.02-1.65c.56.02,1.57.02,1.9,0l5.25-.13c.83-.02,1.38-.03,1.91-.08l.03,1.66Z"/>
                <path class="cls-13" d="m183.8,250.5c-.75-.02-2.02-.05-2.87-.05h-6.71c-.78,0-2.18.03-2.87.05v-1.71c.66.02,2.05.05,2.87.05h6.71c.88,0,2.14-.02,2.87-.05v1.71Z"/>
                <path class="cls-11" d="m193.28,247.75c2.14.78,3.42,1.42,5.01,2.45l-1.01,1.52c-1.23-.93-2.47-1.62-4-2.24v3.41c0,1.5.02,2.45.03,3.27h-1.91c.1-.78.14-1.83.14-3.27v-6.4c0-1.83-.02-2.83-.06-3.33l1.87.11c.16,0,.26.06.26.16s-.1.19-.3.3c-.03,1.06-.03,1.25-.03,2.75v1.26Z"/>
                <path class="cls-12" d="m205.41,249.64h-1.15v.29h-1.52c.03-.38.05-.91.05-1.71v-.4c0-.51-.02-1.12-.05-1.41.56.02,1.06.02,1.76.02h3.41c.7,0,1.2,0,1.76-.02-.03.29-.05.9-.05,1.41v.4c0,.75.02,1.3.05,1.67h-1.52v-.24h-1.23v.83h1.58c.46,0,1.14-.02,1.6-.03v1.3c-.46-.02-1.14-.03-1.6-.03h-1.58v.74h1.1c.46,0,1.14-.02,1.58-.03v1.3c-.45-.02-1.12-.03-1.58-.03h-1.1v.91c1.14-.16,2.27-.38,3.39-.64l.02,1.09c.21-.29.37-.56.58-.96.8-1.52,1.12-3.12,1.22-6.39h-.29c-.46,0-1.14.02-1.58.03v-1.54c.43.03,1.14.05,1.58.05h.32v-.87c0-1.76-.02-2.02-.05-3.04l1.55.13c.27.03.38.1.38.21,0,.1-.02.11-.34.3v3.27h1.95l.19-.22,1.01.83c.08.06.11.14.11.22,0,.14,0,.18-.35.27-.13,6.72-.37,8.42-1.34,9.12-.35.26-.77.37-1.54.42-.45.03-.77.02-1.1.03-.08-.7-.1-.8-.32-1.68.5.03.7.03.91.03.77,0,.96-.08,1.18-.46.43-.77.61-2.66.64-7.11h-1.38c-.05,1.95-.18,3.51-.35,4.32-.43,2.05-1.36,3.81-2.69,5.17-.38-.53-.67-.77-1.25-1.1.32-.32.54-.56.74-.78-1.46.32-4,.74-7,1.18-.13.22-.22.3-.32.3-.08,0-.19-.1-.22-.19l-.48-1.41c1.1-.1,2.21-.22,3.31-.38v-1.12h-1.01c-.46,0-1.14.02-1.6.03v-1.3c.46.02,1.14.03,1.6.03h1.01v-.74h-1.49c-.46,0-1.14.02-1.6.03v-1.3c.46.02,1.14.03,1.6.03h1.49v-.83Zm1.41-6.08c0-.56-.02-1.02-.05-1.23l1.49.11c.18,0,.27.06.27.16s-.08.18-.29.3v.66h.4c.46,0,1.15-.02,1.6-.03v1.26c-.45-.02-1.14-.03-1.6-.03h-.42c0,.53.02,1.01.03,1.28h-1.47c.02-.32.03-.74.03-1.28h-1.26c0,.58.02,1.01.05,1.28h-1.49c.03-.32.05-.74.05-1.28h-.32c-.46,0-1.14.02-1.6.03v-1.26c.46.02,1.14.03,1.6.03h.32c-.02-.56-.03-1.02-.05-1.23l1.49.11c.18,0,.27.06.27.16s-.1.19-.32.3v.66h1.26Zm-2.56,4.03v.9h1.15v-.9h-1.15Zm3.89,0h-1.23v.9h1.23v-.9Z"/>
                <path class="cls-14" d="m224.07,244.13c-.35.4-.7.79-1.09,1.14-.3.29-.62.54-.94.82.14.18.29.35.42.53l-.74.54h2.08l.21-.3.91.86c.11.1.13.14.13.21,0,.13-.1.19-.34.24l-.1.02c-.14.34-.21.48-.58,1.34-.18.43-.3.67-.53,1.06-.38-.38-.72-.64-1.14-.9.22-.4.38-.72.58-1.18h-.78v3.78c0,.59.02,1.71.03,2.88v.16c0,.79-.13,1.14-.54,1.38-.45.29-.96.35-2.5.35-.05-.66-.1-.9-.3-1.63.53.05.78.06,1.17.06.54,0,.64-.08.64-.59l-.02-3.75c-.58,1.3-1.18,2.32-2.02,3.46-.16-.43-.32-.67-.83-1.34,1.04-1.33,1.94-2.95,2.62-4.75h-.96c-.43,0-.94,0-1.28.02v-1.39c.35.02.93.03,1.28.03h1.65c-.48-.69-1.04-1.3-1.65-1.87l.91-.82c.29.24.56.46.83.72.35-.29.69-.59,1.01-.91h-2.34c-.43,0-.93,0-1.26.02v-1.31c.35.02.93.03,1.26.03h3.5l.21-.26.95.88c.11.11.13.14.13.22,0,.13-.08.19-.29.22l-.3.05Zm4.56,8.48c-.26.75-.61,1.39-1.09,2-.93,1.17-2.02,1.87-3.95,2.53-.21-.58-.34-.85-.62-1.34,1.99-.7,2.71-1.17,3.51-2.26.22-.3.42-.61.58-.93h-1.2c-.46,0-1.14.02-1.58.03v-1.46c.45.02,1.12.03,1.58.03h1.68c.11-.5.19-1.06.24-1.76l1.42.26c.18.03.26.1.26.19,0,.11-.08.18-.3.26-.05.38-.1.72-.16,1.06h2.46l.22-.29.91.94c.13.13.14.14.14.21,0,.11-.08.18-.27.24l-.16.06c-.21,2.03-.56,3.31-1.06,3.91-.53.61-.99.72-3.07.72h-.16c-.02-.64-.08-1.02-.21-1.6.56.05.78.06,1.01.06.91,0,1.18-.11,1.44-.62.22-.48.37-1.12.51-2.24h-2.13Zm2.61-7.23c-.4.85-.9,1.63-1.5,2.32.79.51,1.68.86,3.41,1.36-.29.45-.5.9-.64,1.36-1.79-.53-2.75-.98-3.78-1.78-1.02.85-1.86,1.25-3.78,1.9-.22-.61-.37-.9-.67-1.28,1.6-.53,2.48-.93,3.36-1.57-.45-.48-.78-1.04-1.07-1.63-.3.5-.61.91-.99,1.39-.1-.11-.18-.21-.22-.26q-.32-.37-.8-.77c1.17-1.42,1.68-2.37,2.34-4.24l1.23.5c.22.08.26.11.26.21,0,.11-.05.14-.32.24-.14.32-.27.61-.4.86h3.84c.35,0,.93,0,1.28-.02v1.41c-.34-.02-.85-.02-1.28-.02h-.26Zm-3.67,0c.29.53.62,1.04,1.07,1.47.42-.43.74-.94,1.01-1.47h-2.08Z"/>
              </g>
            </g>
          </g>
          <g>
            <g>
              <path class="cls-26" d="m137.5,140.09c-8.17,0-14.82-6.65-14.82-14.83s6.65-14.83,14.82-14.83,14.83,6.65,14.83,14.83-6.65,14.83-14.83,14.83Zm0-26.89c-6.65,0-12.06,5.41-12.06,12.07s5.41,12.06,12.06,12.06,12.07-5.41,12.07-12.06-5.41-12.07-12.07-12.07Z"/>
              <path class="cls-26" d="m122.26,211.51c-.72,0-1.32-.55-1.37-1.28l-2.83-38.2c-.06-.76.51-1.42,1.27-1.48.76-.07,1.42.52,1.48,1.27l2.83,38.2c.06.76-.51,1.42-1.27,1.48-.03,0-.07,0-.1,0Z"/>
            </g>
            <path class="cls-26" d="m167.35,203.15s-.07,0-.11,0c-.76-.06-1.33-.72-1.27-1.48l2.8-37.04c0-6.62-5.31-12.23-11.84-12.39h-38.9c-6.49.16-11.8,5.77-11.8,12.49l2.8,36.94c.06.76-.51,1.42-1.27,1.48-.8.08-1.42-.51-1.48-1.27l-2.8-37.04c0-8.32,6.51-15.16,14.52-15.36h38.97c8.04.2,14.56,7.04,14.56,15.25l-2.81,37.15c-.06.72-.66,1.28-1.37,1.28Z"/>
            <path class="cls-26" d="m152.74,211.51s-.07,0-.1,0c-.76-.06-1.33-.72-1.27-1.48l2.83-38.2c.06-.76.75-1.34,1.48-1.27.76.06,1.33.72,1.27,1.48l-2.83,38.2c-.05.72-.66,1.28-1.37,1.28Z"/>
          </g>
        </g>
        <g>
          <g>
            <path class="cls-26" d="m57.61,63.99h-3.5c-.18.28-.36.56-.57.87-.83,1.21-1.37,1.85-2.44,2.83-.28-.44-.49-.67-1.05-1.21,2.01-2,2.98-3.47,3.98-6.12l1.46.56c.23.1.34.2.34.28q0,.13-.46.25c-.16.41-.33.75-.47,1.08h6.64c.98,0,2.42-.03,3.27-.07v1.6c-.85-.03-2.29-.07-3.27-.07h-2.32v2.19h2.6c.59,0,1.49-.02,1.95-.03v1.54c-.49-.03-1.41-.05-1.95-.05h-2.6v2.65h2.88c1.34,0,2.14-.02,3.25-.07v1.62c-.87-.03-2.26-.05-3.25-.05h-2.88v.51c0,1.5.02,2.62.05,3.35h-1.7c.03-.74.05-1.85.05-3.35v-.51h-4.11c-.9,0-2.37.02-3.26.05v-1.62c.7.03,1.85.05,2.76.07v-2.7q-.02-1.16-.03-1.44.44.02,1.91.03h2.72v-2.19Zm-3.06,3.65v2.65h3.06v-2.65h-3.06Z"/>
            <path class="cls-26" d="m54.08,92.04c.05-1.03.08-2.58.08-4.61-.82.36-1.34.57-2.96,1.23l-.08.18c-.07.13-.13.2-.23.2s-.18-.07-.23-.18l-.64-1.57c.36-.1.67-.18.98-.28v-6.26c0-1.29-.02-1.98-.05-2.45l1.65.11c.18,0,.28.07.28.16s-.08.18-.31.33v7.57c.52-.2,1.06-.41,1.59-.62v-4.06c0-2.68-.03-4.3-.1-4.81l1.73.11c.15,0,.25.08.25.16,0,.1-.08.18-.29.31q-.02.57-.03,4.22v5.48c0,2.14.03,3.73.08,4.78h-1.72Zm10.37-12.51c-.49,2.81-1.16,5.71-2.73,8.15.85,1.06,2.03,1.9,3.79,2.8-.57.52-.7.7-1.1,1.39-1.44-.8-2.68-1.8-3.65-2.9-.92,1.1-2.09,2.06-3.7,3.08-.36-.64-.52-.85-.96-1.36,1.62-.95,2.73-1.86,3.68-3.06-.62-1.06-1.08-2.32-1.47-3.94-.28-1.14-.41-2.08-.57-3.96-.52.02-1.05.02-1.44.03v-1.6c.7.03,1.82.05,2.62.05h4.58l.21-.26,1.03.98c.08.08.13.16.13.25,0,.13-.08.21-.28.29l-.15.07Zm-5.27.18c.28,2.81.47,3.75,1.1,5.35.16.41.33.79.49,1.15,1.16-1.98,1.7-4.25,2.06-6.49h-3.65Z"/>
          </g>
          <g>
            <path class="cls-26" d="m164.03,67.23c-.21,2.6-.46,3.96-.9,5.25-.7,2.04-1.65,2.58-4.56,2.58h-.52q-.07-1.06-.21-1.83c.85.07.87.07,1.21.07,1.13,0,1.67-.2,2.06-.74.61-.88.98-2.45,1.21-5.07h-4.29c-.03.2-.07.38-.1.59-.42,2.29-1.65,4.29-3.48,5.71-.79.59-1.42.97-2.67,1.51-.25-.61-.46-1-.83-1.47,2.37-1.14,3.37-1.95,4.3-3.53,1.05-1.73,1.37-3.32,1.44-7.02h-1.98c-.9,0-2.37.03-3.27.07v-1.64c.85.05,2.32.07,3.27.07h8.2c1.03,0,2.42-.02,3.25-.07v1.64c-.87-.03-2.26-.07-3.25-.07h-4.55c-.03.92-.06,1.83-.15,2.75h4.73l.28-.31,1.11,1c.12.1.15.15.15.23,0,.1-.08.16-.28.23l-.16.07Z"/>
            <path class="cls-26" d="m153.92,87.95q.02,3.16.05,3.84h-1.78q.02-.69.05-3.19v-7.64q-.02-2.7-.05-3.19c.87.03,2.14.06,3.25.06h6.74c1.11,0,2.4-.03,3.25-.06q-.02.49-.03,3.19v6.44c0,.36.02,1.41.05,2.09v.25c0,.98-.25,1.44-.9,1.75-.47.2-1.1.26-2.72.26-.05-1-.07-1.13-.31-1.88.72.05,1.1.07,1.59.07.52,0,.6-.1.6-.69v-3.75h-9.8v2.44Zm0-8.55v4.58h3.99v-4.58h-3.99Zm5.68,4.58h4.12v-4.58h-4.12v4.58Z"/>
          </g>
          <g>
            <path class="cls-26" d="m180.01,62.08v17.26c0,3.56.12,4.58.71,5.87.9,2,3.05,3.17,5.87,3.17,3.05,0,5.28-1.37,6.11-3.76.39-1.1.47-2.08.47-5.28v-17.26h4.62v17.34c0,4.46-.16,5.68-.98,7.44-1.57,3.48-5.36,5.52-10.22,5.52s-8.65-2.07-10.25-5.52c-.78-1.76-.94-2.97-.94-7.44v-17.34h4.62Z"/>
            <path class="cls-26" d="m212.77,62.08c4.62,0,7.08.47,8.84,1.72,2.19,1.53,3.37,4.15,3.37,7.48,0,3.52-1.37,6.22-3.83,7.63-1.64.94-3.91,1.33-7.95,1.33h-3.37v11.58h-4.62v-29.75h7.55Zm.55,14.21c2.35,0,4.03-.27,4.97-.82,1.21-.74,1.92-2.27,1.92-4.3,0-1.88-.59-3.33-1.72-4.11-1.02-.71-2.58-1.02-5.28-1.02h-3.37v10.25h3.48Z"/>
          </g>
          <g>
            <path class="cls-26" d="m72.23,65.43c4.44-.12,6.47-1.58,7.39-5.31h3.36v31.71h-4.86v-23.57h-5.89v-2.82Z"/>
            <path class="cls-26" d="m100.46,84.69c.79,2.2,2.45,3.36,4.94,3.36,3.45,0,5.77-2.82,5.77-7.05,0-3.94-2.12-6.56-5.27-6.56-2.2,0-3.82.91-5.23,2.99l-4.23-.58,2.7-16.56h15.23l-.37,4.36h-11.21l-1.29,7.55c1.74-1.29,3.11-1.74,5.15-1.74,5.73,0,9.63,4.15,9.63,10.33,0,3.11-1.04,5.89-2.95,8.09-2.08,2.32-4.52,3.4-7.76,3.4-5.23,0-9.05-2.99-9.79-7.6h4.69Z"/>
            <path class="cls-26" d="m143.83,76.01c0,10.21-4.11,16.31-10.96,16.31s-11-6.1-11-16.31,4.11-16.31,11-16.31,10.96,6.1,10.96,16.31Zm-14.98-9.92c-1.33,2.32-2.03,5.85-2.03,9.92s.71,7.59,2.03,9.92c.87,1.49,2.28,2.32,4.03,2.32s3.11-.83,3.98-2.32c1.33-2.32,2.08-5.85,2.08-9.92s-.79-7.72-2.08-9.92c-.91-1.54-2.28-2.32-3.98-2.32s-3.15.79-4.03,2.32Z"/>
          </g>
        </g>
      </g>
    </g>
  </g>
</svg>