<?xml version="1.0" encoding="UTF-8"?>
<svg id="_レイヤー_2" data-name="レイヤー 2" xmlns="http://www.w3.org/2000/svg" xmlns:xlink="http://www.w3.org/1999/xlink" viewBox="0 0 926.41 436.68">
  <defs>
    <style>
      .cls-1 {
        fill: url(#_新規グラデーションスウォッチ_1-14);
      }

      .cls-1, .cls-2, .cls-3, .cls-4, .cls-5, .cls-6, .cls-7, .cls-8, .cls-9, .cls-10, .cls-11, .cls-12, .cls-13, .cls-14, .cls-15, .cls-16, .cls-17, .cls-18, .cls-19, .cls-20, .cls-21, .cls-22 {
        stroke-width: 0px;
      }

      .cls-2 {
        fill: url(#_新規グラデーションスウォッチ_1-11);
      }

      .cls-3 {
        fill: url(#_新規グラデーションスウォッチ_1-13);
      }

      .cls-4 {
        fill: url(#_新規グラデーションスウォッチ_1-16);
      }

      .cls-5 {
        fill: url(#_新規グラデーションスウォッチ_1-10);
      }

      .cls-6 {
        fill: url(#_新規グラデーションスウォッチ_1-17);
      }

      .cls-7 {
        fill: url(#_新規グラデーションスウォッチ_1-19);
      }

      .cls-8 {
        fill: url(#_新規グラデーションスウォッチ_1-15);
      }

      .cls-9 {
        fill: url(#_新規グラデーションスウォッチ_1-18);
      }

      .cls-10 {
        fill: url(#_新規グラデーションスウォッチ_1-12);
      }

      .cls-23 {
        stroke: url(#_新規グラデーションスウォッチ_6-2);
      }

      .cls-23, .cls-24 {
        fill: none;
        stroke-dasharray: 0 0 0 2;
        stroke-linecap: round;
        stroke-miterlimit: 10;
        stroke-width: .75px;
      }

      .cls-11 {
        fill: url(#_新規グラデーションスウォッチ_1);
      }

      .cls-12 {
        fill: url(#_新規グラデーションスウォッチ_1-9);
      }

      .cls-13 {
        fill: url(#_新規グラデーションスウォッチ_1-2);
      }

      .cls-14 {
        fill: url(#_新規グラデーションスウォッチ_1-4);
      }

      .cls-15 {
        fill: url(#_新規グラデーションスウォッチ_1-3);
      }

      .cls-16 {
        fill: url(#_新規グラデーションスウォッチ_1-8);
      }

      .cls-17 {
        fill: url(#_新規グラデーションスウォッチ_1-7);
      }

      .cls-18 {
        fill: url(#_新規グラデーションスウォッチ_1-5);
      }

      .cls-19 {
        fill: url(#_新規グラデーションスウォッチ_1-6);
      }

      .cls-20 {
        fill: #231815;
      }

      .cls-21 {
        fill: #333;
      }

      .cls-22 {
        fill: #fff;
      }

      .cls-24 {
        stroke: url(#_新規グラデーションスウォッチ_6);
      }
    </style>
    <linearGradient id="_新規グラデーションスウォッチ_1" data-name="新規グラデーションスウォッチ 1" x1="0" y1="218.34" x2="275.01" y2="218.34" gradientTransform="translate(275.01 436.68) rotate(180)" gradientUnits="userSpaceOnUse">
      <stop offset="0" stop-color="#0d7695"/>
      <stop offset="0" stop-color="#0d7494"/>
      <stop offset=".18" stop-color="#105481"/>
      <stop offset=".37" stop-color="#133b73"/>
      <stop offset=".56" stop-color="#152a69"/>
      <stop offset=".76" stop-color="#161f62"/>
      <stop offset="1" stop-color="#171c61"/>
    </linearGradient>
    <linearGradient id="_新規グラデーションスウォッチ_1-2" data-name="新規グラデーションスウォッチ 1" x1="303.58" y1="284.38" x2="864.25" y2="284.38" gradientTransform="matrix(1,0,0,1,0,0)" xlink:href="#_新規グラデーションスウォッチ_1"/>
    <linearGradient id="_新規グラデーションスウォッチ_1-3" data-name="新規グラデーションスウォッチ 1" x1="721.15" y1="110.01" x2="826.11" y2="110.01" gradientTransform="matrix(1,0,0,1,0,0)" xlink:href="#_新規グラデーションスウォッチ_1"/>
    <linearGradient id="_新規グラデーションスウォッチ_1-4" data-name="新規グラデーションスウォッチ 1" x1="721.15" y1="110.01" x2="826.11" y2="110.01" gradientTransform="matrix(1,0,0,1,0,0)" xlink:href="#_新規グラデーションスウォッチ_1"/>
    <linearGradient id="_新規グラデーションスウォッチ_1-5" data-name="新規グラデーションスウォッチ 1" x1="721.15" y1="110.01" x2="826.11" y2="110.01" gradientTransform="matrix(1,0,0,1,0,0)" xlink:href="#_新規グラデーションスウォッチ_1"/>
    <linearGradient id="_新規グラデーションスウォッチ_1-6" data-name="新規グラデーションスウォッチ 1" x1="721.15" y1="110.01" x2="826.11" y2="110.01" gradientTransform="matrix(1,0,0,1,0,0)" xlink:href="#_新規グラデーションスウォッチ_1"/>
    <linearGradient id="_新規グラデーションスウォッチ_6" data-name="新規グラデーションスウォッチ 6" x1="399" y1="135.22" x2="773.95" y2="135.22" gradientUnits="userSpaceOnUse">
      <stop offset="0" stop-color="#0d76a6"/>
      <stop offset="0" stop-color="#0d74a5"/>
      <stop offset=".18" stop-color="#10548c"/>
      <stop offset=".37" stop-color="#133b79"/>
      <stop offset=".56" stop-color="#152a6b"/>
      <stop offset=".76" stop-color="#161f63"/>
      <stop offset="1" stop-color="#171c61"/>
    </linearGradient>
    <linearGradient id="_新規グラデーションスウォッチ_1-7" data-name="新規グラデーションスウォッチ 1" x1="579.32" y1="198.95" x2="589.64" y2="198.95" gradientTransform="matrix(1,0,0,1,0,0)" xlink:href="#_新規グラデーションスウォッチ_1"/>
    <linearGradient id="_新規グラデーションスウォッチ_1-8" data-name="新規グラデーションスウォッチ 1" x1="768.41" y1="35.16" x2="778.73" y2="35.16" gradientTransform="matrix(1,0,0,1,0,0)" xlink:href="#_新規グラデーションスウォッチ_1"/>
    <linearGradient id="_新規グラデーションスウォッチ_6-2" data-name="新規グラデーションスウォッチ 6" x1="303.21" y1="235.28" x2="399.75" y2="235.28" xlink:href="#_新規グラデーションスウォッチ_6"/>
    <linearGradient id="_新規グラデーションスウォッチ_1-9" data-name="新規グラデーションスウォッチ 1" x1="394.22" y1="235.28" x2="404.54" y2="235.28" gradientTransform="matrix(1,0,0,1,0,0)" xlink:href="#_新規グラデーションスウォッチ_1"/>
    <linearGradient id="_新規グラデーションスウォッチ_1-10" data-name="新規グラデーションスウォッチ 1" x1="68.36" y1="301.36" x2="220.1" y2="301.36" gradientTransform="matrix(1,0,0,1,0,0)" xlink:href="#_新規グラデーションスウォッチ_1"/>
    <linearGradient id="_新規グラデーションスウォッチ_1-11" data-name="新規グラデーションスウォッチ 1" x1="68.36" y1="301.36" x2="220.1" y2="301.36" gradientTransform="matrix(1,0,0,1,0,0)" xlink:href="#_新規グラデーションスウォッチ_1"/>
    <linearGradient id="_新規グラデーションスウォッチ_1-12" data-name="新規グラデーションスウォッチ 1" x1="68.36" y1="301.36" x2="220.1" y2="301.36" gradientTransform="matrix(1,0,0,1,0,0)" xlink:href="#_新規グラデーションスウォッチ_1"/>
    <linearGradient id="_新規グラデーションスウォッチ_1-13" data-name="新規グラデーションスウォッチ 1" x1="68.36" y1="301.36" x2="220.1" y2="301.36" gradientTransform="matrix(1,0,0,1,0,0)" xlink:href="#_新規グラデーションスウォッチ_1"/>
    <linearGradient id="_新規グラデーションスウォッチ_1-14" data-name="新規グラデーションスウォッチ 1" x1="68.36" y1="301.36" x2="220.1" y2="301.36" gradientTransform="matrix(1,0,0,1,0,0)" xlink:href="#_新規グラデーションスウォッチ_1"/>
    <linearGradient id="_新規グラデーションスウォッチ_1-15" data-name="新規グラデーションスウォッチ 1" x1="68.36" y1="301.36" x2="220.1" y2="301.36" gradientTransform="matrix(1,0,0,1,0,0)" xlink:href="#_新規グラデーションスウォッチ_1"/>
    <linearGradient id="_新規グラデーションスウォッチ_1-16" data-name="新規グラデーションスウォッチ 1" x1="68.36" y1="301.36" x2="220.1" y2="301.36" gradientTransform="matrix(1,0,0,1,0,0)" xlink:href="#_新規グラデーションスウォッチ_1"/>
    <linearGradient id="_新規グラデーションスウォッチ_1-17" data-name="新規グラデーションスウォッチ 1" x1="68.36" y1="301.36" x2="220.1" y2="301.36" gradientTransform="matrix(1,0,0,1,0,0)" xlink:href="#_新規グラデーションスウォッチ_1"/>
    <linearGradient id="_新規グラデーションスウォッチ_1-18" data-name="新規グラデーションスウォッチ 1" x1="68.36" y1="301.36" x2="220.1" y2="301.36" gradientTransform="matrix(1,0,0,1,0,0)" xlink:href="#_新規グラデーションスウォッチ_1"/>
    <linearGradient id="_新規グラデーションスウォッチ_1-19" data-name="新規グラデーションスウォッチ 1" x1="68.36" y1="301.36" x2="220.1" y2="301.36" gradientTransform="matrix(1,0,0,1,0,0)" xlink:href="#_新規グラデーションスウォッチ_1"/>
  </defs>
  <g id="_レイヤー_1-2" data-name="レイヤー 1">
    <g>
      <path class="cls-22" d="m275.01,0h639.4C921.03,0,926.41,5.38,926.41,12v412.68c0,6.62-5.38,12-12,12H275.01V0h0Z"/>
      <path class="cls-11" d="m0,0h263.01C269.63,0,275.01,5.38,275.01,12v412.68c0,6.62-5.38,12-12,12H0V0H0Z" transform="translate(275.01 436.68) rotate(-180)"/>
      <path class="cls-13" d="m861.2,163.27h-181.71c-1.68,0-3.05,1.36-3.05,3.05v158.76c0,.84-.68,1.52-1.52,1.52h-181.86c-1.68,0-3.05,1.36-3.05,3.05v31.77c0,.84-.68,1.52-1.52,1.52h-181.86c-1.68,0-3.05,1.36-3.05,3.05v37.97c0,.84.68,1.52,1.52,1.52h557.62c.84,0,1.52-.68,1.52-1.52v-239.17c0-.84-.68-1.52-1.52-1.52h-1.53Z"/>
      <g>
        <path class="cls-21" d="m388.49,272.97h-3.64c-.19.29-.37.58-.59.9-.87,1.26-1.43,1.92-2.53,2.94-.29-.46-.51-.7-1.09-1.26,2.09-2.07,3.09-3.6,4.13-6.36l1.51.58c.24.1.36.21.36.29q0,.14-.48.26c-.17.42-.34.78-.49,1.12h6.9c1.02,0,2.52-.03,3.4-.07v1.67c-.88-.03-2.38-.07-3.4-.07h-2.41v2.28h2.7c.61,0,1.55-.02,2.02-.04v1.6c-.51-.03-1.46-.05-2.02-.05h-2.7v2.75h2.99c1.39,0,2.23-.02,3.38-.07v1.68c-.9-.03-2.35-.05-3.38-.05h-2.99v.53c0,1.56.02,2.72.05,3.48h-1.77c.03-.77.05-1.92.05-3.48v-.53h-4.27c-.94,0-2.46.02-3.38.05v-1.68c.73.04,1.92.05,2.87.07v-2.8q-.02-1.21-.03-1.5.46.02,1.99.04h2.82v-2.28Zm-3.18,3.79v2.75h3.18v-2.75h-3.18Z"/>
        <path class="cls-21" d="m401.81,285.13c.05-1.07.08-2.69.08-4.79-.85.37-1.39.6-3.08,1.28l-.08.19c-.07.14-.14.21-.24.21s-.19-.07-.24-.19l-.66-1.63c.37-.1.7-.19,1.02-.29v-6.51c0-1.34-.02-2.06-.05-2.55l1.72.12c.19,0,.29.07.29.17s-.08.19-.32.34v7.87c.54-.2,1.1-.42,1.65-.64v-4.22c0-2.79-.03-4.47-.1-5l1.8.12c.15,0,.25.08.25.17,0,.1-.08.19-.31.32q-.02.6-.03,4.38v5.7c0,2.23.03,3.88.08,4.96h-1.79Zm10.78-13c-.51,2.92-1.21,5.93-2.84,8.46.88,1.11,2.11,1.97,3.94,2.91-.59.54-.73.73-1.14,1.44-1.5-.83-2.79-1.87-3.79-3.01-.95,1.14-2.18,2.14-3.84,3.2-.37-.66-.54-.88-1-1.41,1.68-.99,2.84-1.94,3.83-3.18-.65-1.1-1.12-2.41-1.53-4.1-.29-1.19-.42-2.16-.59-4.11-.54.02-1.09.02-1.5.03v-1.67c.73.04,1.89.05,2.72.05h4.76l.22-.27,1.07,1.02c.08.09.14.17.14.26,0,.13-.08.22-.29.31l-.15.07Zm-5.47.19c.29,2.92.49,3.89,1.14,5.56.17.43.34.82.51,1.19,1.21-2.06,1.77-4.42,2.14-6.75h-3.79Z"/>
      </g>
      <g>
        <path class="cls-21" d="m394.74,343.51c-.22,2.7-.48,4.11-.94,5.46-.73,2.12-1.72,2.69-4.74,2.69h-.54q-.07-1.11-.22-1.9c.88.07.9.07,1.26.07,1.17,0,1.73-.2,2.14-.77.63-.92,1.02-2.55,1.26-5.27h-4.45c-.03.21-.07.39-.1.61-.44,2.38-1.72,4.45-3.62,5.93-.82.61-1.48,1-2.77,1.56-.25-.63-.48-1.04-.87-1.53,2.46-1.19,3.5-2.02,4.47-3.67,1.09-1.8,1.43-3.45,1.5-7.29h-2.06c-.93,0-2.46.03-3.4.07v-1.7c.88.05,2.41.07,3.4.07h8.52c1.07,0,2.52-.02,3.38-.07v1.7c-.9-.04-2.35-.07-3.38-.07h-4.72c-.03.95-.07,1.9-.15,2.86h4.91l.29-.32,1.16,1.04c.12.1.15.15.15.24,0,.1-.09.17-.29.24l-.17.07Z"/>
        <path class="cls-21" d="m401.23,348.05q.02,3.28.05,3.99h-1.85q.02-.71.05-3.31v-7.94q-.02-2.8-.05-3.31c.9.03,2.23.07,3.38.07h7c1.16,0,2.5-.03,3.38-.07q-.02.51-.03,3.31v6.7c0,.37.02,1.46.05,2.18v.25c0,1.02-.25,1.5-.93,1.82-.49.2-1.14.27-2.82.27-.05-1.04-.07-1.17-.32-1.96.75.05,1.14.07,1.65.07.54,0,.63-.1.63-.71v-3.89h-10.18v2.53Zm0-8.89v4.76h4.15v-4.76h-4.15Zm5.9,4.76h4.28v-4.76h-4.28v4.76Z"/>
      </g>
      <g>
        <g>
          <path class="cls-21" d="m381.19,314.81v4.13h-4.69v7.57h-4.82v-7.57h-14.58v-3.91l13.89-21.63h5.5v21.41h4.69Zm-9.5-15.39l-9.67,15.39h9.67v-15.39Z"/>
          <path class="cls-21" d="m408.23,309.87c0,10.58-4.26,16.9-11.35,16.9s-11.39-6.32-11.39-16.9,4.26-16.9,11.39-16.9,11.35,6.32,11.35,16.9Zm-15.52-10.28c-1.38,2.41-2.11,6.06-2.11,10.28s.73,7.87,2.11,10.28c.9,1.55,2.37,2.41,4.17,2.41s3.22-.86,4.13-2.41c1.38-2.41,2.15-6.06,2.15-10.28s-.82-8-2.15-10.28c-.95-1.59-2.37-2.41-4.13-2.41s-3.27.82-4.17,2.41Z"/>
          <path class="cls-21" d="m436.05,309.87c0,10.58-4.26,16.9-11.35,16.9s-11.39-6.32-11.39-16.9,4.26-16.9,11.39-16.9,11.35,6.32,11.35,16.9Zm-15.52-10.28c-1.38,2.41-2.11,6.06-2.11,10.28s.73,7.87,2.11,10.28c.9,1.55,2.37,2.41,4.17,2.41s3.22-.86,4.13-2.41c1.38-2.41,2.15-6.06,2.15-10.28s-.82-8-2.15-10.28c-.95-1.59-2.37-2.41-4.13-2.41s-3.27.82-4.17,2.41Z"/>
        </g>
        <g>
          <path class="cls-20" d="m381.19,314.81v4.13h-4.69v7.57h-4.82v-7.57h-14.58v-3.91l13.89-21.63h5.5v21.41h4.69Zm-9.5-15.39l-9.67,15.39h9.67v-15.39Z"/>
          <path class="cls-20" d="m408.23,309.87c0,10.58-4.26,16.9-11.35,16.9s-11.39-6.32-11.39-16.9,4.26-16.9,11.39-16.9,11.35,6.32,11.35,16.9Zm-15.52-10.28c-1.38,2.41-2.11,6.06-2.11,10.28s.73,7.87,2.11,10.28c.9,1.55,2.37,2.41,4.17,2.41s3.22-.86,4.13-2.41c1.38-2.41,2.15-6.06,2.15-10.28s-.82-8-2.15-10.28c-.95-1.59-2.37-2.41-4.13-2.41s-3.27.82-4.17,2.41Z"/>
          <path class="cls-20" d="m436.05,309.87c0,10.58-4.26,16.9-11.35,16.9s-11.39-6.32-11.39-16.9,4.26-16.9,11.39-16.9,11.35,6.32,11.35,16.9Zm-15.52-10.28c-1.38,2.41-2.11,6.06-2.11,10.28s.73,7.87,2.11,10.28c.9,1.55,2.37,2.41,4.17,2.41s3.22-.86,4.13-2.41c1.38-2.41,2.15-6.06,2.15-10.28s-.82-8-2.15-10.28c-.95-1.59-2.37-2.41-4.13-2.41s-3.27.82-4.17,2.41Z"/>
        </g>
        <g>
          <path class="cls-21" d="m381.19,314.81v4.13h-4.69v7.57h-4.82v-7.57h-14.58v-3.91l13.89-21.63h5.5v21.41h4.69Zm-9.5-15.39l-9.67,15.39h9.67v-15.39Z"/>
          <path class="cls-21" d="m408.23,309.87c0,10.58-4.26,16.9-11.35,16.9s-11.39-6.32-11.39-16.9,4.26-16.9,11.39-16.9,11.35,6.32,11.35,16.9Zm-15.52-10.28c-1.38,2.41-2.11,6.06-2.11,10.28s.73,7.87,2.11,10.28c.9,1.55,2.37,2.41,4.17,2.41s3.22-.86,4.13-2.41c1.38-2.41,2.15-6.06,2.15-10.28s-.82-8-2.15-10.28c-.95-1.59-2.37-2.41-4.13-2.41s-3.27.82-4.17,2.41Z"/>
          <path class="cls-21" d="m436.05,309.87c0,10.58-4.26,16.9-11.35,16.9s-11.39-6.32-11.39-16.9,4.26-16.9,11.39-16.9,11.35,6.32,11.35,16.9Zm-15.52-10.28c-1.38,2.41-2.11,6.06-2.11,10.28s.73,7.87,2.11,10.28c.9,1.55,2.37,2.41,4.17,2.41s3.22-.86,4.13-2.41c1.38-2.41,2.15-6.06,2.15-10.28s-.82-8-2.15-10.28c-.95-1.59-2.37-2.41-4.13-2.41s-3.27.82-4.17,2.41Z"/>
        </g>
      </g>
      <g>
        <path class="cls-21" d="m575.01,234.4h-3.64c-.19.29-.37.58-.59.9-.87,1.26-1.43,1.92-2.53,2.94-.29-.46-.51-.7-1.09-1.26,2.09-2.07,3.09-3.6,4.13-6.36l1.51.58c.24.1.36.2.36.29q0,.14-.48.25c-.17.42-.34.78-.49,1.12h6.9c1.02,0,2.52-.03,3.4-.07v1.67c-.88-.03-2.38-.07-3.4-.07h-2.41v2.28h2.7c.61,0,1.55-.02,2.02-.03v1.6c-.51-.03-1.46-.05-2.02-.05h-2.7v2.75h2.99c1.39,0,2.23-.02,3.38-.07v1.68c-.9-.03-2.35-.05-3.38-.05h-2.99v.53c0,1.56.02,2.72.05,3.48h-1.77c.03-.76.05-1.92.05-3.48v-.53h-4.27c-.94,0-2.46.02-3.38.05v-1.68c.73.03,1.92.05,2.87.07v-2.8q-.02-1.21-.03-1.5.46.02,1.99.03h2.82v-2.28Zm-3.18,3.79v2.75h3.18v-2.75h-3.18Z"/>
        <path class="cls-21" d="m588.34,246.55c.05-1.07.08-2.69.08-4.79-.85.37-1.39.6-3.08,1.28l-.08.19c-.07.14-.14.2-.24.2s-.19-.07-.24-.19l-.66-1.63c.37-.1.7-.19,1.02-.29v-6.51c0-1.34-.02-2.06-.05-2.55l1.72.12c.19,0,.29.07.29.17s-.08.19-.32.34v7.87c.54-.2,1.1-.42,1.65-.65v-4.22c0-2.79-.03-4.47-.1-5l1.8.12c.15,0,.25.08.25.17,0,.1-.08.19-.31.32q-.02.6-.03,4.39v5.69c0,2.23.03,3.88.08,4.96h-1.79Zm10.78-13c-.51,2.92-1.21,5.93-2.84,8.46.88,1.11,2.11,1.97,3.94,2.91-.59.54-.73.73-1.14,1.44-1.5-.83-2.79-1.87-3.79-3.01-.95,1.14-2.18,2.14-3.84,3.2-.37-.66-.54-.88-1-1.41,1.68-.99,2.84-1.94,3.83-3.18-.65-1.1-1.12-2.41-1.53-4.1-.29-1.19-.42-2.16-.59-4.11-.54.02-1.09.02-1.5.03v-1.67c.73.03,1.89.05,2.72.05h4.76l.22-.27,1.07,1.02c.08.08.14.17.14.25,0,.14-.08.22-.29.31l-.15.07Zm-5.47.19c.29,2.92.49,3.89,1.14,5.56.17.43.34.82.51,1.19,1.21-2.06,1.77-4.42,2.14-6.75h-3.79Z"/>
      </g>
      <g>
        <path class="cls-22" d="m544.92,367.95h-2.57c-.13.2-.26.41-.42.64-.61.89-1.01,1.36-1.79,2.08-.2-.32-.36-.49-.77-.89,1.47-1.46,2.18-2.54,2.91-4.49l1.07.41c.17.07.25.14.25.2q0,.1-.34.18c-.12.3-.24.55-.35.79h4.87c.72,0,1.78-.02,2.4-.05v1.17c-.62-.02-1.68-.05-2.4-.05h-1.7v1.61h1.91c.43,0,1.09-.01,1.43-.02v1.13c-.36-.02-1.03-.04-1.43-.04h-1.91v1.94h2.11c.98,0,1.57-.01,2.39-.05v1.19c-.64-.02-1.66-.04-2.39-.04h-2.11v.37c0,1.1.01,1.92.04,2.46h-1.25c.02-.54.04-1.36.04-2.46v-.37h-3.01c-.66,0-1.74.01-2.39.04v-1.19c.52.02,1.36.04,2.03.05v-1.98q-.01-.85-.02-1.06.32.01,1.4.02h1.99v-1.61Zm-2.24,2.67v1.94h2.24v-1.94h-2.24Z"/>
        <path class="cls-22" d="m554.33,376.53c.04-.76.06-1.89.06-3.38-.6.26-.98.42-2.17.9l-.06.13c-.05.1-.1.14-.17.14s-.13-.05-.17-.13l-.47-1.15c.26-.07.49-.13.72-.2v-4.59c0-.95-.01-1.45-.04-1.8l1.21.08c.13,0,.2.05.2.12s-.06.13-.23.24v5.55c.38-.14.78-.3,1.16-.46v-2.97c0-1.97-.02-3.15-.07-3.53l1.27.08c.11,0,.18.06.18.12,0,.07-.06.13-.22.23q-.01.42-.02,3.09v4.02c0,1.57.02,2.73.06,3.5h-1.26Zm7.6-9.17c-.36,2.06-.85,4.19-2,5.97.62.78,1.49,1.39,2.78,2.05-.42.38-.52.52-.8,1.02-1.06-.59-1.97-1.32-2.67-2.12-.67.8-1.54,1.51-2.71,2.25-.26-.47-.38-.62-.71-1,1.19-.7,2-1.37,2.7-2.24-.46-.78-.79-1.7-1.08-2.89-.2-.84-.3-1.52-.42-2.9-.38.01-.77.01-1.06.02v-1.18c.52.02,1.33.04,1.92.04h3.36l.16-.19.76.72c.06.06.1.12.1.18,0,.1-.06.16-.2.22l-.11.05Zm-3.86.13c.2,2.06.35,2.75.8,3.92.12.3.24.58.36.84.85-1.45,1.25-3.12,1.51-4.76h-2.67Z"/>
        <path class="cls-22" d="m573.32,372.31v1.15h-1.31v2.11h-1.34v-2.11h-4.07v-1.09l3.87-6.03h1.54v5.97h1.31Zm-2.65-4.29l-2.7,4.29h2.7v-4.29Z"/>
        <path class="cls-22" d="m576.1,373.44c.23.64.71.97,1.43.97,1,0,1.67-.82,1.67-2.04,0-1.14-.61-1.9-1.52-1.9-.64,0-1.1.26-1.51.86l-1.22-.17.78-4.79h4.4l-.11,1.26h-3.24l-.37,2.18c.5-.37.9-.5,1.49-.5,1.66,0,2.78,1.2,2.78,2.99,0,.9-.3,1.7-.85,2.34-.6.67-1.31.98-2.24.98-1.51,0-2.61-.86-2.83-2.19h1.35Z"/>
        <path class="cls-22" d="m588.64,370.93c0,2.95-1.19,4.71-3.17,4.71s-3.18-1.76-3.18-4.71,1.19-4.71,3.18-4.71,3.17,1.76,3.17,4.71Zm-4.33-2.87c-.38.67-.59,1.69-.59,2.87s.2,2.19.59,2.87c.25.43.66.67,1.16.67s.9-.24,1.15-.67c.38-.67.6-1.69.6-2.87s-.23-2.23-.6-2.87c-.26-.44-.66-.67-1.15-.67s-.91.23-1.16.67Z"/>
        <path class="cls-22" d="m602.19,370.33c-.16,1.91-.34,2.9-.66,3.85-.52,1.5-1.21,1.89-3.35,1.89h-.38q-.05-.78-.16-1.34c.62.05.64.05.89.05.83,0,1.22-.14,1.51-.54.44-.65.72-1.8.89-3.72h-3.14c-.02.14-.05.28-.07.43-.31,1.68-1.21,3.14-2.55,4.19-.58.43-1.04.71-1.96,1.1-.18-.44-.34-.73-.61-1.08,1.74-.84,2.47-1.43,3.15-2.59.77-1.27,1.01-2.43,1.06-5.14h-1.45c-.66,0-1.74.02-2.4.05v-1.2c.62.04,1.7.05,2.4.05h6.01c.76,0,1.78-.01,2.39-.05v1.2c-.63-.02-1.65-.05-2.39-.05h-3.33c-.02.67-.05,1.34-.11,2.01h3.47l.2-.23.82.73c.08.07.11.11.11.17,0,.07-.06.12-.2.17l-.12.05Z"/>
        <path class="cls-22" d="m606.78,373.53q.01,2.31.04,2.82h-1.31q.01-.5.04-2.34v-5.6q-.01-1.98-.04-2.34c.64.02,1.57.05,2.39.05h4.94c.82,0,1.76-.02,2.39-.05q-.01.36-.02,2.34v4.73c0,.26.01,1.03.04,1.54v.18c0,.72-.18,1.06-.66,1.28-.35.14-.8.19-1.99.19-.04-.73-.05-.83-.23-1.38.53.04.8.05,1.16.05.38,0,.44-.07.44-.5v-2.75h-7.18v1.79Zm0-6.27v3.36h2.93v-3.36h-2.93Zm4.16,3.36h3.02v-3.36h-3.02v3.36Z"/>
        <path class="cls-22" d="m622.88,374.3h-1.09v-2.82h-2.83v-1.1h2.83v-2.82h1.09v2.82h2.83v1.1h-2.83v2.82Z"/>
        <path class="cls-22" d="m510.06,388.21h-4.77c-.41,0-1.04.01-1.44.02v-1.28c.36.01.95.02,1.44.02h5.11c.41,0,.72,0,1.02-.01q-.01.38-.04,1.91v2.6c0,.96.01,1.66.04,2.11h-1.35v-.56h-4.86c-.4,0-1.08.01-1.44.02v-1.28c.36.01.97.02,1.44.02h4.86v-3.57Z"/>
        <path class="cls-22" d="m516.22,386.33c1.25.65,1.7.98,2.53,1.9l-.95,1.04c-.86-.96-1.49-1.46-2.38-1.94l.79-1Zm-.46,6.76c1.81-.77,2.84-1.36,4.21-2.39,1.59-1.22,2.53-2.17,3.77-3.85.24.42.44.68.83,1.14-1.58,1.91-2.47,2.78-3.87,3.84-1.18.89-2.06,1.43-3.77,2.29-.05.17-.1.25-.18.25-.06,0-.16-.06-.2-.14l-.78-1.14Z"/>
        <path class="cls-22" d="m532.8,387.89v-2.9s1.27.08,1.27.08c.16.01.23.05.23.13,0,.07-.05.12-.23.23v2.46h.79c.66,0,1.61-.01,2.15-.04v1.26c-.56-.01-1.51-.04-2.15-.04h-.79c-.05,1.16-.05,1.24-.13,1.69-.32,1.92-1.51,3.25-4.03,4.54-.24-.47-.48-.8-.83-1.12,1.4-.61,2.39-1.36,2.97-2.21.54-.78.71-1.44.74-2.91h-2.36v.91c0,.79.01,1.4.04,1.75h-1.31c.02-.41.04-.96.04-1.75v-.91h-.83c-.59,0-1.63.02-2.15.04v-1.26c.49.02,1.54.04,2.15.04h.83v-.62c0-.95-.01-1.46-.04-1.8l1.31.08c.13.01.2.05.2.13,0,.07-.04.1-.24.23v1.98h2.36Z"/>
        <path class="cls-22" d="m542.62,387.42c.07.01.14.07.14.13,0,.07-.06.13-.22.22-.22,2.09-.42,2.87-.98,3.77-.61.98-1.26,1.57-2.73,2.47-.16-.42-.41-.78-.79-1.15,1.17-.68,1.67-1.08,2.18-1.75.68-.91.98-2.09.98-3.77v-.06l1.42.14Zm.83,5.22c.11-.38.13-.86.13-2.23v-2.1c0-.92-.01-1.44-.04-1.8l1.38.08c.14.01.22.05.22.13,0,.06-.06.12-.23.23q-.01.19-.02,1.36v3.39c1.7-.83,2.64-1.51,4.04-2.95.22.62.3.83.49,1.28-1.61,1.49-2.65,2.18-4.64,3.14-.06.16-.12.23-.19.23-.05,0-.12-.02-.18-.07l-.96-.7Z"/>
        <path class="cls-22" d="m558.65,391c-.63,1.04-1.08,1.55-1.79,2.16-.06.05-.07.06-.11.08,1.02.48,2.15.74,4.56,1.09-.29.4-.38.58-.58,1.08-2.39-.35-3.8-.75-5-1.44-.52.3-1.07.56-1.67.78-1,.36-1.8.53-3.5.76-.14-.53-.23-.72-.44-1.13,2.06-.24,3.39-.58,4.54-1.14-.71-.59-1.26-1.32-1.69-2.12-.38,0-.75.01-1.03.02v-1.14c.5.01,1.32.04,1.91.04h4.25l.16-.19.71.7c.07.08.1.13.1.19,0,.08-.05.14-.2.19l-.2.07Zm1.06-5.87c.08.07.11.11.11.16,0,.07-.06.12-.17.12-.07,0-.16,0-.24-.01-1.2.28-2.46.48-3.91.63.42.49.59.71.95,1.39l-.96.55h1.66c.5-.77.83-1.39,1.15-2.33l1.22.47c.07.02.12.08.12.13,0,.08-.07.13-.29.19-.55.92-.73,1.22-.94,1.54.82,0,1.71-.01,2.31-.05-.01.43-.01.66-.01.91v.48c0,.26.01.58.04.92h-1.2c.01-.3.04-.68.04-.92v-.28h-7.93v.28c0,.24.01.62.04.92h-1.2c.02-.35.04-.66.04-.92v-.48c0-.25,0-.48-.02-.91.6.04,1.49.05,2.28.05-.22-.47-.46-.89-.74-1.31l.79-.42c-.47.02-.96.05-1.47.07-.1-.58-.13-.74-.25-1.04,3.03-.01,6.2-.37,7.72-.86l.88.72Zm-4.29.91c-.8.08-1.62.14-2.42.19.38.44.59.74.86,1.26l-.85.48h2.43c-.24-.52-.52-1.02-.85-1.48l.83-.46Zm-1.24,5.06c.22.3.43.58.68.84s.53.49.83.71c.29-.22.56-.43.82-.68.26-.28.5-.56.73-.86h-3.06Z"/>
        <path class="cls-22" d="m565.95,387.63c-.25-.01-.64-.02-.96-.02h-1.98c-.32,0-.71.01-.96.02v-1.14c.26.01.7.02.96.02h1.98c.26,0,.7-.01.96-.02v1.14Zm-2.4,7.71h-1.14c.02-.28.04-.68.04-1.27v-1.56c0-.37-.01-.84-.04-1.05.28.01.53.02.88.02h1.46c.35,0,.6-.01.86-.02-.02.22-.04.68-.04,1.05v1.49c0,.56.01.97.04,1.25h-1.13v-.38h-.94v.48Zm1.16-9.38h-2.15s0-1.1,0-1.1c.18.01.49.02.72.02h1.43c.23,0,.54-.01.72-.02v1.12h-.72Zm.72,3.29c-.18-.01-.49-.01-.72-.01h-1.43c-.23,0-.54,0-.72.01v-1.12c.18.01.49.01.72.01h1.43c.23,0,.54,0,.72-.01v1.12Zm0,1.66c-.18-.01-.49-.01-.72-.01h-1.43c-.23,0-.54,0-.72.01v-1.12c.18.01.49.01.72.01h1.43c.23,0,.54,0,.72-.01v1.12Zm-.95,1.52h-.94v1.48h.94v-1.48Zm6.97-2.54c.36,0,.6-.01.88-.02-.02.22-.04.62-.04.98v1.8c.34-.01.68-.02.92-.04v.98c-.23-.01-.59-.01-.91-.02,0,.24.01.48.02.72v.16c0,.89-.38,1.08-2.22,1.08-.08-.59-.12-.76-.25-1.22.34.04.58.05.86.05.42,0,.48-.06.48-.49v-.29h-3.35v1.97h-1.13c.02-.29.04-.68.04-1.28v-.68c-.33.01-.7.01-.94.02v-.98c.24.01.59.02.94.04v-1.71c0-.38-.01-.85-.04-1.07.26.01.52.02.86.02h1.37v-.59h-1.69c-.4,0-1.07.01-1.44.02v-1.03c.36.01.97.02,1.44.02h.53v-.5c-.4,0-.9.01-1.2.02v-.95c.3.01.78.02,1.2.02v-.47h-.24c-.4,0-1.08.01-1.44.02v-1.03c.36.02.97.04,1.44.04h.24v-.28c0-.34,0-.6-.01-.78l1.13.08c.14.01.23.06.23.12,0,.07-.07.14-.24.24v.61h1.24v-.28c0-.34-.01-.6-.02-.78l1.14.08c.14.01.22.06.22.12,0,.07-.06.14-.24.24v.61h.24c.47,0,1.08-.01,1.44-.04v1.03c-.36-.01-1.04-.02-1.44-.02h-.24v.47c.42,0,.9-.01,1.2-.02v.95c-.3-.01-.8-.02-1.2-.02v.5h.55c.46,0,1.08-.01,1.44-.02v1.03c-.37-.01-1.04-.02-1.44-.02h-1.74v.59h1.42Zm-3.6.95v.47h1.1v-.47h-1.1Zm0,1.81h1.1v-.46h-1.1v.46Zm1.04-6.2v.47h1.24v-.47h-1.24Zm1.24,1.87v-.5h-1.24v.5h1.24Zm-.1,2.99h1.16v-.47h-1.16v.47Zm1.16.89h-1.16v.46h1.16v-.46Z"/>
        <path class="cls-22" d="m580.55,384.34c-1.18,1.76-1.73,3.56-1.73,5.6s.55,3.84,1.73,5.6h-1.01c-1.37-1.81-1.95-3.5-1.95-5.6s.59-3.79,1.95-5.6h1.01Z"/>
        <path class="cls-22" d="m591.19,386.02c-.34-.01-.84-.02-1.2-.02h-4.31c-.35,0-.86.01-1.2.02v-1.12c.34.01.85.02,1.2.02h4.31c.36,0,.86-.01,1.2-.02v1.12Zm-5.25,9.31h-1.16c.02-.48.04-1.17.04-2.11v-1.2c0-.72-.01-1.52-.04-1.91.32.01.61.02,1.02.02h4.05c.41,0,.7-.01,1.02-.02q-.02.4-.04,1.91v.82c0,1.27,0,1.93.04,2.43h-1.18v-.47h-3.75v.53Zm.5-5.52h-1.14c.02-.47.04-.78.04-1.33v-.86c0-.38-.01-.84-.04-1.06.42.01.79.01,1.33.01h2.5c.53,0,.9,0,1.32-.01-.02.22-.04.67-.04,1.06v.77c0,.56.01.97.04,1.25h-1.14v-.25h-2.87v.43Zm.79,1.39h-1.3v.71h1.3v-.71Zm-1.3,1.77v.74h1.3v-.74h-1.3Zm3.37-4.63v-.74h-2.87v.74h2.87Zm.38,3.56v-.71h-1.36v.71h1.36Zm-1.36,1.81h1.36v-.74h-1.36v.74Zm4.55-8.1c.12.01.2.05.2.12s-.07.14-.23.24q-.01.2-.01,1.7v3.43c0,.91.01,1.68.04,2.11h-1.22c.02-.47.04-1.14.04-2.11v-3.43c0-1.17-.01-1.8-.05-2.15l1.24.08Zm2.43-.98c.1,0,.17.06.17.12,0,.07-.06.13-.22.23q-.01.42-.01,3.09v3.11c0,.49,0,1.46.02,2.82v.12c0,.59-.11.86-.4,1.06-.34.23-.64.28-1.91.29-.02-.46-.07-.74-.23-1.27.37.04.58.05.85.05.46,0,.5-.05.5-.5v-5.66c0-1.97-.02-3.15-.07-3.53l1.28.08Z"/>
        <path class="cls-22" d="m602.56,393.41c0,.91.01,1.68.04,2.11h-1.17c.02-.47.04-1.14.04-2.11v-.64c-.7.61-1.15.92-1.92,1.34-.91.49-1.54.74-2.75,1.12-.2-.54-.23-.6-.5-1.06,1.81-.48,3.07-1.03,4.14-1.8h-1.52c-.62,0-1.4.01-1.91.04v-1.02c.5.02,1.28.04,1.91.04h2.55v-.59h-1.54c-.61,0-1.4.01-1.91.04v-1.01c.5.01,1.29.04,1.91.04h1.54v-.56h-2.12c-.62,0-1.42.02-1.92.05v-1.02c.5.02,1.29.04,1.92.04h.73c-.14-.36-.32-.7-.53-1.02h-.49c-.66,0-1.74.01-2.39.04v-1.09c.54.02,1.42.04,2.09.04-.24-.4-.42-.62-.88-1.13l.82-.64c.67.64.84.83,1.28,1.55l-.34.22h.89v-1.94s1.12.08,1.12.08c.14.01.23.05.23.12s-.07.14-.24.24v1.5h.88v-1.17c0-.32,0-.59-.01-.77l1.14.08c.13.01.22.05.22.12s-.07.14-.24.24v1.5h.48c.37-.74.49-1.09.65-1.73l1.16.42c.07.02.13.08.13.13,0,.08-.04.11-.28.19q-.07.14-.36.73c-.04.07-.08.16-.14.25.73,0,1.64-.01,2.21-.04v1.09c-.64-.02-1.66-.04-2.39-.04h-.78c.16.05.19.11.19.16,0,.07-.06.11-.26.17q-.08.16-.36.7h.94c.55,0,1.39-.01,1.91-.04v1.02c-.52-.02-1.35-.05-1.91-.05h-2.23v.56h1.63c.55,0,1.4-.02,1.92-.04v1.01c-.52-.02-1.37-.04-1.92-.04h-1.63v.59h2.7c.55,0,1.39-.01,1.91-.04v1.02c-.52-.02-1.35-.04-1.91-.04h-1.78c1.1.78,2.34,1.26,4.25,1.68-.28.44-.34.58-.54,1.09-1.2-.3-2.03-.62-3.03-1.16-.64-.36-1-.61-1.6-1.18v.6Zm.18-5c.16-.34.31-.67.42-1.02h-2.44c.23.31.41.66.55,1.02h1.46Z"/>
        <path class="cls-22" d="m612.57,384.34c1.37,1.81,1.96,3.5,1.96,5.6s-.59,3.79-1.96,5.6h-1.01c1.17-1.76,1.73-3.56,1.73-5.6s-.55-3.84-1.73-5.6h1.01Z"/>
        <path class="cls-22" d="m617.37,386.87c1.28-.04,1.87-.46,2.13-1.54h.97v9.16h-1.4v-6.81h-1.7v-.82Z"/>
        <path class="cls-22" d="m630.3,389.93c0,2.95-1.19,4.71-3.17,4.71s-3.18-1.76-3.18-4.71,1.19-4.71,3.18-4.71,3.17,1.76,3.17,4.71Zm-4.33-2.87c-.38.67-.59,1.69-.59,2.87s.2,2.19.59,2.87c.25.43.66.67,1.16.67s.9-.24,1.15-.67c.38-.67.6-1.69.6-2.87s-.23-2.23-.6-2.87c-.26-.44-.66-.67-1.15-.67s-.91.23-1.16.67Z"/>
        <path class="cls-22" d="m638.06,389.93c0,2.95-1.19,4.71-3.17,4.71s-3.18-1.76-3.18-4.71,1.19-4.71,3.18-4.71,3.17,1.76,3.17,4.71Zm-4.33-2.87c-.38.67-.59,1.69-.59,2.87s.2,2.19.59,2.87c.25.43.66.67,1.16.67s.9-.24,1.15-.67c.38-.67.6-1.69.6-2.87s-.23-2.23-.6-2.87c-.26-.44-.66-.67-1.15-.67s-.91.23-1.16.67Z"/>
        <path class="cls-22" d="m651.62,389.33c-.16,1.91-.34,2.9-.66,3.85-.52,1.5-1.21,1.89-3.35,1.89h-.38q-.05-.78-.16-1.34c.62.05.64.05.89.05.83,0,1.22-.14,1.51-.54.44-.65.72-1.8.89-3.72h-3.14c-.02.14-.05.28-.07.43-.31,1.68-1.21,3.14-2.55,4.19-.58.43-1.04.71-1.96,1.1-.18-.44-.34-.73-.61-1.08,1.74-.84,2.47-1.43,3.15-2.59.77-1.27,1.01-2.43,1.06-5.14h-1.45c-.66,0-1.74.02-2.4.05v-1.2c.62.04,1.7.05,2.4.05h6.01c.76,0,1.78-.01,2.39-.05v1.2c-.63-.02-1.65-.05-2.39-.05h-3.33c-.02.67-.05,1.34-.11,2.01h3.47l.2-.23.82.73c.08.07.11.11.11.17,0,.07-.06.12-.2.17l-.12.05Z"/>
        <path class="cls-22" d="m656.21,392.53q.01,2.31.04,2.82h-1.31q.01-.5.04-2.34v-5.6q-.01-1.98-.04-2.34c.64.02,1.57.05,2.39.05h4.94c.82,0,1.76-.02,2.39-.05q-.01.36-.02,2.34v4.73c0,.26.01,1.03.04,1.54v.18c0,.72-.18,1.06-.66,1.28-.35.14-.8.19-1.99.19-.04-.73-.05-.83-.23-1.38.53.04.8.05,1.16.05.38,0,.44-.07.44-.5v-2.75h-7.18v1.79Zm0-6.27v3.36h2.93v-3.36h-2.93Zm4.16,3.36h3.02v-3.36h-3.02v3.36Z"/>
      </g>
      <g>
        <path class="cls-21" d="m581.44,304.93c-.22,2.7-.48,4.11-.94,5.46-.73,2.12-1.72,2.69-4.74,2.69h-.54q-.07-1.11-.22-1.9c.88.07.9.07,1.26.07,1.17,0,1.73-.2,2.14-.77.63-.92,1.02-2.55,1.26-5.27h-4.45c-.03.2-.07.39-.1.61-.44,2.38-1.72,4.45-3.62,5.93-.82.61-1.48,1-2.77,1.56-.25-.63-.48-1.04-.87-1.53,2.46-1.19,3.5-2.02,4.47-3.67,1.09-1.8,1.43-3.45,1.5-7.29h-2.06c-.93,0-2.46.03-3.4.07v-1.7c.88.05,2.41.07,3.4.07h8.52c1.07,0,2.52-.02,3.38-.07v1.7c-.9-.03-2.35-.07-3.38-.07h-4.73c-.03.95-.07,1.9-.15,2.86h4.91l.29-.32,1.16,1.04c.12.1.15.15.15.24,0,.1-.08.17-.29.24l-.17.07Z"/>
        <path class="cls-21" d="m587.93,309.47q.02,3.28.05,4h-1.85q.02-.71.05-3.31v-7.94q-.02-2.8-.05-3.31c.9.03,2.23.07,3.38.07h7c1.16,0,2.5-.03,3.38-.07q-.02.51-.03,3.31v6.7c0,.37.02,1.46.05,2.18v.25c0,1.02-.25,1.5-.93,1.82-.49.2-1.14.27-2.82.27-.05-1.04-.07-1.17-.32-1.96.75.05,1.14.07,1.65.07.54,0,.63-.1.63-.71v-3.89h-10.18v2.53Zm0-8.89v4.76h4.15v-4.76h-4.15Zm5.9,4.76h4.28v-4.76h-4.28v4.76Z"/>
      </g>
      <g>
        <g>
          <path class="cls-21" d="m549.78,280.28c.82,2.28,2.54,3.48,5.12,3.48,3.57,0,5.98-2.92,5.98-7.31,0-4.08-2.19-6.79-5.46-6.79-2.28,0-3.96.95-5.42,3.1l-4.39-.6,2.79-17.16h15.78l-.39,4.52h-11.61l-1.33,7.83c1.81-1.33,3.22-1.81,5.33-1.81,5.93,0,9.98,4.3,9.98,10.71,0,3.22-1.08,6.11-3.05,8.38-2.15,2.41-4.69,3.53-8.04,3.53-5.42,0-9.37-3.1-10.15-7.87h4.86Z"/>
          <path class="cls-21" d="m577.6,280.28c.82,2.28,2.54,3.48,5.12,3.48,3.57,0,5.98-2.92,5.98-7.31,0-4.08-2.19-6.79-5.46-6.79-2.28,0-3.96.95-5.42,3.1l-4.39-.6,2.79-17.16h15.78l-.39,4.52h-11.61l-1.33,7.83c1.81-1.33,3.22-1.81,5.33-1.81,5.93,0,9.98,4.3,9.98,10.71,0,3.22-1.08,6.11-3.05,8.38-2.15,2.41-4.69,3.53-8.04,3.53-5.42,0-9.37-3.1-10.15-7.87h4.86Z"/>
          <path class="cls-21" d="m622.54,271.29c0,10.58-4.26,16.9-11.35,16.9s-11.39-6.32-11.39-16.9,4.26-16.9,11.39-16.9,11.35,6.32,11.35,16.9Zm-15.52-10.28c-1.38,2.41-2.11,6.06-2.11,10.28s.73,7.87,2.11,10.28c.9,1.55,2.37,2.41,4.17,2.41s3.22-.86,4.13-2.41c1.38-2.41,2.15-6.06,2.15-10.28s-.82-8-2.15-10.28c-.95-1.59-2.37-2.41-4.13-2.41s-3.27.82-4.17,2.41Z"/>
        </g>
        <g>
          <path class="cls-20" d="m549.78,280.28c.82,2.28,2.54,3.48,5.12,3.48,3.57,0,5.98-2.92,5.98-7.31,0-4.08-2.19-6.79-5.46-6.79-2.28,0-3.96.95-5.42,3.1l-4.39-.6,2.79-17.16h15.78l-.39,4.52h-11.61l-1.33,7.83c1.81-1.33,3.22-1.81,5.33-1.81,5.93,0,9.98,4.3,9.98,10.71,0,3.22-1.08,6.11-3.05,8.38-2.15,2.41-4.69,3.53-8.04,3.53-5.42,0-9.37-3.1-10.15-7.87h4.86Z"/>
          <path class="cls-20" d="m577.6,280.28c.82,2.28,2.54,3.48,5.12,3.48,3.57,0,5.98-2.92,5.98-7.31,0-4.08-2.19-6.79-5.46-6.79-2.28,0-3.96.95-5.42,3.1l-4.39-.6,2.79-17.16h15.78l-.39,4.52h-11.61l-1.33,7.83c1.81-1.33,3.22-1.81,5.33-1.81,5.93,0,9.98,4.3,9.98,10.71,0,3.22-1.08,6.11-3.05,8.38-2.15,2.41-4.69,3.53-8.04,3.53-5.42,0-9.37-3.1-10.15-7.87h4.86Z"/>
          <path class="cls-20" d="m622.54,271.29c0,10.58-4.26,16.9-11.35,16.9s-11.39-6.32-11.39-16.9,4.26-16.9,11.39-16.9,11.35,6.32,11.35,16.9Zm-15.52-10.28c-1.38,2.41-2.11,6.06-2.11,10.28s.73,7.87,2.11,10.28c.9,1.55,2.37,2.41,4.17,2.41s3.22-.86,4.13-2.41c1.38-2.41,2.15-6.06,2.15-10.28s-.82-8-2.15-10.28c-.95-1.59-2.37-2.41-4.13-2.41s-3.27.82-4.17,2.41Z"/>
        </g>
        <g>
          <path class="cls-21" d="m549.78,280.28c.82,2.28,2.54,3.48,5.12,3.48,3.57,0,5.98-2.92,5.98-7.31,0-4.08-2.19-6.79-5.46-6.79-2.28,0-3.96.95-5.42,3.1l-4.39-.6,2.79-17.16h15.78l-.39,4.52h-11.61l-1.33,7.83c1.81-1.33,3.22-1.81,5.33-1.81,5.93,0,9.98,4.3,9.98,10.71,0,3.22-1.08,6.11-3.05,8.38-2.15,2.41-4.69,3.53-8.04,3.53-5.42,0-9.37-3.1-10.15-7.87h4.86Z"/>
          <path class="cls-21" d="m577.6,280.28c.82,2.28,2.54,3.48,5.12,3.48,3.57,0,5.98-2.92,5.98-7.31,0-4.08-2.19-6.79-5.46-6.79-2.28,0-3.96.95-5.42,3.1l-4.39-.6,2.79-17.16h15.78l-.39,4.52h-11.61l-1.33,7.83c1.81-1.33,3.22-1.81,5.33-1.81,5.93,0,9.98,4.3,9.98,10.71,0,3.22-1.08,6.11-3.05,8.38-2.15,2.41-4.69,3.53-8.04,3.53-5.42,0-9.37-3.1-10.15-7.87h4.86Z"/>
          <path class="cls-21" d="m622.54,271.29c0,10.58-4.26,16.9-11.35,16.9s-11.39-6.32-11.39-16.9,4.26-16.9,11.39-16.9,11.35,6.32,11.35,16.9Zm-15.52-10.28c-1.38,2.41-2.11,6.06-2.11,10.28s.73,7.87,2.11,10.28c.9,1.55,2.37,2.41,4.17,2.41s3.22-.86,4.13-2.41c1.38-2.41,2.15-6.06,2.15-10.28s-.82-8-2.15-10.28c-.95-1.59-2.37-2.41-4.13-2.41s-3.27.82-4.17,2.41Z"/>
        </g>
      </g>
      <g>
        <path class="cls-21" d="m764.67,72.56h-3.64c-.19.29-.37.58-.6.9-.87,1.26-1.43,1.92-2.53,2.94-.29-.46-.51-.7-1.09-1.26,2.09-2.07,3.09-3.6,4.13-6.36l1.51.58c.24.1.36.2.36.29q0,.14-.48.25c-.17.42-.34.78-.49,1.12h6.9c1.02,0,2.52-.03,3.4-.07v1.67c-.88-.03-2.38-.07-3.4-.07h-2.41v2.28h2.7c.61,0,1.55-.02,2.02-.03v1.6c-.51-.03-1.46-.05-2.02-.05h-2.7v2.75h2.99c1.39,0,2.23-.02,3.38-.07v1.68c-.9-.03-2.35-.05-3.38-.05h-2.99v.53c0,1.56.02,2.72.05,3.48h-1.77c.03-.76.05-1.92.05-3.48v-.53h-4.27c-.94,0-2.46.02-3.38.05v-1.68c.73.03,1.92.05,2.87.07v-2.8q-.02-1.21-.03-1.5.46.02,1.99.03h2.82v-2.28Zm-3.18,3.79v2.75h3.18v-2.75h-3.18Z"/>
        <path class="cls-21" d="m778,84.71c.05-1.07.08-2.69.08-4.79-.85.37-1.39.6-3.08,1.28l-.08.19c-.07.14-.14.2-.24.2s-.19-.07-.24-.19l-.66-1.63c.37-.1.7-.19,1.02-.29v-6.51c0-1.34-.02-2.06-.05-2.55l1.72.12c.19,0,.29.07.29.17s-.08.19-.32.34v7.87c.54-.2,1.1-.42,1.65-.65v-4.22c0-2.79-.03-4.47-.1-5l1.8.12c.15,0,.25.08.25.17,0,.1-.08.19-.31.32q-.02.6-.03,4.39v5.69c0,2.23.03,3.88.08,4.96h-1.79Zm10.78-13c-.51,2.92-1.21,5.93-2.84,8.46.88,1.11,2.11,1.97,3.94,2.91-.59.54-.73.73-1.14,1.44-1.5-.83-2.79-1.87-3.79-3.01-.95,1.14-2.18,2.14-3.84,3.2-.37-.66-.54-.88-1-1.41,1.68-.99,2.84-1.94,3.83-3.18-.65-1.1-1.12-2.41-1.53-4.1-.29-1.19-.42-2.16-.59-4.11-.54.02-1.09.02-1.5.03v-1.67c.73.03,1.89.05,2.72.05h4.76l.22-.27,1.07,1.02c.08.08.14.17.14.25,0,.14-.08.22-.29.31l-.15.07Zm-5.47.19c.29,2.92.49,3.89,1.14,5.56.17.43.34.82.51,1.19,1.21-2.06,1.77-4.42,2.14-6.75h-3.79Z"/>
      </g>
      <g>
        <path class="cls-21" d="m771.1,143.67c-.22,2.7-.48,4.11-.94,5.46-.73,2.12-1.72,2.69-4.74,2.69h-.54q-.07-1.11-.22-1.9c.88.07.9.07,1.26.07,1.17,0,1.73-.2,2.14-.77.63-.92,1.02-2.55,1.26-5.27h-4.45c-.03.2-.07.39-.1.61-.44,2.38-1.72,4.45-3.62,5.93-.82.61-1.48,1-2.77,1.56-.25-.63-.48-1.04-.87-1.53,2.46-1.19,3.5-2.02,4.47-3.67,1.09-1.8,1.43-3.45,1.5-7.29h-2.06c-.93,0-2.46.03-3.4.07v-1.7c.88.05,2.41.07,3.4.07h8.52c1.07,0,2.52-.02,3.38-.07v1.7c-.9-.03-2.35-.07-3.38-.07h-4.72c-.03.95-.07,1.9-.15,2.86h4.91l.29-.32,1.16,1.04c.12.1.15.15.15.24,0,.1-.09.17-.29.24l-.17.07Z"/>
        <path class="cls-21" d="m777.59,148.21q.02,3.28.05,4h-1.85q.02-.71.05-3.31v-7.94q-.02-2.8-.05-3.31c.9.03,2.23.07,3.38.07h7c1.16,0,2.5-.03,3.38-.07q-.02.51-.03,3.31v6.7c0,.37.02,1.46.05,2.18v.25c0,1.02-.25,1.5-.93,1.82-.49.2-1.14.27-2.82.27-.05-1.04-.07-1.17-.32-1.96.75.05,1.14.07,1.65.07.54,0,.63-.1.63-.71v-3.89h-10.18v2.53Zm0-8.89v4.76h4.15v-4.76h-4.15Zm5.9,4.76h4.28v-4.76h-4.28v4.76Z"/>
      </g>
      <g>
        <g>
          <path class="cls-21" d="m721.53,102.29c.21-5.8,3.83-9.2,9.85-9.2s9.67,3.44,9.67,8.77c0,3.14-1.08,5.42-4.73,9.85-1.85,2.24-4.21,4.99-8.73,10.11h13.8v4.6h-20.25v-4.04q.73-.9,3.31-3.91c10.45-12.25,11.44-13.67,11.44-16.43s-1.93-4.51-4.77-4.51c-3.05,0-4.9,1.68-5.25,4.77h-4.34Z"/>
          <path class="cls-21" d="m769.86,93.74v3.96l-14.1,28.72h-5.46l13.72-27.91h-15.48v-4.77h21.33Z"/>
          <path class="cls-21" d="m798.29,110.03c0,10.58-4.26,16.9-11.35,16.9s-11.39-6.32-11.39-16.9,4.26-16.9,11.39-16.9,11.35,6.32,11.35,16.9Zm-15.52-10.28c-1.38,2.41-2.11,6.06-2.11,10.28s.73,7.87,2.11,10.28c.9,1.55,2.37,2.41,4.17,2.41s3.22-.86,4.13-2.41c1.38-2.41,2.15-6.06,2.15-10.28s-.82-8-2.15-10.28c-.95-1.59-2.37-2.41-4.13-2.41s-3.27.82-4.17,2.41Z"/>
          <path class="cls-21" d="m826.11,110.03c0,10.58-4.26,16.9-11.35,16.9s-11.39-6.32-11.39-16.9,4.26-16.9,11.39-16.9,11.35,6.32,11.35,16.9Zm-15.52-10.28c-1.38,2.41-2.11,6.06-2.11,10.28s.73,7.87,2.11,10.28c.9,1.55,2.37,2.41,4.17,2.41s3.22-.86,4.13-2.41c1.38-2.41,2.15-6.06,2.15-10.28s-.82-8-2.15-10.28c-.95-1.59-2.37-2.41-4.13-2.41s-3.27.82-4.17,2.41Z"/>
        </g>
        <g>
          <path class="cls-20" d="m721.53,102.29c.21-5.8,3.83-9.2,9.85-9.2s9.67,3.44,9.67,8.77c0,3.14-1.08,5.42-4.73,9.85-1.85,2.24-4.21,4.99-8.73,10.11h13.8v4.6h-20.25v-4.04q.73-.9,3.31-3.91c10.45-12.25,11.44-13.67,11.44-16.43s-1.93-4.51-4.77-4.51c-3.05,0-4.9,1.68-5.25,4.77h-4.34Z"/>
          <path class="cls-20" d="m769.86,93.74v3.96l-14.1,28.72h-5.46l13.72-27.91h-15.48v-4.77h21.33Z"/>
          <path class="cls-20" d="m798.29,110.03c0,10.58-4.26,16.9-11.35,16.9s-11.39-6.32-11.39-16.9,4.26-16.9,11.39-16.9,11.35,6.32,11.35,16.9Zm-15.52-10.28c-1.38,2.41-2.11,6.06-2.11,10.28s.73,7.87,2.11,10.28c.9,1.55,2.37,2.41,4.17,2.41s3.22-.86,4.13-2.41c1.38-2.41,2.15-6.06,2.15-10.28s-.82-8-2.15-10.28c-.95-1.59-2.37-2.41-4.13-2.41s-3.27.82-4.17,2.41Z"/>
          <path class="cls-20" d="m826.11,110.03c0,10.58-4.26,16.9-11.35,16.9s-11.39-6.32-11.39-16.9,4.26-16.9,11.39-16.9,11.35,6.32,11.35,16.9Zm-15.52-10.28c-1.38,2.41-2.11,6.06-2.11,10.28s.73,7.87,2.11,10.28c.9,1.55,2.37,2.41,4.17,2.41s3.22-.86,4.13-2.41c1.38-2.41,2.15-6.06,2.15-10.28s-.82-8-2.15-10.28c-.95-1.59-2.37-2.41-4.13-2.41s-3.27.82-4.17,2.41Z"/>
        </g>
        <g>
          <path class="cls-15" d="m721.53,102.29c.21-5.8,3.83-9.2,9.85-9.2s9.67,3.44,9.67,8.77c0,3.14-1.08,5.42-4.73,9.85-1.85,2.24-4.21,4.99-8.73,10.11h13.8v4.6h-20.25v-4.04q.73-.9,3.31-3.91c10.45-12.25,11.44-13.67,11.44-16.43s-1.93-4.51-4.77-4.51c-3.05,0-4.9,1.68-5.25,4.77h-4.34Z"/>
          <path class="cls-14" d="m769.86,93.74v3.96l-14.1,28.72h-5.46l13.72-27.91h-15.48v-4.77h21.33Z"/>
          <path class="cls-18" d="m798.29,110.03c0,10.58-4.26,16.9-11.35,16.9s-11.39-6.32-11.39-16.9,4.26-16.9,11.39-16.9,11.35,6.32,11.35,16.9Zm-15.52-10.28c-1.38,2.41-2.11,6.06-2.11,10.28s.73,7.87,2.11,10.28c.9,1.55,2.37,2.41,4.17,2.41s3.22-.86,4.13-2.41c1.38-2.41,2.15-6.06,2.15-10.28s-.82-8-2.15-10.28c-.95-1.59-2.37-2.41-4.13-2.41s-3.27.82-4.17,2.41Z"/>
          <path class="cls-19" d="m826.11,110.03c0,10.58-4.26,16.9-11.35,16.9s-11.39-6.32-11.39-16.9,4.26-16.9,11.39-16.9,11.35,6.32,11.35,16.9Zm-15.52-10.28c-1.38,2.41-2.11,6.06-2.11,10.28s.73,7.87,2.11,10.28c.9,1.55,2.37,2.41,4.17,2.41s3.22-.86,4.13-2.41c1.38-2.41,2.15-6.06,2.15-10.28s-.82-8-2.15-10.28c-.95-1.59-2.37-2.41-4.13-2.41s-3.27.82-4.17,2.41Z"/>
        </g>
      </g>
      <g>
        <path class="cls-22" d="m511.8,344.37l1.46,1.19c.12.1.17.17.17.27,0,.12-.12.22-.42.31-.68,2.38-1.56,4.18-2.8,5.66-1.63,1.96-3.47,3.23-6.8,4.76-.36-.8-.66-1.21-1.22-1.62,3.38-1.41,5.12-2.57,6.65-4.44.97-1.15,1.87-2.87,2.18-4.11l-4.27.31c-2.29.14-3.98.24-4.81.34l-.19-1.9.49.02c.31,0,.68-.02,1.39-.05.42-.02.92-.05,1.44-.07.78-.03,1.33-.05,1.63-.07l4.81-.27.29-.32Z"/>
        <path class="cls-22" d="m522.9,343.72c.19,0,.29.07.29.17s-.07.17-.32.34q0,.49-.02,1.92v3.25c0,1.19.02,1.94.03,2.48h-1.99c.03-.58.05-1.36.05-2.48v-3.25c0-1.34-.02-2.07-.05-2.55l2.01.12Zm5.03,5.2c0,3.6-.53,5.17-2.26,6.61-.97.8-1.8,1.26-3.64,2-.31-.88-.56-1.27-1.09-1.66,1.46-.49,2.57-1.05,3.35-1.7,1.28-1.05,1.72-2.36,1.72-5.08v-3.31c0-1.29-.02-2.07-.05-2.55l2.01.12c.19.02.29.07.29.19,0,.09-.07.17-.29.32q-.03.49-.03,1.92v3.14Z"/>
        <path class="cls-22" d="m548.01,350.69c-.8-.02-2.14-.05-3.04-.05h-7.12c-.83,0-2.31.03-3.04.05v-1.82c.7.02,2.18.05,3.04.05h7.12c.93,0,2.28-.02,3.04-.05v1.82Z"/>
        <path class="cls-22" d="m552.89,346.82c.53.02,1.19.03,1.7.03h7.73l.25-.29,1.33,1.19c.14.12.17.17.17.26,0,.14-.12.22-.41.31-.7,2.12-1.53,3.64-2.87,5.13-1.38,1.53-3.04,2.69-5.59,3.88-.51-.9-.68-1.17-1.09-1.6,2.96-1.24,4.76-2.57,6.21-4.57.61-.85,1.12-1.84,1.36-2.6h-7.09c-.46,0-1.14.02-1.7.03v-1.77Zm9.62-1.77c-.48-.02-1.21-.04-1.7-.04h-4.73c-.49,0-1.21.02-1.7.04v-1.77c.49.02,1.21.03,1.7.03h4.73c.49,0,1.22-.02,1.7-.03v1.77Z"/>
        <path class="cls-22" d="m570.59,344.69c1.77.92,2.41,1.39,3.59,2.69l-1.34,1.48c-1.22-1.36-2.11-2.07-3.37-2.75l1.12-1.41Zm-.65,9.59c2.57-1.09,4.03-1.92,5.97-3.38,2.26-1.73,3.59-3.08,5.34-5.46.34.59.63.97,1.17,1.62-2.24,2.7-3.5,3.94-5.49,5.44-1.67,1.26-2.92,2.02-5.34,3.25-.07.24-.14.36-.25.36-.08,0-.22-.09-.29-.21l-1.11-1.62Z"/>
        <path class="cls-22" d="m586.99,345.32c1.44,0,3.89-.07,5.15-.14l3.11-.19.25-.31,1.29,1.17c.14.14.17.17.17.27s-.07.15-.2.19l-.2.05c-1.43,2.4-1.5,2.48-2.43,3.64.05.03.15.1.24.17,1.5,1.16,1.68,1.31,2.58,2.24.73.75,1.07,1.16,1.7,2.02l-1.48,1.31c-1.16-1.65-1.89-2.52-2.74-3.26q-1.22-1.05-1.44-1.22c-1.82,1.92-3.76,3.25-6.66,4.55-.41-.85-.54-1.07-.99-1.61,3.35-1.46,5.03-2.62,7.02-4.83.78-.87,1.34-1.62,1.8-2.36q.14-.2.22-.36l-2.14.21c-.15.02-.75.05-1.62.1-.82.05-2.7.19-3.48.26l-.15-1.9Z"/>
        <path class="cls-22" d="m608.6,352.05c0-.46,0-.9-.03-1.36-1.62.49-3.6.83-6.24,1.05-.05-.34-.29-1.07-.46-1.41,2.45-.13,4.2-.36,5.66-.71-.61-.12-1.22-.21-1.85-.27-.15.17-.31.34-.46.49l-1.21-.97c.48-.38.88-.8,1.29-1.24h-.08c-.95,0-2.48.02-3.4.05v-1.43c.88.03,2.41.05,3.4.05h1.26c.29-.36.56-.71.83-1.09.15-.24.32-.48.44-.73l1.5.75c.08.04.15.12.15.22,0,.13-.12.2-.53.24-.19.22-.36.43-.53.61h5.22c1.07,0,2.53-.02,3.4-.05v1.43c-.9-.04-2.36-.05-3.4-.05h-.08c-.49.59-1.05,1.12-1.68,1.56l.15.04c2.33.53,2.62.61,4.27,1.15l-.95,1.33c-1.89-.71-2.5-.9-4.93-1.46l-.32-.09c-.39.17-.76.32-1.17.44l1.46.08c.19.02.29.09.29.17,0,.1-.1.21-.34.34v.85h3.59c1.07,0,2.52-.03,3.38-.07v1.44c-.9-.03-2.35-.07-3.38-.07h-2.57c.49.36,1.02.64,1.73.98,1.36.65,2.45,1,4.54,1.48-.37.46-.49.66-.76,1.45-2.11-.56-3.2-1-4.62-1.85-.82-.48-1.41-.9-1.92-1.34v1.16c0,1.19.02,2.01.05,2.5h-1.72c.03-.61.03-1.41.03-2.5v-1.16c-1.77,1.48-3.94,2.58-6.73,3.42-.17-.56-.31-.85-.65-1.39,1.62-.43,2.63-.8,4.03-1.48.9-.43,1.46-.75,2.11-1.26h-2.38c-.93,0-2.46.03-3.38.07v-1.44c.87.03,2.41.07,3.38.07h3.62Zm0-9.14c0-.48,0-.85-.02-1.11l1.67.12c.2.02.32.09.32.17,0,.1-.1.21-.34.34v.65h3.01c1.17,0,2.5-.02,3.38-.07-.03.46-.03.73-.03,1v.63c0,.37.02.78.05,1.21h-1.75c.03-.38.05-.87.05-1.21v-.24h-11.05v.24c0,.34.02.83.03,1.21h-1.73c.03-.43.05-.83.05-1.21v-.63c0-.27-.02-.54-.03-1,.87.05,2.21.07,3.37.07h3.03v-.17Zm-1.38,4.73c-.2.24-.41.46-.63.7,1.1.14,2.21.27,3.3.48.59-.31,1.12-.71,1.6-1.17h-4.27Z"/>
        <path class="cls-22" d="m621.87,346.78c.17.02.29.09.29.17,0,.1-.1.21-.32.34-.02.85-.03,1.67-.03,2.91v4.04c0,1.53.02,2.74.05,3.48h-1.73c.03-.76.05-1.92.05-3.48v-4.72c-.29.66-.51,1.1-.93,1.84-.39-.85-.56-1.11-1.02-1.63,1.43-2.36,2.38-4.84,3.06-7.96l1.63.63c.15.05.24.14.24.24,0,.13-.05.17-.41.29-.49,1.68-.73,2.38-1.34,3.82l.48.03Zm5.93-1.17c-.02-1.96-.07-3.16-.12-3.59l1.87.12c.15,0,.25.09.25.17,0,.1-.08.19-.31.32-.02.51-.02.58-.03,2.97h1.79c.7,0,1.75-.02,2.36-.05v1.65c-.61-.02-1.67-.03-2.36-.03h-1.79v3.18h2.52c.68,0,1.79-.02,2.38-.03v1.65c-.63-.04-1.73-.05-2.38-.05h-2.52v.8c0,2.23.03,3.88.08,4.96h-1.84c.05-1.11.08-2.77.08-4.96v-.8h-2.72c-.73,0-1.68.02-2.38.05v-1.65c.65.02,1.61.03,2.38.03h2.72v-3.18h-2.74c-.51,1.04-1.05,1.94-1.75,2.84-.65-.7-.68-.71-1.29-1.12,1.43-1.84,2.38-3.91,2.87-6.26l1.56.51c.24.07.32.14.32.25,0,.14-.03.15-.41.31-.22.7-.42,1.33-.65,1.9h2.07Z"/>
        <path class="cls-22" d="m643.62,346.02c.19.07.27.13.27.25s-.09.19-.27.21l-.2.03c-.08.14-.19.29-.27.43h4.4c1.07,0,2.52-.04,3.38-.07v1.65c-.9-.03-2.35-.07-3.38-.07h-.76c1.07,1.36,2.29,2.09,4.79,2.96-.44.54-.65.87-.92,1.44-1.39-.54-2.07-.9-2.94-1.51-1.19-.87-1.92-1.65-2.63-2.89h-3.01c-.63.77-1.24,1.34-2.04,1.97-1.21.94-2.19,1.5-4.03,2.28-.27-.63-.39-.83-.8-1.38,1.92-.82,2.97-1.39,4.13-2.33.22-.19.42-.36.63-.54h-.65c-.93,0-2.46.04-3.38.07v-1.65c.87.03,2.41.07,3.38.07h1.99c.31-.41.59-.85.87-1.29-1.22.07-2.45.12-3.67.22l-.17.15c-.1.1-.15.13-.22.13-.1,0-.19-.1-.25-.29l-.53-1.65,1.5.02c.49,0,.99,0,1.46-.02.7-.76,1.21-1.68,1.77-2.55l1.51.66c.08.04.15.12.15.19,0,.14-.07.15-.42.2-.51.63-.75.92-1.24,1.46,1.33-.02,2.63-.07,3.94-.14-.32-.27-.66-.53-1-.78l.95-.97c1.67,1.02,2.87,1.99,3.88,3.16l-1.19,1.09c-.37-.46-.76-.9-1.17-1.31-1.07.14-2.16.21-3.23.29-.58.04-1.16.07-1.72.1l1.1.39Zm1.41,4.4c-1.09.94-1.82,1.41-3.25,2.07-1.44.7-2.38,1.02-4.08,1.44-.25-.75-.27-.81-.56-1.39,1.63-.43,2.55-.75,3.79-1.33,1.33-.61,2.02-1.07,3.09-2.02l1.26.78c.19.1.22.15.22.25,0,.12-.1.19-.25.19h-.22Zm4.5,4.11c-1.82,1.09-2.99,1.62-4.83,2.12-2.12.6-3.65.87-6.7,1.16-.14-.66-.2-.92-.46-1.51,2.96-.29,4.39-.53,6.39-1.07,1.9-.49,2.92-.95,4.56-2.04l1.31.9c.2.13.22.15.22.24,0,.13-.1.2-.27.2h-.22Zm-2.48-2.01c-2.53,1.65-4.49,2.38-8.87,3.33-.14-.51-.29-.99-.49-1.46,4.18-.81,5.97-1.48,8.36-3.18l1.28.87c.2.13.22.15.22.25,0,.12-.1.19-.27.19h-.22Z"/>
        <path class="cls-22" d="m657.91,354.38h-1.67c.02-.68.03-1.68.03-2.99v-2.89c0-1.04-.02-2.18-.03-2.7.44.02.85.02,1.44.02h1.9v-1.43h-3.66c-.93,0-2.46.04-3.38.07v-1.7c.88.05,2.41.07,3.38.07h8.94c1.07,0,2.52-.02,3.38-.07v1.7c-.9-.03-2.35-.07-3.38-.07h-3.64v1.43h1.96c.58,0,.99,0,1.44-.02q-.03.54-.05,2.7v2.65c0,1.34.02,2.35.05,2.97h-1.68v-.51h-5.05v.77Zm-2.86,2.29v.87h-1.72c.03-.75.07-1.92.07-3.48v-5.15c0-1.94-.03-3.01-.08-3.54l1.8.12c.17,0,.29.07.29.17,0,.09-.1.19-.34.32q-.02.48-.02,2.92v6.21h10.71v-6.21c0-1.94-.02-3.01-.07-3.54l1.8.12c.17,0,.27.07.27.17,0,.09-.08.19-.32.32q-.02.48-.02,2.92v5.15c0,1.53.02,2.74.03,3.48h-1.7v-.87h-10.71Zm2.86-9.38v1.58h1.68v-1.58h-1.68Zm1.68,4.85v-1.79h-1.68v1.79h1.68Zm3.37-4.85h-1.72v1.58h1.72v-1.58Zm0,3.06h-1.72v1.79h1.72v-1.79Z"/>
      </g>
      <g>
        <path class="cls-22" d="m374.86,383.47c0-1.34-.02-2.06-.05-2.55l1.77.12c.19,0,.29.07.29.17s-.08.19-.32.34v7.6h2.92v-10.79h-3.69c-.83,0-2.31.03-3.04.07v-1.68c.7.03,2.18.05,3.04.05h8.24c.93,0,2.29-.02,3.04-.05v1.68c-.8-.03-2.14-.07-3.04-.07h-2.87v4.28h3.25c.36,0,.99-.02,1.36-.03v1.62c-.36-.02-.9-.03-1.36-.03h-3.25v4.96h3.18c1.07,0,2.52-.03,3.38-.07v1.68c-.9-.03-2.35-.07-3.38-.07h-8.94c-.93,0-2.46.03-3.38.07v-1.68c.73.03,1.92.05,2.86.07v-5.68Z"/>
        <path class="cls-22" d="m390.38,380.27l-1.34.02v-1.6c.37.02.99.03,1.34.03h1.11v-1.45c0-.76,0-.97-.02-1.56l1.67.1c.19.02.31.08.31.17,0,.12-.1.2-.34.34v2.4h1.05l.2-.27,1,.88c.07.07.14.19.14.27,0,.14-.05.19-.39.27-.32.7-.66,1.38-1.05,2.02-.29.48-.61.92-.95,1.38v.27c1.02.58,1.55.97,2.7,2.02l-1.14,1.36c-.68-.75-1.12-1.22-1.56-1.62v2.62c0,1.56.02,2.72.05,3.48h-1.72c.03-.76.05-1.92.05-3.48v-2.86c-.88.92-1.28,1.24-2.28,1.99-.05-.14-.1-.25-.14-.34-.08-.24-.27-.65-.54-1.22,2.4-1.85,3.6-3.18,4.66-5.24h-2.8Zm8.5,2.28h-1.46c-.56,0-1.53.03-2.04.05v-1.65c.51.03,1.38.05,2.04.05h1.46v-2.55c0-1.34-.02-2.06-.05-2.55l1.77.12c.19.02.29.07.29.17s-.08.19-.32.34l-.02,1.92v2.55h1.87c.66,0,1.53-.02,2.04-.05v1.65c-.53-.02-1.48-.05-2.04-.05h-1.87v6.94h1.82c.68,0,1.78-.02,2.38-.05v1.65c-.63-.02-1.73-.03-2.38-.03h-5.9c-.71,0-1.67.02-2.36.03v-1.65c.65.03,1.62.05,2.36.05h2.41v-6.94Z"/>
        <path class="cls-22" d="m412.7,389.04c.14.07.2.15.2.26,0,.17-.1.22-.54.25-1.84,1.04-3.3,1.53-5.78,1.95-.14-.71-.27-1.07-.65-1.56,2.41-.32,3.82-.73,5.46-1.55l1.31.65Zm-2.77-.2h-1.75c.03-.68.05-1.67.05-2.98v-2.24c0-1.02-.02-2.16-.05-2.7.68.02,1.33.03,2.28.03h6.87c.99,0,1.68-.02,2.38-.03q-.03.56-.05,2.7v2.18c0,1.36.02,2.35.05,2.99h-1.75v-.48h-8.02v.53Zm.59-8.43h-1.67c.03-.41.05-.97.05-1.8v-.78c0-.54-.02-1.19-.05-1.5.59.02,1.12.03,1.87.03h6.32c.77,0,1.29-.02,1.89-.03-.03.31-.05.95-.05,1.5v.8c0,.8.02,1.38.05,1.77h-1.68v-.41h-6.73v.42Zm7.43,1.9h-8.02v.78h8.02v-.78Zm-8.02,2.74h8.02v-.78h-8.02v.78Zm0,1.96h8.02v-.78h-8.02v.78Zm7.33-9.4h-6.73v1.14h6.73v-1.14Zm-1.44,10.76c1.82.78,3.47,1.19,6.05,1.55-.42.54-.59.87-.76,1.58-1.43-.22-1.97-.34-3.25-.73-1.48-.44-1.96-.63-3.03-1.19l.99-1.21Z"/>
      </g>
      <g>
        <path class="cls-22" d="m762.66,216.29c.19.08.24.12.24.22q0,.14-.41.25c-.58.92-1.07,1.62-1.6,2.26.99,1.7,1.33,3.62,1.33,6.43s-.31,4.13-1.05,4.93c-.49.53-1.29.73-2.82.73h-.39c-.07-.8-.14-1.17-.34-1.8.48.03.68.03.97.03.9,0,1.19-.1,1.46-.53.36-.53.54-1.95.54-4.01,0-.19,0-.37-.02-.56-.19.36-.42.75-.75,1.22-.77,1.14-1.19,1.65-2.04,2.48-.36-.82-.53-1.09-.94-1.63.87-.83,1.33-1.38,2.01-2.38.66-.99,1-1.62,1.31-2.55-.1-.39-.25-.76-.42-1.14-.51.49-1.11.99-1.82,1.55-.25-.6-.48-.95-.88-1.46.75-.58,1.34-1.07,1.84-1.56-.42-.59-.95-1.21-1.58-1.87l.97-1c.65.59,1.21,1.16,1.67,1.72.44-.56.83-1.19,1.27-1.99l1.46.66Zm2.24,8.92v1.11h-1.72c.03-.41.03-.97.03-1.8v-3.93c0-.54-.02-1.21-.03-1.51.59.03,1.1.03,1.87.03h1.77v-1.05c0-1.34,0-2.06-.05-2.55l1.73.12c.17.02.29.07.29.17s-.1.19-.34.34v2.97h1.85c.77,0,1.28,0,1.87-.03-.02.31-.03.97-.03,1.51v3.42c0,.8,0,1.38.03,1.77h-1.72v-.56h-2.01v3.23c.59-.08,1.19-.2,1.77-.34-.22-.31-.51-.65-.9-1.12l1.14-.78c1.27,1.26,2.07,2.41,2.75,4.06l-1.38.78c-.37-.75-.63-1.29-.85-1.7-1.53.41-2.62.63-3.91.83q-3.01.46-3.76.59c-.14.2-.25.29-.37.29-.08,0-.17-.08-.22-.22l-.56-1.7c1.73-.1,3.23-.24,4.66-.44v-3.49h-1.92Zm1.92-4.54h-1.92v2.97h1.92v-2.97Zm3.64,2.97v-2.97h-2.01v2.97h2.01Z"/>
        <path class="cls-22" d="m782.79,229.02c.39-1.1.8-2.41,1.28-4.16.41-1.53.65-2.62.93-4.37l1.84.54c.12.03.19.1.19.17,0,.12-.03.15-.39.31-1.07,4.27-1.36,5.32-2.11,7.51h2.02c1.07,0,2.52-.02,3.38-.07v1.7c-.9-.03-2.35-.07-3.38-.07h-8.94c-.93,0-2.46.03-3.38.07v-1.7c.88.05,2.41.07,3.38.07h5.18Zm-1.53-11.83c0-.78,0-.99-.03-1.58l1.72.1c.19.02.31.08.31.19s-.1.2-.34.34v2.35h3.21c1.07,0,2.53-.03,3.4-.07v1.68c-.92-.03-2.36-.05-3.4-.05h-8.04c-.94,0-2.46.02-3.38.05v-1.68c.87.03,2.4.07,3.38.07h3.18v-1.39Zm-2.53,3.42c1.11,2.45,1.55,3.96,2.21,7.63l-1.7.39c-.56-3.45-.88-4.64-1.97-7.48l1.46-.54Z"/>
      </g>
      <polyline class="cls-24" points="399.38 235.28 584.48 198.95 773.57 35.16"/>
      <circle class="cls-17" cx="584.48" cy="198.95" r="5.16"/>
      <circle class="cls-16" cx="773.57" cy="35.16" r="5.16"/>
      <line class="cls-23" x1="399.38" y1="235.28" x2="303.58" y2="235.28"/>
      <circle class="cls-12" cx="399.38" cy="235.28" r="5.16"/>
      <g>
        <g>
          <g>
            <rect class="cls-22" x="38.79" y="280.91" width="210.56" height="42.54" rx="6.19" ry="6.19"/>
            <g>
              <g>
                <path class="cls-22" d="m78.46,298.19c-.38-1.97-1.49-2.98-3.3-2.98-2.58,0-4.2,2.37-4.2,6.15s1.62,6.11,4.24,6.11c2.02,0,3.19-1.3,3.42-3.84h2.25c-.23,3.88-2.18,5.98-5.58,5.98-4.22,0-6.93-3.21-6.93-8.23,0-2.88.84-5.19,2.44-6.66,1.18-1.07,2.73-1.66,4.39-1.66,1.91,0,3.53.76,4.47,2.1.59.8.86,1.68.99,3.02h-2.18Z"/>
                <path class="cls-22" d="m88.14,297.65c3.09,0,5.29,2.5,5.29,6s-2.21,5.98-5.29,5.98-5.31-2.5-5.31-5.98,2.21-6,5.31-6Zm0,10.06c1.72,0,2.88-1.64,2.88-4.05s-1.16-4.09-2.88-4.09-2.9,1.66-2.9,4.09,1.16,4.05,2.9,4.05Z"/>
                <path class="cls-22" d="m105.17,305.79c-.13.86-.55,1.74-1.11,2.44-.8.92-1.95,1.41-3.38,1.41-3.13,0-5.19-2.37-5.19-5.98s2.04-6,5.21-6c2.35,0,3.97,1.37,4.39,3.74h-2.37c-.29-1.24-.97-1.83-2.08-1.83-1.68,0-2.73,1.6-2.73,4.12,0,1.47.4,2.71,1.11,3.44.38.38.96.59,1.64.59,1.18,0,1.89-.61,2.18-1.91h2.33Z"/>
                <path class="cls-22" d="m114.77,297.96h2.86l-4.72,5.19,5.12,6.17h-3.19l-4.47-5.77v5.77h-2.35v-16.04h2.35v9.64l4.41-4.96Z"/>
                <path class="cls-22" d="m124.74,293.36c2.48,0,3.8.25,4.75.92,1.18.82,1.81,2.23,1.81,4.01,0,1.89-.73,3.34-2.06,4.09-.88.5-2.1.71-4.26.71h-1.8v6.21h-2.48v-15.96h4.05Zm.29,7.62c1.26,0,2.16-.15,2.67-.44.65-.4,1.03-1.22,1.03-2.31,0-1.01-.32-1.79-.92-2.21-.55-.38-1.39-.54-2.83-.54h-1.8v5.5h1.87Z"/>
                <path class="cls-22" d="m136.19,293.36v2.58h-2.58v-2.58h2.58Zm-.13,4.6v11.36h-2.33v-11.36h2.33Z"/>
                <path class="cls-22" d="m145.22,297.96l-.04,1.85h-2.5c-.02,1.37-.08,4.89-.08,5.14v.82c0,.8.04,1.11.23,1.34.19.23.55.38.94.38.55,0,1.11-.13,1.7-.38l-.02,1.97c-.84.34-1.51.46-2.29.46-1.22,0-2.12-.42-2.6-1.22-.29-.46-.4-.99-.4-1.97q0-.4.04-1.51l.15-5.04h-1.74l.04-1.85h1.76l.08-3.28h2.29l-.06,3.28h2.5Z"/>
                <path class="cls-22" d="m158.11,291.37l13.52,9.97-13.52,10.02v-19.99Z"/>
                <path class="cls-22" d="m186.42,292.63c.23.1.29.15.29.27q0,.17-.5.32c-.71,1.13-1.32,1.99-1.97,2.79,1.22,2.1,1.64,4.47,1.64,7.94s-.38,5.1-1.3,6.09c-.61.65-1.6.9-3.49.9h-.48c-.08-.99-.17-1.45-.42-2.23.59.04.84.04,1.2.04,1.11,0,1.47-.13,1.81-.65.44-.65.67-2.42.67-4.96,0-.23,0-.46-.02-.69-.23.44-.52.92-.92,1.51-.94,1.41-1.47,2.04-2.52,3.06-.44-1.01-.65-1.34-1.15-2.02,1.07-1.03,1.64-1.7,2.48-2.94.82-1.22,1.24-1.99,1.62-3.15-.12-.48-.31-.95-.52-1.41-.63.61-1.36,1.22-2.25,1.91-.31-.74-.59-1.18-1.09-1.81.92-.71,1.66-1.32,2.27-1.93-.52-.73-1.18-1.49-1.95-2.31l1.2-1.24c.8.74,1.49,1.43,2.06,2.12.54-.69,1.03-1.47,1.57-2.46l1.81.82Zm2.77,11.02v1.36h-2.12c.04-.5.04-1.2.04-2.22v-4.85c0-.67-.02-1.49-.04-1.87.73.04,1.36.04,2.31.04h2.18v-1.3c0-1.66,0-2.54-.06-3.15l2.14.15c.21.02.36.08.36.21s-.12.23-.42.42v3.67h2.29c.95,0,1.57,0,2.31-.04-.02.38-.04,1.2-.04,1.87v4.22c0,.99,0,1.7.04,2.18h-2.12v-.69h-2.48v3.99c.74-.11,1.47-.25,2.18-.42-.27-.38-.63-.8-1.11-1.39l1.41-.97c1.57,1.55,2.56,2.98,3.4,5.02l-1.7.97c-.46-.92-.78-1.6-1.05-2.1-1.89.5-3.23.78-4.83,1.03q-3.72.57-4.64.74c-.17.25-.32.36-.46.36-.1,0-.21-.1-.27-.27l-.69-2.1c2.14-.13,3.99-.29,5.75-.55v-4.3h-2.37Zm2.37-5.61h-2.37v3.67h2.37v-3.67Zm4.49,3.67v-3.67h-2.48v3.67h2.48Z"/>
                <path class="cls-22" d="m211.28,308.35c.48-1.36.99-2.98,1.58-5.14.5-1.89.8-3.23,1.15-5.4l2.27.67c.15.04.23.13.23.21,0,.15-.04.19-.48.38-1.32,5.27-1.68,6.57-2.6,9.28h2.5c1.32,0,3.11-.02,4.18-.08v2.1c-1.11-.04-2.9-.08-4.18-.08h-11.04c-1.16,0-3.04.04-4.18.08v-2.1c1.09.06,2.98.08,4.18.08h6.4Zm-1.89-14.61c0-.97,0-1.22-.04-1.95l2.12.12c.23.02.38.11.38.23s-.13.25-.42.42v2.9h3.97c1.32,0,3.13-.04,4.2-.08v2.08c-1.13-.04-2.92-.06-4.2-.06h-9.93c-1.16,0-3.04.02-4.18.06v-2.08c1.07.04,2.96.08,4.18.08h3.93v-1.72Zm-3.13,4.22c1.37,3.02,1.91,4.89,2.73,9.43l-2.1.48c-.69-4.26-1.09-5.73-2.44-9.24l1.8-.67Z"/>
              </g>
              <g>
                <path class="cls-5" d="m78.46,298.19c-.38-1.97-1.49-2.98-3.3-2.98-2.58,0-4.2,2.37-4.2,6.15s1.62,6.11,4.24,6.11c2.02,0,3.19-1.3,3.42-3.84h2.25c-.23,3.88-2.18,5.98-5.58,5.98-4.22,0-6.93-3.21-6.93-8.23,0-2.88.84-5.19,2.44-6.66,1.18-1.07,2.73-1.66,4.39-1.66,1.91,0,3.53.76,4.47,2.1.59.8.86,1.68.99,3.02h-2.18Z"/>
                <path class="cls-2" d="m88.14,297.65c3.09,0,5.29,2.5,5.29,6s-2.21,5.98-5.29,5.98-5.31-2.5-5.31-5.98,2.21-6,5.31-6Zm0,10.06c1.72,0,2.88-1.64,2.88-4.05s-1.16-4.09-2.88-4.09-2.9,1.66-2.9,4.09,1.16,4.05,2.9,4.05Z"/>
                <path class="cls-10" d="m105.17,305.79c-.13.86-.55,1.74-1.11,2.44-.8.92-1.95,1.41-3.38,1.41-3.13,0-5.19-2.37-5.19-5.98s2.04-6,5.21-6c2.35,0,3.97,1.37,4.39,3.74h-2.37c-.29-1.24-.97-1.83-2.08-1.83-1.68,0-2.73,1.6-2.73,4.12,0,1.47.4,2.71,1.11,3.44.38.38.96.59,1.64.59,1.18,0,1.89-.61,2.18-1.91h2.33Z"/>
                <path class="cls-3" d="m114.77,297.96h2.86l-4.72,5.19,5.12,6.17h-3.19l-4.47-5.77v5.77h-2.35v-16.04h2.35v9.64l4.41-4.96Z"/>
                <path class="cls-1" d="m124.74,293.36c2.48,0,3.8.25,4.75.92,1.18.82,1.81,2.23,1.81,4.01,0,1.89-.73,3.34-2.06,4.09-.88.5-2.1.71-4.26.71h-1.8v6.21h-2.48v-15.96h4.05Zm.29,7.62c1.26,0,2.16-.15,2.67-.44.65-.4,1.03-1.22,1.03-2.31,0-1.01-.32-1.79-.92-2.21-.55-.38-1.39-.54-2.83-.54h-1.8v5.5h1.87Z"/>
                <path class="cls-8" d="m136.19,293.36v2.58h-2.58v-2.58h2.58Zm-.13,4.6v11.36h-2.33v-11.36h2.33Z"/>
                <path class="cls-4" d="m145.22,297.96l-.04,1.85h-2.5c-.02,1.37-.08,4.89-.08,5.14v.82c0,.8.04,1.11.23,1.34.19.23.55.38.94.38.55,0,1.11-.13,1.7-.38l-.02,1.97c-.84.34-1.51.46-2.29.46-1.22,0-2.12-.42-2.6-1.22-.29-.46-.4-.99-.4-1.97q0-.4.04-1.51l.15-5.04h-1.74l.04-1.85h1.76l.08-3.28h2.29l-.06,3.28h2.5Z"/>
                <path class="cls-6" d="m158.11,291.37l13.52,9.97-13.52,10.02v-19.99Z"/>
                <path class="cls-9" d="m186.42,292.63c.23.1.29.15.29.27q0,.17-.5.32c-.71,1.13-1.32,1.99-1.97,2.79,1.22,2.1,1.64,4.47,1.64,7.94s-.38,5.1-1.3,6.09c-.61.65-1.6.9-3.49.9h-.48c-.08-.99-.17-1.45-.42-2.23.59.04.84.04,1.2.04,1.11,0,1.47-.13,1.81-.65.44-.65.67-2.42.67-4.96,0-.23,0-.46-.02-.69-.23.44-.52.92-.92,1.51-.94,1.41-1.47,2.04-2.52,3.06-.44-1.01-.65-1.34-1.15-2.02,1.07-1.03,1.64-1.7,2.48-2.94.82-1.22,1.24-1.99,1.62-3.15-.12-.48-.31-.95-.52-1.41-.63.61-1.36,1.22-2.25,1.91-.31-.74-.59-1.18-1.09-1.81.92-.71,1.66-1.32,2.27-1.93-.52-.73-1.18-1.49-1.95-2.31l1.2-1.24c.8.74,1.49,1.43,2.06,2.12.54-.69,1.03-1.47,1.57-2.46l1.81.82Zm2.77,11.02v1.36h-2.12c.04-.5.04-1.2.04-2.22v-4.85c0-.67-.02-1.49-.04-1.87.73.04,1.36.04,2.31.04h2.18v-1.3c0-1.66,0-2.54-.06-3.15l2.14.15c.21.02.36.08.36.21s-.12.23-.42.42v3.67h2.29c.95,0,1.57,0,2.31-.04-.02.38-.04,1.2-.04,1.87v4.22c0,.99,0,1.7.04,2.18h-2.12v-.69h-2.48v3.99c.74-.11,1.47-.25,2.18-.42-.27-.38-.63-.8-1.11-1.39l1.41-.97c1.57,1.55,2.56,2.98,3.4,5.02l-1.7.97c-.46-.92-.78-1.6-1.05-2.1-1.89.5-3.23.78-4.83,1.03q-3.72.57-4.64.74c-.17.25-.32.36-.46.36-.1,0-.21-.1-.27-.27l-.69-2.1c2.14-.13,3.99-.29,5.75-.55v-4.3h-2.37Zm2.37-5.61h-2.37v3.67h2.37v-3.67Zm4.49,3.67v-3.67h-2.48v3.67h2.48Z"/>
                <path class="cls-7" d="m211.28,308.35c.48-1.36.99-2.98,1.58-5.14.5-1.89.8-3.23,1.15-5.4l2.27.67c.15.04.23.13.23.21,0,.15-.04.19-.48.38-1.32,5.27-1.68,6.57-2.6,9.28h2.5c1.32,0,3.11-.02,4.18-.08v2.1c-1.11-.04-2.9-.08-4.18-.08h-11.04c-1.16,0-3.04.04-4.18.08v-2.1c1.09.06,2.98.08,4.18.08h6.4Zm-1.89-14.61c0-.97,0-1.22-.04-1.95l2.12.12c.23.02.38.11.38.23s-.13.25-.42.42v2.9h3.97c1.32,0,3.13-.04,4.2-.08v2.08c-1.13-.04-2.92-.06-4.2-.06h-9.93c-1.16,0-3.04.02-4.18.06v-2.08c1.07.04,2.96.08,4.18.08h3.93v-1.72Zm-3.13,4.22c1.37,3.02,1.91,4.89,2.73,9.43l-2.1.48c-.69-4.26-1.09-5.73-2.44-9.24l1.8-.67Z"/>
              </g>
            </g>
          </g>
          <g>
            <g>
              <path class="cls-22" d="m144.06,193.66c-8.17,0-14.82-6.65-14.82-14.83s6.65-14.83,14.82-14.83,14.83,6.65,14.83,14.83-6.65,14.83-14.83,14.83Zm0-26.89c-6.65,0-12.06,5.41-12.06,12.07s5.41,12.06,12.06,12.06,12.07-5.41,12.07-12.06-5.41-12.07-12.07-12.07Z"/>
              <path class="cls-22" d="m128.82,265.08c-.72,0-1.32-.55-1.37-1.28l-2.83-38.2c-.06-.76.51-1.42,1.27-1.48.76-.07,1.42.52,1.48,1.27l2.83,38.2c.06.76-.51,1.42-1.27,1.48-.03,0-.07,0-.1,0Z"/>
            </g>
            <path class="cls-22" d="m173.91,256.72s-.07,0-.11,0c-.76-.06-1.33-.72-1.27-1.48l2.8-37.04c0-6.62-5.31-12.23-11.84-12.39h-38.9c-6.49.16-11.8,5.77-11.8,12.49l2.8,36.94c.06.76-.51,1.42-1.27,1.48-.8.08-1.42-.51-1.48-1.27l-2.8-37.04c0-8.32,6.51-15.16,14.52-15.36h38.97c8.04.2,14.56,7.04,14.56,15.25l-2.81,37.15c-.06.72-.66,1.28-1.37,1.28Z"/>
            <path class="cls-22" d="m159.3,265.08s-.07,0-.1,0c-.76-.06-1.33-.72-1.27-1.48l2.83-38.2c.06-.76.75-1.34,1.48-1.27.76.06,1.33.72,1.27,1.48l-2.83,38.2c-.05.72-.66,1.28-1.37,1.28Z"/>
          </g>
        </g>
        <g>
          <g>
            <path class="cls-22" d="m43.83,117.56h-3.5c-.18.28-.36.56-.57.87-.83,1.21-1.37,1.85-2.44,2.83-.28-.44-.49-.67-1.05-1.21,2.01-2,2.98-3.47,3.98-6.12l1.46.56c.23.1.34.2.34.28q0,.13-.46.25c-.16.41-.33.75-.47,1.08h6.64c.98,0,2.42-.03,3.27-.07v1.6c-.85-.03-2.29-.07-3.27-.07h-2.32v2.19h2.6c.59,0,1.49-.02,1.95-.03v1.54c-.49-.03-1.41-.05-1.95-.05h-2.6v2.65h2.88c1.34,0,2.14-.02,3.25-.07v1.62c-.87-.03-2.26-.05-3.25-.05h-2.88v.51c0,1.5.02,2.62.05,3.35h-1.7c.03-.74.05-1.85.05-3.35v-.51h-4.11c-.9,0-2.37.02-3.26.05v-1.62c.7.03,1.85.05,2.76.07v-2.7q-.02-1.16-.03-1.44.44.02,1.91.03h2.72v-2.19Zm-3.06,3.65v2.65h3.06v-2.65h-3.06Z"/>
            <path class="cls-22" d="m40.3,145.61c.05-1.03.08-2.58.08-4.61-.82.36-1.34.57-2.96,1.23l-.08.18c-.07.13-.13.2-.23.2s-.18-.07-.23-.18l-.64-1.57c.36-.1.67-.18.98-.28v-6.26c0-1.29-.02-1.98-.05-2.45l1.65.11c.18,0,.28.07.28.16s-.08.18-.31.33v7.57c.52-.2,1.06-.41,1.59-.62v-4.06c0-2.68-.03-4.3-.1-4.81l1.73.11c.15,0,.25.08.25.16,0,.1-.08.18-.29.31q-.02.57-.03,4.22v5.48c0,2.14.03,3.73.08,4.78h-1.72Zm10.37-12.51c-.49,2.81-1.16,5.71-2.73,8.15.85,1.06,2.03,1.9,3.79,2.8-.57.52-.7.7-1.1,1.39-1.44-.8-2.68-1.8-3.65-2.9-.92,1.1-2.09,2.06-3.7,3.08-.36-.64-.52-.85-.96-1.36,1.62-.95,2.73-1.86,3.68-3.06-.62-1.06-1.08-2.32-1.47-3.94-.28-1.14-.41-2.08-.57-3.96-.52.02-1.05.02-1.44.03v-1.6c.7.03,1.82.05,2.62.05h4.58l.21-.26,1.03.98c.08.08.13.16.13.25,0,.13-.08.21-.28.29l-.15.07Zm-5.27.18c.28,2.81.47,3.75,1.1,5.35.16.41.33.79.49,1.15,1.16-1.98,1.7-4.25,2.06-6.49h-3.65Z"/>
          </g>
          <g>
            <path class="cls-22" d="m177.81,120.8c-.21,2.6-.46,3.96-.9,5.25-.7,2.04-1.65,2.58-4.56,2.58h-.52q-.07-1.06-.21-1.83c.85.07.87.07,1.21.07,1.13,0,1.67-.2,2.06-.74.61-.88.98-2.45,1.21-5.07h-4.29c-.03.2-.07.38-.1.59-.42,2.29-1.65,4.29-3.48,5.71-.79.59-1.42.97-2.67,1.51-.25-.61-.46-1-.83-1.47,2.37-1.14,3.37-1.95,4.3-3.53,1.05-1.73,1.37-3.32,1.44-7.02h-1.98c-.9,0-2.37.03-3.27.07v-1.64c.85.05,2.32.07,3.27.07h8.2c1.03,0,2.42-.02,3.25-.07v1.64c-.87-.03-2.26-.07-3.25-.07h-4.55c-.03.92-.06,1.83-.15,2.75h4.73l.28-.31,1.11,1c.12.1.15.15.15.23,0,.1-.08.16-.28.23l-.16.07Z"/>
            <path class="cls-22" d="m167.7,141.52q.02,3.16.05,3.84h-1.78q.02-.69.05-3.19v-7.64q-.02-2.7-.05-3.19c.87.03,2.14.06,3.25.06h6.74c1.11,0,2.4-.03,3.25-.06q-.02.49-.03,3.19v6.44c0,.36.02,1.41.05,2.09v.25c0,.98-.25,1.44-.9,1.75-.47.2-1.1.26-2.72.26-.05-1-.07-1.13-.31-1.88.72.05,1.1.07,1.59.07.52,0,.6-.1.6-.69v-3.75h-9.8v2.44Zm0-8.55v4.58h3.99v-4.58h-3.99Zm5.68,4.58h4.12v-4.58h-4.12v4.58Z"/>
          </g>
          <g>
            <path class="cls-22" d="m193.79,115.65v17.26c0,3.56.12,4.58.71,5.87.9,2,3.05,3.17,5.87,3.17,3.05,0,5.28-1.37,6.11-3.76.39-1.1.47-2.08.47-5.28v-17.26h4.62v17.34c0,4.46-.16,5.68-.98,7.44-1.57,3.48-5.36,5.52-10.22,5.52s-8.65-2.07-10.25-5.52c-.78-1.76-.94-2.97-.94-7.44v-17.34h4.62Z"/>
            <path class="cls-22" d="m226.55,115.65c4.62,0,7.08.47,8.84,1.72,2.19,1.53,3.37,4.15,3.37,7.48,0,3.52-1.37,6.22-3.83,7.63-1.64.94-3.91,1.33-7.95,1.33h-3.37v11.58h-4.62v-29.75h7.55Zm.55,14.21c2.35,0,4.03-.27,4.97-.82,1.21-.74,1.92-2.27,1.92-4.3,0-1.88-.59-3.33-1.72-4.11-1.02-.71-2.58-1.02-5.28-1.02h-3.37v10.25h3.48Z"/>
          </g>
          <g>
            <path class="cls-22" d="m58.22,122.11c.21-5.6,3.69-8.88,9.5-8.88s9.34,3.32,9.34,8.47c0,3.03-1.04,5.23-4.56,9.5-1.79,2.16-4.07,4.81-8.43,9.75h13.32v4.44h-19.55v-3.9q.71-.87,3.2-3.78c10.08-11.83,11.04-13.2,11.04-15.86s-1.87-4.36-4.61-4.36c-2.95,0-4.73,1.62-5.06,4.61h-4.19Z"/>
            <path class="cls-22" d="m85.4,121.28c.25-5.11,3.78-8.05,9.67-8.05,2.91,0,5.15.75,6.72,2.28,1.49,1.45,2.41,3.65,2.41,5.89,0,3.32-1.62,5.6-4.98,7.01,3.86,1.2,5.69,3.65,5.69,7.64,0,3.07-1.29,5.89-3.53,7.68-1.83,1.41-4.15,2.12-7.1,2.12-6.39,0-10.17-3.07-10.21-8.43h4.4c.08,2.7,2.12,4.19,5.81,4.19s5.73-2.03,5.73-5.48c0-2.32-1.12-4.03-3.15-4.81-.91-.33-2.62-.54-4.52-.54l-1,.04v-4.07c.58.04.83.04,1.2.04,4.36,0,6.72-1.79,6.72-5.02,0-2.66-1.78-4.36-4.69-4.36s-4.73,1.45-4.98,3.86h-4.19Z"/>
            <path class="cls-22" d="m132.3,129.58c0,10.21-4.11,16.31-10.96,16.31s-11-6.1-11-16.31,4.11-16.31,11-16.31,10.96,6.1,10.96,16.31Zm-14.98-9.92c-1.33,2.32-2.03,5.85-2.03,9.92s.71,7.59,2.03,9.92c.87,1.49,2.28,2.32,4.03,2.32s3.11-.83,3.98-2.32c1.33-2.32,2.08-5.85,2.08-9.92s-.79-7.72-2.08-9.92c-.91-1.54-2.28-2.32-3.98-2.32s-3.15.79-4.03,2.32Z"/>
            <path class="cls-22" d="m159.15,129.58c0,10.21-4.11,16.31-10.96,16.31s-11-6.1-11-16.31,4.11-16.31,11-16.31,10.96,6.1,10.96,16.31Zm-14.98-9.92c-1.33,2.32-2.03,5.85-2.03,9.92s.71,7.59,2.03,9.92c.87,1.49,2.28,2.32,4.03,2.32s3.11-.83,3.98-2.32c1.33-2.32,2.08-5.85,2.08-9.92s-.79-7.72-2.08-9.92c-.91-1.54-2.28-2.32-3.98-2.32s-3.15.79-4.03,2.32Z"/>
          </g>
        </g>
      </g>
    </g>
  </g>
</svg>