<?xml version="1.0" encoding="UTF-8"?><svg id="_レイヤー_2" xmlns="http://www.w3.org/2000/svg" viewBox="0 0 315.6 143.94"><defs><style>.cls-1{fill:#fff;}.cls-2,.cls-3{fill:#333;}.cls-4{stroke-dasharray:0 0 0 6;stroke-linecap:round;}.cls-4,.cls-3,.cls-5{stroke:#333;stroke-miterlimit:10;stroke-width:2px;}.cls-4,.cls-5{fill:none;}</style></defs><g id="_レイヤー_1-2"><g><polygon class="cls-3" points="297.7 95.67 99.97 95.67 108.3 48.4 306.03 48.4 297.7 95.67"/><polygon class="cls-5" points="289.36 142.94 91.63 142.94 99.97 95.67 297.7 95.67 289.36 142.94"/><polygon class="cls-4" points="306.07 48.27 108.34 48.27 116.67 1 314.4 1 306.07 48.27"/><g><path class="cls-1" d="M161.83,75.4c.48,.49,1.04,.9,1.77,1.29,1.22,.65,2.57,1.04,5.01,1.46-.37,.48-.53,.7-.61,.87q-.27,.54-.39,.73c-2.45-.51-3.96-1.09-5.3-1.99-.88-.59-1.51-1.19-2.04-1.97-.17,.31-.34,.58-.54,.83-1.29,1.62-3.55,2.79-6.51,3.35-.25-.71-.37-.94-.75-1.5,2.41-.48,4.23-1.17,5.24-2.01,.36-.31,.66-.65,.94-1.07h-2.7c-.85,0-2.33,.03-3.06,.07v-1.7c.7,.02,2.18,.05,3.06,.05h3.37c.08-.31,.14-.61,.19-.93h-2.46c-.56,0-1.53,.02-2.04,.03v-1.6c.51,.02,1.38,.03,2.04,.03h2.63c.02-.27,.02-.54,.03-.82h-2.77c-.71,0-1.67,.02-2.38,.03v-1.6c.66,.03,1.63,.05,2.38,.05h2.77c-.02-.76-.03-1.29-.07-1.75l1.7,.19c.22,.02,.36,.12,.36,.24,0,.1-.1,.19-.36,.29v1.04h2.74c.7,0,1.79-.02,2.38-.05v1.6c-.63-.02-1.72-.03-2.38-.03h-2.74v.17c0,.22,0,.44-.02,.65h2.67c.65,0,1.53-.02,2.04-.03v1.6c-.53-.02-1.48-.03-2.04-.03h-2.8c-.03,.31-.1,.63-.17,.93h4.1c.94,0,2.28-.03,3.04-.05v1.7c-.8-.03-2.14-.07-3.04-.07h-3.26Zm-2.16-10.15c0-.46,0-.83-.02-1.09l1.72,.12c.19,.02,.31,.07,.31,.17s-.08,.2-.32,.34v.95h3.2c1.16,0,2.48-.03,3.37-.08-.03,.61-.03,.94-.03,1.31v.44c0,.37,.02,.82,.05,1.31h-1.77c.03-.43,.05-.97,.05-1.31v-.22h-11.51v.22c0,.34,.02,.88,.05,1.31h-1.77c.03-.49,.05-.94,.05-1.31v-.44c0-.37,0-.68-.03-1.31,.88,.05,2.21,.08,3.38,.08h3.28v-.49Z"/><path class="cls-1" d="M177.64,69.55c-.22,2.41-.63,3.96-1.29,5.29-.85,1.65-2.02,2.86-3.86,3.94-.54,.32-.9,.53-1.82,.99l-.17-.31c-.32-.61-.41-.75-.88-1.27,4.11-1.87,5.73-3.86,6.2-8.6l-2.4,.05c-1.67,.03-1.94,.03-3.06,.08l-.03-1.75c.25,.02,1.28,.03,3.04,.03l2.57-.03,.05-2.38c0-.41,0-.92-.03-1.28l1.94,.15c.29,.02,.46,.12,.46,.29,0,.15-.12,.25-.51,.48-.02,1-.05,1.89-.1,2.7l5.01-.08,.27-.32,1.26,1c.17,.12,.2,.2,.2,.31,0,.14-.03,.19-.37,.34-.02,.93-.03,1.36-.03,2-.03,4.67-.34,6.58-1.22,7.46-.73,.73-1.39,.87-4.4,.88-.12-.87-.24-1.27-.53-1.92l.31,.02c.44,.02,.9,.02,1.39,.02,1.43,0,1.82-.15,2.14-.85,.39-.85,.54-2.89,.59-7.34l-4.73,.1Z"/><path class="cls-1" d="M190.66,71.04c.83,.56,1.51,1.11,2.23,1.82l-.97,1.51c-.36-.48-.82-.99-1.26-1.41v2.06c0,2.23,.03,3.88,.08,4.96h-1.77c.05-1.1,.08-2.77,.08-4.96v-1.51c-.1,.27-.19,.53-.32,.83-.46,1.12-.8,1.77-1.45,2.79-.49-.97-.65-1.24-.99-1.67,1.16-1.7,1.92-3.62,2.5-6.17h-.85c-.46,0-1,.02-1.36,.03v-1.61c.37,.02,.99,.03,1.36,.03h1.11c-.02-1.89-.05-3.06-.1-3.48l1.79,.14c.15,0,.25,.07,.25,.17,0,.08-.08,.19-.31,.32-.02,.49-.02,.58-.03,2.86h.95c.37,0,.99-.02,1.36-.03v1.61c-.36-.02-.9-.03-1.36-.03h-.95v1.75Zm4.76,8.64h-1.67c.03-.68,.05-1.67,.05-2.99v-8.74c0-1.02-.03-2.16-.05-2.7,.31,.03,.59,.03,1,.03h5.86c.39,0,.68,0,1-.03q-.03,.56-.05,2.7v8.55c0,1.34,.02,2.35,.05,2.97h-1.68v-.8h-4.52v1Zm4.52-10.5v-2.33h-4.52v2.33h4.52Zm-4.52,4.01h4.52v-2.45h-4.52v2.45Zm0,3.93h4.52v-2.36h-4.52v2.36Z"/><path class="cls-1" d="M215.62,66.13c1.05,0,2.52-.02,3.4-.07v1.67c-.88-.05-2.41-.07-3.4-.07h-9.49v4.1c0,3.4-.58,5.71-1.94,7.84-.48-.77-.54-.88-1.02-1.43,.88-1.55,1.28-3.52,1.28-6.53v-4.03c0-.53-.02-1.17-.05-1.5,.58,.02,1.14,.02,1.87,.02h4.39v-.92c0-.48-.02-.85-.03-1.1l1.75,.12c.2,.02,.31,.07,.31,.17,0,.12-.08,.22-.34,.34v1.39h3.28Zm-6.8,6.82c.1,.03,.17,.1,.17,.19,0,.1-.05,.15-.29,.22-.46,2.48-.66,3.15-1.48,4.74-.7-.61-.78-.68-1.34-.97,.8-1.53,1.14-2.75,1.34-4.64l1.6,.46Zm2.4-2.28c.15,0,.27,.1,.27,.2,0,.12-.1,.2-.36,.31-.02,.22-.03,.46-.03,.73v5.27c0,.41,.08,.53,.39,.59,.2,.03,.99,.1,1.36,.1,2.24,0,2.33-.08,2.33-2.58,.83,.24,1.12,.31,1.63,.39-.05,2.21-.27,2.96-.99,3.35-.6,.34-1.21,.42-3.33,.42-2.57,0-3.03-.31-3.03-2.01v-5.37c0-.9-.02-1.31-.05-1.56l1.8,.15Zm.58-2.7c1.26,.87,2.07,1.63,3.15,2.96l-1.28,1.11c-.97-1.39-1.61-2.07-2.84-3.06l.97-1Zm4.69,3.98c1.48,1.41,2.46,2.77,3.23,4.49l-1.43,.99c-.75-1.73-1.6-3.08-2.89-4.54l1.09-.93Z"/><path class="cls-1" d="M229.49,64.65c.24,.09,.34,.17,.34,.27,0,.14,0,.15-.41,.25,.87,1.34,1.62,2.19,2.69,3.04,1.26,1.02,2.62,1.77,4.54,2.55q-.61,.73-1.04,1.61c-2.19-1.05-3.01-1.55-4.38-2.69-1.28-1.05-1.73-1.55-2.79-3.21-.83,1.28-1.46,2.01-2.53,2.99-1.36,1.27-2.41,2.02-4.64,3.31-.39-.8-.56-1.07-1-1.6,1.97-1.02,3.11-1.8,4.44-3.03,1.33-1.21,2.09-2.18,3.23-4.08l1.56,.56Zm-1.65,6.27c0-.78,0-.99-.03-1.58l1.82,.12c.19,.02,.31,.07,.31,.17s-.1,.2-.32,.34v2.77h2.41c.65,0,1.51-.02,2.02-.03v1.67c-.51-.03-1.46-.05-2.02-.05h-2.41v3.59h3.08c1.07,0,2.52-.03,3.38-.07v1.75c-.9-.03-2.35-.05-3.38-.05h-8.38c-.93,0-2.46,.02-3.38,.05v-1.75c.73,.03,1.94,.05,2.89,.07v-3.91c0-.78,0-.99-.03-1.56l1.78,.1c.19,.02,.31,.08,.31,.17,0,.1-.1,.2-.34,.34v4.86h2.31v-6.99Z"/><path class="cls-1" d="M246.2,76.98c0,1.29,.02,2.38,.05,2.99h-1.67c.03-.66,.05-1.62,.05-2.99v-.9c-.99,.87-1.63,1.31-2.72,1.9-1.29,.7-2.18,1.05-3.89,1.58-.29-.77-.32-.85-.71-1.5,2.57-.68,4.35-1.46,5.86-2.55h-2.16c-.88,0-1.99,.02-2.7,.05v-1.44c.71,.03,1.82,.05,2.7,.05h3.62v-.83h-2.18c-.87,0-1.99,.02-2.7,.05v-1.43c.71,.02,1.84,.05,2.7,.05h2.18v-.8h-3.01c-.88,0-2.01,.03-2.72,.07v-1.45c.71,.03,1.84,.05,2.72,.05h1.04c-.2-.51-.46-.99-.75-1.45h-.7c-.93,0-2.46,.02-3.38,.05v-1.55c.77,.03,2.01,.05,2.96,.05-.34-.56-.59-.88-1.24-1.6l1.16-.9c.95,.9,1.19,1.17,1.82,2.19l-.48,.31h1.26v-1.67l-.02-1.09,1.6,.12c.2,.02,.32,.07,.32,.17s-.1,.2-.34,.34v2.12h1.24v-1.67c0-.46,0-.83-.02-1.09l1.61,.12c.19,.02,.31,.07,.31,.17s-.1,.2-.34,.34v2.12h.68c.53-1.05,.7-1.55,.92-2.45l1.65,.59c.1,.03,.19,.12,.19,.19,0,.12-.05,.15-.39,.27q-.1,.2-.51,1.04c-.05,.1-.12,.22-.2,.36,1.04,0,2.33-.02,3.13-.05v1.55c-.9-.03-2.35-.05-3.38-.05h-1.1c.22,.07,.27,.15,.27,.22,0,.1-.08,.15-.37,.24q-.12,.22-.51,.99h1.33c.78,0,1.97-.02,2.7-.05v1.45c-.73-.03-1.92-.07-2.7-.07h-3.16v.8h2.31c.78,0,1.99-.03,2.72-.05v1.43c-.73-.03-1.94-.05-2.72-.05h-2.31v.83h3.83c.78,0,1.97-.02,2.7-.05v1.44c-.73-.03-1.92-.05-2.7-.05h-2.52c1.56,1.1,3.32,1.79,6.02,2.38-.39,.63-.48,.82-.76,1.55-1.7-.42-2.87-.88-4.3-1.65-.9-.51-1.41-.87-2.26-1.67v.85Zm.25-7.09c.22-.48,.44-.95,.59-1.45h-3.45c.32,.44,.58,.93,.78,1.45h2.07Z"/></g><g><path class="cls-2" d="M153.5,122.67c.48,.49,1.04,.9,1.77,1.29,1.22,.65,2.57,1.04,5.01,1.46-.37,.48-.53,.7-.61,.87q-.27,.54-.39,.73c-2.45-.51-3.96-1.09-5.3-1.99-.88-.59-1.51-1.19-2.04-1.97-.17,.31-.34,.58-.54,.83-1.29,1.62-3.55,2.79-6.51,3.35-.25-.71-.37-.94-.75-1.5,2.41-.48,4.23-1.17,5.24-2.01,.36-.31,.66-.65,.93-1.07h-2.7c-.85,0-2.33,.03-3.06,.07v-1.7c.7,.02,2.18,.05,3.06,.05h3.37c.08-.31,.14-.61,.19-.93h-2.46c-.56,0-1.53,.02-2.04,.03v-1.6c.51,.02,1.38,.03,2.04,.03h2.63c.02-.27,.02-.54,.03-.82h-2.77c-.71,0-1.67,.02-2.38,.03v-1.6c.66,.03,1.63,.05,2.38,.05h2.77c-.02-.76-.03-1.29-.07-1.75l1.7,.19c.22,.02,.36,.12,.36,.24,0,.1-.1,.19-.36,.29v1.04h2.74c.7,0,1.79-.02,2.38-.05v1.6c-.63-.02-1.72-.03-2.38-.03h-2.74v.17c0,.22,0,.44-.02,.65h2.67c.65,0,1.53-.02,2.04-.03v1.6c-.53-.02-1.48-.03-2.04-.03h-2.8c-.03,.31-.1,.63-.17,.93h4.1c.94,0,2.28-.03,3.04-.05v1.7c-.8-.03-2.14-.07-3.04-.07h-3.26Zm-2.16-10.15c0-.46,0-.83-.02-1.09l1.72,.12c.19,.02,.31,.07,.31,.17s-.08,.2-.32,.34v.95h3.2c1.16,0,2.48-.03,3.37-.08-.03,.61-.03,.94-.03,1.31v.44c0,.37,.02,.82,.05,1.31h-1.77c.03-.43,.05-.97,.05-1.31v-.22h-11.51v.22c0,.34,.02,.88,.05,1.31h-1.77c.03-.49,.05-.94,.05-1.31v-.44c0-.37,0-.68-.03-1.31,.88,.05,2.21,.08,3.38,.08h3.28v-.49Z"/><path class="cls-2" d="M169.31,116.83c-.22,2.41-.63,3.96-1.29,5.29-.85,1.65-2.02,2.86-3.86,3.94-.54,.32-.9,.53-1.82,.99l-.17-.31c-.32-.61-.41-.75-.88-1.27,4.11-1.87,5.73-3.86,6.2-8.6l-2.4,.05c-1.67,.03-1.94,.03-3.06,.08l-.03-1.75c.25,.02,1.28,.03,3.04,.03l2.57-.03,.05-2.38c0-.41,0-.92-.03-1.28l1.94,.15c.29,.02,.46,.12,.46,.29,0,.15-.12,.25-.51,.48-.02,1-.05,1.89-.1,2.7l5.01-.08,.27-.32,1.26,1c.17,.12,.2,.2,.2,.31,0,.14-.03,.19-.37,.34-.02,.93-.03,1.36-.03,2-.03,4.67-.34,6.58-1.22,7.46-.73,.73-1.39,.87-4.4,.88-.12-.87-.24-1.27-.53-1.92l.31,.02c.44,.02,.9,.02,1.39,.02,1.43,0,1.82-.15,2.14-.85,.39-.85,.54-2.89,.6-7.34l-4.73,.1Z"/><path class="cls-2" d="M186.92,116.28c2.01,.75,3.88,1.8,5.71,2.89l-1.07,1.68c-1.46-1.05-3.01-2.01-4.64-2.79v4.93c0,1.75,.03,3.13,.07,3.98h-1.89c.05-.93,.07-2.24,.07-3.98v-8.67h-3.49c-.93,0-2.46,.03-3.38,.07v-1.73c.88,.03,2.41,.07,3.38,.07h8.94c1.07,0,2.52-.03,3.38-.07v1.73c-.9-.03-2.35-.07-3.38-.07h-3.71v1.95Z"/><path class="cls-2" d="M207.52,118.05l.24-.36,1.24,1.07c.08,.07,.14,.17,.14,.24,0,.15-.12,.27-.41,.37-.03,.34-.08,.92-.22,2.46-.15,1.58-.58,3.2-1.05,3.94-.7,1.07-1.6,1.38-4.1,1.38h-.53c-.07-.58-.08-.65-.12-.8-.02-.08-.07-.25-.14-.53-.03-.1-.08-.29-.14-.49q.92,.03,1.07,.03c1.53,0,1.92-.1,2.33-.56,.41-.46,.75-1.51,.92-2.86,.02-.14,.08-.93,.22-2.36h-4.37c-.08,.34-.17,.68-.29,1.04-.93,3.04-3.06,5.17-6.41,6.39-.34-.82-.41-.93-.78-1.48,2.21-.93,3.16-1.6,4.17-2.87,1.33-1.72,1.89-3.47,2.14-6.93h-2.57c-.94,0-2.46,.03-3.38,.07v-1.68c.88,.03,2.41,.07,3.38,.07h3.31v-1.5c0-.48,0-.85-.02-1.09l1.77,.12c.2,0,.31,.07,.31,.17s-.08,.2-.34,.34v1.96h3.52c1.07,0,2.53-.03,3.4-.07v1.68c-.92-.03-2.36-.07-3.4-.07h-4.23c-.08,.76-.15,1.55-.27,2.31h4.61Z"/><path class="cls-2" d="M221.16,111.93c.24,.09,.34,.17,.34,.27,0,.14,0,.15-.41,.25,.87,1.34,1.62,2.19,2.69,3.04,1.26,1.02,2.62,1.77,4.54,2.55q-.61,.73-1.04,1.61c-2.19-1.05-3.01-1.55-4.38-2.69-1.28-1.05-1.73-1.55-2.79-3.21-.83,1.28-1.46,2.01-2.53,2.99-1.36,1.27-2.41,2.02-4.64,3.31-.39-.8-.56-1.07-1-1.6,1.97-1.02,3.11-1.8,4.44-3.03,1.33-1.21,2.09-2.18,3.23-4.08l1.56,.56Zm-1.65,6.27c0-.78,0-.99-.03-1.58l1.82,.12c.19,.02,.31,.07,.31,.17s-.1,.2-.32,.34v2.77h2.41c.65,0,1.51-.02,2.02-.03v1.67c-.51-.03-1.46-.05-2.02-.05h-2.41v3.59h3.08c1.07,0,2.52-.03,3.38-.07v1.75c-.9-.03-2.35-.05-3.38-.05h-8.38c-.93,0-2.46,.02-3.38,.05v-1.75c.73,.03,1.94,.05,2.89,.07v-3.91c0-.78,0-.99-.03-1.56l1.78,.1c.19,.02,.31,.08,.31,.17,0,.1-.1,.2-.34,.34v4.86h2.31v-6.99Z"/><path class="cls-2" d="M237.87,124.25c0,1.29,.02,2.38,.05,2.99h-1.67c.03-.66,.05-1.62,.05-2.99v-.9c-.99,.87-1.63,1.31-2.72,1.9-1.29,.7-2.18,1.05-3.89,1.58-.29-.77-.32-.85-.71-1.5,2.57-.68,4.35-1.46,5.86-2.55h-2.16c-.88,0-1.99,.02-2.7,.05v-1.44c.71,.03,1.82,.05,2.7,.05h3.62v-.83h-2.18c-.87,0-1.99,.02-2.7,.05v-1.43c.71,.02,1.84,.05,2.7,.05h2.18v-.8h-3.01c-.88,0-2.01,.03-2.72,.07v-1.45c.71,.03,1.84,.05,2.72,.05h1.04c-.2-.51-.46-.99-.75-1.45h-.7c-.93,0-2.46,.02-3.38,.05v-1.55c.77,.03,2.01,.05,2.96,.05-.34-.56-.59-.88-1.24-1.6l1.16-.9c.95,.9,1.19,1.17,1.82,2.19l-.48,.31h1.26v-1.67l-.02-1.09,1.6,.12c.2,.02,.32,.07,.32,.17s-.1,.2-.34,.34v2.12h1.24v-1.67c0-.46,0-.83-.02-1.09l1.61,.12c.19,.02,.31,.07,.31,.17s-.1,.2-.34,.34v2.12h.68c.53-1.05,.7-1.55,.92-2.45l1.65,.59c.1,.03,.19,.12,.19,.19,0,.12-.05,.15-.39,.27q-.1,.2-.51,1.04c-.05,.1-.12,.22-.2,.36,1.04,0,2.33-.02,3.13-.05v1.55c-.9-.03-2.35-.05-3.38-.05h-1.1c.22,.07,.27,.15,.27,.22,0,.1-.08,.15-.37,.24q-.12,.22-.51,.99h1.33c.78,0,1.97-.02,2.7-.05v1.45c-.73-.03-1.92-.07-2.7-.07h-3.16v.8h2.31c.78,0,1.99-.03,2.72-.05v1.43c-.73-.03-1.94-.05-2.72-.05h-2.31v.83h3.83c.78,0,1.97-.02,2.7-.05v1.44c-.73-.03-1.92-.05-2.7-.05h-2.52c1.56,1.1,3.32,1.79,6.02,2.38-.39,.63-.48,.82-.76,1.55-1.7-.42-2.87-.88-4.3-1.65-.9-.51-1.41-.87-2.26-1.67v.85Zm.25-7.09c.22-.48,.44-.95,.6-1.45h-3.45c.32,.44,.58,.93,.78,1.45h2.07Z"/></g><rect class="cls-2" y="1" width="84.99" height="30.51" rx="5" ry="5"/><g><path class="cls-1" d="M31.09,13.6c.15,.02,.25,.08,.25,.15,0,.11-.09,.18-.31,.3v6.13c0,1.35,.01,2.42,.04,3.08h-1.53c.03-.67,.04-1.7,.04-3.08v-3.87c-.24,.48-.46,.85-.83,1.44-.34-.75-.5-.97-.9-1.42,1.35-2.13,2.2-4.25,2.85-7.08l1.44,.56c.15,.06,.23,.13,.23,.22,0,.1-.06,.15-.36,.24-.42,1.47-.63,2.08-1.14,3.31h.21Zm5.05-.25v-1.28c0-1.47-.01-2.28-.04-2.7l1.54,.1c.17,.02,.27,.08,.27,.15,0,.09-.09,.18-.3,.3-.01,.74-.01,.75-.01,2.14v.96l2.08-.45,.3-.39,1.14,.83c.06,.04,.12,.13,.12,.22,0,.12,0,.15-.34,.33-.06,4.25-.15,4.95-.53,5.52-.34,.51-.76,.66-1.86,.66h-.29c-.04-.72-.09-.91-.32-1.53,.29,.01,.42,.03,.56,.03,.46,0,.64-.05,.73-.18,.12-.18,.2-1.2,.21-2.88,0-.48,0-.66,.02-1.14l-1.83,.41v3.12c0,1.08,0,2.1,.03,2.62h-1.53c.04-.62,.04-1.38,.04-2.62v-2.8l-1.58,.34v5.61c0,.64,.02,.64,3.18,.64,1.62,0,2.37-.06,2.6-.19,.18-.11,.25-.45,.25-1.1q0-.1-.02-.69,.36,.13,1.52,.41c0,1.68-.15,2.25-.66,2.64-.45,.33-1.28,.42-4.08,.42-2.14,0-3.29-.09-3.66-.29-.46-.22-.61-.6-.61-1.46v-5.68c-.53,.12-.77,.18-1.41,.33l-.34-1.42c.72-.14,1.3-.25,1.75-.35v-.24c0-1.44-.02-1.95-.08-2.33l1.67,.13c.13,0,.22,.08,.22,.17,0,.12-.09,.2-.3,.29-.01,.46-.03,.97-.03,1.59v.09l1.58-.34Z"/><path class="cls-1" d="M44.45,13.36h-1.19s0-1.4,0-1.4c.33,.02,.87,.03,1.19,.03h.97v-1.28c0-.67,0-.85-.01-1.38l1.47,.09c.17,.01,.27,.07,.27,.15,0,.11-.09,.18-.3,.3v2.12h.93l.18-.24,.88,.78c.06,.06,.12,.17,.12,.24,0,.12-.04,.17-.34,.24-.29,.62-.58,1.22-.93,1.79-.25,.42-.54,.81-.84,1.21v.24c.9,.51,1.37,.86,2.38,1.79l-1,1.2c-.6-.66-.99-1.08-1.38-1.43v2.31c0,1.38,.02,2.4,.04,3.07h-1.51c.03-.67,.04-1.69,.04-3.07v-2.52c-.78,.81-1.12,1.1-2.01,1.75-.04-.12-.09-.22-.12-.3-.08-.21-.24-.57-.48-1.08,2.11-1.63,3.18-2.8,4.11-4.62h-2.47Zm7.5,2.01h-1.29c-.5,0-1.35,.03-1.8,.04v-1.46c.45,.03,1.22,.04,1.8,.04h1.29v-2.25c0-1.18-.01-1.81-.04-2.25l1.56,.11c.17,.01,.25,.06,.25,.15s-.08,.17-.29,.3v1.69s-.01,2.25-.01,2.25h1.65c.58,0,1.35-.01,1.8-.04v1.46c-.46-.01-1.3-.04-1.8-.04h-1.65v6.12h1.6c.6,0,1.58-.01,2.1-.04v1.46c-.55-.01-1.53-.03-2.1-.03h-5.21c-.63,0-1.47,.01-2.08,.03v-1.46c.57,.03,1.43,.04,2.08,.04h2.13v-6.12Z"/></g></g></g></svg>