<?xml version="1.0" encoding="UTF-8"?>
<svg id="_レイヤー_2" data-name="レイヤー 2" xmlns="http://www.w3.org/2000/svg" viewBox="0 0 538.47 554.11">
  <defs>
    <style>
      .cls-1, .cls-2 {
        stroke-width: 0px;
      }

      .cls-1, .cls-3 {
        fill: #333;
      }

      .cls-4 {
        fill: #fff;
        font-size: 20px;
      }

      .cls-4, .cls-3 {
        font-family: DNPShueiGoGinStd-B-83pv-RKSJ-H, 'DNP ShueiGoGinStd';
      }

      .cls-5 {
        letter-spacing: .25em;
      }

      .cls-2 {
        fill: #d3d3d3;
      }

      .cls-3 {
        font-size: 17px;
      }

      .cls-6 {
        fill: none;
        stroke: #333;
        stroke-miterlimit: 10;
        stroke-width: 4px;
      }

      .cls-7 {
        letter-spacing: -.5em;
      }
    </style>
  </defs>
  <g id="_レイヤー_1-2" data-name="レイヤー 1">
    <g>
      <rect class="cls-2" width="538.47" height="554.11" rx="15" ry="15"/>
      <g>
        <rect class="cls-1" x="189.15" y="324.18" width="139.54" height="50.09" rx="5.96" ry="5.96"/>
        <text class="cls-4" transform="translate(238.88 356.77)"><tspan x="0" y="0">他社</tspan></text>
      </g>
      <text class="cls-3" transform="translate(31.9 425.26)"><tspan x="0" y="0">大手企業は、応募総数も多く</tspan><tspan x="0" y="32.2">求職者</tspan><tspan class="cls-5" x="51" y="32.2">様1人1</tspan><tspan x="124" y="32.2">人に向き合い切れません</tspan><tspan class="cls-7" x="311" y="32.2">。</tspan><tspan x="0" y="64.4">効率よく内定を取ることを最優先にするため</tspan><tspan class="cls-7" x="340" y="64.4">、</tspan><tspan x="0" y="96.6">求職者様の能力に対して低いレベルの企業がメインとなります</tspan><tspan class="cls-7" x="476" y="96.6">。</tspan></text>
      <path class="cls-1" d="M502.01,179.46h-152.54c-1.41,0-2.56,1.15-2.56,2.56v26.67c0,.71-.57,1.28-1.28,1.28h-152.67c-1.41,0-2.56,1.15-2.56,2.56v26.67c0,.71-.57,1.28-1.28,1.28H36.47c-1.41,0-2.56,1.15-2.56,2.56v31.88c0,.71.57,1.28,1.28,1.28h468.1c.71,0,1.28-.57,1.28-1.28v-94.17h0c0-.71-.57-1.28-1.28-1.28h-1.28Z"/>
      <text class="cls-4" transform="translate(357.01 204.97)"><tspan x="0" y="0">チャレンジ企業</tspan></text>
      <text class="cls-4" transform="translate(212.26 235.85)"><tspan x="0" y="0">実力相応企業</tspan></text>
      <text class="cls-4" transform="translate(63.02 265.94)"><tspan x="0" y="0">安全圏企業</tspan></text>
      <g>
        <path class="cls-1" d="M108.04,162.61c-4.19,0-7.59-3.41-7.59-7.59s3.41-7.59,7.59-7.59,7.59,3.41,7.59,7.59-3.41,7.59-7.59,7.59ZM108.04,149.27c-3.17,0-5.75,2.58-5.75,5.75s2.58,5.75,5.75,5.75,5.75-2.58,5.75-5.75-2.58-5.75-5.75-5.75Z"/>
        <path class="cls-1" d="M113.18,230.37h-10.26c-1.14,0-2.1-.89-2.18-2.03l-2.02-27.3c-3.63-.12-7.35-2.1-7.62-6.44l-1.5-19.88c0-4.58,3.57-8.33,7.97-8.44h20.93c4.42.11,8,3.86,8,8.37l-1.51,19.96c-.27,4.33-4,6.31-7.62,6.43l-1.99,27.29h0c-.08,1.14-1.04,2.03-2.18,2.03ZM99.52,199.2c.22,0,.44.08.61.23.18.16.34.43.36.67l2.08,28.1c.01.18.17.32.35.32h10.26c.18,0,.34-.14.35-.32l2.05-28.1c.02-.24.12-.45.3-.61.18-.16.47-.3.72-.29,2.31.1,6.3-.77,6.55-4.71l1.51-19.9c0-3.45-2.77-6.38-6.18-6.46h-20.88c-3.38.08-6.16,3.01-6.16,6.53l1.5,19.82c.25,3.96,4.24,4.83,6.55,4.73.01,0,.03,0,.04,0ZM114.45,228.27h0,0Z"/>
        <path class="cls-1" d="M116.5,201.09s-.05,0-.07,0c-.51-.04-.89-.48-.85-.99l1.69-22.79c.04-.51.48-.89.99-.85.51.04.89.48.85.99l-1.69,22.79c-.04.48-.44.85-.92.85Z"/>
        <path class="cls-1" d="M99.58,201.09c-.48,0-.88-.37-.92-.85l-1.69-22.79c-.04-.51.34-.95.85-.99.51-.04.95.34.99.85l1.69,22.79c.04.51-.34.95-.85.99-.02,0-.05,0-.07,0Z"/>
      </g>
      <polygon class="cls-6" points="268.44 135.02 245.34 175.02 291.53 175.02 268.44 135.02"/>
      <g>
        <line class="cls-6" x1="407.92" y1="147.79" x2="450.3" y2="105.41"/>
        <line class="cls-6" x1="450.3" y1="147.79" x2="407.92" y2="105.41"/>
      </g>
    </g>
  </g>
</svg>