<?xml version="1.0" encoding="UTF-8"?><svg id="_レイヤー_2" xmlns="http://www.w3.org/2000/svg" xmlns:xlink="http://www.w3.org/1999/xlink" viewBox="0 0 73.53 53.2"><defs><style>.cls-1{stroke:url(#_新規グラデーションスウォッチ_1-7);}.cls-1,.cls-2,.cls-3,.cls-4,.cls-5,.cls-6,.cls-7{fill:none;stroke-linecap:round;stroke-linejoin:round;stroke-width:2px;}.cls-2{stroke:url(#_新規グラデーションスウォッチ_1-8);}.cls-3{stroke:url(#_新規グラデーションスウォッチ_1-6);}.cls-4{stroke:url(#_新規グラデーションスウォッチ_1-4);}.cls-5{stroke:url(#_新規グラデーションスウォッチ_1-5);}.cls-6{stroke:url(#_新規グラデーションスウォッチ_1-9);}.cls-7{stroke:url(#_新規グラデーションスウォッチ_1-10);}.cls-8{font-family:DINAlternate-Bold, 'DIN Alternate';font-size:5.36px;font-weight:700;}.cls-9{fill:url(#_新規グラデーションスウォッチ_1);}.cls-10{fill:url(#_新規グラデーションスウォッチ_1-2);}.cls-11{fill:url(#_新規グラデーションスウォッチ_1-3);}</style><linearGradient id="_新規グラデーションスウォッチ_1" x1="5.84" y1="23.06" x2="9" y2="23.06" gradientUnits="userSpaceOnUse"><stop offset="0" stop-color="#0d76a3"/><stop offset="0" stop-color="#0d74a2"/><stop offset=".18" stop-color="#10548a"/><stop offset=".37" stop-color="#133b78"/><stop offset=".56" stop-color="#152a6b"/><stop offset=".76" stop-color="#161f63"/><stop offset="1" stop-color="#171c61"/></linearGradient><linearGradient id="_新規グラデーションスウォッチ_1-2" x1="36.84" y1="14.69" x2="39.43" y2="14.69" xlink:href="#_新規グラデーションスウォッチ_1"/><linearGradient id="_新規グラデーションスウォッチ_1-3" x1="29.37" y1="31.64" x2="31.99" y2="31.64" xlink:href="#_新規グラデーションスウォッチ_1"/><linearGradient id="_新規グラデーションスウォッチ_1-4" x1="45.91" y1="14.62" x2="73.53" y2="14.62" xlink:href="#_新規グラデーションスウォッチ_1"/><linearGradient id="_新規グラデーションスウォッチ_1-5" x1="19.83" y1="28.11" x2="21.83" y2="28.11" xlink:href="#_新規グラデーションスウォッチ_1"/><linearGradient id="_新規グラデーションスウォッチ_1-6" x1="23.03" y1="14.82" x2="45.23" y2="14.82" xlink:href="#_新規グラデーションスウォッチ_1"/><linearGradient id="_新規グラデーションスウォッチ_1-7" x1="23.04" y1="31.55" x2="38.04" y2="31.55" xlink:href="#_新規グラデーションスウォッチ_1"/><linearGradient id="_新規グラデーションスウォッチ_1-8" x1="0" y1="23.14" x2="18.58" y2="23.14" xlink:href="#_新規グラデーションスウォッチ_1"/><linearGradient id="_新規グラデーションスウォッチ_1-9" x1="7" y1="51.48" x2="21.09" y2="51.48" xlink:href="#_新規グラデーションスウォッチ_1"/><linearGradient id="_新規グラデーションスウォッチ_1-10" x1="19.09" y1="51.49" x2="34.65" y2="51.49" xlink:href="#_新規グラデーションスウォッチ_1"/></defs><g id="_レイヤー_1-2"><g><g><text class="cls-8" transform="translate(5.84 24.97)"><tspan x="0" y="0">A</tspan></text><path class="cls-9" d="M8.12,24.12h-1.4l-.28,.85h-.59l1.34-3.82h.47l1.34,3.82h-.59l-.29-.85Zm-.16-.51l-.54-1.67h0l-.54,1.67h1.08Z"/></g><g><text class="cls-8" transform="translate(36.45 16.6)"><tspan x="0" y="0">B</tspan></text><path class="cls-10" d="M36.84,12.78h1.43c.36,0,.64,.1,.82,.28,.18,.19,.28,.43,.28,.74,0,.16-.03,.31-.11,.45-.04,.07-.09,.13-.17,.19-.07,.06-.16,.12-.27,.18h0c.2,.06,.35,.17,.46,.34,.1,.17,.14,.35,.14,.55,0,.33-.1,.59-.3,.78-.19,.2-.44,.3-.73,.3h-1.56v-3.82Zm.56,.51v1.1h.81c.21,0,.36-.06,.45-.17,.1-.1,.15-.23,.15-.38s-.05-.29-.15-.39c-.1-.1-.25-.15-.45-.16h-.81Zm0,1.61v1.15h.86c.21,0,.36-.06,.46-.18,.1-.11,.15-.25,.15-.4s-.05-.29-.15-.4c-.1-.11-.25-.17-.46-.17h-.86Z"/></g><g><text class="cls-8" transform="translate(29.11 33.55)"><tspan x="0" y="0">C</tspan></text><path class="cls-11" d="M31.99,32.48c-.08,.35-.24,.63-.46,.82-.24,.19-.51,.28-.83,.28-.29,0-.53-.08-.73-.22-.2-.13-.34-.29-.43-.47-.03-.06-.05-.11-.07-.17-.02-.05-.04-.12-.05-.2-.03-.15-.04-.45-.04-.89s.01-.74,.04-.89c.03-.15,.07-.27,.12-.36,.09-.18,.23-.33,.43-.47,.19-.14,.44-.21,.73-.21,.36,0,.65,.11,.87,.33,.22,.22,.37,.48,.43,.8h-.59c-.05-.15-.13-.29-.25-.39-.12-.1-.28-.16-.46-.16-.13,0-.25,.03-.34,.08-.1,.05-.17,.12-.23,.2-.07,.08-.12,.19-.14,.32-.03,.14-.04,.39-.04,.77s.01,.63,.04,.76c.02,.13,.07,.24,.14,.32,.06,.08,.14,.14,.23,.19,.09,.06,.21,.09,.34,.09,.32,0,.55-.17,.71-.52h.59Z"/></g><path class="cls-4" d="M57.1,9.27c1.38-2.54,5.24-2.71,5.24,.8,0,2.39-2.97,2.25-2.97,5.14m0,3.45c-.01,.13-.02,.27-.02,.41m-8.5,9.17c2.6-1.42,3.4-1.94,4.83-3.39,1.27,.4,2.63,.62,4.04,.62,7.07,0,12.81-5.48,12.81-12.24S66.8,1,59.72,1s-12.81,5.48-12.81,12.24c0,3.45,1.5,6.57,3.91,8.8l.03,6.2"/><g><line class="cls-5" x1="20.83" y1="8.89" x2="20.83" y2="47.33"/><polyline class="cls-3" points="24.03 10.69 40.35 10.69 44.23 14.82 40.35 18.95 24.03 18.95"/><polyline class="cls-1" points="24.04 27.42 33.16 27.42 37.04 31.55 33.16 35.69 24.04 35.69"/><polyline class="cls-2" points="17.58 19.01 4.89 19.01 1 23.14 4.89 27.27 17.58 27.27"/><path class="cls-6" d="M8,52.19c2.86-.83,7.19-1.37,12.09-1.42"/><path class="cls-7" d="M20.09,50.78c.25,0,.49,0,.74,0,5.19,0,9.82,.56,12.82,1.42"/></g></g></g></svg>