<?xml version="1.0" encoding="UTF-8"?><svg id="_レイヤー_2" xmlns="http://www.w3.org/2000/svg" xmlns:xlink="http://www.w3.org/1999/xlink" viewBox="0 0 69.98 54.62"><defs><style>.cls-1{stroke:url(#_新規グラデーションスウォッチ_1-7);}.cls-1,.cls-2,.cls-3,.cls-4,.cls-5,.cls-6,.cls-7{fill:none;stroke-linecap:round;stroke-linejoin:round;stroke-width:2px;}.cls-2{stroke:url(#_新規グラデーションスウォッチ_1-6);}.cls-3{stroke:url(#_新規グラデーションスウォッチ_1-3);}.cls-4{stroke:url(#_新規グラデーションスウォッチ_1-4);}.cls-5{stroke:url(#_新規グラデーションスウォッチ_1-2);}.cls-6{stroke:url(#_新規グラデーションスウォッチ_1-5);}.cls-7{stroke:url(#_新規グラデーションスウォッチ_1);}</style><linearGradient id="_新規グラデーションスウォッチ_1" x1="42.66" y1="14.46" x2="69.98" y2="14.46" gradientUnits="userSpaceOnUse"><stop offset="0" stop-color="#0d76a3"/><stop offset="0" stop-color="#0d74a2"/><stop offset=".18" stop-color="#10548a"/><stop offset=".37" stop-color="#133b78"/><stop offset=".56" stop-color="#152a6b"/><stop offset=".76" stop-color="#161f63"/><stop offset="1" stop-color="#171c61"/></linearGradient><linearGradient id="_新規グラデーションスウォッチ_1-2" x1="0" y1="20.98" x2="9.67" y2="20.98" xlink:href="#_新規グラデーションスウォッチ_1"/><linearGradient id="_新規グラデーションスウォッチ_1-3" x1="13.71" y1="20.61" x2="28.6" y2="20.61" xlink:href="#_新規グラデーションスウォッチ_1"/><linearGradient id="_新規グラデーションスウォッチ_1-4" x1="6.86" y1="20.98" x2="16.53" y2="20.98" xlink:href="#_新規グラデーションスウォッチ_1"/><linearGradient id="_新規グラデーションスウォッチ_1-5" x1="32.7" y1="20.98" x2="42.37" y2="20.98" xlink:href="#_新規グラデーションスウォッチ_1"/><linearGradient id="_新規グラデーションスウォッチ_1-6" x1="25.84" y1="20.98" x2="35.51" y2="20.98" xlink:href="#_新規グラデーションスウォッチ_1"/><linearGradient id="_新規グラデーションスウォッチ_1-7" x1="11.88" y1="40.57" x2="35.28" y2="40.57" xlink:href="#_新規グラデーションスウォッチ_1"/></defs><g id="_レイヤー_1-2"><g><path class="cls-7" d="M53.73,9.17c1.36-2.51,5.18-2.67,5.18,.79,0,2.36-2.93,2.22-2.93,5.08m0,3.41c-.01,.13-.02,.26-.02,.4m-8.4,9.06c2.57-1.4,3.36-1.92,4.78-3.35,1.26,.4,2.6,.61,3.99,.61,6.99,0,12.66-5.41,12.66-12.09S63.31,1,56.32,1c-6.99,0-12.66,5.41-12.66,12.09,0,3.41,1.48,6.5,3.86,8.69l.03,6.13"/><g><path class="cls-5" d="M6.84,25.89c-.28,.15-.55,.36-.83,.58-.47,.37-.96,.77-1.52,.92-.16,.06-.32,.1-.49,.1-.17,0-.34-.03-.52-.11,0,0,0,0,0,0,0,0,0,0,0,0,0,0-.02,0-.02,0,0,0-.02,0-.02,0-.14-.18-.23-.37-.28-.56-.05-.2-.05-.4-.03-.6,0-.57,.19-1.14,.37-1.69,.18-.55,.34-1.07,.27-1.55-.19-.53-.69-.9-1.22-1.29-.52-.39-1.07-.8-1.35-1.4-.06-.11-.11-.24-.15-.37-.03-.13-.05-.27-.04-.42,0-.01,0-.03,0-.04,0-.01,0-.03,0-.04,.11-.18,.23-.31,.37-.41,.14-.1,.29-.17,.46-.22,.53-.23,1.14-.22,1.72-.21,.58,0,1.14,.01,1.57-.22,.39-.36,.56-.96,.75-1.59,.18-.63,.38-1.28,.81-1.75,.09-.12,.19-.22,.31-.3,.12-.08,.26-.15,.42-.19,0,0,0,0,0,0,0,0,0,0,0,0,0,0,0,0,0,0,0,0,0,0,0,0,.16,.04,.3,.11,.42,.19,.12,.08,.22,.19,.31,.3,.22,.23,.37,.52,.5,.82"/><path class="cls-3" d="M25.75,26.76c0-1.14-1.05-2.85-.92-3.81,.38-1.06,2.02-1.49,2.58-2.7,.13-.23,.2-.49,.19-.79,0-.03,0-.06,0-.08-.21-.35-.5-.54-.83-.64-1.06-.45-2.44,.05-3.3-.43-.78-.72-.7-2.42-1.56-3.35-.18-.23-.42-.41-.74-.5,0,0,0,0-.01,0,0,0,0,0-.01,0-.32,.09-.56,.26-.74,.5-.86,.93-.78,2.63-1.56,3.35-.86,.48-2.24-.02-3.3,.43-.33,.1-.62,.29-.83,.64,0,.03,0,.06,0,.08-.01,.31,.06,.57,.19,.79,.56,1.21,2.2,1.64,2.58,2.7,.13,.96-.92,2.67-.92,3.81"/><path class="cls-4" d="M13.7,25.89c-.28,.15-.55,.36-.83,.58-.47,.37-.96,.77-1.52,.92-.16,.06-.32,.1-.49,.1-.17,0-.34-.03-.52-.11,0,0,0,0,0,0,0,0,0,0,0,0,0,0-.02,0-.02,0,0,0-.02,0-.02,0-.14-.18-.23-.37-.28-.56-.05-.2-.05-.4-.03-.6,0-.57,.19-1.14,.37-1.69,.18-.55,.34-1.07,.27-1.55-.19-.53-.69-.9-1.22-1.29-.52-.39-1.07-.8-1.35-1.4-.06-.11-.11-.24-.15-.37-.03-.13-.05-.27-.04-.42,0-.01,0-.03,0-.04,0-.01,0-.03,0-.04,.11-.18,.23-.31,.37-.41,.14-.1,.29-.17,.46-.22,.53-.23,1.14-.22,1.72-.21,.58,0,1.14,.01,1.57-.22,.39-.36,.56-.96,.75-1.59,.18-.63,.38-1.28,.81-1.75,.09-.12,.19-.22,.31-.3,.12-.08,.26-.15,.42-.19,0,0,0,0,0,0,0,0,0,0,0,0,0,0,0,0,0,0,0,0,0,0,0,0,.16,.04,.3,.11,.42,.19,.12,.08,.22,.19,.31,.3,.22,.23,.37,.52,.5,.82"/><path class="cls-6" d="M35.53,25.89c.28,.15,.55,.36,.83,.58,.47,.37,.96,.77,1.52,.92,.16,.06,.32,.1,.49,.1,.17,0,.34-.03,.52-.11,0,0,0,0,0,0,0,0,0,0,0,0,0,0,.02,0,.02,0,0,0,.02,0,.02,0,.14-.18,.23-.37,.28-.56,.05-.2,.05-.4,.03-.6,0-.57-.19-1.14-.37-1.69-.18-.55-.34-1.07-.27-1.55,.19-.53,.69-.9,1.22-1.29,.52-.39,1.07-.8,1.35-1.4,.06-.11,.11-.24,.15-.37,.03-.13,.05-.27,.04-.42,0-.01,0-.03,0-.04,0-.01,0-.03,0-.04-.11-.18-.23-.31-.37-.41-.14-.1-.29-.17-.46-.22-.53-.23-1.14-.22-1.72-.21-.58,0-1.14,.01-1.57-.22-.39-.36-.56-.96-.75-1.59-.18-.63-.38-1.28-.81-1.75-.09-.12-.19-.22-.31-.3-.12-.08-.26-.15-.42-.19,0,0,0,0,0,0,0,0,0,0,0,0,0,0,0,0,0,0,0,0,0,0,0,0-.16,.04-.3,.11-.42,.19-.12,.08-.22,.19-.31,.3-.22,.23-.37,.52-.5,.82"/><path class="cls-2" d="M28.67,25.89c.28,.15,.55,.36,.83,.58,.47,.37,.96,.77,1.52,.92,.16,.06,.32,.1,.49,.1,.17,0,.34-.03,.52-.11,0,0,0,0,0,0,0,0,0,0,0,0,0,0,.02,0,.02,0,0,0,.02,0,.02,0,.14-.18,.23-.37,.28-.56,.05-.2,.05-.4,.03-.6,0-.57-.19-1.14-.37-1.69-.18-.55-.34-1.07-.27-1.55,.19-.53,.69-.9,1.22-1.29,.52-.39,1.07-.8,1.35-1.4,.06-.11,.11-.24,.15-.37,.03-.13,.05-.27,.04-.42,0-.01,0-.03,0-.04,0-.01,0-.03,0-.04-.11-.18-.23-.31-.37-.41-.14-.1-.29-.17-.46-.22-.53-.23-1.14-.22-1.72-.21-.58,0-1.14,.01-1.57-.22-.39-.36-.56-.96-.75-1.59-.18-.63-.38-1.28-.81-1.75-.09-.12-.19-.22-.31-.3-.12-.08-.26-.15-.42-.19,0,0,0,0,0,0,0,0,0,0,0,0,0,0,0,0,0,0,0,0,0,0,0,0-.16,.04-.3,.11-.42,.19-.12,.08-.22,.19-.31,.3-.22,.23-.37,.52-.5,.82"/><path class="cls-1" d="M21.17,27.52h0c1.16,.04,2.03,1.02,2.03,2.18v5.9c.4-.38,.95-.61,1.54-.59h0c1.05,.04,1.9,.86,2.02,1.88,.4-.52,1.04-.84,1.74-.81h0c1.05,.04,1.9,.86,2.02,1.88,.4-.52,1.04-.84,1.74-.81h0c1.16,.04,2.13,1.03,2.03,2.18l-.76,8.48c-.38,4.19-4.1,5.77-7.78,5.81-2.38,.03-4.75,.04-6.19-2.37l-6.36-10.39c-.59-.99-.27-2.29,.73-2.89,1.15,.04,3.04,.99,3.64,1.99l1.2,2.01,.24-12.43c.02-1.16,1.02-2.07,2.18-2.03h0Z"/></g></g></g></svg>