<?xml version="1.0" encoding="UTF-8"?><svg id="_レイヤー_2" xmlns="http://www.w3.org/2000/svg" xmlns:xlink="http://www.w3.org/1999/xlink" viewBox="0 0 65.04 53.9"><defs><style>.cls-1{stroke:url(#_新規グラデーションスウォッチ_1-5);stroke-width:2px;}.cls-1,.cls-2,.cls-3,.cls-4,.cls-5{fill:none;}.cls-1,.cls-4{stroke-linecap:round;stroke-linejoin:round;}.cls-2{stroke:url(#_新規グラデーションスウォッチ_1-3);}.cls-2,.cls-3,.cls-4,.cls-5{stroke-width:1.8px;}.cls-2,.cls-3,.cls-5{stroke-miterlimit:10;}.cls-3{stroke:url(#_新規グラデーションスウォッチ_1-2);}.cls-4{stroke:url(#_新規グラデーションスウォッチ_1-4);}.cls-5{stroke:url(#_新規グラデーションスウォッチ_1);}</style><linearGradient id="_新規グラデーションスウォッチ_1" x1="7.12" y1="28.89" x2="30.23" y2="28.89" gradientUnits="userSpaceOnUse"><stop offset="0" stop-color="#0d76a3"/><stop offset="0" stop-color="#0d74a2"/><stop offset=".18" stop-color="#10548a"/><stop offset=".37" stop-color="#133b78"/><stop offset=".56" stop-color="#152a6b"/><stop offset=".76" stop-color="#161f63"/><stop offset="1" stop-color="#171c61"/></linearGradient><linearGradient id="_新規グラデーションスウォッチ_1-2" x1="13.81" x2="23.55" xlink:href="#_新規グラデーションスウォッチ_1"/><linearGradient id="_新規グラデーションスウォッチ_1-3" x1="8.02" y1="28.89" x2="29.33" y2="28.89" xlink:href="#_新規グラデーションスウォッチ_1"/><linearGradient id="_新規グラデーションスウォッチ_1-4" x1="0" y1="32.05" x2="41.85" y2="32.05" xlink:href="#_新規グラデーションスウォッチ_1"/><linearGradient id="_新規グラデーションスウォッチ_1-5" x1="37.05" y1="14.82" x2="65.04" y2="14.82" xlink:href="#_新規グラデーションスウォッチ_1"/></defs><g id="_レイヤー_1-2"><g><g><g><path class="cls-5" d="M29.33,28.89c0,5.89-4.77,10.66-10.66,10.66s-10.66-4.77-10.66-10.66,4.77-10.66,10.66-10.66,10.66,4.77,10.66,10.66Z"/><path class="cls-3" d="M22.65,28.89c0,5.89-1.78,10.66-3.97,10.66s-3.97-4.77-3.97-10.66,1.78-10.66,3.97-10.66,3.97,4.77,3.97,10.66Z"/><line class="cls-2" x1="8.02" y1="28.89" x2="29.33" y2="28.89"/></g><path class="cls-4" d="M6.89,53v-8.46c0-1.45-.59-2.82-1.55-3.9C2.2,37.06,.46,32.24,1,27c.85-8.21,7.47-14.89,15.68-15.79,10.73-1.18,19.8,7.19,19.8,17.68,0,.37-.01,.74-.04,1.11-.03,.53,.05,1.06,.29,1.54l4.07,8.23c.4,.82-.07,1.8-.96,1.99l-2.54,.56c-.61,.13-1.07,.65-1.13,1.27l-.59,5.97c-.19,1.94-1.83,3.43-3.78,3.43h-7.6c-3.05,0-5.52-2.47-5.52-5.52v-.8"/></g><path class="cls-1" d="M48.39,9.39c1.4-2.58,5.32-2.75,5.32,.81,0,2.43-3.01,2.28-3.01,5.22m0,3.5c-.01,.13-.02,.27-.02,.42m-8.63,9.3c2.64-1.44,3.45-1.97,4.9-3.44,1.29,.41,2.67,.63,4.1,.63,7.18,0,13-5.56,13-12.42,0-6.86-5.82-12.41-13-12.41-7.18,0-13,5.56-13,12.41,0,3.5,1.52,6.67,3.97,8.93l.03,6.3"/></g></g></svg>