<?xml version="1.0" encoding="UTF-8"?><svg id="_レイヤー_2" xmlns="http://www.w3.org/2000/svg" xmlns:xlink="http://www.w3.org/1999/xlink" viewBox="0 0 65.45 65.24"><defs><style>.cls-1{stroke:url(#_新規グラデーションスウォッチ_1-3);}.cls-1,.cls-2,.cls-3,.cls-4,.cls-5{fill:none;stroke-linecap:round;stroke-linejoin:round;stroke-width:2px;}.cls-2{stroke:url(#_新規グラデーションスウォッチ_1-4);}.cls-3{stroke:url(#_新規グラデーションスウォッチ_1-2);}.cls-4{stroke:url(#_新規グラデーションスウォッチ_1-5);}.cls-5{stroke:url(#_新規グラデーションスウォッチ_1);}</style><linearGradient id="_新規グラデーションスウォッチ_1" x1="4.73" y1="37.51" x2="26.86" y2="37.51" gradientUnits="userSpaceOnUse"><stop offset="0" stop-color="#0d76a3"/><stop offset="0" stop-color="#0d74a2"/><stop offset=".18" stop-color="#10548a"/><stop offset=".37" stop-color="#133b78"/><stop offset=".56" stop-color="#152a6b"/><stop offset=".76" stop-color="#161f63"/><stop offset="1" stop-color="#171c61"/></linearGradient><linearGradient id="_新規グラデーションスウォッチ_1-2" x1="30.45" y1="37.05" x2="46.94" y2="37.05" xlink:href="#_新規グラデーションスウォッチ_1"/><linearGradient id="_新規グラデーションスウォッチ_1-3" x1="0" y1="34.79" x2="52.95" y2="34.79" xlink:href="#_新規グラデーションスウォッチ_1"/><linearGradient id="_新規グラデーションスウォッチ_1-4" x1="37.13" y1="12.8" x2="53.61" y2="12.8" xlink:href="#_新規グラデーションスウォッチ_1"/><linearGradient id="_新規グラデーションスウォッチ_1-5" x1="6.7" y1="22.6" x2="65.45" y2="22.6" xlink:href="#_新規グラデーションスウォッチ_1"/></defs><g id="_レイヤー_1-2"><g><path class="cls-5" d="M15.81,27.31s-.01,0-.02,0c0,0-.01,0-.02,0-.51,.13-.87,.41-1.15,.78-1.35,1.45-1.22,4.1-2.44,5.23-1.35,.74-3.5-.04-5.15,.67-.51,.15-.96,.45-1.29,1,0,.04,0,.09,0,.13-.02,.48,.09,.88,.29,1.24,.87,1.89,3.43,2.56,4.02,4.22,.21,1.5-1,3.3-1,5.08-.07,.64,.04,1.26,.49,1.83,.02,0,.05,.02,.07,.02,0,0,0,.01,.01,.02,.57,.24,1.09,.2,1.59,.01,1.75-.48,3.06-2.48,4.59-2.65,1.53,.17,2.84,2.17,4.59,2.65,.5,.19,1.02,.23,1.59-.01,0,0,0-.01,.01-.02,.02,0,.05-.01,.07-.02,.45-.57,.55-1.19,.49-1.83,0-1.78-1.21-3.58-1-5.08,.6-1.65,3.15-2.33,4.02-4.22,.2-.36,.31-.76,.29-1.24,0-.04,0-.09,0-.13-.33-.55-.78-.85-1.29-1-1.66-.71-3.81,.07-5.15-.67-1.22-1.13-1.09-3.78-2.44-5.23-.28-.36-.65-.64-1.15-.78h0Z"/><path class="cls-3" d="M31.45,31.24h14.47m-14.47,5.81h14.49m-14.49,5.81h8.19"/><path class="cls-1" d="M51.95,29.52c0-3.39-2.78-6.17-6.17-6.17H7.17c-3.39,0-6.17,2.78-6.17,6.17v17.21c0,3.39,2.78,6.17,6.17,6.17h6.17v11.33l11.83-11.33h20.62c3.39,0,6.17-2.78,6.17-6.17V29.52h0Zm-23.72-10.91c.6-1.65,3.15-2.33,4.02-4.22,.2-.36,.31-.76,.29-1.24,0-.04,0-.09,0-.13-.33-.55-.78-.85-1.29-1-1.66-.71-3.81,.07-5.15-.67-1.22-1.13-1.09-3.78-2.44-5.23-.28-.37-.65-.64-1.15-.78,0,0-.01,0-.02,0,0,0-.01,0-.02,0-.51,.13-.87,.41-1.15,.78-1.35,1.45-1.22,4.1-2.44,5.23-1.35,.74-3.5-.04-5.15,.67-.51,.15-.96,.45-1.29,1,0,.04,0,.09,0,.13-.02,.48,.09,.88,.29,1.24,.87,1.89,3.43,2.57,4.02,4.22"/><path class="cls-2" d="M38.13,9.9h14.47m-14.47,5.81h14.49"/><path class="cls-4" d="M56.21,29.29c1.48-1.13,2.44-2.91,2.44-4.91V7.17c0-3.39-2.78-6.17-6.17-6.17H13.87c-3.39,0-6.17,2.78-6.17,6.17v11.21m54.74-2.1c1.23,1.13,2.01,2.75,2.01,4.55v17.21c0,3.39-2.78,6.17-6.17,6.17h-1.7"/></g></g></svg>