<?xml version="1.0" encoding="UTF-8"?><svg id="_レイヤー_2" xmlns="http://www.w3.org/2000/svg" xmlns:xlink="http://www.w3.org/1999/xlink" viewBox="0 0 62.07 62.61"><defs><style>.cls-1{fill:none;stroke:url(#_新規グラデーションスウォッチ_1);stroke-linecap:round;stroke-linejoin:round;stroke-width:2px;}</style><linearGradient id="_新規グラデーションスウォッチ_1" x1="0" y1="31.31" x2="62.07" y2="31.31" gradientUnits="userSpaceOnUse"><stop offset="0" stop-color="#0d76a3"/><stop offset="0" stop-color="#0d74a2"/><stop offset=".18" stop-color="#10548a"/><stop offset=".37" stop-color="#133b78"/><stop offset=".56" stop-color="#152a6b"/><stop offset=".76" stop-color="#161f63"/><stop offset="1" stop-color="#171c61"/></linearGradient></defs><g id="_レイヤー_1-2"><path class="cls-1" d="M16.07,32.76c-1.15-1.19-1.95-2.68-2.22-4.33-.82,.34-1.74,.52-2.69,.52-3.48,0-6.34-2.46-6.7-5.61-2.06-1.07-3.46-3.13-3.46-5.48,0-3.47,3.02-6.28,6.74-6.28,.09,0,.18,0,.27,0-.31-.62-.48-1.3-.48-2.03,0-2.67,2.32-4.84,5.19-4.84,.68,0,1.33,.12,1.93,.35,1.52-2.4,4.32-4.01,7.53-4.01,1.86,0,3.58,.54,4.99,1.46,.93-.93,2.27-1.51,3.74-1.51,1.57,0,2.98,.66,3.92,1.7,1.03-.44,2.17-.68,3.38-.68,2.22,0,4.24,.83,5.7,2.18,.48-.14,.99-.21,1.52-.21,2.79,0,5.06,2.04,5.19,4.61,.28-.04,.56-.07,.86-.07,2.83,0,5.12,2.14,5.12,4.77,0,.26-.02,.52-.07,.77,2.63,.85,4.53,3.19,4.53,5.93,0,1.32-.44,2.55-1.19,3.57,.29,.8,.45,1.66,.45,2.55,0,4.38-3.81,7.94-8.52,7.94-.11,0-.22,0-.32,0,.02,.17,0,.35,.03,.53,.32,2.46-1.48,4.62-3.57,4.62-1.93,0-2.3-1.22-3.79-.53-4.6,2.11-7.72,1.28-11.63-2.03m27.05-12.95c-.98,.81-2.27,1.3-3.68,1.3-3.06,0-5.55-2.31-5.55-5.17m.62-2.42c0,2.6-2.26,4.7-5.05,4.7-1.05,0-2.03-.3-2.84-.81m13.66,11.24c-1.08,.68-2.43,1.02-3.83,.85-3.04-.37-5.18-2.96-4.78-5.79M15.73,20.35c.78,1.06,1.17,2.38,.98,3.76-.4,2.99-3.33,5.11-6.54,4.74m13.73-13.37c-.02,1.22-.49,2.44-1.44,3.41-2.06,2.11-5.57,2.27-7.83,.35m19.31-8.76c.81,.45,1.46,1.17,1.76,2.07,.67,1.96-.5,4.06-2.6,4.69m9.11-6.9c-.77-.51-1.74-.77-2.75-.67-2.2,.22-3.79,2.06-3.55,4.11m-3.7,3.34c.69,1,1,2.23,.78,3.5-.47,2.75-3.24,4.62-6.19,4.18m20.37,2.96c-.93,1.02-2.24,1.74-3.77,1.95-2.11,.28-4.13-.48-5.44-1.87m12.64,10.12c-.8,.66-1.85,1.06-3,1.06-2.49,0-4.52-1.88-4.52-4.21M4.99,24.95c-1.25-1.7-.77-4.02,1.05-5.18m25.86,10c-.91,1.25-2.25,2.15-3.86,2.43-3.49,.61-6.92-1.91-7.66-5.63m11.69,3.36l-8.44,12.48,8.3,.04-14.38,18.26c-.89,1.14-3.72,1.32-3.1-.06l6.18-13.62-6.64,.1,7.55-17.18"/></g></svg>