<?xml version="1.0" encoding="UTF-8"?><svg id="_レイヤー_2" xmlns="http://www.w3.org/2000/svg" xmlns:xlink="http://www.w3.org/1999/xlink" viewBox="0 0 62.47 55.84"><defs><style>.cls-1{stroke:url(#_新規グラデーションスウォッチ_1-7);}.cls-1,.cls-2,.cls-3,.cls-4,.cls-5,.cls-6,.cls-7{fill:none;stroke-linecap:round;stroke-linejoin:round;stroke-width:2px;}.cls-2{stroke:url(#_新規グラデーションスウォッチ_1-6);}.cls-3{stroke:url(#_新規グラデーションスウォッチ_1-3);}.cls-4{stroke:url(#_新規グラデーションスウォッチ_1-4);}.cls-5{stroke:url(#_新規グラデーションスウォッチ_1-2);}.cls-6{stroke:url(#_新規グラデーションスウォッチ_1-5);}.cls-7{stroke:url(#_新規グラデーションスウォッチ_1);}</style><linearGradient id="_新規グラデーションスウォッチ_1" x1="33.94" y1="15.1" x2="62.47" y2="15.1" gradientUnits="userSpaceOnUse"><stop offset="0" stop-color="#0d76a3"/><stop offset="0" stop-color="#0d74a2"/><stop offset=".18" stop-color="#10548a"/><stop offset=".37" stop-color="#133b78"/><stop offset=".56" stop-color="#152a6b"/><stop offset=".76" stop-color="#161f63"/><stop offset="1" stop-color="#171c61"/></linearGradient><linearGradient id="_新規グラデーションスウォッチ_1-2" x1="25.71" y1="48.11" x2="41.23" y2="48.11" xlink:href="#_新規グラデーションスウォッチ_1"/><linearGradient id="_新規グラデーションスウォッチ_1-3" x1="0" y1="31.74" x2="34.25" y2="31.74" xlink:href="#_新規グラデーションスウォッチ_1"/><linearGradient id="_新規グラデーションスウォッチ_1-4" x1="15.96" y1="25.33" x2="31.04" y2="25.33" xlink:href="#_新規グラデーションスウォッチ_1"/><linearGradient id="_新規グラデーションスウォッチ_1-5" x1="15.7" y1="26.07" x2="17.7" y2="26.07" xlink:href="#_新規グラデーションスウォッチ_1"/><linearGradient id="_新規グラデーションスウォッチ_1-6" x1="15.7" y1="39.78" x2="17.7" y2="39.78" xlink:href="#_新規グラデーションスウォッチ_1"/><linearGradient id="_新規グラデーションスウォッチ_1-7" x1="11.46" y1="32.92" x2="21.94" y2="32.92" xlink:href="#_新規グラデーションスウォッチ_1"/></defs><g id="_レイヤー_1-2"><g><path class="cls-7" d="M45.49,9.56c1.42-2.63,5.43-2.8,5.43,.83,0,2.48-3.07,2.33-3.07,5.33m0,3.57c-.01,.13-.02,.27-.02,.42m-8.8,9.49c2.69-1.47,3.52-2.01,5.01-3.51,1.32,.42,2.72,.64,4.19,.64,7.33,0,13.27-5.67,13.27-12.67,0-7-5.94-12.67-13.27-12.67s-13.27,5.67-13.27,12.67c0,3.58,1.55,6.81,4.05,9.11l.03,6.43"/><g><polygon class="cls-5" points="40.23 51.05 36.44 54.84 26.71 45.11 30.56 41.38 40.23 51.05 40.23 51.05"/><path class="cls-3" d="M17.12,15.62c8.9,0,16.12,7.22,16.12,16.12s-7.22,16.12-16.12,16.12S1,40.65,1,31.74,8.22,15.62,17.12,15.62h0Z"/><path class="cls-4" d="M16.96,18.79c7.22,0,13.08,5.86,13.08,13.08"/><line class="cls-6" x1="16.7" y1="24.79" x2="16.7" y2="27.35"/><line class="cls-2" x1="16.7" y1="38.5" x2="16.7" y2="41.05"/><path class="cls-1" d="M20.4,28.68c-1.18-.39-2.24-.76-3.31-.88-5.74-.65-6.48,5.14-.37,5.12,5.94-.02,5.38,5.77-.38,5.12-1.07-.12-2.13-.49-3.3-.88"/></g></g></g></svg>