<?xml version="1.0" encoding="UTF-8"?><svg id="_レイヤー_2" xmlns="http://www.w3.org/2000/svg" xmlns:xlink="http://www.w3.org/1999/xlink" viewBox="0 0 66.3 64.76"><defs><style>.cls-1{stroke:url(#_新規グラデーションスウォッチ_1-7);}.cls-1,.cls-2,.cls-3,.cls-4,.cls-5,.cls-6,.cls-7{fill:none;stroke-linecap:round;stroke-linejoin:round;stroke-width:2px;}.cls-2{stroke:url(#_新規グラデーションスウォッチ_1-6);}.cls-3{stroke:url(#_新規グラデーションスウォッチ_1-3);}.cls-4{stroke:url(#_新規グラデーションスウォッチ_1-4);}.cls-5{stroke:url(#_新規グラデーションスウォッチ_1-2);}.cls-6{stroke:url(#_新規グラデーションスウォッチ_1-5);}.cls-7{stroke:url(#_新規グラデーションスウォッチ_1);}</style><linearGradient id="_新規グラデーションスウォッチ_1" x1="0" y1="53.66" x2="33.56" y2="53.66" gradientUnits="userSpaceOnUse"><stop offset="0" stop-color="#0d76a3"/><stop offset="0" stop-color="#0d74a2"/><stop offset=".18" stop-color="#10548a"/><stop offset=".37" stop-color="#133b78"/><stop offset=".56" stop-color="#152a6b"/><stop offset=".76" stop-color="#161f63"/><stop offset="1" stop-color="#171c61"/></linearGradient><linearGradient id="_新規グラデーションスウォッチ_1-2" x1="2.14" y1="39.56" x2="14.76" y2="39.56" xlink:href="#_新規グラデーションスウォッチ_1"/><linearGradient id="_新規グラデーションスウォッチ_1-3" x1="19.01" y1="33.61" x2="31.62" y2="33.61" xlink:href="#_新規グラデーションスウォッチ_1"/><linearGradient id="_新規グラデーションスウォッチ_1-4" x1="35.88" y1="17.87" x2="48.49" y2="17.87" xlink:href="#_新規グラデーションスウォッチ_1"/><linearGradient id="_新規グラデーションスウォッチ_1-5" x1="30.81" y1="47.01" x2="66.3" y2="47.01" xlink:href="#_新規グラデーションスウォッチ_1"/><linearGradient id="_新規グラデーションスウォッチ_1-6" x1="40.1" y1="46.68" x2="55.9" y2="46.68" xlink:href="#_新規グラデーションスウォッチ_1"/><linearGradient id="_新規グラデーションスウォッチ_1-7" x1="42.02" y1="45.64" x2="55.9" y2="45.64" xlink:href="#_新規グラデーションスウォッチ_1"/></defs><g id="_レイヤー_1-2"><g><line class="cls-7" x1="1" y1="53.66" x2="32.56" y2="53.66"/><polyline class="cls-5" points="3.14 53.27 3.14 25.85 13.76 25.85 13.76 53.27"/><polyline class="cls-3" points="20.01 53.27 20.01 13.96 30.62 13.96 30.62 53.27"/><polyline class="cls-4" points="36.88 34.74 36.88 1 47.49 1 47.49 29.57"/><path class="cls-6" d="M48.55,30.26c-9.25,0-16.75,7.5-16.75,16.75s7.5,16.75,16.75,16.75,16.75-7.5,16.75-16.75-7.5-16.75-16.75-16.75h0Z"/><path class="cls-2" d="M54.9,39.7c-1.29,.53-11.97,12.22-13.79,13.96"/><polyline class="cls-1" points="54.9 51.58 54.9 39.7 43.02 39.7"/></g></g></svg>