<?xml version="1.0" encoding="UTF-8"?><svg id="_レイヤー_2" xmlns="http://www.w3.org/2000/svg" viewBox="0 0 55.26 50"><defs><style>.cls-1{fill:#9dd0df;}.cls-2{fill:#a5a3a5;}.cls-3{fill:#bcdee8;}.cls-4{fill:#63bad2;}</style></defs><g id="_レイヤー_1-2"><g><path class="cls-1" d="M44.47,19.39c0,4.35-3.53,7.88-7.88,7.88s-7.88-3.53-7.88-7.88,3.53-7.88,7.88-7.88,7.88,3.53,7.88,7.88Zm-7.88-3.18c-1.76,0-3.18,1.42-3.18,3.18s1.42,3.18,3.18,3.18,3.18-1.42,3.18-3.18-1.42-3.18-3.18-3.18Z"/><path class="cls-3" d="M51.48,5.7c0,2.7-2.19,4.89-4.89,4.89s-4.89-2.19-4.89-4.89,2.19-4.89,4.89-4.89,4.89,2.19,4.89,4.89Zm-4.89-1.97c-1.09,0-1.97,.88-1.97,1.97s.88,1.97,1.97,1.97,1.97-.88,1.97-1.97-.88-1.97-1.97-1.97Z"/><path class="cls-4" d="M32.34,12.55c0,6.93-5.62,12.55-12.55,12.55S7.24,19.48,7.24,12.55,12.86,0,19.79,0s12.55,5.62,12.55,12.55Zm-12.56-5.06c-2.8,0-5.06,2.27-5.06,5.06s2.27,5.07,5.06,5.07,5.06-2.27,5.06-5.07-2.27-5.06-5.06-5.06Z"/><g><path class="cls-2" d="M5.12,35.93c.63,0,1.14,.17,1.38,.27l.17,.07,.48-1.67-.12-.06c-.42-.2-1.2-.34-1.85-.34-3.05,0-5.18,2.34-5.18,5.68s1.8,5.53,4.81,5.53c.84,0,1.65-.16,2.17-.41l.1-.05-.32-1.58-.17,.06c-.52,.19-.94,.28-1.42,.28-1.78,0-2.84-1.43-2.84-3.82,0-1.97,.86-3.96,2.79-3.96Z"/><path class="cls-2" d="M13.44,40.59c-.17,.61-.31,1.17-.43,1.64,0-.04-.02-.07-.02-.11-.11-.48-.22-.98-.38-1.55l-1.71-6.22h-2.46l3.27,10.02c.04,.11,.04,.22,.04,.34s-.02,.22-.12,.47c-.19,.46-.6,1.18-1.13,1.73-.54,.58-1.16,1.04-1.74,1.3l-.14,.06,.87,1.71,.14-.05c.2-.08,1.28-.54,2.34-1.66,1.56-1.66,2.43-4.33,3.19-6.91l2.14-7.02h-2.33l-1.52,6.24Z"/><path class="cls-2" d="M23.53,34.18c-1.11,0-1.96,.38-2.58,1.16v-5.55h-2.33v12.8c0,.51-.04,1.28-.07,1.89-.01,.25-.03,.48-.03,.65v.16s2.03,0,2.03,0l.11-1.16c.44,.68,1.13,1.34,2.48,1.34,2,0,4.02-1.78,4.02-5.75,0-3.36-1.42-5.53-3.63-5.53Zm1.29,5.62c0,1.48-.27,3.96-2.05,3.96-.55,0-1.31-.31-1.75-1.78-.07-.15-.07-.38-.07-.6v-2.96c0-.24,0-.49,.05-.72,.15-.85,.88-1.76,1.74-1.76,1.87,0,2.08,2.71,2.08,3.87Z"/><path class="cls-2" d="M32.96,34.18c-3.26,0-4.41,3.05-4.41,5.66,0,4.14,2.21,5.62,4.28,5.62s4.39-1.48,4.39-5.64-2.2-5.64-4.26-5.64Zm-.03,9.64c-1.79,0-2.05-2.51-2.05-4,0-1.2,.2-3.98,2-3.98s1.97,2.78,1.97,3.98-.19,4-1.92,4Z"/><path class="cls-2" d="M38.61,36.06h4.46c-.13,.21-.27,.42-.42,.64-.16,.25-.33,.5-.49,.76l-4.02,6.57-.02,.03v1.22h7.59v-1.71h-4.9c.13-.2,.27-.42,.42-.64,.17-.25,.34-.51,.49-.76l3.97-6.47,.02-.04v-1.31h-7.09v1.7Z"/><path class="cls-2" d="M55.26,45.13c0-.26-.02-.54-.04-.83-.03-.59-.07-1.27-.07-2.06v-7.88h-2.33v7.15c0,.38-.03,.68-.1,.94-.09,.44-.57,1.28-1.66,1.28s-1.55-.8-1.55-2.75v-6.63h-2.34v6.87c0,2.89,1.03,4.23,3.26,4.23,1.2,0,2.14-.57,2.67-1.13l.11,.95h2.06v-.16Z"/></g></g></g></svg>