<?xml version="1.0" encoding="UTF-8"?>
<svg id="_レイヤー_2" data-name="レイヤー 2" xmlns="http://www.w3.org/2000/svg" xmlns:xlink="http://www.w3.org/1999/xlink" viewBox="0 0 78.48 78.13">
  <defs>
    <style>
      .cls-1 {
        fill: url(#_新規グラデーションスウォッチ_1);
      }

      .cls-1, .cls-2, .cls-3, .cls-4 {
        stroke-width: 0px;
      }

      .cls-2 {
        fill: url(#_新規グラデーションスウォッチ_1-2);
      }

      .cls-3 {
        fill: url(#_新規グラデーションスウォッチ_1-4);
      }

      .cls-4 {
        fill: url(#_新規グラデーションスウォッチ_1-3);
      }
    </style>
    <linearGradient id="_新規グラデーションスウォッチ_1" data-name="新規グラデーションスウォッチ 1" x1="52.44" y1="16.52" x2="57.79" y2="16.52" gradientUnits="userSpaceOnUse">
      <stop offset="0" stop-color="#0d7695"/>
      <stop offset="0" stop-color="#0d7494"/>
      <stop offset=".18" stop-color="#105481"/>
      <stop offset=".37" stop-color="#133b73"/>
      <stop offset=".56" stop-color="#152a69"/>
      <stop offset=".76" stop-color="#161f62"/>
      <stop offset="1" stop-color="#171c61"/>
    </linearGradient>
    <linearGradient id="_新規グラデーションスウォッチ_1-2" data-name="新規グラデーションスウォッチ 1" x1="15.21" y1="23.59" x2="20.55" y2="23.59" xlink:href="#_新規グラデーションスウォッチ_1"/>
    <linearGradient id="_新規グラデーションスウォッチ_1-3" data-name="新規グラデーションスウォッチ 1" x1="46.51" y1="39.55" x2="51.85" y2="39.55" xlink:href="#_新規グラデーションスウォッチ_1"/>
    <linearGradient id="_新規グラデーションスウォッチ_1-4" data-name="新規グラデーションスウォッチ 1" x1="0" y1="39.06" x2="78.48" y2="39.06" xlink:href="#_新規グラデーションスウォッチ_1"/>
  </defs>
  <g id="_レイヤー_1-2" data-name="レイヤー 1">
    <g>
      <path class="cls-1" d="m54.25,18.46c0-.9.01-1.09.03-1.37.05-.6.26-.97,1-1.74.75-.77.92-1.06.92-1.54,0-.6-.42-.99-1.05-.99-.69,0-1.02.42-1.1,1.4h-1.6c.03-.9.18-1.43.58-1.87.5-.58,1.3-.88,2.27-.88,1.54,0,2.5.88,2.5,2.26,0,.82-.22,1.23-1.26,2.3-.79.82-.86.99-.86,1.95,0,.16,0,.28.01.48h-1.43Zm1.6,1.36v1.75h-1.75v-1.75h1.75Z"/>
      <path class="cls-2" d="m17.02,25.54c0-.9.01-1.09.03-1.37.05-.6.26-.97,1-1.74.75-.77.92-1.06.92-1.54,0-.6-.42-.99-1.05-.99-.69,0-1.02.42-1.1,1.4h-1.6c.03-.9.18-1.43.58-1.87.5-.58,1.3-.88,2.27-.88,1.54,0,2.5.88,2.5,2.26,0,.82-.22,1.23-1.26,2.3-.79.82-.86.99-.86,1.95,0,.16,0,.28.01.48h-1.43Zm1.6,1.36v1.75h-1.75v-1.75h1.75Z"/>
      <path class="cls-4" d="m48.31,41.49c0-.9.01-1.09.03-1.37.05-.6.26-.97,1-1.74.75-.77.92-1.06.92-1.54,0-.6-.42-.99-1.05-.99-.69,0-1.02.42-1.1,1.4h-1.6c.03-.9.18-1.43.58-1.87.5-.58,1.3-.88,2.27-.88,1.54,0,2.5.88,2.5,2.26,0,.82-.22,1.23-1.26,2.3-.79.82-.86.99-.86,1.95,0,.16,0,.28.01.48h-1.43Zm1.6,1.36v1.75h-1.75v-1.75h1.75Z"/>
      <path class="cls-3" d="m78.25,15.66l-6.65-7.95c-.19-.23-.48-.36-.78-.36h-31.43s0,0,0,0h-1.41v-3.47c0-2.14-1.74-3.88-3.88-3.88h-1.19c-2.14,0-3.88,1.74-3.88,3.88v10.75H7.67c-.3,0-.59.13-.78.36L.24,22.94c-.32.38-.32.93,0,1.31l6.65,7.95c.19.23.48.36.78.36h17.51s3.83,0,3.83,0v41.69c0,2.14,1.74,3.88,3.88,3.88h1.19c2.14,0,3.88-1.74,3.88-3.88v-25.73h20.09c.3,0,.59-.13.78-.36l6.65-7.95c.32-.38.32-.93,0-1.31l-6.65-7.95c-.19-.23-.48-.36-.78-.36h-20.09v-5.31h1.38s.03,0,.04,0h31.43c.3,0,.59-.13.78-.36l6.65-7.95c.32-.38.32-.93,0-1.31Zm-49.23,14.87H8.15l-5.8-6.93,5.8-6.93h20.87v13.86Zm6.91,43.72c0,1-.84,1.84-1.84,1.84h-1.19c-1.02,0-1.84-.83-1.84-1.84V3.88c0-1,.84-1.84,1.84-1.84h1.19c1.02,0,1.84.83,1.84,1.84v70.37Zm3.46-41.63h18.2l5.8,6.93-5.8,6.93h-19.62v-13.86h1.42Zm30.95-9.37h-28.64s-3.73,0-3.73,0v-13.86h3.73s28.64,0,28.64,0l5.8,6.93-5.8,6.93Z"/>
    </g>
  </g>
</svg>