<?xml version="1.0" encoding="UTF-8"?>
<svg id="_レイヤー_2" data-name="レイヤー 2" xmlns="http://www.w3.org/2000/svg" xmlns:xlink="http://www.w3.org/1999/xlink" viewBox="0 0 88.39 84.14">
  <defs>
    <style>
      .cls-1 {
        fill: url(#_新規グラデーションスウォッチ_1);
      }

      .cls-1, .cls-2, .cls-3, .cls-4, .cls-5 {
        stroke-width: 0px;
      }

      .cls-2 {
        fill: url(#_新規グラデーションスウォッチ_1-2);
      }

      .cls-3 {
        fill: url(#_新規グラデーションスウォッチ_1-4);
      }

      .cls-4 {
        fill: url(#_新規グラデーションスウォッチ_1-3);
      }

      .cls-5 {
        fill: #fff;
      }
    </style>
    <linearGradient id="_新規グラデーションスウォッチ_1" data-name="新規グラデーションスウォッチ 1" x1="57.32" y1="9.88" x2="86.34" y2="9.88" gradientUnits="userSpaceOnUse">
      <stop offset="0" stop-color="#0d7695"/>
      <stop offset="0" stop-color="#0d7494"/>
      <stop offset=".18" stop-color="#105481"/>
      <stop offset=".37" stop-color="#133b73"/>
      <stop offset=".56" stop-color="#152a69"/>
      <stop offset=".76" stop-color="#161f62"/>
      <stop offset="1" stop-color="#171c61"/>
    </linearGradient>
    <linearGradient id="_新規グラデーションスウォッチ_1-2" data-name="新規グラデーションスウォッチ 1" x1="0" y1="42.29" x2="86.34" y2="42.29" xlink:href="#_新規グラデーションスウォッチ_1"/>
    <linearGradient id="_新規グラデーションスウォッチ_1-3" data-name="新規グラデーションスウォッチ 1" x1="27.04" y1="7.61" x2="41.41" y2="7.61" xlink:href="#_新規グラデーションスウォッチ_1"/>
    <linearGradient id="_新規グラデーションスウォッチ_1-4" data-name="新規グラデーションスウォッチ 1" x1="3.05" y1="47.09" x2="59.68" y2="47.09" xlink:href="#_新規グラデーションスウォッチ_1"/>
  </defs>
  <g id="_レイヤー_1-2" data-name="レイヤー 1">
    <g>
      <path class="cls-1" d="m85.46,19.77c-.08,0-.17-.01-.25-.04l-26.44-7.91c-.86-.26-1.44-1.04-1.44-1.94s.58-1.68,1.44-1.94L85.21.04c.47-.14.95.13,1.09.59s-.12.95-.59,1.09l-26.44,7.91c-.12.04-.19.12-.19.25s.06.22.19.25l26.44,7.91c.47.14.73.63.59,1.09-.11.38-.46.63-.84.63Z"/>
      <g>
        <path class="cls-5" d="m85.46,66.13c-1.62,0-2.93-1.31-2.93-2.93V10.74c0-1.62,1.31-2.93,2.93-2.93s2.93,1.31,2.93,2.93v52.45c0,1.62-1.31,2.93-2.93,2.93Z"/>
        <path class="cls-2" d="m29.4,84.14H.88c-.49,0-.88-.39-.88-.88s.39-.88.88-.88h27.64v-9.15c0-.49.39-.88.88-.88h27.64v-9.15c0-.49.39-.88.88-.88h26.67V1.31c0-.49.39-.88.88-.88s.88.39.88.88v61.89c0,.49-.39.88-.88.88h-26.67v9.15c0,.49-.39.88-.88.88h-27.64v9.15c0,.49-.39.88-.88.88Z"/>
        <g>
          <path class="cls-4" d="m34.23,14.79c-3.96,0-7.18-3.22-7.18-7.18S30.27.43,34.23.43s7.18,3.22,7.18,7.18-3.22,7.18-7.18,7.18Zm0-12.6c-2.99,0-5.42,2.43-5.42,5.42s2.43,5.42,5.42,5.42,5.42-2.43,5.42-5.42-2.43-5.42-5.42-5.42Z"/>
          <path class="cls-3" d="m14.18,77.28c-.54,0-1.07-.1-1.59-.29-2.31-.87-3.48-3.47-2.6-5.78l13.08-45.34h-5.66l-5.99,10.58c-.79,1.4-2.29,2.27-3.9,2.27-.77,0-1.53-.2-2.2-.58-1.04-.59-1.79-1.55-2.11-2.7-.32-1.15-.17-2.36.42-3.4l7.27-12.86c.8-1.4,2.29-2.27,3.9-2.27h16.3c2.81,0,5.49,1.33,7.19,3.57l6.89,9.06,9.07-1.95c1.29-.27,2.63.03,3.68.83,1.04.8,1.67,2.01,1.74,3.32.12,2.17-1.49,4.17-3.74,4.65l-11.65,2.51c-1.65.35-3.48-.31-4.51-1.67l-4.95-6.55-4.46,12.85,10.98.68c.07,0,.15.02.22.04.68.22,1.58.8,1.98,2.26l4.38,14.97c.8,2.29-.44,4.85-2.77,5.66-.48.17-.97.25-1.47.25-1.9,0-3.6-1.21-4.23-3.01l-4.15-10.81-9.17-.19-7.76,21c-.43,1.13-1.26,2.01-2.35,2.5-.59.27-1.21.4-1.84.4Zm2.72-53.17h7.34c.28,0,.54.13.7.35.17.22.22.51.14.77l-13.43,46.53c-.55,1.47.16,3.05,1.56,3.58.68.26,1.42.23,2.08-.06.66-.3,1.17-.84,1.43-1.52l7.97-21.58c.13-.35.49-.57.84-.57l10.39.22c.36,0,.67.23.8.56l4.37,11.39c.39,1.12,1.42,1.85,2.58,1.85.31,0,.61-.05.9-.15,1.42-.49,2.17-2.05,1.68-3.47l-4.4-15.03c-.2-.73-.55-.96-.74-1.04l-12.01-.74c-.27-.02-.52-.16-.68-.39-.15-.23-.19-.52-.1-.78l5.38-15.5c.11-.31.37-.53.69-.58.32-.05.64.08.84.34l5.94,7.86c.63.82,1.75,1.22,2.74,1.01l11.65-2.51c1.41-.3,2.42-1.52,2.35-2.84-.04-.81-.42-1.53-1.06-2.02-.64-.49-1.45-.68-2.24-.51l-9.61,2.07c-.34.07-.68-.06-.89-.33l-7.22-9.5c-1.37-1.8-3.53-2.87-5.79-2.87H14.8c-.98,0-1.89.53-2.37,1.38l-7.27,12.85c-.36.63-.45,1.37-.25,2.07.19.7.65,1.28,1.28,1.64,1.27.72,2.99.23,3.71-1.03l6.24-11.03c.16-.28.45-.45.77-.45Z"/>
        </g>
      </g>
    </g>
  </g>
</svg>