<?xml version="1.0" encoding="UTF-8"?>
<svg id="_レイヤー_2" data-name="レイヤー 2" xmlns="http://www.w3.org/2000/svg" xmlns:xlink="http://www.w3.org/1999/xlink" viewBox="0 0 80.26 67.49">
  <defs>
    <style>
      .cls-1 {
        fill: url(#_新規グラデーションスウォッチ_1);
      }

      .cls-1, .cls-2, .cls-3, .cls-4, .cls-5, .cls-6, .cls-7, .cls-8, .cls-9, .cls-10 {
        stroke-width: 0px;
      }

      .cls-2 {
        fill: url(#_新規グラデーションスウォッチ_1-9);
      }

      .cls-3 {
        fill: url(#_新規グラデーションスウォッチ_1-2);
      }

      .cls-4 {
        fill: url(#_新規グラデーションスウォッチ_1-4);
      }

      .cls-5 {
        fill: url(#_新規グラデーションスウォッチ_1-3);
      }

      .cls-6 {
        fill: url(#_新規グラデーションスウォッチ_1-8);
      }

      .cls-7 {
        fill: url(#_新規グラデーションスウォッチ_1-7);
      }

      .cls-8 {
        fill: url(#_新規グラデーションスウォッチ_1-5);
      }

      .cls-9 {
        fill: url(#_新規グラデーションスウォッチ_1-6);
      }

      .cls-10 {
        fill: #fff;
      }
    </style>
    <linearGradient id="_新規グラデーションスウォッチ_1" data-name="新規グラデーションスウォッチ 1" x1="16.34" y1="18.39" x2="80.26" y2="18.39" gradientUnits="userSpaceOnUse">
      <stop offset="0" stop-color="#0d7695"/>
      <stop offset="0" stop-color="#0d7494"/>
      <stop offset=".18" stop-color="#105481"/>
      <stop offset=".37" stop-color="#133b73"/>
      <stop offset=".56" stop-color="#152a69"/>
      <stop offset=".76" stop-color="#161f62"/>
      <stop offset="1" stop-color="#171c61"/>
    </linearGradient>
    <linearGradient id="_新規グラデーションスウォッチ_1-2" data-name="新規グラデーションスウォッチ 1" x1="11.19" y1="8.36" x2="23.29" y2="8.36" xlink:href="#_新規グラデーションスウォッチ_1"/>
    <linearGradient id="_新規グラデーションスウォッチ_1-3" data-name="新規グラデーションスウォッチ 1" x1="2.32" y1="41.77" x2="45.68" y2="41.77" xlink:href="#_新規グラデーションスウォッチ_1"/>
    <linearGradient id="_新規グラデーションスウォッチ_1-4" data-name="新規グラデーションスウォッチ 1" x1="8" y1="34.4" x2="11.1" y2="34.4" xlink:href="#_新規グラデーションスウォッチ_1"/>
    <linearGradient id="_新規グラデーションスウォッチ_1-5" data-name="新規グラデーションスウォッチ 1" x1="36.48" y1="44.93" x2="48.28" y2="44.93" xlink:href="#_新規グラデーションスウォッチ_1"/>
    <linearGradient id="_新規グラデーションスウォッチ_1-6" data-name="新規グラデーションスウォッチ 1" x1="29.14" y1="59.92" x2="55.6" y2="59.92" xlink:href="#_新規グラデーションスウォッチ_1"/>
    <linearGradient id="_新規グラデーションスウォッチ_1-7" data-name="新規グラデーションスウォッチ 1" x1="61.14" y1="44.93" x2="72.94" y2="44.93" xlink:href="#_新規グラデーションスウォッチ_1"/>
    <linearGradient id="_新規グラデーションスウォッチ_1-8" data-name="新規グラデーションスウォッチ 1" x1="53.8" y1="59.92" y2="59.92" xlink:href="#_新規グラデーションスウォッチ_1"/>
    <linearGradient id="_新規グラデーションスウォッチ_1-9" data-name="新規グラデーションスウォッチ 1" x1="53.07" y1="18.06" x2="64.39" y2="18.06" xlink:href="#_新規グラデーションスウォッチ_1"/>
  </defs>
  <g id="_レイヤー_1-2" data-name="レイヤー 1">
    <g>
      <g>
        <path class="cls-1" d="m79.36,34.47H17.24c-.5,0-.9-.4-.9-.9V3.22c0-.5.4-.9.9-.9h62.11c.5,0,.9.4.9.9v30.35c0,.5-.4.9-.9.9Zm-61.21-1.8h60.31V4.12H18.14v28.55Z"/>
        <g>
          <g>
            <g>
              <path class="cls-10" d="m17.24,13.51c-2.84,0-5.15-2.31-5.15-5.15s2.31-5.15,5.15-5.15,5.15,2.31,5.15,5.15-2.31,5.15-5.15,5.15Z"/>
              <path class="cls-10" d="m17.24,16.73c-4.61,0-8.36-3.75-8.36-8.36S12.63,0,17.24,0s8.36,3.75,8.36,8.36-3.75,8.36-8.36,8.36Zm0-10.29c-1.06,0-1.93.87-1.93,1.93s.87,1.93,1.93,1.93,1.93-.87,1.93-1.93-.87-1.93-1.93-1.93Z"/>
            </g>
            <g>
              <path class="cls-10" d="m11.76,64.27l-1.56-21.08c-.09,0-.18-.02-.27-.03-2.04-.3-5.38-1.94-5.55-3.82l-1.16-15.56c0-.13,0-.22,0-.27,0-3.1,2.44-5.68,5.44-5.75h36.12c0,2.77-2.28,5.52-5.05,5.52h-13.95"/>
              <path class="cls-10" d="m11.75,67.49c-1.67,0-3.08-1.29-3.21-2.98l-1.39-18.78c-2.6-.95-5.71-2.94-5.99-6.1L.01,24.02c-.01-.28-.01-.46,0-.57.03-4.8,3.87-8.79,8.58-8.91h36.2c1.78,0,3.22,1.44,3.22,3.22,0,4.65-3.87,8.74-8.27,8.74h-13.95c-1.78,0-3.22-1.44-3.22-3.22,0-.9.37-1.72.97-2.3h-14.87c-1.17.03-2.23,1.19-2.23,2.54,0,.04,0,.08,0,.12l1.12,15.04c.47.44,1.8,1.14,2.84,1.29,1.57.14,2.89,1.41,3.01,2.98l1.56,21.08c.13,1.77-1.2,3.31-2.97,3.44-.08,0-.16,0-.24,0Z"/>
            </g>
            <g>
              <line class="cls-10" x1="25.78" y1="23.28" x2="22.72" y2="64.27"/>
              <path class="cls-10" d="m22.73,67.49c-.08,0-.16,0-.24,0-1.77-.13-3.1-1.68-2.97-3.45l3.06-40.99c.13-1.77,1.67-3.09,3.45-2.97,1.77.13,3.1,1.68,2.97,3.45l-3.06,40.99c-.12,1.69-1.54,2.98-3.2,2.98Z"/>
            </g>
          </g>
          <g>
            <path class="cls-3" d="m17.24,14.41c-3.33,0-6.05-2.71-6.05-6.05s2.71-6.05,6.05-6.05,6.05,2.71,6.05,6.05-2.71,6.05-6.05,6.05Zm0-10.29c-2.34,0-4.25,1.91-4.25,4.25s1.9,4.25,4.25,4.25,4.25-1.91,4.25-4.25-1.9-4.25-4.25-4.25Z"/>
            <g>
              <path class="cls-10" d="m25.78,23.28l-3.07,41.26c-.05.7-.64,1.24-1.34,1.24h-8.25c-.7,0-1.29-.54-1.34-1.24l-1.58-21.34s-.03-.02-.04-.04c-2.88.11-5.5-1.32-5.77-3.81l-1.16-15.56c0-.13,0-.22,0-.27,0-3.1,2.44-5.68,5.44-5.75h36.12c0,2.77-2.28,5.52-5.05,5.52h-13.95"/>
              <path class="cls-5" d="m21.37,66.68h-8.25c-1.17,0-2.15-.91-2.24-2.08l-1.52-20.55c-3.17-.17-5.59-2.02-5.87-4.61l-1.16-15.59c0-.19,0-.31,0-.37,0-3.55,2.83-6.53,6.32-6.62h36.14c.5,0,.9.4.9.9,0,3.42-2.78,6.42-5.96,6.42h-13.11l-3.01,40.42c-.09,1.16-1.07,2.08-2.24,2.08Zm-11.21-24.43c.22,0,.43.08.6.23.18.16.33.41.34.65l1.58,21.34c.02.23.21.41.44.41h8.25c.23,0,.42-.18.44-.41l3.07-41.26c.04-.47.43-.83.9-.83h13.95c1.9,0,3.65-1.68,4.06-3.72H8.66c-2.5.06-4.54,2.24-4.54,4.85,0,.07,0,.13,0,.22l1.16,15.54c.23,2.06,2.6,3.08,4.84,2.98.01,0,.02,0,.04,0Z"/>
            </g>
          </g>
          <path class="cls-4" d="m10.2,44.09c-.47,0-.86-.36-.9-.83l-1.3-17.58c-.04-.5.33-.93.83-.96.49-.04.93.34.96.83l1.3,17.58c.04.5-.33.93-.83.96-.02,0-.04,0-.07,0Z"/>
        </g>
        <g>
          <path class="cls-8" d="m42.38,50.83c-3.25,0-5.9-2.65-5.9-5.9s2.65-5.9,5.9-5.9,5.9,2.65,5.9,5.9-2.65,5.9-5.9,5.9Zm0-10c-2.26,0-4.1,1.84-4.1,4.1s1.84,4.1,4.1,4.1,4.1-1.84,4.1-4.1-1.84-4.1-4.1-4.1Z"/>
          <path class="cls-9" d="m55.6,66.68h-1.8v-7.45c0-2.35-1.92-4.27-4.27-4.27h-14.32c-2.35,0-4.27,1.92-4.27,4.27v7.45h-1.8v-7.45c0-3.35,2.72-6.07,6.07-6.07h14.32c3.35,0,6.07,2.72,6.07,6.07v7.45Z"/>
        </g>
        <g>
          <path class="cls-7" d="m67.04,50.83c-3.25,0-5.9-2.65-5.9-5.9s2.65-5.9,5.9-5.9,5.9,2.65,5.9,5.9-2.65,5.9-5.9,5.9Zm0-10c-2.26,0-4.1,1.84-4.1,4.1s1.84,4.1,4.1,4.1,4.1-1.84,4.1-4.1-1.84-4.1-4.1-4.1Z"/>
          <path class="cls-6" d="m80.26,66.68h-1.8v-7.45c0-2.35-1.92-4.27-4.27-4.27h-14.32c-2.35,0-4.27,1.92-4.27,4.27v7.45h-1.8v-7.45c0-3.35,2.72-6.07,6.07-6.07h14.32c3.35,0,6.07,2.72,6.07,6.07v7.45Z"/>
        </g>
      </g>
      <path class="cls-2" d="m56.9,22.18c0-1.91.03-2.3.06-2.91.11-1.28.56-2.05,2.11-3.69,1.58-1.64,1.94-2.25,1.94-3.27,0-1.28-.89-2.11-2.22-2.11-1.47,0-2.16.89-2.33,2.97h-3.39c.06-1.91.39-3.02,1.22-3.97,1.05-1.22,2.75-1.86,4.8-1.86,3.27,0,5.3,1.86,5.3,4.8,0,1.75-.47,2.61-2.66,4.88-1.66,1.75-1.83,2.11-1.83,4.13,0,.33,0,.58.03,1.03h-3.02Zm3.39,2.89v3.72h-3.72v-3.72h3.72Z"/>
    </g>
  </g>
</svg>