<?xml version="1.0" encoding="UTF-8"?><svg id="_レイヤー_2" xmlns="http://www.w3.org/2000/svg" xmlns:xlink="http://www.w3.org/1999/xlink" viewBox="0 0 64.86 64.37"><defs><style>.cls-1{stroke:url(#_新規グラデーションスウォッチ_1-7);}.cls-1,.cls-2,.cls-3,.cls-4,.cls-5,.cls-6,.cls-7{fill:none;stroke-linecap:round;stroke-linejoin:round;stroke-width:2px;}.cls-2{stroke:url(#_新規グラデーションスウォッチ_1-6);}.cls-3{stroke:url(#_新規グラデーションスウォッチ_1-3);}.cls-4{stroke:url(#_新規グラデーションスウォッチ_1-4);}.cls-5{stroke:url(#_新規グラデーションスウォッチ_1-2);}.cls-6{stroke:url(#_新規グラデーションスウォッチ_1-5);}.cls-7{stroke:url(#_新規グラデーションスウォッチ_1);}</style><linearGradient id="_新規グラデーションスウォッチ_1" x1="15.74" y1="48.45" x2="49.12" y2="48.45" gradientUnits="userSpaceOnUse"><stop offset="0" stop-color="#0d76a3"/><stop offset="0" stop-color="#0d74a2"/><stop offset=".18" stop-color="#10548a"/><stop offset=".37" stop-color="#133b78"/><stop offset=".56" stop-color="#152a6b"/><stop offset=".76" stop-color="#161f63"/><stop offset="1" stop-color="#171c61"/></linearGradient><linearGradient id="_新規グラデーションスウォッチ_1-2" x1="25.69" y1="6.83" x2="39.17" y2="6.83" xlink:href="#_新規グラデーションスウォッチ_1"/><linearGradient id="_新規グラデーションスウォッチ_1-3" x1="19.64" y1="22.98" x2="45.22" y2="22.98" xlink:href="#_新規グラデーションスウォッチ_1"/><linearGradient id="_新規グラデーションスウォッチ_1-4" x1="25.49" y1="25.82" x2="27.49" y2="25.82" xlink:href="#_新規グラデーションスウォッチ_1"/><linearGradient id="_新規グラデーションスウォッチ_1-5" x1="37.37" y1="25.82" x2="39.37" y2="25.82" xlink:href="#_新規グラデーションスウォッチ_1"/><linearGradient id="_新規グラデーションスウォッチ_1-6" x1="0" y1="42.8" x2="24.92" y2="42.8" xlink:href="#_新規グラデーションスウォッチ_1"/><linearGradient id="_新規グラデーションスウォッチ_1-7" x1="39.94" y1="42.8" x2="64.86" y2="42.8" xlink:href="#_新規グラデーションスウォッチ_1"/></defs><g id="_レイヤー_1-2"><g><polygon class="cls-7" points="32.43 33.53 36.94 44.21 48.12 44.93 39.36 52.52 42.13 63.37 32.2 57.38 22.73 63.37 25.36 52.09 16.74 44.93 28.29 43.94 32.43 33.53 32.43 33.53"/><path class="cls-5" d="M26.69,6.36c0,3.71,2.57,6.3,5.74,6.3s5.74-2.59,5.74-6.3c0-7.25-11.47-7.03-11.47,0h0Z"/><path class="cls-3" d="M20.64,29.43h23.59v-7.1c0-3.18-2.61-5.8-5.8-5.8h-11.99c-3.19,0-5.8,2.61-5.8,5.8v7.1h0Z"/><line class="cls-4" x1="26.49" y1="29.15" x2="26.49" y2="22.5"/><line class="cls-6" x1="38.37" y1="22.5" x2="38.37" y2="29.15"/><polyline class="cls-2" points="19.39 53.57 14.08 50.36 6.07 55.43 8.3 45.88 1 39.82 10.77 38.99 14.28 30.18 18.09 39.21 23.92 39.59"/><polyline class="cls-1" points="45.47 53.57 50.78 50.36 58.79 55.43 56.56 45.88 63.86 39.82 54.09 38.99 50.59 30.18 46.77 39.21 40.94 39.59"/></g></g></svg>