<?xml version="1.0" encoding="UTF-8"?><svg id="_レイヤー_2" xmlns="http://www.w3.org/2000/svg" xmlns:xlink="http://www.w3.org/1999/xlink" viewBox="0 0 74.62 65.92"><defs><style>.cls-1,.cls-2,.cls-3,.cls-4{fill:#fff;}.cls-2{stroke:url(#_新規グラデーションスウォッチ_1-16);}.cls-2,.cls-5,.cls-6,.cls-7,.cls-8,.cls-9,.cls-10,.cls-11,.cls-12,.cls-13,.cls-14,.cls-15,.cls-16,.cls-17,.cls-18,.cls-19{stroke-width:1.8px;}.cls-2,.cls-5,.cls-6,.cls-7,.cls-8,.cls-9,.cls-10,.cls-11,.cls-12,.cls-13,.cls-14,.cls-15,.cls-16,.cls-3,.cls-4{stroke-linecap:round;}.cls-2,.cls-5,.cls-6,.cls-7,.cls-8,.cls-9,.cls-10,.cls-11,.cls-12,.cls-13,.cls-16,.cls-3{stroke-linejoin:round;}.cls-5{stroke:url(#_新規グラデーションスウォッチ_1);}.cls-5,.cls-6,.cls-7,.cls-8,.cls-9,.cls-10,.cls-11,.cls-12,.cls-13,.cls-14,.cls-15,.cls-16,.cls-17,.cls-18,.cls-19{fill:none;}.cls-6{stroke:url(#_新規グラデーションスウォッチ_1-9);}.cls-7{stroke:url(#_新規グラデーションスウォッチ_1-7);}.cls-8{stroke:url(#_新規グラデーションスウォッチ_1-8);}.cls-9{stroke:url(#_新規グラデーションスウォッチ_1-3);}.cls-10{stroke:url(#_新規グラデーションスウォッチ_1-4);}.cls-11{stroke:url(#_新規グラデーションスウォッチ_1-6);}.cls-12{stroke:url(#_新規グラデーションスウォッチ_1-2);}.cls-13{stroke:url(#_新規グラデーションスウォッチ_1-5);}.cls-14{stroke:url(#_新規グラデーションスウォッチ_1-12);}.cls-14,.cls-15,.cls-17,.cls-18,.cls-19,.cls-4{stroke-linejoin:bevel;}.cls-15{stroke:url(#_新規グラデーションスウォッチ_1-13);}.cls-16{stroke:url(#_新規グラデーションスウォッチ_1-10);}.cls-17{stroke:url(#_新規グラデーションスウォッチ_1-11);}.cls-18{stroke:url(#_新規グラデーションスウォッチ_1-14);}.cls-19{stroke:url(#_新規グラデーションスウォッチ_1-15);}.cls-3,.cls-4{stroke:#fff;stroke-width:6px;}</style><linearGradient id="_新規グラデーションスウォッチ_1" x1="11.88" y1="10.09" x2="20.52" y2="10.09" gradientUnits="userSpaceOnUse"><stop offset="0" stop-color="#0d76a3"/><stop offset="0" stop-color="#0d74a2"/><stop offset=".18" stop-color="#10548a"/><stop offset=".37" stop-color="#133b78"/><stop offset=".56" stop-color="#152a6b"/><stop offset=".76" stop-color="#161f63"/><stop offset="1" stop-color="#171c61"/></linearGradient><linearGradient id="_新規グラデーションスウォッチ_1-2" x1="31.83" x2="40.47" xlink:href="#_新規グラデーションスウォッチ_1"/><linearGradient id="_新規グラデーションスウォッチ_1-3" x1="27.67" y1="19.02" x2="42.7" y2="19.02" xlink:href="#_新規グラデーションスウォッチ_1"/><linearGradient id="_新規グラデーションスウォッチ_1-4" x1="7.72" y1="19.02" x2="22.75" y2="19.02" xlink:href="#_新規グラデーションスウォッチ_1"/><linearGradient id="_新規グラデーションスウォッチ_1-5" x1="7.72" y1="35.21" x2="22.75" y2="35.21" xlink:href="#_新規グラデーションスウォッチ_1"/><linearGradient id="_新規グラデーションスウォッチ_1-6" y1="26.28" y2="26.28" xlink:href="#_新規グラデーションスウォッチ_1"/><linearGradient id="_新規グラデーションスウォッチ_1-7" x1="14.74" y1="51.28" x2="31.47" y2="51.28" xlink:href="#_新規グラデーションスウォッチ_1"/><linearGradient id="_新規グラデーションスウォッチ_1-8" x1="0" y1="21.32" x2="55.28" y2="21.32" xlink:href="#_新規グラデーションスウォッチ_1"/><linearGradient id="_新規グラデーションスウォッチ_1-9" x1="22.18" y1="46.51" x2="23.98" y2="46.51" xlink:href="#_新規グラデーションスウォッチ_1"/><linearGradient id="_新規グラデーションスウォッチ_1-10" x1="38.97" y1="30.27" x2="55.28" y2="30.27" xlink:href="#_新規グラデーションスウォッチ_1"/><linearGradient id="_新規グラデーションスウォッチ_1-11" x1="30.37" y1="51.88" x2="63.88" y2="51.88" xlink:href="#_新規グラデーションスウォッチ_1"/><linearGradient id="_新規グラデーションスウォッチ_1-12" x1="37.55" y1="55.87" x2="39.35" y2="55.87" xlink:href="#_新規グラデーションスウォッチ_1"/><linearGradient id="_新規グラデーションスウォッチ_1-13" x1="54.91" y1="55.87" x2="56.71" y2="55.87" xlink:href="#_新規グラデーションスウォッチ_1"/><linearGradient id="_新規グラデーションスウォッチ_1-14" x1="37.55" y1="58.33" x2="39.35" y2="58.33" xlink:href="#_新規グラデーションスウォッチ_1"/><linearGradient id="_新規グラデーションスウォッチ_1-15" x1="54.91" y1="58.33" x2="56.71" y2="58.33" xlink:href="#_新規グラデーションスウォッチ_1"/><linearGradient id="_新規グラデーションスウォッチ_1-16" x1="49.56" y1="15.39" x2="72.63" y2="15.39" xlink:href="#_新規グラデーションスウォッチ_1"/></defs><g id="_レイヤー_1-2"><g><g><path class="cls-5" d="M19.62,10.09c0,1.89-1.53,3.42-3.42,3.42s-3.42-1.53-3.42-3.42,1.53-3.42,3.42-3.42,3.42,1.53,3.42,3.42Z"/><g><path class="cls-12" d="M39.57,10.09c0,1.89-1.53,3.42-3.42,3.42s-3.42-1.53-3.42-3.42,1.53-3.42,3.42-3.42,3.42,1.53,3.42,3.42Z"/><path class="cls-9" d="M41.8,17.2h-11.92c-.72,0-1.31,.59-1.31,1.31v2.33"/><path class="cls-10" d="M21.85,17.2H9.93c-.72,0-1.31,.59-1.31,1.31v2.33"/><path class="cls-13" d="M21.85,33.39H9.93c-.72,0-1.31,.59-1.31,1.31v2.33"/></g><path class="cls-11" d="M19.62,26.28c0,1.89-1.53,3.42-3.42,3.42s-3.42-1.53-3.42-3.42,1.53-3.42,3.42-3.42,3.42,1.53,3.42,3.42Z"/><g><g><line class="cls-7" x1="30.57" y1="51.28" x2="15.64" y2="51.28"/><path class="cls-8" d="M37.13,41.74H3.5c-1.43,0-2.6-1.16-2.6-2.6V3.49C.9,2.06,2.06,.9,3.49,.9H51.8c1.43,0,2.59,1.16,2.59,2.59"/></g><line class="cls-6" x1="23.08" y1="41.74" x2="23.08" y2="51.28"/></g><g><g><path class="cls-3" d="M54.38,30.27c0,4.01-3.25,7.25-7.25,7.25s-7.26-3.25-7.26-7.25,3.25-7.25,7.26-7.25,7.25,3.25,7.25,7.25Z"/><path class="cls-4" d="M62.98,62.92v-15.06c0-3.38-2.74-6.13-6.13-6.13h-19.45c-3.38,0-6.13,2.74-6.13,6.13v15.06"/><path class="cls-16" d="M54.38,30.27c0,4.01-3.25,7.25-7.25,7.25s-7.26-3.25-7.26-7.25,3.25-7.25,7.26-7.25,7.25,3.25,7.25,7.25Z"/><path class="cls-17" d="M62.98,62.92v-15.06c0-3.38-2.74-6.13-6.13-6.13h-19.45c-3.38,0-6.13,2.74-6.13,6.13v15.06"/><line class="cls-14" x1="38.45" y1="51.54" x2="38.45" y2="60.19"/><line class="cls-15" x1="55.81" y1="60.19" x2="55.81" y2="51.54"/></g><line class="cls-18" x1="38.45" y1="53.74" x2="38.45" y2="62.92"/><line class="cls-19" x1="55.81" y1="62.92" x2="55.81" y2="53.74"/></g></g><g><g><path class="cls-1" d="M59.16,27.22c-1.25,0-2.27-1.02-2.27-2.27v-4.14h-4.31c-1.96,0-3.56-1.6-3.56-3.56V6.87c0-1.96,1.6-3.56,3.56-3.56h17.04c1.96,0,3.56,1.6,3.56,3.56v10.39c0,1.96-1.6,3.56-3.56,3.56h-3.79l-5,5.67c-.49,.5-1.06,.73-1.66,.73Z"/><path class="cls-1" d="M69.62,4.75c1.16,0,2.12,.95,2.12,2.12v10.39c0,1.16-.95,2.12-2.12,2.12h-4.45l-5.44,6.16c-.17,.17-.37,.24-.57,.24-.42,0-.83-.33-.83-.82v-5.58h-5.76c-1.16,0-2.12-.95-2.12-2.12V6.87c0-1.16,.95-2.12,2.12-2.12h17.04m0-2.89h-17.04c-2.76,0-5.01,2.25-5.01,5.01v10.39c0,2.76,2.25,5.01,5.01,5.01h2.87v2.69c0,2.05,1.67,3.71,3.72,3.71,.99,0,1.92-.39,2.62-1.09,.04-.04,.08-.09,.12-.13l4.57-5.18h3.14c2.76,0,5.01-2.25,5.01-5.01V6.87c0-2.76-2.25-5.01-5.01-5.01h0Z"/></g><path class="cls-2" d="M59.3,26.03l5.87-6.66h4.45c1.16,0,2.12-.95,2.12-2.12V6.87c0-1.16-.95-2.12-2.12-2.12h-17.04c-1.16,0-2.12,.95-2.12,2.12v10.39c0,1.16,.95,2.12,2.12,2.12h5.76"/></g></g></g></svg>