<?xml version="1.0" encoding="UTF-8"?><svg id="_レイヤー_2" xmlns="http://www.w3.org/2000/svg" xmlns:xlink="http://www.w3.org/1999/xlink" viewBox="0 0 64.45 62.51"><defs><style>.cls-1{stroke:url(#_新規グラデーションスウォッチ_1-3);}.cls-1,.cls-2,.cls-3,.cls-4,.cls-5{fill:none;stroke-linecap:round;stroke-linejoin:round;}.cls-1,.cls-2,.cls-3,.cls-5{stroke-width:2px;}.cls-2{stroke:url(#_新規グラデーションスウォッチ_1-4);}.cls-3{stroke:url(#_新規グラデーションスウォッチ_1-2);}.cls-4{stroke:url(#_新規グラデーションスウォッチ_1-5);stroke-width:1.8px;}.cls-5{stroke:url(#_新規グラデーションスウォッチ_1);}.cls-6{fill:url(#_新規グラデーションスウォッチ_1-6);}</style><linearGradient id="_新規グラデーションスウォッチ_1" x1="11.7" y1="47.87" x2="52.74" y2="47.87" gradientUnits="userSpaceOnUse"><stop offset="0" stop-color="#0d76a3"/><stop offset="0" stop-color="#0d74a2"/><stop offset=".18" stop-color="#10548a"/><stop offset=".37" stop-color="#133b78"/><stop offset=".56" stop-color="#152a6b"/><stop offset=".76" stop-color="#161f63"/><stop offset="1" stop-color="#171c61"/></linearGradient><linearGradient id="_新規グラデーションスウォッチ_1-2" x1="1.09" y1="61.51" x2="63.36" y2="61.51" xlink:href="#_新規グラデーションスウォッチ_1"/><linearGradient id="_新規グラデーションスウォッチ_1-3" x1="0" y1="42.95" x2="26.01" y2="42.95" xlink:href="#_新規グラデーションスウォッチ_1"/><linearGradient id="_新規グラデーションスウォッチ_1-4" x1="38.43" y1="42.95" x2="64.45" y2="42.95" xlink:href="#_新規グラデーションスウォッチ_1"/><linearGradient id="_新規グラデーションスウォッチ_1-5" x1="19.73" y1="12.5" x2="44.72" y2="12.5" xlink:href="#_新規グラデーションスウォッチ_1"/><linearGradient id="_新規グラデーションスウォッチ_1-6" x1="29.73" y1="48.37" x2="34.72" y2="48.37" xlink:href="#_新規グラデーションスウォッチ_1"/></defs><g id="_レイヤー_1-2"><g><path class="cls-5" d="M12.7,60.34v-22.99c0-1.06,.87-1.93,1.93-1.93H49.81c1.06,0,1.93,.87,1.93,1.93v22.99"/><line class="cls-3" x1="2.09" y1="61.51" x2="62.36" y2="61.51"/><path class="cls-1" d="M25.01,25.01l-.13,.02c-2.2,1.59-9.01,3.13-10.83,3.51-1.75,.37-3.66,1.21-4.52,3.06L1.25,49.6c-.78,1.69,.43,3.69,1.48,4.59l7.84,6.7"/><path class="cls-2" d="M39.43,25.01l.13,.02c2.2,1.59,9.01,3.13,10.83,3.51,1.75,.37,3.66,1.21,4.52,3.06l8.29,17.99c.78,1.69-.43,3.69-1.48,4.59l-7.84,6.7"/><path class="cls-4" d="M43.82,12.5c0,6.4-5.19,11.6-11.6,11.6s-11.6-5.19-11.6-11.6S25.82,.9,32.22,.9s11.6,5.19,11.6,11.6Z"/><path class="cls-6" d="M34.72,50.25v.54c0,.27-.06,.53-.19,.77-.13,.24-.3,.46-.52,.65s-.48,.34-.78,.45c-.3,.11-.62,.17-.96,.17-.29,0-.59-.03-.89-.1-.3-.07-.57-.18-.82-.35-.24-.16-.44-.38-.6-.63-.16-.26-.23-.59-.23-.99v-4.83c0-.29,.06-.55,.18-.8,.12-.25,.29-.46,.51-.64,.22-.18,.49-.32,.79-.43,.31-.1,.65-.15,1.02-.15,.73,0,1.31,.19,1.77,.58,.22,.19,.4,.41,.52,.67,.13,.26,.19,.54,.19,.84v.49h-1.54v-.42c0-.25-.09-.46-.26-.64-.17-.18-.4-.27-.7-.27-.38,0-.64,.1-.76,.29-.13,.19-.19,.44-.19,.73v4.49c0,.25,.07,.47,.2,.64s.38,.26,.73,.26c.1,0,.21-.01,.32-.04,.12-.03,.22-.08,.32-.14,.09-.07,.17-.16,.23-.27,.06-.11,.09-.26,.09-.43v-.43h1.54Z"/></g></g></svg>