<?xml version="1.0" encoding="UTF-8"?><svg id="_レイヤー_2" xmlns="http://www.w3.org/2000/svg" xmlns:xlink="http://www.w3.org/1999/xlink" viewBox="0 0 56.65 67.41"><defs><style>.cls-1{stroke:url(#_新規グラデーションスウォッチ_1);}.cls-1,.cls-2,.cls-3,.cls-4,.cls-5,.cls-6,.cls-7,.cls-8,.cls-9,.cls-10,.cls-11,.cls-12{fill:none;stroke-width:1.8px;}.cls-1,.cls-2,.cls-3,.cls-4,.cls-5,.cls-6,.cls-7,.cls-8,.cls-9,.cls-10,.cls-11,.cls-12,.cls-13{stroke-linecap:round;stroke-linejoin:round;}.cls-2{stroke:url(#_新規グラデーションスウォッチ_1-9);}.cls-3{stroke:url(#_新規グラデーションスウォッチ_1-7);}.cls-4{stroke:url(#_新規グラデーションスウォッチ_1-8);}.cls-5{stroke:url(#_新規グラデーションスウォッチ_1-3);}.cls-6{stroke:url(#_新規グラデーションスウォッチ_1-4);}.cls-7{stroke:url(#_新規グラデーションスウォッチ_1-6);}.cls-8{stroke:url(#_新規グラデーションスウォッチ_1-2);}.cls-9{stroke:url(#_新規グラデーションスウォッチ_1-5);}.cls-10{stroke:url(#_新規グラデーションスウォッチ_1-10);}.cls-11{stroke:url(#_新規グラデーションスウォッチ_1-12);}.cls-12{stroke:url(#_新規グラデーションスウォッチ_1-11);}.cls-13{fill:#fff;stroke:#fff;stroke-width:6px;}</style><linearGradient id="_新規グラデーションスウォッチ_1" x1="7.46" y1="5.48" x2="18.42" y2="5.48" gradientUnits="userSpaceOnUse"><stop offset="0" stop-color="#0d76a3"/><stop offset="0" stop-color="#0d74a2"/><stop offset=".18" stop-color="#10548a"/><stop offset=".37" stop-color="#133b78"/><stop offset=".56" stop-color="#152a6b"/><stop offset=".76" stop-color="#161f63"/><stop offset="1" stop-color="#171c61"/></linearGradient><linearGradient id="_新規グラデーションスウォッチ_1-2" x1="5.07" y1="28.66" x2="8.03" y2="28.66" xlink:href="#_新規グラデーションスウォッチ_1"/><linearGradient id="_新規グラデーションスウォッチ_1-3" x1="0" y1="35.22" x2="25.88" y2="35.22" xlink:href="#_新規グラデーションスウォッチ_1"/><linearGradient id="_新規グラデーションスウォッチ_1-4" x1="17.85" y1="28.66" x2="20.81" y2="28.66" xlink:href="#_新規グラデーションスウォッチ_1"/><linearGradient id="_新規グラデーションスウォッチ_1-5" x1="38.23" x2="49.19" xlink:href="#_新規グラデーションスウォッチ_1"/><linearGradient id="_新規グラデーションスウォッチ_1-6" x1="35.84" y1="28.66" x2="38.8" y2="28.66" xlink:href="#_新規グラデーションスウォッチ_1"/><linearGradient id="_新規グラデーションスウォッチ_1-7" x1="30.77" y1="35.22" x2="56.65" y2="35.22" xlink:href="#_新規グラデーションスウォッチ_1"/><linearGradient id="_新規グラデーションスウォッチ_1-8" x1="48.62" y1="28.66" x2="51.58" y2="28.66" xlink:href="#_新規グラデーションスウォッチ_1"/><linearGradient id="_新規グラデーションスウォッチ_1-9" x1="22.84" y1="13.3" x2="33.81" y2="13.3" xlink:href="#_新規グラデーションスウォッチ_1"/><linearGradient id="_新規グラデーションスウォッチ_1-10" x1="15.39" y1="43.04" x2="41.26" y2="43.04" xlink:href="#_新規グラデーションスウォッチ_1"/><linearGradient id="_新規グラデーションスウォッチ_1-11" x1="33.23" y1="36.48" x2="36.19" y2="36.48" xlink:href="#_新規グラデーションスウォッチ_1"/><linearGradient id="_新規グラデーションスウォッチ_1-12" x1="20.46" y1="36.48" x2="23.41" y2="36.48" xlink:href="#_新規グラデーションスウォッチ_1"/></defs><g id="_レイヤー_1-2"><g><g><g><g><path class="cls-1" d="M12.94,10.06c2.53,0,4.58-2.06,4.58-4.58S15.46,.9,12.94,.9s-4.58,2.06-4.58,4.58,2.05,4.58,4.58,4.58Z"/><line class="cls-8" x1="7.13" y1="36.49" x2="5.97" y2="20.84"/></g><path class="cls-5" d="M17.34,55.78l1.41-19.3s.02-.02,.04-.04c2.03,.09,4.96-.79,5.16-3.83l1.03-13.66c0-2.75-2.17-5.05-4.86-5.12H5.76c-2.69,.07-4.86,2.36-4.86,5.12l1.03,13.66c.19,3.04,3.12,3.92,5.16,3.83,.02,.01,.02,.02,.04,.04l1.43,19.3c.03,.46,.41,.81,.87,.81h7.04c.46,0,.84-.35,.87-.81Z"/><line class="cls-6" x1="18.75" y1="36.49" x2="19.91" y2="20.84"/></g><g><g><path class="cls-9" d="M43.71,10.06c2.53,0,4.58-2.06,4.58-4.58s-2.06-4.58-4.58-4.58-4.58,2.06-4.58,4.58,2.05,4.58,4.58,4.58Z"/><line class="cls-7" x1="37.9" y1="36.49" x2="36.74" y2="20.84"/></g><path class="cls-3" d="M48.11,55.78l1.41-19.3s.02-.02,.04-.04c2.03,.09,4.96-.79,5.16-3.83l1.03-13.66c0-2.75-2.17-5.05-4.86-5.12h-14.36c-2.69,.07-4.86,2.36-4.86,5.12l1.03,13.66c.19,3.04,3.12,3.92,5.16,3.83,.02,.01,.02,.02,.04,.04l1.43,19.3c.03,.46,.41,.81,.87,.81h7.04c.46,0,.84-.35,.87-.81Z"/><line class="cls-4" x1="49.52" y1="36.49" x2="50.68" y2="20.84"/></g></g><g><g><path class="cls-13" d="M32.73,63.6l1.41-19.3s.02-.02,.04-.04c2.03,.09,4.96-.79,5.16-3.83l1.03-13.66c0-2.75-2.17-5.05-4.86-5.12h-14.36c-2.69,.07-4.86,2.36-4.86,5.12l1.03,13.66c.19,3.04,3.12,3.92,5.16,3.83,.02,.01,.02,.02,.04,.04l1.43,19.3c.03,.46,.41,.81,.87,.81h7.04c.46,0,.84-.35,.87-.81Z"/><path class="cls-13" d="M28.32,17.88c2.53,0,4.58-2.06,4.58-4.58s-2.06-4.58-4.58-4.58-4.58,2.06-4.58,4.58,2.05,4.58,4.58,4.58Z"/></g><g><path class="cls-2" d="M28.32,17.88c2.53,0,4.58-2.06,4.58-4.58s-2.06-4.58-4.58-4.58-4.58,2.06-4.58,4.58,2.05,4.58,4.58,4.58Z"/><path class="cls-10" d="M32.73,63.6l1.41-19.3s.02-.02,.04-.04c2.03,.09,4.96-.79,5.16-3.83l1.03-13.66c0-2.75-2.17-5.05-4.86-5.12h-14.36c-2.69,.07-4.86,2.36-4.86,5.12l1.03,13.66c.19,3.04,3.12,3.92,5.16,3.83,.02,.01,.02,.02,.04,.04l1.43,19.3c.03,.46,.41,.81,.87,.81h7.04c.46,0,.84-.35,.87-.81Z"/><line class="cls-12" x1="34.13" y1="44.3" x2="35.29" y2="28.65"/><line class="cls-11" x1="22.51" y1="44.3" x2="21.36" y2="28.65"/></g></g></g></g></svg>