<?xml version="1.0" encoding="UTF-8"?><svg id="_レイヤー_2" xmlns="http://www.w3.org/2000/svg" xmlns:xlink="http://www.w3.org/1999/xlink" viewBox="0 0 217.74 91.01"><defs><style>.cls-1{fill:#fff;}.cls-2{fill:#333;}.cls-3{fill:url(#_新規グラデーションスウォッチ_1-14);}.cls-4{fill:url(#_新規グラデーションスウォッチ_1-11);}.cls-5{fill:url(#_新規グラデーションスウォッチ_1-16);}.cls-6{fill:url(#_新規グラデーションスウォッチ_1-13);}.cls-7{fill:url(#_新規グラデーションスウォッチ_1-10);}.cls-8{fill:url(#_新規グラデーションスウォッチ_1-12);}.cls-9{fill:url(#_新規グラデーションスウォッチ_1-15);}.cls-10{fill:url(#_新規グラデーションスウォッチ_1);}.cls-11{fill:url(#_新規グラデーションスウォッチ_1-9);}.cls-12{fill:url(#_新規グラデーションスウォッチ_1-6);}.cls-13{fill:url(#_新規グラデーションスウォッチ_1-5);}.cls-14{fill:url(#_新規グラデーションスウォッチ_1-7);}.cls-15{fill:url(#_新規グラデーションスウォッチ_1-8);}.cls-16{fill:url(#_新規グラデーションスウォッチ_1-2);}.cls-17{fill:url(#_新規グラデーションスウォッチ_1-4);}.cls-18{fill:url(#_新規グラデーションスウォッチ_1-3);}</style><linearGradient id="_新規グラデーションスウォッチ_1" x1="22.38" y1="15.75" x2="46.67" y2="15.75" gradientUnits="userSpaceOnUse"><stop offset="0" stop-color="#0d76a3"/><stop offset="0" stop-color="#0d74a2"/><stop offset=".18" stop-color="#10548a"/><stop offset=".37" stop-color="#133b78"/><stop offset=".56" stop-color="#152a6b"/><stop offset=".76" stop-color="#161f63"/><stop offset="1" stop-color="#171c61"/></linearGradient><linearGradient id="_新規グラデーションスウォッチ_1-2" x1="19.7" y1="45.5" x2="85.51" y2="45.5" xlink:href="#_新規グラデーションスウォッチ_1"/><linearGradient id="_新規グラデーションスウォッチ_1-3" x1="19.7" y1="45.5" x2="85.51" y2="45.5" xlink:href="#_新規グラデーションスウォッチ_1"/><linearGradient id="_新規グラデーションスウォッチ_1-4" x1="19.7" y1="45.5" x2="85.51" y2="45.5" xlink:href="#_新規グラデーションスウォッチ_1"/><linearGradient id="_新規グラデーションスウォッチ_1-5" x1="19.7" y1="45.5" x2="85.51" y2="45.5" xlink:href="#_新規グラデーションスウォッチ_1"/><linearGradient id="_新規グラデーションスウォッチ_1-6" x1="165.75" y1="29.87" x2="185.89" y2="29.87" xlink:href="#_新規グラデーションスウォッチ_1"/><linearGradient id="_新規グラデーションスウォッチ_1-7" x1="149.45" y1="37.57" x2="169.6" y2="37.57" xlink:href="#_新規グラデーションスウォッチ_1"/><linearGradient id="_新規グラデーションスウォッチ_1-8" x1="133.9" y1="29.98" x2="154.05" y2="29.98" xlink:href="#_新規グラデーションスウォッチ_1"/><linearGradient id="_新規グラデーションスウォッチ_1-9" x1="139.95" y1="47.34" x2="150.89" y2="47.34" xlink:href="#_新規グラデーションスウォッチ_1"/><linearGradient id="_新規グラデーションスウォッチ_1-10" x1="133.9" y1="63.88" x2="156.94" y2="63.88" xlink:href="#_新規グラデーションスウォッチ_1"/><linearGradient id="_新規グラデーションスウォッチ_1-11" x1="139.86" y1="68.37" x2="141.27" y2="68.37" xlink:href="#_新規グラデーションスウォッチ_1"/><linearGradient id="_新規グラデーションスウォッチ_1-12" x1="168.9" y1="47.34" x2="179.85" y2="47.34" xlink:href="#_新規グラデーションスウォッチ_1"/><linearGradient id="_新規グラデーションスウォッチ_1-13" x1="162.86" y1="63.88" x2="185.89" y2="63.88" xlink:href="#_新規グラデーションスウォッチ_1"/><linearGradient id="_新規グラデーションスウォッチ_1-14" x1="178.52" y1="68.37" x2="179.93" y2="68.37" xlink:href="#_新規グラデーションスウォッチ_1"/><linearGradient id="_新規グラデーションスウォッチ_1-15" x1="154.42" y1="56.15" x2="165.37" y2="56.15" xlink:href="#_新規グラデーションスウォッチ_1"/><linearGradient id="_新規グラデーションスウォッチ_1-16" x1="148.38" y1="68.29" x2="171.42" y2="68.29" xlink:href="#_新規グラデーションスウォッチ_1"/></defs><g id="_レイヤー_1-2"><g><polygon class="cls-1" points="201.73 91.01 0 91.01 16.01 0 217.74 0 201.73 91.01"/><g><g><path d="M22.38,12.23c.01-1.47,.47-2.59,1.36-3.38,.84-.78,1.84-1.17,3-1.17s2.21,.39,3.05,1.18c.85,.79,1.29,1.92,1.32,3.39v7.01c-.03,1.46-.47,2.59-1.32,3.38-.84,.78-1.86,1.18-3.05,1.2-1.16-.01-2.16-.41-3-1.2-.89-.79-1.35-1.91-1.36-3.37v-7.02Zm6.54,.14c-.04-1.59-.77-2.41-2.17-2.44-1.42,.03-2.14,.84-2.16,2.44v6.75c.03,1.61,.75,2.42,2.16,2.43,1.41-.01,2.13-.83,2.17-2.43v-6.75Z"/><path d="M32.53,19.19l5.14-11.39h2.45l-5.2,11.39h4.02v-4.58h2.2v4.58h1.23v2.13h-1.23v2.37h-2.2v-2.36h-6.42v-2.13Z"/><path d="M44.47,21.42h2.2v2.27h-2.2v-2.27Z"/></g><g><path class="cls-10" d="M22.38,12.23c.01-1.47,.47-2.59,1.36-3.38,.84-.78,1.84-1.17,3-1.17s2.21,.39,3.05,1.18c.85,.79,1.29,1.92,1.32,3.39v7.01c-.03,1.46-.47,2.59-1.32,3.38-.84,.78-1.86,1.18-3.05,1.2-1.16-.01-2.16-.41-3-1.2-.89-.79-1.35-1.91-1.36-3.37v-7.02Zm6.54,.14c-.04-1.59-.77-2.41-2.17-2.44-1.42,.03-2.14,.84-2.16,2.44v6.75c.03,1.61,.75,2.42,2.16,2.43,1.41-.01,2.13-.83,2.17-2.43v-6.75Z"/><path class="cls-10" d="M32.53,19.19l5.14-11.39h2.45l-5.2,11.39h4.02v-4.58h2.2v4.58h1.23v2.13h-1.23v2.37h-2.2v-2.36h-6.42v-2.13Z"/><path class="cls-10" d="M44.47,21.42h2.2v2.27h-2.2v-2.27Z"/></g></g><g><g><path class="cls-2" d="M28.14,40.1c-.28,.7-.55,1.39-.87,2.08h5.29c.57,0,.97,0,1.42-.02q-.03,.54-.05,2.66v5.26c0,1.34,.02,2.31,.05,2.95h-1.66v-.82h-9.76v1.05h-1.64c.02-.67,.03-1.64,.03-2.95v-5.49c0-1-.02-2.13-.03-2.66,.43,.02,.84,.02,1.42,.02h3.36c.28-.67,.54-1.37,.7-2.08h-3.38c-.92,0-2.43,.03-3.33,.07v-1.66c.87,.03,2.38,.07,3.33,.07h8.8c1.05,0,2.48-.03,3.33-.07v1.66c-.89-.03-2.31-.07-3.33-.07h-3.7Zm-3.53,3.62h-2.04v6.95h2.04v-6.95Zm4.12,1.39v-1.39h-2.58v1.39h2.58Zm-2.58,1.41v1.36h2.58v-1.36h-2.58Zm0,2.78v1.37h2.58v-1.37h-2.58Zm6.18,1.37v-6.95h-2.08v6.95h2.08Z"/><path class="cls-2" d="M39.82,45.55c.49-.23,.99-.49,1.62-.84l.23,1.52c-.72,.4-1.31,.72-1.86,1,0,.62,0,1.81,.03,3.45v.27c0,.89-.07,1.29-.27,1.56-.38,.52-1.05,.67-2.95,.69-.05-.67-.18-1.27-.37-1.77,.55,.05,.87,.07,1.24,.07,.64,0,.7-.07,.7-.7v-2.78c-.23,.1-.49,.2-.75,.32l-.08,.2c-.05,.12-.12,.18-.22,.18s-.18-.07-.23-.18l-.74-1.61c.84-.29,1.47-.5,2.03-.7v-3.52h-.45c-.45,0-.97,.02-1.32,.03v-1.59c.37,.02,.97,.03,1.32,.03h.45c-.02-1.86-.05-3-.1-3.41l1.79,.12c.15,.02,.25,.08,.25,.17,0,.1-.08,.18-.3,.32-.02,.6-.02,1.69-.03,2.81h.35c.35,0,.95-.02,1.34-.03v1.59c-.37-.02-.89-.03-1.34-.03h-.35v2.85Zm1.79,2.49v-1.56c.94,.03,1.89,.05,2.83,.07,.3-.64,.58-1.27,.8-1.93h-.59c-.87,0-1.97,.03-3.05,.07v-1.56c.97,.03,1.94,.05,2.91,.05-.23-.65-.52-1.27-.87-1.86l.89-.47h-.5c-.55,0-1.49,.02-2.01,.03v-1.57c.5,.03,1.37,.05,2.01,.05h1.84v-.52l-.02-1.09,1.64,.12c.18,.02,.3,.08,.3,.17,0,.1-.08,.2-.32,.33v.99h1.92c.64,0,1.51-.02,1.99-.05v1.57c-.5-.02-1.44-.03-1.99-.03h-.08l.65,.3c.1,.05,.17,.12,.17,.18,0,.12-.08,.17-.45,.23-.47,.84-.72,1.27-.9,1.61,1.04,0,2.09-.02,3.15-.05v1.56c-1.12-.05-2.09-.07-3.35-.07h-2.09l.6,.2c.1,.03,.18,.12,.18,.22,0,.13-.13,.2-.5,.27-.23,.45-.43,.87-.62,1.24h2.43c1.24,0,2.33-.03,3.35-.07v1.56c-.67-.02-1.32-.05-1.99-.05-.38,.77-.84,1.52-1.39,2.21l.23,.1c1.12,.52,1.77,.89,2.9,1.61l-.94,1.36c-.64-.44-1.29-.89-1.98-1.26-.44-.23-.89-.47-1.32-.69-1.37,1.12-3.18,1.71-6.19,1.96-.1-.55-.25-.94-.59-1.51,2.81-.22,4.1-.5,5.19-1.21-.52-.22-1.05-.4-1.59-.57-.15,.27-.32,.52-.49,.79l-1.36-.75c.47-.65,.89-1.34,1.27-2.04l-2.09,.05Zm3.36,.79c.72,.22,1.41,.43,2.11,.72,.45-.47,.82-1,1.12-1.57h-2.78l-.45,.85Zm2.18-5.64c.42-.74,.72-1.54,1.02-2.33h-3.1c.44,.6,.75,1.24,1.04,1.91l-.85,.42h1.89Z"/><path class="cls-2" d="M60.72,42.47c-.45-.03-1.09-.03-1.56-.03-.22,1.49-.54,2.96-1.05,4.39,.87,.77,1.66,1.59,2.59,2.69l-1.21,1.27c-.87-1-1.52-1.74-2.11-2.34-.02,.03-.05,.08-.07,.12-.95,1.76-1.94,2.88-3.65,4.17-.39-.67-.6-.97-.92-1.27,1.61-1.27,2.44-2.23,3.25-3.77,.07-.13,.13-.25,.2-.38-.77-.67-1.56-1.24-2.75-2.03l.9-1.26c.97,.64,1.76,1.19,2.46,1.72,.32-1.09,.54-2.19,.69-3.31h-2.7c-.49,0-1.19,0-1.67,.03v-1.61c.49,.02,1.19,.03,1.67,.03h1.29v-1.47c0-.77,0-.97-.03-1.56l1.66,.1c.2,.02,.3,.08,.3,.18s-.08,.18-.32,.33v2.41h1.34c.49,0,1.19-.02,1.67-.03v1.61Zm1.44,1.92c1.47,1.67,1.54,1.76,2.36,3.23l-1.42,.99c-.45-1.07-1.24-2.33-2.13-3.33l1.19-.89Zm4.85-2.93c.49,0,1.21-.02,1.67-.03v1.61c-.47-.03-1.19-.03-1.67-.03h-.37v4.22c0,.77,.02,1.79,.05,3.85v.17c0,.84-.15,1.25-.6,1.54-.52,.33-1,.4-2.88,.42q-.03-.65-.32-1.77c.65,.05,.97,.07,1.47,.07,.6,0,.67-.07,.67-.7v-7.78h-2.28c-.49,0-1.19,0-1.66,.03v-1.61c.47,.02,1.17,.03,1.66,.03h2.28c-.02-1.94-.05-3.18-.1-3.6l1.79,.12c.15,0,.23,.08,.23,.17,0,.1-.08,.18-.3,.32,0,.52,0,.57-.02,3h.37Z"/><path class="cls-2" d="M82.6,45.45c.49,0,.84,0,1.21-.02-.03,.3-.05,.87-.05,1.36v.62c0,.22,0,.42,.02,.6l.02,.28c0,.95-.67,1.32-2.33,1.32h-.07c.97,.69,2.06,1.16,4.12,1.84-.43,.52-.62,.79-.87,1.39-2.44-.94-3.48-1.49-4.62-2.48-.64-.55-1.14-1.09-1.57-1.71v1.19c0,1.56,.02,2.66,.05,3.43h-1.69c.03-.74,.05-1.89,.05-3.43v-1.14c-.6,.75-1.22,1.34-2.11,2.04-1.19,.92-2.04,1.41-3.98,2.24-.35-.67-.52-.9-.9-1.34,1.86-.69,3.01-1.31,4.18-2.23,.95-.75,1.69-1.52,2.41-2.53h-2.96v1.05c0,.77,.02,1.41,.05,1.77h-1.59c.03-.4,.05-.95,.05-1.77v-1.05c0-.54-.03-1.17-.05-1.47,.37,.02,.72,.02,1.21,.02h3.7v-.8h-3.48c-.82,0-2.29,.02-3,.05v-1.61c.69,.03,2.14,.07,3,.07h3.47c0-.59-.02-1-.05-1.27l1.21,.08c-.27-.28-.54-.5-1.02-.75,.22-.2,.4-.39,.59-.57-.35-.02-.87-.02-1.31-.02h-1.12c.33,.5,.59,.97,.87,1.54l-1.46,.62c-.32-.8-.65-1.49-1.05-2.16h-.64c-.54,.87-1.19,1.59-2.08,2.38-.33-.5-.57-.77-1.02-1.11,.8-.69,1.14-1.04,1.66-1.77,.52-.72,.59-.87,1.27-2.41l1.37,.49c.13,.05,.25,.15,.25,.25,0,.13-.08,.17-.47,.23-.07,.17-.15,.33-.22,.5h2.63c.37,0,.97,0,1.34-.02v1.42c.82-.85,1.27-1.64,1.72-2.86l1.37,.47c.13,.03,.25,.15,.25,.25,0,.13-.08,.17-.47,.23-.07,.17-.13,.33-.22,.5h3.62c.35,0,.95,0,1.32-.02v1.47c-.35-.02-.87-.02-1.32-.02h-1.84c.3,.42,.59,.87,.84,1.36l-1.39,.72c-.49-1.04-.75-1.49-1.17-2.08h-.87c-.35,.49-.74,.94-1.15,1.36l.22,.02c.17,0,.27,.07,.27,.17s-.08,.18-.3,.33c-.02,.17-.02,.23-.02,.65h3.57c.94,0,2.26-.03,3.01-.07v1.61c-.79-.03-2.11-.05-3.01-.05h-3.57v.8h4.15Zm-3.75,1.46c.6,.97,1.27,1.72,2.21,2.46-.03-.43-.1-.69-.25-1.29,.42,.03,.67,.05,.87,.05,.49,0,.57-.1,.57-.69v-.54h-3.4Z"/></g><g><path class="cls-16" d="M28.14,40.1c-.28,.7-.55,1.39-.87,2.08h5.29c.57,0,.97,0,1.42-.02q-.03,.54-.05,2.66v5.26c0,1.34,.02,2.31,.05,2.95h-1.66v-.82h-9.76v1.05h-1.64c.02-.67,.03-1.64,.03-2.95v-5.49c0-1-.02-2.13-.03-2.66,.43,.02,.84,.02,1.42,.02h3.36c.28-.67,.54-1.37,.7-2.08h-3.38c-.92,0-2.43,.03-3.33,.07v-1.66c.87,.03,2.38,.07,3.33,.07h8.8c1.05,0,2.48-.03,3.33-.07v1.66c-.89-.03-2.31-.07-3.33-.07h-3.7Zm-3.53,3.62h-2.04v6.95h2.04v-6.95Zm4.12,1.39v-1.39h-2.58v1.39h2.58Zm-2.58,1.41v1.36h2.58v-1.36h-2.58Zm0,2.78v1.37h2.58v-1.37h-2.58Zm6.18,1.37v-6.95h-2.08v6.95h2.08Z"/><path class="cls-18" d="M39.82,45.55c.49-.23,.99-.49,1.62-.84l.23,1.52c-.72,.4-1.31,.72-1.86,1,0,.62,0,1.81,.03,3.45v.27c0,.89-.07,1.29-.27,1.56-.38,.52-1.05,.67-2.95,.69-.05-.67-.18-1.27-.37-1.77,.55,.05,.87,.07,1.24,.07,.64,0,.7-.07,.7-.7v-2.78c-.23,.1-.49,.2-.75,.32l-.08,.2c-.05,.12-.12,.18-.22,.18s-.18-.07-.23-.18l-.74-1.61c.84-.29,1.47-.5,2.03-.7v-3.52h-.45c-.45,0-.97,.02-1.32,.03v-1.59c.37,.02,.97,.03,1.32,.03h.45c-.02-1.86-.05-3-.1-3.41l1.79,.12c.15,.02,.25,.08,.25,.17,0,.1-.08,.18-.3,.32-.02,.6-.02,1.69-.03,2.81h.35c.35,0,.95-.02,1.34-.03v1.59c-.37-.02-.89-.03-1.34-.03h-.35v2.85Zm1.79,2.49v-1.56c.94,.03,1.89,.05,2.83,.07,.3-.64,.58-1.27,.8-1.93h-.59c-.87,0-1.97,.03-3.05,.07v-1.56c.97,.03,1.94,.05,2.91,.05-.23-.65-.52-1.27-.87-1.86l.89-.47h-.5c-.55,0-1.49,.02-2.01,.03v-1.57c.5,.03,1.37,.05,2.01,.05h1.84v-.52l-.02-1.09,1.64,.12c.18,.02,.3,.08,.3,.17,0,.1-.08,.2-.32,.33v.99h1.92c.64,0,1.51-.02,1.99-.05v1.57c-.5-.02-1.44-.03-1.99-.03h-.08l.65,.3c.1,.05,.17,.12,.17,.18,0,.12-.08,.17-.45,.23-.47,.84-.72,1.27-.9,1.61,1.04,0,2.09-.02,3.15-.05v1.56c-1.12-.05-2.09-.07-3.35-.07h-2.09l.6,.2c.1,.03,.18,.12,.18,.22,0,.13-.13,.2-.5,.27-.23,.45-.43,.87-.62,1.24h2.43c1.24,0,2.33-.03,3.35-.07v1.56c-.67-.02-1.32-.05-1.99-.05-.38,.77-.84,1.52-1.39,2.21l.23,.1c1.12,.52,1.77,.89,2.9,1.61l-.94,1.36c-.64-.44-1.29-.89-1.98-1.26-.44-.23-.89-.47-1.32-.69-1.37,1.12-3.18,1.71-6.19,1.96-.1-.55-.25-.94-.59-1.51,2.81-.22,4.1-.5,5.19-1.21-.52-.22-1.05-.4-1.59-.57-.15,.27-.32,.52-.49,.79l-1.36-.75c.47-.65,.89-1.34,1.27-2.04l-2.09,.05Zm3.36,.79c.72,.22,1.41,.43,2.11,.72,.45-.47,.82-1,1.12-1.57h-2.78l-.45,.85Zm2.18-5.64c.42-.74,.72-1.54,1.02-2.33h-3.1c.44,.6,.75,1.24,1.04,1.91l-.85,.42h1.89Z"/><path class="cls-17" d="M60.72,42.47c-.45-.03-1.09-.03-1.56-.03-.22,1.49-.54,2.96-1.05,4.39,.87,.77,1.66,1.59,2.59,2.69l-1.21,1.27c-.87-1-1.52-1.74-2.11-2.34-.02,.03-.05,.08-.07,.12-.95,1.76-1.94,2.88-3.65,4.17-.39-.67-.6-.97-.92-1.27,1.61-1.27,2.44-2.23,3.25-3.77,.07-.13,.13-.25,.2-.38-.77-.67-1.56-1.24-2.75-2.03l.9-1.26c.97,.64,1.76,1.19,2.46,1.72,.32-1.09,.54-2.19,.69-3.31h-2.7c-.49,0-1.19,0-1.67,.03v-1.61c.49,.02,1.19,.03,1.67,.03h1.29v-1.47c0-.77,0-.97-.03-1.56l1.66,.1c.2,.02,.3,.08,.3,.18s-.08,.18-.32,.33v2.41h1.34c.49,0,1.19-.02,1.67-.03v1.61Zm1.44,1.92c1.47,1.67,1.54,1.76,2.36,3.23l-1.42,.99c-.45-1.07-1.24-2.33-2.13-3.33l1.19-.89Zm4.85-2.93c.49,0,1.21-.02,1.67-.03v1.61c-.47-.03-1.19-.03-1.67-.03h-.37v4.22c0,.77,.02,1.79,.05,3.85v.17c0,.84-.15,1.25-.6,1.54-.52,.33-1,.4-2.88,.42q-.03-.65-.32-1.77c.65,.05,.97,.07,1.47,.07,.6,0,.67-.07,.67-.7v-7.78h-2.28c-.49,0-1.19,0-1.66,.03v-1.61c.47,.02,1.17,.03,1.66,.03h2.28c-.02-1.94-.05-3.18-.1-3.6l1.79,.12c.15,0,.23,.08,.23,.17,0,.1-.08,.18-.3,.32,0,.52,0,.57-.02,3h.37Z"/><path class="cls-13" d="M82.6,45.45c.49,0,.84,0,1.21-.02-.03,.3-.05,.87-.05,1.36v.62c0,.22,0,.42,.02,.6l.02,.28c0,.95-.67,1.32-2.33,1.32h-.07c.97,.69,2.06,1.16,4.12,1.84-.43,.52-.62,.79-.87,1.39-2.44-.94-3.48-1.49-4.62-2.48-.64-.55-1.14-1.09-1.57-1.71v1.19c0,1.56,.02,2.66,.05,3.43h-1.69c.03-.74,.05-1.89,.05-3.43v-1.14c-.6,.75-1.22,1.34-2.11,2.04-1.19,.92-2.04,1.41-3.98,2.24-.35-.67-.52-.9-.9-1.34,1.86-.69,3.01-1.31,4.18-2.23,.95-.75,1.69-1.52,2.41-2.53h-2.96v1.05c0,.77,.02,1.41,.05,1.77h-1.59c.03-.4,.05-.95,.05-1.77v-1.05c0-.54-.03-1.17-.05-1.47,.37,.02,.72,.02,1.21,.02h3.7v-.8h-3.48c-.82,0-2.29,.02-3,.05v-1.61c.69,.03,2.14,.07,3,.07h3.47c0-.59-.02-1-.05-1.27l1.21,.08c-.27-.28-.54-.5-1.02-.75,.22-.2,.4-.39,.59-.57-.35-.02-.87-.02-1.31-.02h-1.12c.33,.5,.59,.97,.87,1.54l-1.46,.62c-.32-.8-.65-1.49-1.05-2.16h-.64c-.54,.87-1.19,1.59-2.08,2.38-.33-.5-.57-.77-1.02-1.11,.8-.69,1.14-1.04,1.66-1.77,.52-.72,.59-.87,1.27-2.41l1.37,.49c.13,.05,.25,.15,.25,.25,0,.13-.08,.17-.47,.23-.07,.17-.15,.33-.22,.5h2.63c.37,0,.97,0,1.34-.02v1.42c.82-.85,1.27-1.64,1.72-2.86l1.37,.47c.13,.03,.25,.15,.25,.25,0,.13-.08,.17-.47,.23-.07,.17-.13,.33-.22,.5h3.62c.35,0,.95,0,1.32-.02v1.47c-.35-.02-.87-.02-1.32-.02h-1.84c.3,.42,.59,.87,.84,1.36l-1.39,.72c-.49-1.04-.75-1.49-1.17-2.08h-.87c-.35,.49-.74,.94-1.15,1.36l.22,.02c.17,0,.27,.07,.27,.17s-.08,.18-.3,.33c-.02,.17-.02,.23-.02,.65h3.57c.94,0,2.26-.03,3.01-.07v1.61c-.79-.03-2.11-.05-3.01-.05h-3.57v.8h4.15Zm-3.75,1.46c.6,.97,1.27,1.72,2.21,2.46-.03-.43-.1-.69-.25-1.29,.42,.03,.67,.05,.87,.05,.49,0,.57-.1,.57-.69v-.54h-3.4Z"/></g></g><g><path class="cls-12" d="M176.59,39.42c-.16,0-.33-.06-.46-.17-.29-.25-.33-.7-.07-.99l4.44-5.13c.13-.15,.33-.24,.53-.24h2.54c.5,0,.91-.41,.91-.91v-9.32c0-.5-.41-.91-.91-.91h-15.51c-.5,0-.91,.41-.91,.91v9.32c0,.5,.41,.91,.91,.91h6.96c.39,0,.7,.32,.7,.7s-.32,.7-.7,.7h-6.96c-1.28,0-2.32-1.04-2.32-2.32v-9.32c0-1.28,1.04-2.32,2.32-2.32h15.51c1.28,0,2.32,1.04,2.32,2.32v9.32c0,1.28-1.04,2.32-2.32,2.32h-2.22l-4.23,4.89c-.14,.16-.34,.24-.53,.24Z"/><g><path class="cls-1" d="M159.83,47.4c-.64,0-1.21-.35-1.5-.92l-2.04-4.03h-4.51c-1.54,0-2.79-1.25-2.79-2.79v-9.32c0-1.54,1.25-2.79,2.79-2.79h15.51c1.54,0,2.79,1.25,2.79,2.79v9.32c0,1.54-1.25,2.79-2.79,2.79h-4.27l-1.63,3.92c-.26,.63-.87,1.04-1.56,1.04Z"/><path class="cls-1" d="M167.28,28.72c.89,0,1.62,.73,1.62,1.62v9.32c0,.89-.73,1.62-1.62,1.62h-5.05l-1.93,4.64c-.09,.21-.28,.31-.47,.31-.18,0-.36-.09-.45-.28l-2.37-4.68h-5.23c-.89,0-1.62-.73-1.62-1.62v-9.32c0-.89,.73-1.62,1.62-1.62h15.51m0-2.35h-15.51c-2.19,0-3.96,1.78-3.96,3.96v9.32c0,2.19,1.78,3.96,3.96,3.96h3.79l1.72,3.39c.49,.97,1.47,1.57,2.55,1.57,1.16,0,2.2-.69,2.64-1.76l1.32-3.19h3.49c2.19,0,3.96-1.78,3.96-3.96v-9.32c0-2.19-1.78-3.96-3.96-3.96h0Z"/></g><path class="cls-14" d="M159.62,47.13c-.26,0-.51-.14-.63-.39l-2.41-4.77h-4.8c-1.28,0-2.32-1.04-2.32-2.32v-9.32c0-1.28,1.04-2.32,2.32-2.32h15.51c1.28,0,2.32,1.04,2.32,2.32v9.32c0,1.28-1.04,2.32-2.32,2.32h-5.06c-.39,0-.7-.32-.7-.7s.32-.7,.7-.7h5.06c.5,0,.91-.41,.91-.91v-9.32c0-.5-.41-.91-.91-.91h-15.51c-.5,0-.91,.41-.91,.91v9.32c0,.5,.41,.91,.91,.91h5.23c.27,0,.51,.15,.63,.39l2.61,5.16c.18,.35,.04,.77-.31,.95-.1,.05-.21,.08-.32,.08Z"/><g><g><path class="cls-1" d="M143.34,39.65c-.48,0-.93-.19-1.27-.53-.04-.04-.08-.08-.11-.13l-3.17-4.24h-2.57c-1.54,0-2.79-1.25-2.79-2.79v-9.32c0-1.54,1.25-2.79,2.79-2.79h15.51c1.54,0,2.79,1.25,2.79,2.79v9.32c0,1.54-1.25,2.79-2.79,2.79h-6.58v3.09c0,.99-.81,1.8-1.8,1.8Z"/><path class="cls-1" d="M151.73,21.03c.89,0,1.62,.73,1.62,1.62v9.32c0,.89-.73,1.62-1.62,1.62h-7.76v4.26c0,.38-.31,.63-.63,.63-.15,0-.31-.06-.44-.18l-3.52-4.71h-3.16c-.89,0-1.62-.73-1.62-1.62v-9.32c0-.89,.73-1.62,1.62-1.62h15.51m0-2.35h-15.51c-2.19,0-3.96,1.78-3.96,3.96v9.32c0,2.19,1.78,3.96,3.96,3.96h1.99l2.82,3.76c.07,.09,.14,.17,.22,.25,.56,.56,1.31,.87,2.1,.87,1.64,0,2.98-1.33,2.98-2.98v-1.91h5.41c2.19,0,3.96-1.78,3.96-3.96v-9.32c0-2.19-1.78-3.96-3.96-3.96h0Z"/></g><g><path class="cls-1" d="M143.36,39.71c-.48,0-.93-.19-1.27-.53-.04-.04-.08-.08-.11-.13l-3.17-4.23h-2.57c-1.54,0-2.79-1.25-2.79-2.79v-9.32c0-1.54,1.25-2.79,2.79-2.79h15.51c1.54,0,2.79,1.25,2.79,2.79v9.32c0,1.54-1.25,2.79-2.79,2.79h-6.58v3.09c0,.99-.81,1.8-1.8,1.8Z"/><path class="cls-1" d="M151.75,21.1c.89,0,1.62,.73,1.62,1.62v9.32c0,.89-.73,1.62-1.62,1.62h-7.76v4.26c0,.38-.31,.63-.63,.63-.15,0-.31-.06-.44-.18l-3.52-4.71h-3.16c-.89,0-1.62-.73-1.62-1.62v-9.32c0-.89,.73-1.62,1.62-1.62h15.51m0-2.35h-15.51c-2.19,0-3.96,1.78-3.96,3.96v9.32c0,2.19,1.78,3.96,3.96,3.96h1.99l2.82,3.76c.07,.09,.14,.17,.22,.25,.56,.56,1.31,.87,2.1,.87,1.64,0,2.98-1.33,2.98-2.98v-1.91h5.41c2.19,0,3.96-1.78,3.96-3.96v-9.32c0-2.19-1.78-3.96-3.96-3.96h0Z"/></g><path class="cls-15" d="M143.19,39.64c-.22,0-.44-.1-.57-.3l-3.6-5.05h-2.8c-1.28,0-2.32-1.04-2.32-2.32v-9.32c0-1.28,1.04-2.32,2.32-2.32h15.51c1.28,0,2.32,1.04,2.32,2.32v9.32c0,1.28-1.04,2.32-2.32,2.32h-6.98c-.39,0-.7-.32-.7-.7s.32-.7,.7-.7h6.98c.5,0,.91-.41,.91-.91v-9.32c0-.5-.41-.91-.91-.91h-15.51c-.5,0-.91,.41-.91,.91v9.32c0,.5,.41,.91,.91,.91h3.16c.23,0,.44,.11,.57,.3l3.81,5.35c.23,.32,.15,.76-.17,.98-.12,.09-.27,.13-.41,.13Z"/></g><g><path class="cls-11" d="M145.42,52.81c-3.02,0-5.47-2.45-5.47-5.47s2.46-5.47,5.47-5.47,5.47,2.45,5.47,5.47-2.46,5.47-5.47,5.47Zm0-9.54c-2.24,0-4.06,1.82-4.06,4.06s1.82,4.06,4.06,4.06,4.06-1.82,4.06-4.06-1.82-4.06-4.06-4.06Z"/><path class="cls-7" d="M135.31,72.32h-1.41v-12.31c0-2.52,2.05-4.57,4.57-4.57h13.9c2.52,0,4.57,2.05,4.57,4.57v.7h-1.41v-.7c0-1.74-1.42-3.16-3.16-3.16h-13.9c-1.74,0-3.16,1.42-3.16,3.16v12.31Z"/><rect class="cls-4" x="139.86" y="64.42" width="1.41" height="7.9"/></g><g><path class="cls-8" d="M174.38,52.81c-3.02,0-5.47-2.45-5.47-5.47s2.46-5.47,5.47-5.47,5.47,2.45,5.47,5.47-2.46,5.47-5.47,5.47Zm0-9.54c-2.24,0-4.06,1.82-4.06,4.06s1.82,4.06,4.06,4.06,4.06-1.82,4.06-4.06-1.82-4.06-4.06-4.06Z"/><path class="cls-6" d="M185.89,72.32h-1.41v-12.31c0-1.74-1.42-3.16-3.16-3.16h-13.9c-1.74,0-3.16,1.42-3.16,3.16v.7h-1.41v-.7c0-2.52,2.05-4.57,4.57-4.57h13.9c2.52,0,4.57,2.05,4.57,4.57v12.31Z"/><rect class="cls-3" x="178.52" y="64.42" width="1.41" height="7.9"/></g><g><path class="cls-1" d="M164.67,56.15c0,2.63-2.13,4.77-4.77,4.77s-4.77-2.13-4.77-4.77,2.13-4.77,4.77-4.77,4.77,2.13,4.77,4.77Z"/><path class="cls-1" d="M159.9,63.26c-3.92,0-7.12-3.19-7.12-7.12s3.19-7.12,7.12-7.12,7.12,3.19,7.12,7.12-3.19,7.12-7.12,7.12Zm0-9.54c-1.33,0-2.42,1.09-2.42,2.42s1.09,2.42,2.42,2.42,2.42-1.09,2.42-2.42-1.09-2.42-2.42-2.42Z"/></g><g><path class="cls-9" d="M159.9,61.62c-3.02,0-5.47-2.45-5.47-5.47s2.46-5.47,5.47-5.47,5.47,2.45,5.47,5.47-2.46,5.47-5.47,5.47Zm0-9.54c-2.24,0-4.06,1.82-4.06,4.06s1.82,4.06,4.06,4.06,4.06-1.82,4.06-4.06-1.82-4.06-4.06-4.06Z"/><path class="cls-5" d="M171.42,72.32h-1.41v-3.5c0-1.74-1.42-3.16-3.16-3.16h-13.9c-1.74,0-3.16,1.42-3.16,3.16v3.5h-1.41v-3.5c0-2.52,2.05-4.57,4.57-4.57h13.9c2.52,0,4.57,2.05,4.57,4.57v3.5Z"/></g></g></g></g></svg>