<?xml version="1.0" encoding="UTF-8"?><svg id="_レイヤー_2" xmlns="http://www.w3.org/2000/svg" xmlns:xlink="http://www.w3.org/1999/xlink" viewBox="0 0 217.74 91.01"><defs><style>.cls-1{fill:#fff;}.cls-2{fill:#333;}.cls-3{fill:url(#_新規グラデーションスウォッチ_1-14);}.cls-4{fill:url(#_新規グラデーションスウォッチ_1-11);}.cls-5{fill:url(#_新規グラデーションスウォッチ_1-16);}.cls-6{fill:url(#_新規グラデーションスウォッチ_1-13);}.cls-7{fill:url(#_新規グラデーションスウォッチ_1-10);}.cls-8{fill:url(#_新規グラデーションスウォッチ_1-12);}.cls-9{fill:url(#_新規グラデーションスウォッチ_1-15);}.cls-10{fill:url(#_新規グラデーションスウォッチ_1);}.cls-11{fill:url(#_新規グラデーションスウォッチ_1-9);}.cls-12{fill:url(#_新規グラデーションスウォッチ_1-6);}.cls-13{fill:url(#_新規グラデーションスウォッチ_1-5);}.cls-14{fill:url(#_新規グラデーションスウォッチ_1-7);}.cls-15{fill:url(#_新規グラデーションスウォッチ_1-8);}.cls-16{fill:url(#_新規グラデーションスウォッチ_1-2);}.cls-17{fill:url(#_新規グラデーションスウォッチ_1-4);}.cls-18{fill:url(#_新規グラデーションスウォッチ_1-3);}</style><linearGradient id="_新規グラデーションスウォッチ_1" x1="22.37" y1="15.86" x2="46.67" y2="15.86" gradientUnits="userSpaceOnUse"><stop offset="0" stop-color="#0d76a3"/><stop offset="0" stop-color="#0d74a2"/><stop offset=".18" stop-color="#10548a"/><stop offset=".37" stop-color="#133b78"/><stop offset=".56" stop-color="#152a6b"/><stop offset=".76" stop-color="#161f63"/><stop offset="1" stop-color="#171c61"/></linearGradient><linearGradient id="_新規グラデーションスウォッチ_1-2" x1="18.02" y1="45.5" x2="148.43" y2="45.5" xlink:href="#_新規グラデーションスウォッチ_1"/><linearGradient id="_新規グラデーションスウォッチ_1-3" x1="18.02" y1="45.5" x2="148.43" y2="45.5" xlink:href="#_新規グラデーションスウォッチ_1"/><linearGradient id="_新規グラデーションスウォッチ_1-4" x1="18.02" y1="45.5" x2="148.43" y2="45.5" xlink:href="#_新規グラデーションスウォッチ_1"/><linearGradient id="_新規グラデーションスウォッチ_1-5" x1="18.02" y1="45.5" x2="148.43" y2="45.5" xlink:href="#_新規グラデーションスウォッチ_1"/><linearGradient id="_新規グラデーションスウォッチ_1-6" x1="18.02" y1="45.5" x2="148.43" y2="45.5" xlink:href="#_新規グラデーションスウォッチ_1"/><linearGradient id="_新規グラデーションスウォッチ_1-7" x1="18.02" y1="45.5" x2="148.43" y2="45.5" xlink:href="#_新規グラデーションスウォッチ_1"/><linearGradient id="_新規グラデーションスウォッチ_1-8" x1="18.02" y1="45.5" x2="148.43" y2="45.5" xlink:href="#_新規グラデーションスウォッチ_1"/><linearGradient id="_新規グラデーションスウォッチ_1-9" x1="18.02" y1="45.5" x2="148.43" y2="45.5" xlink:href="#_新規グラデーションスウォッチ_1"/><linearGradient id="_新規グラデーションスウォッチ_1-10" x1="169.53" y1="42.62" x2="178.85" y2="42.62" xlink:href="#_新規グラデーションスウォッチ_1"/><linearGradient id="_新規グラデーションスウォッチ_1-11" x1="162.55" y1="24.61" x2="172.17" y2="24.61" xlink:href="#_新規グラデーションスウォッチ_1"/><linearGradient id="_新規グラデーションスウォッチ_1-12" x1="160.4" y1="45.43" x2="162.84" y2="45.43" xlink:href="#_新規グラデーションスウォッチ_1"/><linearGradient id="_新規グラデーションスウォッチ_1-13" x1="183.39" y1="24.61" x2="193.01" y2="24.61" xlink:href="#_新規グラデーションスウォッチ_1"/><linearGradient id="_新規グラデーションスウォッチ_1-14" x1="177.7" y1="51.32" x2="199.71" y2="51.32" xlink:href="#_新規グラデーションスウォッチ_1"/><linearGradient id="_新規グラデーションスウォッチ_1-15" x1="155.85" y1="51.32" x2="178.15" y2="51.32" xlink:href="#_新規グラデーションスウォッチ_1"/><linearGradient id="_新規グラデーションスウォッチ_1-16" x1="192.72" y1="45.43" x2="195.15" y2="45.43" xlink:href="#_新規グラデーションスウォッチ_1"/></defs><g id="_レイヤー_1-2"><g><polygon class="cls-1" points="201.73 91.01 0 91.01 16.01 0 217.74 0 201.73 91.01"/><g><g><path d="M22.37,12.35c.01-1.47,.47-2.59,1.36-3.38,.84-.78,1.84-1.17,3-1.17s2.21,.39,3.05,1.18c.85,.79,1.29,1.92,1.32,3.39v7.01c-.03,1.46-.47,2.59-1.32,3.38-.84,.78-1.86,1.18-3.05,1.2-1.16-.01-2.16-.41-3-1.2-.89-.79-1.35-1.91-1.36-3.37v-7.02Zm6.54,.14c-.04-1.59-.77-2.41-2.17-2.44-1.42,.03-2.14,.84-2.16,2.44v6.75c.03,1.61,.75,2.42,2.16,2.43,1.41-.01,2.13-.83,2.17-2.43v-6.75Z"/><path d="M40.54,7.76s-.03,.08-.1,.23-.18,.37-.31,.64-.28,.58-.46,.93c-.17,.35-.36,.72-.55,1.1-.19,.39-.39,.77-.59,1.17-.2,.39-.39,.77-.58,1.12-.19,.36-.35,.68-.51,.97-.15,.29-.28,.52-.38,.7,.21-.12,.45-.2,.71-.22,.26-.03,.57-.03,.92-.02,.5,.01,.94,.1,1.31,.26s.7,.36,.96,.6c.27,.24,.49,.51,.67,.8,.18,.29,.32,.58,.42,.86,.1,.28,.17,.54,.21,.79,.04,.24,.06,.43,.06,.57v.63c0,.14,0,.29,0,.43,0,.15,0,.27-.02,.37,0,.05-.03,.18-.07,.4-.04,.21-.11,.47-.22,.76-.11,.29-.26,.61-.45,.95s-.45,.66-.77,.96c-.32,.3-.71,.56-1.17,.78s-1,.35-1.63,.4c-.66,.06-1.25,.01-1.75-.13-.51-.15-.95-.35-1.32-.62-.37-.27-.68-.58-.93-.93s-.44-.71-.58-1.08c-.14-.37-.24-.73-.28-1.07-.05-.34-.06-.63-.03-.87,.04-.36,.09-.67,.14-.95,.05-.28,.11-.55,.18-.8,.07-.25,.15-.5,.23-.75,.09-.25,.19-.52,.31-.81,.03-.07,.11-.25,.24-.52s.29-.61,.49-1.01,.41-.84,.65-1.32c.24-.48,.48-.97,.72-1.46,.57-1.15,1.2-2.43,1.91-3.85h2.57Zm-.46,11.63c0-.28-.01-.58-.03-.92-.02-.33-.1-.65-.25-.95-.14-.3-.37-.56-.69-.78-.32-.22-.77-.35-1.36-.39-.28-.02-.53,0-.75,.09-.23,.08-.42,.19-.6,.33-.17,.14-.33,.3-.45,.47s-.23,.35-.32,.53c-.08,.17-.14,.34-.18,.49-.04,.15-.05,.26-.05,.34,0,.18,0,.38,.01,.61,0,.22,.03,.44,.07,.66s.11,.44,.2,.64c.09,.21,.23,.39,.4,.55,.17,.16,.4,.29,.67,.39s.61,.15,1.02,.15c.33,0,.61-.03,.86-.12s.45-.21,.62-.35c.17-.14,.31-.3,.42-.47,.11-.17,.19-.34,.26-.51,.06-.17,.1-.32,.12-.45,.02-.13,.03-.23,.03-.3Z"/><path d="M44.47,21.54h2.2v2.27h-2.2v-2.27Z"/></g><g><path class="cls-10" d="M22.37,12.35c.01-1.47,.47-2.59,1.36-3.38,.84-.78,1.84-1.17,3-1.17s2.21,.39,3.05,1.18c.85,.79,1.29,1.92,1.32,3.39v7.01c-.03,1.46-.47,2.59-1.32,3.38-.84,.78-1.86,1.18-3.05,1.2-1.16-.01-2.16-.41-3-1.2-.89-.79-1.35-1.91-1.36-3.37v-7.02Zm6.54,.14c-.04-1.59-.77-2.41-2.17-2.44-1.42,.03-2.14,.84-2.16,2.44v6.75c.03,1.61,.75,2.42,2.16,2.43,1.41-.01,2.13-.83,2.17-2.43v-6.75Z"/><path class="cls-10" d="M40.54,7.76s-.03,.08-.1,.23-.18,.37-.31,.64-.28,.58-.46,.93c-.17,.35-.36,.72-.55,1.1-.19,.39-.39,.77-.59,1.17-.2,.39-.39,.77-.58,1.12-.19,.36-.35,.68-.51,.97-.15,.29-.28,.52-.38,.7,.21-.12,.45-.2,.71-.22,.26-.03,.57-.03,.92-.02,.5,.01,.94,.1,1.31,.26s.7,.36,.96,.6c.27,.24,.49,.51,.67,.8,.18,.29,.32,.58,.42,.86,.1,.28,.17,.54,.21,.79,.04,.24,.06,.43,.06,.57v.63c0,.14,0,.29,0,.43,0,.15,0,.27-.02,.37,0,.05-.03,.18-.07,.4-.04,.21-.11,.47-.22,.76-.11,.29-.26,.61-.45,.95s-.45,.66-.77,.96c-.32,.3-.71,.56-1.17,.78s-1,.35-1.63,.4c-.66,.06-1.25,.01-1.75-.13-.51-.15-.95-.35-1.32-.62-.37-.27-.68-.58-.93-.93s-.44-.71-.58-1.08c-.14-.37-.24-.73-.28-1.07-.05-.34-.06-.63-.03-.87,.04-.36,.09-.67,.14-.95,.05-.28,.11-.55,.18-.8,.07-.25,.15-.5,.23-.75,.09-.25,.19-.52,.31-.81,.03-.07,.11-.25,.24-.52s.29-.61,.49-1.01,.41-.84,.65-1.32c.24-.48,.48-.97,.72-1.46,.57-1.15,1.2-2.43,1.91-3.85h2.57Zm-.46,11.63c0-.28-.01-.58-.03-.92-.02-.33-.1-.65-.25-.95-.14-.3-.37-.56-.69-.78-.32-.22-.77-.35-1.36-.39-.28-.02-.53,0-.75,.09-.23,.08-.42,.19-.6,.33-.17,.14-.33,.3-.45,.47s-.23,.35-.32,.53c-.08,.17-.14,.34-.18,.49-.04,.15-.05,.26-.05,.34,0,.18,0,.38,.01,.61,0,.22,.03,.44,.07,.66s.11,.44,.2,.64c.09,.21,.23,.39,.4,.55,.17,.16,.4,.29,.67,.39s.61,.15,1.02,.15c.33,0,.61-.03,.86-.12s.45-.21,.62-.35c.17-.14,.31-.3,.42-.47,.11-.17,.19-.34,.26-.51,.06-.17,.1-.32,.12-.45,.02-.13,.03-.23,.03-.3Z"/><path class="cls-10" d="M44.47,21.54h2.2v2.27h-2.2v-2.27Z"/></g></g><g><g><path class="cls-2" d="M24.13,40.53c.08-.79,.13-1.71,.17-2.85l1.64,.17c.2,.02,.4,.13,.4,.25s-.12,.2-.43,.32c-.03,.9-.08,1.57-.12,2.11h2.43c1.14,0,2.44-.03,3.33-.08q-.03,.52-.05,3.26v4.47c0,.49,.03,1.92,.05,2.85v.32c0,.84-.13,1.22-.55,1.51-.49,.32-.99,.4-2.79,.4-.07-.89-.12-1.17-.32-1.81,.59,.05,.87,.05,1.36,.05,.54,0,.62-.08,.62-.69v-8.79h-4.25c-.03,.13-.05,.25-.08,.38-.08,.39-.18,.75-.28,1.11,1.71,1.05,2.86,2.06,4.47,3.88l-1.16,1.31c-1.44-1.81-2.34-2.73-3.83-3.82-.37,.79-.82,1.47-1.41,2.13-.79,.89-1.31,1.31-2.64,2.18-.32-.67-.49-.95-.85-1.37,1.79-1.12,2.86-2.28,3.5-3.73,.27-.64,.47-1.27,.62-2.06h-4.23v7.37q.03,3.25,.05,3.95h-1.72q.02-.7,.05-3.26v-6.36q-.02-2.75-.05-3.26c.89,.05,2.19,.08,3.33,.08h2.78Z"/><path class="cls-2" d="M42.39,51.17c.55,.08,1.21,.12,2.03,.12,1.25,0,3.82-.08,4.94-.17-.23,.87-.27,1.07-.32,1.66-2.64,.05-3.43,.05-4.32,.05-2.43,0-3.58-.18-4.72-.79-1.07-.55-1.74-1.17-2.36-2.28-.07,.13-.13,.29-.22,.42-.72,1.29-1.51,2.16-2.88,3.2-.33-.57-.55-.85-1.04-1.29,1.31-.99,1.91-1.66,2.54-2.76,.69-1.24,1.02-2.29,1.24-4l1.54,.4c.25,.07,.35,.13,.35,.25s-.12,.18-.4,.25c-.13,.7-.28,1.31-.45,1.88,.54,1.11,1.29,1.99,2.41,2.54v-5.98h-1.67c-.92,0-2.43,.03-3.33,.07v-1.67c.85,.03,2.38,.07,3.33,.07h4.97c1.05,0,2.48-.03,3.33-.07v1.67c-.89-.05-2.31-.07-3.33-.07h-1.64v2.06h1.61c.8,0,1.94-.02,2.66-.05v1.64c-.72-.02-1.86-.05-2.66-.05h-1.61v2.9Zm-1.71-12.35c0-.45,0-.82-.02-1.07l1.67,.12c.2,.02,.32,.08,.32,.17,0,.1-.08,.2-.32,.33v1.11h3.05c1.14,0,2.46-.02,3.31-.07-.02,.6-.03,.92-.03,1.27v.84c0,.37,.02,.77,.05,1.25h-1.74c.03-.43,.05-.92,.05-1.25v-.5h-10.96v.5c0,.33,.02,.82,.05,1.25h-1.74c.03-.49,.05-.89,.05-1.25v-.84c0-.35-.02-.67-.03-1.27,.85,.05,2.18,.07,3.31,.07h2.98v-.65Z"/><path class="cls-2" d="M55.32,38.5c.23,.13,.27,.17,.27,.28,0,.13-.05,.17-.47,.25-1.27,1.57-2.01,2.21-3.95,3.42-.18-.55-.4-.94-.8-1.44,1.91-1.09,2.71-1.79,3.82-3.23l1.14,.72Zm-1.24,6.13c.17,.02,.27,.08,.27,.18,0,.08-.08,.18-.32,.32v4.77c0,1.56,.02,2.64,.05,3.43h-1.71c.03-.75,.05-1.89,.05-3.43v-3.25c-.37,.45-.7,.82-1.29,1.42-.3-.79-.44-1.05-.77-1.52,1.81-1.88,2.61-3.08,3.8-5.64l1.37,.65c.22,.08,.27,.15,.27,.27,0,.13-.02,.15-.45,.27-.18,.32-.32,.59-.4,.75-.49,.9-.65,1.22-1,1.76l.13,.02Zm8.86,1.66l.18-.22,.87,.8c.12,.1,.17,.18,.17,.28,0,.15-.07,.22-.42,.29-.55,.94-1.09,1.82-1.87,2.58,1.24,.72,2.26,1.11,4.4,1.64-.52,.57-.57,.64-.97,1.52-2.03-.59-3.53-1.24-4.72-2.11-1.46,1.02-3.1,1.66-5.62,2.23-.13-.62-.32-1.07-.6-1.46,2.56-.57,3.75-.99,5.05-1.81-.52-.55-.95-1.15-1.34-1.81-.75,.84-1.71,1.66-2.75,2.33-.44-.74-.57-.9-.9-1.27,1.31-.9,1.94-1.44,2.68-2.26,.32-.35,.72-.95,1.02-1.46l-.18,.02c-.67,.07-.8,.08-1.88,.2-.2,.32-.23,.35-.33,.35-.13,0-.22-.08-.28-.3l-.55-1.66c.82-.02,1.69-.05,2.58-.1,.35-.35,.7-.7,1.04-1.07-.62-.52-1.41-1.09-2.56-1.87l.9-1.12c.22,.12,.42,.23,.64,.35,.69-1,1.25-1.92,1.62-2.73l1.46,.77c.07,.03,.12,.12,.12,.18,0,.1-.12,.17-.35,.2-.4,.69-.84,1.36-1.61,2.38,.29,.18,.55,.38,.82,.6,.13-.18,.27-.37,.44-.59,.84-1.1,.94-1.26,1.54-2.26l1.57,.95c.1,.05,.15,.13,.15,.22,0,.12-.15,.17-.54,.18-1.77,2.29-2.28,2.93-3,3.65,1.12-.08,2.26-.18,3.38-.32-.2-.3-.45-.62-.75-1l1.22-.79c1.07,1.21,1.74,2.21,2.46,3.67l-1.44,.82c-.27-.59-.49-1.02-.69-1.41-1.19,.17-2.11,.29-3.4,.42-.27,.03-.37,.05-.99,.1l.38,.15c.08,.03,.1,.1,.1,.17,0,.12-.07,.17-.35,.23-.07,.12-.13,.22-.18,.32h3.48Zm-3.6,1.32c.37,.55,.79,1.09,1.29,1.52,.52-.45,.95-.95,1.32-1.52h-2.61Z"/><path class="cls-2" d="M75.84,42.2c.13,.07,.2,.13,.2,.2,0,.1-.08,.2-.23,.29-.6,2.49-.87,3.35-1.54,4.85-.99,2.23-2.08,3.25-3.48,3.25-.92,0-1.59-.4-2.08-1.19-.42-.74-.65-1.62-.65-2.56,0-2.09,1.19-4.15,3.15-5.42,1.22-.8,2.59-1.21,4.17-1.21,1.77,0,3.33,.49,4.6,1.41,1.41,1.04,2.11,2.48,2.11,4.34,0,2.21-1.04,3.88-3.16,5.05-.67,.37-1.94,.85-3.11,1.19-.32-.87-.43-1.1-.89-1.67,1.76-.42,2.43-.65,3.35-1.21,1.34-.79,2.06-1.98,2.06-3.38,0-1.72-1.04-3.15-2.81-3.85-.64-.25-1.37-.4-1.91-.4h-.33l.57,.32Zm-4.37,1.14c-1.07,1.07-1.67,2.44-1.67,3.78,0,1.19,.38,1.92,1,1.92,.54,0,1-.52,1.61-1.77,.97-2.03,1.56-3.87,1.67-5.31-1.19,.25-1.86,.6-2.61,1.37Z"/><path class="cls-2" d="M96.05,40.17l1.44,1.17c.12,.1,.17,.17,.17,.27,0,.12-.12,.22-.42,.3-.67,2.34-1.54,4.12-2.76,5.57-1.61,1.92-3.41,3.18-6.7,4.69-.35-.79-.65-1.19-1.21-1.59,3.33-1.39,5.04-2.53,6.54-4.37,.95-1.14,1.84-2.83,2.14-4.05l-4.2,.3c-2.26,.13-3.92,.23-4.74,.33l-.18-1.88,.49,.02c.3,0,.67-.02,1.37-.05,.42-.02,.9-.05,1.42-.07,.77-.03,1.31-.05,1.61-.07l4.74-.27,.29-.32Z"/><path class="cls-2" d="M108.67,44.48q-.03-2.33-.1-2.8l1.66,.12c.17,0,.28,.1,.28,.22s-.07,.2-.25,.3c-.02,.3-.02,1.02-.03,2.16l1.31-.03c.9-.02,1.19-.02,2.21-.08l.03,1.57q-.17-.02-.44-.02h-.55c-.29,0-.57,0-1.24,.02l-1.32,.02v2.56c0,.42,.02,1.27,.03,1.94,.02,.5,.02,.65,.02,.79,0,1.09-.4,1.37-1.96,1.37-.3,0-.4,0-1.17-.02q-.02-.69-.28-1.74c.74,.08,1.05,.12,1.42,.12s.38-.05,.38-.45v-3.36c-1.16,1.59-2.76,2.91-5.39,4.44-.3-.8-.32-.84-.82-1.36,2.58-1.39,4-2.51,5.39-4.25l-2.39,.03c-.59,0-1.37,.03-2.23,.08l-.02-1.56c1.02,0,1.57,.02,2.23,0l3.23-.07Z"/><path class="cls-2" d="M122.14,50.57h-1.83c.03-.62,.05-1.61,.05-2.93v-3.53q-.02-2.13-.05-2.66c.45,.02,.85,.03,1.42,.03h7.03c.57,0,.97-.02,1.42-.03-.03,.54-.05,1.66-.05,2.66v3.53c0,1.39,.02,2.29,.05,2.93h-1.82v-.79h-6.23v.79Zm6.23-2.43v-5.02h-6.23v5.02h6.23Z"/><path class="cls-2" d="M148.43,46.4c-.79-.02-2.11-.05-3-.05h-7.01c-.82,0-2.28,.03-3,.05v-1.79c.69,.02,2.14,.05,3,.05h7.01c.92,0,2.24-.02,3-.05v1.79Z"/></g><g><path class="cls-16" d="M24.13,40.53c.08-.79,.13-1.71,.17-2.85l1.64,.17c.2,.02,.4,.13,.4,.25s-.12,.2-.43,.32c-.03,.9-.08,1.57-.12,2.11h2.43c1.14,0,2.44-.03,3.33-.08q-.03,.52-.05,3.26v4.47c0,.49,.03,1.92,.05,2.85v.32c0,.84-.13,1.22-.55,1.51-.49,.32-.99,.4-2.79,.4-.07-.89-.12-1.17-.32-1.81,.59,.05,.87,.05,1.36,.05,.54,0,.62-.08,.62-.69v-8.79h-4.25c-.03,.13-.05,.25-.08,.38-.08,.39-.18,.75-.28,1.11,1.71,1.05,2.86,2.06,4.47,3.88l-1.16,1.31c-1.44-1.81-2.34-2.73-3.83-3.82-.37,.79-.82,1.47-1.41,2.13-.79,.89-1.31,1.31-2.64,2.18-.32-.67-.49-.95-.85-1.37,1.79-1.12,2.86-2.28,3.5-3.73,.27-.64,.47-1.27,.62-2.06h-4.23v7.37q.03,3.25,.05,3.95h-1.72q.02-.7,.05-3.26v-6.36q-.02-2.75-.05-3.26c.89,.05,2.19,.08,3.33,.08h2.78Z"/><path class="cls-18" d="M42.39,51.17c.55,.08,1.21,.12,2.03,.12,1.25,0,3.82-.08,4.94-.17-.23,.87-.27,1.07-.32,1.66-2.64,.05-3.43,.05-4.32,.05-2.43,0-3.58-.18-4.72-.79-1.07-.55-1.74-1.17-2.36-2.28-.07,.13-.13,.29-.22,.42-.72,1.29-1.51,2.16-2.88,3.2-.33-.57-.55-.85-1.04-1.29,1.31-.99,1.91-1.66,2.54-2.76,.69-1.24,1.02-2.29,1.24-4l1.54,.4c.25,.07,.35,.13,.35,.25s-.12,.18-.4,.25c-.13,.7-.28,1.31-.45,1.88,.54,1.11,1.29,1.99,2.41,2.54v-5.98h-1.67c-.92,0-2.43,.03-3.33,.07v-1.67c.85,.03,2.38,.07,3.33,.07h4.97c1.05,0,2.48-.03,3.33-.07v1.67c-.89-.05-2.31-.07-3.33-.07h-1.64v2.06h1.61c.8,0,1.94-.02,2.66-.05v1.64c-.72-.02-1.86-.05-2.66-.05h-1.61v2.9Zm-1.71-12.35c0-.45,0-.82-.02-1.07l1.67,.12c.2,.02,.32,.08,.32,.17,0,.1-.08,.2-.32,.33v1.11h3.05c1.14,0,2.46-.02,3.31-.07-.02,.6-.03,.92-.03,1.27v.84c0,.37,.02,.77,.05,1.25h-1.74c.03-.43,.05-.92,.05-1.25v-.5h-10.96v.5c0,.33,.02,.82,.05,1.25h-1.74c.03-.49,.05-.89,.05-1.25v-.84c0-.35-.02-.67-.03-1.27,.85,.05,2.18,.07,3.31,.07h2.98v-.65Z"/><path class="cls-17" d="M55.32,38.5c.23,.13,.27,.17,.27,.28,0,.13-.05,.17-.47,.25-1.27,1.57-2.01,2.21-3.95,3.42-.18-.55-.4-.94-.8-1.44,1.91-1.09,2.71-1.79,3.82-3.23l1.14,.72Zm-1.24,6.13c.17,.02,.27,.08,.27,.18,0,.08-.08,.18-.32,.32v4.77c0,1.56,.02,2.64,.05,3.43h-1.71c.03-.75,.05-1.89,.05-3.43v-3.25c-.37,.45-.7,.82-1.29,1.42-.3-.79-.44-1.05-.77-1.52,1.81-1.88,2.61-3.08,3.8-5.64l1.37,.65c.22,.08,.27,.15,.27,.27,0,.13-.02,.15-.45,.27-.18,.32-.32,.59-.4,.75-.49,.9-.65,1.22-1,1.76l.13,.02Zm8.86,1.66l.18-.22,.87,.8c.12,.1,.17,.18,.17,.28,0,.15-.07,.22-.42,.29-.55,.94-1.09,1.82-1.87,2.58,1.24,.72,2.26,1.11,4.4,1.64-.52,.57-.57,.64-.97,1.52-2.03-.59-3.53-1.24-4.72-2.11-1.46,1.02-3.1,1.66-5.62,2.23-.13-.62-.32-1.07-.6-1.46,2.56-.57,3.75-.99,5.05-1.81-.52-.55-.95-1.15-1.34-1.81-.75,.84-1.71,1.66-2.75,2.33-.44-.74-.57-.9-.9-1.27,1.31-.9,1.94-1.44,2.68-2.26,.32-.35,.72-.95,1.02-1.46l-.18,.02c-.67,.07-.8,.08-1.88,.2-.2,.32-.23,.35-.33,.35-.13,0-.22-.08-.28-.3l-.55-1.66c.82-.02,1.69-.05,2.58-.1,.35-.35,.7-.7,1.04-1.07-.62-.52-1.41-1.09-2.56-1.87l.9-1.12c.22,.12,.42,.23,.64,.35,.69-1,1.25-1.92,1.62-2.73l1.46,.77c.07,.03,.12,.12,.12,.18,0,.1-.12,.17-.35,.2-.4,.69-.84,1.36-1.61,2.38,.29,.18,.55,.38,.82,.6,.13-.18,.27-.37,.44-.59,.84-1.1,.94-1.26,1.54-2.26l1.57,.95c.1,.05,.15,.13,.15,.22,0,.12-.15,.17-.54,.18-1.77,2.29-2.28,2.93-3,3.65,1.12-.08,2.26-.18,3.38-.32-.2-.3-.45-.62-.75-1l1.22-.79c1.07,1.21,1.74,2.21,2.46,3.67l-1.44,.82c-.27-.59-.49-1.02-.69-1.41-1.19,.17-2.11,.29-3.4,.42-.27,.03-.37,.05-.99,.1l.38,.15c.08,.03,.1,.1,.1,.17,0,.12-.07,.17-.35,.23-.07,.12-.13,.22-.18,.32h3.48Zm-3.6,1.32c.37,.55,.79,1.09,1.29,1.52,.52-.45,.95-.95,1.32-1.52h-2.61Z"/><path class="cls-13" d="M75.84,42.2c.13,.07,.2,.13,.2,.2,0,.1-.08,.2-.23,.29-.6,2.49-.87,3.35-1.54,4.85-.99,2.23-2.08,3.25-3.48,3.25-.92,0-1.59-.4-2.08-1.19-.42-.74-.65-1.62-.65-2.56,0-2.09,1.19-4.15,3.15-5.42,1.22-.8,2.59-1.21,4.17-1.21,1.77,0,3.33,.49,4.6,1.41,1.41,1.04,2.11,2.48,2.11,4.34,0,2.21-1.04,3.88-3.16,5.05-.67,.37-1.94,.85-3.11,1.19-.32-.87-.43-1.1-.89-1.67,1.76-.42,2.43-.65,3.35-1.21,1.34-.79,2.06-1.98,2.06-3.38,0-1.72-1.04-3.15-2.81-3.85-.64-.25-1.37-.4-1.91-.4h-.33l.57,.32Zm-4.37,1.14c-1.07,1.07-1.67,2.44-1.67,3.78,0,1.19,.38,1.92,1,1.92,.54,0,1-.52,1.61-1.77,.97-2.03,1.56-3.87,1.67-5.31-1.19,.25-1.86,.6-2.61,1.37Z"/><path class="cls-12" d="M96.05,40.17l1.44,1.17c.12,.1,.17,.17,.17,.27,0,.12-.12,.22-.42,.3-.67,2.34-1.54,4.12-2.76,5.57-1.61,1.92-3.41,3.18-6.7,4.69-.35-.79-.65-1.19-1.21-1.59,3.33-1.39,5.04-2.53,6.54-4.37,.95-1.14,1.84-2.83,2.14-4.05l-4.2,.3c-2.26,.13-3.92,.23-4.74,.33l-.18-1.88,.49,.02c.3,0,.67-.02,1.37-.05,.42-.02,.9-.05,1.42-.07,.77-.03,1.31-.05,1.61-.07l4.74-.27,.29-.32Z"/><path class="cls-14" d="M108.67,44.48q-.03-2.33-.1-2.8l1.66,.12c.17,0,.28,.1,.28,.22s-.07,.2-.25,.3c-.02,.3-.02,1.02-.03,2.16l1.31-.03c.9-.02,1.19-.02,2.21-.08l.03,1.57q-.17-.02-.44-.02h-.55c-.29,0-.57,0-1.24,.02l-1.32,.02v2.56c0,.42,.02,1.27,.03,1.94,.02,.5,.02,.65,.02,.79,0,1.09-.4,1.37-1.96,1.37-.3,0-.4,0-1.17-.02q-.02-.69-.28-1.74c.74,.08,1.05,.12,1.42,.12s.38-.05,.38-.45v-3.36c-1.16,1.59-2.76,2.91-5.39,4.44-.3-.8-.32-.84-.82-1.36,2.58-1.39,4-2.51,5.39-4.25l-2.39,.03c-.59,0-1.37,.03-2.23,.08l-.02-1.56c1.02,0,1.57,.02,2.23,0l3.23-.07Z"/><path class="cls-15" d="M122.14,50.57h-1.83c.03-.62,.05-1.61,.05-2.93v-3.53q-.02-2.13-.05-2.66c.45,.02,.85,.03,1.42,.03h7.03c.57,0,.97-.02,1.42-.03-.03,.54-.05,1.66-.05,2.66v3.53c0,1.39,.02,2.29,.05,2.93h-1.82v-.79h-6.23v.79Zm6.23-2.43v-5.02h-6.23v5.02h6.23Z"/><path class="cls-11" d="M148.43,46.4c-.79-.02-2.11-.05-3-.05h-7.01c-.82,0-2.28,.03-3,.05v-1.79c.69,.02,2.14,.05,3,.05h7.01c.92,0,2.24-.02,3-.05v1.79Z"/></g></g><g><path class="cls-7" d="M178.15,53.12c-.38,0-.7-.31-.7-.7v-5.11c0-.53-.43-.96-.96-.96h-2.88c-1.13,0-2.18-.45-2.96-1.27-.78-.82-1.17-1.89-1.11-3.03,.11-2.09,2.06-3.86,4.26-3.86h2.69c.53,0,.96-.43,.96-.96v-5.11h1.39v5.11c0,1.3-1.06,2.35-2.36,2.35h-2.69c-1.46,0-2.8,1.19-2.87,2.54-.04,.75,.22,1.46,.73,1.99,.51,.54,1.2,.84,1.95,.84h2.88c1.3,0,2.36,1.05,2.36,2.35v5.11c0,.38-.31,.7-.7,.7Z"/><g><g><path class="cls-4" d="M167.36,29.42c-2.65,0-4.81-2.16-4.81-4.81s2.16-4.81,4.81-4.81,4.81,2.16,4.81,4.81-2.16,4.81-4.81,4.81Zm0-8.23c-1.88,0-3.42,1.53-3.42,3.42s1.53,3.42,3.42,3.42,3.42-1.53,3.42-3.42-1.53-3.42-3.42-3.42Z"/><path class="cls-8" d="M162.14,53.15c-.36,0-.67-.28-.69-.64l-1.04-14.05c-.03-.38,.26-.72,.64-.75,.38-.03,.72,.26,.75,.64l1.04,14.05c.03,.38-.26,.72-.64,.75-.02,0-.03,0-.05,0Z"/></g><g><path class="cls-6" d="M188.2,29.42c-2.65,0-4.81-2.16-4.81-4.81s2.16-4.81,4.81-4.81,4.81,2.16,4.81,4.81-2.16,4.81-4.81,4.81Zm0-8.23c-1.88,0-3.42,1.53-3.42,3.42s1.53,3.42,3.42,3.42,3.42-1.53,3.42-3.42-1.53-3.42-3.42-3.42Z"/><path class="cls-3" d="M191.37,71.21h-6.33c-.77,0-1.42-.6-1.48-1.37l-1.24-16.69c-.46,0-1.11,0-1.77,0q-2.67-.01-2.87-.19l.46-.53,.04-.69c.14,0,1.26,0,2.38,.01q2.68,.01,2.88,.2c.13,.12,.21,.29,.22,.46l1.28,17.33s.04,.08,.09,.08h6.33s.08-.03,.09-.08l1.26-17.33c.01-.18,.1-.35,.24-.48,.14-.12,.36-.21,.52-.2,1.38,.06,3.76-.45,3.9-2.79l.93-12.27c0-2.05-1.65-3.8-3.69-3.84h-14.15v-1.39h14.17c2.8,.07,5.06,2.44,5.06,5.29l-.93,12.32c-.17,2.7-2.45,3.97-4.71,4.08l-1.22,16.72c-.06,.77-.7,1.37-1.48,1.37Z"/><path class="cls-9" d="M170.53,71.21h-6.33c-.77,0-1.42-.6-1.48-1.37l-1.24-16.72c-2.26-.11-4.54-1.38-4.71-4.09l-.93-12.26c0-2.9,2.26-5.27,5.04-5.34h17.26v1.39h-17.24c-2.01,.05-3.67,1.8-3.67,3.9l.93,12.21c.15,2.34,2.54,2.86,3.9,2.8,.2-.01,.35,.05,.49,.17,.14,.12,.26,.32,.27,.51l1.28,17.33s.04,.08,.09,.08h6.33s.08-.04,.09-.08l1.26-17.33c.01-.18,.09-.34,.22-.46q.2-.19,2.1-.2c.73,0,1.47,0,1.59-.01l.03,.68,.49,.53q-.2,.19-2.1,.2c-.35,0-.7,0-.99,0l-1.22,16.69c-.06,.77-.71,1.37-1.48,1.37Z"/><path class="cls-5" d="M193.42,53.15s-.03,0-.05,0c-.38-.03-.67-.36-.64-.75l1.04-14.05c.03-.38,.38-.67,.75-.64,.38,.03,.67,.36,.64,.75l-1.04,14.05c-.03,.37-.33,.64-.69,.64Z"/></g></g></g></g></g></svg>