<?xml version="1.0" encoding="UTF-8"?><svg id="_レイヤー_2" xmlns="http://www.w3.org/2000/svg" xmlns:xlink="http://www.w3.org/1999/xlink" viewBox="0 0 217.74 91.01"><defs><style>.cls-1{fill:#fff;}.cls-2{fill:#333;}.cls-3{fill:url(#_新規グラデーションスウォッチ_1-14);}.cls-4{fill:url(#_新規グラデーションスウォッチ_1-11);}.cls-5{fill:url(#_新規グラデーションスウォッチ_1-13);}.cls-6{fill:url(#_新規グラデーションスウォッチ_1-10);}.cls-7{fill:url(#_新規グラデーションスウォッチ_1-12);}.cls-8{fill:url(#_新規グラデーションスウォッチ_1-15);}.cls-9{fill:url(#_新規グラデーションスウォッチ_1);}.cls-10{fill:url(#_新規グラデーションスウォッチ_1-9);}.cls-11{fill:url(#_新規グラデーションスウォッチ_1-6);}.cls-12{fill:url(#_新規グラデーションスウォッチ_1-5);}.cls-13{fill:url(#_新規グラデーションスウォッチ_1-7);}.cls-14{fill:url(#_新規グラデーションスウォッチ_1-8);}.cls-15{fill:url(#_新規グラデーションスウォッチ_1-2);}.cls-16{fill:url(#_新規グラデーションスウォッチ_1-4);}.cls-17{fill:url(#_新規グラデーションスウォッチ_1-3);}</style><linearGradient id="_新規グラデーションスウォッチ_1" x1="22.37" y1="15.85" x2="46.67" y2="15.85" gradientUnits="userSpaceOnUse"><stop offset="0" stop-color="#0d76a3"/><stop offset="0" stop-color="#0d74a2"/><stop offset=".18" stop-color="#10548a"/><stop offset=".37" stop-color="#133b78"/><stop offset=".56" stop-color="#152a6b"/><stop offset=".76" stop-color="#161f63"/><stop offset="1" stop-color="#171c61"/></linearGradient><linearGradient id="_新規グラデーションスウォッチ_1-2" x1="17.89" y1="45.5" x2="100.04" y2="45.5" xlink:href="#_新規グラデーションスウォッチ_1"/><linearGradient id="_新規グラデーションスウォッチ_1-3" x1="17.89" y1="45.5" x2="100.04" y2="45.5" xlink:href="#_新規グラデーションスウォッチ_1"/><linearGradient id="_新規グラデーションスウォッチ_1-4" x1="17.89" y1="45.5" x2="100.04" y2="45.5" xlink:href="#_新規グラデーションスウォッチ_1"/><linearGradient id="_新規グラデーションスウォッチ_1-5" x1="17.89" y1="45.5" x2="100.04" y2="45.5" xlink:href="#_新規グラデーションスウォッチ_1"/><linearGradient id="_新規グラデーションスウォッチ_1-6" x1="17.89" y1="45.5" x2="100.04" y2="45.5" xlink:href="#_新規グラデーションスウォッチ_1"/><linearGradient id="_新規グラデーションスウォッチ_1-7" x1="144.56" y1="45.5" x2="186.6" y2="45.5" xlink:href="#_新規グラデーションスウォッチ_1"/><linearGradient id="_新規グラデーションスウォッチ_1-8" x1="169.4" y1="42.7" x2="204.45" y2="42.7" xlink:href="#_新規グラデーションスウォッチ_1"/><linearGradient id="_新規グラデーションスウォッチ_1-9" x1="192.61" y1="33.32" x2="200" y2="33.32" xlink:href="#_新規グラデーションスウォッチ_1"/><linearGradient id="_新規グラデーションスウォッチ_1-10" x1="165.01" y1="58.73" x2="176.79" y2="58.73" xlink:href="#_新規グラデーションスウォッチ_1"/><linearGradient id="_新規グラデーションスウォッチ_1-11" x1="151.92" y1="30.89" x2="162.3" y2="30.89" xlink:href="#_新規グラデーションスウォッチ_1"/><linearGradient id="_新規グラデーションスウォッチ_1-12" x1="156.63" y1="31.81" x2="167.72" y2="31.81" xlink:href="#_新規グラデーションスウォッチ_1"/><linearGradient id="_新規グラデーションスウォッチ_1-13" x1="151.92" y1="46.43" x2="162.3" y2="46.43" xlink:href="#_新規グラデーションスウォッチ_1"/><linearGradient id="_新規グラデーションスウォッチ_1-14" x1="156.63" y1="47.36" x2="167.72" y2="47.36" xlink:href="#_新規グラデーションスウォッチ_1"/><linearGradient id="_新規グラデーションスウォッチ_1-15" x1="151.92" y1="61.98" x2="162.3" y2="61.98" xlink:href="#_新規グラデーションスウォッチ_1"/></defs><g id="_レイヤー_1-2"><g><polygon class="cls-1" points="201.73 91.01 0 91.01 16.01 0 217.74 0 201.73 91.01"/><g><g><path d="M22.37,12.33c.01-1.47,.47-2.59,1.36-3.38,.84-.78,1.84-1.17,3-1.17s2.21,.39,3.05,1.18c.85,.79,1.29,1.92,1.32,3.39v7.01c-.03,1.46-.47,2.59-1.32,3.38-.84,.78-1.86,1.18-3.05,1.2-1.16-.01-2.16-.41-3-1.2-.89-.79-1.35-1.91-1.36-3.37v-7.02Zm6.54,.14c-.04-1.59-.77-2.41-2.17-2.44-1.42,.03-2.14,.84-2.16,2.44v6.75c.03,1.61,.75,2.42,2.16,2.43,1.41-.01,2.13-.83,2.17-2.43v-6.75Z"/><path d="M36.05,14.6h.76c.75,0,1.34-.22,1.76-.65,.42-.42,.62-.96,.62-1.62-.01-.67-.23-1.22-.64-1.65-.42-.42-.95-.63-1.61-.65-.47,0-.9,.16-1.29,.47-.41,.31-.68,.8-.82,1.46h-2.21c.11-1.18,.57-2.17,1.38-2.97,.8-.8,1.75-1.21,2.85-1.22,1.4,.01,2.51,.48,3.34,1.38,.79,.89,1.19,1.93,1.2,3.14,0,.61-.11,1.2-.33,1.77-.25,.57-.71,1.07-1.36,1.51,.67,.44,1.15,.96,1.45,1.57,.28,.61,.42,1.25,.42,1.92-.01,1.49-.46,2.66-1.34,3.52-.87,.88-1.98,1.33-3.33,1.34-1.05,0-1.98-.35-2.79-1.04s-1.33-1.7-1.57-3.02h2.21c.2,.53,.48,.96,.83,1.29,.37,.34,.85,.51,1.46,.51,.65,0,1.19-.23,1.64-.69,.45-.43,.68-1.04,.7-1.83-.01-.81-.25-1.43-.7-1.88-.44-.43-1.01-.64-1.69-.64h-.94v-2Z"/><path d="M44.47,21.52h2.2v2.27h-2.2v-2.27Z"/></g><g><path class="cls-9" d="M22.37,12.33c.01-1.47,.47-2.59,1.36-3.38,.84-.78,1.84-1.17,3-1.17s2.21,.39,3.05,1.18c.85,.79,1.29,1.92,1.32,3.39v7.01c-.03,1.46-.47,2.59-1.32,3.38-.84,.78-1.86,1.18-3.05,1.2-1.16-.01-2.16-.41-3-1.2-.89-.79-1.35-1.91-1.36-3.37v-7.02Zm6.54,.14c-.04-1.59-.77-2.41-2.17-2.44-1.42,.03-2.14,.84-2.16,2.44v6.75c.03,1.61,.75,2.42,2.16,2.43,1.41-.01,2.13-.83,2.17-2.43v-6.75Z"/><path class="cls-9" d="M36.05,14.6h.76c.75,0,1.34-.22,1.76-.65,.42-.42,.62-.96,.62-1.62-.01-.67-.23-1.22-.64-1.65-.42-.42-.95-.63-1.61-.65-.47,0-.9,.16-1.29,.47-.41,.31-.68,.8-.82,1.46h-2.21c.11-1.18,.57-2.17,1.38-2.97,.8-.8,1.75-1.21,2.85-1.22,1.4,.01,2.51,.48,3.34,1.38,.79,.89,1.19,1.93,1.2,3.14,0,.61-.11,1.2-.33,1.77-.25,.57-.71,1.07-1.36,1.51,.67,.44,1.15,.96,1.45,1.57,.28,.61,.42,1.25,.42,1.92-.01,1.49-.46,2.66-1.34,3.52-.87,.88-1.98,1.33-3.33,1.34-1.05,0-1.98-.35-2.79-1.04s-1.33-1.7-1.57-3.02h2.21c.2,.53,.48,.96,.83,1.29,.37,.34,.85,.51,1.46,.51,.65,0,1.19-.23,1.64-.69,.45-.43,.68-1.04,.7-1.83-.01-.81-.25-1.43-.7-1.88-.44-.43-1.01-.64-1.69-.64h-.94v-2Z"/><path class="cls-9" d="M44.47,21.52h2.2v2.27h-2.2v-2.27Z"/></g></g><g><g><path class="cls-2" d="M26.29,44.32h3.26c.69,0,1.76-.02,2.34-.03v1.32c-.62-.02-1.71-.03-2.34-.03h-3.26v.62h3.73c1.05,0,2.48-.02,3.33-.07v1.39c-.89-.03-2.31-.07-3.33-.07h-8.8c-.92,0-2.43,.03-3.33,.07v-1.39c.87,.05,2.38,.07,3.33,.07h3.48v-.62h-3c-.7,0-1.64,.02-2.34,.03v-1.32c.65,.02,1.61,.03,2.34,.03h3v-.62h-2.95c-.55,0-1.49,.02-1.99,.03v-1.32c.49,.03,1.36,.05,1.99,.05h2.95v-.52h-3.48c-.92,0-2.43,.02-3.33,.05v-1.36c.87,.03,2.38,.07,3.33,.07h3.48v-.5h-2.95c-.55,0-1.49,.02-1.99,.05v-1.32c.49,.02,1.36,.03,1.99,.03h2.95c0-.55,0-.77-.02-1.27l1.62,.12c.2,.02,.3,.07,.3,.17s-.08,.2-.32,.33v.65h3.03q1.47,0,1.96-.02-.02,.28-.03,1.47v.27c.77,0,1.56-.03,2.11-.05v1.36c-.57-.02-1.36-.03-2.11-.05v.4c0,.62,0,.84,.05,1.66h-1.62v-.3h-3.38v.62Zm-4.5,8.96h-1.64c.02-.38,.03-.95,.03-1.77v-1.94c0-.54-.02-1.17-.03-1.47,.59,.02,1.09,.02,1.84,.02h7.21c.75,0,1.27,0,1.86-.02-.03,.3-.05,.94-.05,1.47v1.74c0,.79,.02,1.36,.05,1.74h-1.66v-.4h-7.62v.64Zm7.62-3.45v-.49h-7.62v.49h7.62Zm-7.62,1.57h7.62v-.43h-7.62v.43Zm7.88-10.7v-.5h-3.38v.5h3.38Zm0,1.76v-.52h-3.38v.52h3.38Z"/><path class="cls-2" d="M37.68,45.79c.03-.49,.03-1.1,.03-1.94-.67,.75-1.44,1.31-2.68,2.04-.2-.49-.49-.95-.75-1.29,1.36-.72,2.06-1.19,2.8-1.96h-.82c-.49,0-1.19,.02-1.67,.03v-1.47c.49,.02,1.19,.03,1.67,.03h1.46v-.87c0-1.32-.02-2.03-.05-2.51l1.64,.12c.17,0,.28,.07,.28,.17s-.1,.18-.32,.33c-.02,.38-.02,.84-.02,1.89v.87h1.41c.49,0,1.19-.02,1.67-.03v1.47c-.49-.02-1.19-.03-1.67-.03h-1.41v.1c1.07,.43,1.79,.84,2.88,1.61l-.94,1.16c-.64-.54-1.17-.95-1.94-1.41,.02,.77,.02,1.32,.05,1.69h-1.62Zm1.24,3.2c-.03,.08-.05,.17-.07,.25,1.07,.38,1.84,.77,2.71,1.41l-.97,1.19c-.99-.74-1.52-1.09-2.23-1.41-.05,.12-.13,.23-.2,.35-.62,.99-1.42,1.66-2.93,2.51-.42-.77-.52-.92-.82-1.27,1.62-.89,2.48-1.69,2.9-3.03h-1.09c-.49,0-1.19,.02-1.66,.03v-1.47c.47,.02,1.17,.03,1.66,.03h1.37c.05-.43,.07-.92,.08-1.46l1.59,.18c.2,.02,.32,.1,.32,.22s-.03,.13-.35,.27c-.03,.28-.05,.54-.08,.79h1.51c.49,0,1.19-.02,1.67-.03v1.47c-.49-.02-1.19-.03-1.67-.03h-1.74Zm-2.64-10.65c.54,.75,.8,1.24,1.24,2.28l-1.27,.6c-.27-.79-.65-1.57-1.1-2.26l1.14-.62Zm3.2,2.26c.47-.85,.77-1.56,.99-2.28l1.29,.49c.17,.07,.22,.12,.22,.2s0,.08-.33,.22q-.64,1.34-1.04,1.99l-1.12-.62Zm6.75,10.34c.15,.08,.18,.13,.18,.2,0,.13-.12,.2-.37,.2-1.37,.89-2.56,1.41-4.54,1.98-.23-.74-.35-1-.65-1.46,2.21-.54,3.06-.87,4.25-1.62l1.12,.7Zm.95-11.03c-.2,.47-.4,.94-.62,1.39h1.44c.57,0,.97-.02,1.42-.03q-.03,.54-.05,2.66v3.35c0,1.32,.02,2.31,.05,2.95h-1.59v-.47h-3.35v.54h-1.57c.03-.67,.05-1.64,.05-2.93v-3.43c0-1-.02-2.13-.05-2.66,.43,.02,.84,.03,1.42,.03h.69c.18-.45,.32-.92,.45-1.39h-.82c-.72,0-1.66,.02-2.34,.05v-1.62c.64,.02,1.59,.03,2.34,.03h3.18c.69,0,1.76-.02,2.34-.03v1.62c-.62-.03-1.69-.05-2.34-.05h-.65Zm.65,3.7v-.82h-3.35v.82h3.35Zm-3.35,2.33h3.35v-.89h-3.35v.89Zm0,2.33h3.35v-.89h-3.35v.89Zm3.08,1.98c1.29,.84,1.67,1.04,3,1.59-.27,.38-.57,.89-.77,1.31-1.37-.62-2.06-1.02-3.15-1.89l.92-1Z"/><path class="cls-2" d="M59.95,42.14c.13,.07,.2,.13,.2,.2,0,.1-.08,.2-.23,.29-.6,2.49-.87,3.35-1.54,4.85-.99,2.23-2.08,3.25-3.48,3.25-.92,0-1.59-.4-2.08-1.19-.42-.74-.65-1.62-.65-2.56,0-2.09,1.19-4.15,3.15-5.42,1.22-.8,2.59-1.21,4.17-1.21,1.77,0,3.33,.49,4.6,1.41,1.41,1.04,2.11,2.48,2.11,4.34,0,2.21-1.04,3.88-3.16,5.05-.67,.37-1.94,.85-3.11,1.19-.32-.87-.43-1.1-.89-1.67,1.76-.42,2.43-.65,3.35-1.21,1.34-.79,2.06-1.98,2.06-3.38,0-1.72-1.04-3.15-2.81-3.85-.64-.25-1.37-.4-1.91-.4h-.33l.57,.32Zm-4.37,1.14c-1.07,1.07-1.67,2.44-1.67,3.78,0,1.19,.38,1.92,1,1.92,.54,0,1-.52,1.61-1.77,.97-2.03,1.56-3.87,1.67-5.31-1.19,.25-1.86,.6-2.61,1.37Z"/><path class="cls-2" d="M71.7,46.19c-.4,1.49-.82,2.75-1.49,4.55q-.18,.49-.57,1.42c-.08,.18-.08,.2-.18,.47v.12c0,.13-.05,.23-.15,.23q-.07,0-.23-.15l-1.19-.99c.85-1.57,1.74-3.85,2.56-6.53l1.26,.87Zm-2.59-4.52c.87,.75,1.42,1.34,2.09,2.19l-1.31,1.04c-.77-1.04-1.1-1.42-1.92-2.21l1.14-1.02Zm1.07-3.55c.82,.7,1.25,1.17,1.99,2.11l-1.34,1.02c-.62-.9-.95-1.31-1.82-2.18l1.17-.95Zm4.7,10.11c.1,.03,.15,.1,.15,.17,0,.12-.05,.15-.29,.22-.62,1.71-.99,2.29-2.13,3.52-.35-.49-.57-.72-1.07-1.12,1.02-.94,1.49-1.74,1.98-3.3l1.36,.52Zm3.93-5.14c1.12,1.56,2.39,2.29,4.94,3.05-.25,.4-.55,.9-.87,1.49-2.91-1.07-4.27-2.08-5.41-4.18-.15,.32-.33,.64-.55,.95-.33,.52-.69,.95-1.1,1.34l1.79,.12c.13,.02,.23,.08,.23,.18s-.08,.18-.3,.32q-.02,.32-.05,1.84v1.47c0,.27,.03,.99,.05,1.49,0,.03,.02,.07,.02,.22,0,1.47-.57,1.81-3.1,1.81h-.13c-.05-.69-.1-.92-.32-1.77,.52,.05,.75,.07,1.09,.07,.74,0,.8-.05,.8-.7v-2.58c0-1.05-.07-2.09-.12-2.41-.77,.72-1.74,1.32-3.21,2.04-.3-.65-.42-.85-.77-1.37,2.14-.92,3.3-1.89,4.1-3.36h-1.51c-.7,0-1.64,.03-2.33,.05v-1.62c.64,.03,1.59,.05,2.33,.05h2.13c.13-.49,.22-.99,.3-1.47-.94,.12-2.03,.22-3.8,.39-.08-.62-.17-.95-.4-1.47,3.55-.22,5.74-.52,8.5-1.15l1.22,1.02c.08,.07,.13,.15,.13,.22,0,.08-.1,.15-.23,.15-.05,0-.13,0-.33-.02-1.59,.3-2.61,.5-3.5,.64-.08,.57-.18,1.14-.3,1.71h2.7c.69,0,1.76-.02,2.34-.05v1.62c-.62-.02-1.71-.05-2.34-.05h-1.99Zm.07,4.62c1.02,1.16,1.47,1.83,2.23,3.33l-1.36,.82c-.75-1.59-1.29-2.49-1.97-3.36l1.1-.79Zm2.73-.18c1.04,1.17,1.47,1.84,2.23,3.36l-1.39,.79c-.75-1.59-1.31-2.49-1.99-3.35l1.16-.8Z"/><path class="cls-2" d="M86.31,38.62c.65,.7,1.29,1.66,1.81,2.7l-1.42,.87c-.55-1.19-.8-1.59-1.64-2.75l1.26-.82Zm1.1,14.65h-1.64c.02-.65,.05-2.21,.05-3.26v-4.18q-.02-2.75-.05-3.26c.65,.03,1.62,.07,2.51,.07h.22v-3.2c0-.77,0-.97-.03-1.56l1.67,.12c.18,0,.3,.07,.3,.17s-.1,.2-.32,.33v4.13h.38c.89,0,1.84-.03,2.49-.07q-.03,.54-.05,3.26v3.85c0,.3,.03,1.21,.05,1.79v.22c0,1.24-.55,1.51-3.08,1.51h-.13c-.03-.59-.12-1-.32-1.72,.52,.05,.75,.07,1.05,.07,.79,0,.84-.05,.84-.7v-1.44h-3.95v3.88Zm3.95-9.16h-3.95v1.22h3.95v-1.22Zm-3.95,3.83h3.95v-1.17h-3.95v1.17Zm6.11-8.7c.15,.07,.18,.12,.18,.2,0,.15-.07,.18-.38,.23-.1,.18-.18,.33-.23,.42q-.57,1.05-1.39,2.28l-1.26-.8c.77-1.21,1.21-2.04,1.52-2.98l1.56,.65Zm2.8,.3c.17,.02,.28,.08,.28,.17,0,.1-.1,.2-.32,.33q-.02,.32-.02,2.86v3.3c0,1.54,.02,2.64,.05,3.41h-1.72c.03-.74,.05-1.89,.05-3.41v-3.3c0-1.89-.02-2.95-.07-3.48l1.74,.12Zm3.48-1.26c.13,0,.23,.08,.23,.17,0,.1-.08,.18-.3,.32q-.02,.59-.02,4.32v4.12c0,.85,.02,1.94,.05,4.25v.17c0,.69-.13,1-.55,1.22-.49,.27-.89,.32-2.68,.33-.03-.67-.08-.97-.32-1.72,.5,.05,.8,.07,1.17,.07,.64,0,.7-.07,.7-.7v-7.73c0-2.75-.03-4.4-.1-4.92l1.81,.12Z"/></g><g><path class="cls-15" d="M26.29,44.32h3.26c.69,0,1.76-.02,2.34-.03v1.32c-.62-.02-1.71-.03-2.34-.03h-3.26v.62h3.73c1.05,0,2.48-.02,3.33-.07v1.39c-.89-.03-2.31-.07-3.33-.07h-8.8c-.92,0-2.43,.03-3.33,.07v-1.39c.87,.05,2.38,.07,3.33,.07h3.48v-.62h-3c-.7,0-1.64,.02-2.34,.03v-1.32c.65,.02,1.61,.03,2.34,.03h3v-.62h-2.95c-.55,0-1.49,.02-1.99,.03v-1.32c.49,.03,1.36,.05,1.99,.05h2.95v-.52h-3.48c-.92,0-2.43,.02-3.33,.05v-1.36c.87,.03,2.38,.07,3.33,.07h3.48v-.5h-2.95c-.55,0-1.49,.02-1.99,.05v-1.32c.49,.02,1.36,.03,1.99,.03h2.95c0-.55,0-.77-.02-1.27l1.62,.12c.2,.02,.3,.07,.3,.17s-.08,.2-.32,.33v.65h3.03q1.47,0,1.96-.02-.02,.28-.03,1.47v.27c.77,0,1.56-.03,2.11-.05v1.36c-.57-.02-1.36-.03-2.11-.05v.4c0,.62,0,.84,.05,1.66h-1.62v-.3h-3.38v.62Zm-4.5,8.96h-1.64c.02-.38,.03-.95,.03-1.77v-1.94c0-.54-.02-1.17-.03-1.47,.59,.02,1.09,.02,1.84,.02h7.21c.75,0,1.27,0,1.86-.02-.03,.3-.05,.94-.05,1.47v1.74c0,.79,.02,1.36,.05,1.74h-1.66v-.4h-7.62v.64Zm7.62-3.45v-.49h-7.62v.49h7.62Zm-7.62,1.57h7.62v-.43h-7.62v.43Zm7.88-10.7v-.5h-3.38v.5h3.38Zm0,1.76v-.52h-3.38v.52h3.38Z"/><path class="cls-17" d="M37.68,45.79c.03-.49,.03-1.1,.03-1.94-.67,.75-1.44,1.31-2.68,2.04-.2-.49-.49-.95-.75-1.29,1.36-.72,2.06-1.19,2.8-1.96h-.82c-.49,0-1.19,.02-1.67,.03v-1.47c.49,.02,1.19,.03,1.67,.03h1.46v-.87c0-1.32-.02-2.03-.05-2.51l1.64,.12c.17,0,.28,.07,.28,.17s-.1,.18-.32,.33c-.02,.38-.02,.84-.02,1.89v.87h1.41c.49,0,1.19-.02,1.67-.03v1.47c-.49-.02-1.19-.03-1.67-.03h-1.41v.1c1.07,.43,1.79,.84,2.88,1.61l-.94,1.16c-.64-.54-1.17-.95-1.94-1.41,.02,.77,.02,1.32,.05,1.69h-1.62Zm1.24,3.2c-.03,.08-.05,.17-.07,.25,1.07,.38,1.84,.77,2.71,1.41l-.97,1.19c-.99-.74-1.52-1.09-2.23-1.41-.05,.12-.13,.23-.2,.35-.62,.99-1.42,1.66-2.93,2.51-.42-.77-.52-.92-.82-1.27,1.62-.89,2.48-1.69,2.9-3.03h-1.09c-.49,0-1.19,.02-1.66,.03v-1.47c.47,.02,1.17,.03,1.66,.03h1.37c.05-.43,.07-.92,.08-1.46l1.59,.18c.2,.02,.32,.1,.32,.22s-.03,.13-.35,.27c-.03,.28-.05,.54-.08,.79h1.51c.49,0,1.19-.02,1.67-.03v1.47c-.49-.02-1.19-.03-1.67-.03h-1.74Zm-2.64-10.65c.54,.75,.8,1.24,1.24,2.28l-1.27,.6c-.27-.79-.65-1.57-1.1-2.26l1.14-.62Zm3.2,2.26c.47-.85,.77-1.56,.99-2.28l1.29,.49c.17,.07,.22,.12,.22,.2s0,.08-.33,.22q-.64,1.34-1.04,1.99l-1.12-.62Zm6.75,10.34c.15,.08,.18,.13,.18,.2,0,.13-.12,.2-.37,.2-1.37,.89-2.56,1.41-4.54,1.98-.23-.74-.35-1-.65-1.46,2.21-.54,3.06-.87,4.25-1.62l1.12,.7Zm.95-11.03c-.2,.47-.4,.94-.62,1.39h1.44c.57,0,.97-.02,1.42-.03q-.03,.54-.05,2.66v3.35c0,1.32,.02,2.31,.05,2.95h-1.59v-.47h-3.35v.54h-1.57c.03-.67,.05-1.64,.05-2.93v-3.43c0-1-.02-2.13-.05-2.66,.43,.02,.84,.03,1.42,.03h.69c.18-.45,.32-.92,.45-1.39h-.82c-.72,0-1.66,.02-2.34,.05v-1.62c.64,.02,1.59,.03,2.34,.03h3.18c.69,0,1.76-.02,2.34-.03v1.62c-.62-.03-1.69-.05-2.34-.05h-.65Zm.65,3.7v-.82h-3.35v.82h3.35Zm-3.35,2.33h3.35v-.89h-3.35v.89Zm0,2.33h3.35v-.89h-3.35v.89Zm3.08,1.98c1.29,.84,1.67,1.04,3,1.59-.27,.38-.57,.89-.77,1.31-1.37-.62-2.06-1.02-3.15-1.89l.92-1Z"/><path class="cls-16" d="M59.95,42.14c.13,.07,.2,.13,.2,.2,0,.1-.08,.2-.23,.29-.6,2.49-.87,3.35-1.54,4.85-.99,2.23-2.08,3.25-3.48,3.25-.92,0-1.59-.4-2.08-1.19-.42-.74-.65-1.62-.65-2.56,0-2.09,1.19-4.15,3.15-5.42,1.22-.8,2.59-1.21,4.17-1.21,1.77,0,3.33,.49,4.6,1.41,1.41,1.04,2.11,2.48,2.11,4.34,0,2.21-1.04,3.88-3.16,5.05-.67,.37-1.94,.85-3.11,1.19-.32-.87-.43-1.1-.89-1.67,1.76-.42,2.43-.65,3.35-1.21,1.34-.79,2.06-1.98,2.06-3.38,0-1.72-1.04-3.15-2.81-3.85-.64-.25-1.37-.4-1.91-.4h-.33l.57,.32Zm-4.37,1.14c-1.07,1.07-1.67,2.44-1.67,3.78,0,1.19,.38,1.92,1,1.92,.54,0,1-.52,1.61-1.77,.97-2.03,1.56-3.87,1.67-5.31-1.19,.25-1.86,.6-2.61,1.37Z"/><path class="cls-12" d="M71.7,46.19c-.4,1.49-.82,2.75-1.49,4.55q-.18,.49-.57,1.42c-.08,.18-.08,.2-.18,.47v.12c0,.13-.05,.23-.15,.23q-.07,0-.23-.15l-1.19-.99c.85-1.57,1.74-3.85,2.56-6.53l1.26,.87Zm-2.59-4.52c.87,.75,1.42,1.34,2.09,2.19l-1.31,1.04c-.77-1.04-1.1-1.42-1.92-2.21l1.14-1.02Zm1.07-3.55c.82,.7,1.25,1.17,1.99,2.11l-1.34,1.02c-.62-.9-.95-1.31-1.82-2.18l1.17-.95Zm4.7,10.11c.1,.03,.15,.1,.15,.17,0,.12-.05,.15-.29,.22-.62,1.71-.99,2.29-2.13,3.52-.35-.49-.57-.72-1.07-1.12,1.02-.94,1.49-1.74,1.98-3.3l1.36,.52Zm3.93-5.14c1.12,1.56,2.39,2.29,4.94,3.05-.25,.4-.55,.9-.87,1.49-2.91-1.07-4.27-2.08-5.41-4.18-.15,.32-.33,.64-.55,.95-.33,.52-.69,.95-1.1,1.34l1.79,.12c.13,.02,.23,.08,.23,.18s-.08,.18-.3,.32q-.02,.32-.05,1.84v1.47c0,.27,.03,.99,.05,1.49,0,.03,.02,.07,.02,.22,0,1.47-.57,1.81-3.1,1.81h-.13c-.05-.69-.1-.92-.32-1.77,.52,.05,.75,.07,1.09,.07,.74,0,.8-.05,.8-.7v-2.58c0-1.05-.07-2.09-.12-2.41-.77,.72-1.74,1.32-3.21,2.04-.3-.65-.42-.85-.77-1.37,2.14-.92,3.3-1.89,4.1-3.36h-1.51c-.7,0-1.64,.03-2.33,.05v-1.62c.64,.03,1.59,.05,2.33,.05h2.13c.13-.49,.22-.99,.3-1.47-.94,.12-2.03,.22-3.8,.39-.08-.62-.17-.95-.4-1.47,3.55-.22,5.74-.52,8.5-1.15l1.22,1.02c.08,.07,.13,.15,.13,.22,0,.08-.1,.15-.23,.15-.05,0-.13,0-.33-.02-1.59,.3-2.61,.5-3.5,.64-.08,.57-.18,1.14-.3,1.71h2.7c.69,0,1.76-.02,2.34-.05v1.62c-.62-.02-1.71-.05-2.34-.05h-1.99Zm.07,4.62c1.02,1.16,1.47,1.83,2.23,3.33l-1.36,.82c-.75-1.59-1.29-2.49-1.97-3.36l1.1-.79Zm2.73-.18c1.04,1.17,1.47,1.84,2.23,3.36l-1.39,.79c-.75-1.59-1.31-2.49-1.99-3.35l1.16-.8Z"/><path class="cls-11" d="M86.31,38.62c.65,.7,1.29,1.66,1.81,2.7l-1.42,.87c-.55-1.19-.8-1.59-1.64-2.75l1.26-.82Zm1.1,14.65h-1.64c.02-.65,.05-2.21,.05-3.26v-4.18q-.02-2.75-.05-3.26c.65,.03,1.62,.07,2.51,.07h.22v-3.2c0-.77,0-.97-.03-1.56l1.67,.12c.18,0,.3,.07,.3,.17s-.1,.2-.32,.33v4.13h.38c.89,0,1.84-.03,2.49-.07q-.03,.54-.05,3.26v3.85c0,.3,.03,1.21,.05,1.79v.22c0,1.24-.55,1.51-3.08,1.51h-.13c-.03-.59-.12-1-.32-1.72,.52,.05,.75,.07,1.05,.07,.79,0,.84-.05,.84-.7v-1.44h-3.95v3.88Zm3.95-9.16h-3.95v1.22h3.95v-1.22Zm-3.95,3.83h3.95v-1.17h-3.95v1.17Zm6.11-8.7c.15,.07,.18,.12,.18,.2,0,.15-.07,.18-.38,.23-.1,.18-.18,.33-.23,.42q-.57,1.05-1.39,2.28l-1.26-.8c.77-1.21,1.21-2.04,1.52-2.98l1.56,.65Zm2.8,.3c.17,.02,.28,.08,.28,.17,0,.1-.1,.2-.32,.33q-.02,.32-.02,2.86v3.3c0,1.54,.02,2.64,.05,3.41h-1.72c.03-.74,.05-1.89,.05-3.41v-3.3c0-1.89-.02-2.95-.07-3.48l1.74,.12Zm3.48-1.26c.13,0,.23,.08,.23,.17,0,.1-.08,.18-.3,.32q-.02,.59-.02,4.32v4.12c0,.85,.02,1.94,.05,4.25v.17c0,.69-.13,1-.55,1.22-.49,.27-.89,.32-2.68,.33-.03-.67-.08-.97-.32-1.72,.5,.05,.8,.07,1.17,.07,.64,0,.7-.07,.7-.7v-7.73c0-2.75-.03-4.4-.1-4.92l1.81,.12Z"/></g></g><g><g><path class="cls-13" d="M185.2,72.5h-39.24c-.77,0-1.4-.63-1.4-1.4V19.9c0-.77,.63-1.4,1.4-1.4h39.24c.77,0,1.4,.63,1.4,1.4v51.2c0,.77-.63,1.4-1.4,1.4Zm-39.18-1.46h39.11V19.97h-39.11v51.07Z"/><g><g><path class="cls-1" d="M176.06,60.71c-.32,0-.63-.13-.86-.36l-5.93-5.93c-.48-.48-.48-1.25,0-1.72l27.66-27.66c.23-.23,.54-.36,.86-.36h0c.32,0,.63,.13,.86,.36l5.93,5.93c.48,.48,.48,1.25,0,1.72l-27.66,27.66c-.23,.23-.54,.36-.86,.36Z"/><path class="cls-1" d="M197.79,25.91l5.93,5.93-27.66,27.66-5.93-5.93,27.66-27.66m0-2.44c-.65,0-1.27,.26-1.72,.71l-27.66,27.66c-.46,.46-.71,1.08-.71,1.72s.26,1.27,.71,1.72l5.93,5.93c.48,.48,1.1,.71,1.72,.71s1.25-.24,1.72-.71l27.66-27.66c.95-.95,.95-2.5,0-3.45l-5.93-5.93c-.46-.46-1.08-.71-1.72-.71h0Z"/></g><path class="cls-14" d="M176.06,60.23c-.19,0-.38-.08-.52-.21l-5.93-5.93c-.29-.29-.29-.75,0-1.03l27.66-27.66c.14-.14,.32-.21,.52-.21h0c.19,0,.38,.08,.52,.21l5.93,5.93c.29,.29,.29,.75,0,1.03l-27.66,27.66c-.14,.14-.32,.21-.52,.21Zm-4.89-6.66l4.89,4.89,26.62-26.62-4.89-4.89-26.62,26.62Z"/><path class="cls-10" d="M199.27,37.01c-.19,0-.37-.07-.52-.21l-5.93-5.93c-.29-.29-.29-.75,0-1.03,.29-.29,.75-.29,1.04,0l5.93,5.93c.29,.29,.29,.75,0,1.03-.14,.14-.33,.21-.52,.21Z"/><path class="cls-6" d="M165.74,64.62c-.19,0-.38-.07-.52-.21-.21-.21-.27-.53-.16-.8l4.39-10.32c.1-.22,.3-.39,.53-.43,.24-.05,.48,.03,.66,.2l5.93,5.93c.17,.17,.25,.42,.2,.66-.05,.24-.21,.44-.43,.53l-10.32,4.39c-.09,.04-.19,.06-.29,.06Zm4.64-9.77l-3.26,7.65,7.65-3.26-4.39-4.39Z"/></g></g><g><g><path class="cls-4" d="M152.65,36.08c-.4,0-.73-.33-.73-.73v-8.91c0-.4,.33-.73,.73-.73h8.91c.4,0,.73,.33,.73,.73s-.33,.73-.73,.73h-8.18v8.18c0,.4-.33,.73-.73,.73Z"/><path class="cls-7" d="M160.39,37s-.02,0-.03,0c-.24-.01-.46-.14-.59-.35l-3.03-4.9c-.21-.34-.11-.79,.24-1.01,.34-.21,.8-.11,1.01,.24l2.46,3.98,5.96-8.05c.24-.32,.7-.39,1.02-.15,.32,.24,.39,.7,.15,1.02l-6.6,8.91c-.14,.19-.36,.3-.59,.3Z"/></g><g><path class="cls-5" d="M152.65,51.62c-.4,0-.73-.33-.73-.73v-8.91c0-.4,.33-.73,.73-.73h8.91c.4,0,.73,.33,.73,.73s-.33,.73-.73,.73h-8.18v8.18c0,.4-.33,.73-.73,.73Z"/><path class="cls-3" d="M160.39,52.55s-.02,0-.03,0c-.24-.01-.46-.14-.59-.35l-3.03-4.9c-.21-.34-.11-.79,.24-1.01,.34-.21,.8-.11,1.01,.24l2.46,3.98,5.96-8.05c.24-.32,.7-.39,1.02-.15,.32,.24,.39,.7,.15,1.02l-6.6,8.91c-.14,.19-.36,.3-.59,.3Z"/></g><path class="cls-8" d="M152.65,67.16c-.4,0-.73-.33-.73-.73v-8.91c0-.4,.33-.73,.73-.73h8.91c.4,0,.73,.33,.73,.73s-.33,.73-.73,.73h-8.18v8.18c0,.4-.33,.73-.73,.73Z"/></g></g></g></g></svg>