<?xml version="1.0" encoding="UTF-8"?><svg id="_レイヤー_2" xmlns="http://www.w3.org/2000/svg" xmlns:xlink="http://www.w3.org/1999/xlink" viewBox="0 0 185.42 77.5"><defs><style>.cls-1{fill:none;stroke:url(#_新規グラデーションスウォッチ_1-2);stroke-linecap:round;stroke-linejoin:round;stroke-width:2px;}.cls-2{fill:#fff;}.cls-3{fill:url(#_新規グラデーションスウォッチ_1);}</style><linearGradient id="_新規グラデーションスウォッチ_1" x1="19.17" y1="12.87" x2="38.32" y2="12.87" gradientUnits="userSpaceOnUse"><stop offset="0" stop-color="#0d76a3"/><stop offset="0" stop-color="#0d74a2"/><stop offset=".18" stop-color="#10548a"/><stop offset=".37" stop-color="#133b78"/><stop offset=".56" stop-color="#152a6b"/><stop offset=".76" stop-color="#161f63"/><stop offset="1" stop-color="#171c61"/></linearGradient><linearGradient id="_新規グラデーションスウォッチ_1-2" x1="63.31" y1="38.75" x2="122.11" y2="38.75" xlink:href="#_新規グラデーションスウォッチ_1"/></defs><g id="_レイヤー_1-2"><g><polygon class="cls-2" points="171.78 77.5 0 77.5 13.63 0 185.42 0 171.78 77.5"/><g><g><path d="M19.17,10.1c.01-1.15,.37-2.04,1.07-2.67,.66-.62,1.45-.93,2.36-.93s1.75,.31,2.41,.93c.67,.62,1.02,1.51,1.04,2.67v5.52c-.02,1.15-.37,2.04-1.04,2.66-.66,.62-1.46,.93-2.41,.94-.92-.01-1.7-.33-2.36-.94-.71-.62-1.06-1.51-1.07-2.66v-5.53Zm5.15,.11c-.03-1.26-.6-1.9-1.71-1.92-1.11,.02-1.68,.66-1.71,1.92v5.32c.02,1.27,.59,1.91,1.71,1.92,1.11-.01,1.68-.65,1.71-1.92v-5.32Z"/><path d="M30.28,8.51l-1.72,1.31v-1.91l1.72-1.29h1.73v12.52h-1.73V8.51Z"/><path d="M36.59,17.35h1.73v1.79h-1.73v-1.79Z"/></g><g><path class="cls-3" d="M19.17,10.1c.01-1.15,.37-2.04,1.07-2.67,.66-.62,1.45-.93,2.36-.93s1.75,.31,2.41,.93c.67,.62,1.02,1.51,1.04,2.67v5.52c-.02,1.15-.37,2.04-1.04,2.66-.66,.62-1.46,.93-2.41,.94-.92-.01-1.7-.33-2.36-.94-.71-.62-1.06-1.51-1.07-2.66v-5.53Zm5.15,.11c-.03-1.26-.6-1.9-1.71-1.92-1.11,.02-1.68,.66-1.71,1.92v5.32c.02,1.27,.59,1.91,1.71,1.92,1.11-.01,1.68-.65,1.71-1.92v-5.32Z"/><path class="cls-3" d="M30.28,8.51l-1.72,1.31v-1.91l1.72-1.29h1.73v12.52h-1.73V8.51Z"/><path class="cls-3" d="M36.59,17.35h1.73v1.79h-1.73v-1.79Z"/></g></g><path class="cls-1" d="M64.31,62.16l21.21-39.5,13.84,27.2m.68-8.11l5.59-5.62,15.48,26.05m-32.32-4.79c-.08-.24-.13-.49-.13-.76h0c0-1.26,1.03-2.29,2.29-2.29h12.19c1.26,0,2.29,1.03,2.29,2.29h0c0,.37-.09,.72-.24,1.03h5.3c1.4,0,3.03,1.15,3.03,2.55h0c0,1.4-1.63,2.55-3.03,2.55h-3.32c.74,.45,1.24,1.26,1.24,2.19h0c0,.94-.51,1.76-1.27,2.2h-30.64c-5.78-.12-4.46-5.64-.05-5.52h3.63c-.07-.25-.1-.51-.1-.78h0c0-1.64,1.34-3.47,2.99-3.47h5.84Zm-16.04-10.93l9.74-9.37,3.1,8.03,3.27-6.68,8.11,6.73m-11.45-22.51V10.36m0,6.73h19.25l-6.7-3.37,6.7-3.37h-19.25"/></g></g></svg>