<?xml version="1.0" encoding="UTF-8"?><svg id="_レイヤー_2" xmlns="http://www.w3.org/2000/svg" xmlns:xlink="http://www.w3.org/1999/xlink" viewBox="0 0 185.42 77.5"><defs><style>.cls-1{fill:none;stroke:url(#_新規グラデーションスウォッチ_1-2);stroke-linecap:round;stroke-linejoin:round;stroke-width:2px;}.cls-2{fill:#fff;}.cls-3{fill:url(#_新規グラデーションスウォッチ_1);}</style><linearGradient id="_新規グラデーションスウォッチ_1" x1="20.93" y1="12.87" x2="40.08" y2="12.87" gradientUnits="userSpaceOnUse"><stop offset="0" stop-color="#0d76a3"/><stop offset="0" stop-color="#0d74a2"/><stop offset=".18" stop-color="#10548a"/><stop offset=".37" stop-color="#133b78"/><stop offset=".56" stop-color="#152a6b"/><stop offset=".76" stop-color="#161f63"/><stop offset="1" stop-color="#171c61"/></linearGradient><linearGradient id="_新規グラデーションスウォッチ_1-2" x1="62.63" y1="38.75" x2="122.79" y2="38.75" xlink:href="#_新規グラデーションスウォッチ_1"/></defs><g id="_レイヤー_1-2"><g><polygon class="cls-2" points="171.78 77.5 0 77.5 13.63 0 185.42 0 171.78 77.5"/><g><g><path d="M20.93,10.1c.01-1.15,.37-2.04,1.07-2.67,.66-.62,1.45-.93,2.36-.93s1.75,.31,2.41,.93c.67,.62,1.02,1.51,1.04,2.67v5.52c-.02,1.15-.37,2.04-1.04,2.66-.66,.62-1.46,.93-2.41,.94-.92-.01-1.7-.33-2.36-.94-.71-.62-1.06-1.51-1.07-2.66v-5.53Zm5.15,.11c-.03-1.26-.6-1.9-1.71-1.92-1.11,.02-1.68,.66-1.71,1.92v5.32c.02,1.27,.59,1.91,1.71,1.92,1.11-.01,1.68-.65,1.71-1.92v-5.32Z"/><path d="M29.27,17.45l4.75-6.13c.18-.25,.31-.48,.38-.69,.04-.2,.07-.39,.07-.57,0-.47-.14-.88-.43-1.23-.29-.35-.71-.53-1.25-.54-.48,0-.88,.16-1.19,.47-.33,.32-.52,.76-.58,1.33h-1.73c.04-1.04,.38-1.9,1.02-2.58,.64-.66,1.42-1,2.36-1.01,1.04,.01,1.89,.36,2.54,1.03,.66,.67,1,1.52,1.01,2.55,0,.83-.24,1.56-.73,2.2l-3.9,5.05h4.64v1.79h-6.92v-1.68Z"/><path d="M38.35,17.35h1.73v1.79h-1.73v-1.79Z"/></g><g><path class="cls-3" d="M20.93,10.1c.01-1.15,.37-2.04,1.07-2.67,.66-.62,1.45-.93,2.36-.93s1.75,.31,2.41,.93c.67,.62,1.02,1.51,1.04,2.67v5.52c-.02,1.15-.37,2.04-1.04,2.66-.66,.62-1.46,.93-2.41,.94-.92-.01-1.7-.33-2.36-.94-.71-.62-1.06-1.51-1.07-2.66v-5.53Zm5.15,.11c-.03-1.26-.6-1.9-1.71-1.92-1.11,.02-1.68,.66-1.71,1.92v5.32c.02,1.27,.59,1.91,1.71,1.92,1.11-.01,1.68-.65,1.71-1.92v-5.32Z"/><path class="cls-3" d="M29.27,17.45l4.75-6.13c.18-.25,.31-.48,.38-.69,.04-.2,.07-.39,.07-.57,0-.47-.14-.88-.43-1.23-.29-.35-.71-.53-1.25-.54-.48,0-.88,.16-1.19,.47-.33,.32-.52,.76-.58,1.33h-1.73c.04-1.04,.38-1.9,1.02-2.58,.64-.66,1.42-1,2.36-1.01,1.04,.01,1.89,.36,2.54,1.03,.66,.67,1,1.52,1.01,2.55,0,.83-.24,1.56-.73,2.2l-3.9,5.05h4.64v1.79h-6.92v-1.68Z"/><path class="cls-3" d="M38.35,17.35h1.73v1.79h-1.73v-1.79Z"/></g></g><path class="cls-1" d="M88.01,40.46v5.49l-2.36,8.03c-1.45,4.91-7.25,3.57-6.96-.47l2.94-7.38,.08-6.54,.12-9.43-3.89,7.49c-1.73,4.56-5.49,1.59-4.7-.48l4.73-10.85c1.2-4.59,5.72-2.13,7.87-2.03,5.04,1.18,9.65-2.97,13.42-5.08,3.38-1.9,6.22,2.58,2.48,4.81l-8.97,5.67,.05,3.83,6.42,.32c1.46,.07,2.75,1.95,2.75,3.4v10.08c0,3.97-6.49,3.23-6.49,0l.09-6.46-7.58-.4h0Zm.23-31.21c3.16,0,5.72,2.56,5.72,5.72s-2.56,5.72-5.72,5.72-5.72-2.56-5.72-5.72,2.56-5.72,5.72-5.72h0Zm-24.61,58.99h14.7l-.11-7.35,14.59,.08-.11-7.35,14.59,.08-.11-7.35,14.59,.08m-28.97,12.05v9.74m14.49-16.82v16.82m14.49-21.79v21.79"/></g></g></svg>