<?xml version="1.0" encoding="UTF-8"?>
<svg id="_レイヤー_2" data-name="レイヤー 2" xmlns="http://www.w3.org/2000/svg" xmlns:xlink="http://www.w3.org/1999/xlink" viewBox="0 0 336.92 303.14">
  <defs>
    <style>
      .cls-1 {
        fill: url(#_新規グラデーションスウォッチ_1);
      }

      .cls-1, .cls-2, .cls-3, .cls-4, .cls-5, .cls-6, .cls-7, .cls-8, .cls-9, .cls-10, .cls-11, .cls-12, .cls-13, .cls-14, .cls-15, .cls-16, .cls-17 {
        stroke-width: 0px;
      }

      .cls-2 {
        fill: url(#_名称未設定グラデーション_2-4);
      }

      .cls-3 {
        fill: url(#_名称未設定グラデーション_2-2);
      }

      .cls-4 {
        fill: url(#_名称未設定グラデーション_2-3);
      }

      .cls-5 {
        fill: url(#_新規グラデーションスウォッチ_1-9);
      }

      .cls-6 {
        fill: url(#_新規グラデーションスウォッチ_1-2);
      }

      .cls-7 {
        fill: url(#_新規グラデーションスウォッチ_1-4);
      }

      .cls-8 {
        fill: url(#_新規グラデーションスウォッチ_1-3);
      }

      .cls-9 {
        fill: url(#_新規グラデーションスウォッチ_1-8);
      }

      .cls-10 {
        fill: url(#_新規グラデーションスウォッチ_1-7);
      }

      .cls-11 {
        fill: url(#_新規グラデーションスウォッチ_1-5);
      }

      .cls-12 {
        fill: url(#_新規グラデーションスウォッチ_1-6);
      }

      .cls-13 {
        fill: url(#_名称未設定グラデーション_2);
      }

      .cls-14 {
        fill: #c9c9c9;
      }

      .cls-15 {
        fill: #d5d5d5;
      }

      .cls-16 {
        fill: #333;
      }

      .cls-17 {
        fill: #fff;
      }
    </style>
    <linearGradient id="_新規グラデーションスウォッチ_1" data-name="新規グラデーションスウォッチ 1" x1="47.77" y1="287.88" x2="132.77" y2="287.88" gradientUnits="userSpaceOnUse">
      <stop offset="0" stop-color="#0d76a3"/>
      <stop offset="0" stop-color="#0d74a2"/>
      <stop offset=".18" stop-color="#10548a"/>
      <stop offset=".37" stop-color="#133b78"/>
      <stop offset=".56" stop-color="#152a6b"/>
      <stop offset=".76" stop-color="#161f63"/>
      <stop offset="1" stop-color="#171c61"/>
    </linearGradient>
    <linearGradient id="_新規グラデーションスウォッチ_1-2" data-name="新規グラデーションスウォッチ 1" x1="286.45" y1="16.47" x2="318" y2="16.47" xlink:href="#_新規グラデーションスウォッチ_1"/>
    <linearGradient id="_新規グラデーションスウォッチ_1-3" data-name="新規グラデーションスウォッチ 1" x1="271.59" y1="53.06" x2="279.21" y2="53.06" xlink:href="#_新規グラデーションスウォッチ_1"/>
    <linearGradient id="_新規グラデーションスウォッチ_1-4" data-name="新規グラデーションスウォッチ 1" x1="280.4" y1="53.07" x2="289.34" y2="53.07" xlink:href="#_新規グラデーションスウォッチ_1"/>
    <linearGradient id="_新規グラデーションスウォッチ_1-5" data-name="新規グラデーションスウォッチ 1" x1="290.27" y1="53.09" x2="302.78" y2="53.09" xlink:href="#_新規グラデーションスウォッチ_1"/>
    <linearGradient id="_新規グラデーションスウォッチ_1-6" data-name="新規グラデーションスウォッチ 1" x1="283.2" y1="200.99" x2="336.92" y2="200.99" xlink:href="#_新規グラデーションスウォッチ_1"/>
    <linearGradient id="_新規グラデーションスウォッチ_1-7" data-name="新規グラデーションスウォッチ 1" x1="267.71" y1="219.14" x2="276.14" y2="219.14" xlink:href="#_新規グラデーションスウォッチ_1"/>
    <linearGradient id="_新規グラデーションスウォッチ_1-8" data-name="新規グラデーションスウォッチ 1" x1="277.15" y1="219.14" x2="286.09" y2="219.14" xlink:href="#_新規グラデーションスウォッチ_1"/>
    <linearGradient id="_新規グラデーションスウォッチ_1-9" data-name="新規グラデーションスウォッチ 1" x1="287.02" y1="219.15" x2="299.53" y2="219.15" xlink:href="#_新規グラデーションスウォッチ_1"/>
    <linearGradient id="_名称未設定グラデーション_2" data-name="名称未設定グラデーション 2" x1="105.84" y1="40.07" x2="105.84" y2="235.57" gradientUnits="userSpaceOnUse">
      <stop offset=".29" stop-color="#0d7697"/>
      <stop offset=".3" stop-color="#0d7496"/>
      <stop offset=".42" stop-color="#105483"/>
      <stop offset=".55" stop-color="#133b74"/>
      <stop offset=".69" stop-color="#152a69"/>
      <stop offset=".83" stop-color="#161f63"/>
      <stop offset="1" stop-color="#171c61"/>
    </linearGradient>
    <linearGradient id="_名称未設定グラデーション_2-2" data-name="名称未設定グラデーション 2" x1="56.91" y1="137.3" x2="72.49" y2="137.3" xlink:href="#_名称未設定グラデーション_2"/>
    <linearGradient id="_名称未設定グラデーション_2-3" data-name="名称未設定グラデーション 2" x1="74.24" y1="137.17" x2="90.59" y2="137.17" xlink:href="#_名称未設定グラデーション_2"/>
    <linearGradient id="_名称未設定グラデーション_2-4" data-name="名称未設定グラデーション 2" x1="92.3" y1="137.2" x2="115.19" y2="137.2" xlink:href="#_名称未設定グラデーション_2"/>
  </defs>
  <g id="_レイヤー_1-2" data-name="レイヤー 1">
    <g>
      <g>
        <path class="cls-16" d="m12.63,8.06l-.24.24-3.79-3.78-3.77,3.78-.24-.24,3.77-3.78L4.62.53l.24-.24,3.75,3.75L12.35.29l.24.24-3.75,3.75,3.79,3.78Zm-5.65-3.78c0,.49-.41.9-.9.9s-.9-.41-.9-.9.41-.9.9-.9.9.41.9.9Zm2.51-2.51c0,.49-.41.9-.9.9s-.9-.41-.9-.9.41-.9.9-.9.9.41.9.9Zm0,5.02c0,.49-.41.9-.9.9s-.9-.41-.9-.9.41-.9.9-.9.9.41.9.9Zm2.51-2.51c0,.49-.41.9-.9.9s-.9-.41-.9-.9.41-.9.9-.9.9.41.9.9Z"/>
        <path class="cls-16" d="m18.96,2.78c-.18-.94-.71-1.42-1.57-1.42-1.23,0-2,1.13-2,2.93s.77,2.91,2.02,2.91c.96,0,1.52-.62,1.63-1.83h1.07c-.11,1.85-1.04,2.85-2.66,2.85-2.01,0-3.3-1.53-3.3-3.92,0-1.37.4-2.47,1.16-3.17.56-.51,1.3-.79,2.09-.79.91,0,1.68.36,2.13,1,.28.38.41.8.47,1.44h-1.04Z"/>
        <path class="cls-16" d="m23.57,2.52c1.47,0,2.52,1.19,2.52,2.86s-1.05,2.85-2.52,2.85-2.53-1.19-2.53-2.85,1.05-2.86,2.53-2.86Zm0,4.79c.82,0,1.37-.78,1.37-1.93s-.55-1.95-1.37-1.95-1.38.79-1.38,1.95.55,1.93,1.38,1.93Z"/>
        <path class="cls-16" d="m31.68,6.4c-.06.41-.26.83-.53,1.16-.38.44-.93.67-1.61.67-1.49,0-2.47-1.13-2.47-2.85s.97-2.86,2.48-2.86c1.12,0,1.89.65,2.09,1.78h-1.13c-.14-.59-.46-.87-.99-.87-.8,0-1.3.76-1.3,1.96,0,.7.19,1.29.53,1.64.18.18.46.28.78.28.56,0,.9-.29,1.04-.91h1.11Z"/>
        <path class="cls-16" d="m36.25,2.67h1.36l-2.25,2.47,2.44,2.94h-1.52l-2.13-2.75v2.75h-1.12V.44h1.12v4.59l2.1-2.36Z"/>
        <path class="cls-16" d="m41,.48c1.18,0,1.81.12,2.26.44.56.39.86,1.06.86,1.91,0,.9-.35,1.59-.98,1.95-.42.24-1,.34-2.03.34h-.86v2.96h-1.18V.48h1.93Zm.14,3.63c.6,0,1.03-.07,1.27-.21.31-.19.49-.58.49-1.1,0-.48-.15-.85-.44-1.05-.26-.18-.66-.26-1.35-.26h-.86v2.62h.89Z"/>
        <path class="cls-16" d="m46.46.48v1.23h-1.23V.48h1.23Zm-.06,2.19v5.41h-1.11V2.67h1.11Z"/>
        <path class="cls-16" d="m50.76,2.67l-.02.88h-1.19c0,.65-.04,2.33-.04,2.45v.39c0,.38.02.53.11.64.09.11.26.18.45.18.26,0,.53-.06.81-.18v.94c-.41.16-.73.22-1.1.22-.58,0-1.01-.2-1.24-.58-.14-.22-.19-.47-.19-.94q0-.19.02-.72l.07-2.4h-.83l.02-.88h.84l.04-1.56h1.09l-.03,1.56h1.19Z"/>
        <path class="cls-16" d="m57.31,2.35c-.21-.01-.53-.02-.8-.02h-1.65c-.27,0-.59,0-.8.02v-.95c.22.01.58.02.8.02h1.65c.22,0,.58,0,.8-.02v.95Zm-2,6.43h-.95c.02-.23.03-.57.03-1.06v-1.3c0-.31,0-.7-.03-.88.23.01.44.02.73.02h1.22c.29,0,.5,0,.72-.02-.02.18-.03.57-.03.88v1.24c0,.47,0,.81.03,1.04h-.94v-.32h-.78v.4Zm.97-7.82h-1.79s0-.92,0-.92c.15,0,.41.02.6.02h1.19c.19,0,.45,0,.6-.02v.93h-.6Zm.6,2.74c-.15,0-.41,0-.6,0h-1.19c-.19,0-.45,0-.6,0v-.93c.15,0,.41,0,.6,0h1.19c.19,0,.45,0,.6,0v.93Zm0,1.38c-.15-.01-.41-.01-.6-.01h-1.19c-.19,0-.45,0-.6.01v-.93c.15,0,.41,0,.6,0h1.19c.19,0,.45,0,.6,0v.93Zm-.79,1.27h-.78v1.23h.78v-1.23Zm4.65-4.68h.33c.25,0,.46,0,.6-.02v.88c-.15,0-.41-.02-.6-.02h-.33v.74h1.08s0,.85,0,.85h-.6s-1.81-.01-1.81-.01h-.6s0-.85,0-.85h.6s.44,0,.44,0v-.74h-.27c-.19,0-.45.01-.6.02v-.88c.13.01.35.02.6.02h.27v-.79h-1.21v2.83c0,.89-.06,2.27-.11,2.82-.11,1.04-.27,1.67-.64,2.48-.22-.27-.41-.43-.79-.65.29-.71.39-1.09.48-1.76.08-.63.13-1.74.13-2.87V1.6c0-.59,0-1.28-.03-1.6.19.02.37.02.59.02h4.12c.22,0,.4,0,.59-.02q-.02.32-.03,1.6v4.37c0,.36,0,.71.02,1.69v.11c0,.49-.09.73-.33.89-.28.19-.61.24-1.45.24,0-.4-.1-.78-.17-1.05.29.02.42.03.63.03.32,0,.37-.06.37-.41V.88h-1.28v.79Zm-.81,5.54v.57h-.91c.01-.2.02-.46.02-.85v-1.6c0-.24,0-.55-.02-.7.19,0,.3,0,.57,0h1.51c.27,0,.39,0,.58,0,0,.15-.02.46-.02.7v1.33c0,.38,0,.64.02.84h-.88v-.29h-.87Zm.87-1.75h-.87v.95h.87v-.95Z"/>
        <path class="cls-16" d="m64.04,4.88c1.03-.72,1.37-.99,2.53-1.99.56-.49.81-.62,1.19-.62.16,0,.31.03.47.11q.24.12,2.21,1.69c.82.67,2.05,1.41,3.16,1.92-.35.52-.37.56-.6,1.03-1.36-.74-2.07-1.21-3.16-2.09-.36-.29-.38-.3-1.14-.95q-.11-.09-.43-.36c-.22-.18-.38-.26-.55-.26-.11,0-.32.11-.51.27-.18.15-.46.4-.68.61q-.88.83-1.52,1.35c-.03.15-.08.23-.14.23-.05,0-.11-.04-.15-.09l-.68-.85Zm6.14-3.34c.47.29.77.54,1.26,1.01l-.5.54c-.46-.49-.69-.68-1.2-1.03l.44-.52Zm.77-.9c.48.29.78.53,1.27,1l-.5.55c-.46-.49-.69-.69-1.21-1.04l.44-.51Z"/>
      </g>
      <g>
        <rect class="cls-1" x="47.77" y="272.63" width="84.99" height="30.51" rx="5" ry="5"/>
        <g>
          <path class="cls-17" d="m69.94,285.63c-.27-1.41-1.06-2.13-2.35-2.13-1.84,0-3,1.69-3,4.39s1.16,4.36,3.03,4.36c1.44,0,2.28-.93,2.44-2.74h1.61c-.17,2.77-1.56,4.27-3.99,4.27-3.01,0-4.95-2.29-4.95-5.88,0-2.05.6-3.71,1.74-4.75.84-.76,1.95-1.18,3.13-1.18,1.37,0,2.52.54,3.2,1.5.42.57.61,1.2.71,2.16h-1.56Z"/>
          <path class="cls-17" d="m76.86,285.24c2.2,0,3.78,1.79,3.78,4.29s-1.58,4.27-3.78,4.27-3.79-1.78-3.79-4.27,1.57-4.29,3.79-4.29Zm0,7.18c1.23,0,2.05-1.17,2.05-2.89s-.83-2.92-2.05-2.92-2.07,1.18-2.07,2.92.83,2.89,2.07,2.89Z"/>
          <path class="cls-17" d="m89.02,291.06c-.09.61-.39,1.24-.79,1.74-.57.66-1.39,1-2.42,1-2.23,0-3.7-1.69-3.7-4.27s1.45-4.29,3.72-4.29c1.68,0,2.83.98,3.13,2.67h-1.7c-.21-.88-.69-1.3-1.48-1.3-1.2,0-1.95,1.14-1.95,2.94,0,1.05.29,1.94.79,2.46.27.27.69.42,1.17.42.84,0,1.35-.43,1.56-1.36h1.67Z"/>
          <path class="cls-17" d="m95.88,285.46h2.04l-3.38,3.7,3.66,4.41h-2.28l-3.2-4.12v4.12h-1.68v-11.46h1.68v6.88l3.15-3.54Z"/>
          <path class="cls-17" d="m103.01,282.18c1.77,0,2.71.18,3.39.66.84.58,1.29,1.59,1.29,2.86,0,1.35-.53,2.38-1.47,2.92-.63.36-1.5.51-3.04.51h-1.29v4.44h-1.77v-11.4h2.89Zm.21,5.44c.9,0,1.54-.1,1.91-.31.46-.29.73-.87.73-1.65,0-.72-.22-1.27-.66-1.57-.39-.27-.99-.39-2.02-.39h-1.29v3.93h1.33Z"/>
          <path class="cls-17" d="m111.18,282.18v1.84h-1.84v-1.84h1.84Zm-.09,3.29v8.11h-1.67v-8.11h1.67Z"/>
          <path class="cls-17" d="m117.63,285.46l-.03,1.32h-1.78c-.02.98-.06,3.5-.06,3.67v.58c0,.57.03.79.17.96s.39.27.67.27c.39,0,.79-.09,1.21-.27v1.41c-.61.24-1.09.33-1.65.33-.87,0-1.51-.3-1.86-.87-.21-.33-.29-.71-.29-1.41q0-.28.03-1.08l.11-3.6h-1.25l.03-1.32h1.26l.06-2.34h1.63l-.04,2.34h1.79Z"/>
        </g>
      </g>
      <g>
        <rect class="cls-16" x="244.25" y="272.63" width="84.99" height="30.51" rx="5" ry="5"/>
        <g>
          <path class="cls-17" d="m275.34,285.23c.15.02.25.08.25.15,0,.11-.09.18-.31.3v6.13c0,1.35.01,2.42.04,3.08h-1.53c.03-.67.04-1.7.04-3.08v-3.87c-.24.48-.46.85-.83,1.44-.34-.75-.5-.97-.9-1.42,1.35-2.13,2.2-4.25,2.85-7.08l1.44.56c.15.06.23.13.23.22,0,.1-.06.15-.36.24-.42,1.47-.63,2.08-1.14,3.31h.21Zm5.05-.27v-1.28c0-1.47-.01-2.28-.04-2.7l1.54.1c.17.02.27.08.27.15,0,.09-.09.18-.3.3-.01.74-.01.75-.01,2.14v.96l2.08-.45.3-.39,1.14.83c.06.04.12.13.12.22,0,.12,0,.15-.34.33-.06,4.25-.15,4.95-.53,5.52-.34.51-.76.66-1.86.66h-.29c-.04-.72-.09-.91-.32-1.53.29.01.42.03.56.03.46,0,.64-.05.73-.18.12-.18.2-1.2.21-2.88,0-.48,0-.66.02-1.14l-1.83.41v3.12c0,1.08,0,2.1.03,2.62h-1.53c.04-.62.04-1.38.04-2.62v-2.8l-1.58.34v5.61c0,.64.02.64,3.18.64,1.62,0,2.37-.06,2.6-.19.18-.11.25-.45.25-1.1q0-.1-.02-.69.36.13,1.52.41c0,1.68-.15,2.25-.66,2.64-.45.33-1.28.42-4.08.42-2.14,0-3.29-.09-3.66-.29-.46-.22-.61-.6-.61-1.46v-5.68c-.53.12-.77.18-1.41.33l-.34-1.42c.72-.14,1.3-.25,1.75-.35v-.24c0-1.44-.02-1.95-.08-2.33l1.67.13c.13,0,.22.08.22.17,0,.12-.09.2-.3.29-.01.46-.03.97-.03,1.59v.09l1.58-.34Z"/>
          <path class="cls-17" d="m288.71,284.99h-1.19s0-1.4,0-1.4c.33.02.87.03,1.19.03h.97v-1.28c0-.67,0-.85-.01-1.38l1.47.09c.17.01.27.07.27.15,0,.11-.09.18-.3.3v2.12h.93l.18-.24.88.78c.06.06.12.17.12.24,0,.12-.04.17-.34.24-.29.62-.58,1.22-.93,1.79-.25.42-.54.81-.84,1.21v.24c.9.51,1.37.86,2.38,1.79l-1,1.2c-.6-.66-.99-1.08-1.38-1.43v2.31c0,1.38.02,2.4.04,3.07h-1.51c.03-.67.04-1.69.04-3.07v-2.52c-.78.81-1.12,1.1-2.01,1.75-.04-.12-.09-.22-.12-.3-.08-.21-.24-.57-.48-1.08,2.11-1.63,3.18-2.8,4.11-4.62h-2.47Zm7.5,2.01h-1.29c-.5,0-1.35.03-1.8.04v-1.46c.45.03,1.22.04,1.8.04h1.29v-2.25c0-1.18-.01-1.81-.04-2.25l1.56.11c.17.01.25.06.25.15s-.08.17-.29.3v1.69s-.01,2.25-.01,2.25h1.65c.58,0,1.35-.01,1.8-.04v1.46c-.46-.01-1.3-.04-1.8-.04h-1.65v6.12h1.6c.6,0,1.58-.01,2.1-.04v1.46c-.55-.01-1.53-.03-2.1-.03h-5.21c-.63,0-1.47.01-2.08.03v-1.46c.57.03,1.43.04,2.08.04h2.13v-6.12Z"/>
        </g>
      </g>
      <g>
        <rect class="cls-16" x="244.25" y="108.89" width="84.99" height="30.51" rx="5" ry="5"/>
        <g>
          <path class="cls-17" d="m280.22,122.41c.51,1.71,1.05,2.79,1.92,3.93,1.04,1.37,2.01,2.12,4.32,3.38-.46.41-.67.66-1.06,1.25-2.05-1.12-3.3-2.17-4.42-3.69-.69-.93-1.16-1.81-1.54-2.98-.13.54-.3,1-.5,1.47-.65,1.5-1.68,2.79-3.03,3.76-.81.57-1.51.95-2.94,1.52-.21-.56-.34-.8-.76-1.31,1.95-.79,2.97-1.46,3.96-2.5,1.17-1.23,1.82-2.73,2.08-4.81h-2.49c-.83,0-2.17.03-2.99.06v-1.51c.77.04,2.13.06,2.99.06h2.62c.03-.66.04-1.63.06-3.75l1.54.17c.21.03.34.12.34.24,0,.11-.09.17-.34.25-.01,1.2-.06,2.22-.1,3.09h3.19c.95,0,2.22-.01,2.99-.06v1.51c-.79-.03-2.07-.06-2.99-.06h-2.85Z"/>
          <path class="cls-17" d="m295.11,126.28c.02.58.03,1.36.06,2.67v.22c0,.83-.17,1.23-.58,1.49-.46.27-.88.31-2.73.33-.03-.67-.07-.94-.24-1.66.63.04.96.06,1.41.06.56,0,.62-.06.62-.63v-2.47h-3.21c-.83,0-2.17.03-2.98.06v-1.5c.78.04,2.13.06,2.98.06h3.21v-1.83h-2.56c-.75,0-2.06.03-2.7.04v-1.47c.62.01,1.92.04,2.7.04h2.56v-1.94c-1.14.14-2.02.18-5.08.35-.12-.63-.21-.93-.4-1.4,4.68-.1,8.1-.57,10.71-1.42l.97,1.02q.14.12.14.18c0,.1-.08.15-.21.15-.09,0-.2,0-.3-.01-1.44.42-2.78.72-4.35.95v2.13h2.59c.83,0,2.03-.03,2.69-.04v1.47c-.71-.03-1.89-.04-2.69-.04h-2.59v1.83h3.21c.95,0,2.22-.02,2.99-.06v1.5c-.79-.03-2.07-.06-2.99-.06h-3.21Z"/>
        </g>
      </g>
      <g>
        <path class="cls-15" d="m286.75,100.35c-25.87,0-46.92-21.05-46.92-46.92s21.05-46.92,46.92-46.92,46.92,21.05,46.92,46.92-21.05,46.92-46.92,46.92Zm0-78.58c-17.46,0-31.66,14.2-31.66,31.66s14.2,31.66,31.66,31.66,31.66-14.2,31.66-31.66-14.2-31.66-31.66-31.66Z"/>
        <path class="cls-6" d="m301.5,32.94c-2.15-1.55-4.51-2.75-7.03-3.56-2.48-.8-5.07-1.2-7.7-1.2h-.13s0-14.09,0-14.09L286.45,0h.3c5.57,0,11.06.86,16.34,2.55,5.34,1.71,10.36,4.25,14.91,7.54l-16.5,22.85Z"/>
        <g>
          <path class="cls-8" d="m272.47,57.61h2.47v-7.11c0-.28,0-.56.03-.87l-1.75,1.47c-.07.06-.15.1-.22.13-.08.02-.15.03-.22.03-.11,0-.21-.02-.31-.07s-.16-.1-.21-.16l-.66-.9,3.72-3.16h1.71v10.65h2.19v1.56h-6.74v-1.56Z"/>
          <path class="cls-7" d="m289.34,53.07c0,1.06-.11,1.99-.34,2.77-.23.78-.54,1.43-.94,1.94-.4.51-.88.89-1.42,1.14-.55.25-1.14.38-1.77.38s-1.22-.13-1.77-.38c-.54-.25-1.01-.63-1.41-1.14-.4-.51-.71-1.16-.94-1.94-.22-.78-.34-1.71-.34-2.77s.11-1.99.34-2.77c.23-.78.54-1.43.94-1.94.4-.51.87-.89,1.41-1.14.54-.25,1.13-.38,1.77-.38s1.23.13,1.77.38c.55.25,1.02.63,1.42,1.14.4.51.72,1.16.94,1.94.23.78.34,1.71.34,2.77Zm-2.15,0c0-.88-.06-1.61-.19-2.19-.13-.58-.3-1.04-.52-1.38-.22-.34-.47-.58-.75-.72-.28-.14-.57-.21-.88-.21s-.59.07-.86.21c-.28.14-.52.38-.74.72-.21.34-.38.8-.51,1.38-.13.58-.19,1.31-.19,2.19s.06,1.61.19,2.19c.13.58.3,1.04.51,1.38.21.34.46.58.74.72.28.14.57.21.86.21s.6-.07.88-.21c.28-.14.53-.38.75-.72.22-.34.39-.8.52-1.38.13-.58.19-1.31.19-2.19Z"/>
          <path class="cls-11" d="m295.9,49.93c0,.46-.08.88-.23,1.25-.15.37-.36.69-.62.95-.26.26-.56.46-.9.6-.34.14-.7.21-1.07.21-.4,0-.78-.07-1.12-.21-.34-.14-.64-.34-.89-.6-.25-.26-.45-.58-.59-.95-.14-.37-.21-.79-.21-1.25s.07-.9.21-1.28c.14-.38.34-.71.59-.97.25-.26.55-.47.89-.61.34-.14.72-.22,1.12-.22s.78.07,1.13.22c.35.14.64.35.9.61.25.26.45.59.59.97.14.38.21.81.21,1.28Zm4.05-2.62c.07-.08.15-.16.25-.23.1-.07.24-.1.42-.1h1.51l-9.05,11.88c-.07.09-.15.16-.26.22-.1.06-.23.09-.38.09h-1.55l9.05-11.86Zm-5.67,2.62c0-.33-.03-.6-.09-.82-.06-.22-.15-.4-.26-.53-.11-.13-.24-.23-.39-.29-.15-.06-.31-.09-.48-.09s-.33.03-.47.09c-.15.06-.27.16-.38.29-.11.13-.19.31-.25.53-.06.22-.09.49-.09.82s.03.58.09.79c.06.21.14.38.25.51.11.13.23.22.38.28.15.06.3.08.47.08s.33-.03.48-.08c.15-.06.28-.15.39-.28.11-.13.2-.3.26-.51.06-.21.09-.47.09-.79Zm8.49,6.37c0,.46-.08.88-.23,1.25-.15.37-.36.69-.62.95-.26.26-.56.46-.9.61-.34.14-.7.22-1.07.22-.4,0-.78-.07-1.12-.22-.34-.14-.64-.35-.89-.61-.25-.26-.45-.58-.59-.95-.14-.37-.21-.79-.21-1.25s.07-.9.21-1.28c.14-.38.34-.71.59-.97.25-.26.55-.47.89-.61.34-.14.72-.22,1.12-.22s.78.07,1.13.22c.35.14.65.35.9.61.25.26.45.59.59.97.14.38.21.81.21,1.28Zm-1.6,0c0-.33-.03-.6-.1-.82-.06-.22-.15-.4-.26-.53-.11-.13-.24-.23-.39-.29-.15-.06-.31-.09-.48-.09s-.33.03-.47.09c-.15.06-.27.16-.38.29-.1.14-.19.31-.25.53-.06.22-.09.49-.09.82s.03.58.09.79c.06.21.14.39.25.51.1.13.23.22.38.28.15.06.3.08.47.08s.33-.03.48-.08c.15-.06.28-.15.39-.28.11-.13.2-.3.26-.51.06-.21.1-.48.1-.79Z"/>
        </g>
      </g>
      <g>
        <path class="cls-15" d="m283.5,266.41c-25.87,0-46.92-21.05-46.92-46.92s21.05-46.92,46.92-46.92,46.92,21.05,46.92,46.92-21.05,46.92-46.92,46.92Zm0-78.58c-17.46,0-31.66,14.2-31.66,31.66s14.2,31.66,31.66,31.66,31.66-14.2,31.66-31.66-14.2-31.66-31.66-31.66Z"/>
        <path class="cls-12" d="m334.34,235.91l-26.82-8.65c.81-2.49,1.21-5.1,1.22-7.75v-.12c0-2.64-.43-5.27-1.25-7.78-.83-2.51-2.04-4.87-3.61-7.02-1.57-2.14-3.46-4.02-5.62-5.58-2.15-1.55-4.52-2.75-7.03-3.56-2.48-.8-5.07-1.2-7.7-1.2h-.13s0-14.09,0-14.09l-.2-14.09h.3c5.57,0,11.07.86,16.34,2.55,5.34,1.71,10.36,4.25,14.91,7.54,4.54,3.28,8.53,7.24,11.84,11.76,3.33,4.55,5.91,9.55,7.66,14.89,1.75,5.33,2.65,10.9,2.66,16.54v.14c0,5.6-.87,11.12-2.58,16.42Z"/>
        <g>
          <path class="cls-10" d="m272.22,212.91c.56,0,1.07.08,1.52.24.45.16.84.38,1.16.67.32.28.57.62.74,1,.17.38.26.8.26,1.24,0,.39-.04.73-.13,1.02-.09.29-.21.55-.38.77-.17.22-.37.4-.61.56-.24.15-.51.28-.81.38.73.23,1.28.58,1.64,1.05s.54,1.07.54,1.78c0,.61-.11,1.14-.34,1.61-.22.47-.53.86-.91,1.18-.38.32-.82.56-1.33.72-.5.16-1.04.24-1.6.24-.61,0-1.15-.07-1.6-.21-.46-.14-.85-.35-1.19-.62-.34-.28-.62-.61-.86-1.01-.24-.4-.44-.86-.61-1.38l.92-.38c.16-.07.32-.1.48-.1.15,0,.28.03.39.09.11.06.2.15.27.27.1.2.21.39.33.58.12.19.27.36.43.51.17.15.37.27.59.36.23.09.5.14.81.14.35,0,.66-.06.93-.17.26-.12.48-.27.66-.45.18-.19.31-.39.4-.62.09-.23.13-.46.13-.69,0-.29-.03-.56-.09-.8-.06-.24-.19-.44-.39-.61-.2-.17-.48-.3-.85-.4-.37-.1-.86-.14-1.48-.14v-1.49c.51,0,.94-.04,1.27-.14.34-.09.61-.21.81-.38.2-.16.34-.35.42-.58.08-.22.12-.47.12-.74,0-.58-.16-1.02-.47-1.31-.31-.3-.74-.44-1.29-.44-.5,0-.91.13-1.23.39-.33.26-.55.6-.68,1.01-.07.21-.16.37-.28.46-.12.09-.27.14-.46.14-.09,0-.19,0-.29-.03l-1.1-.19c.08-.58.25-1.1.49-1.54.24-.44.54-.81.91-1.1.36-.3.78-.52,1.25-.67.47-.15.97-.22,1.51-.22Z"/>
          <path class="cls-9" d="m286.09,219.14c0,1.06-.11,1.99-.34,2.77-.23.78-.54,1.43-.94,1.94-.4.51-.88.89-1.42,1.14-.55.25-1.14.38-1.77.38s-1.22-.13-1.77-.38c-.54-.25-1.01-.63-1.41-1.14-.4-.51-.71-1.16-.94-1.94-.22-.78-.34-1.71-.34-2.77s.11-1.99.34-2.77c.22-.78.54-1.43.94-1.94.4-.51.87-.89,1.41-1.14.54-.25,1.13-.38,1.77-.38s1.23.13,1.77.38c.55.25,1.02.63,1.42,1.14.4.51.72,1.16.94,1.94.23.78.34,1.71.34,2.77Zm-2.15,0c0-.88-.06-1.61-.19-2.19-.13-.58-.3-1.04-.52-1.38-.22-.34-.47-.58-.75-.72-.28-.14-.57-.21-.88-.21s-.59.07-.86.21c-.28.14-.52.38-.74.72-.21.34-.38.8-.51,1.38-.13.58-.19,1.31-.19,2.19s.06,1.61.19,2.19c.13.58.3,1.04.51,1.38.21.34.46.58.74.72.28.14.57.21.86.21s.6-.07.88-.21c.28-.14.53-.38.75-.72.22-.34.39-.8.52-1.38.13-.58.19-1.31.19-2.19Z"/>
          <path class="cls-5" d="m292.65,215.99c0,.46-.08.88-.23,1.25-.15.37-.36.69-.62.95-.26.26-.56.46-.9.6-.34.14-.7.21-1.07.21-.4,0-.78-.07-1.12-.21-.34-.14-.64-.34-.89-.6-.25-.26-.45-.58-.59-.95-.14-.37-.21-.79-.21-1.25s.07-.9.21-1.28c.14-.38.34-.71.59-.97.25-.26.55-.47.89-.61.34-.14.72-.22,1.12-.22s.78.07,1.13.22c.35.14.64.35.9.61.25.26.45.59.59.97.14.38.21.81.21,1.28Zm4.05-2.62c.07-.08.15-.16.25-.23.1-.07.24-.1.42-.1h1.51l-9.05,11.88c-.07.09-.15.16-.26.22-.1.06-.23.09-.38.09h-1.55l9.05-11.86Zm-5.67,2.62c0-.33-.03-.6-.09-.82-.06-.22-.15-.4-.26-.53-.11-.13-.24-.23-.39-.29-.15-.06-.31-.09-.48-.09s-.33.03-.47.09c-.15.06-.27.16-.38.29-.11.13-.19.31-.25.53-.06.22-.09.49-.09.82s.03.58.09.79c.06.21.14.38.25.51.11.13.23.22.38.28.15.06.3.08.47.08s.33-.03.48-.08c.15-.06.28-.15.39-.28.11-.13.2-.3.26-.51.06-.21.09-.47.09-.79Zm8.49,6.37c0,.46-.08.88-.23,1.25-.15.37-.36.69-.62.95-.26.26-.56.46-.9.61-.34.14-.7.22-1.07.22-.4,0-.78-.07-1.12-.22-.34-.14-.64-.35-.89-.61-.25-.26-.45-.58-.59-.95-.14-.37-.21-.79-.21-1.25s.07-.9.21-1.28c.14-.38.34-.71.59-.97.25-.26.55-.47.89-.61.34-.14.72-.22,1.12-.22s.78.07,1.13.22c.35.14.65.35.9.61.25.26.45.59.59.97.14.38.21.81.21,1.28Zm-1.6,0c0-.33-.03-.6-.1-.82-.06-.22-.15-.4-.26-.53-.11-.13-.24-.23-.39-.29-.15-.06-.31-.09-.48-.09s-.33.03-.47.09c-.15.06-.27.16-.38.29-.1.14-.19.31-.25.53-.06.22-.09.49-.09.82s.03.58.09.79c.06.21.14.39.25.51.1.13.23.22.38.28.15.06.3.08.47.08s.33-.03.48-.08c.15-.06.28-.15.39-.28.11-.13.2-.3.26-.51.06-.21.1-.48.1-.79Z"/>
        </g>
      </g>
      <g>
        <path class="cls-14" d="m85.85,223.67C38.51,223.67,0,185.16,0,137.82S38.51,51.97,85.85,51.97s85.85,38.51,85.85,85.85-38.51,85.85-85.85,85.85Zm0-143.77c-31.94,0-57.92,25.98-57.92,57.92s25.98,57.92,57.92,57.92,57.92-25.98,57.92-57.92-25.98-57.92-57.92-57.92Z"/>
        <path class="cls-13" d="m85.85,235.57h-.49c-10.28-.06-20.36-1.7-30.02-4.87-9.77-3.21-18.93-7.92-27.25-14.02l30.5-41.58c3.92,2.88,8.24,5.1,12.84,6.61,4.6,1.51,9.41,2.28,14.3,2.29h.35c4.78-.02,9.48-.77,13.99-2.22,4.61-1.49,8.95-3.7,12.9-6.57,3.95-2.87,7.41-6.33,10.29-10.28,2.87-3.95,5.08-8.29,6.57-12.9,1.47-4.56,2.22-9.33,2.23-14.17v-.23c-.02-4.83-.79-9.64-2.3-14.24-1.51-4.6-3.73-8.92-6.61-12.84-2.88-3.93-6.34-7.36-10.28-10.21-3.94-2.84-8.26-5.03-12.86-6.51-4.54-1.46-9.28-2.2-14.1-2.2h-.23s0-25.78,0-25.78l-.21-25.78h.4c10.19,0,20.24,1.57,29.9,4.67,9.77,3.14,18.95,7.78,27.29,13.8,8.31,6,15.6,13.24,21.67,21.52,6.1,8.31,10.82,17.48,14.02,27.25,3.2,9.75,4.84,19.93,4.87,30.26v.26c0,10.24-1.59,20.35-4.72,30.05-3.17,9.81-7.85,19.02-13.93,27.38-6.06,8.33-13.35,15.62-21.68,21.68-8.36,6.08-17.57,10.76-27.38,13.93-9.7,3.13-19.81,4.72-30.05,4.72Z"/>
        <g>
          <path class="cls-3" d="m65.91,134.4c.84,0,1.66.14,2.46.42.8.28,1.5.7,2.11,1.26.61.56,1.09,1.26,1.47,2.09.37.83.56,1.81.56,2.92,0,1.04-.19,2.01-.57,2.92-.38.91-.92,1.7-1.6,2.38-.69.68-1.52,1.21-2.49,1.6-.97.39-2.04.59-3.22.59s-2.26-.19-3.21-.57c-.95-.38-1.75-.91-2.42-1.6-.67-.68-1.18-1.51-1.53-2.47-.35-.96-.53-2.03-.53-3.2,0-1.05.21-2.13.64-3.23.43-1.1,1.09-2.25,1.98-3.45l5.32-7.14c.19-.25.46-.46.81-.63.35-.17.76-.26,1.23-.26h3.39l-6.62,8.1c-.14.17-.28.34-.41.49-.13.15-.25.31-.38.48.43-.22.9-.39,1.4-.51.5-.12,1.04-.19,1.63-.19Zm-5.34,6.93c0,.62.09,1.18.26,1.69.17.51.42.94.76,1.3.33.36.75.64,1.24.84.49.2,1.06.3,1.71.3.61,0,1.16-.1,1.67-.31.51-.21.95-.49,1.31-.86.37-.37.65-.8.86-1.3.21-.5.31-1.04.31-1.63,0-.64-.1-1.21-.29-1.72-.2-.51-.47-.94-.83-1.3-.36-.35-.79-.63-1.3-.81-.5-.19-1.06-.28-1.67-.28s-1.16.1-1.65.31c-.49.21-.92.49-1.27.86-.35.37-.63.8-.82,1.3-.19.5-.29,1.04-.29,1.61Z"/>
          <path class="cls-4" d="m90.59,137.17c0,1.94-.21,3.63-.62,5.07-.42,1.43-.99,2.62-1.73,3.56-.74.94-1.6,1.63-2.61,2.09-1,.46-2.09.69-3.25.69s-2.24-.23-3.23-.69c-.99-.46-1.85-1.15-2.58-2.09-.73-.94-1.3-2.12-1.71-3.56-.41-1.44-.62-3.12-.62-5.07s.21-3.65.62-5.07c.41-1.43.98-2.61,1.71-3.55.73-.94,1.59-1.63,2.58-2.09.99-.46,2.07-.69,3.23-.69s2.24.23,3.25.69c1,.46,1.87,1.16,2.61,2.09.74.94,1.31,2.12,1.73,3.55.42,1.43.62,3.12.62,5.07Zm-3.93,0c0-1.61-.12-2.95-.35-4.01-.24-1.06-.55-1.9-.95-2.53-.4-.63-.85-1.07-1.37-1.32-.51-.25-1.05-.38-1.6-.38s-1.07.13-1.58.38c-.51.25-.96.69-1.35,1.32-.39.63-.7,1.47-.93,2.53-.23,1.06-.35,2.4-.35,4.01s.12,2.95.35,4.01c.23,1.06.54,1.9.93,2.53.39.63.84,1.07,1.35,1.32.51.25,1.04.38,1.58.38s1.09-.13,1.6-.38c.51-.25.97-.69,1.37-1.32.4-.63.71-1.47.95-2.53.24-1.06.35-2.4.35-4.01Z"/>
          <path class="cls-2" d="m102.6,131.42c0,.84-.14,1.6-.42,2.28-.28.68-.66,1.26-1.13,1.74-.47.48-1.02.85-1.65,1.1-.63.26-1.28.38-1.96.38-.74,0-1.42-.13-2.05-.38-.63-.26-1.17-.63-1.63-1.1s-.82-1.06-1.07-1.74c-.26-.68-.39-1.44-.39-2.28s.13-1.64.39-2.34c.26-.7.62-1.29,1.07-1.77.46-.48,1-.86,1.63-1.12.63-.26,1.31-.39,2.05-.39s1.43.13,2.06.39c.63.26,1.18.64,1.64,1.12.46.48.82,1.08,1.08,1.77.26.7.39,1.48.39,2.34Zm7.42-4.8c.12-.15.28-.29.46-.42.19-.12.44-.19.77-.19h2.76l-16.57,21.73c-.12.16-.28.3-.47.41-.19.11-.42.16-.69.16h-2.84l16.57-21.7Zm-10.37,4.8c0-.6-.06-1.1-.17-1.5-.11-.4-.27-.73-.47-.97-.2-.25-.44-.42-.71-.53-.27-.11-.56-.16-.87-.16s-.6.05-.86.16c-.27.11-.5.29-.69.53-.2.25-.35.57-.45.97-.11.4-.16.9-.16,1.5s.05,1.06.16,1.44c.11.38.26.7.45.93.2.24.43.41.69.51.27.1.56.15.86.15s.6-.05.87-.15c.27-.1.51-.27.71-.51.2-.24.36-.55.47-.93.11-.39.17-.87.17-1.44Zm15.53,11.66c0,.84-.14,1.61-.42,2.28-.28.68-.66,1.26-1.13,1.74-.47.48-1.02.85-1.65,1.11-.63.26-1.28.39-1.96.39-.74,0-1.42-.13-2.05-.39-.63-.26-1.17-.63-1.63-1.11-.46-.48-.82-1.06-1.07-1.74-.26-.68-.39-1.44-.39-2.28s.13-1.64.39-2.34c.26-.7.61-1.29,1.07-1.77.46-.48,1-.86,1.63-1.12.63-.26,1.31-.39,2.05-.39s1.43.13,2.06.39,1.18.64,1.64,1.12c.46.48.82,1.07,1.08,1.77.26.7.39,1.48.39,2.34Zm-2.93,0c0-.6-.06-1.09-.18-1.49-.12-.4-.28-.73-.48-.97-.2-.25-.44-.43-.71-.53s-.56-.16-.87-.16-.6.05-.86.16-.5.29-.69.53c-.19.25-.34.57-.46.97-.11.4-.17.9-.17,1.49s.06,1.06.17,1.45c.11.39.26.7.46.94.19.24.42.41.69.51.27.1.56.15.86.15s.6-.05.87-.15c.27-.1.51-.27.71-.51.2-.24.36-.55.48-.94.12-.39.18-.87.18-1.45Z"/>
        </g>
      </g>
    </g>
  </g>
</svg>