<?xml version="1.0" encoding="UTF-8"?>
<svg id="_レイヤー_2" data-name="レイヤー 2" xmlns="http://www.w3.org/2000/svg" viewBox="0 0 412.93 321.84">
  <defs>
    <style>
      .cls-1 {
        fill: #294172;
      }

      .cls-1, .cls-2, .cls-3, .cls-4, .cls-5 {
        stroke-width: 0px;
      }

      .cls-2 {
        fill: gray;
      }

      .cls-3 {
        fill: #126a8a;
      }

      .cls-4 {
        fill: #c9c9c9;
      }

      .cls-5 {
        fill: #333;
      }
    </style>
  </defs>
  <g id="_レイヤー_1-2" data-name="レイヤー 1">
    <g>
      <path class="cls-5" d="m27.08,269.65c.62.54,1.02.96,1.5,1.56l-.94.76c-.55-.74-.79-1.02-1.38-1.58l.82-.73Zm2.27,3.55c-.44,1.16-.73,1.85-1.27,2.97q-.14.31-.48.94-.07.12-.16.3v.08c0,.1-.05.17-.12.17t-.16-.11l-.85-.71c.61-.85,1.39-2.41,2.12-4.23l.91.59Zm-1.24-6.19c.59.5.9.84,1.43,1.51l-.96.73c-.44-.65-.68-.94-1.31-1.56l.84-.68Zm5.31,5.86c-.23.61-.44,1.22-.7,1.82-.19.48-.42.95-.65,1.42,1.09-.1,2.2-.24,3.29-.43-.3-.38-.64-.76-1.07-1.2l.78-.66c1.19,1,1.88,1.86,2.49,3.13l-1.03.67c-.19-.38-.37-.72-.55-1.03-1.45.28-3.24.54-5.75.88-.08.17-.17.23-.23.23-.07,0-.16-.07-.18-.14l-.4-1.25c.47-.02.92-.05,1.39-.08.56-1.07.97-2.19,1.33-3.35h-.86c-.62,0-1.4.02-1.92.04v-1.18c.52.02,1.29.04,1.92.04h1.54v-1.87h-1.34c-.4,0-1.07.01-1.44.02v-1.16c.36.02.97.04,1.44.04h1.34v-.88c0-.54-.01-.7-.02-1.1l1.25.07c.13.01.22.06.22.12,0,.07-.07.14-.23.24v1.55h1.5c.47,0,1.08-.01,1.44-.04v1.16c-.37-.01-1.04-.02-1.44-.02h-1.51v1.87h1.64c.55,0,1.39-.01,1.91-.04v1.18c-.52-.01-1.35-.04-1.91-.04h-2.25Z"/>
      <path class="cls-5" d="m44.42,267.23c.18.02.3.1.3.18s-.01.1-.32.26c-.04.46-.06.84-.08,1.2.32,1.98.92,3.55,1.83,4.83.82,1.15,1.7,1.86,3.56,2.84-.42.41-.56.59-.82,1.02-1.45-.84-2.25-1.46-3.06-2.36-.73-.83-1.33-1.93-1.73-3.17-.05-.17-.1-.32-.14-.49-.07.29-.16.58-.26.91-.74,2.36-2.35,4.2-4.65,5.3-.24-.53-.37-.73-.68-1.02,1.5-.73,2.39-1.46,3.21-2.65.73-1.03,1.19-2.22,1.43-3.68.12-.82.17-1.46.2-3.31l1.21.13Z"/>
      <path class="cls-5" d="m55.56,268.76c-.14-.56-.43-1.28-.73-1.81l1.01-.37c.41.71.58,1.12.79,1.82l-1.04.36h1.83c.63-.83.93-1.33,1.34-2.15l1.01.48c.1.05.13.08.13.14,0,.08-.06.12-.24.16-.43.64-.64.91-1,1.37h.08c.82,0,1.76-.02,2.37-.06-.01.43-.01.66-.01.92v.6c0,.3.01.66.02,1.06h-1.27c.02-.36.04-.78.04-1.06v-.43h-7.76v.43c0,.28.01.7.02,1.06h-1.27c.02-.4.04-.76.04-1.06v-.6c0-.26-.01-.48-.02-.92.58.04,1.44.06,2.21.06-.26-.49-.36-.65-.96-1.44l.85-.59c.34.34.71.83,1.14,1.52l-.8.5h2.22Zm-.55,5.45c.14-.31.28-.64.4-.96h-1.43v.49h-1.19c.02-.29.04-.68.04-1.27v-1.02c0-.38-.01-.85-.04-1.07.42.02.79.02,1.32.02h3.89c.54,0,.9,0,1.32-.02-.01.22-.04.68-.04,1.07v.95c0,.56.01.96.04,1.25h-1.18v-.4h-1.5c-.16.32-.3.65-.48.96h2.64c.53,0,.9-.01,1.32-.02-.02.22-.04.67-.04,1.06v1.27c0,.56.01.97.04,1.25h-1.19v-.37h-5.8v.44h-1.19c.02-.29.04-.68.04-1.27v-1.32c0-.38-.01-.84-.04-1.06.42.01.79.02,1.32.02h1.75Zm3.92,1.03h-5.8v1.12h5.8v-1.12Zm-.79-3.85h-4.16v.88h4.16v-.88Z"/>
      <path class="cls-5" d="m68.52,275.74c0,.91.01,1.68.04,2.11h-1.17c.02-.47.04-1.14.04-2.11v-.64c-.7.61-1.15.92-1.92,1.34-.91.49-1.54.74-2.75,1.12-.2-.54-.23-.6-.5-1.06,1.81-.48,3.07-1.03,4.14-1.8h-1.52c-.62,0-1.4.01-1.91.04v-1.02c.5.02,1.28.04,1.91.04h2.55v-.59h-1.54c-.61,0-1.4.01-1.91.04v-1.01c.5.01,1.29.04,1.91.04h1.54v-.56h-2.12c-.62,0-1.42.02-1.92.05v-1.02c.5.02,1.29.04,1.92.04h.73c-.14-.36-.32-.7-.53-1.02h-.49c-.66,0-1.74.01-2.39.04v-1.09c.54.02,1.42.04,2.09.04-.24-.4-.42-.62-.88-1.13l.82-.64c.67.64.84.83,1.28,1.55l-.34.22h.89v-1.94s1.12.08,1.12.08c.14.01.23.05.23.12s-.07.14-.24.24v1.5h.88v-1.18c0-.32,0-.59-.01-.77l1.14.08c.13.01.22.05.22.12s-.07.14-.24.24v1.5h.48c.37-.74.49-1.09.65-1.73l1.16.42c.07.02.13.08.13.13,0,.08-.04.11-.28.19q-.07.14-.36.73c-.04.07-.08.16-.14.25.73,0,1.64-.01,2.21-.04v1.09c-.64-.02-1.66-.04-2.39-.04h-.78c.16.05.19.11.19.16,0,.07-.06.11-.26.17q-.08.16-.36.7h.94c.55,0,1.39-.01,1.91-.04v1.02c-.52-.02-1.35-.05-1.91-.05h-2.23v.56h1.63c.55,0,1.4-.02,1.92-.04v1.01c-.52-.02-1.37-.04-1.92-.04h-1.63v.59h2.7c.55,0,1.39-.01,1.91-.04v1.02c-.52-.02-1.35-.04-1.91-.04h-1.78c1.1.78,2.34,1.26,4.25,1.68-.28.44-.34.58-.54,1.09-1.2-.3-2.03-.62-3.03-1.16-.64-.36-1-.61-1.6-1.18v.6Zm.18-5c.16-.34.31-.67.42-1.02h-2.44c.23.31.41.66.55,1.02h1.46Z"/>
      <path class="cls-5" d="m78.18,270.1c.06-1.62,1.07-2.57,2.75-2.57s2.7.96,2.7,2.45c0,.88-.3,1.51-1.32,2.75-.52.62-1.18,1.39-2.43,2.82h3.85v1.28h-5.65v-1.13q.2-.25.92-1.09c2.92-3.42,3.19-3.81,3.19-4.58s-.54-1.26-1.33-1.26c-.85,0-1.37.47-1.46,1.33h-1.21Z"/>
      <path class="cls-5" d="m87.06,274.77c.23.64.71.97,1.43.97,1,0,1.67-.82,1.67-2.04,0-1.14-.61-1.9-1.52-1.9-.64,0-1.1.26-1.51.86l-1.22-.17.78-4.79h4.4l-.11,1.26h-3.24l-.37,2.18c.5-.37.9-.5,1.49-.5,1.66,0,2.78,1.2,2.78,2.99,0,.9-.3,1.7-.85,2.34-.6.67-1.31.98-2.24.98-1.51,0-2.61-.86-2.83-2.19h1.35Z"/>
      <path class="cls-5" d="m96.66,269.84c0,1.24-.8,2.19-1.83,2.19s-1.83-.96-1.83-2.19.8-2.19,1.83-2.19,1.83.96,1.83,2.19Zm3.6-2.12l-5.31,9.11h-1.15l5.31-9.11h1.15Zm-6.3,2.12c0,.78.36,1.31.86,1.31s.85-.53.85-1.31-.35-1.31-.85-1.31-.86.54-.86,1.31Zm7.1,4.87c0,1.22-.8,2.19-1.82,2.19s-1.83-.97-1.83-2.19.8-2.21,1.83-2.21,1.82.97,1.82,2.21Zm-2.69,0c0,.77.35,1.31.85,1.31s.86-.54.86-1.31-.35-1.31-.86-1.31-.85.54-.85,1.31Z"/>
    </g>
    <g>
      <path class="cls-5" d="m35.09,311.7c-.64,1.04-1.08,1.55-1.79,2.16-.06.05-.07.06-.11.08,1.02.48,2.15.74,4.56,1.09-.29.4-.38.58-.58,1.08-2.39-.35-3.8-.76-5-1.44-.52.3-1.07.56-1.67.78-1,.36-1.8.53-3.5.76-.14-.53-.23-.72-.44-1.13,2.06-.24,3.39-.58,4.54-1.14-.71-.59-1.26-1.32-1.69-2.12-.38,0-.75.01-1.03.02v-1.14c.5.01,1.32.04,1.91.04h4.25l.16-.19.71.7c.07.08.1.13.1.19,0,.08-.05.14-.2.19l-.2.07Zm1.05-5.86c.08.07.11.11.11.16,0,.07-.06.12-.17.12-.07,0-.16,0-.24-.01-1.2.28-2.46.48-3.91.64.42.49.59.71.95,1.39l-.96.55h1.66c.5-.77.83-1.39,1.15-2.33l1.22.47c.07.02.12.08.12.13,0,.08-.07.13-.29.19-.55.92-.73,1.22-.94,1.54.82,0,1.71-.01,2.31-.05-.01.43-.01.66-.01.91v.48c0,.26.01.58.04.92h-1.2c.01-.3.04-.68.04-.92v-.28h-7.93v.28c0,.24.01.62.04.92h-1.2c.02-.35.04-.66.04-.92v-.48c0-.25,0-.48-.02-.91.6.04,1.49.05,2.28.05-.22-.47-.46-.89-.74-1.31l.79-.42c-.47.02-.96.05-1.48.07-.1-.58-.13-.74-.25-1.04,3.03-.01,6.2-.37,7.72-.86l.88.72Zm-4.29.91c-.8.08-1.62.14-2.42.19.38.44.59.74.86,1.26l-.85.48h2.43c-.24-.52-.52-1.02-.85-1.48l.83-.46Zm-1.24,5.06c.22.3.43.58.68.84.25.26.53.49.83.71.29-.22.56-.43.82-.68.26-.28.5-.56.73-.86h-3.06Z"/>
      <path class="cls-5" d="m44.64,306.86h2.33c.82,0,1.76-.02,2.38-.05-.01.43-.02.65-.02.91v.23c0,.3.01.66.04,1.04h-1.16v-1.24h-3.55v.83c0,.76.01,1.38.04,1.75h-1.19c.01-.43.02-.94.02-1.75v-.83h-3.55v1.24h-1.16c.02-.38.04-.74.04-1.04v-.23c0-.26-.01-.48-.02-.91.61.02,1.56.05,2.38.05h2.33v-.38h-2.01c-.62,0-1.4.01-1.91.04v-1.06c.5.02,1.28.04,1.91.04h5.18c.55,0,1.4-.01,1.92-.04v1.06c-.52-.02-1.37-.04-1.92-.04h-2.04v.38Zm-2.27,3.31h-2.52s0-.78,0-.78h.71s1.81.01,1.81.01h.72s0,.78,0,.78h-.72Zm-1.13,4.05v.92h-1.16c.02-.29.04-.68.04-1.28v-2.23c0-.38-.01-.85-.04-1.07.42.01.79.02,1.32.02h5.36c.53,0,.9-.01,1.32-.02-.02.22-.04.68-.04,1.07v1.63c0,.56.01.97.04,1.25h-1.16v-.29h-2.25v.12c0,.32.04.38.19.44.14.05.82.07,2,.07.92,0,1.45-.08,1.62-.26q.12-.13.16-1.24c.41.18.65.25,1.14.35-.1,2.18-.16,2.22-3.59,2.22-1.51,0-1.79-.01-2.11-.11-.41-.13-.59-.47-.59-1.15v-.44h-2.24Zm1.85-5.23c-.18-.01-.49-.02-.72-.02h-1.25c-.23,0-.54.01-.72.02v-.8c.18.01.49.01.72.01h1.25c.23,0,.54,0,.72-.01v.8Zm.4,2.55h-2.24v.43h2.24v-.43Zm-2.24,1.28v.43h2.24v-.43h-2.24Zm5.67-.85v-.43h-2.25v.43h2.25Zm-2.25,1.28h2.25v-.43h-2.25v.43Zm3.08-4.27c-.18-.01-.49-.02-.72-.02h-1.24c-.23,0-.54.01-.72.02v-.8c.18.01.49.01.72.01h1.24c.23,0,.54,0,.72-.01v.8Zm-.14,1.18h-2.53s0-.78,0-.78h.72s1.81.01,1.81.01h.72s0,.78,0,.78h-.72Z"/>
      <path class="cls-5" d="m58.51,308.91h-4.77c-.41,0-1.04.01-1.44.02v-1.28c.36.01.95.02,1.44.02h5.11c.41,0,.72,0,1.02-.01q-.01.38-.04,1.91v2.6c0,.96.01,1.66.04,2.11h-1.36v-.56h-4.86c-.4,0-1.08.01-1.44.02v-1.28c.36.01.97.02,1.44.02h4.86v-3.57Z"/>
      <path class="cls-5" d="m72.73,311.26c-.56-.01-1.51-.04-2.15-.04h-5.02c-.59,0-1.63.02-2.15.04v-1.28c.49.01,1.54.04,2.15.04h5.02c.66,0,1.61-.01,2.15-.04v1.28Z"/>
      <path class="cls-5" d="m79.06,308.12c.07.01.14.07.14.13,0,.07-.06.13-.22.22-.22,2.09-.42,2.87-.98,3.77-.61.98-1.26,1.57-2.73,2.47-.16-.42-.41-.78-.79-1.15,1.17-.68,1.67-1.08,2.18-1.75.68-.91.98-2.09.98-3.77v-.06l1.42.14Zm.83,5.22c.11-.38.13-.86.13-2.23v-2.1c0-.92-.01-1.44-.04-1.8l1.38.08c.14.01.22.05.22.13,0,.06-.06.12-.23.23q-.01.19-.02,1.36v3.39c1.7-.83,2.64-1.51,4.04-2.95.22.62.3.83.49,1.28-1.61,1.49-2.65,2.18-4.64,3.14-.06.16-.12.23-.19.23-.05,0-.12-.02-.18-.07l-.96-.7Z"/>
      <path class="cls-5" d="m95.51,308.15l.16-.18.84.82c.07.07.12.16.12.23,0,.11-.08.17-.32.24-.58,1.07-1.52,2.13-2.71,3.03-.31-.41-.7-.79-.97-.95,1.05-.76,1.15-.84,1.71-1.42.16-.16.31-.34.47-.53l-3.65.66v2.41c0,.82.2.95,1.49.95,1.37,0,2.11-.08,3.17-.37l.34,1.27c-1.02.22-1.85.29-3.13.29s-1.76-.02-2.13-.1c-.76-.16-1.01-.62-1.01-1.88v-2.33q-1.81.32-2.81.56l-.24-1.33c.89-.08,2.07-.23,3.05-.38v-1.14c0-.91-.01-1.45-.05-1.8l1.37.08c.13.01.2.05.2.12s-.05.12-.23.24c-.01.35-.01.61-.01,1.36v.91l4.35-.77Z"/>
      <path class="cls-5" d="m100.67,307.03c1.25.65,1.7.98,2.53,1.9l-.95,1.04c-.86-.96-1.49-1.46-2.38-1.94l.79-1Zm-.46,6.76c1.81-.77,2.84-1.35,4.21-2.39,1.59-1.22,2.53-2.17,3.77-3.85.24.42.44.68.83,1.14-1.58,1.91-2.47,2.78-3.87,3.84-1.18.89-2.06,1.43-3.77,2.29-.05.17-.1.25-.18.25-.06,0-.16-.06-.2-.14l-.78-1.14Z"/>
      <path class="cls-5" d="m119.53,307.88c.14.14.14.16.14.23,0,.1-.06.16-.26.23-.67,1.91-.79,2.17-1.24,2.94.48.31.79.56,1.45,1.14l-.9.97c-.6-.58-.86-.79-1.25-1.07-1.16,1.51-2.39,2.48-4.58,3.66-.3-.5-.5-.77-.79-1.04,2.09-1.02,3.2-1.87,4.33-3.29-.49-.26-.86-.43-1.76-.77l.62-.95c.92.35,1.32.5,1.81.76.44-.74.72-1.36,1.03-2.27h-2.39c-.83,1.48-1.46,2.24-3.05,3.67q-.31-.46-.84-.91c.73-.62,1.02-.9,1.46-1.42,1.13-1.32,1.68-2.35,2.15-4.03l1.2.4c.11.04.16.08.16.16,0,.1-.04.12-.25.2-.11.28-.18.49-.24.62-.04.1-.05.12-.07.18h2.29l.17-.22.8.8Z"/>
      <path class="cls-5" d="m132.73,311.26c-.56-.01-1.51-.04-2.15-.04h-5.02c-.59,0-1.63.02-2.15.04v-1.28c.49.01,1.54.04,2.15.04h5.02c.66,0,1.61-.01,2.15-.04v1.28Z"/>
      <path class="cls-5" d="m138.24,308.47c.06-1.62,1.07-2.57,2.75-2.57s2.7.96,2.7,2.45c0,.88-.3,1.51-1.32,2.75-.52.62-1.18,1.39-2.43,2.82h3.85v1.28h-5.65v-1.13q.2-.25.92-1.09c2.92-3.42,3.19-3.81,3.19-4.58s-.54-1.26-1.33-1.26c-.85,0-1.37.47-1.46,1.33h-1.21Z"/>
      <path class="cls-5" d="m151.89,310.63c0,2.95-1.19,4.71-3.17,4.71s-3.18-1.76-3.18-4.71,1.19-4.71,3.18-4.71,3.17,1.76,3.17,4.71Zm-4.33-2.87c-.38.67-.59,1.69-.59,2.87s.2,2.19.59,2.87c.25.43.66.67,1.16.67s.9-.24,1.15-.67c.38-.67.6-1.69.6-2.87s-.23-2.23-.6-2.87c-.26-.44-.66-.67-1.15-.67s-.91.23-1.16.67Z"/>
      <path class="cls-5" d="m156.72,308.21c0,1.24-.8,2.19-1.83,2.19s-1.83-.96-1.83-2.19.8-2.19,1.83-2.19,1.83.96,1.83,2.19Zm3.6-2.12l-5.31,9.11h-1.15l5.31-9.11h1.15Zm-6.3,2.12c0,.78.36,1.31.86,1.31s.85-.53.85-1.31-.35-1.31-.85-1.31-.86.54-.86,1.31Zm7.1,4.87c0,1.22-.8,2.19-1.82,2.19s-1.83-.97-1.83-2.19.8-2.21,1.83-2.21,1.82.97,1.82,2.21Zm-2.69,0c0,.77.35,1.31.85,1.31s.86-.54.86-1.31-.35-1.31-.86-1.31-.85.54-.85,1.31Z"/>
    </g>
    <g>
      <path class="cls-5" d="m160.17,276.12c0,.79.01,1.4.02,1.75h-1.2c.02-.42.02-.96.02-1.75v-1.26c-1.24,1.21-2.7,2.09-4.62,2.76-.17-.47-.31-.72-.54-1,1.93-.68,3.13-1.32,4.23-2.3h-1.58c-.66,0-1.74.02-2.39.05v-1.14c.61.04,1.69.05,2.39.05h2.51c0-.53-.01-.88-.02-1.12l1.21.08c.13.01.2.05.2.12s-.07.14-.24.24v.67h2.48c.75,0,1.79-.01,2.4-.05v1.14c-.64-.04-1.66-.05-2.4-.05h-1.62c1.03.92,2.28,1.5,4.27,2.05-.31.36-.47.61-.67,1.09-1.33-.43-2.13-.82-3.02-1.42-.6-.42-1.04-.79-1.44-1.24v1.31Zm-2.78-7.04c-.13.62-.34,1.09-.67,1.6-.53.79-1.12,1.31-2.21,1.92-.2-.49-.32-.71-.61-1.04.94-.48,1.46-.91,1.91-1.58.18-.29.32-.55.42-.89h-.78c-.32,0-.71,0-.96.01v-1.03c.26.01.71.02.96.02h.97c.04-.37.06-.83.08-1.38l1.18.17c.08.01.14.07.14.14s-.04.11-.2.18c-.02.32-.05.62-.07.89h1.4l.19-.24.77.72c.06.06.1.12.1.17,0,.07-.06.12-.26.22-.19,1.3-.38,2.08-.66,2.53-.22.37-.48.58-.89.67-.25.06-.55.07-1.26.07h-.11c-.05-.5-.11-.77-.24-1.18.52.04.6.04.77.04.73,0,.94-.22,1.25-2h-1.21Zm4.25,3.13h-1.16c.02-.29.04-.68.04-1.27v-2.25c0-.38-.02-.85-.04-1.07.26.01.52.02.86.02h2.43c.36,0,.6-.01.86-.02-.01.22-.02.68-.02,1.07v2.1c0,.56.01.97.02,1.25h-1.16v-.29h-1.83v.47Zm1.83-3.54h-1.83v2.04h1.83v-2.04Z"/>
      <path class="cls-5" d="m172.14,268.54h2.33c.82,0,1.76-.02,2.38-.05-.01.43-.02.65-.02.91v.23c0,.3.01.66.04,1.04h-1.16v-1.24h-3.55v.83c0,.76.01,1.38.04,1.75h-1.19c.01-.43.02-.94.02-1.75v-.83h-3.55v1.24h-1.16c.02-.38.04-.74.04-1.04v-.23c0-.26-.01-.48-.02-.91.61.02,1.56.05,2.38.05h2.33v-.38h-2.01c-.62,0-1.4.01-1.91.04v-1.06c.5.02,1.28.04,1.91.04h5.18c.55,0,1.4-.01,1.92-.04v1.06c-.52-.02-1.37-.04-1.92-.04h-2.04v.38Zm-2.27,3.31h-2.52s0-.78,0-.78h.71s1.81.01,1.81.01h.72s0,.78,0,.78h-.72Zm-1.13,4.05v.92h-1.16c.02-.29.04-.68.04-1.28v-2.23c0-.38-.01-.85-.04-1.07.42.01.79.02,1.32.02h5.36c.53,0,.9-.01,1.32-.02-.02.22-.04.68-.04,1.07v1.63c0,.56.01.97.04,1.25h-1.16v-.29h-2.25v.12c0,.32.04.38.19.44.14.05.82.07,2,.07.92,0,1.45-.08,1.62-.26q.12-.13.16-1.24c.41.18.65.25,1.14.35-.1,2.18-.16,2.22-3.59,2.22-1.51,0-1.79-.01-2.11-.11-.41-.13-.59-.47-.59-1.15v-.44h-2.24Zm1.85-5.23c-.18-.01-.49-.02-.72-.02h-1.25c-.23,0-.54.01-.72.02v-.8c.18.01.49.01.72.01h1.25c.23,0,.54,0,.72-.01v.8Zm.4,2.55h-2.24v.43h2.24v-.43Zm-2.24,1.28v.43h2.24v-.43h-2.24Zm5.67-.85v-.43h-2.25v.43h2.25Zm-2.25,1.28h2.25v-.43h-2.25v.43Zm3.08-4.27c-.18-.01-.49-.02-.72-.02h-1.24c-.23,0-.54.01-.72.02v-.8c.18.01.49.01.72.01h1.24c.23,0,.54,0,.72-.01v.8Zm-.14,1.18h-2.53s0-.78,0-.78h.72s1.81.01,1.81.01h.72s0,.78,0,.78h-.72Z"/>
      <path class="cls-5" d="m186.01,270.59h-4.77c-.41,0-1.04.01-1.44.02v-1.28c.36.01.95.02,1.44.02h5.11c.41,0,.72,0,1.02-.01q-.01.38-.04,1.91v2.6c0,.96.01,1.66.04,2.11h-1.36v-.56h-4.86c-.4,0-1.08.01-1.44.02v-1.28c.36.01.97.02,1.44.02h4.86v-3.57Z"/>
      <path class="cls-5" d="m200.23,272.94c-.56-.01-1.51-.04-2.15-.04h-5.02c-.59,0-1.63.02-2.15.04v-1.28c.49.01,1.54.04,2.15.04h5.02c.66,0,1.61-.01,2.15-.04v1.28Z"/>
      <path class="cls-5" d="m206.57,269.8c.07.01.14.07.14.13,0,.07-.06.13-.22.22-.22,2.09-.42,2.87-.98,3.77-.61.98-1.26,1.57-2.73,2.47-.16-.42-.41-.78-.79-1.15,1.17-.68,1.67-1.08,2.18-1.75.68-.91.98-2.09.98-3.77v-.06l1.42.14Zm.83,5.22c.11-.38.13-.86.13-2.23v-2.1c0-.92-.01-1.44-.04-1.8l1.38.08c.14.01.22.05.22.13,0,.06-.06.12-.23.23q-.01.19-.02,1.36v3.39c1.7-.83,2.64-1.51,4.04-2.95.22.62.3.83.49,1.28-1.61,1.49-2.65,2.18-4.64,3.14-.06.16-.12.23-.19.23-.05,0-.12-.02-.18-.07l-.96-.7Z"/>
      <path class="cls-5" d="m223.02,269.82l.16-.18.84.82c.07.07.12.16.12.23,0,.11-.08.17-.32.24-.58,1.07-1.52,2.13-2.71,3.03-.31-.41-.7-.79-.97-.95,1.05-.76,1.15-.84,1.71-1.42.16-.16.31-.34.47-.53l-3.65.66v2.41c0,.82.2.95,1.49.95,1.37,0,2.11-.08,3.17-.37l.34,1.27c-1.02.22-1.85.29-3.13.29s-1.76-.02-2.13-.1c-.76-.16-1.01-.62-1.01-1.88v-2.33q-1.81.32-2.81.56l-.24-1.33c.89-.08,2.07-.23,3.05-.38v-1.14c0-.91-.01-1.45-.05-1.8l1.37.08c.13.01.2.05.2.12s-.05.12-.23.24c-.01.35-.01.61-.01,1.35v.91l4.35-.77Z"/>
      <path class="cls-5" d="m228.17,268.71c1.25.65,1.7.98,2.53,1.9l-.95,1.04c-.86-.96-1.49-1.46-2.38-1.94l.79-1Zm-.46,6.76c1.81-.77,2.84-1.35,4.21-2.39,1.59-1.22,2.53-2.17,3.77-3.85.24.42.44.68.83,1.14-1.58,1.91-2.47,2.78-3.87,3.84-1.18.89-2.06,1.43-3.77,2.29-.05.17-.1.25-.18.25-.06,0-.16-.06-.2-.14l-.78-1.14Z"/>
      <path class="cls-5" d="m247.03,269.56c.14.14.14.16.14.23,0,.1-.06.16-.26.23-.67,1.91-.79,2.17-1.24,2.94.48.31.79.56,1.45,1.14l-.9.97c-.6-.58-.86-.79-1.25-1.07-1.16,1.51-2.39,2.48-4.58,3.66-.3-.5-.5-.77-.79-1.04,2.09-1.02,3.2-1.87,4.33-3.29-.49-.26-.86-.43-1.76-.77l.62-.95c.92.35,1.32.5,1.81.76.44-.74.72-1.35,1.03-2.27h-2.39c-.83,1.48-1.46,2.24-3.05,3.67q-.31-.46-.84-.91c.73-.62,1.02-.9,1.46-1.42,1.13-1.32,1.68-2.35,2.15-4.03l1.2.4c.11.04.16.08.16.16,0,.1-.04.12-.25.2-.11.28-.18.49-.24.62-.04.1-.05.12-.07.18h2.29l.17-.22.8.8Z"/>
      <path class="cls-5" d="m260.23,272.94c-.56-.01-1.51-.04-2.15-.04h-5.02c-.59,0-1.63.02-2.15.04v-1.28c.49.01,1.54.04,2.15.04h5.02c.66,0,1.61-.01,2.15-.04v1.28Z"/>
      <path class="cls-5" d="m265.75,270.15c.06-1.62,1.07-2.57,2.75-2.57s2.7.96,2.7,2.45c0,.88-.3,1.51-1.32,2.75-.52.62-1.18,1.39-2.43,2.82h3.85v1.28h-5.65v-1.13q.2-.25.92-1.09c2.92-3.42,3.19-3.81,3.19-4.58s-.54-1.26-1.33-1.26c-.85,0-1.37.47-1.46,1.33h-1.21Z"/>
      <path class="cls-5" d="m274.62,274.81c.23.64.71.97,1.43.97,1,0,1.67-.82,1.67-2.04,0-1.14-.61-1.9-1.52-1.9-.64,0-1.1.26-1.51.86l-1.22-.17.78-4.79h4.4l-.11,1.26h-3.24l-.37,2.18c.5-.37.9-.5,1.49-.5,1.66,0,2.78,1.2,2.78,2.99,0,.9-.3,1.7-.85,2.34-.6.67-1.31.98-2.24.98-1.51,0-2.61-.86-2.83-2.19h1.35Z"/>
      <path class="cls-5" d="m284.22,269.88c0,1.24-.8,2.19-1.83,2.19s-1.83-.96-1.83-2.19.8-2.19,1.83-2.19,1.83.96,1.83,2.19Zm3.6-2.12l-5.31,9.12h-1.15l5.31-9.12h1.15Zm-6.3,2.12c0,.78.36,1.31.86,1.31s.85-.53.85-1.31-.35-1.31-.85-1.31-.86.54-.86,1.31Zm7.1,4.87c0,1.22-.8,2.19-1.82,2.19s-1.83-.97-1.83-2.19.8-2.21,1.83-2.21,1.82.97,1.82,2.21Zm-2.69,0c0,.77.35,1.31.85,1.31s.86-.54.86-1.31-.35-1.31-.86-1.31-.85.54-.85,1.31Z"/>
    </g>
    <g>
      <path class="cls-5" d="m221.76,310.66h2.13q1.07-.01,1.42-.02-.01.22-.02,1.06v.37l1.46-.04v1.02c-.49-.01-.97-.04-1.46-.04v.67c0,.44,0,.6.02,1.19h-1.16v-.42h-2.35v.22s.01.07.01.18c0,.62-.11.91-.4,1.13-.35.24-.67.3-1.91.3-.02-.46-.08-.78-.23-1.24.36.04.58.05.85.05.46,0,.5-.05.5-.5v-.13h-2.78c-.4,0-1.07.01-1.44.04v-1c.36.01.97.02,1.44.02h2.78v-.52h-2.61c-.66,0-1.74.02-2.39.05v-1.02c.62.02,1.7.05,2.39.05h2.61v-.49h-2.78c-.4,0-1.07.02-1.44.04v-1c.36.02.97.04,1.44.04h2.78v-.58h-2.1v.29h-1.13c.01-.28.02-.68.02-1.21v-.37c0-.37-.01-.84-.02-1.06.26.01.5.02.86.02h2.36v-.56h-2.45c-.66,0-1.74.02-2.39.05v-1.08c.61.02,1.7.04,2.39.04h2.42c0-.35-.01-.71-.05-1.06l1.26.08c.11.01.18.06.18.13,0,.06-.06.12-.22.23-.01.2-.01.41-.01.61h2.42c.76,0,1.78-.01,2.39-.04v1.08c-.64-.02-1.66-.05-2.39-.05h-2.42c-.01.19-.01.37-.01.56h2.35c.36,0,.6-.01.88-.02-.02.22-.04.68-.04,1.06v.31c0,.56.01.97.04,1.25h-1.14v-.26h-2.09v.58Zm-1.13-2.02h-2.1v.55h2.1v-.55Zm3.21.55v-.55h-2.09v.55h2.09Zm.3,2.39h-2.39v.49h2.39v-.49Zm0,1.42h-2.38v.52h2.38v-.52Z"/>
      <path class="cls-5" d="m232.05,306.55c-.26.3-.53.59-.82.85-.23.22-.47.41-.71.61.11.13.22.26.31.4l-.55.41h1.56l.16-.23.68.65c.08.07.1.11.1.16,0,.1-.07.14-.25.18h-.07c-.11.26-.16.37-.43,1.02-.13.32-.23.5-.4.79-.29-.29-.54-.48-.85-.67.17-.3.29-.54.43-.89h-.59v2.83c0,.44.01,1.28.02,2.16v.12c0,.59-.1.85-.41,1.03-.33.22-.72.26-1.87.26-.04-.49-.07-.67-.23-1.22.4.04.59.05.88.05.41,0,.48-.06.48-.44v-2.81c-.44.97-.9,1.74-1.52,2.59-.12-.32-.24-.5-.62-1.01.78-1,1.45-2.21,1.97-3.56h-.72c-.32,0-.71,0-.96.01v-1.04c.26.01.7.02.96.02h1.24c-.36-.52-.78-.97-1.24-1.4l.68-.61c.22.18.42.35.62.54.26-.22.52-.44.75-.68h-1.75c-.32,0-.7,0-.95.01v-.98c.26.01.7.02.95.02h2.63l.16-.19.71.66c.08.08.1.11.1.17,0,.1-.06.14-.22.17l-.23.04Zm3.42,6.36c-.19.56-.46,1.04-.82,1.5-.7.88-1.51,1.4-2.96,1.9-.16-.43-.25-.64-.47-1.01,1.49-.53,2.03-.88,2.63-1.69.17-.23.31-.46.43-.7h-.9c-.35,0-.85.01-1.19.02v-1.09c.34.01.84.02,1.19.02h1.26c.08-.37.14-.79.18-1.32l1.07.19c.13.02.19.07.19.14,0,.08-.06.13-.23.19-.04.29-.07.54-.12.79h1.85l.17-.22.68.71c.1.1.11.11.11.16,0,.08-.06.13-.2.18l-.12.05c-.16,1.52-.42,2.48-.79,2.93-.4.46-.74.54-2.3.54h-.12c-.01-.48-.06-.77-.16-1.2.42.04.59.05.76.05.68,0,.89-.08,1.08-.47.17-.36.28-.84.38-1.68h-1.59Zm1.96-5.42c-.3.64-.67,1.22-1.13,1.74.59.38,1.26.65,2.55,1.02-.22.34-.37.67-.48,1.02-1.34-.4-2.06-.73-2.83-1.33-.77.64-1.39.94-2.83,1.43-.17-.46-.28-.67-.5-.96,1.2-.4,1.86-.7,2.52-1.18-.34-.36-.59-.78-.8-1.22-.23.37-.46.68-.74,1.04-.07-.08-.13-.16-.17-.19q-.24-.28-.6-.58c.88-1.07,1.26-1.78,1.75-3.18l.92.37c.17.06.19.08.19.16,0,.08-.04.11-.24.18-.11.24-.2.46-.3.65h2.88c.26,0,.7,0,.96-.01v1.06c-.25-.01-.64-.01-.96-.01h-.19Zm-2.75,0c.22.4.47.78.8,1.1.31-.32.55-.71.76-1.1h-1.56Z"/>
      <path class="cls-5" d="m244.62,312.28c0-.32,0-.64-.02-.96-1.14.35-2.54.59-4.4.74-.04-.24-.2-.76-.32-1,1.73-.1,2.96-.25,3.99-.5-.43-.08-.86-.14-1.31-.19-.11.12-.22.24-.32.35l-.85-.68c.34-.26.62-.56.91-.88h-.06c-.67,0-1.75.01-2.4.04v-1.01c.62.02,1.7.04,2.4.04h.89c.2-.25.4-.5.59-.77.11-.17.23-.34.31-.52l1.06.53c.06.02.11.08.11.16,0,.1-.08.14-.37.17-.13.16-.25.3-.37.43h3.68c.76,0,1.79-.01,2.4-.04v1.01c-.63-.02-1.67-.04-2.4-.04h-.06c-.35.42-.74.79-1.19,1.1l.11.02c1.64.37,1.85.43,3.01.82l-.67.94c-1.33-.5-1.76-.64-3.48-1.03l-.23-.06c-.28.12-.54.23-.83.31l1.03.06c.13.01.2.06.2.12,0,.07-.07.14-.24.24v.6h2.53c.75,0,1.77-.02,2.39-.05v1.02c-.64-.02-1.66-.05-2.39-.05h-1.81c.35.25.72.46,1.22.7.96.46,1.73.71,3.2,1.04-.26.32-.35.47-.54,1.02-1.49-.4-2.25-.71-3.26-1.31-.58-.34-1-.64-1.36-.95v.82c0,.84.01,1.42.04,1.76h-1.21c.02-.43.02-1,.02-1.76v-.82c-1.25,1.04-2.78,1.82-4.75,2.41-.12-.4-.22-.6-.46-.98,1.14-.3,1.86-.56,2.84-1.04.64-.3,1.03-.53,1.49-.89h-1.68c-.66,0-1.74.02-2.39.05v-1.02c.61.02,1.7.05,2.39.05h2.55Zm0-6.45c0-.34,0-.6-.01-.78l1.17.08c.14.01.23.06.23.12,0,.07-.07.14-.24.24v.46h2.12c.83,0,1.76-.01,2.39-.05-.02.32-.02.52-.02.71v.44c0,.26.01.55.04.85h-1.24c.02-.26.04-.61.04-.85v-.17h-7.8v.17c0,.24.01.59.02.85h-1.22c.02-.3.04-.59.04-.85v-.44c0-.19-.01-.38-.02-.71.61.04,1.56.05,2.38.05h2.13v-.12Zm-.97,3.33c-.14.17-.29.32-.44.49.78.1,1.56.19,2.33.34.42-.22.79-.5,1.13-.83h-3.01Z"/>
      <path class="cls-5" d="m253.99,308.57c.12.01.2.06.2.12,0,.07-.07.14-.23.24-.01.6-.02,1.18-.02,2.05v2.85c0,1.08.01,1.93.04,2.46h-1.22c.02-.54.04-1.35.04-2.46v-3.33c-.2.47-.36.78-.66,1.29-.28-.6-.4-.78-.72-1.15,1.01-1.67,1.68-3.42,2.16-5.61l1.15.44c.11.04.17.1.17.17,0,.1-.04.12-.29.2-.35,1.19-.52,1.68-.95,2.7l.34.02Zm4.19-.83c-.01-1.38-.05-2.23-.08-2.53l1.32.08c.11,0,.18.06.18.12,0,.07-.06.13-.22.23-.01.36-.01.41-.02,2.1h1.26c.49,0,1.24-.01,1.67-.04v1.16c-.43-.01-1.18-.02-1.67-.02h-1.26v2.24h1.78c.48,0,1.26-.01,1.68-.02v1.16c-.44-.02-1.22-.04-1.68-.04h-1.78v.56c0,1.57.02,2.73.06,3.5h-1.3c.04-.78.06-1.96.06-3.5v-.56h-1.92c-.52,0-1.19.01-1.68.04v-1.16c.46.01,1.14.02,1.68.02h1.92v-2.24h-1.93c-.36.73-.74,1.37-1.24,2-.46-.49-.48-.5-.91-.79,1.01-1.3,1.68-2.76,2.03-4.41l1.1.36c.17.05.23.1.23.18,0,.1-.02.11-.29.22-.16.49-.3.94-.46,1.34h1.46Z"/>
      <path class="cls-5" d="m268.08,307.63c1.28-.04,1.87-.46,2.13-1.54h.97v9.16h-1.4v-6.81h-1.7v-.82Z"/>
      <path class="cls-5" d="m280.84,306.14v1.1l-3.93,8.01h-1.52l3.83-7.78h-4.32v-1.33h5.95Z"/>
      <path class="cls-5" d="m285.84,308.27c0,1.24-.8,2.19-1.83,2.19s-1.83-.96-1.83-2.19.8-2.19,1.83-2.19,1.83.96,1.83,2.19Zm3.6-2.12l-5.31,9.12h-1.15l5.31-9.12h1.15Zm-6.3,2.12c0,.78.36,1.31.86,1.31s.85-.53.85-1.31-.35-1.31-.85-1.31-.86.54-.86,1.31Zm7.1,4.87c0,1.22-.8,2.19-1.82,2.19s-1.83-.97-1.83-2.19.8-2.21,1.83-2.21,1.82.97,1.82,2.21Zm-2.69,0c0,.77.35,1.31.85,1.31s.86-.54.86-1.31-.35-1.31-.86-1.31-.85.54-.85,1.31Z"/>
    </g>
    <circle class="cls-1" cx="11.17" cy="270.71" r="11.17"/>
    <circle class="cls-5" cx="11.17" cy="310.67" r="11.17"/>
    <circle class="cls-2" cx="199.06" cy="310.67" r="11.17"/>
    <g>
      <g>
        <path class="cls-5" d="m341.06,313.74c.25.29.53.49.9.66.88.41,1.62.52,3.59.52,1.37,0,3-.05,3.96-.11-.16.5-.17.54-.23,1.18-1.8.04-2.73.05-4.15.05s-2.59-.2-3.5-.64c-.49-.23-.84-.48-1.15-.88-.22.26-.67.7-1,.97-.08.07-.22.19-.37.35-.06.19-.11.26-.18.26-.06,0-.12-.05-.17-.11l-.65-.9c.7-.44,1.21-.84,1.81-1.37v-2.6h-.48c-.31,0-.84.01-1.13.04v-1.16c.28.02.78.02,1.13.02h.54q.85,0,1.1-.02-.01.22-.02,1.07v2.67Zm-1.71-8.25c.74.65,1.13,1.07,1.64,1.77l-.92.74c-.56-.8-.68-.96-1.49-1.81l.77-.71Zm6.46,6.96c0,.8.01,1.46.04,1.85h-1.17c.02-.42.04-1.01.04-1.85h-1.62c.01,1.38.01,1.45.02,1.87h-1.15c.01-.52.02-1.58.02-2.34v-1.44q0-1.96-.02-2.34c.47.02,1.15.05,1.8.05h1.81c-1.09-.4-1.54-.53-2.4-.72l.42-.83c.5.12.94.24,1.34.36.34-.17.68-.34,1.01-.53h-2.3c-.49,0-1.24.01-1.68.04v-1.04c.44.02,1.19.04,1.68.04h3.72l.16-.16.72.65c.07.07.1.12.1.17,0,.1-.08.16-.23.17l-.23.02c-.58.38-1.18.71-1.79,1.03.23.07.44.16.67.25l-.4.55h.48c.64,0,1.32-.02,1.79-.05q-.02.32-.04,1.94v1.51c0,.24.01.89.02,1.33v.16c0,1.1-.35,1.34-2,1.34h-.07q-.02-.54-.2-1.24c.29.04.44.05.67.05.44,0,.49-.06.49-.5v-.35h-1.69Zm-1.1-3.23h-1.63v.66h1.63v-.66Zm0,1.6h-1.63v.7h1.63v-.7Zm2.79-.94v-.66h-1.69v.66h1.69Zm-1.69,1.63h1.69v-.7h-1.69v.7Z"/>
        <path class="cls-5" d="m351.49,310.45c-.2.47-.36.78-.66,1.29-.28-.6-.4-.78-.72-1.15,1.01-1.67,1.68-3.42,2.16-5.61l1.15.44c.11.04.17.1.17.17,0,.1-.04.12-.29.2-.35,1.19-.52,1.68-.95,2.7l.34.02c.12.01.2.06.2.12,0,.07-.07.14-.23.24-.01.6-.02,1.18-.02,2.05v2.85c0,1.08.01,1.93.04,2.46h-1.22c.02-.54.04-1.35.04-2.46v-3.33Zm9.99-2.03c-.52-.02-1.36-.04-1.91-.04h-4.4c-.62,0-1.42.01-1.92.04v-1.18c.5.01,1.29.04,1.92.04h4.4c.55,0,1.39-.02,1.91-.04v1.18Zm-6.2,7.7h-1.17c.02-.29.04-.68.04-1.28v-1.62c0-.38-.01-.84-.04-1.06.42.01.79.01,1.32.01h3.83c.53,0,.9,0,1.32-.01-.02.22-.04.67-.04,1.06v1.62c0,.56.01.97.04,1.25h-1.19v-.55h-4.1v.59Zm5.01-9.32c-.37-.01-1.04-.02-1.44-.02h-3.03c-.4,0-1.07.01-1.44.02v-1.15c.36.01.98.02,1.44.02h3.03c.46,0,1.08-.01,1.44-.02v1.15Zm0,3.26c-.37-.02-1.04-.04-1.44-.04h-3.03c-.4,0-1.07.01-1.44.04v-1.16c.36.01.98.02,1.44.02h3.03c.46,0,1.08-.01,1.44-.02v1.16Zm0,1.61c-.37-.01-1.04-.02-1.44-.02h-3.03c-.4,0-1.07.01-1.44.02v-1.15c.36.01.98.02,1.44.02h3.03c.46,0,1.08-.01,1.44-.02v1.15Zm-.91,2.76v-1.15h-4.1v1.15h4.1Z"/>
        <path class="cls-5" d="m367.31,312.24c0-.32,0-.64-.02-.96-1.14.35-2.54.59-4.4.74-.04-.24-.2-.76-.32-1,1.73-.1,2.96-.25,3.99-.5-.43-.08-.86-.14-1.31-.19-.11.12-.22.24-.32.35l-.85-.68c.34-.26.62-.56.91-.88h-.06c-.67,0-1.75.01-2.4.04v-1.01c.62.02,1.7.04,2.4.04h.89c.2-.25.4-.5.59-.77.11-.17.23-.34.31-.52l1.06.53c.06.02.11.08.11.16,0,.1-.08.14-.37.17-.13.16-.25.3-.37.43h3.68c.76,0,1.79-.01,2.4-.04v1.01c-.64-.02-1.67-.04-2.4-.04h-.06c-.35.42-.74.79-1.19,1.1l.11.02c1.64.37,1.85.43,3.01.82l-.67.94c-1.33-.5-1.76-.64-3.48-1.03l-.23-.06c-.28.12-.54.23-.83.31l1.03.06c.13.01.2.06.2.12,0,.07-.07.14-.24.24v.6h2.53c.75,0,1.77-.02,2.39-.05v1.02c-.64-.02-1.66-.05-2.39-.05h-1.81c.35.25.72.46,1.22.7.96.46,1.73.71,3.2,1.04-.26.32-.35.47-.54,1.02-1.49-.4-2.25-.71-3.26-1.31-.58-.34-1-.64-1.36-.95v.82c0,.84.01,1.42.04,1.76h-1.21c.02-.43.02-1,.02-1.76v-.82c-1.25,1.04-2.78,1.82-4.75,2.41-.12-.4-.22-.6-.46-.98,1.14-.3,1.86-.56,2.84-1.04.64-.3,1.03-.53,1.49-.89h-1.68c-.66,0-1.74.02-2.39.05v-1.02c.61.02,1.7.05,2.39.05h2.55Zm0-6.45c0-.34,0-.6-.01-.78l1.17.08c.14.01.23.06.23.12,0,.07-.07.14-.24.24v.46h2.12c.83,0,1.76-.01,2.39-.05-.02.32-.02.52-.02.71v.44c0,.26.01.55.04.85h-1.24c.02-.26.04-.61.04-.85v-.17h-7.8v.17c0,.24.01.59.02.85h-1.22c.02-.3.04-.59.04-.85v-.44c0-.19-.01-.38-.02-.71.61.04,1.56.05,2.38.05h2.13v-.12Zm-.97,3.33c-.14.17-.29.32-.44.49.78.1,1.56.19,2.33.34.42-.22.79-.5,1.13-.83h-3.01Z"/>
        <path class="cls-5" d="m376.69,308.52c.12.01.2.06.2.12,0,.07-.07.14-.23.24-.01.6-.02,1.18-.02,2.05v2.85c0,1.08.01,1.93.04,2.46h-1.22c.02-.54.04-1.35.04-2.46v-3.33c-.2.47-.36.78-.66,1.29-.28-.6-.4-.78-.72-1.15,1.01-1.67,1.68-3.42,2.16-5.61l1.15.44c.11.04.17.1.17.17,0,.1-.04.12-.29.2-.35,1.19-.52,1.68-.95,2.7l.34.02Zm4.19-.83c-.01-1.38-.05-2.23-.08-2.53l1.32.08c.11,0,.18.06.18.12,0,.07-.06.13-.22.23-.01.36-.01.41-.02,2.1h1.26c.49,0,1.24-.01,1.67-.04v1.16c-.43-.01-1.18-.02-1.67-.02h-1.26v2.24h1.78c.48,0,1.26-.01,1.68-.02v1.16c-.44-.02-1.22-.04-1.68-.04h-1.78v.56c0,1.57.02,2.73.06,3.5h-1.3c.04-.78.06-1.96.06-3.5v-.56h-1.92c-.52,0-1.19.01-1.68.04v-1.16c.46.01,1.14.02,1.68.02h1.92v-2.24h-1.93c-.36.73-.74,1.37-1.24,2-.46-.49-.48-.5-.91-.79,1.01-1.3,1.68-2.76,2.03-4.41l1.1.36c.17.05.23.1.23.18,0,.1-.02.11-.29.22-.16.49-.3.94-.46,1.34h1.46Z"/>
        <path class="cls-5" d="m390.77,307.58c1.28-.04,1.87-.46,2.13-1.54h.97v9.16h-1.4v-6.81h-1.7v-.82Z"/>
        <path class="cls-5" d="m397.91,308.24c.07-1.48,1.09-2.33,2.79-2.33.84,0,1.49.22,1.94.66.43.42.7,1.06.7,1.7,0,.96-.47,1.62-1.44,2.03,1.12.35,1.64,1.06,1.64,2.21,0,.89-.37,1.7-1.02,2.22-.53.41-1.2.61-2.05.61-1.85,0-2.94-.89-2.95-2.43h1.27c.02.78.61,1.21,1.68,1.21s1.66-.59,1.66-1.58c0-.67-.32-1.16-.91-1.39-.26-.1-.76-.16-1.31-.16h-.29s0-1.16,0-1.16c.17.01.24.01.35.01,1.26,0,1.94-.52,1.94-1.45,0-.77-.52-1.26-1.35-1.26s-1.37.42-1.44,1.12h-1.21Z"/>
        <path class="cls-5" d="m408.53,308.22c0,1.24-.8,2.19-1.83,2.19s-1.83-.96-1.83-2.19.8-2.19,1.83-2.19,1.83.96,1.83,2.19Zm3.6-2.12l-5.31,9.11h-1.15l5.31-9.11h1.15Zm-6.3,2.12c0,.78.36,1.31.86,1.31s.85-.53.85-1.31-.35-1.31-.85-1.31-.86.54-.86,1.31Zm7.1,4.87c0,1.22-.8,2.19-1.82,2.19s-1.83-.97-1.83-2.19.8-2.21,1.83-2.21,1.82.97,1.82,2.21Zm-2.69,0c0,.77.35,1.31.85,1.31s.86-.54.86-1.31-.35-1.31-.86-1.31-.85.54-.85,1.31Z"/>
      </g>
      <circle class="cls-4" cx="321.89" cy="310.67" r="11.17"/>
    </g>
    <circle class="cls-3" cx="138.76" cy="270.71" r="11.17"/>
    <g>
      <path class="cls-1" d="m209.28,0v50.26c37.81.1,68.42,30.78,68.42,68.61h50.45C328.15,53.22,274.93,0,209.28,0Z"/>
      <path class="cls-3" d="m277.71,118.87c0,37.83-30.62,68.5-68.42,68.61v50.26c65.65,0,118.87-53.22,118.87-118.87h-50.45Z"/>
      <path class="cls-5" d="m209.28,237.74v-50.26c-.06,0-.13,0-.19,0-30.47,0-56.29-19.87-65.24-47.35l-47.62,15.47c16.23,49.95,60.53,82.14,113.05,82.14Z"/>
      <path class="cls-2" d="m159.01,71.99l-36.67-34.19c-30.45,32.65-39.91,75.34-26.12,117.8l47.62-15.47c-2.18-6.7-3.37-13.84-3.37-21.26,0-18.13,7.05-34.61,18.53-46.88Z"/>
      <path class="cls-4" d="m159.01,71.99c12.52-13.37,30.32-21.74,50.08-21.74.06,0,.13,0,.19,0V0c-34.14,0-63.65,12.83-86.94,37.8"/>
    </g>
  </g>
</svg>