<?xml version="1.0" encoding="UTF-8"?><svg id="_レイヤー_2" xmlns="http://www.w3.org/2000/svg" xmlns:xlink="http://www.w3.org/1999/xlink" viewBox="0 0 399.82 299.75"><defs><style>.cls-1{font-family:DNPShueiGoGinStd-B-83pv-RKSJ-H, 'DNP ShueiGoGinStd';font-size:10.04px;}.cls-1,.cls-2{fill:#333;}.cls-3{fill:#fff;}.cls-4{fill:#1a1a1a;}.cls-5{fill:none;stroke:#333;stroke-dasharray:0 2;stroke-miterlimit:10;stroke-width:2px;}.cls-6{fill:url(#_新規グラデーションスウォッチ_1);}.cls-7{fill:url(#_新規グラデーションスウォッチ_1-2);}.cls-8{fill:url(#_新規グラデーションスウォッチ_1-3);}</style><linearGradient id="_新規グラデーションスウォッチ_1" x1="339.5" y1="130.75" x2="375.15" y2="130.75" gradientUnits="userSpaceOnUse"><stop offset="0" stop-color="#0d76a3"/><stop offset="0" stop-color="#0d74a2"/><stop offset=".18" stop-color="#10548a"/><stop offset=".37" stop-color="#133b78"/><stop offset=".56" stop-color="#152a6b"/><stop offset=".76" stop-color="#161f63"/><stop offset="1" stop-color="#171c61"/></linearGradient><linearGradient id="_新規グラデーションスウォッチ_1-2" x1="343.42" y1="12.9" x2="369.21" y2="12.9" xlink:href="#_新規グラデーションスウォッチ_1"/><linearGradient id="_新規グラデーションスウォッチ_1-3" x1="314.82" y1="284.5" x2="399.82" y2="284.5" xlink:href="#_新規グラデーションスウォッチ_1"/></defs><g id="_レイヤー_1-2"><g><g><path class="cls-2" d="M31.53,20.58l-.24,.24-3.79-3.78-3.77,3.78-.24-.24,3.77-3.78-3.75-3.75,.24-.24,3.75,3.75,3.75-3.75,.24,.24-3.75,3.75,3.79,3.78Zm-5.65-3.78c0,.49-.41,.9-.9,.9s-.9-.41-.9-.9,.41-.9,.9-.9,.9,.41,.9,.9Zm2.51-2.51c0,.49-.41,.9-.9,.9s-.9-.41-.9-.9,.41-.9,.9-.9,.9,.41,.9,.9Zm0,5.02c0,.49-.41,.9-.9,.9s-.9-.41-.9-.9,.41-.9,.9-.9,.9,.41,.9,.9Zm2.51-2.51c0,.49-.41,.9-.9,.9s-.9-.41-.9-.9,.41-.9,.9-.9,.9,.41,.9,.9Z"/><path class="cls-2" d="M35.49,17.54c-.23,.35-.31,.57-.31,.87,0,.83,.65,1.13,2.49,1.13,1.14,0,1.91-.1,2.99-.4-.04,.36-.05,.53-.05,.76,0,.13,0,.22,0,.43-.78,.19-1.76,.29-2.85,.29-1.57,0-2.38-.17-2.99-.61-.42-.3-.65-.8-.65-1.4,0-.52,.1-.88,.44-1.51l.92,.44Zm.29-4.06c.37,.51,.54,.58,1.54,.58,.75,0,1.61-.12,2.47-.33l.26,1.01c-1.08,.26-1.81,.34-2.95,.34s-1.58-.21-2.12-1.08l.8-.52Zm4.59-.62c.47,.29,.77,.53,1.26,1l-.5,.55c-.46-.49-.69-.69-1.2-1.04l.44-.51Zm.77-.9c.48,.29,.78,.53,1.27,1l-.5,.54c-.46-.49-.69-.68-1.21-1.03l.44-.51Z"/><path class="cls-2" d="M44.08,17.83c.07,.02,.11,.06,.11,.12,0,.04-.02,.07-.07,.1l-.1,.06c-.11,1.01-.29,1.89-.53,2.58-.43-.29-.45-.3-.79-.45,.32-.87,.45-1.51,.54-2.63l.84,.22Zm-1.23-1.51c.24,0,.48-.01,.71-.01,.2-.28,.4-.56,.6-.85-.38-.33-.73-.59-1.26-.95l.41-.75c.09,.06,.18,.11,.27,.17,.33-.59,.66-1.28,.79-1.72l.85,.35s.09,.08,.09,.13c0,.06-.06,.1-.21,.14-.29,.62-.58,1.16-.83,1.56,.13,.09,.26,.19,.38,.29,.28-.47,.49-.89,.66-1.31l.85,.41c.06,.03,.11,.09,.11,.14,0,.07-.06,.11-.22,.14-.71,1.22-.97,1.63-1.41,2.2,.3-.02,.6-.04,.9-.07-.09-.19-.17-.36-.27-.52l.72-.4c.38,.65,.56,1.02,.81,1.71l-.81,.39c-.05-.16-.1-.3-.15-.43-.2,.03-.39,.06-.59,.09v2.33c0,.92,0,1.61,.03,2.05h-1.02c.02-.44,.03-1.13,.03-2.05v-2.21c-.3,.04-.59,.08-.87,.11-.08,.1-.13,.14-.17,.14-.06,0-.12-.06-.14-.14l-.26-.94Zm3.25,1.2c.34,.57,.52,1.06,.72,1.89l-.83,.36c-.22-1.02-.32-1.34-.58-1.93l.69-.32Zm5.29-5.04l.58,.52c.07,.06,.09,.1,.09,.15,0,.07-.05,.12-.18,.17h-.03c-.16,1.86-.38,2.75-.77,3.11-.33,.31-.71,.4-1.86,.4-.06-.54-.1-.72-.24-1.06,.24,.02,.45,.03,.71,.03,.43,0,.61-.09,.75-.37,.18-.35,.32-.94,.43-1.89h-1.63c-.11,.87-.26,1.36-.58,1.91-.35,.62-.77,1.09-1.43,1.6-.16-.31-.36-.59-.59-.79,.65-.49,.89-.77,1.21-1.39,.22-.45,.32-.75,.39-1.33h-.19c-.42,0-1.01,0-1.39,.03v-.97c.38,.01,.97,.02,1.39,.02h3.23l.11-.14Zm-3.4,8.96h-.97c.02-.4,.03-.98,.03-1.76v-.82c0-.6-.02-1.27-.03-1.59,.26,0,.5,.02,.85,.02h2.99c.34,0,.58,0,.85-.02q-.02,.33-.03,1.59v.68c0,.8,0,1.38,.03,1.76h-.97v-.39h-2.75v.53Zm2.75-1.45v-1.78h-2.75v1.78h2.75Z"/><path class="cls-2" d="M55.47,16.22c0-.24,0-.43,0-.57-.64,.51-1.31,.91-2.22,1.36-.14-.43-.26-.66-.51-.98,1.22-.6,1.9-1.04,2.59-1.64,.76-.68,1.3-1.36,1.82-2.3l.95,.3c.11,.04,.16,.1,.16,.18s-.04,.12-.18,.16c.46,.7,.91,1.18,1.58,1.69,.73,.57,1.39,.91,2.66,1.37-.23,.34-.34,.56-.5,1-1.15-.4-1.9-.81-2.8-1.52-.67-.52-1.04-.92-1.56-1.75-.45,.71-.89,1.19-1.54,1.76-.12,.11-.24,.21-.36,.31l.91,.06c.13,0,.19,.04,.19,.1s-.05,.12-.2,.2v1.73c0,1.1-.17,1.88-.52,2.38-.39,.57-.91,.91-2.13,1.43-.17-.36-.32-.58-.59-.91,1.83-.71,2.26-1.26,2.26-2.9v-1.46Zm2.83,5.2c.04-.49,.06-1.2,.06-2.25v-1.31c0-1.26-.03-2.04-.07-2.27l1.13,.09c.09,0,.15,.05,.15,.1,0,.06-.05,.11-.18,.18q-.02,.25-.03,1.9v1.31c0,1.05,.02,1.77,.06,2.25h-1.12Z"/><path class="cls-2" d="M65.06,16.79c.02-.31,.03-.72,.03-1.25-.55,.61-1.1,1.01-1.97,1.43-.13-.28-.26-.5-.43-.71,.91-.49,1.38-.8,1.87-1.28h-.6c-.29,0-.71,.01-1,.02v-.85c.26,0,.71,0,1,0h.08c-.22-.39-.55-.85-.83-1.18l.64-.46c.4,.39,.68,.74,1.01,1.28l-.56,.36h.79v-.41c0-.79,0-1.21-.03-1.5l.95,.07c.11,0,.17,.04,.17,.1s-.05,.11-.19,.2c0,.28,0,.62,0,1.13v.41h.7l-.49-.21c.37-.66,.53-1,.72-1.52l.82,.31c.1,.03,.13,.06,.13,.11s-.02,.06-.06,.08c-.04,.02-.1,.04-.13,.05-.35,.59-.37,.62-.75,1.18h.08c.29,0,.74,0,.99,0v.85c-.28,0-.7-.02-.99-.02h-1.02v.08c.73,.29,1.12,.51,1.66,.95l-.55,.68c-.3-.31-.59-.54-1.11-.87,0,.41,0,.74,.02,.97h-.94Zm-.95,3.24l-.79-.45c.2-.25,.45-.62,.69-1.03h-.05c-.29,0-.71,0-1,.02v-.85c.29,.01,.71,.02,1,.02h.51c.19-.36,.35-.71,.46-.99l.88,.43c.07,.03,.11,.08,.11,.13,0,.08-.09,.12-.31,.13-.06,.1-.11,.2-.17,.3h1.56c.29,0,.71,0,.99-.02v.85c-.23,0-.56-.02-.83-.02-.2,.39-.41,.77-.67,1.12,.25,.13,.5,.27,.76,.42l-.54,.78c-.29-.2-.57-.38-.84-.54-.63,.52-1.45,.84-2.71,1.15-.12-.39-.15-.46-.39-.8,1.04-.22,1.74-.45,2.27-.8-.22-.11-.44-.21-.66-.3l-.27,.45Zm.86-1.48c-.07,.13-.15,.26-.23,.4,.32,.1,.63,.22,.94,.35,.2-.23,.36-.49,.51-.75h-1.22Zm7.21-3.46c-.18,0-.44-.02-.7-.02-.09,.75-.23,1.5-.43,2.23-.15,.53-.35,1.05-.62,1.53,.41,.61,.88,1.04,1.87,1.76-.31,.26-.42,.39-.66,.77-.66-.49-1.31-1.13-1.76-1.73-.58,.73-1.37,1.35-2.3,1.84-.19-.38-.21-.42-.5-.77,1.19-.7,1.77-1.18,2.28-1.89-.38-.71-.62-1.5-.75-2.29-.17,.34-.37,.68-.6,1.03-.25-.28-.35-.36-.71-.6,.55-.75,.79-1.24,1.1-2.19,.28-.84,.42-1.45,.61-2.57l.85,.27c.14,.04,.17,.06,.17,.11,0,.07-.05,.11-.22,.16-.11,.53-.21,1-.32,1.42h1.5c.38,0,.89,0,1.19-.03v.97Zm-2.96-.03l-.02,.07c.13,.95,.32,1.89,.7,2.77,.41-.89,.58-1.88,.71-2.84h-1.39Z"/><path class="cls-2" d="M80.62,12.01h.93l-4.64,9.57h-.94l4.65-9.57Z"/><path class="cls-2" d="M88.45,17.94c-.08,.8-.24,1.27-.55,1.76-.45,.73-1,1.23-1.96,1.79-.3-.56-.33-.61-.61-.88,.93-.51,1.44-.99,1.77-1.66,.31-.63,.41-1.38,.41-3.02v-1.59c0-.59-.01-1.27-.03-1.59,.34,0,.65,.02,1.14,.02h3.06c.49,0,.83,0,1.17-.02q-.02,.32-.03,1.59v4.15c0,.37,0,.72,0,1.74v.12c0,.46-.08,.69-.33,.85-.27,.17-.61,.22-1.45,.22h-.3c-.03-.46-.04-.57-.17-1.12,.4,.03,.63,.03,.9,.03,.32,0,.37-.05,.37-.41v-1.98h-3.4Zm3.4-2.13h-3.33v.09c0,.37,0,.75,0,1.12h3.34v-1.21Zm0-2.13h-3.33v1.21h3.33v-1.21Z"/><path class="cls-2" d="M31.53,37.65l-.24,.24-3.79-3.78-3.77,3.78-.24-.24,3.77-3.78-3.75-3.75,.24-.24,3.75,3.75,3.75-3.75,.24,.24-3.75,3.75,3.79,3.78Zm-5.65-3.78c0,.49-.41,.9-.9,.9s-.9-.41-.9-.9,.41-.9,.9-.9,.9,.41,.9,.9Zm2.51-2.51c0,.49-.41,.9-.9,.9s-.9-.41-.9-.9,.41-.9,.9-.9,.9,.41,.9,.9Zm0,5.02c0,.49-.41,.9-.9,.9s-.9-.41-.9-.9,.41-.9,.9-.9,.9,.41,.9,.9Zm2.51-2.51c0,.49-.41,.9-.9,.9s-.9-.41-.9-.9,.41-.9,.9-.9,.9,.41,.9,.9Z"/><path class="cls-2" d="M34.1,37.43h-.95c.02-.37,.03-.96,.03-1.74v-3.86q0-1.26-.03-1.59c.19,0,.36,.02,.59,.02h1.73c.23,0,.4,0,.59-.02-.02,.32-.03,.99-.03,1.59v3.36c0,.83,0,1.37,.03,1.75h-.95v-.65h-1.01v1.14Zm1.01-4.6v-1.74h-1.01v1.74h1.01Zm-1.01,2.63h1.01v-1.8h-1.01v1.8Zm5.24-2.45h.82c.49,0,1.17,0,1.6-.03v.99c-.43-.02-1.11-.04-1.6-.04h-.82v1.14h.81c.49,0,1.17,0,1.6-.03v.99c-.43-.02-1.11-.04-1.6-.04h-.81v.48c0,.91,0,1.6,.04,2.04h-1.03c.02-.44,.03-1.13,.03-2.04v-4.65h-.39c-.33,.86-.72,1.63-1.15,2.29-.07-.06-.11-.11-.14-.14-.27-.29-.32-.33-.61-.49,.77-1.24,1.21-2.38,1.64-4.27l.92,.23c.14,.03,.21,.1,.21,.17s-.03,.09-.23,.15c-.1,.4-.21,.78-.32,1.14h2.26c.48,0,1.16,0,1.59-.03v.99c-.43-.02-1.11-.04-1.59-.04h-1.23v1.19Z"/><path class="cls-2" d="M47.4,32.07c-.27-.02-.65-.02-.93-.02-.13,.89-.32,1.77-.63,2.62,.52,.46,.99,.95,1.55,1.61l-.72,.76c-.52-.6-.91-1.04-1.26-1.4,0,.02-.03,.05-.04,.07-.57,1.05-1.16,1.72-2.18,2.49-.23-.4-.36-.58-.55-.76,.96-.76,1.46-1.33,1.94-2.25,.04-.08,.08-.15,.12-.23-.46-.4-.93-.74-1.64-1.21l.54-.75c.58,.38,1.05,.71,1.47,1.03,.19-.65,.32-1.31,.41-1.98h-1.61c-.29,0-.71,0-1,.02v-.96c.29,0,.71,.02,1,.02h.77v-.88c0-.46,0-.58-.02-.93l.99,.06c.12,0,.18,.05,.18,.11s-.05,.11-.19,.2v1.44h.8c.29,0,.71-.01,1-.02v.96Zm.86,1.15c.88,1,.92,1.05,1.41,1.93l-.85,.59c-.27-.64-.74-1.39-1.27-1.99l.71-.53Zm2.9-1.75c.29,0,.72-.01,1-.02v.96c-.28-.02-.71-.02-1-.02h-.22v2.52c0,.46,0,1.07,.03,2.3v.1c0,.5-.09,.75-.36,.92-.31,.2-.6,.24-1.72,.25q-.02-.39-.19-1.06c.39,.03,.58,.04,.88,.04,.36,0,.4-.04,.4-.42v-4.65h-1.36c-.29,0-.71,0-.99,.02v-.96c.28,0,.7,.02,.99,.02h1.36c0-1.16-.03-1.9-.06-2.15l1.07,.07c.09,0,.14,.05,.14,.1,0,.06-.05,.11-.18,.19,0,.31,0,.34,0,1.79h.22Z"/><path class="cls-2" d="M56.8,32.43c.29,0,.71,0,1-.02v.96c-.29,0-.71-.02-1-.02h-1.49v3.31c.77-.22,1.51-.45,2.44-.77l.15,.93c-1.51,.53-3.14,1.03-4.4,1.37-.08,.13-.14,.19-.2,.19-.05,0-.11-.06-.14-.12l-.41-.99c.59-.13,1.11-.25,1.58-.36v-5.87c0-.79-.01-1.21-.03-1.5l1.03,.07c.11,0,.17,.04,.17,.1s-.05,.12-.18,.2c0,.23,0,.5,0,1.13v1.39h1.49Zm2.48-.03c.74-.33,1.24-.63,1.93-1.15l.74,.69s.08,.09,.08,.13c0,.06-.05,.09-.15,.09-.04,0-.09,0-.19,0-1.03,.61-1.48,.84-2.41,1.2v3.53c0,.36,.12,.42,.84,.42s.99-.06,1.1-.23q.09-.15,.12-1.3c.53,.22,.56,.23,.95,.33-.08,1.36-.17,1.68-.52,1.9-.3,.19-.76,.26-1.75,.26-1.44,0-1.73-.19-1.73-1.08v-6.12c.01-.8,0-1.22-.02-1.51l1.03,.07c.11,.01,.18,.05,.18,.1,0,.06-.06,.12-.19,.2,0,.23,0,.51,0,1.14v1.34Z"/></g><path class="cls-2" d="M70.35,245.83c0,1.55-1,2.75-2.29,2.75s-2.29-1.2-2.29-2.75,1-2.74,2.29-2.74,2.29,1.2,2.29,2.74Zm4.5-2.65l-6.64,11.4h-1.44l6.65-11.4h1.44Zm-7.88,2.65c0,.98,.45,1.64,1.08,1.64s1.07-.66,1.07-1.64-.44-1.63-1.07-1.63-1.08,.67-1.08,1.63Zm8.88,6.09c0,1.53-1,2.75-2.28,2.75s-2.29-1.21-2.29-2.75,1-2.76,2.29-2.76,2.28,1.21,2.28,2.76Zm-3.36,0c0,.96,.43,1.64,1.06,1.64s1.08-.68,1.08-1.64-.43-1.63-1.08-1.63-1.06,.67-1.06,1.63Z"/><path class="cls-2" d="M226.06,245.83c0,1.55-1,2.75-2.29,2.75s-2.29-1.2-2.29-2.75,1-2.74,2.29-2.74,2.29,1.2,2.29,2.74Zm4.5-2.65l-6.64,11.4h-1.44l6.65-11.4h1.44Zm-7.88,2.65c0,.98,.45,1.64,1.08,1.64s1.07-.66,1.07-1.64-.44-1.63-1.07-1.63-1.08,.67-1.08,1.63Zm8.88,6.09c0,1.53-1,2.75-2.28,2.75s-2.29-1.21-2.29-2.75,1-2.76,2.29-2.76,2.28,1.21,2.28,2.76Zm-3.36,0c0,.96,.43,1.64,1.06,1.64s1.08-.68,1.08-1.64-.43-1.63-1.08-1.63-1.06,.67-1.06,1.63Z"/><path class="cls-2" d="M386.68,245.83c0,1.55-1,2.75-2.29,2.75s-2.29-1.2-2.29-2.75,1-2.74,2.29-2.74,2.29,1.2,2.29,2.74Zm4.5-2.65l-6.64,11.4h-1.44l6.65-11.4h1.44Zm-7.88,2.65c0,.98,.45,1.64,1.08,1.64s1.07-.66,1.07-1.64-.44-1.63-1.07-1.63-1.08,.67-1.08,1.63Zm8.88,6.09c0,1.53-1,2.75-2.28,2.75s-2.29-1.21-2.29-2.75,1-2.76,2.29-2.76,2.28,1.21,2.28,2.76Zm-3.36,0c0,.96,.43,1.64,1.06,1.64s1.08-.68,1.08-1.64-.43-1.63-1.08-1.63-1.06,.67-1.06,1.63Z"/><g><path class="cls-2" d="M28.24,239.46l-2.45,1.86v-2.71l2.45-1.83h2.46v17.8h-2.46v-15.11Z"/><path class="cls-2" d="M36.74,236.77h9.19v2.54h-6.87v4.05c.81-.65,1.73-.98,2.76-.98,.66,.02,1.27,.14,1.83,.37,.52,.25,.94,.56,1.27,.93,.48,.49,.83,1.05,1.04,1.7,.11,.35,.19,.78,.24,1.28,.05,.51,.07,1.14,.07,1.89,0,1.16-.08,2.04-.24,2.66-.17,.61-.44,1.15-.83,1.62-.34,.46-.83,.88-1.48,1.26-.63,.4-1.38,.6-2.25,.62-1.17,0-2.24-.36-3.21-1.07-.99-.73-1.6-1.91-1.83-3.54h2.47c.27,1.37,1.09,2.06,2.47,2.08,.59,0,1.07-.12,1.42-.37,.34-.24,.58-.55,.71-.93,.14-.38,.23-.8,.26-1.25,.02-.44,.02-.87,.02-1.28,.02-1.02-.14-1.85-.46-2.48-.17-.3-.43-.54-.77-.72-.34-.15-.76-.22-1.27-.22-.45,0-.86,.11-1.24,.32-.37,.22-.71,.6-1,1.15h-2.32v-9.62Z"/><path class="cls-2" d="M48.45,241.73c.02-1.64,.52-2.9,1.53-3.79,.94-.88,2.06-1.32,3.36-1.32s2.48,.44,3.42,1.32c.96,.89,1.45,2.15,1.48,3.8v7.85c-.03,1.64-.52,2.9-1.48,3.78-.94,.88-2.08,1.33-3.42,1.34-1.3-.02-2.42-.46-3.36-1.34-1-.89-1.51-2.14-1.53-3.78v-7.87Zm7.32,.16c-.05-1.79-.86-2.7-2.44-2.73-1.58,.03-2.39,.94-2.42,2.73v7.56c.03,1.8,.84,2.71,2.42,2.73,1.58-.02,2.39-.92,2.44-2.73v-7.56Z"/></g><g><path class="cls-2" d="M181.19,252.18l6.74-8.71c.26-.35,.44-.68,.53-.98,.06-.29,.09-.55,.09-.81,0-.67-.2-1.25-.61-1.75-.42-.5-1.01-.75-1.78-.77-.68,0-1.25,.22-1.7,.67-.47,.45-.74,1.08-.83,1.9h-2.46c.06-1.48,.54-2.7,1.44-3.67,.91-.94,2.02-1.42,3.35-1.44,1.48,.02,2.69,.5,3.61,1.47,.94,.95,1.42,2.16,1.43,3.63,0,1.17-.35,2.22-1.04,3.13l-5.55,7.18h6.59v2.54h-9.84v-2.39Z"/><path class="cls-2" d="M193.34,241.73c.02-1.64,.52-2.9,1.53-3.79,.94-.88,2.06-1.32,3.36-1.32s2.48,.44,3.42,1.32c.96,.89,1.45,2.15,1.48,3.8v7.85c-.03,1.64-.52,2.9-1.48,3.78-.94,.88-2.08,1.33-3.42,1.34-1.3-.02-2.42-.46-3.36-1.34-1-.89-1.51-2.14-1.53-3.78v-7.87Zm7.32,.16c-.05-1.79-.86-2.7-2.44-2.73-1.58,.03-2.39,.94-2.42,2.73v7.56c.03,1.8,.84,2.71,2.42,2.73,1.58-.02,2.39-.92,2.44-2.73v-7.56Z"/><path class="cls-2" d="M205.34,241.73c.02-1.64,.52-2.9,1.53-3.79,.94-.88,2.06-1.32,3.36-1.32s2.48,.44,3.42,1.32c.96,.89,1.45,2.15,1.48,3.8v7.85c-.03,1.64-.52,2.9-1.48,3.78-.94,.88-2.08,1.33-3.42,1.34-1.3-.02-2.42-.46-3.36-1.34-1-.89-1.51-2.14-1.53-3.78v-7.87Zm7.32,.16c-.05-1.79-.86-2.7-2.44-2.73-1.58,.03-2.39,.94-2.42,2.73v7.56c.03,1.8,.84,2.71,2.42,2.73,1.58-.02,2.39-.92,2.44-2.73v-7.56Z"/></g><text class="cls-1" transform="translate(364.43 123.36)"><tspan x="0" y="0">名</tspan></text><g><path class="cls-2" d="M344.05,244.28h.85c.84,0,1.5-.24,1.97-.72,.47-.47,.7-1.07,.7-1.82-.02-.75-.26-1.37-.72-1.85-.47-.47-1.07-.71-1.8-.72-.53,0-1.01,.18-1.44,.53-.46,.35-.77,.9-.92,1.63h-2.47c.13-1.32,.64-2.43,1.55-3.33,.89-.89,1.96-1.35,3.19-1.37,1.57,.02,2.82,.53,3.74,1.55,.88,.99,1.33,2.17,1.35,3.52,0,.68-.12,1.34-.37,1.98-.29,.63-.79,1.2-1.53,1.7,.75,.49,1.29,1.07,1.62,1.76,.32,.68,.48,1.4,.48,2.15-.02,1.67-.52,2.98-1.5,3.94-.97,.99-2.21,1.49-3.73,1.5-1.17,0-2.21-.39-3.12-1.17-.91-.78-1.49-1.91-1.76-3.39h2.47c.22,.6,.53,1.08,.93,1.44,.41,.38,.95,.58,1.63,.58,.73,0,1.34-.26,1.83-.77,.5-.48,.76-1.17,.78-2.06-.02-.91-.28-1.61-.78-2.1-.5-.48-1.13-.72-1.89-.72h-1.06v-2.24Z"/><path class="cls-2" d="M352.73,241.73c.02-1.64,.52-2.9,1.53-3.79,.94-.88,2.06-1.32,3.36-1.32s2.48,.44,3.42,1.32c.96,.89,1.45,2.15,1.48,3.8v7.85c-.03,1.64-.52,2.9-1.48,3.78-.94,.88-2.08,1.33-3.42,1.34-1.3-.02-2.42-.46-3.36-1.34-1-.89-1.51-2.14-1.53-3.78v-7.87Zm7.32,.16c-.05-1.79-.86-2.7-2.44-2.73-1.58,.03-2.39,.94-2.42,2.73v7.56c.03,1.8,.84,2.71,2.42,2.73,1.58-.02,2.39-.92,2.44-2.73v-7.56Z"/><path class="cls-2" d="M364.73,241.73c.02-1.64,.52-2.9,1.53-3.79,.94-.88,2.06-1.32,3.36-1.32s2.48,.44,3.42,1.32c.96,.89,1.45,2.15,1.48,3.8v7.85c-.03,1.64-.52,2.9-1.48,3.78-.94,.88-2.08,1.33-3.42,1.34-1.3-.02-2.42-.46-3.36-1.34-1-.89-1.51-2.14-1.53-3.78v-7.87Zm7.32,.16c-.05-1.79-.86-2.7-2.44-2.73-1.58,.03-2.39,.94-2.42,2.73v7.56c.03,1.8,.84,2.71,2.42,2.73,1.58-.02,2.39-.92,2.44-2.73v-7.56Z"/></g><rect class="cls-2" x="24.18" y="175.2" width="35.65" height="45.83"/><rect class="cls-2" x="180.33" y="144.12" width="35.65" height="76.92"/><rect class="cls-6" x="339.5" y="40.12" width="35.65" height="181.27"/><rect y="221.21" width="396.32" height="1"/><circle class="cls-4" cx="43.01" cy="150.63" r="2.76"/><polyline class="cls-5" points="43.01 150.63 198.16 120 356.32 12.9"/><circle class="cls-7" cx="356.32" cy="12.9" r="12.9"/><circle class="cls-4" cx="198.38" cy="120.23" r="6.03"/><rect class="cls-2" x="3.28" y="269.24" width="84.99" height="30.51" rx="5" ry="5"/><path class="cls-3" d="M28.89,281.8c.08-2.02,1.34-3.21,3.44-3.21s3.38,1.2,3.38,3.06c0,1.09-.38,1.89-1.65,3.43-.64,.78-1.47,1.74-3.04,3.53h4.81v1.6h-7.06v-1.41q.26-.31,1.15-1.36c3.65-4.28,3.99-4.77,3.99-5.73s-.67-1.58-1.66-1.58c-1.07,0-1.71,.59-1.83,1.67h-1.52Z"/><path class="cls-3" d="M45.96,284.5c0,3.69-1.48,5.89-3.96,5.89s-3.97-2.21-3.97-5.89,1.49-5.89,3.97-5.89,3.96,2.21,3.96,5.89Zm-5.41-3.58c-.48,.84-.74,2.12-.74,3.58s.26,2.75,.74,3.58c.31,.54,.82,.84,1.45,.84s1.12-.3,1.44-.84c.48-.84,.75-2.12,.75-3.58s-.29-2.79-.75-3.58c-.33-.55-.83-.84-1.44-.84s-1.14,.29-1.45,.84Z"/><path class="cls-3" d="M48.3,281.8c.08-2.02,1.34-3.21,3.44-3.21s3.38,1.2,3.38,3.06c0,1.09-.38,1.89-1.65,3.43-.64,.78-1.47,1.74-3.04,3.53h4.81v1.6h-7.06v-1.41q.26-.31,1.15-1.36c3.65-4.28,3.99-4.77,3.99-5.73s-.67-1.58-1.66-1.58c-1.07,0-1.71,.59-1.83,1.67h-1.52Z"/><path class="cls-3" d="M65.37,284.5c0,3.69-1.48,5.89-3.96,5.89s-3.97-2.21-3.97-5.89,1.49-5.89,3.97-5.89,3.96,2.21,3.96,5.89Zm-5.41-3.58c-.48,.84-.74,2.12-.74,3.58s.26,2.75,.74,3.58c.31,.54,.82,.84,1.45,.84s1.12-.3,1.44-.84c.48-.84,.75-2.12,.75-3.58s-.29-2.79-.75-3.58c-.33-.55-.83-.84-1.44-.84s-1.14,.29-1.45,.84Z"/><rect class="cls-2" x="155.66" y="269.24" width="84.99" height="30.51" rx="5" ry="5"/><g><path class="cls-3" d="M181.28,281.8c.08-2.02,1.33-3.21,3.43-3.21s3.38,1.2,3.38,3.06c0,1.09-.38,1.89-1.65,3.43-.64,.78-1.47,1.74-3.04,3.53h4.81v1.6h-7.06v-1.41q.25-.31,1.15-1.36c3.65-4.28,3.99-4.77,3.99-5.73s-.67-1.58-1.67-1.58c-1.07,0-1.71,.59-1.83,1.67h-1.51Z"/><path class="cls-3" d="M198.34,284.5c0,3.69-1.48,5.89-3.96,5.89s-3.97-2.21-3.97-5.89,1.49-5.89,3.97-5.89,3.96,2.21,3.96,5.89Zm-5.41-3.58c-.48,.84-.74,2.12-.74,3.58s.25,2.75,.74,3.58c.31,.54,.82,.84,1.45,.84s1.12-.3,1.44-.84c.48-.84,.75-2.12,.75-3.58s-.29-2.79-.75-3.58c-.33-.55-.83-.84-1.44-.84s-1.14,.29-1.45,.84Z"/><path class="cls-3" d="M200.69,281.8c.08-2.02,1.33-3.21,3.43-3.21s3.38,1.2,3.38,3.06c0,1.09-.38,1.89-1.65,3.43-.64,.78-1.47,1.74-3.04,3.53h4.81v1.6h-7.06v-1.41q.25-.31,1.15-1.36c3.65-4.28,3.99-4.77,3.99-5.73s-.67-1.58-1.67-1.58c-1.07,0-1.71,.59-1.83,1.67h-1.51Z"/><path class="cls-3" d="M211.29,280.67c1.61-.04,2.34-.57,2.67-1.92h1.21v11.46h-1.75v-8.52h-2.13v-1.02Z"/></g><rect class="cls-8" x="314.82" y="269.24" width="84.99" height="30.51" rx="5" ry="5"/><g><path class="cls-3" d="M340.44,281.8c.08-2.02,1.33-3.21,3.43-3.21s3.38,1.2,3.38,3.06c0,1.09-.38,1.89-1.65,3.43-.64,.78-1.47,1.74-3.04,3.53h4.81v1.6h-7.06v-1.41q.25-.31,1.15-1.36c3.65-4.28,3.99-4.77,3.99-5.73s-.67-1.58-1.67-1.58c-1.07,0-1.71,.59-1.83,1.67h-1.51Z"/><path class="cls-3" d="M357.51,284.5c0,3.69-1.48,5.89-3.96,5.89s-3.97-2.21-3.97-5.89,1.49-5.89,3.97-5.89,3.96,2.21,3.96,5.89Zm-5.41-3.58c-.48,.84-.74,2.12-.74,3.58s.25,2.75,.74,3.58c.31,.54,.82,.84,1.45,.84s1.12-.3,1.44-.84c.48-.84,.75-2.12,.75-3.58s-.29-2.79-.75-3.58c-.33-.55-.83-.84-1.44-.84s-1.14,.29-1.45,.84Z"/><path class="cls-3" d="M359.85,281.8c.08-2.02,1.33-3.21,3.43-3.21s3.38,1.2,3.38,3.06c0,1.09-.38,1.89-1.65,3.43-.64,.78-1.47,1.74-3.04,3.53h4.81v1.6h-7.06v-1.41q.25-.31,1.15-1.36c3.65-4.28,3.99-4.77,3.99-5.73s-.67-1.58-1.67-1.58c-1.07,0-1.71,.59-1.83,1.67h-1.51Z"/><path class="cls-3" d="M369.55,281.8c.08-2.02,1.33-3.21,3.43-3.21s3.38,1.2,3.38,3.06c0,1.09-.38,1.89-1.65,3.43-.64,.78-1.47,1.74-3.04,3.53h4.81v1.6h-7.06v-1.41q.25-.31,1.15-1.36c3.65-4.28,3.99-4.77,3.99-5.73s-.67-1.58-1.67-1.58c-1.07,0-1.71,.59-1.83,1.67h-1.51Z"/></g></g></g></svg>