<?xml version="1.0" encoding="UTF-8"?>
<svg id="_レイヤー_2" data-name="レイヤー 2" xmlns="http://www.w3.org/2000/svg" xmlns:xlink="http://www.w3.org/1999/xlink" viewBox="0 0 432.37 147.47">
  <defs>
    <style>
      .cls-1 {
        fill: url(#_新規グラデーションスウォッチ_2-10);
      }

      .cls-1, .cls-2, .cls-3, .cls-4, .cls-5, .cls-6, .cls-7, .cls-8, .cls-9, .cls-10, .cls-11, .cls-12, .cls-13 {
        stroke-width: 0px;
      }

      .cls-2 {
        fill: url(#_新規グラデーションスウォッチ_2);
      }

      .cls-3 {
        fill: url(#_新規グラデーションスウォッチ_2-7);
      }

      .cls-4 {
        fill: url(#_新規グラデーションスウォッチ_2-5);
      }

      .cls-5 {
        fill: url(#_新規グラデーションスウォッチ_2-6);
      }

      .cls-6 {
        fill: url(#_新規グラデーションスウォッチ_2-4);
      }

      .cls-7 {
        fill: url(#_新規グラデーションスウォッチ_2-8);
      }

      .cls-8 {
        fill: url(#_新規グラデーションスウォッチ_2-2);
      }

      .cls-9 {
        fill: url(#_新規グラデーションスウォッチ_2-9);
      }

      .cls-10 {
        fill: url(#_新規グラデーションスウォッチ_2-3);
      }

      .cls-12 {
        fill: #333;
      }

      .cls-13 {
        fill: #fff;
      }

      .cls-14 {
        fill: none;
        stroke: url(#_新規グラデーションスウォッチ_3);
        stroke-dasharray: 0 0 0 2;
        stroke-linecap: round;
        stroke-miterlimit: 10;
        stroke-width: .75px;
      }
    </style>
    <linearGradient id="_新規グラデーションスウォッチ_2" data-name="新規グラデーションスウォッチ 2" x1="364.24" y1="134.99" x2="421.67" y2="134.99" gradientUnits="userSpaceOnUse">
      <stop offset="0" stop-color="#0d7697"/>
      <stop offset="0" stop-color="#0d7496"/>
      <stop offset=".18" stop-color="#105483"/>
      <stop offset=".37" stop-color="#133b74"/>
      <stop offset=".56" stop-color="#152a69"/>
      <stop offset=".76" stop-color="#161f63"/>
      <stop offset="1" stop-color="#171c61"/>
    </linearGradient>
    <linearGradient id="_新規グラデーションスウォッチ_2-2" data-name="新規グラデーションスウォッチ 2" x1="375.05" y1="70.35" x2="410.86" y2="70.35" xlink:href="#_新規グラデーションスウォッチ_2"/>
    <linearGradient id="_新規グラデーションスウォッチ_2-3" data-name="新規グラデーションスウォッチ 2" x1="302.13" y1="65.38" x2="316.07" y2="65.38" xlink:href="#_新規グラデーションスウォッチ_2"/>
    <linearGradient id="_新規グラデーションスウォッチ_2-4" data-name="新規グラデーションスウォッチ 2" x1="302.13" y1="65.38" x2="316.07" y2="65.38" xlink:href="#_新規グラデーションスウォッチ_2"/>
    <linearGradient id="_新規グラデーションスウォッチ_2-5" data-name="新規グラデーションスウォッチ 2" x1="326.74" y1="49.29" x2="334.81" y2="49.29" xlink:href="#_新規グラデーションスウォッチ_2"/>
    <linearGradient id="_新規グラデーションスウォッチ_2-6" data-name="新規グラデーションスウォッチ 2" x1="294.08" y1="44.3" x2="322.8" y2="44.3" xlink:href="#_新規グラデーションスウォッチ_2"/>
    <linearGradient id="_新規グラデーションスウォッチ_2-7" data-name="新規グラデーションスウォッチ 2" x1="294.08" y1="44.3" x2="322.8" y2="44.3" xlink:href="#_新規グラデーションスウォッチ_2"/>
    <linearGradient id="_新規グラデーションスウォッチ_3" data-name="新規グラデーションスウォッチ 3" x1="39.04" y1="36.04" x2="393.33" y2="36.04" gradientUnits="userSpaceOnUse">
      <stop offset="0" stop-color="#0d76a8"/>
      <stop offset="0" stop-color="#0d74a6"/>
      <stop offset=".18" stop-color="#10548d"/>
      <stop offset=".37" stop-color="#133b7a"/>
      <stop offset=".56" stop-color="#152a6c"/>
      <stop offset=".76" stop-color="#161f63"/>
      <stop offset="1" stop-color="#171c61"/>
    </linearGradient>
    <linearGradient id="_新規グラデーションスウォッチ_2-8" data-name="新規グラデーションスウォッチ 2" x1="36.82" y1="69.48" x2="42.02" y2="69.48" xlink:href="#_新規グラデーションスウォッチ_2"/>
    <linearGradient id="_新規グラデーションスウォッチ_2-9" data-name="新規グラデーションスウォッチ 2" x1="213.08" y1="48.3" x2="218.28" y2="48.3" xlink:href="#_新規グラデーションスウォッチ_2"/>
    <linearGradient id="_新規グラデーションスウォッチ_2-10" data-name="新規グラデーションスウォッチ 2" x1="390.35" y1="2.6" x2="395.56" y2="2.6" xlink:href="#_新規グラデーションスウォッチ_2"/>
  </defs>
  <g id="_レイヤー_1-2" data-name="レイヤー 1">
    <g>
      <rect class="cls-12" x="10.7" y="122.51" width="57.43" height="24.96" rx="2.52" ry="2.52"/>
      <g>
        <path class="cls-13" d="m26.25,132.58c.05-1.49.98-2.35,2.52-2.35s2.47.88,2.47,2.24c0,.8-.27,1.39-1.21,2.52-.47.57-1.08,1.28-2.23,2.59h3.53v1.18h-5.18v-1.03q.19-.23.85-1c2.67-3.14,2.93-3.5,2.93-4.2s-.49-1.16-1.22-1.16c-.78,0-1.25.43-1.34,1.22h-1.11Z"/>
        <path class="cls-13" d="m38.77,134.56c0,2.71-1.09,4.32-2.9,4.32s-2.92-1.62-2.92-4.32,1.09-4.32,2.92-4.32,2.9,1.62,2.9,4.32Zm-3.97-2.63c-.35.62-.54,1.55-.54,2.63s.19,2.01.54,2.63c.23.4.61.62,1.07.62s.83-.22,1.06-.62c.35-.62.55-1.55.55-2.63s-.21-2.05-.55-2.63c-.24-.41-.61-.62-1.06-.62s-.84.21-1.07.62Z"/>
        <path class="cls-13" d="m40.49,132.58c.05-1.49.98-2.35,2.52-2.35s2.47.88,2.47,2.24c0,.8-.27,1.39-1.21,2.52-.47.57-1.08,1.28-2.23,2.59h3.53v1.18h-5.18v-1.03q.19-.23.85-1c2.67-3.14,2.93-3.5,2.93-4.2s-.49-1.16-1.22-1.16c-.78,0-1.25.43-1.34,1.22h-1.11Z"/>
        <path class="cls-13" d="m48.26,131.75c1.18-.03,1.72-.42,1.96-1.41h.89v8.41h-1.29v-6.25h-1.56v-.75Z"/>
      </g>
      <rect class="cls-12" x="186.17" y="122.51" width="57.43" height="24.96" rx="2.52" ry="2.52"/>
      <g>
        <path class="cls-13" d="m201.72,132.58c.05-1.49.98-2.35,2.52-2.35s2.47.88,2.47,2.24c0,.8-.27,1.39-1.21,2.52-.47.57-1.08,1.28-2.23,2.59h3.53v1.18h-5.18v-1.03q.19-.23.85-1c2.67-3.14,2.93-3.5,2.93-4.2s-.49-1.16-1.22-1.16c-.78,0-1.25.43-1.34,1.22h-1.11Z"/>
        <path class="cls-13" d="m214.24,134.56c0,2.71-1.09,4.32-2.9,4.32s-2.92-1.62-2.92-4.32,1.09-4.32,2.92-4.32,2.9,1.62,2.9,4.32Zm-3.97-2.63c-.35.62-.54,1.55-.54,2.63s.19,2.01.54,2.63c.23.4.61.62,1.07.62s.83-.22,1.06-.62c.35-.62.55-1.55.55-2.63s-.21-2.05-.55-2.63c-.24-.41-.61-.62-1.06-.62s-.84.21-1.07.62Z"/>
        <path class="cls-13" d="m215.95,132.58c.05-1.49.98-2.35,2.52-2.35s2.47.88,2.47,2.24c0,.8-.27,1.39-1.21,2.52-.47.57-1.08,1.28-2.23,2.59h3.53v1.18h-5.18v-1.03q.19-.23.85-1c2.67-3.14,2.93-3.5,2.93-4.2s-.49-1.16-1.22-1.16c-.78,0-1.25.43-1.34,1.22h-1.11Z"/>
        <path class="cls-13" d="m223.07,132.58c.05-1.49.98-2.35,2.52-2.35s2.47.88,2.47,2.24c0,.8-.27,1.39-1.21,2.52-.47.57-1.08,1.28-2.23,2.59h3.53v1.18h-5.18v-1.03q.19-.23.85-1c2.67-3.14,2.93-3.5,2.93-4.2s-.49-1.16-1.22-1.16c-.78,0-1.25.43-1.34,1.22h-1.11Z"/>
      </g>
      <rect class="cls-2" x="364.24" y="122.51" width="57.43" height="24.96" rx="2.52" ry="2.52"/>
      <g>
        <path class="cls-13" d="m379.79,132.58c.05-1.49.98-2.35,2.52-2.35s2.47.88,2.47,2.24c0,.8-.27,1.39-1.21,2.52-.47.57-1.08,1.28-2.23,2.59h3.53v1.18h-5.18v-1.03q.19-.23.85-1c2.67-3.14,2.93-3.5,2.93-4.2s-.49-1.16-1.22-1.16c-.78,0-1.25.43-1.34,1.22h-1.11Z"/>
        <path class="cls-13" d="m392.31,134.56c0,2.71-1.09,4.32-2.9,4.32s-2.92-1.62-2.92-4.32,1.09-4.32,2.92-4.32,2.9,1.62,2.9,4.32Zm-3.97-2.63c-.35.62-.54,1.55-.54,2.63s.19,2.01.54,2.63c.23.4.61.62,1.07.62s.83-.22,1.06-.62c.35-.62.55-1.55.55-2.63s-.21-2.05-.55-2.63c-.24-.41-.61-.62-1.06-.62s-.84.21-1.07.62Z"/>
        <path class="cls-13" d="m394.02,132.58c.05-1.49.98-2.35,2.52-2.35s2.47.88,2.47,2.24c0,.8-.27,1.39-1.21,2.52-.47.57-1.08,1.28-2.23,2.59h3.53v1.18h-5.18v-1.03q.19-.23.85-1c2.67-3.14,2.93-3.5,2.93-4.2s-.49-1.16-1.22-1.16c-.78,0-1.25.43-1.34,1.22h-1.11Z"/>
        <path class="cls-13" d="m401.23,132.36c.07-1.35,1-2.13,2.56-2.13.77,0,1.36.2,1.78.61.4.38.64.97.64,1.56,0,.88-.43,1.49-1.32,1.86,1.02.32,1.51.97,1.51,2.02,0,.81-.34,1.56-.94,2.04-.48.37-1.1.56-1.88.56-1.69,0-2.7-.81-2.71-2.23h1.17c.02.72.56,1.11,1.54,1.11s1.52-.54,1.52-1.45c0-.62-.3-1.07-.84-1.28-.24-.09-.69-.14-1.2-.14h-.26s0-1.07,0-1.07c.15.01.22.01.32.01,1.15,0,1.78-.47,1.78-1.33,0-.7-.47-1.16-1.24-1.16s-1.25.39-1.32,1.02h-1.11Z"/>
      </g>
      <rect class="cls-12" x="21.51" y="98.32" width="35.82" height="11.1"/>
      <rect class="cls-12" x="196.98" y="77.13" width="35.82" height="32.29"/>
      <rect class="cls-8" x="375.05" y="30.93" width="35.82" height="78.84"/>
      <rect class="cls-11" y="109.26" width="432.37" height="1.01"/>
      <g>
        <path class="cls-12" d="m117.44,95.5v4.85c0,1,.03,1.29.2,1.65.25.56.86.89,1.65.89.86,0,1.49-.38,1.72-1.06.11-.31.13-.58.13-1.48v-4.85h1.3v4.87c0,1.25-.04,1.6-.28,2.09-.44.98-1.51,1.55-2.87,1.55s-2.43-.58-2.88-1.55c-.22-.5-.26-.84-.26-2.09v-4.87h1.3Z"/>
        <path class="cls-12" d="m126.65,95.5c1.3,0,1.99.13,2.49.48.62.43.95,1.17.95,2.1,0,.99-.38,1.75-1.08,2.15-.46.26-1.1.37-2.23.37h-.95v3.26h-1.3v-8.36h2.12Zm.15,3.99c.66,0,1.13-.08,1.4-.23.34-.21.54-.64.54-1.21,0-.53-.17-.94-.48-1.15-.29-.2-.73-.29-1.49-.29h-.95v2.88h.98Z"/>
      </g>
      <path class="cls-12" d="m144.42,81.23c0,1.24-.8,2.19-1.83,2.19s-1.83-.96-1.83-2.19.8-2.19,1.83-2.19,1.83.96,1.83,2.19Zm3.6-2.12l-5.31,9.11h-1.15l5.31-9.11h1.15Zm-6.3,2.12c0,.78.36,1.31.86,1.31s.85-.53.85-1.31-.35-1.31-.85-1.31-.86.54-.86,1.31Zm7.1,4.87c0,1.22-.8,2.19-1.82,2.19s-1.83-.97-1.83-2.19.8-2.21,1.83-2.21,1.82.97,1.82,2.21Zm-2.69,0c0,.77.35,1.31.85,1.31s.86-.54.86-1.31-.35-1.31-.86-1.31-.85.54-.85,1.31Z"/>
      <g>
        <path class="cls-12" d="m111.02,83.93c.47,1.32,1.47,2.02,2.97,2.02,2.08,0,3.47-1.7,3.47-4.25,0-2.37-1.27-3.95-3.17-3.95-1.33,0-2.3.55-3.15,1.8l-2.55-.35,1.62-9.97h9.17l-.23,2.62h-6.75l-.77,4.55c1.05-.77,1.87-1.05,3.1-1.05,3.45,0,5.8,2.5,5.8,6.22,0,1.87-.62,3.55-1.77,4.87-1.25,1.4-2.72,2.05-4.67,2.05-3.15,0-5.45-1.8-5.9-4.57h2.82Z"/>
        <path class="cls-12" d="m127.19,83.93c.47,1.32,1.47,2.02,2.97,2.02,2.08,0,3.47-1.7,3.47-4.25,0-2.37-1.27-3.95-3.17-3.95-1.33,0-2.3.55-3.15,1.8l-2.55-.35,1.62-9.97h9.17l-.23,2.62h-6.75l-.77,4.55c1.05-.77,1.87-1.05,3.1-1.05,3.45,0,5.8,2.5,5.8,6.22,0,1.87-.62,3.55-1.77,4.87-1.25,1.4-2.72,2.05-4.67,2.05-3.15,0-5.45-1.8-5.9-4.57h2.82Z"/>
      </g>
      <g>
        <g>
          <path class="cls-12" d="m303.43,61.12v4.85c0,1,.03,1.29.2,1.65.25.56.86.89,1.65.89.86,0,1.49-.38,1.72-1.06.11-.31.13-.58.13-1.48v-4.85h1.3v4.87c0,1.25-.04,1.6-.28,2.09-.44.98-1.51,1.55-2.87,1.55s-2.43-.58-2.88-1.55c-.22-.5-.26-.84-.26-2.09v-4.87h1.3Z"/>
          <path class="cls-12" d="m312.64,61.12c1.3,0,1.99.13,2.49.48.62.43.95,1.17.95,2.1,0,.99-.38,1.75-1.08,2.15-.46.26-1.1.37-2.23.37h-.95v3.26h-1.3v-8.36h2.12Zm.15,3.99c.66,0,1.13-.08,1.4-.23.34-.21.54-.64.54-1.21,0-.53-.17-.94-.48-1.15-.29-.2-.73-.29-1.49-.29h-.95v2.88h.98Z"/>
        </g>
        <g>
          <path class="cls-10" d="m303.43,61.12v4.85c0,1,.03,1.29.2,1.65.25.56.86.89,1.65.89.86,0,1.49-.38,1.72-1.06.11-.31.13-.58.13-1.48v-4.85h1.3v4.87c0,1.25-.04,1.6-.28,2.09-.44.98-1.51,1.55-2.87,1.55s-2.43-.58-2.88-1.55c-.22-.5-.26-.84-.26-2.09v-4.87h1.3Z"/>
          <path class="cls-6" d="m312.64,61.12c1.3,0,1.99.13,2.49.48.62.43.95,1.17.95,2.1,0,.99-.38,1.75-1.08,2.15-.46.26-1.1.37-2.23.37h-.95v3.26h-1.3v-8.36h2.12Zm.15,3.99c.66,0,1.13-.08,1.4-.23.34-.21.54-.64.54-1.21,0-.53-.17-.94-.48-1.15-.29-.2-.73-.29-1.49-.29h-.95v2.88h.98Z"/>
        </g>
      </g>
      <g>
        <path class="cls-12" d="m330.41,46.85c0,1.24-.8,2.19-1.83,2.19s-1.83-.96-1.83-2.19.8-2.19,1.83-2.19,1.83.96,1.83,2.19Zm3.6-2.12l-5.31,9.11h-1.15l5.31-9.11h1.15Zm-6.3,2.12c0,.78.36,1.31.86,1.31s.85-.53.85-1.31-.35-1.31-.85-1.31-.86.54-.86,1.31Zm7.1,4.87c0,1.22-.8,2.19-1.82,2.19s-1.83-.97-1.83-2.19.8-2.21,1.83-2.21,1.82.97,1.82,2.21Zm-2.69,0c0,.77.35,1.31.85,1.31s.86-.54.86-1.31-.35-1.31-.86-1.31-.85.54-.85,1.31Z"/>
        <path class="cls-4" d="m330.41,46.85c0,1.24-.8,2.19-1.83,2.19s-1.83-.96-1.83-2.19.8-2.19,1.83-2.19,1.83.96,1.83,2.19Zm3.6-2.12l-5.31,9.11h-1.15l5.31-9.11h1.15Zm-6.3,2.12c0,.78.36,1.31.86,1.31s.85-.53.85-1.31-.35-1.31-.85-1.31-.86.54-.86,1.31Zm7.1,4.87c0,1.22-.8,2.19-1.82,2.19s-1.83-.97-1.83-2.19.8-2.21,1.83-2.21,1.82.97,1.82,2.21Zm-2.69,0c0,.77.35,1.31.85,1.31s.86-.54.86-1.31-.35-1.31-.86-1.31-.85.54-.85,1.31Z"/>
      </g>
      <g>
        <g>
          <path class="cls-12" d="m294.6,39.72c0-3.07,2.37-5.25,5.75-5.25s5.72,2.17,5.72,5.25c0,1.72-.75,3.02-2.25,3.9,1.87,1.02,2.8,2.55,2.8,4.67,0,3.4-2.62,5.82-6.27,5.82s-6.27-2.42-6.27-5.85c0-2.12.9-3.62,2.82-4.65-1.52-.87-2.3-2.17-2.3-3.9Zm2.45,8.57c0,2.05,1.35,3.42,3.3,3.42s3.3-1.37,3.3-3.4-1.33-3.42-3.3-3.42-3.3,1.37-3.3,3.4Zm.52-8.6c0,1.7,1.1,2.82,2.77,2.82s2.77-1.12,2.77-2.82-1.12-2.85-2.77-2.85-2.77,1.17-2.77,2.85Z"/>
          <path class="cls-12" d="m311.05,39.32c.15-3.07,2.27-4.85,5.82-4.85,1.75,0,3.1.45,4.05,1.37.9.88,1.45,2.2,1.45,3.55,0,2-.97,3.37-3,4.22,2.32.73,3.42,2.2,3.42,4.6,0,1.85-.77,3.55-2.12,4.62-1.1.85-2.5,1.27-4.27,1.27-3.85,0-6.12-1.85-6.15-5.07h2.65c.05,1.62,1.28,2.52,3.5,2.52s3.45-1.22,3.45-3.3c0-1.4-.67-2.42-1.9-2.9-.55-.2-1.57-.32-2.72-.32l-.6.02v-2.45c.35.02.5.02.72.02,2.62,0,4.05-1.07,4.05-3.02,0-1.6-1.08-2.62-2.82-2.62s-2.85.87-3,2.32h-2.52Z"/>
        </g>
        <g>
          <path class="cls-5" d="m294.6,39.72c0-3.07,2.37-5.25,5.75-5.25s5.72,2.17,5.72,5.25c0,1.72-.75,3.02-2.25,3.9,1.87,1.02,2.8,2.55,2.8,4.67,0,3.4-2.62,5.82-6.27,5.82s-6.27-2.42-6.27-5.85c0-2.12.9-3.62,2.82-4.65-1.52-.87-2.3-2.17-2.3-3.9Zm2.45,8.57c0,2.05,1.35,3.42,3.3,3.42s3.3-1.37,3.3-3.4-1.33-3.42-3.3-3.42-3.3,1.37-3.3,3.4Zm.52-8.6c0,1.7,1.1,2.82,2.77,2.82s2.77-1.12,2.77-2.82-1.12-2.85-2.77-2.85-2.77,1.17-2.77,2.85Z"/>
          <path class="cls-3" d="m311.05,39.32c.15-3.07,2.27-4.85,5.82-4.85,1.75,0,3.1.45,4.05,1.37.9.88,1.45,2.2,1.45,3.55,0,2-.97,3.37-3,4.22,2.32.73,3.42,2.2,3.42,4.6,0,1.85-.77,3.55-2.12,4.62-1.1.85-2.5,1.27-4.27,1.27-3.85,0-6.12-1.85-6.15-5.07h2.65c.05,1.62,1.28,2.52,3.5,2.52s3.45-1.22,3.45-3.3c0-1.4-.67-2.42-1.9-2.9-.55-.2-1.57-.32-2.72-.32l-.6.02v-2.45c.35.02.5.02.72.02,2.62,0,4.05-1.07,4.05-3.02,0-1.6-1.08-2.62-2.82-2.62s-2.85.87-3,2.32h-2.52Z"/>
        </g>
      </g>
      <g>
        <polyline class="cls-14" points="39.42 69.48 215.68 48.3 392.95 2.6"/>
        <circle class="cls-7" cx="39.42" cy="69.48" r="2.6"/>
        <circle class="cls-9" cx="215.68" cy="48.3" r="2.6"/>
        <circle class="cls-1" cx="392.95" cy="2.6" r="2.6"/>
      </g>
    </g>
  </g>
</svg>