<?xml version="1.0" encoding="UTF-8"?><svg id="_レイヤー_2" xmlns="http://www.w3.org/2000/svg" xmlns:xlink="http://www.w3.org/1999/xlink" viewBox="0 0 185.26 185.26"><defs><style>.cls-1{fill:url(#_名称未設定グラデーション_8-2);}.cls-2{fill:url(#_名称未設定グラデーション_8-4);}.cls-3{fill:url(#_名称未設定グラデーション_8-3);}.cls-4{fill:#d5d5d5;}.cls-5{fill:url(#_名称未設定グラデーション_8);}</style><linearGradient id="_名称未設定グラデーション_8" x1="0" y1="92.63" x2="185.26" y2="92.63" gradientUnits="userSpaceOnUse"><stop offset=".29" stop-color="#0d76a3"/><stop offset=".3" stop-color="#0d74a2"/><stop offset=".42" stop-color="#10548a"/><stop offset=".55" stop-color="#133b78"/><stop offset=".69" stop-color="#152a6b"/><stop offset=".83" stop-color="#161f63"/><stop offset="1" stop-color="#171c61"/></linearGradient><linearGradient id="_名称未設定グラデーション_8-2" x1="98.75" y1="92.04" x2="120.44" y2="92.04" xlink:href="#_名称未設定グラデーション_8"/><linearGradient id="_名称未設定グラデーション_8-3" x1="81.29" y1="92.14" x2="95.96" y2="92.14" xlink:href="#_名称未設定グラデーション_8"/><linearGradient id="_名称未設定グラデーション_8-4" x1="65.14" y1="91.81" x2="79.38" y2="91.81" xlink:href="#_名称未設定グラデーション_8"/></defs><g id="_レイヤー_1-2"><g><path class="cls-4" d="M92.64,173.99c-44.86,0-81.36-36.5-81.36-81.36S47.78,11.28,92.64,11.28s81.36,36.5,81.36,81.36-36.5,81.36-81.36,81.36Zm0-136.24c-30.27,0-54.89,24.62-54.89,54.89s24.62,54.89,54.89,54.89,54.89-24.62,54.89-54.89-24.62-54.89-54.89-54.89Z"/><path class="cls-5" d="M92.63,185.26h-.46c-9.74-.06-19.3-1.61-28.45-4.62-9.25-3.04-17.94-7.51-25.82-13.29-7.84-5.75-14.69-12.65-20.39-20.54-5.71-7.9-10.11-16.6-13.08-25.86C1.49,111.82,0,102.28,0,92.63v-.47c.06-9.7,1.59-19.2,4.57-28.3,3.01-9.22,7.44-17.87,13.17-25.73,5.7-7.82,12.56-14.68,20.39-20.39,7.86-5.73,16.52-10.16,25.74-13.17l15.17,46.45c-4.34,1.42-8.42,3.51-12.13,6.21-3.71,2.71-6.97,5.96-9.67,9.67-2.71,3.71-4.8,7.8-6.21,12.13-1.41,4.33-2.14,8.87-2.15,13.49v.32c.02,4.5,.72,8.94,2.08,13.19,1.4,4.35,3.47,8.45,6.17,12.18,2.7,3.74,5.96,7.02,9.67,9.75,3.72,2.73,7.81,4.84,12.17,6.27,4.36,1.43,8.92,2.16,13.55,2.17h.33c4.53-.02,8.99-.73,13.25-2.11,4.37-1.41,8.49-3.5,12.23-6.22,3.74-2.72,7.03-6,9.75-9.75,2.72-3.74,4.81-7.85,6.22-12.22,1.39-4.32,2.1-8.84,2.11-13.42v-.22c-.01-4.58-.74-9.14-2.17-13.5-1.43-4.35-3.54-8.45-6.27-12.17-2.73-3.72-6.01-6.98-9.74-9.67-3.73-2.69-7.83-4.77-12.19-6.17-4.3-1.38-8.79-2.08-13.36-2.09h-.22s0-24.43,0-24.43L92.25,0h.38c9.65,0,19.19,1.49,28.33,4.42,9.26,2.97,17.96,7.37,25.86,13.08,7.88,5.69,14.79,12.55,20.54,20.39,5.78,7.88,10.25,16.57,13.29,25.82,3.04,9.25,4.59,18.9,4.61,28.68v.24c0,9.7-1.5,19.28-4.47,28.47-3,9.3-7.44,18.03-13.2,25.95-5.74,7.9-12.65,14.8-20.54,20.54-7.92,5.76-16.65,10.2-25.94,13.2-9.19,2.97-18.77,4.47-28.47,4.47Z"/><g><path class="cls-1" d="M108.51,86.57c0,.8-.14,1.52-.4,2.16-.27,.64-.63,1.19-1.07,1.64-.45,.45-.97,.8-1.56,1.05-.59,.24-1.21,.36-1.86,.36-.7,0-1.35-.12-1.94-.36-.6-.24-1.11-.59-1.54-1.05-.43-.45-.77-1-1.02-1.64-.24-.64-.36-1.36-.36-2.16s.12-1.56,.36-2.22c.24-.66,.58-1.22,1.02-1.68,.43-.46,.95-.81,1.54-1.06,.59-.25,1.24-.37,1.94-.37s1.35,.12,1.95,.37c.6,.25,1.12,.6,1.56,1.06,.44,.46,.78,1.02,1.02,1.68,.24,.66,.37,1.4,.37,2.22Zm7.03-4.55c.12-.14,.26-.28,.44-.39,.18-.12,.42-.18,.73-.18h2.62l-15.7,20.59c-.12,.16-.27,.29-.45,.39-.18,.1-.4,.15-.65,.15h-2.69l15.7-20.57Zm-9.82,4.55c0-.56-.05-1.04-.16-1.42-.11-.38-.26-.69-.45-.92-.19-.23-.41-.4-.67-.5-.26-.1-.53-.15-.83-.15s-.56,.05-.82,.15c-.25,.1-.47,.27-.66,.5-.19,.23-.33,.54-.43,.92-.1,.38-.15,.85-.15,1.42s.05,1,.15,1.37c.1,.36,.25,.66,.43,.88,.18,.23,.4,.39,.66,.48,.25,.1,.53,.15,.82,.15s.57-.05,.83-.15c.26-.1,.48-.26,.67-.48,.19-.22,.34-.52,.45-.88,.11-.37,.16-.82,.16-1.37Zm14.72,11.05c0,.8-.13,1.52-.4,2.16-.27,.64-.63,1.19-1.07,1.64-.45,.45-.97,.8-1.56,1.05-.59,.25-1.21,.37-1.86,.37-.7,0-1.35-.12-1.94-.37-.6-.25-1.11-.6-1.54-1.05-.43-.45-.77-1-1.02-1.64-.24-.64-.37-1.36-.37-2.16s.12-1.56,.37-2.22c.24-.66,.58-1.22,1.02-1.68,.43-.46,.95-.81,1.54-1.06,.59-.25,1.24-.37,1.94-.37s1.35,.12,1.95,.37c.6,.25,1.12,.6,1.56,1.06,.44,.46,.78,1.02,1.02,1.68,.24,.66,.36,1.4,.36,2.22Zm-2.78,0c0-.56-.06-1.04-.17-1.42-.11-.38-.26-.69-.45-.92-.19-.23-.41-.4-.67-.51-.26-.1-.53-.15-.83-.15s-.57,.05-.82,.15c-.25,.1-.47,.27-.65,.51-.18,.23-.32,.54-.43,.92-.11,.38-.16,.85-.16,1.42s.05,1.01,.16,1.38c.11,.37,.25,.67,.43,.89,.18,.23,.4,.39,.65,.48,.25,.1,.53,.15,.82,.15s.57-.05,.83-.15c.26-.1,.48-.26,.67-.48,.19-.22,.34-.52,.45-.89,.11-.37,.17-.83,.17-1.38Z"/><path class="cls-3" d="M88.62,102.94c-1.09,0-2.09-.14-2.99-.44-.9-.29-1.67-.71-2.32-1.24-.64-.54-1.14-1.18-1.5-1.94-.36-.76-.53-1.61-.53-2.54,0-1.25,.31-2.3,.92-3.16,.61-.86,1.57-1.5,2.87-1.92-1.03-.43-1.81-1.04-2.32-1.83-.51-.79-.77-1.74-.77-2.85,0-.8,.16-1.55,.49-2.24,.33-.69,.78-1.29,1.37-1.8,.59-.51,1.28-.91,2.1-1.2,.81-.29,1.71-.43,2.68-.43s1.87,.14,2.68,.43c.81,.29,1.51,.69,2.1,1.2,.59,.51,1.04,1.11,1.37,1.8,.33,.69,.49,1.44,.49,2.24,0,1.11-.26,2.06-.77,2.85-.52,.79-1.29,1.4-2.31,1.83,1.3,.42,2.25,1.06,2.87,1.92,.61,.86,.92,1.92,.92,3.16,0,.93-.18,1.78-.53,2.54-.35,.76-.85,1.41-1.5,1.94-.64,.54-1.42,.95-2.32,1.24-.9,.29-1.9,.44-2.99,.44Zm0-2.82c.6,0,1.12-.09,1.56-.26,.45-.17,.83-.41,1.13-.71,.31-.3,.54-.66,.69-1.08,.16-.42,.23-.87,.23-1.36,0-1.16-.32-2.04-.97-2.63-.64-.6-1.53-.89-2.66-.89s-2.02,.3-2.66,.89c-.64,.59-.97,1.47-.97,2.63,0,.49,.08,.94,.23,1.36,.16,.42,.39,.78,.69,1.08,.31,.3,.68,.54,1.13,.71,.45,.17,.97,.26,1.56,.26Zm0-9.76c.59,0,1.08-.09,1.48-.28,.4-.19,.72-.43,.96-.74,.24-.31,.42-.66,.52-1.05,.1-.39,.15-.8,.15-1.22s-.06-.78-.19-1.14c-.13-.36-.32-.68-.57-.96-.25-.28-.58-.5-.97-.67-.39-.17-.85-.25-1.39-.25s-1,.08-1.39,.25c-.39,.17-.72,.39-.97,.67-.26,.28-.45,.6-.57,.96-.12,.36-.18,.74-.18,1.14,0,.42,.05,.83,.15,1.22,.1,.39,.27,.75,.52,1.05,.24,.31,.57,.55,.97,.74,.4,.18,.89,.28,1.48,.28Z"/><path class="cls-2" d="M70.99,94.06c-.73,0-1.45-.13-2.15-.38-.7-.25-1.33-.64-1.88-1.15-.55-.51-.99-1.14-1.32-1.9-.33-.76-.5-1.64-.5-2.65,0-.94,.18-1.83,.53-2.66,.35-.83,.84-1.55,1.48-2.18,.63-.62,1.39-1.12,2.28-1.48,.89-.36,1.87-.54,2.94-.54s2.05,.17,2.92,.51c.86,.34,1.6,.82,2.21,1.43,.61,.61,1.08,1.35,1.4,2.21,.33,.86,.49,1.8,.49,2.82,0,.65-.06,1.27-.17,1.86-.11,.58-.27,1.15-.48,1.69-.21,.54-.46,1.07-.75,1.58-.29,.51-.62,1.03-.98,1.54l-4.84,6.9c-.17,.23-.41,.43-.74,.59-.33,.16-.7,.24-1.12,.24h-3.32l6.56-8.2c.17-.2,.32-.4,.47-.6,.15-.19,.29-.39,.42-.59-.49,.31-1.02,.55-1.61,.71-.59,.16-1.2,.24-1.84,.24Zm4.93-6.33c0-.57-.09-1.09-.26-1.54-.18-.45-.42-.84-.75-1.15-.32-.31-.7-.55-1.15-.72-.44-.17-.93-.25-1.45-.25s-1.04,.09-1.48,.27c-.44,.18-.81,.43-1.12,.75-.31,.32-.54,.7-.71,1.15-.17,.44-.25,.93-.25,1.45,0,1.18,.31,2.08,.91,2.7,.61,.62,1.47,.93,2.59,.93,.59,0,1.1-.09,1.56-.28,.45-.18,.84-.44,1.15-.76,.31-.32,.55-.7,.71-1.14,.16-.44,.24-.91,.24-1.42Z"/></g></g></g></svg>