<?xml version="1.0" encoding="UTF-8"?>
<svg id="_レイヤー_2" data-name="レイヤー 2" xmlns="http://www.w3.org/2000/svg" xmlns:xlink="http://www.w3.org/1999/xlink" viewBox="0 0 429.75 251.94">
  <defs>
    <style>
      .cls-1 {
        fill: url(#_新規グラデーションスウォッチ_1);
      }

      .cls-1, .cls-2, .cls-3, .cls-4, .cls-5 {
        stroke-width: 0px;
      }

      .cls-2 {
        fill: url(#_新規グラデーションスウォッチ_1-2);
      }

      .cls-3 {
        fill: url(#_新規グラデーションスウォッチ_1-4);
      }

      .cls-4 {
        fill: url(#_新規グラデーションスウォッチ_1-3);
      }

      .cls-5 {
        fill: #fff;
      }
    </style>
    <linearGradient id="_新規グラデーションスウォッチ_1" data-name="新規グラデーションスウォッチ 1" x1="9.25" y1="46.23" x2="20.65" y2="46.23" gradientUnits="userSpaceOnUse">
      <stop offset="0" stop-color="#0d76a3"/>
      <stop offset="0" stop-color="#0d74a2"/>
      <stop offset=".18" stop-color="#10548a"/>
      <stop offset=".37" stop-color="#133b78"/>
      <stop offset=".56" stop-color="#152a6b"/>
      <stop offset=".76" stop-color="#161f63"/>
      <stop offset="1" stop-color="#171c61"/>
    </linearGradient>
    <linearGradient id="_新規グラデーションスウォッチ_1-2" data-name="新規グラデーションスウォッチ 1" x1="10.8" y1="105.22" x2="20.04" y2="105.22" xlink:href="#_新規グラデーションスウォッチ_1"/>
    <linearGradient id="_新規グラデーションスウォッチ_1-3" data-name="新規グラデーションスウォッチ 1" x1="9.68" y1="164.19" x2="20.41" y2="164.19" xlink:href="#_新規グラデーションスウォッチ_1"/>
    <linearGradient id="_新規グラデーションスウォッチ_1-4" data-name="新規グラデーションスウォッチ 1" x1="10.11" y1="223.16" x2="20.61" y2="223.16" xlink:href="#_新規グラデーションスウォッチ_1"/>
  </defs>
  <g id="_レイヤー_1-2" data-name="レイヤー 1">
    <g>
      <circle class="cls-5" cx="14.95" cy="46.33" r="14.95"/>
      <g>
        <path class="cls-5" d="m15.97,39.37l4.68,13.72h-2.2l-1.01-3.21h-4.99l-1.03,3.21h-2.18l4.66-13.72h2.05Zm-1.03,2.54l-1.93,6.16h3.87l-1.94-6.16Z"/>
        <path class="cls-1" d="m15.97,39.37l4.68,13.72h-2.2l-1.01-3.21h-4.99l-1.03,3.21h-2.18l4.66-13.72h2.05Zm-1.03,2.54l-1.93,6.16h3.87l-1.94-6.16Z"/>
      </g>
      <circle class="cls-5" cx="14.95" cy="105.3" r="14.95"/>
      <g>
        <path class="cls-5" d="m14.46,98.38c1.82,0,2.77.16,3.53.63.86.52,1.33,1.44,1.33,2.63,0,1.66-.76,2.65-2.38,3.17,2.09.49,3.1,1.64,3.1,3.53,0,1.4-.65,2.58-1.78,3.17-.77.41-1.71.56-3.47.56h-3.98v-13.68h3.66Zm.41,5.69c1.55,0,2.34-.72,2.34-2.16,0-1.28-.67-1.78-2.39-1.78h-1.93v3.94h1.98Zm.13,6.25c1.22,0,1.89-.14,2.27-.5.4-.36.59-.92.59-1.66,0-1.64-.88-2.38-2.83-2.38h-2.14v4.54h2.11Z"/>
        <path class="cls-2" d="m14.46,98.38c1.82,0,2.77.16,3.53.63.86.52,1.33,1.44,1.33,2.63,0,1.66-.76,2.65-2.38,3.17,2.09.49,3.1,1.64,3.1,3.53,0,1.4-.65,2.58-1.78,3.17-.77.41-1.71.56-3.47.56h-3.98v-13.68h3.66Zm.41,5.69c1.55,0,2.34-.72,2.34-2.16,0-1.28-.67-1.78-2.39-1.78h-1.93v3.94h1.98Zm.13,6.25c1.22,0,1.89-.14,2.27-.5.4-.36.59-.92.59-1.66,0-1.64-.88-2.38-2.83-2.38h-2.14v4.54h2.11Z"/>
      </g>
      <circle class="cls-5" cx="14.95" cy="164.27" r="14.95"/>
      <g>
        <path class="cls-5" d="m18.34,161.49c-.32-1.69-1.28-2.56-2.83-2.56-2.21,0-3.6,2.03-3.6,5.28s1.39,5.24,3.64,5.24c1.73,0,2.74-1.12,2.94-3.3h1.93c-.2,3.33-1.87,5.13-4.79,5.13-3.62,0-5.94-2.75-5.94-7.06,0-2.47.72-4.45,2.09-5.71,1.01-.92,2.34-1.42,3.76-1.42,1.64,0,3.02.65,3.83,1.8.5.68.74,1.44.85,2.59h-1.87Z"/>
        <path class="cls-4" d="m18.34,161.49c-.32-1.69-1.28-2.56-2.83-2.56-2.21,0-3.6,2.03-3.6,5.28s1.39,5.24,3.64,5.24c1.73,0,2.74-1.12,2.94-3.3h1.93c-.2,3.33-1.87,5.13-4.79,5.13-3.62,0-5.94-2.75-5.94-7.06,0-2.47.72-4.45,2.09-5.71,1.01-.92,2.34-1.42,3.76-1.42,1.64,0,3.02.65,3.83,1.8.5.68.74,1.44.85,2.59h-1.87Z"/>
      </g>
      <circle class="cls-5" cx="14.95" cy="223.24" r="14.95"/>
      <g>
        <path class="cls-5" d="m13.73,216.32c2.34,0,3.76.45,4.88,1.51,1.31,1.28,2,3.12,2,5.33,0,2.39-.83,4.41-2.29,5.6-1.1.92-2.38,1.24-4.75,1.24h-3.46v-13.68h3.62Zm.4,11.87c1.53,0,2.48-.36,3.19-1.21.7-.83,1.1-2.2,1.1-3.85,0-1.82-.49-3.21-1.4-4.05-.77-.7-1.6-.94-3.35-.94h-1.42v10.05h1.89Z"/>
        <path class="cls-3" d="m13.73,216.32c2.34,0,3.76.45,4.88,1.51,1.31,1.28,2,3.12,2,5.33,0,2.39-.83,4.41-2.29,5.6-1.1.92-2.38,1.24-4.75,1.24h-3.46v-13.68h3.62Zm.4,11.87c1.53,0,2.48-.36,3.19-1.21.7-.83,1.1-2.2,1.1-3.85,0-1.82-.49-3.21-1.4-4.05-.77-.7-1.6-.94-3.35-.94h-1.42v10.05h1.89Z"/>
      </g>
      <g>
        <path class="cls-5" d="m101.13,8.31c-.11,1.12-.34,1.78-.77,2.47-.63,1.02-1.4,1.72-2.75,2.51-.42-.78-.46-.85-.85-1.23,1.3-.71,2.02-1.39,2.48-2.33.43-.88.57-1.93.57-4.23v-2.23c0-.83-.01-1.78-.04-2.23.48.01.91.03,1.6.03h4.29c.69,0,1.16-.01,1.64-.03q-.03.45-.04,2.23v5.81c0,.52,0,1.01.01,2.44v.17c0,.64-.11.97-.46,1.19-.38.24-.85.31-2.03.31h-.42c-.04-.64-.06-.8-.24-1.57.56.04.88.04,1.26.04.45,0,.52-.07.52-.57v-2.77h-4.76Zm4.76-2.98h-4.66v.13c0,.52,0,1.05-.01,1.57h4.68v-1.7Zm0-2.98h-4.66v1.69h4.66v-1.69Z"/>
        <path class="cls-5" d="m114.13,13.24c.04-.88.07-2.21.07-3.95-.7.31-1.15.49-2.54,1.05l-.07.15c-.06.11-.11.17-.2.17s-.15-.06-.2-.15l-.55-1.34c.31-.08.57-.15.84-.24V3.56c0-1.11-.01-1.7-.04-2.1l1.42.1c.15,0,.24.06.24.14s-.07.15-.27.28v6.49c.45-.17.91-.35,1.36-.53v-3.47c0-2.3-.03-3.68-.08-4.12l1.48.1c.13,0,.21.07.21.14,0,.08-.07.15-.25.27q-.01.49-.03,3.61v4.69c0,1.83.03,3.19.07,4.09h-1.47Zm8.88-10.72c-.42,2.41-1,4.89-2.34,6.98.73.91,1.74,1.62,3.25,2.39-.49.45-.6.6-.94,1.19-1.23-.69-2.3-1.54-3.12-2.48-.78.94-1.79,1.76-3.17,2.63-.31-.55-.45-.73-.83-1.16,1.39-.81,2.34-1.6,3.15-2.62-.53-.91-.92-1.99-1.26-3.38-.24-.98-.35-1.78-.49-3.39-.45.01-.9.01-1.23.03v-1.37c.6.03,1.55.04,2.24.04h3.92l.18-.22.88.84c.07.07.11.14.11.21,0,.11-.07.18-.24.25l-.13.06Zm-4.51.15c.24,2.41.41,3.21.94,4.58.14.35.28.67.42.98,1-1.7,1.46-3.64,1.77-5.56h-3.12Z"/>
      </g>
      <g>
        <path class="cls-5" d="m130.27,51.34c-.18,2.23-.39,3.39-.77,4.5-.6,1.75-1.41,2.21-3.91,2.21h-.45q-.06-.91-.18-1.57c.73.06.74.06,1.04.06.97,0,1.43-.17,1.77-.63.52-.76.84-2.1,1.04-4.34h-3.67c-.03.17-.06.32-.08.5-.36,1.96-1.42,3.67-2.98,4.89-.67.5-1.22.83-2.28,1.29-.21-.52-.39-.85-.71-1.26,2.03-.98,2.89-1.67,3.68-3.03.9-1.49,1.18-2.84,1.23-6.01h-1.7c-.77,0-2.03.03-2.8.06v-1.4c.73.04,1.99.06,2.8.06h7.02c.88,0,2.07-.01,2.79-.06v1.4c-.74-.03-1.93-.06-2.79-.06h-3.89c-.03.79-.06,1.57-.13,2.35h4.05l.24-.27.95.85c.1.08.13.13.13.2,0,.08-.07.14-.24.2l-.14.06Z"/>
        <path class="cls-5" d="m135.61,55.08q.01,2.7.04,3.29h-1.53q.01-.59.04-2.73v-6.54q-.01-2.31-.04-2.73c.74.03,1.83.06,2.79.06h5.77c.95,0,2.06-.03,2.79-.06q-.01.42-.03,2.73v5.52c0,.31.01,1.21.04,1.79v.21c0,.84-.21,1.23-.77,1.5-.41.17-.94.22-2.33.22-.04-.85-.06-.97-.27-1.61.62.04.94.06,1.36.06.45,0,.52-.08.52-.59v-3.21h-8.39v2.09Zm0-7.33v3.92h3.42v-3.92h-3.42Zm4.86,3.92h3.53v-3.92h-3.53v3.92Z"/>
      </g>
      <g>
        <path class="cls-5" d="m81.67,42.52c.17-3.44,2.55-5.43,6.52-5.43,1.96,0,3.47.5,4.54,1.54,1.01.98,1.62,2.46,1.62,3.98,0,2.24-1.09,3.78-3.36,4.73,2.6.81,3.84,2.46,3.84,5.15,0,2.07-.87,3.98-2.38,5.18-1.23.95-2.8,1.43-4.79,1.43-4.31,0-6.86-2.07-6.89-5.68h2.97c.06,1.82,1.43,2.83,3.92,2.83s3.86-1.37,3.86-3.7c0-1.57-.76-2.72-2.13-3.25-.62-.22-1.76-.36-3.05-.36l-.67.03v-2.74c.39.03.56.03.81.03,2.94,0,4.54-1.2,4.54-3.39,0-1.79-1.2-2.94-3.16-2.94s-3.19.98-3.36,2.6h-2.83Z"/>
        <path class="cls-5" d="m102.16,53.97c.53,1.48,1.65,2.27,3.33,2.27,2.32,0,3.89-1.9,3.89-4.76,0-2.66-1.43-4.42-3.56-4.42-1.48,0-2.58.62-3.53,2.02l-2.86-.39,1.82-11.17h10.28l-.25,2.94h-7.56l-.87,5.1c1.18-.87,2.1-1.18,3.47-1.18,3.86,0,6.5,2.8,6.5,6.97,0,2.1-.7,3.98-1.99,5.46-1.4,1.57-3.05,2.3-5.24,2.3-3.53,0-6.1-2.02-6.61-5.12h3.16Z"/>
      </g>
      <g>
        <path class="cls-5" d="m247.25,56.98h-1.33c.03-.53.04-1.34.04-2.47v-5.56q-.01-1.78-.04-2.23c.27.01.5.01.83.01h2.14c.34,0,.57,0,.83-.01-.01.45-.04,1.39-.04,2.23v4.87c0,1.18.01,1.93.04,2.47h-1.32v-.64h-1.15v1.33Zm1.15-6.49v-2.49h-1.15v2.49h1.15Zm-1.15,3.91h1.15v-2.65h-1.15v2.65Zm6.32-5.83h-1.46c-.41,0-.99,0-1.39.03v-1.34c.39.01.98.03,1.39.03h1.46c0-.88-.01-1.37-.04-1.74l1.42.1c.15,0,.25.06.25.14s-.08.15-.27.28c-.01.28-.01.59-.01,1.22h1.55c.42,0,1.01-.01,1.4-.03v1.34c-.39-.03-.98-.03-1.4-.03h-1.55v1.26h1.82c.56,0,1.47-.01,1.96-.04v1.36c-.52-.01-1.43-.03-1.96-.03h-4.67c-.6,0-1.39.01-1.96.03v-1.36c.53.03,1.33.04,1.96.04h1.5v-1.26Zm3.25,6.88c0,.25.03,1,.04,1.49v.21c0,.6-.14.95-.49,1.2-.39.27-.87.35-1.95.35h-.25c-.03-.46-.08-.73-.27-1.47.41.03.63.04.97.04.55,0,.6-.06.6-.57v-2.79h-3.24c-.59,0-1.37.01-1.95.04v-1.36c.53.01,1.33.04,1.95.04h3.22c-.01-.63-.04-1.16-.08-1.32l1.53.1c.13.01.21.07.21.14,0,.08-.07.17-.25.27-.03.21-.03.27-.03.81.56,0,1.33-.03,1.78-.04v1.36c-.46-.03-1.25-.04-1.79-.04v1.54Zm-4.22-1.33c.85.63,1.37,1.11,2.02,1.89l-1.05.94c-.63-.83-1.09-1.32-1.82-1.92l.85-.91Z"/>
        <path class="cls-5" d="m261.36,55.29c0,1.48.01,2.58.06,3.28h-1.34c.03-.8.04-1.83.04-3.28v-8.04c0-.45-.01-.99-.04-1.25.42.03.83.03,1.42.03h2.37c.64,0,1.09,0,1.55-.03-.03.25-.04.8-.04,1.25v2.27c0,.66.01,1.13.04,1.46h-1.27v-.43h-2.77v4.75Zm2.77-8.18h-2.77v.69h2.77v-.69Zm0,1.67h-2.77v.69h2.77v-.69Zm.5,8.71h-1.3c.03-.34.03-.8.03-1.5v-3.15c0-.45-.01-.99-.03-1.25.31.01.6.03,1.01.03h3.57c.41,0,.7-.01,1.01-.03-.01.25-.04.8-.04,1.25v2.96c0,.66.01,1.13.04,1.46h-1.3v-.57h-2.98v.81Zm2.98-4.69h-2.98v.77h2.98v-.77Zm0,1.95h-2.98v.76h2.98v-.76Zm.45-3.77h-1.26c.03-.32.04-.8.04-1.46v-2.27c0-.45-.01-.99-.04-1.25.45.03.9.03,1.54.03h2.38c.59,0,.98,0,1.4-.03-.01.25-.04.8-.04,1.25v7.09c0,.53.01,1.34.03,2.47,0,.03.01.06.01.15,0,.7-.13,1.02-.48,1.25-.39.24-.83.31-2.1.31h-.06c-.03-.49-.08-.84-.27-1.49.46.04.69.06,1.06.06.49,0,.56-.07.56-.55v-6h-2.79v.43Zm2.79-3.87h-2.79v.69h2.79v-.69Zm0,1.67h-2.79v.69h2.79v-.69Z"/>
      </g>
      <g>
        <path class="cls-5" d="m330.09,51.26c.43.46.8.7,1.32.92,1.06.45,1.93.56,4.2.56,1.58,0,3.5-.06,4.62-.13-.18.59-.2.63-.27,1.37-2.41.04-2.72.06-4.72.06-2.86,0-4.59-.53-5.6-1.72-.2.22-.77.8-1.12,1.09-.1.08-.25.22-.43.41-.07.22-.13.31-.21.31-.07,0-.14-.06-.2-.13l-.76-1.05c.64-.41,1.26-.85,1.83-1.36v-3.28h-.28c-.36,0-.98.01-1.32.04v-1.36c.32.03.91.03,1.32.03h.35q.99,0,1.29-.03-.01.25-.03,1.25v3.01Zm-1.74-9.6c.87.77,1.32,1.25,1.92,2.09l-1.08.87c-.66-.94-.8-1.13-1.74-2.13l.9-.83Zm8.15,2.17c.31,0,.81-.01,1.12-.03v1.19c-.29-.01-.74-.03-1.12-.03h-.46v.63h.76c.29,0,.8-.01,1.11-.03v1.19c-.29-.01-.73-.03-1.11-.03h-2.66c-.38,0-.83.01-1.12.03v-1.19c.31.01.81.03,1.12.03h.66v-.63h-.41c-.38,0-.83.01-1.12.03v-1.19c.31.01.81.03,1.12.03h.41v-.81h-2.07v2.02q-.06,3.32-.2,4.12c-.21,1.18-.55,1.99-1.16,2.84-.32-.46-.56-.73-.98-1.06.81-1.29,1.01-2.42,1.01-5.86v-1.06c0-.83-.03-1.79-.04-2.23.62.01.95.01,2.03.01h4.19c1.01,0,1.44,0,1.96-.01q-.01.43-.04,2.23v5.06c0,.24.01.94.03,1.46v.25c0,1.32-.46,1.62-2.51,1.62h-.36c-.04-.62-.06-.67-.24-1.44.48.04.74.04,1.15.04.53,0,.6-.06.6-.58v-7.41h-2.12v.81h.46Zm-1.86,7.17h-1.26c.03-.32.04-.8.04-1.49v-1.04c0-.45-.01-1-.04-1.25.49.03.92.03,1.55.03h.98c.63,0,1.06,0,1.55-.03-.03.25-.04.8-.04,1.25v.71c0,.66.01,1.13.04,1.46h-1.26v-.31h-1.57v.66Zm1.57-1.71v-.98h-1.57v.98h1.57Z"/>
        <path class="cls-5" d="m345.64,44.95c.08-1.72,1.27-2.72,3.26-2.72.98,0,1.74.25,2.27.77.5.49.81,1.23.81,1.99,0,1.12-.55,1.89-1.68,2.37,1.3.41,1.92,1.23,1.92,2.58,0,1.04-.43,1.99-1.19,2.59-.62.48-1.4.71-2.39.71-2.16,0-3.43-1.04-3.45-2.84h1.49c.03.91.71,1.41,1.96,1.41s1.93-.69,1.93-1.85c0-.78-.38-1.36-1.06-1.62-.31-.11-.88-.18-1.53-.18h-.34s0-1.36,0-1.36c.2.01.28.01.41.01,1.47,0,2.27-.6,2.27-1.7,0-.9-.6-1.47-1.58-1.47s-1.6.49-1.68,1.3h-1.42Z"/>
        <path class="cls-5" d="m360.89,53.83h-1.42c.03-.52.04-1.34.04-2.45v-6.88q-.01-1.78-.04-2.23c.38.01.71.01,1.19.01h6.13c.48,0,.81,0,1.19-.01-.03.43-.04,1.39-.04,2.23v6.67c0,1.18.01,1.93.04,2.46h-1.41v-.7h-5.69v.9Zm5.69-10.25h-5.69v3.31h5.69v-3.31Zm0,4.61h-5.69v3.45h5.69v-3.45Z"/>
        <path class="cls-5" d="m374.07,47.74h-1.01v.25h-1.33c.03-.34.04-.8.04-1.5v-.35c0-.45-.01-.98-.04-1.23.49.01.92.01,1.54.01h2.98c.62,0,1.05,0,1.54-.01-.03.25-.04.78-.04,1.23v.35c0,.66.01,1.13.04,1.46h-1.33v-.21h-1.08v.73h1.39c.41,0,.99-.01,1.4-.03v1.13c-.41-.01-1-.03-1.4-.03h-1.39v.64h.97c.41,0,1-.01,1.39-.03v1.13c-.39-.01-.98-.03-1.39-.03h-.97v.8c1-.14,1.99-.34,2.97-.56v.95c.2-.25.34-.49.52-.84.7-1.33.98-2.73,1.06-5.59h-.25c-.41,0-.99.01-1.39.03v-1.34c.38.03.99.04,1.39.04h.28v-.76c0-1.54-.01-1.77-.04-2.66l1.36.11c.24.03.34.08.34.18,0,.08-.01.1-.29.27v2.86h1.71l.17-.2.88.73c.07.06.1.13.1.2,0,.13,0,.15-.31.24-.11,5.88-.32,7.37-1.18,7.98-.31.22-.67.32-1.34.36-.39.03-.67.01-.97.03-.07-.62-.08-.7-.28-1.47.43.03.62.03.8.03.67,0,.84-.07,1.04-.41.38-.67.53-2.33.56-6.22h-1.2c-.04,1.71-.15,3.07-.31,3.78-.38,1.79-1.19,3.33-2.35,4.52-.34-.46-.59-.67-1.09-.97.28-.28.48-.49.64-.69-1.27.28-3.5.64-6.12,1.04-.11.2-.2.27-.28.27-.07,0-.17-.08-.2-.17l-.42-1.23c.97-.08,1.93-.2,2.9-.34v-.98h-.88c-.41,0-1,.01-1.4.03v-1.13c.41.01,1,.03,1.4.03h.88v-.64h-1.3c-.41,0-.99.01-1.4.03v-1.13c.41.01.99.03,1.4.03h1.3v-.73Zm1.23-5.32c0-.49-.01-.9-.04-1.08l1.3.1c.15,0,.24.06.24.14s-.07.15-.25.27v.57h.35c.41,0,1.01-.01,1.4-.03v1.11c-.39-.01-.99-.03-1.4-.03h-.36c0,.46.01.88.03,1.12h-1.29c.01-.28.03-.64.03-1.12h-1.11c0,.5.01.88.04,1.12h-1.3c.03-.28.04-.64.04-1.12h-.28c-.41,0-.99.01-1.4.03v-1.11c.41.01,1,.03,1.4.03h.28c-.01-.49-.03-.9-.04-1.08l1.3.1c.15,0,.24.06.24.14s-.08.17-.28.27v.57h1.11Zm-2.24,3.53v.79h1.01v-.79h-1.01Zm3.4,0h-1.08v.79h1.08v-.79Z"/>
        <path class="cls-5" d="m390.4,42.92c-.31.35-.62.69-.95,1-.27.25-.55.48-.83.71.13.15.25.31.36.46l-.64.48h1.82l.18-.27.8.76c.1.08.11.13.11.18,0,.11-.08.17-.29.21h-.08c-.13.31-.18.43-.5,1.19-.15.38-.27.59-.46.92-.34-.34-.63-.56-.99-.79.2-.35.34-.63.5-1.04h-.69v3.31c0,.52.01,1.5.03,2.52v.14c0,.69-.11,1-.48,1.21-.39.25-.84.31-2.18.31-.04-.57-.08-.79-.27-1.43.46.04.69.06,1.02.06.48,0,.56-.07.56-.52v-3.28c-.52,1.13-1.05,2.03-1.78,3.03-.14-.38-.28-.59-.73-1.18.91-1.16,1.7-2.58,2.3-4.16h-.84c-.38,0-.83,0-1.12.01v-1.22c.31.01.81.03,1.12.03h1.44c-.42-.6-.91-1.13-1.44-1.64l.8-.71c.25.21.49.41.73.63.31-.25.6-.52.88-.8h-2.04c-.38,0-.81,0-1.11.01v-1.15c.31.01.81.03,1.11.03h3.07l.18-.22.83.77c.1.1.11.13.11.2,0,.11-.07.17-.25.2l-.27.04Zm3.99,7.42c-.22.66-.53,1.22-.95,1.75-.81,1.02-1.76,1.64-3.46,2.21-.18-.5-.29-.74-.55-1.18,1.74-.62,2.37-1.02,3.07-1.98.2-.27.36-.53.5-.81h-1.05c-.41,0-.99.01-1.39.03v-1.27c.39.01.98.03,1.39.03h1.47c.1-.43.17-.92.21-1.54l1.25.22c.15.03.22.08.22.17,0,.1-.07.15-.27.22-.04.34-.08.63-.14.92h2.16l.2-.25.8.83c.11.11.13.13.13.18,0,.1-.07.15-.24.21l-.14.06c-.18,1.78-.49,2.9-.92,3.42-.46.53-.87.63-2.69.63h-.14c-.01-.56-.07-.9-.18-1.4.49.04.69.06.88.06.8,0,1.04-.1,1.26-.55.2-.42.32-.98.45-1.96h-1.86Zm2.28-6.33c-.35.74-.78,1.43-1.32,2.03.69.45,1.47.76,2.98,1.19-.25.39-.43.78-.56,1.19-1.57-.46-2.41-.85-3.31-1.55-.9.74-1.62,1.09-3.31,1.67-.2-.53-.32-.78-.59-1.12,1.4-.46,2.17-.81,2.94-1.37-.39-.42-.69-.91-.94-1.43-.27.43-.53.8-.87,1.22-.08-.1-.15-.18-.2-.22q-.28-.32-.7-.67c1.02-1.25,1.47-2.07,2.04-3.71l1.08.43c.2.07.22.1.22.18,0,.1-.04.13-.28.21-.13.28-.24.53-.35.76h3.36c.31,0,.81,0,1.12-.01v1.23c-.29-.01-.74-.01-1.12-.01h-.22Zm-3.21,0c.25.46.55.91.94,1.29.36-.38.64-.83.88-1.29h-1.82Z"/>
      </g>
      <g>
        <path class="cls-5" d="m191.8,40.98c3-.08,4.37-1.06,4.98-3.58h2.27v21.39h-3.28v-15.9h-3.98v-1.9Z"/>
        <path class="cls-5" d="m221.99,48.12c0,6.89-2.77,11-7.39,11s-7.42-4.12-7.42-11,2.77-11,7.42-11,7.39,4.12,7.39,11Zm-10.11-6.69c-.9,1.57-1.37,3.95-1.37,6.69s.48,5.12,1.37,6.69c.59,1.01,1.54,1.57,2.72,1.57s2.1-.56,2.69-1.57c.9-1.57,1.4-3.95,1.4-6.69s-.53-5.21-1.4-6.69c-.62-1.04-1.54-1.57-2.69-1.57s-2.13.53-2.72,1.57Z"/>
        <path class="cls-5" d="m240.1,48.12c0,6.89-2.77,11-7.39,11s-7.42-4.12-7.42-11,2.77-11,7.42-11,7.39,4.12,7.39,11Zm-10.11-6.69c-.9,1.57-1.37,3.95-1.37,6.69s.48,5.12,1.37,6.69c.59,1.01,1.54,1.57,2.72,1.57s2.1-.56,2.69-1.57c.9-1.57,1.4-3.95,1.4-6.69s-.53-5.21-1.4-6.69c-.62-1.04-1.54-1.57-2.69-1.57s-2.13.53-2.72,1.57Z"/>
      </g>
      <g>
        <path class="cls-5" d="m130.27,110.58c-.18,2.23-.39,3.39-.77,4.5-.6,1.75-1.41,2.21-3.91,2.21h-.45q-.06-.91-.18-1.57c.73.06.74.06,1.04.06.97,0,1.43-.17,1.77-.63.52-.76.84-2.1,1.04-4.34h-3.67c-.03.17-.06.32-.08.5-.36,1.96-1.42,3.67-2.98,4.89-.67.5-1.22.83-2.28,1.29-.21-.52-.39-.85-.71-1.26,2.03-.98,2.89-1.67,3.68-3.03.9-1.49,1.18-2.84,1.23-6.01h-1.7c-.77,0-2.03.03-2.8.06v-1.4c.73.04,1.99.06,2.8.06h7.02c.88,0,2.07-.01,2.79-.06v1.4c-.74-.03-1.93-.06-2.79-.06h-3.89c-.03.79-.06,1.57-.13,2.35h4.05l.24-.27.95.85c.1.08.13.13.13.2,0,.08-.07.14-.24.2l-.14.06Z"/>
        <path class="cls-5" d="m135.61,114.32q.01,2.7.04,3.29h-1.53q.01-.59.04-2.73v-6.54q-.01-2.31-.04-2.73c.74.03,1.83.06,2.79.06h5.77c.95,0,2.06-.03,2.79-.06q-.01.42-.03,2.73v5.52c0,.31.01,1.21.04,1.79v.21c0,.84-.21,1.23-.77,1.5-.41.17-.94.22-2.33.22-.04-.85-.06-.97-.27-1.61.62.04.94.06,1.36.06.45,0,.52-.08.52-.59v-3.21h-8.39v2.09Zm0-7.33v3.92h3.42v-3.92h-3.42Zm4.86,3.92h3.53v-3.92h-3.53v3.92Z"/>
      </g>
      <g>
        <path class="cls-5" d="m92.42,96.34c-2.91,2.21-5.6,5.35-6.58,7.62.73-.31,1.62-.48,2.63-.48,3.72,0,6.3,2.94,6.3,7.22,0,4.51-2.8,7.62-6.86,7.62-4.28,0-7.11-3.19-7.11-8.06,0-5.24,3.11-10.5,8.2-13.92h3.42Zm-.98,14.45c0-2.8-1.48-4.73-3.64-4.73s-3.67,1.93-3.67,4.73,1.54,4.73,3.72,4.73,3.58-1.9,3.58-4.73Z"/>
        <path class="cls-5" d="m113.3,107.35c0,6.89-2.77,11-7.39,11s-7.42-4.12-7.42-11,2.77-11,7.42-11,7.39,4.12,7.39,11Zm-10.11-6.69c-.9,1.57-1.37,3.95-1.37,6.69s.48,5.12,1.37,6.69c.59,1.01,1.54,1.57,2.72,1.57s2.1-.56,2.69-1.57c.9-1.57,1.4-3.95,1.4-6.69s-.53-5.21-1.4-6.69c-.62-1.04-1.54-1.57-2.69-1.57s-2.13.53-2.72,1.57Z"/>
      </g>
      <g>
        <path class="cls-5" d="m247.25,116.21h-1.33c.03-.53.04-1.34.04-2.47v-5.56q-.01-1.78-.04-2.23c.27.01.5.01.83.01h2.14c.34,0,.57,0,.83-.01-.01.45-.04,1.39-.04,2.23v4.87c0,1.18.01,1.93.04,2.47h-1.32v-.64h-1.15v1.33Zm1.15-6.49v-2.49h-1.15v2.49h1.15Zm-1.15,3.91h1.15v-2.65h-1.15v2.65Zm6.32-5.83h-1.46c-.41,0-.99,0-1.39.03v-1.34c.39.01.98.03,1.39.03h1.46c0-.88-.01-1.37-.04-1.74l1.42.1c.15,0,.25.06.25.14s-.08.15-.27.28c-.01.28-.01.59-.01,1.22h1.55c.42,0,1.01-.01,1.4-.03v1.34c-.39-.03-.98-.03-1.4-.03h-1.55v1.26h1.82c.56,0,1.47-.01,1.96-.04v1.36c-.52-.01-1.43-.03-1.96-.03h-4.67c-.6,0-1.39.01-1.96.03v-1.36c.53.03,1.33.04,1.96.04h1.5v-1.26Zm3.25,6.88c0,.25.03,1,.04,1.49v.21c0,.6-.14.95-.49,1.2-.39.27-.87.35-1.95.35h-.25c-.03-.46-.08-.73-.27-1.47.41.03.63.04.97.04.55,0,.6-.06.6-.57v-2.79h-3.24c-.59,0-1.37.01-1.95.04v-1.36c.53.01,1.33.04,1.95.04h3.22c-.01-.63-.04-1.16-.08-1.32l1.53.1c.13.01.21.07.21.14,0,.08-.07.17-.25.27-.03.21-.03.27-.03.81.56,0,1.33-.03,1.78-.04v1.36c-.46-.03-1.25-.04-1.79-.04v1.54Zm-4.22-1.33c.85.63,1.37,1.11,2.02,1.89l-1.05.94c-.63-.83-1.09-1.32-1.82-1.92l.85-.91Z"/>
        <path class="cls-5" d="m261.36,114.53c0,1.48.01,2.58.06,3.28h-1.34c.03-.8.04-1.83.04-3.28v-8.04c0-.45-.01-.99-.04-1.25.42.03.83.03,1.42.03h2.37c.64,0,1.09,0,1.55-.03-.03.25-.04.8-.04,1.25v2.27c0,.66.01,1.13.04,1.46h-1.27v-.43h-2.77v4.75Zm2.77-8.18h-2.77v.69h2.77v-.69Zm0,1.67h-2.77v.69h2.77v-.69Zm.5,8.71h-1.3c.03-.34.03-.8.03-1.5v-3.15c0-.45-.01-.99-.03-1.25.31.01.6.03,1.01.03h3.57c.41,0,.7-.01,1.01-.03-.01.25-.04.8-.04,1.25v2.96c0,.66.01,1.13.04,1.46h-1.3v-.57h-2.98v.81Zm2.98-4.69h-2.98v.77h2.98v-.77Zm0,1.95h-2.98v.76h2.98v-.76Zm.45-3.77h-1.26c.03-.32.04-.8.04-1.46v-2.27c0-.45-.01-.99-.04-1.25.45.03.9.03,1.54.03h2.38c.59,0,.98,0,1.4-.03-.01.25-.04.8-.04,1.25v7.09c0,.53.01,1.34.03,2.47,0,.03.01.06.01.15,0,.7-.13,1.02-.48,1.25-.39.24-.83.31-2.1.31h-.06c-.03-.49-.08-.84-.27-1.49.46.04.69.06,1.06.06.49,0,.56-.07.56-.55v-6h-2.79v.43Zm2.79-3.87h-2.79v.69h2.79v-.69Zm0,1.67h-2.79v.69h2.79v-.69Z"/>
      </g>
      <g>
        <path class="cls-5" d="m326.62,101.38c0-.39,0-.7-.01-.9l1.43.08c.17.01.27.07.27.15,0,.07-.08.15-.27.27v.64h2.61c.88,0,2.09-.03,2.8-.06v1.36c-.76-.03-1.95-.06-2.8-.06h-6.7c-.77,0-2.03.03-2.79.06v-1.36c.73.03,1.99.06,2.79.06h2.67v-.25Zm-4.92,6.99c0-.45-.01-1-.03-1.23.53.01.88.01,1.75.01h7.73c.74,0,1.26,0,1.78-.01-.03.24-.04.71-.04,1.13v1.96c0,.55.01,1.18.04,1.83v.18c0,.62-.2.95-.69,1.11-.34.11-.71.14-1.71.14-.11-.74-.13-.87-.27-1.34.52.03.6.03.74.03.46,0,.53-.07.53-.59v-3.22h-8.49v5.15h-1.39c.03-.34.03-.8.03-1.5v-3.66Zm3.42-1.51h-1.34c.03-.34.04-.8.04-1.49v-.67c0-.45-.01-.98-.04-1.23.49.01.92.01,1.54.01h3.98c.63,0,1.06,0,1.55-.01-.03.29-.04.57-.04,1.23v.62c0,.64.01,1.13.04,1.46h-1.36v-.28h-4.37v.36Zm.63,5.62h-1.27c.03-.34.04-.8.04-1.49v-.9c0-.38-.01-.92-.04-1.16.31.01.6.03,1.01.03h3.63c.41,0,.7-.01,1.01-.03-.01.24-.04.78-.04,1.16v.95c0,.45.01.97.04,1.25h-1.26v-.45h-3.11v.63Zm3.74-7.87h-4.37v.81h4.37v-.81Zm-.63,5.38h-3.11v.88h3.11v-.88Z"/>
        <path class="cls-5" d="m337.78,103.07c.18.03.31.11.31.24,0,.11-.07.17-.32.27-.11.84-.13,1.27-.13,2.8,0,1.32.2,2.33.6,3.14.22.46.59.8.85.8.24,0,.41-.5.66-1.95.77.53.87.59,1.3.8-.5,2.19-.94,2.84-1.89,2.84-.83,0-1.57-.52-2.17-1.54-.35-.6-.66-1.47-.78-2.24-.1-.52-.13-1.11-.13-2.06,0-.69.06-2.31.1-2.94q.01-.25.01-.39l1.58.24Zm6.39.63c1.74,1.71,2.55,2.98,3.29,5.25l-1.5.7c-.36-1.33-.64-2.02-1.23-2.94-.5-.8-.98-1.4-1.64-2.06l1.08-.95Z"/>
        <path class="cls-5" d="m350.58,108.56c.11.03.17.08.17.17,0,.07-.01.1-.08.14l-.14.1c-.17,1.49-.41,2.61-.79,3.57-.49-.29-.64-.38-1.09-.55.46-1.21.66-2.13.76-3.7l1.18.27Zm-1.89-2.23c.48-.01.9-.01,1.29-.03.29-.38.56-.78.81-1.19-.62-.59-1.15-1-1.99-1.6l.67-.92c.14.08.28.18.41.27.43-.78.85-1.69,1.04-2.27l1.16.49c.07.03.13.11.13.18,0,.08-.1.14-.29.2-.39.81-.76,1.53-1.09,2.07.22.17.43.34.64.52.45-.77.78-1.43,1.04-2.07l1.19.56c.08.04.15.13.15.2,0,.1-.1.17-.31.21-1.09,1.86-1.43,2.38-2.14,3.29.43-.03.88-.06,1.33-.1-.11-.21-.22-.41-.35-.6l.91-.52c.6.91.91,1.49,1.29,2.4l-1.08.55c-.13-.34-.24-.62-.34-.85-.31.06-.62.11-.94.15v3.33c0,1.29.03,2.25.06,2.87h-1.44c.04-.62.06-1.58.06-2.87v-3.14c-.46.07-.95.14-1.4.2-.11.14-.18.2-.25.2s-.15-.08-.18-.2l-.36-1.32Zm4.73,1.85c.5.78.7,1.25,1.2,2.89l-1.26.5c-.39-1.64-.53-2.07-.95-2.93l1.01-.46Zm6.61-1.33c-.21-.01-.57-.01-.84-.01h-2.7c-.28,0-.63,0-.84.01v-1.04c-.27.29-.56.57-.9.87-.35-.59-.49-.77-.87-1.16.9-.81,1.36-1.34,1.89-2.17.59-.9.99-1.72,1.37-2.76l1.42.5c.14.04.24.14.24.24,0,.11-.04.17-.25.22.39.77.7,1.23,1.3,1.93.63.74.95,1.02,2.12,1.82-.34.32-.63.7-.94,1.2-.39-.31-.71-.59-.99-.84v1.18Zm-3.68,6.67h-1.39c.03-.34.04-.8.04-1.48v-2.8c0-.45-.01-.98-.04-1.23.31.01.6.01,1.01.01h3.84c.42,0,.7,0,1.01-.01-.01.25-.03.78-.03,1.23v2.63c0,.66.01,1.13.03,1.46h-1.37v-.46h-3.1v.66Zm3.53-7.98c-.42-.41-.76-.78-1.08-1.25-.42-.57-.74-1.13-1.02-1.75-.32.77-.63,1.3-1.12,2-.27.38-.52.7-.77.99h.6s2.7.01,2.7.01h.69Zm-.43,3.68h-3.1v2.42h3.1v-2.42Z"/>
        <path class="cls-5" d="m373.01,105.91c.06.06.1.13.1.2,0,.08-.07.14-.32.28-.04.57-.06,1.15-.11,1.72h.31c.88,0,2.07-.03,2.79-.06v1.47c-.74-.03-1.93-.06-2.79-.06h-.42c-.15,1.4-.36,2.25-.64,2.82-.34.62-.77.91-1.58,1.08-.45.08-.48.08-2.02.08-.08-.66-.14-.92-.32-1.5q.74.03.91.03c1.21,0,1.54-.14,1.79-.71.17-.38.29-.95.41-1.79h-5.49c-.77,0-2.03.03-2.79.06v-1.47c.73.03,1.99.06,2.79.06h5.65c.04-.49.07-.97.1-1.46h-4.87c-.07.22-.14.46-.21.69l-1.47-.36c.24-.5.83-2.42,1.13-3.74.32-1.32.39-1.68.56-2.82l1.58.38c.1.03.18.11.18.18,0,.08-.04.11-.22.17l-.15.06c-.08.32-.1.36-.24,1.01l-.03.11h4.41c.73,0,1.86-.03,2.51-.06v1.39c-.64-.01-1.78-.04-2.51-.04h-4.72c-.14.59-.29,1.16-.45,1.74h4.96l.24-.28.95.84Z"/>
        <path class="cls-5" d="m382.81,105.75h.62c.41,0,.99-.01,1.4-.03v1.34c-.41-.03-.99-.03-1.4-.03h-.62v3.53c0,1.29.01,2.24.04,2.87h-1.44c.03-.63.04-1.58.04-2.87v-3.53h-1.3c-.06,1.55-.25,2.72-.6,3.7-.41,1.12-.91,1.82-2,2.82-.31-.56-.56-.87-.91-1.13,1.46-1.36,2.02-2.69,2.13-5.38h-.56c-.41,0-1,0-1.39.03v-1.34c.39.01.98.03,1.39.03h.59v-3.26h-.2c-.41,0-.99.01-1.39.03v-1.32c.39.03.98.03,1.39.03h4.5c.41,0,1.01,0,1.4-.03v1.32c-.39-.01-.99-.03-1.4-.03h-.28v3.26Zm-2.63-3.26v3.26h1.27v-3.26h-1.27Zm9.67,5.66c.11.07.15.14.15.22,0,.14-.1.18-.39.2-1.5,2.18-3.07,3.59-5.49,4.9-.31-.64-.48-.9-.8-1.19,2.31-1.18,3.85-2.55,5.41-4.83l1.12.7Zm-1.25-6.88c.13.07.2.15.2.25,0,.11-.11.17-.36.17-1.08,1.51-2.26,2.59-3.82,3.49-.28-.57-.46-.83-.8-1.12,1.71-.97,2.63-1.81,3.7-3.38l1.09.59Zm.88,3.07c.14.08.21.15.21.24,0,.13-.11.18-.39.2-1.11,1.56-2.35,2.73-4.31,4.06-.31-.59-.43-.76-.81-1.16,1.82-1.12,3.1-2.33,4.19-3.95l1.12.62Z"/>
        <path class="cls-5" d="m394.31,100.81c.11.04.17.1.17.17,0,.11-.01.11-.32.21-.34.59-.45.79-.73,1.22.63-.01,1.26-.06,1.88-.11-.15-.14-.32-.29-.53-.49l.76-.73c.91.71,1.4,1.19,2.11,2.13l-.94.78c-.21-.28-.38-.5-.53-.7-1.34.15-2.33.24-4.61.42-.11.17-.21.24-.29.24-.07,0-.17-.08-.2-.18l-.39-1.28c.53-.01.99-.01,1.43-.03.31-.59.63-1.29.92-2.09l1.28.43Zm-.95,9.85c.1.04.13.08.13.14,0,.1-.04.13-.22.2-.42,1.18-.62,1.49-1.44,2.31-.28-.41-.57-.7-.94-.92.8-.83,1.09-1.36,1.3-2.23l1.18.5Zm-.48-2.68c.01.66.03,1.33.04,1.79h-1.32c.03-1.02.03-1.32.03-2.06v-2.13c0-.7,0-1.13-.03-1.62.29.01.73.03,1.13.03h2.58c.43,0,.87-.01,1.19-.03q-.03.7-.03,1.25v1.58c0,.24.01.84.04,1.29v.18c0,1.23-.34,1.46-2.17,1.46-.03-.48-.08-.78-.22-1.25.27.01.41.03.57.03.43,0,.52-.07.53-.52h-2.35Zm2.35-2.89h-2.35v.43h2.35v-.43Zm-2.35,1.88h2.35v-.45h-2.35v.45Zm2.73,3.28c.13.01.22.08.22.17,0,.1-.08.18-.29.25-.01.18-.01.38-.01.6v.31c0,.34.06.43.31.5.25.06.78.08,1.53.08,1.74,0,1.99-.04,2.12-.36.08-.21.13-.57.14-1.13.43.18.64.25,1.32.42-.04,1.13-.17,1.6-.55,1.92-.35.29-.81.35-2.94.35-2.91,0-3.22-.13-3.22-1.29v-.66c0-.76-.01-1.08-.07-1.29l1.46.13Zm1.53-.98c.83.57,1.3.99,1.95,1.75l-.94.9c-.48-.7-1-1.25-1.78-1.88l.77-.77Zm2.1-7.51c1.04-.25,1.67-.48,2.7-.95l.99.8c.07.06.1.11.1.17,0,.1-.1.17-.25.15h-.14c-1.34.43-2.3.7-3.4.91v.39c0,.41.03.49.21.55.18.06.46.07.98.07,1.33,0,1.61-.03,1.74-.2.1-.14.15-.43.15-.91.34.15.92.36,1.26.43-.07.97-.2,1.33-.53,1.55-.36.24-.81.29-2.56.29-1.05,0-1.5-.03-1.85-.11-.46-.1-.67-.39-.67-.99v-2.47c0-.38,0-.69-.01-.9l1.29.1c.17.01.27.06.27.14s-.08.17-.27.28v.69Zm0,4.8c1.05-.28,1.83-.57,2.72-1.01l.97.76c.06.04.1.1.1.17,0,.08-.1.14-.25.14h-.14c-1.26.5-2.28.84-3.39,1.08v.21c0,.39.03.48.22.53.2.06.45.07.97.07,1.4,0,1.64-.03,1.76-.21.1-.17.15-.48.17-1.02.39.21.56.28,1.26.45-.15,1.85-.32,1.97-2.79,1.97-1.15,0-1.68-.01-1.99-.07-.66-.1-.88-.36-.88-1.04v-2.45c0-.39,0-.7-.01-.91l1.29.1c.17.01.27.07.27.15,0,.07-.08.15-.27.27v.81Zm2.75,3.35c.77.7,1.33,1.39,1.92,2.35l-1.12.83c-.48-.94-1.15-1.91-1.71-2.44l.91-.74Z"/>
      </g>
      <g>
        <path class="cls-5" d="m191.8,100.21c3-.08,4.37-1.06,4.98-3.58h2.27v21.39h-3.28v-15.9h-3.98v-1.9Z"/>
        <path class="cls-5" d="m221.59,96.74v2.58l-9.18,18.7h-3.56l8.93-18.17h-10.08v-3.11h13.89Z"/>
        <path class="cls-5" d="m240.1,107.35c0,6.89-2.77,11-7.39,11s-7.42-4.12-7.42-11,2.77-11,7.42-11,7.39,4.12,7.39,11Zm-10.11-6.69c-.9,1.57-1.37,3.95-1.37,6.69s.48,5.12,1.37,6.69c.59,1.01,1.54,1.57,2.72,1.57s2.1-.56,2.69-1.57c.9-1.57,1.4-3.95,1.4-6.69s-.53-5.21-1.4-6.69c-.62-1.04-1.54-1.57-2.69-1.57s-2.13.53-2.72,1.57Z"/>
      </g>
      <g>
        <path class="cls-5" d="m130.27,169.29c-.18,2.23-.39,3.39-.77,4.5-.6,1.75-1.41,2.21-3.91,2.21h-.45q-.06-.91-.18-1.57c.73.06.74.06,1.04.06.97,0,1.43-.17,1.77-.63.52-.76.84-2.1,1.04-4.34h-3.67c-.03.17-.06.32-.08.5-.36,1.96-1.42,3.67-2.98,4.89-.67.5-1.22.83-2.28,1.29-.21-.52-.39-.85-.71-1.26,2.03-.98,2.89-1.67,3.68-3.03.9-1.48,1.18-2.84,1.23-6.01h-1.7c-.77,0-2.03.03-2.8.06v-1.4c.73.04,1.99.06,2.8.06h7.02c.88,0,2.07-.01,2.79-.06v1.4c-.74-.03-1.93-.06-2.79-.06h-3.89c-.03.78-.06,1.57-.13,2.35h4.05l.24-.27.95.85c.1.08.13.13.13.2,0,.08-.07.14-.24.2l-.14.06Z"/>
        <path class="cls-5" d="m135.61,173.03q.01,2.7.04,3.29h-1.53q.01-.59.04-2.73v-6.54q-.01-2.31-.04-2.73c.74.03,1.83.06,2.79.06h5.77c.95,0,2.06-.03,2.79-.06q-.01.42-.03,2.73v5.52c0,.31.01,1.21.04,1.79v.21c0,.84-.21,1.23-.77,1.5-.41.17-.94.22-2.33.22-.04-.85-.06-.97-.27-1.61.62.04.94.06,1.36.06.45,0,.52-.08.52-.59v-3.21h-8.39v2.09Zm0-7.33v3.92h3.42v-3.92h-3.42Zm4.86,3.92h3.53v-3.92h-3.53v3.92Z"/>
      </g>
      <g>
        <path class="cls-5" d="m84.05,171.91c.53,1.48,1.65,2.27,3.33,2.27,2.32,0,3.89-1.9,3.89-4.76,0-2.66-1.43-4.42-3.56-4.42-1.48,0-2.58.62-3.53,2.02l-2.86-.39,1.82-11.17h10.28l-.25,2.94h-7.56l-.87,5.1c1.18-.87,2.1-1.18,3.47-1.18,3.86,0,6.5,2.8,6.5,6.97,0,2.1-.7,3.98-1.99,5.46-1.4,1.57-3.05,2.3-5.24,2.3-3.53,0-6.1-2.02-6.61-5.12h3.16Z"/>
        <path class="cls-5" d="m99.78,160.46c.17-3.44,2.55-5.43,6.52-5.43,1.96,0,3.47.5,4.54,1.54,1.01.98,1.62,2.46,1.62,3.98,0,2.24-1.09,3.78-3.36,4.73,2.6.81,3.84,2.46,3.84,5.15,0,2.07-.87,3.98-2.38,5.18-1.23.95-2.8,1.43-4.79,1.43-4.31,0-6.86-2.07-6.89-5.68h2.97c.06,1.82,1.43,2.83,3.92,2.83s3.86-1.37,3.86-3.7c0-1.57-.76-2.72-2.13-3.25-.62-.22-1.76-.36-3.05-.36l-.67.03v-2.74c.39.03.56.03.81.03,2.94,0,4.54-1.2,4.54-3.39,0-1.79-1.2-2.94-3.16-2.94s-3.19.98-3.36,2.6h-2.83Z"/>
      </g>
      <g>
        <path class="cls-5" d="m247.25,174.92h-1.33c.03-.53.04-1.34.04-2.46v-5.56q-.01-1.78-.04-2.23c.27.01.5.01.83.01h2.14c.34,0,.57,0,.83-.01-.01.45-.04,1.39-.04,2.23v4.88c0,1.18.01,1.93.04,2.46h-1.32v-.64h-1.15v1.33Zm1.15-6.49v-2.49h-1.15v2.49h1.15Zm-1.15,3.91h1.15v-2.65h-1.15v2.65Zm6.32-5.83h-1.46c-.41,0-.99,0-1.39.03v-1.34c.39.01.98.03,1.39.03h1.46c0-.88-.01-1.37-.04-1.74l1.42.1c.15,0,.25.06.25.14s-.08.15-.27.28c-.01.28-.01.59-.01,1.22h1.55c.42,0,1.01-.01,1.4-.03v1.34c-.39-.03-.98-.03-1.4-.03h-1.55v1.26h1.82c.56,0,1.47-.01,1.96-.04v1.36c-.52-.01-1.43-.03-1.96-.03h-4.67c-.6,0-1.39.01-1.96.03v-1.36c.53.03,1.33.04,1.96.04h1.5v-1.26Zm3.25,6.88c0,.25.03.99.04,1.48v.21c0,.6-.14.95-.49,1.21-.39.27-.87.35-1.95.35h-.25c-.03-.46-.08-.73-.27-1.47.41.03.63.04.97.04.55,0,.6-.06.6-.57v-2.79h-3.24c-.59,0-1.37.01-1.95.04v-1.36c.53.01,1.33.04,1.95.04h3.22c-.01-.63-.04-1.16-.08-1.32l1.53.1c.13.01.21.07.21.14,0,.08-.07.17-.25.27-.03.21-.03.27-.03.81.56,0,1.33-.03,1.78-.04v1.36c-.46-.03-1.25-.04-1.79-.04v1.54Zm-4.22-1.33c.85.63,1.37,1.11,2.02,1.89l-1.05.94c-.63-.83-1.09-1.32-1.82-1.92l.85-.91Z"/>
        <path class="cls-5" d="m261.36,173.24c0,1.48.01,2.58.06,3.28h-1.34c.03-.8.04-1.83.04-3.28v-8.04c0-.45-.01-.99-.04-1.25.42.03.83.03,1.42.03h2.37c.64,0,1.09,0,1.55-.03-.03.25-.04.8-.04,1.25v2.27c0,.66.01,1.13.04,1.46h-1.27v-.43h-2.77v4.75Zm2.77-8.18h-2.77v.69h2.77v-.69Zm0,1.67h-2.77v.69h2.77v-.69Zm.5,8.71h-1.3c.03-.34.03-.8.03-1.5v-3.15c0-.45-.01-1-.03-1.25.31.01.6.03,1.01.03h3.57c.41,0,.7-.01,1.01-.03-.01.25-.04.8-.04,1.25v2.96c0,.66.01,1.13.04,1.46h-1.3v-.57h-2.98v.81Zm2.98-4.69h-2.98v.77h2.98v-.77Zm0,1.95h-2.98v.76h2.98v-.76Zm.45-3.77h-1.26c.03-.32.04-.8.04-1.46v-2.27c0-.45-.01-.99-.04-1.25.45.03.9.03,1.54.03h2.38c.59,0,.98,0,1.4-.03-.01.25-.04.8-.04,1.25v7.09c0,.53.01,1.34.03,2.47,0,.03.01.06.01.15,0,.7-.13,1.02-.48,1.25-.39.24-.83.31-2.1.31h-.06c-.03-.49-.08-.84-.27-1.49.46.04.69.06,1.06.06.49,0,.56-.07.56-.55v-6h-2.79v.43Zm2.79-3.87h-2.79v.69h2.79v-.69Zm0,1.67h-2.79v.69h2.79v-.69Z"/>
      </g>
      <g>
        <path class="cls-5" d="m324.41,160.7c.15,0,.24.06.24.14s-.06.14-.27.28q0,.41-.01,1.58v2.68c0,.98.01,1.6.03,2.04h-1.64c.03-.48.04-1.12.04-2.04v-2.68c0-1.11-.01-1.71-.04-2.1l1.65.1Zm4.15,4.29c0,2.97-.43,4.26-1.86,5.45-.8.66-1.48,1.04-3,1.65-.25-.73-.46-1.05-.9-1.37,1.2-.41,2.12-.87,2.76-1.4,1.05-.87,1.42-1.95,1.42-4.19v-2.73c0-1.06-.01-1.71-.04-2.1l1.65.1c.15.01.24.06.24.15,0,.07-.06.14-.24.27q-.03.41-.03,1.58v2.59Z"/>
        <path class="cls-5" d="m339.45,168.75c0,.48.13.53,1.09.53,1.18,0,2.02-.04,3.35-.18v1.44c-1.21.13-1.98.17-3.7.17-1.88,0-2.21-.27-2.21-1.75v-2.37l-2.51.06c-.6.01-1.39.06-1.96.08v-1.46q.21.01.39.01c.35,0,1.23,0,1.55-.01l2.52-.06v-1.18c0-.45,0-.57-.01-.91l1.49.1c.17.01.27.06.27.14s-.07.17-.27.28v1.54l3.67-.08c.57-.01,1.42-.06,1.96-.1v1.46s-1.93,0-1.93,0l-3.7.1v2.19Zm3.66-5.95c-.14-.01-.22-.01-.25-.01-.14,0-.63,0-1.43.01l-4.58.1c-.42.01-1.13.04-1.68.07v-1.44c.48.01,1.36.01,1.65,0l4.59-.11c.73-.01,1.2-.03,1.67-.07l.03,1.46Z"/>
        <path class="cls-5" d="m359.09,166.44c-.66-.01-1.76-.04-2.51-.04h-5.87c-.69,0-1.91.03-2.51.04v-1.5c.57.01,1.79.04,2.51.04h5.87c.77,0,1.88-.01,2.51-.04v1.5Z"/>
        <path class="cls-5" d="m367.39,164.03c1.88.69,3,1.25,4.38,2.14l-.88,1.33c-1.08-.81-2.16-1.41-3.5-1.96v2.98c0,1.32.01,2.14.03,2.86h-1.67c.08-.69.13-1.6.13-2.86v-5.6c0-1.6-.01-2.48-.06-2.91l1.64.1c.14,0,.22.06.22.14s-.08.17-.27.27c-.03.92-.03,1.09-.03,2.41v1.11Z"/>
        <path class="cls-5" d="m378,165.68h-1.01v.25h-1.33c.03-.34.04-.8.04-1.5v-.35c0-.45-.01-.98-.04-1.23.49.01.92.01,1.54.01h2.98c.62,0,1.05,0,1.54-.01-.03.25-.04.78-.04,1.23v.35c0,.66.01,1.13.04,1.46h-1.33v-.21h-1.08v.73h1.39c.41,0,1-.01,1.4-.03v1.13c-.41-.01-1-.03-1.4-.03h-1.39v.64h.97c.41,0,1-.01,1.39-.03v1.13c-.39-.01-.98-.03-1.39-.03h-.97v.8c1-.14,1.99-.34,2.97-.56v.95c.2-.25.34-.49.52-.84.7-1.33.98-2.73,1.06-5.59h-.25c-.41,0-.99.01-1.39.03v-1.34c.38.03.99.04,1.39.04h.28v-.76c0-1.54-.01-1.76-.04-2.66l1.36.11c.24.03.34.08.34.18,0,.08-.01.1-.29.27v2.86h1.71l.17-.2.88.73c.07.06.1.13.1.2,0,.13,0,.15-.31.24-.11,5.88-.32,7.37-1.18,7.98-.31.22-.67.32-1.34.36-.39.03-.67.01-.97.03-.07-.62-.08-.7-.28-1.47.43.03.62.03.8.03.67,0,.84-.07,1.04-.41.38-.67.53-2.33.56-6.22h-1.2c-.04,1.71-.15,3.07-.31,3.78-.38,1.79-1.19,3.33-2.35,4.52-.34-.46-.59-.67-1.09-.97.28-.28.48-.49.64-.69-1.27.28-3.5.64-6.12,1.04-.11.2-.2.27-.28.27-.07,0-.17-.08-.2-.17l-.42-1.23c.97-.08,1.93-.2,2.9-.34v-.98h-.88c-.41,0-.99.01-1.4.03v-1.13c.41.01,1,.03,1.4.03h.88v-.64h-1.3c-.41,0-.99.01-1.4.03v-1.13c.41.01.99.03,1.4.03h1.3v-.73Zm1.23-5.32c0-.49-.01-.9-.04-1.08l1.3.1c.15,0,.24.06.24.14s-.07.15-.25.27v.57h.35c.41,0,1.01-.01,1.4-.03v1.11c-.39-.01-.99-.03-1.4-.03h-.36c0,.46.01.88.03,1.12h-1.29c.01-.28.03-.64.03-1.12h-1.11c0,.5.01.88.04,1.12h-1.3c.03-.28.04-.64.04-1.12h-.28c-.41,0-.99.01-1.4.03v-1.11c.41.01.99.03,1.4.03h.28c-.01-.49-.03-.9-.04-1.08l1.3.1c.15,0,.24.06.24.14s-.08.17-.28.27v.57h1.11Zm-2.24,3.53v.78h1.01v-.78h-1.01Zm3.4,0h-1.08v.78h1.08v-.78Z"/>
        <path class="cls-5" d="m394.33,160.86c-.31.35-.62.69-.95,1-.27.25-.55.48-.83.71.13.15.25.31.36.46l-.64.48h1.82l.18-.27.8.76c.1.08.11.13.11.18,0,.11-.08.17-.29.21h-.08c-.13.31-.18.43-.5,1.19-.15.38-.27.59-.46.92-.34-.34-.63-.56-.99-.78.2-.35.34-.63.5-1.04h-.69v3.31c0,.52.01,1.5.03,2.52v.14c0,.69-.11.99-.48,1.2-.39.25-.84.31-2.18.31-.04-.57-.08-.78-.27-1.43.46.04.69.06,1.02.06.48,0,.56-.07.56-.52v-3.28c-.52,1.13-1.05,2.03-1.78,3.03-.14-.38-.28-.59-.73-1.18.91-1.16,1.7-2.58,2.3-4.16h-.84c-.38,0-.83,0-1.12.01v-1.22c.31.01.81.03,1.12.03h1.44c-.42-.6-.91-1.13-1.44-1.64l.8-.71c.25.21.49.41.73.63.31-.25.6-.52.88-.8h-2.04c-.38,0-.81,0-1.11.01v-1.15c.31.01.81.03,1.11.03h3.07l.18-.22.83.77c.1.1.11.13.11.2,0,.11-.07.17-.25.2l-.27.04Zm3.99,7.42c-.22.66-.53,1.22-.95,1.75-.81,1.02-1.77,1.64-3.46,2.21-.18-.5-.29-.74-.55-1.18,1.74-.62,2.37-1.02,3.07-1.97.2-.27.36-.53.5-.81h-1.05c-.41,0-.99.01-1.39.03v-1.27c.39.01.98.03,1.39.03h1.47c.1-.43.17-.92.21-1.54l1.25.22c.15.03.22.08.22.17,0,.1-.07.15-.27.22-.04.34-.08.63-.14.92h2.16l.2-.25.8.83c.11.11.13.13.13.18,0,.1-.07.15-.24.21l-.14.06c-.18,1.78-.49,2.9-.92,3.42-.46.53-.87.63-2.69.63h-.14c-.01-.56-.07-.9-.18-1.4.49.04.69.06.88.06.8,0,1.04-.1,1.26-.55.2-.42.32-.98.45-1.96h-1.86Zm2.28-6.33c-.35.74-.78,1.43-1.32,2.03.69.45,1.47.76,2.98,1.19-.25.39-.43.79-.56,1.19-1.57-.46-2.41-.85-3.31-1.56-.9.74-1.62,1.09-3.31,1.67-.2-.53-.32-.78-.59-1.12,1.4-.46,2.17-.81,2.94-1.37-.39-.42-.69-.91-.94-1.43-.27.43-.53.8-.87,1.22-.08-.1-.15-.18-.2-.22q-.28-.32-.7-.67c1.02-1.25,1.47-2.07,2.04-3.71l1.08.43c.2.07.22.1.22.18,0,.1-.04.13-.28.21-.13.28-.24.53-.35.76h3.36c.31,0,.81,0,1.12-.01v1.23c-.29-.01-.74-.01-1.12-.01h-.22Zm-3.21,0c.25.46.55.91.94,1.29.36-.38.64-.83.88-1.29h-1.82Z"/>
      </g>
      <g>
        <path class="cls-5" d="m191.8,158.92c3-.08,4.37-1.06,4.98-3.58h2.27v21.39h-3.28v-15.9h-3.98v-1.9Z"/>
        <path class="cls-5" d="m210.84,171.91c.53,1.48,1.65,2.27,3.33,2.27,2.32,0,3.89-1.9,3.89-4.76,0-2.66-1.43-4.42-3.56-4.42-1.48,0-2.58.62-3.53,2.02l-2.86-.39,1.82-11.17h10.28l-.25,2.94h-7.56l-.87,5.1c1.18-.87,2.1-1.18,3.47-1.18,3.86,0,6.5,2.8,6.5,6.97,0,2.1-.7,3.98-1.99,5.46-1.4,1.57-3.05,2.3-5.24,2.3-3.53,0-6.1-2.02-6.61-5.12h3.16Z"/>
        <path class="cls-5" d="m240.1,166.06c0,6.89-2.77,11-7.39,11s-7.42-4.12-7.42-11,2.77-11,7.42-11,7.39,4.12,7.39,11Zm-10.11-6.69c-.9,1.57-1.37,3.95-1.37,6.69s.48,5.12,1.37,6.69c.59,1.01,1.54,1.57,2.72,1.57s2.1-.56,2.69-1.57c.9-1.57,1.4-3.95,1.4-6.69s-.53-5.21-1.4-6.69c-.62-1.04-1.54-1.57-2.69-1.57s-2.13.53-2.72,1.57Z"/>
      </g>
      <g>
        <path class="cls-5" d="m130.27,228.26c-.18,2.23-.39,3.39-.77,4.5-.6,1.75-1.41,2.21-3.91,2.21h-.45q-.06-.91-.18-1.57c.73.06.74.06,1.04.06.97,0,1.43-.17,1.77-.63.52-.76.84-2.1,1.04-4.34h-3.67c-.03.17-.06.32-.08.5-.36,1.96-1.42,3.67-2.98,4.89-.67.5-1.22.83-2.28,1.29-.21-.52-.39-.85-.71-1.26,2.03-.98,2.89-1.67,3.68-3.03.9-1.48,1.18-2.84,1.23-6.01h-1.7c-.77,0-2.03.03-2.8.06v-1.4c.73.04,1.99.06,2.8.06h7.02c.88,0,2.07-.01,2.79-.06v1.4c-.74-.03-1.93-.06-2.79-.06h-3.89c-.03.78-.06,1.57-.13,2.35h4.05l.24-.27.95.85c.1.08.13.13.13.2,0,.08-.07.14-.24.2l-.14.06Z"/>
        <path class="cls-5" d="m135.61,232q.01,2.7.04,3.29h-1.53q.01-.59.04-2.73v-6.54q-.01-2.31-.04-2.73c.74.03,1.83.06,2.79.06h5.77c.95,0,2.06-.03,2.79-.06q-.01.42-.03,2.73v5.52c0,.31.01,1.21.04,1.79v.21c0,.84-.21,1.23-.77,1.5-.41.17-.94.22-2.33.22-.04-.85-.06-.97-.27-1.61.62.04.94.06,1.36.06.45,0,.52-.08.52-.59v-3.21h-8.39v2.09Zm0-7.33v3.92h3.42v-3.92h-3.42Zm4.86,3.92h3.53v-3.92h-3.53v3.92Z"/>
      </g>
      <g>
        <path class="cls-5" d="m84.05,230.88c.53,1.48,1.65,2.27,3.33,2.27,2.32,0,3.89-1.9,3.89-4.76,0-2.66-1.43-4.42-3.56-4.42-1.48,0-2.58.62-3.53,2.02l-2.86-.39,1.82-11.17h10.28l-.25,2.94h-7.56l-.87,5.1c1.18-.87,2.1-1.18,3.47-1.18,3.86,0,6.5,2.8,6.5,6.97,0,2.1-.7,3.98-1.99,5.46-1.4,1.57-3.05,2.3-5.24,2.3-3.53,0-6.1-2.02-6.61-5.12h3.16Z"/>
        <path class="cls-5" d="m113.3,225.03c0,6.89-2.77,11-7.39,11s-7.42-4.12-7.42-11,2.77-11,7.42-11,7.39,4.12,7.39,11Zm-10.11-6.69c-.9,1.57-1.37,3.95-1.37,6.69s.48,5.12,1.37,6.69c.59,1.01,1.54,1.57,2.72,1.57s2.1-.56,2.69-1.57c.9-1.57,1.4-3.95,1.4-6.69s-.53-5.21-1.4-6.69c-.62-1.04-1.54-1.57-2.69-1.57s-2.13.53-2.72,1.57Z"/>
      </g>
      <g>
        <path class="cls-5" d="m247.25,233.89h-1.33c.03-.53.04-1.34.04-2.46v-5.56q-.01-1.78-.04-2.23c.27.01.5.01.83.01h2.14c.34,0,.57,0,.83-.01-.01.45-.04,1.39-.04,2.23v4.88c0,1.18.01,1.93.04,2.46h-1.32v-.64h-1.15v1.33Zm1.15-6.49v-2.49h-1.15v2.49h1.15Zm-1.15,3.91h1.15v-2.65h-1.15v2.65Zm6.32-5.83h-1.46c-.41,0-.99,0-1.39.03v-1.34c.39.01.98.03,1.39.03h1.46c0-.88-.01-1.37-.04-1.74l1.42.1c.15,0,.25.06.25.14s-.08.15-.27.28c-.01.28-.01.59-.01,1.22h1.55c.42,0,1.01-.01,1.4-.03v1.34c-.39-.03-.98-.03-1.4-.03h-1.55v1.26h1.82c.56,0,1.47-.01,1.96-.04v1.36c-.52-.01-1.43-.03-1.96-.03h-4.67c-.6,0-1.39.01-1.96.03v-1.36c.53.03,1.33.04,1.96.04h1.5v-1.26Zm3.25,6.88c0,.25.03.99.04,1.48v.21c0,.6-.14.95-.49,1.21-.39.27-.87.35-1.95.35h-.25c-.03-.46-.08-.73-.27-1.47.41.03.63.04.97.04.55,0,.6-.06.6-.57v-2.79h-3.24c-.59,0-1.37.01-1.95.04v-1.36c.53.01,1.33.04,1.95.04h3.22c-.01-.63-.04-1.16-.08-1.32l1.53.1c.13.01.21.07.21.14,0,.08-.07.17-.25.27-.03.21-.03.27-.03.81.56,0,1.33-.03,1.78-.04v1.36c-.46-.03-1.25-.04-1.79-.04v1.54Zm-4.22-1.33c.85.63,1.37,1.11,2.02,1.89l-1.05.94c-.63-.83-1.09-1.32-1.82-1.92l.85-.91Z"/>
        <path class="cls-5" d="m261.36,232.21c0,1.48.01,2.58.06,3.28h-1.34c.03-.8.04-1.83.04-3.28v-8.04c0-.45-.01-.99-.04-1.25.42.03.83.03,1.42.03h2.37c.64,0,1.09,0,1.55-.03-.03.25-.04.8-.04,1.25v2.27c0,.66.01,1.13.04,1.46h-1.27v-.43h-2.77v4.75Zm2.77-8.18h-2.77v.69h2.77v-.69Zm0,1.67h-2.77v.69h2.77v-.69Zm.5,8.71h-1.3c.03-.34.03-.8.03-1.5v-3.15c0-.45-.01-1-.03-1.25.31.01.6.03,1.01.03h3.57c.41,0,.7-.01,1.01-.03-.01.25-.04.8-.04,1.25v2.96c0,.66.01,1.13.04,1.46h-1.3v-.57h-2.98v.81Zm2.98-4.69h-2.98v.77h2.98v-.77Zm0,1.95h-2.98v.76h2.98v-.76Zm.45-3.77h-1.26c.03-.32.04-.8.04-1.46v-2.27c0-.45-.01-.99-.04-1.25.45.03.9.03,1.54.03h2.38c.59,0,.98,0,1.4-.03-.01.25-.04.8-.04,1.25v7.09c0,.53.01,1.34.03,2.47,0,.03.01.06.01.15,0,.7-.13,1.02-.48,1.25-.39.24-.83.31-2.1.31h-.06c-.03-.49-.08-.84-.27-1.49.46.04.69.06,1.06.06.49,0,.56-.07.56-.55v-6h-2.79v.43Zm2.79-3.87h-2.79v.69h2.79v-.69Zm0,1.67h-2.79v.69h2.79v-.69Z"/>
      </g>
      <g>
        <path class="cls-5" d="m318.9,228.98c.14.1.15.11.15.17,0,.11-.06.14-.38.18-1.36.9-2.76,1.48-4.4,1.85-.14-.56-.24-.78-.48-1.22,1.76-.35,2.94-.8,4.19-1.64l.91.66Zm-1.16-9.75c.06.04.08.07.1.11,0-.13-.01-.22-.01-.31.31.01.59.03,1.01.03h3.25c.42,0,.7-.01,1.02-.03-.03.25-.04.8-.04,1.25v6.7h1.65l.04-1.51h-.55c-.27,0-.62,0-.83.01v-1.21h.83s.56.01.56.01l.03-1.42h-.59c-.27,0-.62,0-.83.01v-1.22c.21.01.56.03.83.03h.62l.03-1.39h-.71c-.2,0-.49.01-.67.04v-1.3c.17.01.45.03.67.03h1.06c.36,0,.6,0,.91-.01q-.11,1.6-.13,2.23l-.1,5.69c.31,0,.73-.01,1-.03v1.26c-.29-.01-.74-.03-1.12-.03h-10.65c-.38,0-.81.01-1.12.03v-1.26c.29.01.76.03,1.07.03l-.07-5.48q-.01-.57-.11-2.24l.64.24c.46-.29.84-.6,1.23-.99l.98.73Zm.11,1.05c0-.28-.01-.55-.01-.83-.03.06-.13.07-.34.08-.35.24-.9.69-1.37.9v1.26h.62c.27,0,.63-.01.84-.03v1.22c-.21-.01-.57-.01-.84-.01h-.59v1.42h1.43s0,1.19,0,1.19c-.21-.01-.57-.01-.84-.01h-.56l.03,1.51h1.64v-6.7Zm4.08,6.7v-6.77h-2.93v6.77h2.93Zm-.28-5.08c-.11-.01-.39-.01-.55-.01h-1.3c-.15,0-.43,0-.56.01v-1.04h2.41v1.04Zm-1.46,4.66h-.8c.01-.27.01-.81.01-1.32v-1.48q-.01-.92-.01-1.11c.35.01.52.03.9.03h.34c.38,0,.55-.01.91-.03q-.01.22-.03,1.23v1.33c0,.32.01.9.03,1.12h-.81v-.46h-.53v.69Zm.53-2.94h-.53v1.32h.53v-1.32Zm1.79,4.79c1.74.83,2.37,1.04,4.51,1.46-.18.29-.28.49-.62,1.23-1.78-.35-3.21-.87-4.68-1.71l.78-.98Z"/>
        <path class="cls-5" d="m329.69,227.67h-1.27c.03-.52.04-1.33.04-2.44v-3.4q-.01-1.76-.04-2.23c.27.01.5.03.83.03h2.06c.34,0,.57-.01.83-.03-.01.45-.04,1.39-.04,2.23v2.45c0,1.18.01,1.92.04,2.45h-1.26v-.55h-1.18v1.49Zm1.18-2.63v-4.24h-1.18v4.24h1.18Zm4.94,1.53c-.63.77-1.19,1.3-1.93,1.88-.97.76-1.98,1.36-3.26,1.97-.27-.59-.39-.8-.76-1.25,1.37-.62,2.34-1.18,3.36-1.95.97-.73,1.58-1.33,2.24-2.26h-1.34c-.46,0-1.25.01-1.67.03v-1.33c.42.01,1.13.03,1.67.03h1.69v-2.02h-1.22c-.46,0-1.25.01-1.67.03v-1.33c.42.01,1.13.03,1.67.03h1.21c0-.45,0-.9-.01-1.34-.01-.27-.03-.53-.06-.78l1.44.1c.11.01.2.07.2.14,0,.08-.07.15-.25.27-.01.55-.01,1.08-.01,1.62h1.75c.55,0,1.26-.01,1.68-.03v1.33c-.43-.01-1.22-.03-1.68-.03h-1.75v2.02h2.18c.53,0,1.25-.01,1.67-.03v1.33c-.42-.01-1.2-.03-1.67-.03h-1.86c1.06,1.86,1.97,2.8,3.78,4.01-.38.36-.58.62-.9,1.16-1.51-1.16-2.41-2.12-3.21-3.53v.48c0,1.85.01,3.19.07,4.1h-1.43c.04-.91.07-2.3.07-4.1v-.52Z"/>
        <path class="cls-5" d="m349.17,221.89c.11.06.17.11.17.17,0,.08-.07.17-.2.24-.5,2.09-.73,2.8-1.29,4.06-.83,1.86-1.74,2.72-2.91,2.72-.77,0-1.33-.34-1.74-.99-.35-.62-.55-1.36-.55-2.14,0-1.75.99-3.47,2.63-4.54,1.02-.67,2.17-1.01,3.49-1.01,1.48,0,2.79.41,3.85,1.18,1.18.87,1.77,2.07,1.77,3.63,0,1.85-.87,3.25-2.65,4.23-.56.31-1.62.71-2.61.99-.27-.73-.36-.92-.74-1.4,1.47-.35,2.03-.55,2.8-1.01,1.12-.66,1.72-1.65,1.72-2.83,0-1.44-.87-2.63-2.35-3.22-.53-.21-1.15-.34-1.6-.34h-.28l.48.27Zm-3.66.95c-.9.9-1.4,2.05-1.4,3.17,0,.99.32,1.61.84,1.61.45,0,.84-.43,1.34-1.49.81-1.69,1.3-3.24,1.4-4.44-.99.21-1.55.5-2.18,1.15Z"/>
        <path class="cls-5" d="m362.41,218.91c.14.03.22.1.22.2,0,.13-.08.2-.34.31-.07.35-.08.43-.17.91-.04.2-.04.22-.08.46.94-.18,2.04-.57,2.8-.98l.62,1.22c-1.25.56-2.21.85-3.59,1.12-.08.55-.15,1.11-.17,1.39q.1-.01.39-.1c.39-.11,1.11-.22,1.6-.25.14-.36.2-.55.29-1l1.41.39c.11.03.18.1.18.17,0,.1-.07.17-.27.24l-.14.34c.46.08.94.27,1.39.52,1.11.62,1.62,1.5,1.62,2.75,0,1.7-1.01,3.07-2.83,3.8-.84.34-1.6.52-2.76.69-.17-.73-.25-.95-.48-1.42,1.48-.22,2.16-.41,2.89-.74,1.09-.53,1.68-1.36,1.68-2.37,0-1.09-.77-1.93-1.95-2.14-.7,1.3-1.26,2.06-2.45,3.28.14.28.2.38.48.77-.45.2-.67.34-1.25.8-.18-.27-.21-.32-.36-.64-1.09.77-1.64.99-2.42.99-1.16,0-1.85-.63-1.85-1.68,0-1.44,1.34-2.97,3.45-3.92.04-.85.04-.88.13-1.72-.28.03-.83.06-1.16.06-.52,0-.88-.03-1.58-.11l-.04-1.43c.53.13,1.26.2,1.88.2.28,0,.55-.01,1.06-.06q.07-.55.14-1.02c.08-.6.14-1.04.14-1.29l1.51.29Zm-2.07,6.4c-.6.36-.69.42-.95.66-.69.6-1.07,1.27-1.07,1.88,0,.31.17.52.43.52.45,0,1.12-.35,1.92-.98-.2-.67-.31-1.37-.34-2.07Zm1.34-.28c0,.48.04.87.14,1.32q.69-.81.9-1.13.1-.15.43-.7.07-.11.13-.21c-.57.07-1.15.21-1.6.38v.35Z"/>
        <path class="cls-5" d="m372.81,219.78c1.21-.07,3.57-.43,4.92-.74l.2-.13,1.02.9c.11.1.14.14.14.2,0,.08-.07.13-.2.17l-.13.04c-1.19,1.48-1.79,2.17-3.17,3.63.83-.34,1.32-.45,2.02-.45,2.1,0,3.56,1.27,3.56,3.15,0,1.11-.45,2.06-1.28,2.77-.87.74-2,1.09-3.52,1.09-1.99,0-3.1-.67-3.1-1.89,0-.97.81-1.7,1.89-1.7.81,0,1.62.41,2.11,1.06.2.28.29.48.55,1.11.55-.17.81-.32,1.12-.66.41-.45.64-1.08.64-1.72,0-1.25-.85-1.95-2.4-1.95-1.12,0-2.14.41-3.46,1.39-.36.28-.63.49-1.23,1.04l-.98-1.26c1.57-1.15,2.97-2.56,5.42-5.45-1.12.27-1.29.31-1.95.46l-.78.2c-.24.06-.81.2-.99.25l-.42-1.51Zm2.37,8.18c-.41,0-.67.21-.67.52,0,.46.57.77,1.44.77.17,0,.18,0,.48-.04-.27-.9-.63-1.25-1.25-1.25Z"/>
        <path class="cls-5" d="m391.04,228.73c0,1.06.01,1.96.04,2.46h-1.37c.03-.55.04-1.33.04-2.46v-.74c-.81.71-1.34,1.08-2.24,1.57-1.06.57-1.79.87-3.21,1.3-.24-.63-.27-.7-.59-1.23,2.11-.56,3.59-1.21,4.83-2.1h-1.78c-.73,0-1.64.01-2.23.04v-1.19c.59.03,1.5.04,2.23.04h2.98v-.69h-1.79c-.71,0-1.64.01-2.23.04v-1.18c.59.01,1.51.04,2.23.04h1.79v-.66h-2.48c-.73,0-1.65.03-2.24.06v-1.19c.59.03,1.51.04,2.24.04h.85c-.17-.42-.38-.81-.62-1.19h-.57c-.77,0-2.03.01-2.79.04v-1.27c.63.03,1.65.04,2.44.04-.28-.46-.49-.73-1.02-1.32l.95-.74c.79.74.98.97,1.5,1.81l-.39.25h1.04v-2.27s1.3.1,1.3.1c.17.01.27.06.27.14s-.08.17-.28.28v1.75h1.02v-1.37c0-.38,0-.69-.01-.9l1.33.1c.15.01.25.06.25.14s-.08.17-.28.28v1.75h.56c.43-.87.57-1.27.76-2.02l1.36.49c.08.03.15.1.15.15,0,.1-.04.13-.32.22q-.08.17-.42.85c-.04.08-.1.18-.17.29.85,0,1.92-.01,2.58-.04v1.27c-.74-.03-1.93-.04-2.79-.04h-.91c.18.06.22.13.22.18,0,.08-.07.13-.31.2q-.1.18-.42.81h1.09c.64,0,1.62-.01,2.23-.04v1.19c-.6-.03-1.58-.06-2.23-.06h-2.61v.66h1.91c.64,0,1.64-.03,2.24-.04v1.18c-.6-.03-1.6-.04-2.24-.04h-1.91v.69h3.15c.64,0,1.62-.01,2.23-.04v1.19c-.6-.03-1.58-.04-2.23-.04h-2.07c1.29.91,2.73,1.47,4.96,1.96-.32.52-.39.67-.63,1.28-1.4-.35-2.37-.73-3.54-1.36-.74-.42-1.16-.71-1.86-1.37v.7Zm.21-5.84c.18-.39.36-.78.49-1.19h-2.84c.27.36.48.77.64,1.19h1.71Z"/>
        <path class="cls-5" d="m403.12,219.83c-.31.35-.62.69-.95,1-.27.25-.55.48-.83.71.13.15.25.31.36.46l-.64.48h1.82l.18-.27.8.76c.1.08.11.13.11.18,0,.11-.08.17-.29.21h-.08c-.13.31-.18.43-.5,1.19-.15.38-.27.59-.46.92-.34-.34-.63-.56-.99-.78.2-.35.34-.63.5-1.04h-.69v3.31c0,.52.01,1.5.03,2.52v.14c0,.69-.11.99-.48,1.2-.39.25-.84.31-2.18.31-.04-.57-.08-.78-.27-1.43.46.04.69.06,1.02.06.48,0,.56-.07.56-.52v-3.28c-.52,1.13-1.05,2.03-1.78,3.03-.14-.38-.28-.59-.73-1.18.91-1.16,1.7-2.58,2.3-4.16h-.84c-.38,0-.83,0-1.12.01v-1.22c.31.01.81.03,1.12.03h1.44c-.42-.6-.91-1.13-1.44-1.64l.8-.71c.25.21.49.41.73.63.31-.25.6-.52.88-.8h-2.04c-.38,0-.81,0-1.11.01v-1.15c.31.01.81.03,1.11.03h3.07l.18-.22.83.77c.1.1.11.13.11.2,0,.11-.07.17-.25.2l-.27.04Zm3.99,7.42c-.22.66-.53,1.22-.95,1.75-.81,1.02-1.77,1.64-3.46,2.21-.18-.5-.29-.74-.55-1.18,1.74-.62,2.37-1.02,3.07-1.97.2-.27.36-.53.5-.81h-1.05c-.41,0-.99.01-1.39.03v-1.27c.39.01.98.03,1.39.03h1.47c.1-.43.17-.92.21-1.54l1.25.22c.15.03.22.08.22.17,0,.1-.07.15-.27.22-.04.34-.08.63-.14.92h2.16l.2-.25.8.83c.11.11.13.13.13.18,0,.1-.07.15-.24.21l-.14.06c-.18,1.78-.49,2.9-.92,3.42-.46.53-.87.63-2.69.63h-.14c-.01-.56-.07-.9-.18-1.4.49.04.69.06.88.06.8,0,1.04-.1,1.26-.55.2-.42.32-.98.45-1.96h-1.86Zm2.28-6.33c-.35.74-.78,1.43-1.32,2.03.69.45,1.47.76,2.98,1.19-.25.39-.43.79-.56,1.19-1.57-.46-2.41-.85-3.31-1.56-.9.74-1.62,1.09-3.31,1.67-.2-.53-.32-.78-.59-1.12,1.4-.46,2.17-.81,2.94-1.37-.39-.42-.69-.91-.94-1.43-.27.43-.53.8-.87,1.22-.08-.1-.15-.18-.2-.22q-.28-.32-.7-.67c1.02-1.25,1.47-2.07,2.04-3.71l1.08.43c.2.07.22.1.22.18,0,.1-.04.13-.28.21-.13.28-.24.53-.35.76h3.36c.31,0,.81,0,1.12-.01v1.23c-.29-.01-.74-.01-1.12-.01h-.22Zm-3.21,0c.25.46.55.91.94,1.29.36-.38.64-.83.88-1.29h-1.82Z"/>
      </g>
      <g>
        <path class="cls-5" d="m191.8,217.89c3-.08,4.37-1.06,4.98-3.58h2.27v21.39h-3.28v-15.9h-3.98v-1.9Z"/>
        <path class="cls-5" d="m210.84,230.88c.53,1.48,1.65,2.27,3.33,2.27,2.32,0,3.89-1.9,3.89-4.76,0-2.66-1.43-4.42-3.56-4.42-1.48,0-2.58.62-3.53,2.02l-2.86-.39,1.82-11.17h10.28l-.25,2.94h-7.56l-.87,5.1c1.18-.87,2.1-1.18,3.47-1.18,3.86,0,6.5,2.8,6.5,6.97,0,2.1-.7,3.98-1.99,5.46-1.4,1.57-3.05,2.3-5.24,2.3-3.53,0-6.1-2.02-6.61-5.12h3.16Z"/>
        <path class="cls-5" d="m240.1,225.03c0,6.89-2.77,11-7.39,11s-7.42-4.12-7.42-11,2.77-11,7.42-11,7.39,4.12,7.39,11Zm-10.11-6.69c-.9,1.57-1.37,3.95-1.37,6.69s.48,5.12,1.37,6.69c.59,1.01,1.54,1.57,2.72,1.57s2.1-.56,2.69-1.57c.9-1.57,1.4-3.95,1.4-6.69s-.53-5.21-1.4-6.69c-.62-1.04-1.54-1.57-2.69-1.57s-2.13.53-2.72,1.57Z"/>
      </g>
      <g>
        <path class="cls-5" d="m193.18,6.68h-1.01v.25h-1.33c.03-.34.04-.8.04-1.5v-.35c0-.45-.01-.98-.04-1.23.49.01.92.01,1.54.01h2.98c.62,0,1.05,0,1.54-.01-.03.25-.04.78-.04,1.23v.35c0,.66.01,1.13.04,1.46h-1.33v-.21h-1.08v.73h1.39c.41,0,1-.01,1.4-.03v1.13c-.41-.01-1-.03-1.4-.03h-1.39v.64h.97c.41,0,1-.01,1.39-.03v1.13c-.39-.01-.98-.03-1.39-.03h-.97v.8c1-.14,1.99-.34,2.97-.56v.95c.2-.25.34-.49.52-.84.7-1.33.98-2.73,1.06-5.59h-.25c-.41,0-.99.01-1.39.03v-1.34c.38.03.99.04,1.39.04h.28v-.76c0-1.54-.01-1.77-.04-2.66l1.36.11c.24.03.34.08.34.18,0,.08-.01.1-.29.27v2.86h1.71l.17-.2.88.73c.07.06.1.13.1.2,0,.13,0,.15-.31.24-.11,5.88-.32,7.37-1.18,7.98-.31.22-.67.32-1.34.36-.39.03-.67.01-.97.03-.07-.62-.08-.7-.28-1.47.43.03.62.03.8.03.67,0,.84-.07,1.04-.41.38-.67.53-2.33.56-6.22h-1.2c-.04,1.71-.15,3.07-.31,3.78-.38,1.79-1.19,3.33-2.35,4.52-.34-.46-.59-.67-1.09-.97.28-.28.48-.49.64-.69-1.27.28-3.5.64-6.12,1.04-.11.2-.2.27-.28.27-.07,0-.17-.08-.2-.17l-.42-1.23c.97-.08,1.93-.2,2.9-.34v-.98h-.88c-.41,0-.99.01-1.4.03v-1.13c.41.01,1,.03,1.4.03h.88v-.64h-1.3c-.41,0-.99.01-1.4.03v-1.13c.41.01.99.03,1.4.03h1.3v-.73Zm1.23-5.32c0-.49-.01-.9-.04-1.08l1.3.1c.15,0,.24.06.24.14s-.07.15-.25.27v.57h.35c.41,0,1.01-.01,1.4-.03v1.11c-.39-.01-.99-.03-1.4-.03h-.36c0,.46.01.88.03,1.12h-1.29c.01-.28.03-.64.03-1.12h-1.11c0,.5.01.88.04,1.12h-1.3c.03-.28.04-.64.04-1.12h-.28c-.41,0-.99.01-1.4.03v-1.11c.41.01.99.03,1.4.03h.28c-.01-.49-.03-.9-.04-1.08l1.3.1c.15,0,.24.06.24.14s-.08.17-.28.27v.57h1.11Zm-2.24,3.53v.79h1.01v-.79h-1.01Zm3.4,0h-1.08v.79h1.08v-.79Z"/>
        <path class="cls-5" d="m209.51,1.86c-.31.35-.62.69-.95,1-.27.25-.55.48-.83.71.13.15.25.31.36.46l-.64.48h1.82l.18-.27.8.76c.1.08.11.13.11.18,0,.11-.08.17-.29.21h-.08c-.13.31-.18.43-.5,1.19-.15.38-.27.59-.46.92-.34-.34-.63-.56-.99-.79.2-.35.34-.63.5-1.04h-.69v3.31c0,.52.01,1.5.03,2.52v.14c0,.69-.11,1-.48,1.21-.39.25-.84.31-2.18.31-.04-.57-.08-.79-.27-1.43.46.04.69.06,1.02.06.48,0,.56-.07.56-.52v-3.28c-.52,1.13-1.05,2.03-1.78,3.03-.14-.38-.28-.59-.73-1.18.91-1.16,1.7-2.58,2.3-4.16h-.84c-.38,0-.83,0-1.12.01v-1.22c.31.01.81.03,1.12.03h1.44c-.42-.6-.91-1.13-1.44-1.64l.8-.71c.25.21.49.41.73.63.31-.25.6-.52.88-.8h-2.04c-.38,0-.81,0-1.11.01V.85c.31.01.81.03,1.11.03h3.07l.18-.22.83.77c.1.1.11.13.11.2,0,.11-.07.17-.25.2l-.27.04Zm3.99,7.42c-.22.66-.53,1.22-.95,1.75-.81,1.02-1.77,1.64-3.46,2.21-.18-.5-.29-.74-.55-1.18,1.74-.62,2.37-1.02,3.07-1.98.2-.27.36-.53.5-.81h-1.05c-.41,0-.99.01-1.39.03v-1.27c.39.01.98.03,1.39.03h1.47c.1-.43.17-.92.21-1.54l1.25.22c.15.03.22.08.22.17,0,.1-.07.15-.27.22-.04.34-.08.63-.14.92h2.16l.2-.25.8.83c.11.11.13.13.13.18,0,.1-.07.15-.24.21l-.14.06c-.18,1.78-.49,2.9-.92,3.42-.46.53-.87.63-2.69.63h-.14c-.01-.56-.07-.9-.18-1.4.49.04.69.06.88.06.8,0,1.04-.1,1.26-.55.2-.42.32-.98.45-1.96h-1.86Zm2.28-6.33c-.35.74-.78,1.43-1.32,2.03.69.45,1.47.76,2.98,1.19-.25.39-.43.78-.56,1.19-1.57-.46-2.41-.85-3.31-1.55-.9.74-1.62,1.09-3.31,1.67-.2-.53-.32-.78-.59-1.12,1.4-.46,2.17-.81,2.94-1.37-.39-.42-.69-.91-.94-1.43-.27.43-.53.8-.87,1.22-.08-.1-.15-.18-.2-.22q-.28-.32-.7-.67c1.02-1.25,1.47-2.07,2.04-3.71l1.08.43c.2.07.22.1.22.18,0,.1-.04.13-.28.21-.13.28-.24.53-.35.76h3.36c.31,0,.81,0,1.12-.01v1.23c-.29-.01-.74-.01-1.12-.01h-.22Zm-3.21,0c.25.46.55.91.94,1.29.36-.38.64-.83.88-1.29h-1.82Z"/>
        <path class="cls-5" d="m219.99,11.63h-1.33c.03-.53.04-1.34.04-2.47V3.6q-.01-1.78-.04-2.23c.27.01.5.01.83.01h2.14c.34,0,.57,0,.83-.01-.01.45-.04,1.39-.04,2.23v4.87c0,1.18.01,1.93.04,2.47h-1.32v-.64h-1.15v1.33Zm1.15-6.49v-2.49h-1.15v2.49h1.15Zm-1.15,3.91h1.15v-2.65h-1.15v2.65Zm6.32-5.83h-1.46c-.41,0-.99,0-1.39.03v-1.34c.39.01.98.03,1.39.03h1.46c0-.88-.01-1.37-.04-1.74l1.42.1c.15,0,.25.06.25.14s-.08.15-.27.28c-.01.28-.01.59-.01,1.22h1.55c.42,0,1.01-.01,1.4-.03v1.34c-.39-.03-.98-.03-1.4-.03h-1.55v1.26h1.82c.56,0,1.47-.01,1.96-.04v1.36c-.52-.01-1.43-.03-1.96-.03h-4.67c-.6,0-1.39.01-1.96.03v-1.36c.53.03,1.33.04,1.96.04h1.5v-1.26Zm3.25,6.88c0,.25.03,1,.04,1.49v.21c0,.6-.14.95-.49,1.2-.39.27-.87.35-1.95.35h-.25c-.03-.46-.08-.73-.27-1.47.41.03.63.04.97.04.55,0,.6-.06.6-.57v-2.79h-3.24c-.59,0-1.37.01-1.95.04v-1.36c.53.01,1.33.04,1.95.04h3.22c-.01-.63-.04-1.16-.08-1.32l1.53.1c.13.01.21.07.21.14,0,.08-.07.17-.25.27-.03.21-.03.27-.03.81.56,0,1.33-.03,1.78-.04v1.36c-.46-.03-1.25-.04-1.79-.04v1.54Zm-4.22-1.33c.85.63,1.37,1.11,2.02,1.89l-1.05.94c-.63-.83-1.09-1.32-1.82-1.92l.85-.91Z"/>
        <path class="cls-5" d="m234.1,9.95c0,1.48.01,2.58.06,3.28h-1.34c.03-.8.04-1.83.04-3.28V1.91c0-.45-.01-.99-.04-1.25.42.03.83.03,1.42.03h2.37c.64,0,1.09,0,1.55-.03-.03.25-.04.8-.04,1.25v2.27c0,.66.01,1.13.04,1.46h-1.27v-.43h-2.77v4.75Zm2.77-8.18h-2.77v.69h2.77v-.69Zm0,1.67h-2.77v.69h2.77v-.69Zm.5,8.71h-1.3c.03-.34.03-.8.03-1.5v-3.15c0-.45-.01-.99-.03-1.25.31.01.6.03,1.01.03h3.57c.41,0,.7-.01,1.01-.03-.01.25-.04.8-.04,1.25v2.96c0,.66.01,1.13.04,1.46h-1.3v-.57h-2.98v.81Zm2.98-4.69h-2.98v.77h2.98v-.77Zm0,1.95h-2.98v.76h2.98v-.76Zm.45-3.77h-1.26c.03-.32.04-.8.04-1.46V1.91c0-.45-.01-.99-.04-1.25.45.03.9.03,1.54.03h2.38c.59,0,.98,0,1.4-.03-.01.25-.04.8-.04,1.25v7.09c0,.53.01,1.34.03,2.47,0,.03.01.06.01.15,0,.7-.13,1.02-.48,1.25-.39.24-.83.31-2.1.31h-.06c-.03-.49-.08-.84-.27-1.49.46.04.69.06,1.06.06.49,0,.56-.07.56-.55v-6h-2.79v.43Zm2.79-3.87h-2.79v.69h2.79v-.69Zm0,1.67h-2.79v.69h2.79v-.69Z"/>
        <path class="cls-5" d="m257.19,0h1.3l-6.5,13.42h-1.32l6.51-13.42Z"/>
        <path class="cls-5" d="m268.15,8.31c-.11,1.12-.34,1.78-.77,2.47-.63,1.02-1.4,1.72-2.75,2.51-.42-.78-.46-.85-.85-1.23,1.3-.71,2.02-1.39,2.48-2.33.43-.88.57-1.93.57-4.23v-2.23c0-.83-.01-1.78-.04-2.23.48.01.91.03,1.6.03h4.29c.69,0,1.16-.01,1.64-.03q-.03.45-.04,2.23v5.81c0,.52,0,1.01.01,2.44v.17c0,.64-.11.97-.46,1.19-.38.24-.85.31-2.03.31h-.42c-.04-.64-.06-.8-.24-1.57.56.04.88.04,1.26.04.45,0,.52-.07.52-.57v-2.77h-4.76Zm4.76-2.98h-4.66v.13c0,.52,0,1.05-.01,1.57h4.68v-1.7Zm0-2.98h-4.66v1.69h4.66v-1.69Z"/>
      </g>
      <g>
        <path class="cls-5" d="m340.57,7c.1.04.14.08.14.15,0,.08-.04.14-.25.24-.9,2.02-1.32,2.63-2.63,3.92-.28-.57-.57-.91-1.04-1.25,1.39-1.32,1.86-2.02,2.44-3.56l1.34.49Zm2.8,2.09c0,1.25.01,2.25.04,2.87h-1.55c.03-.63.04-1.58.04-2.87v-3.64h-3.04c-.46,0-1.26.01-1.68.04v-1.44c.42.03,1.13.04,1.68.04h3.04c-.01-1.44-.03-2.3-.06-2.58l1.6.1c.14.01.22.07.22.15,0,.07-.07.14-.27.27,0,.21-.01.35-.03,2.06h3.01c.53,0,1.26-.01,1.68-.04v1.44c-.43-.03-1.22-.04-1.68-.04h-3.01v3.64Zm2.05-2.58c1.3.94,2.24,1.92,3.08,3.25l-1.26,1.04c-.73-1.3-1.54-2.28-2.79-3.36l.97-.92Zm3.4-4.38c0,.8-.63,1.43-1.43,1.43s-1.43-.63-1.43-1.43.64-1.43,1.43-1.43,1.43.64,1.43,1.43Zm-2.17,0c0,.42.32.76.74.76s.76-.34.76-.76-.34-.74-.76-.74-.74.32-.74.74Z"/>
        <path class="cls-5" d="m357.9,5.03c.15.04.21.08.21.18s-.06.15-.28.27c-.01.81-.01,1.47-.01,2v2.82c0,1.11,0,1.76.01,2.45h-1.64c.07-.57.1-1.34.1-2.45v-2.4c0-.42,0-.87-.01-1.69-1.6,1.53-2.4,2.17-4.26,3.39q-.45-.73-.94-1.22c3.8-2.38,6.04-4.55,7.68-7.48l1.34.62c.1.04.15.11.15.18,0,.1-.07.15-.27.22-.76,1.12-1.72,2.35-2.41,3.04l.32.07Z"/>
        <path class="cls-5" d="m366.64,2.49c1.46.76,1.99,1.15,2.96,2.21l-1.11,1.22c-1.01-1.12-1.74-1.71-2.77-2.27l.92-1.16Zm-.53,7.9c2.12-.9,3.32-1.58,4.92-2.79,1.86-1.43,2.96-2.54,4.4-4.5.28.49.52.8.97,1.33-1.85,2.23-2.89,3.25-4.53,4.48-1.37,1.04-2.41,1.67-4.4,2.68-.06.2-.11.29-.21.29-.07,0-.18-.07-.24-.17l-.91-1.33Z"/>
        <path class="cls-5" d="m384.35,5.03c1.88.69,3,1.25,4.38,2.14l-.88,1.33c-1.08-.81-2.16-1.42-3.5-1.96v2.98c0,1.32.01,2.14.03,2.86h-1.67c.08-.69.13-1.6.13-2.86V3.92c0-1.6-.01-2.48-.06-2.91l1.64.1c.14,0,.22.06.22.14s-.08.17-.27.27c-.03.92-.03,1.09-.03,2.41v1.11Z"/>
      </g>
      <rect class="cls-5" x="51.17" y="74.78" width="378.58" height="1.42"/>
      <rect class="cls-5" x="51.17" y="134.85" width="378.58" height="1.42"/>
      <rect class="cls-5" x="51.17" y="194.92" width="378.58" height="1.42"/>
      <rect class="cls-5" x="51.17" y="250.52" width="378.58" height="1.42"/>
      <rect class="cls-5" x="51.17" y="18.66" width="378.58" height="1.42"/>
      <rect class="cls-5" x="-64.38" y="134.92" width="232.51" height="1.42" transform="translate(-83.75 187.51) rotate(-90)"/>
      <rect class="cls-5" x="312.77" y="134.92" width="232.51" height="1.42" transform="translate(293.4 564.65) rotate(-90)"/>
      <rect class="cls-5" x="56.15" y="134.92" width="232.51" height="1.42" transform="translate(36.78 308.03) rotate(-90)"/>
      <rect class="cls-5" x="176.68" y="134.92" width="232.51" height="1.42" transform="translate(157.31 428.56) rotate(-90)"/>
    </g>
  </g>
</svg>