<?xml version="1.0" encoding="UTF-8"?><svg id="_レイヤー_2" xmlns="http://www.w3.org/2000/svg" xmlns:xlink="http://www.w3.org/1999/xlink" viewBox="0 0 61.85 39.94"><defs><style>.cls-1{fill:#231815;}.cls-2{fill:url(#_新規グラデーションスウォッチ_1-17);}.cls-3{fill:url(#_新規グラデーションスウォッチ_1-19);}.cls-4{fill:url(#_新規グラデーションスウォッチ_1-14);}.cls-5{fill:url(#_新規グラデーションスウォッチ_1-11);}.cls-6{fill:url(#_新規グラデーションスウォッチ_1-16);}.cls-7{fill:url(#_新規グラデーションスウォッチ_1-13);}.cls-8{fill:url(#_新規グラデーションスウォッチ_1-10);}.cls-9{fill:url(#_新規グラデーションスウォッチ_1-12);}.cls-10{fill:url(#_新規グラデーションスウォッチ_1-18);}.cls-11{fill:url(#_新規グラデーションスウォッチ_1-15);}.cls-12{fill:url(#_新規グラデーションスウォッチ_1);}.cls-13{fill:url(#_新規グラデーションスウォッチ_1-9);}.cls-14{fill:url(#_新規グラデーションスウォッチ_1-6);}.cls-15{fill:url(#_新規グラデーションスウォッチ_1-5);}.cls-16{fill:url(#_新規グラデーションスウォッチ_1-7);}.cls-17{fill:url(#_新規グラデーションスウォッチ_1-8);}.cls-18{fill:url(#_新規グラデーションスウォッチ_1-2);}.cls-19{fill:url(#_新規グラデーションスウォッチ_1-4);}.cls-20{fill:url(#_新規グラデーションスウォッチ_1-3);}</style><linearGradient id="_新規グラデーションスウォッチ_1" x1="0" y1="12.27" x2="13.94" y2="12.27" gradientUnits="userSpaceOnUse"><stop offset="0" stop-color="#0d76a3"/><stop offset="0" stop-color="#0d74a2"/><stop offset=".18" stop-color="#10548a"/><stop offset=".37" stop-color="#133b78"/><stop offset=".56" stop-color="#152a6b"/><stop offset=".76" stop-color="#161f63"/><stop offset="1" stop-color="#171c61"/></linearGradient><linearGradient id="_新規グラデーションスウォッチ_1-2" x1="14.48" y1="6.08" x2="30.65" y2="6.08" xlink:href="#_新規グラデーションスウォッチ_1"/><linearGradient id="_新規グラデーションスウォッチ_1-3" x1="31.19" y1="6.08" x2="47.37" y2="6.08" xlink:href="#_新規グラデーションスウォッチ_1"/><linearGradient id="_新規グラデーションスウォッチ_1-4" x1="14.48" y1="13.2" x2="30.65" y2="13.2" xlink:href="#_新規グラデーションスウォッチ_1"/><linearGradient id="_新規グラデーションスウォッチ_1-5" x1="31.19" y1="13.17" x2="47.37" y2="13.17" xlink:href="#_新規グラデーションスウォッチ_1"/><linearGradient id="_新規グラデーションスウォッチ_1-6" x1="47.36" y1="21.71" x2="47.37" y2="21.71" gradientTransform="translate(60.14 -28.8) rotate(79.56)" xlink:href="#_新規グラデーションスウォッチ_1"/><linearGradient id="_新規グラデーションスウォッチ_1-7" x1="47.36" y1="21.71" x2="47.37" y2="21.71" gradientTransform="translate(60.14 -28.8) rotate(79.56)" xlink:href="#_新規グラデーションスウォッチ_1"/><linearGradient id="_新規グラデーションスウォッチ_1-8" x1="31.19" y1="13.88" x2="31.2" y2="13.88" xlink:href="#_新規グラデーションスウォッチ_1"/><linearGradient id="_新規グラデーションスウォッチ_1-9" x1="31.19" y1="13.88" x2="31.2" y2="13.88" xlink:href="#_新規グラデーションスウォッチ_1"/><linearGradient id="_新規グラデーションスウォッチ_1-10" x1="0" y1="21.67" x2="13.94" y2="21.67" xlink:href="#_新規グラデーションスウォッチ_1"/><linearGradient id="_新規グラデーションスウォッチ_1-11" x1="47.9" x2="61.85" xlink:href="#_新規グラデーションスウォッチ_1"/><linearGradient id="_新規グラデーションスウォッチ_1-12" x1="47.9" y1="21.67" x2="61.85" y2="21.67" xlink:href="#_新規グラデーションスウォッチ_1"/><linearGradient id="_新規グラデーションスウォッチ_1-13" x1="16.79" y1="36.84" x2="45.06" y2="36.84" xlink:href="#_新規グラデーションスウォッチ_1"/><linearGradient id="_新規グラデーションスウォッチ_1-14" x1="16.79" y1="36.84" x2="45.06" y2="36.84" xlink:href="#_新規グラデーションスウォッチ_1"/><linearGradient id="_新規グラデーションスウォッチ_1-15" x1="16.79" y1="36.84" x2="45.06" y2="36.84" xlink:href="#_新規グラデーションスウォッチ_1"/><linearGradient id="_新規グラデーションスウォッチ_1-16" x1="16.79" y1="36.84" x2="45.06" y2="36.84" xlink:href="#_新規グラデーションスウォッチ_1"/><linearGradient id="_新規グラデーションスウォッチ_1-17" x1="16.79" y1="36.84" x2="45.06" y2="36.84" xlink:href="#_新規グラデーションスウォッチ_1"/><linearGradient id="_新規グラデーションスウォッチ_1-18" x1="16.79" y1="36.84" x2="45.06" y2="36.84" xlink:href="#_新規グラデーションスウォッチ_1"/><linearGradient id="_新規グラデーションスウォッチ_1-19" x1="16.79" y1="36.84" x2="45.06" y2="36.84" xlink:href="#_新規グラデーションスウォッチ_1"/></defs><g id="_レイヤー_1-2"><g><g><polygon class="cls-12" points="13.94 3.43 0 16.22 0 21.11 13.94 12.29 13.94 3.43"/><polygon class="cls-18" points="30.65 9.19 14.48 12.15 14.48 2.96 30.65 0 30.65 9.19"/><polygon class="cls-20" points="31.19 9.19 47.37 12.15 47.37 2.96 31.19 0 31.19 9.19"/><polygon class="cls-19" points="30.65 9.61 14.48 12.57 14.48 16.79 30.65 13.88 30.65 9.61"/><g><polygon class="cls-15" points="47.37 16.73 47.37 12.57 31.19 9.61 31.19 13.87 31.2 13.88 47.37 16.73"/><rect class="cls-14" x="47.32" y="21.71" width=".09" height="0" transform="translate(17.43 64.36) rotate(-79.56)"/><rect class="cls-16" x="47.32" y="21.71" width=".09" height="0" transform="translate(17.43 64.36) rotate(-79.56)"/><rect class="cls-17" x="31.19" y="13.87" width=".01" height="0"/><rect class="cls-13" x="31.19" y="13.87" width=".01" height="0"/></g><polygon class="cls-8" points="0 30.64 13.94 16.98 13.94 12.71 0 21.53 0 30.64"/><polygon class="cls-5" points="47.9 3.43 61.85 16.22 61.85 21.11 47.9 12.29 47.9 3.43"/><polygon class="cls-9" points="61.85 30.64 47.9 16.98 47.9 12.71 61.85 21.53 61.85 30.64"/></g><g><g><path class="cls-1" d="M20.25,38.15v.38c0,.19-.04,.37-.13,.54-.09,.17-.21,.32-.36,.45s-.33,.24-.54,.31c-.21,.08-.43,.12-.67,.12-.2,0-.41-.02-.62-.07-.21-.05-.4-.13-.57-.24-.17-.11-.31-.26-.41-.44-.11-.18-.16-.41-.16-.69v-3.36c0-.2,.04-.39,.13-.56,.08-.17,.2-.32,.36-.45,.15-.13,.34-.22,.55-.3,.21-.07,.45-.11,.71-.11,.5,0,.91,.13,1.23,.4,.15,.13,.27,.29,.36,.47,.09,.18,.13,.38,.13,.59v.34h-1.07v-.29c0-.17-.06-.32-.18-.45-.12-.13-.28-.19-.48-.19-.27,0-.44,.07-.53,.2-.09,.13-.13,.3-.13,.51v3.12c0,.18,.05,.33,.14,.45s.26,.18,.51,.18c.07,0,.15,0,.23-.03,.08-.02,.16-.05,.23-.1,.06-.05,.12-.11,.16-.19,.04-.08,.06-.18,.06-.3v-.3h1.07Z"/><path class="cls-1" d="M21.2,35.23c0-.25,.05-.46,.16-.65,.11-.19,.24-.35,.42-.47,.17-.12,.36-.21,.57-.27,.21-.06,.43-.09,.65-.09s.43,.03,.65,.09c.21,.06,.41,.15,.58,.27,.17,.13,.3,.28,.41,.47,.11,.19,.16,.41,.16,.65v3.22c0,.26-.05,.48-.16,.66-.1,.18-.24,.33-.41,.45-.18,.13-.37,.22-.58,.28-.21,.06-.43,.09-.65,.09s-.43-.03-.65-.09c-.21-.06-.4-.16-.57-.28-.18-.12-.31-.27-.42-.45-.1-.18-.16-.4-.16-.66v-3.22Zm1.07,3.22c0,.21,.07,.37,.22,.47,.14,.1,.31,.15,.51,.15s.37-.05,.51-.15c.14-.1,.22-.26,.22-.47v-3.22c0-.21-.07-.37-.22-.47-.14-.1-.31-.15-.51-.15s-.37,.05-.51,.15c-.14,.1-.22,.26-.22,.47v3.22Z"/><path class="cls-1" d="M29.19,38.15v.38c0,.19-.04,.37-.13,.54-.09,.17-.21,.32-.36,.45s-.33,.24-.54,.31c-.21,.08-.43,.12-.67,.12-.2,0-.41-.02-.62-.07-.21-.05-.4-.13-.57-.24-.17-.11-.31-.26-.41-.44-.11-.18-.16-.41-.16-.69v-3.36c0-.2,.04-.39,.13-.56,.08-.17,.2-.32,.36-.45,.15-.13,.34-.22,.55-.3,.21-.07,.45-.11,.71-.11,.5,0,.91,.13,1.23,.4,.15,.13,.27,.29,.36,.47,.09,.18,.13,.38,.13,.59v.34h-1.07v-.29c0-.17-.06-.32-.18-.45-.12-.13-.28-.19-.48-.19-.27,0-.44,.07-.53,.2-.09,.13-.13,.3-.13,.51v3.12c0,.18,.05,.33,.14,.45s.26,.18,.51,.18c.07,0,.15,0,.23-.03,.08-.02,.16-.05,.23-.1,.06-.05,.12-.11,.16-.19,.04-.08,.06-.18,.06-.3v-.3h1.07Z"/><path class="cls-1" d="M30.14,39.89v-6.1h1.07v2.78h.02l1.56-2.78h1.07l-1.46,2.44,1.73,3.66h-1.13l-1.22-2.71-.58,.88v1.82h-1.07Z"/><path class="cls-1" d="M35.08,39.89v-6.1h1.61c.29,0,.55,.03,.78,.09,.22,.06,.43,.17,.61,.33,.18,.16,.31,.35,.38,.56s.11,.5,.11,.87c0,.27-.02,.51-.06,.69-.04,.19-.12,.37-.25,.53-.15,.2-.34,.36-.59,.47s-.57,.17-.97,.17h-.55v2.38h-1.07Zm1.07-5.28v2.07h.51c.22,0,.38-.03,.5-.08,.12-.05,.21-.12,.26-.21,.06-.09,.09-.19,.1-.32,.01-.13,.02-.27,.02-.42,0-.14,0-.28-.01-.41,0-.13-.04-.24-.09-.34-.06-.1-.14-.17-.25-.22-.11-.05-.27-.08-.48-.08h-.56Z"/><path class="cls-1" d="M39.5,39.89v-6.1h1.07v6.1h-1.07Z"/><path class="cls-1" d="M42.75,39.89v-5.28h-1.24v-.82h3.55v.82h-1.24v5.28h-1.07Z"/></g><g><path class="cls-7" d="M20.25,38.15v.38c0,.19-.04,.37-.13,.54-.09,.17-.21,.32-.36,.45s-.33,.24-.54,.31c-.21,.08-.43,.12-.67,.12-.2,0-.41-.02-.62-.07-.21-.05-.4-.13-.57-.24-.17-.11-.31-.26-.41-.44-.11-.18-.16-.41-.16-.69v-3.36c0-.2,.04-.39,.13-.56,.08-.17,.2-.32,.36-.45,.15-.13,.34-.22,.55-.3,.21-.07,.45-.11,.71-.11,.5,0,.91,.13,1.23,.4,.15,.13,.27,.29,.36,.47,.09,.18,.13,.38,.13,.59v.34h-1.07v-.29c0-.17-.06-.32-.18-.45-.12-.13-.28-.19-.48-.19-.27,0-.44,.07-.53,.2-.09,.13-.13,.3-.13,.51v3.12c0,.18,.05,.33,.14,.45s.26,.18,.51,.18c.07,0,.15,0,.23-.03,.08-.02,.16-.05,.23-.1,.06-.05,.12-.11,.16-.19,.04-.08,.06-.18,.06-.3v-.3h1.07Z"/><path class="cls-4" d="M21.2,35.23c0-.25,.05-.46,.16-.65,.11-.19,.24-.35,.42-.47,.17-.12,.36-.21,.57-.27,.21-.06,.43-.09,.65-.09s.43,.03,.65,.09c.21,.06,.41,.15,.58,.27,.17,.13,.3,.28,.41,.47,.11,.19,.16,.41,.16,.65v3.22c0,.26-.05,.48-.16,.66-.1,.18-.24,.33-.41,.45-.18,.13-.37,.22-.58,.28-.21,.06-.43,.09-.65,.09s-.43-.03-.65-.09c-.21-.06-.4-.16-.57-.28-.18-.12-.31-.27-.42-.45-.1-.18-.16-.4-.16-.66v-3.22Zm1.07,3.22c0,.21,.07,.37,.22,.47,.14,.1,.31,.15,.51,.15s.37-.05,.51-.15c.14-.1,.22-.26,.22-.47v-3.22c0-.21-.07-.37-.22-.47-.14-.1-.31-.15-.51-.15s-.37,.05-.51,.15c-.14,.1-.22,.26-.22,.47v3.22Z"/><path class="cls-11" d="M29.19,38.15v.38c0,.19-.04,.37-.13,.54-.09,.17-.21,.32-.36,.45s-.33,.24-.54,.31c-.21,.08-.43,.12-.67,.12-.2,0-.41-.02-.62-.07-.21-.05-.4-.13-.57-.24-.17-.11-.31-.26-.41-.44-.11-.18-.16-.41-.16-.69v-3.36c0-.2,.04-.39,.13-.56,.08-.17,.2-.32,.36-.45,.15-.13,.34-.22,.55-.3,.21-.07,.45-.11,.71-.11,.5,0,.91,.13,1.23,.4,.15,.13,.27,.29,.36,.47,.09,.18,.13,.38,.13,.59v.34h-1.07v-.29c0-.17-.06-.32-.18-.45-.12-.13-.28-.19-.48-.19-.27,0-.44,.07-.53,.2-.09,.13-.13,.3-.13,.51v3.12c0,.18,.05,.33,.14,.45s.26,.18,.51,.18c.07,0,.15,0,.23-.03,.08-.02,.16-.05,.23-.1,.06-.05,.12-.11,.16-.19,.04-.08,.06-.18,.06-.3v-.3h1.07Z"/><path class="cls-6" d="M30.14,39.89v-6.1h1.07v2.78h.02l1.56-2.78h1.07l-1.46,2.44,1.73,3.66h-1.13l-1.22-2.71-.58,.88v1.82h-1.07Z"/><path class="cls-2" d="M35.08,39.89v-6.1h1.61c.29,0,.55,.03,.78,.09,.22,.06,.43,.17,.61,.33,.18,.16,.31,.35,.38,.56s.11,.5,.11,.87c0,.27-.02,.51-.06,.69-.04,.19-.12,.37-.25,.53-.15,.2-.34,.36-.59,.47s-.57,.17-.97,.17h-.55v2.38h-1.07Zm1.07-5.28v2.07h.51c.22,0,.38-.03,.5-.08,.12-.05,.21-.12,.26-.21,.06-.09,.09-.19,.1-.32,.01-.13,.02-.27,.02-.42,0-.14,0-.28-.01-.41,0-.13-.04-.24-.09-.34-.06-.1-.14-.17-.25-.22-.11-.05-.27-.08-.48-.08h-.56Z"/><path class="cls-10" d="M39.5,39.89v-6.1h1.07v6.1h-1.07Z"/><path class="cls-3" d="M42.75,39.89v-5.28h-1.24v-.82h3.55v.82h-1.24v5.28h-1.07Z"/></g></g></g></g></svg>