<?xml version="1.0" encoding="UTF-8"?><svg id="_レイヤー_2" xmlns="http://www.w3.org/2000/svg" viewBox="0 0 119.04 76.88"><defs><style>.cls-1{fill:#fff;}.cls-2{fill:#231815;}</style></defs><g id="_レイヤー_1-2"><g><g><polygon class="cls-1" points="26.84 6.61 0 31.21 0 40.64 26.84 23.65 26.84 6.61"/><polygon class="cls-1" points="59 17.69 27.87 23.39 27.87 5.7 59 0 59 17.69"/><polygon class="cls-1" points="60.04 17.69 91.17 23.39 91.17 5.7 60.04 0 60.04 17.69"/><polygon class="cls-1" points="59 18.49 27.87 24.19 27.87 32.31 59 26.72 59 18.49"/><g><polygon class="cls-1" points="91.17 32.2 91.17 24.19 60.04 18.49 60.04 26.7 60.06 26.71 91.17 32.2"/><rect class="cls-1" x="91.08" y="41.79" width=".18" height="0" transform="translate(33.54 123.88) rotate(-79.56)"/><rect class="cls-1" x="91.08" y="41.79" width=".18" height="0" transform="translate(33.54 123.88) rotate(-79.56)"/><rect class="cls-1" x="60.04" y="26.7" width=".02" height="0"/><rect class="cls-1" x="60.04" y="26.7" width=".02" height="0"/></g><polygon class="cls-1" points="0 58.97 26.84 32.68 26.84 24.46 0 41.43 0 58.97"/><polygon class="cls-1" points="92.2 6.61 119.04 31.21 119.04 40.64 92.2 23.65 92.2 6.61"/><polygon class="cls-1" points="119.04 58.97 92.2 32.68 92.2 24.46 119.04 41.43 119.04 58.97"/></g><g><g><path class="cls-2" d="M38.99,73.43v.73c0,.36-.08,.71-.25,1.03-.17,.32-.4,.61-.7,.87s-.64,.45-1.04,.6c-.4,.15-.83,.22-1.28,.22-.39,0-.79-.04-1.19-.13-.4-.09-.77-.24-1.09-.46-.32-.22-.59-.5-.8-.85-.21-.35-.31-.79-.31-1.33v-6.46c0-.38,.08-.74,.24-1.07,.16-.33,.39-.62,.69-.86,.3-.24,.65-.43,1.06-.57,.41-.14,.87-.21,1.36-.21,.97,0,1.76,.26,2.36,.77,.3,.25,.53,.55,.7,.9,.17,.35,.25,.72,.25,1.13v.66h-2.06v-.56c0-.33-.11-.62-.34-.86-.23-.24-.54-.36-.93-.36-.51,0-.85,.13-1.02,.39-.17,.26-.25,.59-.25,.98v6c0,.34,.09,.63,.27,.86s.51,.35,.98,.35c.13,0,.28-.02,.43-.06,.15-.04,.3-.1,.43-.19,.12-.09,.22-.21,.3-.36,.08-.15,.12-.35,.12-.58v-.58h2.06Z"/><path class="cls-2" d="M40.8,67.81c0-.47,.1-.89,.3-1.25,.2-.36,.47-.67,.81-.91,.32-.23,.69-.41,1.1-.53,.41-.12,.82-.18,1.24-.18s.83,.06,1.24,.18c.41,.12,.78,.3,1.12,.53,.32,.24,.59,.54,.79,.91,.2,.36,.3,.78,.3,1.25v6.2c0,.49-.1,.92-.3,1.27-.2,.35-.46,.64-.79,.87-.34,.24-.71,.42-1.12,.54-.41,.12-.83,.18-1.24,.18s-.83-.06-1.24-.18c-.41-.12-.78-.3-1.1-.54-.34-.23-.61-.52-.81-.87-.2-.35-.3-.77-.3-1.27v-6.2Zm2.06,6.2c0,.41,.14,.71,.41,.9,.28,.19,.6,.29,.98,.29s.7-.1,.98-.29c.28-.19,.41-.49,.41-.9v-6.2c0-.41-.14-.71-.41-.9-.28-.19-.6-.29-.98-.29s-.7,.1-.98,.29c-.28,.19-.41,.49-.41,.9v6.2Z"/><path class="cls-2" d="M56.19,73.43v.73c0,.36-.08,.71-.25,1.03-.17,.32-.4,.61-.7,.87-.3,.25-.64,.45-1.04,.6-.4,.15-.83,.22-1.28,.22-.39,0-.79-.04-1.19-.13-.4-.09-.77-.24-1.09-.46-.32-.22-.59-.5-.8-.85-.21-.35-.31-.79-.31-1.33v-6.46c0-.38,.08-.74,.24-1.07,.16-.33,.39-.62,.69-.86,.3-.24,.65-.43,1.06-.57,.41-.14,.87-.21,1.36-.21,.97,0,1.76,.26,2.36,.77,.3,.25,.53,.55,.7,.9,.17,.35,.25,.72,.25,1.13v.66h-2.06v-.56c0-.33-.11-.62-.34-.86-.23-.24-.54-.36-.93-.36-.51,0-.85,.13-1.02,.39-.17,.26-.25,.59-.25,.98v6c0,.34,.09,.63,.27,.86s.51,.35,.98,.35c.13,0,.28-.02,.43-.06,.15-.04,.3-.1,.43-.19,.12-.09,.22-.21,.3-.36,.08-.15,.12-.35,.12-.58v-.58h2.06Z"/><path class="cls-2" d="M58.01,76.78v-11.74h2.06v5.36h.04l3.01-5.36h2.06l-2.81,4.7,3.33,7.04h-2.18l-2.34-5.21-1.11,1.7v3.51h-2.06Z"/><path class="cls-2" d="M67.52,76.78v-11.74h3.09c.57,0,1.06,.06,1.49,.18,.43,.12,.82,.33,1.17,.64,.35,.31,.59,.67,.73,1.08s.2,.97,.2,1.67c0,.53-.04,.97-.11,1.34-.07,.36-.23,.7-.47,1.02-.28,.39-.66,.68-1.13,.9s-1.09,.32-1.86,.32h-1.05v4.58h-2.06Zm2.06-10.16v3.99h.99c.42,0,.74-.05,.97-.15,.23-.1,.4-.24,.51-.41,.11-.16,.17-.37,.19-.61,.02-.24,.03-.51,.03-.81,0-.27,0-.54-.02-.78-.01-.25-.07-.46-.18-.65-.11-.19-.27-.33-.48-.43-.22-.1-.53-.15-.93-.15h-1.07Z"/><path class="cls-2" d="M76.02,76.78v-11.74h2.06v11.74h-2.06Z"/><path class="cls-2" d="M82.28,76.78v-10.16h-2.38v-1.58h6.83v1.58h-2.38v10.16h-2.06Z"/></g><g><path class="cls-1" d="M38.99,73.43v.73c0,.36-.08,.71-.25,1.03-.17,.32-.4,.61-.7,.87s-.64,.45-1.04,.6c-.4,.15-.83,.22-1.28,.22-.39,0-.79-.04-1.19-.13-.4-.09-.77-.24-1.09-.46-.32-.22-.59-.5-.8-.85-.21-.35-.31-.79-.31-1.33v-6.46c0-.38,.08-.74,.24-1.07,.16-.33,.39-.62,.69-.86,.3-.24,.65-.43,1.06-.57,.41-.14,.87-.21,1.36-.21,.97,0,1.76,.26,2.36,.77,.3,.25,.53,.55,.7,.9,.17,.35,.25,.72,.25,1.13v.66h-2.06v-.56c0-.33-.11-.62-.34-.86-.23-.24-.54-.36-.93-.36-.51,0-.85,.13-1.02,.39-.17,.26-.25,.59-.25,.98v6c0,.34,.09,.63,.27,.86s.51,.35,.98,.35c.13,0,.28-.02,.43-.06,.15-.04,.3-.1,.43-.19,.12-.09,.22-.21,.3-.36,.08-.15,.12-.35,.12-.58v-.58h2.06Z"/><path class="cls-1" d="M40.8,67.81c0-.47,.1-.89,.3-1.25,.2-.36,.47-.67,.81-.91,.32-.23,.69-.41,1.1-.53,.41-.12,.82-.18,1.24-.18s.83,.06,1.24,.18c.41,.12,.78,.3,1.12,.53,.32,.24,.59,.54,.79,.91,.2,.36,.3,.78,.3,1.25v6.2c0,.49-.1,.92-.3,1.27-.2,.35-.46,.64-.79,.87-.34,.24-.71,.42-1.12,.54-.41,.12-.83,.18-1.24,.18s-.83-.06-1.24-.18c-.41-.12-.78-.3-1.1-.54-.34-.23-.61-.52-.81-.87-.2-.35-.3-.77-.3-1.27v-6.2Zm2.06,6.2c0,.41,.14,.71,.41,.9,.28,.19,.6,.29,.98,.29s.7-.1,.98-.29c.28-.19,.41-.49,.41-.9v-6.2c0-.41-.14-.71-.41-.9-.28-.19-.6-.29-.98-.29s-.7,.1-.98,.29c-.28,.19-.41,.49-.41,.9v6.2Z"/><path class="cls-1" d="M56.19,73.43v.73c0,.36-.08,.71-.25,1.03-.17,.32-.4,.61-.7,.87-.3,.25-.64,.45-1.04,.6-.4,.15-.83,.22-1.28,.22-.39,0-.79-.04-1.19-.13-.4-.09-.77-.24-1.09-.46-.32-.22-.59-.5-.8-.85-.21-.35-.31-.79-.31-1.33v-6.46c0-.38,.08-.74,.24-1.07,.16-.33,.39-.62,.69-.86,.3-.24,.65-.43,1.06-.57,.41-.14,.87-.21,1.36-.21,.97,0,1.76,.26,2.36,.77,.3,.25,.53,.55,.7,.9,.17,.35,.25,.72,.25,1.13v.66h-2.06v-.56c0-.33-.11-.62-.34-.86-.23-.24-.54-.36-.93-.36-.51,0-.85,.13-1.02,.39-.17,.26-.25,.59-.25,.98v6c0,.34,.09,.63,.27,.86s.51,.35,.98,.35c.13,0,.28-.02,.43-.06,.15-.04,.3-.1,.43-.19,.12-.09,.22-.21,.3-.36,.08-.15,.12-.35,.12-.58v-.58h2.06Z"/><path class="cls-1" d="M58.01,76.78v-11.74h2.06v5.36h.04l3.01-5.36h2.06l-2.81,4.7,3.33,7.04h-2.18l-2.34-5.21-1.11,1.7v3.51h-2.06Z"/><path class="cls-1" d="M67.52,76.78v-11.74h3.09c.57,0,1.06,.06,1.49,.18,.43,.12,.82,.33,1.17,.64,.35,.31,.59,.67,.73,1.08s.2,.97,.2,1.67c0,.53-.04,.97-.11,1.34-.07,.36-.23,.7-.47,1.02-.28,.39-.66,.68-1.13,.9s-1.09,.32-1.86,.32h-1.05v4.58h-2.06Zm2.06-10.16v3.99h.99c.42,0,.74-.05,.97-.15,.23-.1,.4-.24,.51-.41,.11-.16,.17-.37,.19-.61,.02-.24,.03-.51,.03-.81,0-.27,0-.54-.02-.78-.01-.25-.07-.46-.18-.65-.11-.19-.27-.33-.48-.43-.22-.1-.53-.15-.93-.15h-1.07Z"/><path class="cls-1" d="M76.02,76.78v-11.74h2.06v11.74h-2.06Z"/><path class="cls-1" d="M82.28,76.78v-10.16h-2.38v-1.58h6.83v1.58h-2.38v10.16h-2.06Z"/></g></g></g></g></svg>