<?xml version="1.0" encoding="UTF-8"?>
<svg id="_レイヤー_2" data-name="レイヤー 2" xmlns="http://www.w3.org/2000/svg" xmlns:xlink="http://www.w3.org/1999/xlink" viewBox="0 0 445.45 29.57">
  <defs>
    <style>
      .cls-1 {
        fill: #333;
      }

      .cls-1, .cls-2, .cls-3, .cls-4, .cls-5, .cls-6, .cls-7, .cls-8 {
        stroke-width: 0px;
      }

      .cls-2 {
        fill: #666;
      }

      .cls-3 {
        fill: url(#_新規グラデーションスウォッチ_1);
      }

      .cls-4 {
        fill: url(#_新規グラデーションスウォッチ_1-2);
      }

      .cls-5 {
        fill: url(#_新規グラデーションスウォッチ_1-4);
      }

      .cls-6 {
        fill: url(#_新規グラデーションスウォッチ_1-3);
      }

      .cls-7 {
        fill: #fff;
      }

      .cls-8 {
        fill: #adadad;
      }
    </style>
    <linearGradient id="_新規グラデーションスウォッチ_1" data-name="新規グラデーションスウォッチ 1" x1="433.02" y1="16.04" x2="445.45" y2="16.04" gradientUnits="userSpaceOnUse">
      <stop offset="0" stop-color="#0d7695"/>
      <stop offset="0" stop-color="#0d7494"/>
      <stop offset=".18" stop-color="#105481"/>
      <stop offset=".37" stop-color="#133b73"/>
      <stop offset=".56" stop-color="#152a69"/>
      <stop offset=".76" stop-color="#161f62"/>
      <stop offset="1" stop-color="#171c61"/>
    </linearGradient>
    <linearGradient id="_新規グラデーションスウォッチ_1-2" data-name="新規グラデーションスウォッチ 1" x1="381.6" y1="12.57" x2="423.75" y2="12.57" xlink:href="#_新規グラデーションスウォッチ_1"/>
    <linearGradient id="_新規グラデーションスウォッチ_1-3" data-name="新規グラデーションスウォッチ 1" x1="381.6" y1="12.57" x2="423.75" y2="12.57" xlink:href="#_新規グラデーションスウォッチ_1"/>
    <linearGradient id="_新規グラデーションスウォッチ_1-4" data-name="新規グラデーションスウォッチ 1" x1="381.6" y1="12.57" x2="423.75" y2="12.57" xlink:href="#_新規グラデーションスウォッチ_1"/>
  </defs>
  <g id="_レイヤー_1-2" data-name="レイヤー 1">
    <g>
      <path class="cls-8" d="M348.24,8.72H.01v12.12h348.23c3.33,0,6.06-2.73,6.06-6.06s-2.73-6.06-6.06-6.06Z"/>
      <rect class="cls-2" y="8.72" width="102.69" height="12.12"/>
      <g>
        <circle class="cls-1" cx="103.22" cy="14.78" r="14.78"/>
        <circle class="cls-7" cx="103.22" cy="14.78" r="8.36"/>
      </g>
      <g>
        <path class="cls-1" d="M438.67,12.29c0,1.9-1.24,3.38-2.83,3.38s-2.82-1.48-2.82-3.38,1.24-3.38,2.82-3.38,2.83,1.48,2.83,3.38ZM444.21,9.02l-8.18,14.03h-1.77l8.18-14.03h1.77ZM434.52,12.29c0,1.2.55,2.01,1.33,2.01s1.31-.81,1.31-2.01-.54-2.01-1.31-2.01-1.33.83-1.33,2.01ZM445.45,19.79c0,1.88-1.24,3.38-2.81,3.38s-2.83-1.5-2.83-3.38,1.24-3.4,2.83-3.4,2.81,1.5,2.81,3.4ZM441.31,19.79c0,1.18.54,2.01,1.31,2.01s1.33-.83,1.33-2.01-.54-2.01-1.33-2.01-1.31.83-1.31,2.01Z"/>
        <path class="cls-3" d="M438.67,12.29c0,1.9-1.24,3.38-2.83,3.38s-2.82-1.48-2.82-3.38,1.24-3.38,2.82-3.38,2.83,1.48,2.83,3.38ZM444.21,9.02l-8.18,14.03h-1.77l8.18-14.03h1.77ZM434.52,12.29c0,1.2.55,2.01,1.33,2.01s1.31-.81,1.31-2.01-.54-2.01-1.31-2.01-1.33.83-1.33,2.01ZM445.45,19.79c0,1.88-1.24,3.38-2.81,3.38s-2.83-1.5-2.83-3.38,1.24-3.4,2.83-3.4,2.81,1.5,2.81,3.4ZM441.31,19.79c0,1.18.54,2.01,1.31,2.01s1.33-.83,1.33-2.01-.54-2.01-1.33-2.01-1.31.83-1.31,2.01Z"/>
      </g>
      <g>
        <g>
          <path class="cls-1" d="M381.6,5.49c2.98-.08,4.35-1.06,4.96-3.57h2.26v21.3h-3.26V7.39h-3.96v-1.9Z"/>
          <path class="cls-1" d="M396.85,5.49c2.98-.08,4.35-1.06,4.96-3.57h2.26v21.3h-3.26V7.39h-3.96v-1.9Z"/>
          <path class="cls-1" d="M410.34,7.47c0-3.43,2.65-5.85,6.41-5.85s6.38,2.43,6.38,5.85c0,1.92-.84,3.37-2.51,4.35,2.09,1.14,3.12,2.84,3.12,5.21,0,3.79-2.93,6.5-7,6.5s-7-2.7-7-6.52c0-2.37,1-4.04,3.15-5.19-1.7-.98-2.57-2.43-2.57-4.35ZM413.07,17.03c0,2.29,1.51,3.82,3.68,3.82s3.68-1.53,3.68-3.79-1.48-3.82-3.68-3.82-3.68,1.53-3.68,3.79ZM413.66,7.44c0,1.9,1.23,3.15,3.09,3.15s3.09-1.25,3.09-3.15-1.25-3.18-3.09-3.18-3.09,1.31-3.09,3.18Z"/>
        </g>
        <g>
          <path class="cls-4" d="M381.6,5.49c2.98-.08,4.35-1.06,4.96-3.57h2.26v21.3h-3.26V7.39h-3.96v-1.9Z"/>
          <path class="cls-6" d="M396.85,5.49c2.98-.08,4.35-1.06,4.96-3.57h2.26v21.3h-3.26V7.39h-3.96v-1.9Z"/>
          <path class="cls-5" d="M410.34,7.47c0-3.43,2.65-5.85,6.41-5.85s6.38,2.43,6.38,5.85c0,1.92-.84,3.37-2.51,4.35,2.09,1.14,3.12,2.84,3.12,5.21,0,3.79-2.93,6.5-7,6.5s-7-2.7-7-6.52c0-2.37,1-4.04,3.15-5.19-1.7-.98-2.57-2.43-2.57-4.35ZM413.07,17.03c0,2.29,1.51,3.82,3.68,3.82s3.68-1.53,3.68-3.79-1.48-3.82-3.68-3.82-3.68,1.53-3.68,3.79ZM413.66,7.44c0,1.9,1.23,3.15,3.09,3.15s3.09-1.25,3.09-3.15-1.25-3.18-3.09-3.18-3.09,1.31-3.09,3.18Z"/>
        </g>
      </g>
    </g>
  </g>
</svg>