<?xml version="1.0" encoding="UTF-8"?>
<svg id="_レイヤー_2" data-name="レイヤー 2" xmlns="http://www.w3.org/2000/svg" xmlns:xlink="http://www.w3.org/1999/xlink" viewBox="0 0 445.45 29.57">
  <defs>
    <style>
      .cls-1 {
        fill: #333;
      }

      .cls-1, .cls-2, .cls-3, .cls-4, .cls-5, .cls-6, .cls-7, .cls-8, .cls-9 {
        stroke-width: 0px;
      }

      .cls-2 {
        fill: url(#_新規グラデーションスウォッチ_1);
      }

      .cls-3 {
        fill: url(#_新規グラデーションスウォッチ_1-2);
      }

      .cls-4 {
        fill: url(#_新規グラデーションスウォッチ_1-4);
      }

      .cls-5 {
        fill: url(#_新規グラデーションスウォッチ_1-3);
      }

      .cls-6 {
        fill: url(#_新規グラデーションスウォッチ_1-5);
      }

      .cls-7 {
        fill: url(#_新規グラデーションスウォッチ_1-6);
      }

      .cls-8 {
        fill: #fff;
      }

      .cls-9 {
        fill: #adadad;
      }
    </style>
    <linearGradient id="_新規グラデーションスウォッチ_1" data-name="新規グラデーションスウォッチ 1" x1=".08" y1="14.78" x2="354.29" y2="14.78" gradientUnits="userSpaceOnUse">
      <stop offset="0" stop-color="#0d7695"/>
      <stop offset="0" stop-color="#0d7494"/>
      <stop offset=".18" stop-color="#105481"/>
      <stop offset=".37" stop-color="#133b73"/>
      <stop offset=".56" stop-color="#152a69"/>
      <stop offset=".76" stop-color="#161f62"/>
      <stop offset="1" stop-color="#171c61"/>
    </linearGradient>
    <linearGradient id="_新規グラデーションスウォッチ_1-2" data-name="新規グラデーションスウォッチ 1" x1="339.52" y1="14.78" x2="369.09" y2="14.78" xlink:href="#_新規グラデーションスウォッチ_1"/>
    <linearGradient id="_新規グラデーションスウォッチ_1-3" data-name="新規グラデーションスウォッチ 1" x1="433.02" y1="16.04" x2="445.45" y2="16.04" xlink:href="#_新規グラデーションスウォッチ_1"/>
    <linearGradient id="_新規グラデーションスウォッチ_1-4" data-name="新規グラデーションスウォッチ 1" x1="380.82" y1="12.57" x2="425.2" y2="12.57" xlink:href="#_新規グラデーションスウォッチ_1"/>
    <linearGradient id="_新規グラデーションスウォッチ_1-5" data-name="新規グラデーションスウォッチ 1" x1="380.82" y1="12.57" x2="425.2" y2="12.57" xlink:href="#_新規グラデーションスウォッチ_1"/>
    <linearGradient id="_新規グラデーションスウォッチ_1-6" data-name="新規グラデーションスウォッチ 1" x1="380.82" y1="12.57" x2="425.2" y2="12.57" xlink:href="#_新規グラデーションスウォッチ_1"/>
  </defs>
  <g id="_レイヤー_1-2" data-name="レイヤー 1">
    <g>
      <path class="cls-9" d="M348.23,8.72H0v12.12h348.23c3.33,0,6.06-2.73,6.06-6.06s-2.73-6.06-6.06-6.06Z"/>
      <rect class="cls-2" x=".08" y="8.72" width="354.22" height="12.12"/>
      <g>
        <circle class="cls-3" cx="354.3" cy="14.78" r="14.78"/>
        <circle class="cls-8" cx="354.3" cy="14.78" r="8.36"/>
      </g>
      <g>
        <path class="cls-1" d="M438.67,12.29c0,1.9-1.24,3.38-2.83,3.38s-2.82-1.48-2.82-3.38,1.24-3.38,2.82-3.38,2.83,1.48,2.83,3.38ZM444.21,9.02l-8.18,14.03h-1.77l8.18-14.03h1.77ZM434.52,12.29c0,1.2.55,2.01,1.33,2.01s1.31-.81,1.31-2.01-.54-2.01-1.31-2.01-1.33.83-1.33,2.01ZM445.45,19.79c0,1.88-1.24,3.38-2.81,3.38s-2.83-1.5-2.83-3.38,1.24-3.4,2.83-3.4,2.81,1.5,2.81,3.4ZM441.31,19.79c0,1.18.54,2.01,1.31,2.01s1.33-.83,1.33-2.01-.54-2.01-1.33-2.01-1.31.83-1.31,2.01Z"/>
        <path class="cls-5" d="M438.67,12.29c0,1.9-1.24,3.38-2.83,3.38s-2.82-1.48-2.82-3.38,1.24-3.38,2.82-3.38,2.83,1.48,2.83,3.38ZM444.21,9.02l-8.18,14.03h-1.77l8.18-14.03h1.77ZM434.52,12.29c0,1.2.55,2.01,1.33,2.01s1.31-.81,1.31-2.01-.54-2.01-1.31-2.01-1.33.83-1.33,2.01ZM445.45,19.79c0,1.88-1.24,3.38-2.81,3.38s-2.83-1.5-2.83-3.38,1.24-3.4,2.83-3.4,2.81,1.5,2.81,3.4ZM441.31,19.79c0,1.18.54,2.01,1.31,2.01s1.33-.83,1.33-2.01-.54-2.01-1.33-2.01-1.31.83-1.31,2.01Z"/>
      </g>
      <g>
        <g>
          <path class="cls-1" d="M381.71,7.02c.17-3.43,2.54-5.41,6.5-5.41,1.95,0,3.46.5,4.52,1.53,1,.98,1.62,2.45,1.62,3.96,0,2.23-1.09,3.76-3.34,4.71,2.59.81,3.82,2.45,3.82,5.13,0,2.06-.86,3.96-2.37,5.16-1.23.95-2.79,1.42-4.77,1.42-4.29,0-6.83-2.06-6.86-5.66h2.96c.06,1.81,1.42,2.82,3.9,2.82s3.85-1.37,3.85-3.68c0-1.56-.75-2.7-2.12-3.23-.61-.22-1.76-.36-3.04-.36l-.67.03v-2.73c.39.03.56.03.81.03,2.93,0,4.52-1.2,4.52-3.37,0-1.78-1.2-2.93-3.15-2.93s-3.18.98-3.34,2.59h-2.82Z"/>
          <path class="cls-1" d="M396.96,7.02c.17-3.43,2.54-5.41,6.5-5.41,1.95,0,3.46.5,4.52,1.53,1,.98,1.62,2.45,1.62,3.96,0,2.23-1.09,3.76-3.34,4.71,2.59.81,3.82,2.45,3.82,5.13,0,2.06-.86,3.96-2.37,5.16-1.23.95-2.79,1.42-4.77,1.42-4.29,0-6.83-2.06-6.86-5.66h2.96c.06,1.81,1.42,2.82,3.9,2.82s3.85-1.37,3.85-3.68c0-1.56-.75-2.7-2.12-3.23-.61-.22-1.76-.36-3.04-.36l-.67.03v-2.73c.39.03.56.03.81.03,2.93,0,4.52-1.2,4.52-3.37,0-1.78-1.2-2.93-3.15-2.93s-3.18.98-3.34,2.59h-2.82Z"/>
          <path class="cls-1" d="M414.58,18.43c.53,1.48,1.64,2.26,3.32,2.26,2.31,0,3.88-1.9,3.88-4.74,0-2.65-1.42-4.4-3.54-4.4-1.48,0-2.57.61-3.51,2.01l-2.84-.39,1.81-11.12h10.23l-.25,2.93h-7.53l-.86,5.07c1.17-.86,2.09-1.17,3.46-1.17,3.85,0,6.47,2.79,6.47,6.94,0,2.09-.7,3.96-1.98,5.44-1.39,1.56-3.04,2.29-5.21,2.29-3.51,0-6.08-2.01-6.58-5.1h3.15Z"/>
        </g>
        <g>
          <path class="cls-4" d="M381.71,7.02c.17-3.43,2.54-5.41,6.5-5.41,1.95,0,3.46.5,4.52,1.53,1,.98,1.62,2.45,1.62,3.96,0,2.23-1.09,3.76-3.34,4.71,2.59.81,3.82,2.45,3.82,5.13,0,2.06-.86,3.96-2.37,5.16-1.23.95-2.79,1.42-4.77,1.42-4.29,0-6.83-2.06-6.86-5.66h2.96c.06,1.81,1.42,2.82,3.9,2.82s3.85-1.37,3.85-3.68c0-1.56-.75-2.7-2.12-3.23-.61-.22-1.76-.36-3.04-.36l-.67.03v-2.73c.39.03.56.03.81.03,2.93,0,4.52-1.2,4.52-3.37,0-1.78-1.2-2.93-3.15-2.93s-3.18.98-3.34,2.59h-2.82Z"/>
          <path class="cls-6" d="M396.96,7.02c.17-3.43,2.54-5.41,6.5-5.41,1.95,0,3.46.5,4.52,1.53,1,.98,1.62,2.45,1.62,3.96,0,2.23-1.09,3.76-3.34,4.71,2.59.81,3.82,2.45,3.82,5.13,0,2.06-.86,3.96-2.37,5.16-1.23.95-2.79,1.42-4.77,1.42-4.29,0-6.83-2.06-6.86-5.66h2.96c.06,1.81,1.42,2.82,3.9,2.82s3.85-1.37,3.85-3.68c0-1.56-.75-2.7-2.12-3.23-.61-.22-1.76-.36-3.04-.36l-.67.03v-2.73c.39.03.56.03.81.03,2.93,0,4.52-1.2,4.52-3.37,0-1.78-1.2-2.93-3.15-2.93s-3.18.98-3.34,2.59h-2.82Z"/>
          <path class="cls-7" d="M414.58,18.43c.53,1.48,1.64,2.26,3.32,2.26,2.31,0,3.88-1.9,3.88-4.74,0-2.65-1.42-4.4-3.54-4.4-1.48,0-2.57.61-3.51,2.01l-2.84-.39,1.81-11.12h10.23l-.25,2.93h-7.53l-.86,5.07c1.17-.86,2.09-1.17,3.46-1.17,3.85,0,6.47,2.79,6.47,6.94,0,2.09-.7,3.96-1.98,5.44-1.39,1.56-3.04,2.29-5.21,2.29-3.51,0-6.08-2.01-6.58-5.1h3.15Z"/>
        </g>
      </g>
    </g>
  </g>
</svg>