<?xml version="1.0" encoding="UTF-8"?>
<svg id="_レイヤー_2" data-name="レイヤー 2" xmlns="http://www.w3.org/2000/svg" xmlns:xlink="http://www.w3.org/1999/xlink" viewBox="0 0 445.45 29.57">
  <defs>
    <style>
      .cls-1 {
        fill: #333;
      }

      .cls-1, .cls-2, .cls-3, .cls-4, .cls-5, .cls-6, .cls-7, .cls-8, .cls-9 {
        stroke-width: 0px;
      }

      .cls-2 {
        fill: url(#_新規グラデーションスウォッチ_1);
      }

      .cls-3 {
        fill: url(#_新規グラデーションスウォッチ_1-2);
      }

      .cls-4 {
        fill: url(#_新規グラデーションスウォッチ_1-4);
      }

      .cls-5 {
        fill: url(#_新規グラデーションスウォッチ_1-3);
      }

      .cls-6 {
        fill: url(#_新規グラデーションスウォッチ_1-5);
      }

      .cls-7 {
        fill: url(#_新規グラデーションスウォッチ_1-6);
      }

      .cls-8 {
        fill: #fff;
      }

      .cls-9 {
        fill: #adadad;
      }
    </style>
    <linearGradient id="_新規グラデーションスウォッチ_1" data-name="新規グラデーションスウォッチ 1" x1=".08" y1="14.78" x2="146.82" y2="14.78" gradientUnits="userSpaceOnUse">
      <stop offset="0" stop-color="#0d7695"/>
      <stop offset="0" stop-color="#0d7494"/>
      <stop offset=".18" stop-color="#105481"/>
      <stop offset=".37" stop-color="#133b73"/>
      <stop offset=".56" stop-color="#152a69"/>
      <stop offset=".76" stop-color="#161f62"/>
      <stop offset="1" stop-color="#171c61"/>
    </linearGradient>
    <linearGradient id="_新規グラデーションスウォッチ_1-2" data-name="新規グラデーションスウォッチ 1" x1="132.03" y1="14.78" x2="161.6" y2="14.78" xlink:href="#_新規グラデーションスウォッチ_1"/>
    <linearGradient id="_新規グラデーションスウォッチ_1-3" data-name="新規グラデーションスウォッチ 1" x1="433.02" y1="16.04" x2="445.45" y2="16.04" xlink:href="#_新規グラデーションスウォッチ_1"/>
    <linearGradient id="_新規グラデーションスウォッチ_1-4" data-name="新規グラデーションスウォッチ 1" x1="383.16" y1="12.73" x2="425.29" y2="12.73" xlink:href="#_新規グラデーションスウォッチ_1"/>
    <linearGradient id="_新規グラデーションスウォッチ_1-5" data-name="新規グラデーションスウォッチ 1" x1="383.16" y1="12.73" x2="425.29" y2="12.73" xlink:href="#_新規グラデーションスウォッチ_1"/>
    <linearGradient id="_新規グラデーションスウォッチ_1-6" data-name="新規グラデーションスウォッチ 1" x1="383.16" y1="12.73" x2="425.29" y2="12.73" xlink:href="#_新規グラデーションスウォッチ_1"/>
  </defs>
  <g id="_レイヤー_1-2" data-name="レイヤー 1">
    <g>
      <path class="cls-9" d="M348.23,8.72H0v12.12h348.23c3.33,0,6.06-2.73,6.06-6.06s-2.73-6.06-6.06-6.06Z"/>
      <rect class="cls-2" x=".08" y="8.72" width="146.74" height="12.12"/>
      <g>
        <circle class="cls-3" cx="146.82" cy="14.78" r="14.78"/>
        <circle class="cls-8" cx="146.82" cy="14.78" r="8.36"/>
      </g>
      <g>
        <path class="cls-1" d="M438.67,12.29c0,1.9-1.24,3.38-2.83,3.38s-2.82-1.48-2.82-3.38,1.24-3.38,2.82-3.38,2.83,1.48,2.83,3.38ZM444.21,9.02l-8.18,14.03h-1.77l8.18-14.03h1.77ZM434.52,12.29c0,1.2.55,2.01,1.33,2.01s1.31-.81,1.31-2.01-.54-2.01-1.31-2.01-1.33.83-1.33,2.01ZM445.45,19.79c0,1.88-1.24,3.38-2.81,3.38s-2.83-1.5-2.83-3.38,1.24-3.4,2.83-3.4,2.81,1.5,2.81,3.4ZM441.31,19.79c0,1.18.54,2.01,1.31,2.01s1.33-.83,1.33-2.01-.54-2.01-1.33-2.01-1.31.83-1.31,2.01Z"/>
        <path class="cls-5" d="M438.67,12.29c0,1.9-1.24,3.38-2.83,3.38s-2.82-1.48-2.82-3.38,1.24-3.38,2.82-3.38,2.83,1.48,2.83,3.38ZM444.21,9.02l-8.18,14.03h-1.77l8.18-14.03h1.77ZM434.52,12.29c0,1.2.55,2.01,1.33,2.01s1.31-.81,1.31-2.01-.54-2.01-1.31-2.01-1.33.83-1.33,2.01ZM445.45,19.79c0,1.88-1.24,3.38-2.81,3.38s-2.83-1.5-2.83-3.38,1.24-3.4,2.83-3.4,2.81,1.5,2.81,3.4ZM441.31,19.79c0,1.18.54,2.01,1.31,2.01s1.33-.83,1.33-2.01-.54-2.01-1.33-2.01-1.31.83-1.31,2.01Z"/>
      </g>
      <g>
        <g>
          <path class="cls-1" d="M383.16,5.49c2.98-.08,4.35-1.06,4.96-3.57h2.26v21.3h-3.26V7.39h-3.96v-1.9Z"/>
          <path class="cls-1" d="M399.33,18.43c.53,1.48,1.64,2.26,3.32,2.26,2.31,0,3.88-1.9,3.88-4.74,0-2.65-1.42-4.4-3.54-4.4-1.48,0-2.57.61-3.51,2.01l-2.84-.39,1.81-11.12h10.23l-.25,2.93h-7.53l-.86,5.07c1.17-.86,2.09-1.17,3.46-1.17,3.85,0,6.47,2.79,6.47,6.94,0,2.09-.7,3.96-1.98,5.44-1.39,1.56-3.04,2.29-5.21,2.29-3.51,0-6.08-2.01-6.58-5.1h3.15Z"/>
          <path class="cls-1" d="M425.29,2.03v2.56l-9.14,18.62h-3.54l8.89-18.09h-10.04v-3.09h13.83Z"/>
        </g>
        <g>
          <path class="cls-4" d="M383.16,5.49c2.98-.08,4.35-1.06,4.96-3.57h2.26v21.3h-3.26V7.39h-3.96v-1.9Z"/>
          <path class="cls-6" d="M399.33,18.43c.53,1.48,1.64,2.26,3.32,2.26,2.31,0,3.88-1.9,3.88-4.74,0-2.65-1.42-4.4-3.54-4.4-1.48,0-2.57.61-3.51,2.01l-2.84-.39,1.81-11.12h10.23l-.25,2.93h-7.53l-.86,5.07c1.17-.86,2.09-1.17,3.46-1.17,3.85,0,6.47,2.79,6.47,6.94,0,2.09-.7,3.96-1.98,5.44-1.39,1.56-3.04,2.29-5.21,2.29-3.51,0-6.08-2.01-6.58-5.1h3.15Z"/>
          <path class="cls-7" d="M425.29,2.03v2.56l-9.14,18.62h-3.54l8.89-18.09h-10.04v-3.09h13.83Z"/>
        </g>
      </g>
    </g>
  </g>
</svg>