<?xml version="1.0" encoding="UTF-8"?><svg id="_レイヤー_2" xmlns="http://www.w3.org/2000/svg" xmlns:xlink="http://www.w3.org/1999/xlink" viewBox="0 0 65.55 65.61"><defs><style>.cls-1{stroke:url(#_新規グラデーションスウォッチ_1-7);}.cls-1,.cls-2,.cls-3,.cls-4,.cls-5,.cls-6,.cls-7,.cls-8,.cls-9{fill:none;stroke-linecap:round;stroke-linejoin:round;stroke-width:2px;}.cls-2{stroke:url(#_新規グラデーションスウォッチ_1-8);}.cls-3{stroke:url(#_新規グラデーションスウォッチ_1-6);}.cls-4{stroke:url(#_新規グラデーションスウォッチ_1-3);}.cls-5{stroke:url(#_新規グラデーションスウォッチ_1-4);}.cls-6{stroke:url(#_新規グラデーションスウォッチ_1-2);}.cls-7{stroke:url(#_新規グラデーションスウォッチ_1-5);}.cls-8{stroke:url(#_新規グラデーションスウォッチ_1-9);}.cls-9{stroke:url(#_新規グラデーションスウォッチ_1);}</style><linearGradient id="_新規グラデーションスウォッチ_1" x1="0" y1="43.9" x2="33.85" y2="43.9" gradientUnits="userSpaceOnUse"><stop offset="0" stop-color="#0d76a3"/><stop offset="0" stop-color="#0d74a2"/><stop offset=".18" stop-color="#10548a"/><stop offset=".37" stop-color="#133b78"/><stop offset=".56" stop-color="#152a6b"/><stop offset=".76" stop-color="#161f63"/><stop offset="1" stop-color="#171c61"/></linearGradient><linearGradient id="_新規グラデーションスウォッチ_1-2" x1="8.49" y1="20.17" x2="22.68" y2="20.17" xlink:href="#_新規グラデーションスウォッチ_1"/><linearGradient id="_新規グラデーションスウォッチ_1-3" x1="25.49" y1="29.29" x2="55.12" y2="29.29" xlink:href="#_新規グラデーションスウォッチ_1"/><linearGradient id="_新規グラデーションスウォッチ_1-4" x1="53.63" y1="20.84" x2="56.66" y2="20.84" xlink:href="#_新規グラデーションスウォッチ_1"/><linearGradient id="_新規グラデーションスウォッチ_1-5" x1="12.05" y1="26.19" x2="65.55" y2="26.19" xlink:href="#_新規グラデーションスウォッチ_1"/><linearGradient id="_新規グラデーションスウォッチ_1-6" x1="37.8" y1="53.88" x2="39.8" y2="53.88" xlink:href="#_新規グラデーションスウォッチ_1"/><linearGradient id="_新規グラデーションスウォッチ_1-7" x1="37.8" y1="3.24" x2="39.8" y2="3.24" xlink:href="#_新規グラデーションスウォッチ_1"/><linearGradient id="_新規グラデーションスウォッチ_1-8" x1="37.88" y1="59.36" x2="51.44" y2="59.36" xlink:href="#_新規グラデーションスウォッチ_1"/><linearGradient id="_新規グラデーションスウォッチ_1-9" x1="26.16" y1="59.36" x2="39.71" y2="59.36" xlink:href="#_新規グラデーションスウォッチ_1"/></defs><g id="_レイヤー_1-2"><g><path class="cls-9" d="M15.34,47.83v13.9c0,4.23-6.91,3.44-6.91,0l.32-25.38-2.63,7.98c-1.85,4.85-5.84,1.7-5-.52l3.52-11.55c1.28-4.89,6.09-2.27,8.38-2.16,.84,.2,1.6,.26,2.49,.26,5.98,.03,6.09-2.91,12.81-6.69,3.6-2.02,6.62,2.74,2.64,5.12l-9.05,7.05,.37,25.88c.05,4.23-6.91,3.46-6.91,0"/><path class="cls-6" d="M15.59,14.08c3.36,0,6.09,2.73,6.09,6.09s-2.73,6.09-6.09,6.09-6.09-2.73-6.09-6.09,2.73-6.09,6.09-6.09h0Z"/><polyline class="cls-4" points="26.49 41.23 36.69 33.01 43.53 35.15 54.12 17.36 47.49 18.94"/><line class="cls-5" x1="54.63" y1="17.37" x2="55.66" y2="24.31"/><polyline class="cls-7" points="13.05 10.18 13.05 5.65 64.55 5.65 64.55 46.73 26.52 46.73"/><line class="cls-3" x1="38.8" y1="46.85" x2="38.8" y2="60.9"/><line class="cls-1" x1="38.8" y1="5.48" x2="38.8" y2="1"/><line class="cls-2" x1="38.88" y1="54.11" x2="50.44" y2="64.61"/><line class="cls-8" x1="38.71" y1="54.11" x2="27.16" y2="64.61"/></g></g></svg>