<?xml version="1.0" encoding="UTF-8"?><svg id="_レイヤー_2" xmlns="http://www.w3.org/2000/svg" xmlns:xlink="http://www.w3.org/1999/xlink" viewBox="0 0 66.29 64.41"><defs><style>.cls-1{stroke:url(#_新規グラデーションスウォッチ_1-7);}.cls-1,.cls-2,.cls-3,.cls-4,.cls-5,.cls-6,.cls-7,.cls-8,.cls-9,.cls-10,.cls-11,.cls-12,.cls-13,.cls-14{fill:none;stroke-linecap:round;stroke-linejoin:round;stroke-width:2px;}.cls-2{stroke:url(#_新規グラデーションスウォッチ_1-8);}.cls-3{stroke:url(#_新規グラデーションスウォッチ_1-6);}.cls-4{stroke:url(#_新規グラデーションスウォッチ_1-3);}.cls-5{stroke:url(#_新規グラデーションスウォッチ_1-4);}.cls-6{stroke:url(#_新規グラデーションスウォッチ_1-2);}.cls-7{stroke:url(#_新規グラデーションスウォッチ_1-5);}.cls-8{stroke:url(#_新規グラデーションスウォッチ_1-9);}.cls-9{stroke:url(#_新規グラデーションスウォッチ_1-13);}.cls-10{stroke:url(#_新規グラデーションスウォッチ_1-11);}.cls-11{stroke:url(#_新規グラデーションスウォッチ_1-14);}.cls-12{stroke:url(#_新規グラデーションスウォッチ_1-10);}.cls-13{stroke:url(#_新規グラデーションスウォッチ_1-12);}.cls-14{stroke:url(#_新規グラデーションスウォッチ_1);}</style><linearGradient id="_新規グラデーションスウォッチ_1" x1="51.31" y1="7.49" x2="66.29" y2="7.49" gradientUnits="userSpaceOnUse"><stop offset="0" stop-color="#0d76a3"/><stop offset="0" stop-color="#0d74a2"/><stop offset=".18" stop-color="#10548a"/><stop offset=".37" stop-color="#133b78"/><stop offset=".56" stop-color="#152a6b"/><stop offset=".76" stop-color="#161f63"/><stop offset="1" stop-color="#171c61"/></linearGradient><linearGradient id="_新規グラデーションスウォッチ_1-2" x1="0" y1="8.16" x2="14.98" y2="8.16" xlink:href="#_新規グラデーションスウォッチ_1"/><linearGradient id="_新規グラデーションスウォッチ_1-3" x1="48.14" y1="39.6" x2="63.12" y2="39.6" xlink:href="#_新規グラデーションスウォッチ_1"/><linearGradient id="_新規グラデーションスウォッチ_1-4" x1="43.52" y1="35.97" x2="50.59" y2="35.97" xlink:href="#_新規グラデーションスウォッチ_1"/><linearGradient id="_新規グラデーションスウォッチ_1-5" x1="41.5" y1="15.36" x2="54.29" y2="15.36" xlink:href="#_新規グラデーションスウォッチ_1"/><linearGradient id="_新規グラデーションスウォッチ_1-6" x1="11.43" y1="15.02" x2="18.43" y2="15.02" xlink:href="#_新規グラデーションスウォッチ_1"/><linearGradient id="_新規グラデーションスウォッチ_1-7" x1=".6" y1="47.99" x2="15.58" y2="47.99" xlink:href="#_新規グラデーションスウォッチ_1"/><linearGradient id="_新規グラデーションスウォッチ_1-8" x1="11.96" y1="40.41" x2="21.01" y2="40.41" xlink:href="#_新規グラデーションスウォッチ_1"/><linearGradient id="_新規グラデーションスウォッチ_1-9" x1="31.59" y1="47.73" x2="36.7" y2="47.73" xlink:href="#_新規グラデーションスウォッチ_1"/><linearGradient id="_新規グラデーションスウォッチ_1-10" x1="31.24" y1="58.79" x2="42.47" y2="58.79" xlink:href="#_新規グラデーションスウォッチ_1"/><linearGradient id="_新規グラデーションスウォッチ_1-11" x1="21.98" y1="10.94" x2="35.57" y2="10.94" xlink:href="#_新規グラデーションスウォッチ_1"/><linearGradient id="_新規グラデーションスウォッチ_1-12" x1="15.87" y1="26.98" x2="41.68" y2="26.98" xlink:href="#_新規グラデーションスウォッチ_1"/><linearGradient id="_新規グラデーションスウォッチ_1-13" x1="33.77" y1="29.73" x2="35.77" y2="29.73" xlink:href="#_新規グラデーションスウォッチ_1"/><linearGradient id="_新規グラデーションスウォッチ_1-14" x1="21.77" y1="29.73" x2="23.77" y2="29.73" xlink:href="#_新規グラデーションスウォッチ_1"/></defs><g id="_レイヤー_1-2"><g><path class="cls-14" d="M65.29,7.49c0,3.58-2.9,6.49-6.49,6.49s-6.49-2.9-6.49-6.49,2.9-6.49,6.49-6.49,6.49,2.9,6.49,6.49h0Z"/><path class="cls-6" d="M13.98,8.16c0,3.58-2.9,6.49-6.49,6.49S1,11.74,1,8.16,3.9,1.67,7.49,1.67s6.49,2.9,6.49,6.49h0Z"/><path class="cls-4" d="M62.12,39.6c0,3.58-2.9,6.49-6.49,6.49s-6.49-2.9-6.49-6.49,2.9-6.49,6.49-6.49,6.49,2.9,6.49,6.49h0Z"/><line class="cls-5" x1="44.52" y1="34.89" x2="49.59" y2="37.05"/><line class="cls-7" x1="53.29" y1="11.47" x2="42.5" y2="19.26"/><line class="cls-3" x1="17.43" y1="17.33" x2="12.43" y2="12.72"/><path class="cls-1" d="M14.21,50.15c-1.19,3.38-4.9,5.15-8.28,3.95-3.38-1.19-5.15-4.9-3.95-8.28,1.19-3.38,4.9-5.15,8.28-3.95,3.38,1.19,5.15,4.9,3.95,8.28h0Z"/><line class="cls-2" x1="12.96" y1="43.59" x2="20.01" y2="37.23"/><line class="cls-8" x1="32.59" y1="41.15" x2="35.7" y2="54.32"/><path class="cls-12" d="M41.33,59.91c-.62,2.47-3.12,3.98-5.6,3.36-2.47-.62-3.98-3.12-3.36-5.6,.62-2.47,3.12-3.98,5.6-3.36,2.47,.62,3.98,3.12,3.36,5.6h0Z"/><path class="cls-10" d="M34.57,10.46c0,3.75-2.59,6.36-5.79,6.36s-5.79-2.61-5.79-6.36c0-7.32,11.58-7.1,11.58,0h0Z"/><path class="cls-13" d="M40.68,33.23H16.87v-6.64c0-3.21,2.63-5.86,5.86-5.86h12.1c3.22,0,5.86,2.63,5.86,5.86v6.64h0Z"/><line class="cls-9" x1="34.77" y1="33.23" x2="34.77" y2="26.23"/><line class="cls-11" x1="22.77" y1="26.23" x2="22.77" y2="33.23"/></g></g></svg>