<?xml version="1.0" encoding="UTF-8"?><svg id="_レイヤー_2" xmlns="http://www.w3.org/2000/svg" xmlns:xlink="http://www.w3.org/1999/xlink" viewBox="0 0 247.24 214.73"><defs><style>.cls-1{fill:#fff;}.cls-2{fill:#333;}.cls-3{fill:url(#_新規グラデーションスウォッチ_1-2);stroke:url(#_新規グラデーションスウォッチ_1-3);}.cls-3,.cls-4,.cls-5{stroke-miterlimit:10;stroke-width:2px;}.cls-6{fill:url(#_新規グラデーションスウォッチ_1-17);}.cls-7{fill:url(#_新規グラデーションスウォッチ_1-14);}.cls-8{fill:url(#_新規グラデーションスウォッチ_1-11);}.cls-9{fill:url(#_新規グラデーションスウォッチ_1-16);}.cls-10{fill:url(#_新規グラデーションスウォッチ_1-13);}.cls-11{fill:url(#_新規グラデーションスウォッチ_1-10);}.cls-12{fill:url(#_新規グラデーションスウォッチ_1-12);}.cls-13{fill:url(#_新規グラデーションスウォッチ_1-15);}.cls-4{stroke:url(#_新規グラデーションスウォッチ_1-5);}.cls-4,.cls-5{fill:none;}.cls-5{stroke:url(#_新規グラデーションスウォッチ_1-4);}.cls-14{fill:url(#_新規グラデーションスウォッチ_1);}.cls-15{fill:url(#_新規グラデーションスウォッチ_1-9);}.cls-16{fill:url(#_新規グラデーションスウォッチ_1-6);}.cls-17{fill:url(#_新規グラデーションスウォッチ_1-7);}.cls-18{fill:url(#_新規グラデーションスウォッチ_1-8);}</style><linearGradient id="_新規グラデーションスウォッチ_1" x1="65.12" y1="193.73" x2="182.12" y2="193.73" gradientUnits="userSpaceOnUse"><stop offset="0" stop-color="#0d76a3"/><stop offset="0" stop-color="#0d74a2"/><stop offset=".18" stop-color="#10548a"/><stop offset=".37" stop-color="#133b78"/><stop offset=".56" stop-color="#152a6b"/><stop offset=".76" stop-color="#161f63"/><stop offset="1" stop-color="#171c61"/></linearGradient><linearGradient id="_新規グラデーションスウォッチ_1-2" x1="414.5" y1="25.87" x2="633.05" y2="25.87" gradientTransform="translate(-386.83) skewX(-10)" xlink:href="#_新規グラデーションスウォッチ_1"/><linearGradient id="_新規グラデーションスウォッチ_1-3" x1="17.54" y1="25.87" x2="247.24" y2="25.87" xlink:href="#_新規グラデーションスウォッチ_1"/><linearGradient id="_新規グラデーションスウォッチ_1-4" x1="8.77" y1="75.6" x2="238.47" y2="75.6" xlink:href="#_新規グラデーションスウォッチ_1"/><linearGradient id="_新規グラデーションスウォッチ_1-5" x1="0" y1="125.33" x2="229.7" y2="125.33" xlink:href="#_新規グラデーションスウォッチ_1"/><linearGradient id="_新規グラデーションスウォッチ_1-6" x1="64.17" y1="75.97" x2="183.07" y2="75.97" xlink:href="#_新規グラデーションスウォッチ_1"/><linearGradient id="_新規グラデーションスウォッチ_1-7" x1="64.17" y1="75.97" x2="183.07" y2="75.97" xlink:href="#_新規グラデーションスウォッチ_1"/><linearGradient id="_新規グラデーションスウォッチ_1-8" x1="64.17" y1="75.97" x2="183.07" y2="75.97" xlink:href="#_新規グラデーションスウォッチ_1"/><linearGradient id="_新規グラデーションスウォッチ_1-9" x1="64.17" y1="75.97" x2="183.07" y2="75.97" xlink:href="#_新規グラデーションスウォッチ_1"/><linearGradient id="_新規グラデーションスウォッチ_1-10" x1="64.17" y1="75.97" x2="183.07" y2="75.97" xlink:href="#_新規グラデーションスウォッチ_1"/><linearGradient id="_新規グラデーションスウォッチ_1-11" x1="64.17" y1="75.97" x2="183.07" y2="75.97" xlink:href="#_新規グラデーションスウォッチ_1"/><linearGradient id="_新規グラデーションスウォッチ_1-12" x1="55.4" y1="125.38" x2="174.3" y2="125.38" xlink:href="#_新規グラデーションスウォッチ_1"/><linearGradient id="_新規グラデーションスウォッチ_1-13" x1="55.4" y1="125.38" x2="174.3" y2="125.38" xlink:href="#_新規グラデーションスウォッチ_1"/><linearGradient id="_新規グラデーションスウォッチ_1-14" x1="55.4" y1="125.38" x2="174.3" y2="125.38" xlink:href="#_新規グラデーションスウォッチ_1"/><linearGradient id="_新規グラデーションスウォッチ_1-15" x1="55.4" y1="125.38" x2="174.3" y2="125.38" xlink:href="#_新規グラデーションスウォッチ_1"/><linearGradient id="_新規グラデーションスウォッチ_1-16" x1="55.4" y1="125.38" x2="174.3" y2="125.38" xlink:href="#_新規グラデーションスウォッチ_1"/><linearGradient id="_新規グラデーションスウォッチ_1-17" x1="55.4" y1="125.38" x2="174.3" y2="125.38" xlink:href="#_新規グラデーションスウォッチ_1"/></defs><g id="_レイヤー_1-2"><g><rect class="cls-14" x="65.12" y="172.73" width="117" height="42" rx="5" ry="5"/><g><path class="cls-1" d="M100.58,191.05c-.31-1.6-1.21-2.41-2.67-2.41-2.09,0-3.4,1.92-3.4,4.98s1.31,4.95,3.43,4.95c1.63,0,2.58-1.05,2.77-3.11h1.82c-.19,3.14-1.77,4.84-4.52,4.84-3.42,0-5.61-2.6-5.61-6.66,0-2.33,.68-4.2,1.97-5.39,.95-.87,2.21-1.34,3.55-1.34,1.55,0,2.86,.61,3.62,1.7,.48,.65,.7,1.36,.8,2.45h-1.77Z"/><path class="cls-1" d="M108.42,190.61c2.5,0,4.28,2.02,4.28,4.86s-1.79,4.84-4.28,4.84-4.3-2.02-4.3-4.84,1.79-4.86,4.3-4.86Zm0,8.14c1.39,0,2.33-1.33,2.33-3.28s-.93-3.31-2.33-3.31-2.35,1.34-2.35,3.31,.93,3.28,2.35,3.28Z"/><path class="cls-1" d="M122.21,197.2c-.1,.7-.44,1.41-.9,1.97-.65,.75-1.58,1.14-2.74,1.14-2.53,0-4.2-1.92-4.2-4.84s1.65-4.86,4.22-4.86c1.9,0,3.21,1.1,3.55,3.03h-1.92c-.24-1-.78-1.48-1.68-1.48-1.36,0-2.21,1.29-2.21,3.33,0,1.19,.32,2.19,.9,2.79,.31,.31,.78,.48,1.33,.48,.95,0,1.53-.49,1.77-1.55h1.89Z"/><path class="cls-1" d="M129.98,190.86h2.31l-3.82,4.2,4.15,5h-2.58l-3.62-4.67v4.67h-1.9v-12.99h1.9v7.8l3.57-4.01Z"/><path class="cls-1" d="M138.05,187.14c2.01,0,3.08,.2,3.84,.75,.95,.66,1.46,1.8,1.46,3.25,0,1.53-.59,2.7-1.67,3.31-.71,.41-1.7,.58-3.45,.58h-1.46v5.03h-2.01v-12.92h3.28Zm.24,6.17c1.02,0,1.75-.12,2.16-.36,.53-.32,.83-.99,.83-1.87,0-.82-.25-1.44-.75-1.78-.44-.31-1.12-.44-2.29-.44h-1.46v4.45h1.51Z"/><path class="cls-1" d="M147.32,187.14v2.09h-2.09v-2.09h2.09Zm-.1,3.72v9.2h-1.89v-9.2h1.89Z"/><path class="cls-1" d="M154.63,190.86l-.03,1.5h-2.02c-.02,1.1-.07,3.96-.07,4.16v.66c0,.65,.03,.9,.19,1.09s.44,.31,.76,.31c.44,0,.9-.1,1.38-.31l-.02,1.6c-.68,.27-1.22,.37-1.85,.37-.99,0-1.72-.34-2.11-.99-.24-.37-.32-.8-.32-1.6q0-.32,.03-1.22l.12-4.08h-1.41l.03-1.5h1.43l.07-2.65h1.85l-.05,2.65h2.02Z"/></g><polygon class="cls-3" points="237.28 50.73 18.73 50.73 27.5 1 246.05 1 237.28 50.73"/><polygon class="cls-5" points="228.51 100.46 9.96 100.46 18.73 50.73 237.28 50.73 228.51 100.46"/><polygon class="cls-4" points="219.74 150.19 1.19 150.19 9.96 100.46 228.51 100.46 219.74 150.19"/><g><path class="cls-1" d="M70.91,21.84c-1.56,.28-2.84,.44-5.14,.64-.1-.82-.3-1.42-.64-1.96,4.86-.22,8.34-1,10.48-2.3l1.54,1.5c.1,.1,.16,.2,.16,.3,0,.14-.14,.22-.4,.22l-.3-.02c-1.88,.7-2.78,1-3.58,1.18v2.98h3.78c.82,0,2.12-.02,2.8-.04v2.06c-.74-.02-2.02-.06-2.8-.06h-3.82c-.1,1.88-.38,2.92-1.06,4.16-.96,1.74-2.36,2.94-5,4.2-.38-.82-.54-1.04-1.22-1.86,3.38-1.44,4.98-3.44,5.16-6.5h-4.4c-.86,0-1.98,.02-2.8,.06v-2.06c.76,.02,1.9,.04,2.8,.04h4.44v-2.54Z"/><path class="cls-1" d="M92.09,29.58q.78,3,1.06,3.96c.02,.06,.14,.44,.16,.56l-2.02,.54c-.08-.48-.56-2.9-1.04-4.78l-.78-3-.48,.12c-1.32,.3-1.7,.4-3.2,.82-.14,.04-.18,.04-.4,.1l-.62-1.84c1.34-.24,1.88-.34,4.28-.88q-.86-3.34-1.12-4.02l2-.22c.3-.04,.44,.1,.44,.26,0,.12-.06,.22-.22,.42q.06,.4,.7,3.14l5.48-1.32,.26-.34,1.58,1.12c.2,.14,.24,.2,.24,.32,0,.2-.02,.22-.42,.38-.96,2.02-1.62,2.92-3.38,4.62-.52-.66-.54-.68-1.4-1.38,1.24-.98,1.84-1.64,2.58-2.9l-4.52,1.16,.82,3.16Z"/><path class="cls-1" d="M105.97,31.44q.2-.72,.24-3.72v-4.66c0-1.54-.04-2.4-.08-3l2.28,.14c.22,.02,.34,.08,.34,.2s-.1,.22-.38,.4q-.02,.96-.02,2.26v7c4.16-1.56,7.98-3.8,10.5-6.2,.26,1.02,.4,1.44,.78,2.1-1.86,1.5-3.04,2.3-5.2,3.54-2.4,1.38-3.78,2.02-6.28,2.9-.08,.28-.18,.4-.3,.4-.08,0-.22-.06-.3-.12l-1.58-1.24Z"/><path class="cls-1" d="M125.97,19.94c2.08,1.08,2.84,1.64,4.22,3.16l-1.58,1.74c-1.44-1.6-2.48-2.44-3.96-3.24l1.32-1.66Zm-.76,11.28c3.02-1.28,4.74-2.26,7.02-3.98,2.66-2.04,4.22-3.62,6.28-6.42,.4,.7,.74,1.14,1.38,1.9-2.64,3.18-4.12,4.64-6.46,6.4-1.96,1.48-3.44,2.38-6.28,3.82-.08,.28-.16,.42-.3,.42-.1,0-.26-.1-.34-.24l-1.3-1.9Z"/><path class="cls-1" d="M145.11,22.9c1.66,.9,2.4,1.46,3.68,2.68l-1.5,1.78q-1.8-1.66-3.44-2.74l1.26-1.72Zm.28,8.9c2.2-.98,4.74-2.54,7.02-4.36,2.34-1.84,4.24-3.76,6-6,.52,.72,.7,.94,1.5,1.74-3.94,4.6-6.2,6.48-12.44,10.36-.08,.28-.18,.42-.32,.42-.1,0-.24-.1-.36-.26l-1.4-1.9Zm2.9-13.2c1.5,.9,2.2,1.46,3.6,2.9l-1.48,1.66c-1.24-1.28-2.24-2.16-3.4-2.92l1.28-1.64Zm8.12-.78c.94,.58,1.56,1.06,2.54,2l-1,1.08c-.94-.98-1.38-1.36-2.42-2.06l.88-1.02Zm1.56-1.82c.94,.58,1.56,1.06,2.52,2l-1,1.1c-.92-.98-1.36-1.38-2.4-2.08l.88-1.02Z"/><path class="cls-1" d="M172.83,17.24c.28,.1,.4,.2,.4,.32,0,.16,0,.18-.48,.3,1.02,1.58,1.9,2.58,3.16,3.58,1.48,1.2,3.08,2.08,5.34,3q-.72,.86-1.22,1.9c-2.58-1.24-3.54-1.82-5.16-3.16-1.5-1.24-2.04-1.82-3.28-3.78-.98,1.5-1.72,2.36-2.98,3.52-1.6,1.5-2.84,2.38-5.46,3.9-.46-.94-.66-1.26-1.18-1.88,2.32-1.2,3.66-2.12,5.22-3.56,1.56-1.42,2.46-2.56,3.8-4.8l1.84,.66Zm-1.94,7.38c0-.92,0-1.16-.04-1.86l2.14,.14c.22,.02,.36,.08,.36,.2s-.12,.24-.38,.4v3.26h2.84c.76,0,1.78-.02,2.38-.04v1.96c-.6-.04-1.72-.06-2.38-.06h-2.84v4.22h3.62c1.26,0,2.96-.04,3.98-.08v2.06c-1.06-.04-2.76-.06-3.98-.06h-9.86c-1.1,0-2.9,.02-3.98,.06v-2.06c.86,.04,2.28,.06,3.4,.08v-4.6c0-.92,0-1.16-.04-1.84l2.1,.12c.22,.02,.36,.1,.36,.2,0,.12-.12,.24-.4,.4v5.72h2.72v-8.22Z"/><path class="cls-1" d="M192.49,31.74c0,1.52,.02,2.8,.06,3.52h-1.96c.04-.78,.06-1.9,.06-3.52v-1.06c-1.16,1.02-1.92,1.54-3.2,2.24-1.52,.82-2.56,1.24-4.58,1.86-.34-.9-.38-1-.84-1.76,3.02-.8,5.12-1.72,6.9-3h-2.54c-1.04,0-2.34,.02-3.18,.06v-1.7c.84,.04,2.14,.06,3.18,.06h4.26v-.98h-2.56c-1.02,0-2.34,.02-3.18,.06v-1.68c.84,.02,2.16,.06,3.18,.06h2.56v-.94h-3.54c-1.04,0-2.36,.04-3.2,.08v-1.7c.84,.04,2.16,.06,3.2,.06h1.22c-.24-.6-.54-1.16-.88-1.7h-.82c-1.1,0-2.9,.02-3.98,.06v-1.82c.9,.04,2.36,.06,3.48,.06-.4-.66-.7-1.04-1.46-1.88l1.36-1.06c1.12,1.06,1.4,1.38,2.14,2.58l-.56,.36h1.48v-1.96l-.02-1.28,1.88,.14c.24,.02,.38,.08,.38,.2s-.12,.24-.4,.4v2.5h1.46v-1.96c0-.54,0-.98-.02-1.28l1.9,.14c.22,.02,.36,.08,.36,.2s-.12,.24-.4,.4v2.5h.8c.62-1.24,.82-1.82,1.08-2.88l1.94,.7c.12,.04,.22,.14,.22,.22,0,.14-.06,.18-.46,.32q-.12,.24-.6,1.22c-.06,.12-.14,.26-.24,.42,1.22,0,2.74-.02,3.68-.06v1.82c-1.06-.04-2.76-.06-3.98-.06h-1.3c.26,.08,.32,.18,.32,.26,0,.12-.1,.18-.44,.28q-.14,.26-.6,1.16h1.56c.92,0,2.32-.02,3.18-.06v1.7c-.86-.04-2.26-.08-3.18-.08h-3.72v.94h2.72c.92,0,2.34-.04,3.2-.06v1.68c-.86-.04-2.28-.06-3.2-.06h-2.72v.98h4.5c.92,0,2.32-.02,3.18-.06v1.7c-.86-.04-2.26-.06-3.18-.06h-2.96c1.84,1.3,3.9,2.1,7.08,2.8-.46,.74-.56,.96-.9,1.82-2-.5-3.38-1.04-5.06-1.94-1.06-.6-1.66-1.02-2.66-1.96v1Zm.3-8.34c.26-.56,.52-1.12,.7-1.7h-4.06c.38,.52,.68,1.1,.92,1.7h2.44Z"/></g><g><g><path class="cls-2" d="M75.19,79.92c.56,.58,1.22,1.06,2.08,1.52,1.44,.76,3.02,1.22,5.9,1.72-.44,.56-.62,.82-.72,1.02q-.32,.64-.46,.86c-2.88-.6-4.66-1.28-6.24-2.34-1.04-.7-1.78-1.4-2.4-2.32-.2,.36-.4,.68-.64,.98-1.52,1.9-4.18,3.28-7.66,3.94-.3-.84-.44-1.1-.88-1.76,2.84-.56,4.98-1.38,6.16-2.36,.42-.36,.78-.76,1.1-1.26h-3.18c-1,0-2.74,.04-3.6,.08v-2c.82,.02,2.56,.06,3.6,.06h3.96c.1-.36,.16-.72,.22-1.1h-2.9c-.66,0-1.8,.02-2.4,.04v-1.88c.6,.02,1.62,.04,2.4,.04h3.1c.02-.32,.02-.64,.04-.96h-3.26c-.84,0-1.96,.02-2.8,.04v-1.88c.78,.04,1.92,.06,2.8,.06h3.26c-.02-.9-.04-1.52-.08-2.06l2,.22c.26,.02,.42,.14,.42,.28,0,.12-.12,.22-.42,.34v1.22h3.22c.82,0,2.1-.02,2.8-.06v1.88c-.74-.02-2.02-.04-2.8-.04h-3.22v.2c0,.26,0,.52-.02,.76h3.14c.76,0,1.8-.02,2.4-.04v1.88c-.62-.02-1.74-.04-2.4-.04h-3.3c-.04,.36-.12,.74-.2,1.1h4.82c1.1,0,2.68-.04,3.58-.06v2c-.94-.04-2.52-.08-3.58-.08h-3.84Zm-2.54-11.94c0-.54,0-.98-.02-1.28l2.02,.14c.22,.02,.36,.08,.36,.2s-.1,.24-.38,.4v1.12h3.76c1.36,0,2.92-.04,3.96-.1-.04,.72-.04,1.1-.04,1.54v.52c0,.44,.02,.96,.06,1.54h-2.08c.04-.5,.06-1.14,.06-1.54v-.26h-13.54v.26c0,.4,.02,1.04,.06,1.54h-2.08c.04-.58,.06-1.1,.06-1.54v-.52c0-.44,0-.8-.04-1.54,1.04,.06,2.6,.1,3.98,.1h3.86v-.58Z"/><path class="cls-2" d="M93.79,73.04c-.26,2.84-.74,4.66-1.52,6.22-1,1.94-2.38,3.36-4.54,4.64-.64,.38-1.06,.62-2.14,1.16l-.2-.36c-.38-.72-.48-.88-1.04-1.5,4.84-2.2,6.74-4.54,7.3-10.12l-2.82,.06c-1.96,.04-2.28,.04-3.6,.1l-.04-2.06c.3,.02,1.5,.04,3.58,.04l3.02-.04,.06-2.8c0-.48,0-1.08-.04-1.5l2.28,.18c.34,.02,.54,.14,.54,.34,0,.18-.14,.3-.6,.56-.02,1.18-.06,2.22-.12,3.18l5.9-.1,.32-.38,1.48,1.18c.2,.14,.24,.24,.24,.36,0,.16-.04,.22-.44,.4-.02,1.1-.04,1.6-.04,2.36-.04,5.5-.4,7.74-1.44,8.78-.86,.86-1.64,1.02-5.18,1.04-.14-1.02-.28-1.5-.62-2.26l.36,.02c.52,.02,1.06,.02,1.64,.02,1.68,0,2.14-.18,2.52-1,.46-1,.64-3.4,.7-8.64l-5.56,.12Z"/><path class="cls-2" d="M109.11,74.8c.98,.66,1.78,1.3,2.62,2.14l-1.14,1.78c-.42-.56-.96-1.16-1.48-1.66v2.42c0,2.62,.04,4.56,.1,5.84h-2.08c.06-1.3,.1-3.26,.1-5.84v-1.78c-.12,.32-.22,.62-.38,.98-.54,1.32-.94,2.08-1.7,3.28-.58-1.14-.76-1.46-1.16-1.96,1.36-2,2.26-4.26,2.94-7.26h-1c-.54,0-1.18,.02-1.6,.04v-1.9c.44,.02,1.16,.04,1.6,.04h1.3c-.02-2.22-.06-3.6-.12-4.1l2.1,.16c.18,0,.3,.08,.3,.2,0,.1-.1,.22-.36,.38-.02,.58-.02,.68-.04,3.36h1.12c.44,0,1.16-.02,1.6-.04v1.9c-.42-.02-1.06-.04-1.6-.04h-1.12v2.06Zm5.6,10.16h-1.96c.04-.8,.06-1.96,.06-3.52v-10.28c0-1.2-.04-2.54-.06-3.18,.36,.04,.7,.04,1.18,.04h6.9c.46,0,.8,0,1.18-.04q-.04,.66-.06,3.18v10.06c0,1.58,.02,2.76,.06,3.5h-1.98v-.94h-5.32v1.18Zm5.32-12.36v-2.74h-5.32v2.74h5.32Zm-5.32,4.72h5.32v-2.88h-5.32v2.88Zm0,4.62h5.32v-2.78h-5.32v2.78Z"/><path class="cls-2" d="M138.47,69.02c1.24,0,2.96-.02,4-.08v1.96c-1.04-.06-2.84-.08-4-.08h-11.16v4.82c0,4-.68,6.72-2.28,9.22-.56-.9-.64-1.04-1.2-1.68,1.04-1.82,1.5-4.14,1.5-7.68v-4.74c0-.62-.02-1.38-.06-1.76,.68,.02,1.34,.02,2.2,.02h5.16v-1.08c0-.56-.02-1-.04-1.3l2.06,.14c.24,.02,.36,.08,.36,.2,0,.14-.1,.26-.4,.4v1.64h3.86Zm-8,8.02c.12,.04,.2,.12,.2,.22,0,.12-.06,.18-.34,.26-.54,2.92-.78,3.7-1.74,5.58-.82-.72-.92-.8-1.58-1.14,.94-1.8,1.34-3.24,1.58-5.46l1.88,.54Zm2.82-2.68c.18,0,.32,.12,.32,.24,0,.14-.12,.24-.42,.36-.02,.26-.04,.54-.04,.86v6.2c0,.48,.1,.62,.46,.7,.24,.04,1.16,.12,1.6,.12,2.64,0,2.74-.1,2.74-3.04,.98,.28,1.32,.36,1.92,.46-.06,2.6-.32,3.48-1.16,3.94-.7,.4-1.42,.5-3.92,.5-3.02,0-3.56-.36-3.56-2.36v-6.32c0-1.06-.02-1.54-.06-1.84l2.12,.18Zm.68-3.18c1.48,1.02,2.44,1.92,3.7,3.48l-1.5,1.3c-1.14-1.64-1.9-2.44-3.34-3.6l1.14-1.18Zm5.52,4.68c1.74,1.66,2.9,3.26,3.8,5.28l-1.68,1.16c-.88-2.04-1.88-3.62-3.4-5.34l1.28-1.1Z"/><path class="cls-2" d="M154.79,67.28c.28,.1,.4,.2,.4,.32,0,.16,0,.18-.48,.3,1.02,1.58,1.9,2.58,3.16,3.58,1.48,1.2,3.08,2.08,5.34,3q-.72,.86-1.22,1.9c-2.58-1.24-3.54-1.82-5.16-3.16-1.5-1.24-2.04-1.82-3.28-3.78-.98,1.5-1.72,2.36-2.98,3.52-1.6,1.5-2.84,2.38-5.46,3.9-.46-.94-.66-1.26-1.18-1.88,2.32-1.2,3.66-2.12,5.22-3.56,1.56-1.42,2.46-2.56,3.8-4.8l1.84,.66Zm-1.94,7.38c0-.92,0-1.16-.04-1.86l2.14,.14c.22,.02,.36,.08,.36,.2s-.12,.24-.38,.4v3.26h2.84c.76,0,1.78-.02,2.38-.04v1.96c-.6-.04-1.72-.06-2.38-.06h-2.84v4.22h3.62c1.26,0,2.96-.04,3.98-.08v2.06c-1.06-.04-2.76-.06-3.98-.06h-9.86c-1.1,0-2.9,.02-3.98,.06v-2.06c.86,.04,2.28,.06,3.4,.08v-4.6c0-.92,0-1.16-.04-1.84l2.1,.12c.22,.02,.36,.1,.36,.2,0,.12-.12,.24-.4,.4v5.72h2.72v-8.22Z"/><path class="cls-2" d="M174.45,81.78c0,1.52,.02,2.8,.06,3.52h-1.96c.04-.78,.06-1.9,.06-3.52v-1.06c-1.16,1.02-1.92,1.54-3.2,2.24-1.52,.82-2.56,1.24-4.58,1.86-.34-.9-.38-1-.84-1.76,3.02-.8,5.12-1.72,6.9-3h-2.54c-1.04,0-2.34,.02-3.18,.06v-1.7c.84,.04,2.14,.06,3.18,.06h4.26v-.98h-2.56c-1.02,0-2.34,.02-3.18,.06v-1.68c.84,.02,2.16,.06,3.18,.06h2.56v-.94h-3.54c-1.04,0-2.36,.04-3.2,.08v-1.7c.84,.04,2.16,.06,3.2,.06h1.22c-.24-.6-.54-1.16-.88-1.7h-.82c-1.1,0-2.9,.02-3.98,.06v-1.82c.9,.04,2.36,.06,3.48,.06-.4-.66-.7-1.04-1.46-1.88l1.36-1.06c1.12,1.06,1.4,1.38,2.14,2.58l-.56,.36h1.48v-1.96l-.02-1.28,1.88,.14c.24,.02,.38,.08,.38,.2s-.12,.24-.4,.4v2.5h1.46v-1.96c0-.54,0-.98-.02-1.28l1.9,.14c.22,.02,.36,.08,.36,.2s-.12,.24-.4,.4v2.5h.8c.62-1.24,.82-1.82,1.08-2.88l1.94,.7c.12,.04,.22,.14,.22,.22,0,.14-.06,.18-.46,.32q-.12,.24-.6,1.22c-.06,.12-.14,.26-.24,.42,1.22,0,2.74-.02,3.68-.06v1.82c-1.06-.04-2.76-.06-3.98-.06h-1.3c.26,.08,.32,.18,.32,.26,0,.12-.1,.18-.44,.28q-.14,.26-.6,1.16h1.56c.92,0,2.32-.02,3.18-.06v1.7c-.86-.04-2.26-.08-3.18-.08h-3.72v.94h2.72c.92,0,2.34-.04,3.2-.06v1.68c-.86-.04-2.28-.06-3.2-.06h-2.72v.98h4.5c.92,0,2.32-.02,3.18-.06v1.7c-.86-.04-2.26-.06-3.18-.06h-2.96c1.84,1.3,3.9,2.1,7.08,2.8-.46,.74-.56,.96-.9,1.82-2-.5-3.38-1.04-5.06-1.94-1.06-.6-1.66-1.02-2.66-1.96v1Zm.3-8.34c.26-.56,.52-1.12,.7-1.7h-4.06c.38,.52,.68,1.1,.92,1.7h2.44Z"/></g><g><path class="cls-16" d="M75.19,79.92c.56,.58,1.22,1.06,2.08,1.52,1.44,.76,3.02,1.22,5.9,1.72-.44,.56-.62,.82-.72,1.02q-.32,.64-.46,.86c-2.88-.6-4.66-1.28-6.24-2.34-1.04-.7-1.78-1.4-2.4-2.32-.2,.36-.4,.68-.64,.98-1.52,1.9-4.18,3.28-7.66,3.94-.3-.84-.44-1.1-.88-1.76,2.84-.56,4.98-1.38,6.16-2.36,.42-.36,.78-.76,1.1-1.26h-3.18c-1,0-2.74,.04-3.6,.08v-2c.82,.02,2.56,.06,3.6,.06h3.96c.1-.36,.16-.72,.22-1.1h-2.9c-.66,0-1.8,.02-2.4,.04v-1.88c.6,.02,1.62,.04,2.4,.04h3.1c.02-.32,.02-.64,.04-.96h-3.26c-.84,0-1.96,.02-2.8,.04v-1.88c.78,.04,1.92,.06,2.8,.06h3.26c-.02-.9-.04-1.52-.08-2.06l2,.22c.26,.02,.42,.14,.42,.28,0,.12-.12,.22-.42,.34v1.22h3.22c.82,0,2.1-.02,2.8-.06v1.88c-.74-.02-2.02-.04-2.8-.04h-3.22v.2c0,.26,0,.52-.02,.76h3.14c.76,0,1.8-.02,2.4-.04v1.88c-.62-.02-1.74-.04-2.4-.04h-3.3c-.04,.36-.12,.74-.2,1.1h4.82c1.1,0,2.68-.04,3.58-.06v2c-.94-.04-2.52-.08-3.58-.08h-3.84Zm-2.54-11.94c0-.54,0-.98-.02-1.28l2.02,.14c.22,.02,.36,.08,.36,.2s-.1,.24-.38,.4v1.12h3.76c1.36,0,2.92-.04,3.96-.1-.04,.72-.04,1.1-.04,1.54v.52c0,.44,.02,.96,.06,1.54h-2.08c.04-.5,.06-1.14,.06-1.54v-.26h-13.54v.26c0,.4,.02,1.04,.06,1.54h-2.08c.04-.58,.06-1.1,.06-1.54v-.52c0-.44,0-.8-.04-1.54,1.04,.06,2.6,.1,3.98,.1h3.86v-.58Z"/><path class="cls-17" d="M93.79,73.04c-.26,2.84-.74,4.66-1.52,6.22-1,1.94-2.38,3.36-4.54,4.64-.64,.38-1.06,.62-2.14,1.16l-.2-.36c-.38-.72-.48-.88-1.04-1.5,4.84-2.2,6.74-4.54,7.3-10.12l-2.82,.06c-1.96,.04-2.28,.04-3.6,.1l-.04-2.06c.3,.02,1.5,.04,3.58,.04l3.02-.04,.06-2.8c0-.48,0-1.08-.04-1.5l2.28,.18c.34,.02,.54,.14,.54,.34,0,.18-.14,.3-.6,.56-.02,1.18-.06,2.22-.12,3.18l5.9-.1,.32-.38,1.48,1.18c.2,.14,.24,.24,.24,.36,0,.16-.04,.22-.44,.4-.02,1.1-.04,1.6-.04,2.36-.04,5.5-.4,7.74-1.44,8.78-.86,.86-1.64,1.02-5.18,1.04-.14-1.02-.28-1.5-.62-2.26l.36,.02c.52,.02,1.06,.02,1.64,.02,1.68,0,2.14-.18,2.52-1,.46-1,.64-3.4,.7-8.64l-5.56,.12Z"/><path class="cls-18" d="M109.11,74.8c.98,.66,1.78,1.3,2.62,2.14l-1.14,1.78c-.42-.56-.96-1.16-1.48-1.66v2.42c0,2.62,.04,4.56,.1,5.84h-2.08c.06-1.3,.1-3.26,.1-5.84v-1.78c-.12,.32-.22,.62-.38,.98-.54,1.32-.94,2.08-1.7,3.28-.58-1.14-.76-1.46-1.16-1.96,1.36-2,2.26-4.26,2.94-7.26h-1c-.54,0-1.18,.02-1.6,.04v-1.9c.44,.02,1.16,.04,1.6,.04h1.3c-.02-2.22-.06-3.6-.12-4.1l2.1,.16c.18,0,.3,.08,.3,.2,0,.1-.1,.22-.36,.38-.02,.58-.02,.68-.04,3.36h1.12c.44,0,1.16-.02,1.6-.04v1.9c-.42-.02-1.06-.04-1.6-.04h-1.12v2.06Zm5.6,10.16h-1.96c.04-.8,.06-1.96,.06-3.52v-10.28c0-1.2-.04-2.54-.06-3.18,.36,.04,.7,.04,1.18,.04h6.9c.46,0,.8,0,1.18-.04q-.04,.66-.06,3.18v10.06c0,1.58,.02,2.76,.06,3.5h-1.98v-.94h-5.32v1.18Zm5.32-12.36v-2.74h-5.32v2.74h5.32Zm-5.32,4.72h5.32v-2.88h-5.32v2.88Zm0,4.62h5.32v-2.78h-5.32v2.78Z"/><path class="cls-15" d="M138.47,69.02c1.24,0,2.96-.02,4-.08v1.96c-1.04-.06-2.84-.08-4-.08h-11.16v4.82c0,4-.68,6.72-2.28,9.22-.56-.9-.64-1.04-1.2-1.68,1.04-1.82,1.5-4.14,1.5-7.68v-4.74c0-.62-.02-1.38-.06-1.76,.68,.02,1.34,.02,2.2,.02h5.16v-1.08c0-.56-.02-1-.04-1.3l2.06,.14c.24,.02,.36,.08,.36,.2,0,.14-.1,.26-.4,.4v1.64h3.86Zm-8,8.02c.12,.04,.2,.12,.2,.22,0,.12-.06,.18-.34,.26-.54,2.92-.78,3.7-1.74,5.58-.82-.72-.92-.8-1.58-1.14,.94-1.8,1.34-3.24,1.58-5.46l1.88,.54Zm2.82-2.68c.18,0,.32,.12,.32,.24,0,.14-.12,.24-.42,.36-.02,.26-.04,.54-.04,.86v6.2c0,.48,.1,.62,.46,.7,.24,.04,1.16,.12,1.6,.12,2.64,0,2.74-.1,2.74-3.04,.98,.28,1.32,.36,1.92,.46-.06,2.6-.32,3.48-1.16,3.94-.7,.4-1.42,.5-3.92,.5-3.02,0-3.56-.36-3.56-2.36v-6.32c0-1.06-.02-1.54-.06-1.84l2.12,.18Zm.68-3.18c1.48,1.02,2.44,1.92,3.7,3.48l-1.5,1.3c-1.14-1.64-1.9-2.44-3.34-3.6l1.14-1.18Zm5.52,4.68c1.74,1.66,2.9,3.26,3.8,5.28l-1.68,1.16c-.88-2.04-1.88-3.62-3.4-5.34l1.28-1.1Z"/><path class="cls-11" d="M154.79,67.28c.28,.1,.4,.2,.4,.32,0,.16,0,.18-.48,.3,1.02,1.58,1.9,2.58,3.16,3.58,1.48,1.2,3.08,2.08,5.34,3q-.72,.86-1.22,1.9c-2.58-1.24-3.54-1.82-5.16-3.16-1.5-1.24-2.04-1.82-3.28-3.78-.98,1.5-1.72,2.36-2.98,3.52-1.6,1.5-2.84,2.38-5.46,3.9-.46-.94-.66-1.26-1.18-1.88,2.32-1.2,3.66-2.12,5.22-3.56,1.56-1.42,2.46-2.56,3.8-4.8l1.84,.66Zm-1.94,7.38c0-.92,0-1.16-.04-1.86l2.14,.14c.22,.02,.36,.08,.36,.2s-.12,.24-.38,.4v3.26h2.84c.76,0,1.78-.02,2.38-.04v1.96c-.6-.04-1.72-.06-2.38-.06h-2.84v4.22h3.62c1.26,0,2.96-.04,3.98-.08v2.06c-1.06-.04-2.76-.06-3.98-.06h-9.86c-1.1,0-2.9,.02-3.98,.06v-2.06c.86,.04,2.28,.06,3.4,.08v-4.6c0-.92,0-1.16-.04-1.84l2.1,.12c.22,.02,.36,.1,.36,.2,0,.12-.12,.24-.4,.4v5.72h2.72v-8.22Z"/><path class="cls-8" d="M174.45,81.78c0,1.52,.02,2.8,.06,3.52h-1.96c.04-.78,.06-1.9,.06-3.52v-1.06c-1.16,1.02-1.92,1.54-3.2,2.24-1.52,.82-2.56,1.24-4.58,1.86-.34-.9-.38-1-.84-1.76,3.02-.8,5.12-1.72,6.9-3h-2.54c-1.04,0-2.34,.02-3.18,.06v-1.7c.84,.04,2.14,.06,3.18,.06h4.26v-.98h-2.56c-1.02,0-2.34,.02-3.18,.06v-1.68c.84,.02,2.16,.06,3.18,.06h2.56v-.94h-3.54c-1.04,0-2.36,.04-3.2,.08v-1.7c.84,.04,2.16,.06,3.2,.06h1.22c-.24-.6-.54-1.16-.88-1.7h-.82c-1.1,0-2.9,.02-3.98,.06v-1.82c.9,.04,2.36,.06,3.48,.06-.4-.66-.7-1.04-1.46-1.88l1.36-1.06c1.12,1.06,1.4,1.38,2.14,2.58l-.56,.36h1.48v-1.96l-.02-1.28,1.88,.14c.24,.02,.38,.08,.38,.2s-.12,.24-.4,.4v2.5h1.46v-1.96c0-.54,0-.98-.02-1.28l1.9,.14c.22,.02,.36,.08,.36,.2s-.12,.24-.4,.4v2.5h.8c.62-1.24,.82-1.82,1.08-2.88l1.94,.7c.12,.04,.22,.14,.22,.22,0,.14-.06,.18-.46,.32q-.12,.24-.6,1.22c-.06,.12-.14,.26-.24,.42,1.22,0,2.74-.02,3.68-.06v1.82c-1.06-.04-2.76-.06-3.98-.06h-1.3c.26,.08,.32,.18,.32,.26,0,.12-.1,.18-.44,.28q-.14,.26-.6,1.16h1.56c.92,0,2.32-.02,3.18-.06v1.7c-.86-.04-2.26-.08-3.18-.08h-3.72v.94h2.72c.92,0,2.34-.04,3.2-.06v1.68c-.86-.04-2.28-.06-3.2-.06h-2.72v.98h4.5c.92,0,2.32-.02,3.18-.06v1.7c-.86-.04-2.26-.06-3.18-.06h-2.96c1.84,1.3,3.9,2.1,7.08,2.8-.46,.74-.56,.96-.9,1.82-2-.5-3.38-1.04-5.06-1.94-1.06-.6-1.66-1.02-2.66-1.96v1Zm.3-8.34c.26-.56,.52-1.12,.7-1.7h-4.06c.38,.52,.68,1.1,.92,1.7h2.44Z"/></g></g><g><g><path class="cls-2" d="M66.42,129.34c.56,.58,1.22,1.06,2.08,1.52,1.44,.76,3.02,1.22,5.9,1.72-.44,.56-.62,.82-.72,1.02q-.32,.64-.46,.86c-2.88-.6-4.66-1.28-6.24-2.34-1.04-.7-1.78-1.4-2.4-2.32-.2,.36-.4,.68-.64,.98-1.52,1.9-4.18,3.28-7.66,3.94-.3-.84-.44-1.1-.88-1.76,2.84-.56,4.98-1.38,6.16-2.36,.42-.36,.78-.76,1.1-1.26h-3.18c-1,0-2.74,.04-3.6,.08v-2c.82,.02,2.56,.06,3.6,.06h3.96c.1-.36,.16-.72,.22-1.1h-2.9c-.66,0-1.8,.02-2.4,.04v-1.88c.6,.02,1.62,.04,2.4,.04h3.1c.02-.32,.02-.64,.04-.96h-3.26c-.84,0-1.96,.02-2.8,.04v-1.88c.78,.04,1.92,.06,2.8,.06h3.26c-.02-.9-.04-1.52-.08-2.06l2,.22c.26,.02,.42,.14,.42,.28,0,.12-.12,.22-.42,.34v1.22h3.22c.82,0,2.1-.02,2.8-.06v1.88c-.74-.02-2.02-.04-2.8-.04h-3.22v.2c0,.26,0,.52-.02,.76h3.14c.76,0,1.8-.02,2.4-.04v1.88c-.62-.02-1.74-.04-2.4-.04h-3.3c-.04,.36-.12,.74-.2,1.1h4.82c1.1,0,2.68-.04,3.58-.06v2c-.94-.04-2.52-.08-3.58-.08h-3.84Zm-2.54-11.94c0-.54,0-.98-.02-1.28l2.02,.14c.22,.02,.36,.08,.36,.2s-.1,.24-.38,.4v1.12h3.76c1.36,0,2.92-.04,3.96-.1-.04,.72-.04,1.1-.04,1.54v.52c0,.44,.02,.96,.06,1.54h-2.08c.04-.5,.06-1.14,.06-1.54v-.26h-13.54v.26c0,.4,.02,1.04,.06,1.54h-2.08c.04-.58,.06-1.1,.06-1.54v-.52c0-.44,0-.8-.04-1.54,1.04,.06,2.6,.1,3.98,.1h3.86v-.58Z"/><path class="cls-2" d="M85.02,122.46c-.26,2.84-.74,4.66-1.52,6.22-1,1.94-2.38,3.36-4.54,4.64-.64,.38-1.06,.62-2.14,1.16l-.2-.36c-.38-.72-.48-.88-1.04-1.5,4.84-2.2,6.74-4.54,7.3-10.12l-2.82,.06c-1.96,.04-2.28,.04-3.6,.1l-.04-2.06c.3,.02,1.5,.04,3.58,.04l3.02-.04,.06-2.8c0-.48,0-1.08-.04-1.5l2.28,.18c.34,.02,.54,.14,.54,.34,0,.18-.14,.3-.6,.56-.02,1.18-.06,2.22-.12,3.18l5.9-.1,.32-.38,1.48,1.18c.2,.14,.24,.24,.24,.36,0,.16-.04,.22-.44,.4-.02,1.1-.04,1.6-.04,2.36-.04,5.5-.4,7.74-1.44,8.78-.86,.86-1.64,1.02-5.18,1.04-.14-1.02-.28-1.5-.62-2.26l.36,.02c.52,.02,1.06,.02,1.64,.02,1.68,0,2.14-.18,2.52-1,.46-1,.64-3.4,.7-8.64l-5.56,.12Z"/><path class="cls-2" d="M105.74,121.82c2.36,.88,4.56,2.12,6.72,3.4l-1.26,1.98c-1.72-1.24-3.54-2.36-5.46-3.28v5.8c0,2.06,.04,3.68,.08,4.68h-2.22c.06-1.1,.08-2.64,.08-4.68v-10.2h-4.1c-1.1,0-2.9,.04-3.98,.08v-2.04c1.04,.04,2.84,.08,3.98,.08h10.52c1.26,0,2.96-.04,3.98-.08v2.04c-1.06-.04-2.76-.08-3.98-.08h-4.36v2.3Z"/><path class="cls-2" d="M129.98,123.9l.28-.42,1.46,1.26c.1,.08,.16,.2,.16,.28,0,.18-.14,.32-.48,.44-.04,.4-.1,1.08-.26,2.9-.18,1.86-.68,3.76-1.24,4.64-.82,1.26-1.88,1.62-4.82,1.62h-.62c-.08-.68-.1-.76-.14-.94-.02-.1-.08-.3-.16-.62-.04-.12-.1-.34-.16-.58q1.08,.04,1.26,.04c1.8,0,2.26-.12,2.74-.66,.48-.54,.88-1.78,1.08-3.36,.02-.16,.1-1.1,.26-2.78h-5.14c-.1,.4-.2,.8-.34,1.22-1.1,3.58-3.6,6.08-7.54,7.52-.4-.96-.48-1.1-.92-1.74,2.6-1.1,3.72-1.88,4.9-3.38,1.56-2.02,2.22-4.08,2.52-8.16h-3.02c-1.1,0-2.9,.04-3.98,.08v-1.98c1.04,.04,2.84,.08,3.98,.08h3.9v-1.76c0-.56,0-1-.02-1.28l2.08,.14c.24,0,.36,.08,.36,.2s-.1,.24-.4,.4v2.3h4.14c1.26,0,2.98-.04,4-.08v1.98c-1.08-.04-2.78-.08-4-.08h-4.98c-.1,.9-.18,1.82-.32,2.72h5.42Z"/><path class="cls-2" d="M146.02,116.7c.28,.1,.4,.2,.4,.32,0,.16,0,.18-.48,.3,1.02,1.58,1.9,2.58,3.16,3.58,1.48,1.2,3.08,2.08,5.34,3q-.72,.86-1.22,1.9c-2.58-1.24-3.54-1.82-5.16-3.16-1.5-1.24-2.04-1.82-3.28-3.78-.98,1.5-1.72,2.36-2.98,3.52-1.6,1.5-2.84,2.38-5.46,3.9-.46-.94-.66-1.26-1.18-1.88,2.32-1.2,3.66-2.12,5.22-3.56,1.56-1.42,2.46-2.56,3.8-4.8l1.84,.66Zm-1.94,7.38c0-.92,0-1.16-.04-1.86l2.14,.14c.22,.02,.36,.08,.36,.2s-.12,.24-.38,.4v3.26h2.84c.76,0,1.78-.02,2.38-.04v1.96c-.6-.04-1.72-.06-2.38-.06h-2.84v4.22h3.62c1.26,0,2.96-.04,3.98-.08v2.06c-1.06-.04-2.76-.06-3.98-.06h-9.86c-1.1,0-2.9,.02-3.98,.06v-2.06c.86,.04,2.28,.06,3.4,.08v-4.6c0-.92,0-1.16-.04-1.84l2.1,.12c.22,.02,.36,.1,.36,.2,0,.12-.12,.24-.4,.4v5.72h2.72v-8.22Z"/><path class="cls-2" d="M165.68,131.2c0,1.52,.02,2.8,.06,3.52h-1.96c.04-.78,.06-1.9,.06-3.52v-1.06c-1.16,1.02-1.92,1.54-3.2,2.24-1.52,.82-2.56,1.24-4.58,1.86-.34-.9-.38-1-.84-1.76,3.02-.8,5.12-1.72,6.9-3h-2.54c-1.04,0-2.34,.02-3.18,.06v-1.7c.84,.04,2.14,.06,3.18,.06h4.26v-.98h-2.56c-1.02,0-2.34,.02-3.18,.06v-1.68c.84,.02,2.16,.06,3.18,.06h2.56v-.94h-3.54c-1.04,0-2.36,.04-3.2,.08v-1.7c.84,.04,2.16,.06,3.2,.06h1.22c-.24-.6-.54-1.16-.88-1.7h-.82c-1.1,0-2.9,.02-3.98,.06v-1.82c.9,.04,2.36,.06,3.48,.06-.4-.66-.7-1.04-1.46-1.88l1.36-1.06c1.12,1.06,1.4,1.38,2.14,2.58l-.56,.36h1.48v-1.96l-.02-1.28,1.88,.14c.24,.02,.38,.08,.38,.2s-.12,.24-.4,.4v2.5h1.46v-1.96c0-.54,0-.98-.02-1.28l1.9,.14c.22,.02,.36,.08,.36,.2s-.12,.24-.4,.4v2.5h.8c.62-1.24,.82-1.82,1.08-2.88l1.94,.7c.12,.04,.22,.14,.22,.22,0,.14-.06,.18-.46,.32q-.12,.24-.6,1.22c-.06,.12-.14,.26-.24,.42,1.22,0,2.74-.02,3.68-.06v1.82c-1.06-.04-2.76-.06-3.98-.06h-1.3c.26,.08,.32,.18,.32,.26,0,.12-.1,.18-.44,.28q-.14,.26-.6,1.16h1.56c.92,0,2.32-.02,3.18-.06v1.7c-.86-.04-2.26-.08-3.18-.08h-3.72v.94h2.72c.92,0,2.34-.04,3.2-.06v1.68c-.86-.04-2.28-.06-3.2-.06h-2.72v.98h4.5c.92,0,2.32-.02,3.18-.06v1.7c-.86-.04-2.26-.06-3.18-.06h-2.96c1.84,1.3,3.9,2.1,7.08,2.8-.46,.74-.56,.96-.9,1.82-2-.5-3.38-1.04-5.06-1.94-1.06-.6-1.66-1.02-2.66-1.96v1Zm.3-8.34c.26-.56,.52-1.12,.7-1.7h-4.06c.38,.52,.68,1.1,.92,1.7h2.44Z"/></g><g><path class="cls-12" d="M66.42,129.34c.56,.58,1.22,1.06,2.08,1.52,1.44,.76,3.02,1.22,5.9,1.72-.44,.56-.62,.82-.72,1.02q-.32,.64-.46,.86c-2.88-.6-4.66-1.28-6.24-2.34-1.04-.7-1.78-1.4-2.4-2.32-.2,.36-.4,.68-.64,.98-1.52,1.9-4.18,3.28-7.66,3.94-.3-.84-.44-1.1-.88-1.76,2.84-.56,4.98-1.38,6.16-2.36,.42-.36,.78-.76,1.1-1.26h-3.18c-1,0-2.74,.04-3.6,.08v-2c.82,.02,2.56,.06,3.6,.06h3.96c.1-.36,.16-.72,.22-1.1h-2.9c-.66,0-1.8,.02-2.4,.04v-1.88c.6,.02,1.62,.04,2.4,.04h3.1c.02-.32,.02-.64,.04-.96h-3.26c-.84,0-1.96,.02-2.8,.04v-1.88c.78,.04,1.92,.06,2.8,.06h3.26c-.02-.9-.04-1.52-.08-2.06l2,.22c.26,.02,.42,.14,.42,.28,0,.12-.12,.22-.42,.34v1.22h3.22c.82,0,2.1-.02,2.8-.06v1.88c-.74-.02-2.02-.04-2.8-.04h-3.22v.2c0,.26,0,.52-.02,.76h3.14c.76,0,1.8-.02,2.4-.04v1.88c-.62-.02-1.74-.04-2.4-.04h-3.3c-.04,.36-.12,.74-.2,1.1h4.82c1.1,0,2.68-.04,3.58-.06v2c-.94-.04-2.52-.08-3.58-.08h-3.84Zm-2.54-11.94c0-.54,0-.98-.02-1.28l2.02,.14c.22,.02,.36,.08,.36,.2s-.1,.24-.38,.4v1.12h3.76c1.36,0,2.92-.04,3.96-.1-.04,.72-.04,1.1-.04,1.54v.52c0,.44,.02,.96,.06,1.54h-2.08c.04-.5,.06-1.14,.06-1.54v-.26h-13.54v.26c0,.4,.02,1.04,.06,1.54h-2.08c.04-.58,.06-1.1,.06-1.54v-.52c0-.44,0-.8-.04-1.54,1.04,.06,2.6,.1,3.98,.1h3.86v-.58Z"/><path class="cls-10" d="M85.02,122.46c-.26,2.84-.74,4.66-1.52,6.22-1,1.94-2.38,3.36-4.54,4.64-.64,.38-1.06,.62-2.14,1.16l-.2-.36c-.38-.72-.48-.88-1.04-1.5,4.84-2.2,6.74-4.54,7.3-10.12l-2.82,.06c-1.96,.04-2.28,.04-3.6,.1l-.04-2.06c.3,.02,1.5,.04,3.58,.04l3.02-.04,.06-2.8c0-.48,0-1.08-.04-1.5l2.28,.18c.34,.02,.54,.14,.54,.34,0,.18-.14,.3-.6,.56-.02,1.18-.06,2.22-.12,3.18l5.9-.1,.32-.38,1.48,1.18c.2,.14,.24,.24,.24,.36,0,.16-.04,.22-.44,.4-.02,1.1-.04,1.6-.04,2.36-.04,5.5-.4,7.74-1.44,8.78-.86,.86-1.64,1.02-5.18,1.04-.14-1.02-.28-1.5-.62-2.26l.36,.02c.52,.02,1.06,.02,1.64,.02,1.68,0,2.14-.18,2.52-1,.46-1,.64-3.4,.7-8.64l-5.56,.12Z"/><path class="cls-7" d="M105.74,121.82c2.36,.88,4.56,2.12,6.72,3.4l-1.26,1.98c-1.72-1.24-3.54-2.36-5.46-3.28v5.8c0,2.06,.04,3.68,.08,4.68h-2.22c.06-1.1,.08-2.64,.08-4.68v-10.2h-4.1c-1.1,0-2.9,.04-3.98,.08v-2.04c1.04,.04,2.84,.08,3.98,.08h10.52c1.26,0,2.96-.04,3.98-.08v2.04c-1.06-.04-2.76-.08-3.98-.08h-4.36v2.3Z"/><path class="cls-13" d="M129.98,123.9l.28-.42,1.46,1.26c.1,.08,.16,.2,.16,.28,0,.18-.14,.32-.48,.44-.04,.4-.1,1.08-.26,2.9-.18,1.86-.68,3.76-1.24,4.64-.82,1.26-1.88,1.62-4.82,1.62h-.62c-.08-.68-.1-.76-.14-.94-.02-.1-.08-.3-.16-.62-.04-.12-.1-.34-.16-.58q1.08,.04,1.26,.04c1.8,0,2.26-.12,2.74-.66,.48-.54,.88-1.78,1.08-3.36,.02-.16,.1-1.1,.26-2.78h-5.14c-.1,.4-.2,.8-.34,1.22-1.1,3.58-3.6,6.08-7.54,7.52-.4-.96-.48-1.1-.92-1.74,2.6-1.1,3.72-1.88,4.9-3.38,1.56-2.02,2.22-4.08,2.52-8.16h-3.02c-1.1,0-2.9,.04-3.98,.08v-1.98c1.04,.04,2.84,.08,3.98,.08h3.9v-1.76c0-.56,0-1-.02-1.28l2.08,.14c.24,0,.36,.08,.36,.2s-.1,.24-.4,.4v2.3h4.14c1.26,0,2.98-.04,4-.08v1.98c-1.08-.04-2.78-.08-4-.08h-4.98c-.1,.9-.18,1.82-.32,2.72h5.42Z"/><path class="cls-9" d="M146.02,116.7c.28,.1,.4,.2,.4,.32,0,.16,0,.18-.48,.3,1.02,1.58,1.9,2.58,3.16,3.58,1.48,1.2,3.08,2.08,5.34,3q-.72,.86-1.22,1.9c-2.58-1.24-3.54-1.82-5.16-3.16-1.5-1.24-2.04-1.82-3.28-3.78-.98,1.5-1.72,2.36-2.98,3.52-1.6,1.5-2.84,2.38-5.46,3.9-.46-.94-.66-1.26-1.18-1.88,2.32-1.2,3.66-2.12,5.22-3.56,1.56-1.42,2.46-2.56,3.8-4.8l1.84,.66Zm-1.94,7.38c0-.92,0-1.16-.04-1.86l2.14,.14c.22,.02,.36,.08,.36,.2s-.12,.24-.38,.4v3.26h2.84c.76,0,1.78-.02,2.38-.04v1.96c-.6-.04-1.72-.06-2.38-.06h-2.84v4.22h3.62c1.26,0,2.96-.04,3.98-.08v2.06c-1.06-.04-2.76-.06-3.98-.06h-9.86c-1.1,0-2.9,.02-3.98,.06v-2.06c.86,.04,2.28,.06,3.4,.08v-4.6c0-.92,0-1.16-.04-1.84l2.1,.12c.22,.02,.36,.1,.36,.2,0,.12-.12,.24-.4,.4v5.72h2.72v-8.22Z"/><path class="cls-6" d="M165.68,131.2c0,1.52,.02,2.8,.06,3.52h-1.96c.04-.78,.06-1.9,.06-3.52v-1.06c-1.16,1.02-1.92,1.54-3.2,2.24-1.52,.82-2.56,1.24-4.58,1.86-.34-.9-.38-1-.84-1.76,3.02-.8,5.12-1.72,6.9-3h-2.54c-1.04,0-2.34,.02-3.18,.06v-1.7c.84,.04,2.14,.06,3.18,.06h4.26v-.98h-2.56c-1.02,0-2.34,.02-3.18,.06v-1.68c.84,.02,2.16,.06,3.18,.06h2.56v-.94h-3.54c-1.04,0-2.36,.04-3.2,.08v-1.7c.84,.04,2.16,.06,3.2,.06h1.22c-.24-.6-.54-1.16-.88-1.7h-.82c-1.1,0-2.9,.02-3.98,.06v-1.82c.9,.04,2.36,.06,3.48,.06-.4-.66-.7-1.04-1.46-1.88l1.36-1.06c1.12,1.06,1.4,1.38,2.14,2.58l-.56,.36h1.48v-1.96l-.02-1.28,1.88,.14c.24,.02,.38,.08,.38,.2s-.12,.24-.4,.4v2.5h1.46v-1.96c0-.54,0-.98-.02-1.28l1.9,.14c.22,.02,.36,.08,.36,.2s-.12,.24-.4,.4v2.5h.8c.62-1.24,.82-1.82,1.08-2.88l1.94,.7c.12,.04,.22,.14,.22,.22,0,.14-.06,.18-.46,.32q-.12,.24-.6,1.22c-.06,.12-.14,.26-.24,.42,1.22,0,2.74-.02,3.68-.06v1.82c-1.06-.04-2.76-.06-3.98-.06h-1.3c.26,.08,.32,.18,.32,.26,0,.12-.1,.18-.44,.28q-.14,.26-.6,1.16h1.56c.92,0,2.32-.02,3.18-.06v1.7c-.86-.04-2.26-.08-3.18-.08h-3.72v.94h2.72c.92,0,2.34-.04,3.2-.06v1.68c-.86-.04-2.28-.06-3.2-.06h-2.72v.98h4.5c.92,0,2.32-.02,3.18-.06v1.7c-.86-.04-2.26-.06-3.18-.06h-2.96c1.84,1.3,3.9,2.1,7.08,2.8-.46,.74-.56,.96-.9,1.82-2-.5-3.38-1.04-5.06-1.94-1.06-.6-1.66-1.02-2.66-1.96v1Zm.3-8.34c.26-.56,.52-1.12,.7-1.7h-4.06c.38,.52,.68,1.1,.92,1.7h2.44Z"/></g></g></g></g></svg>