<?xml version="1.0" encoding="UTF-8"?><svg id="_レイヤー_2" xmlns="http://www.w3.org/2000/svg" viewBox="0 0 238.47 165.7"><defs><style>.cls-1{fill:#fff;}.cls-2,.cls-3{fill:#333;}.cls-3,.cls-4{stroke:#333;stroke-miterlimit:10;stroke-width:2px;}.cls-4{fill:none;}</style></defs><g id="_レイヤー_1-2"><g><rect class="cls-2" x="60.74" y="123.7" width="117" height="42" rx="5" ry="5"/><g><path class="cls-1" d="M106.31,141.53c.17,.02,.29,.08,.29,.17,0,.12-.1,.2-.36,.34v6.95c0,1.53,.02,2.74,.05,3.48h-1.73c.03-.77,.05-1.92,.05-3.48v-4.39c-.27,.54-.53,.97-.93,1.63-.39-.85-.56-1.1-1.02-1.62,1.53-2.41,2.5-4.81,3.23-8.02l1.63,.63c.17,.07,.26,.15,.26,.25,0,.12-.07,.17-.41,.27-.48,1.67-.71,2.36-1.29,3.76l.24,.02Zm5.73-.31v-1.44c0-1.67-.02-2.58-.05-3.06l1.75,.12c.19,.02,.31,.08,.31,.17,0,.1-.1,.2-.34,.34-.02,.83-.02,.85-.02,2.43v1.09l2.36-.51,.34-.44,1.29,.94c.07,.05,.14,.15,.14,.25,0,.14,0,.17-.39,.37-.07,4.81-.17,5.61-.59,6.26-.39,.58-.87,.75-2.11,.75h-.32c-.05-.82-.1-1.04-.36-1.73,.32,.02,.48,.03,.63,.03,.53,0,.73-.05,.83-.2,.14-.2,.22-1.36,.24-3.26,0-.54,0-.75,.02-1.29l-2.07,.46v3.54c0,1.22,0,2.38,.03,2.97h-1.73c.05-.7,.05-1.56,.05-2.97v-3.18l-1.79,.39v6.36c0,.73,.02,.73,3.6,.73,1.84,0,2.69-.07,2.94-.22,.2-.12,.29-.51,.29-1.24q0-.12-.02-.78,.41,.15,1.72,.46c0,1.9-.17,2.55-.75,2.99-.51,.37-1.45,.48-4.62,.48-2.43,0-3.72-.1-4.15-.32-.53-.25-.7-.68-.7-1.65v-6.44c-.6,.14-.87,.2-1.6,.37l-.39-1.61c.82-.15,1.48-.29,1.99-.39v-.27c0-1.63-.02-2.21-.08-2.63l1.89,.15c.15,0,.25,.08,.25,.19,0,.14-.1,.22-.34,.32-.02,.53-.03,1.1-.03,1.8v.1l1.79-.39Z"/><path class="cls-1" d="M121.45,141.26l-1.34,.02v-1.6c.37,.02,.99,.03,1.34,.03h1.11v-1.44c0-.77,0-.97-.02-1.56l1.67,.1c.19,.02,.31,.08,.31,.17,0,.12-.1,.2-.34,.34v2.4h1.05l.2-.27,1,.88c.07,.07,.14,.19,.14,.27,0,.14-.05,.19-.39,.27-.32,.7-.66,1.38-1.05,2.02-.29,.48-.61,.92-.95,1.38v.27c1.02,.58,1.55,.97,2.7,2.02l-1.14,1.36c-.68-.75-1.12-1.22-1.56-1.61v2.62c0,1.56,.02,2.72,.05,3.48h-1.72c.03-.77,.05-1.92,.05-3.48v-2.86c-.88,.92-1.28,1.24-2.28,1.99-.05-.14-.1-.26-.14-.34-.08-.24-.27-.65-.54-1.22,2.4-1.85,3.6-3.18,4.66-5.24h-2.8Zm8.5,2.28h-1.46c-.56,0-1.53,.03-2.04,.05v-1.65c.51,.03,1.38,.05,2.04,.05h1.46v-2.55c0-1.34-.02-2.06-.05-2.55l1.77,.12c.19,.02,.29,.07,.29,.17s-.08,.19-.32,.34l-.02,1.92v2.55h1.87c.66,0,1.53-.02,2.04-.05v1.65c-.53-.02-1.48-.05-2.04-.05h-1.87v6.94h1.82c.68,0,1.78-.02,2.38-.05v1.65c-.63-.02-1.73-.03-2.38-.03h-5.9c-.71,0-1.67,.02-2.36,.03v-1.65c.65,.03,1.62,.05,2.36,.05h2.41v-6.94Z"/></g><polygon class="cls-3" points="228.51 50.73 9.96 50.73 18.73 1 237.28 1 228.51 50.73"/><polygon class="cls-4" points="219.74 100.46 1.19 100.46 9.96 50.73 228.51 50.73 219.74 100.46"/><g><path class="cls-1" d="M75.19,30.19c.56,.58,1.22,1.06,2.08,1.52,1.44,.76,3.02,1.22,5.9,1.72-.44,.56-.62,.82-.72,1.02q-.32,.64-.46,.86c-2.88-.6-4.66-1.28-6.24-2.34-1.04-.7-1.78-1.4-2.4-2.32-.2,.36-.4,.68-.64,.98-1.52,1.9-4.18,3.28-7.66,3.94-.3-.84-.44-1.1-.88-1.76,2.84-.56,4.98-1.38,6.16-2.36,.42-.36,.78-.76,1.1-1.26h-3.18c-1,0-2.74,.04-3.6,.08v-2c.82,.02,2.56,.06,3.6,.06h3.96c.1-.36,.16-.72,.22-1.1h-2.9c-.66,0-1.8,.02-2.4,.04v-1.88c.6,.02,1.62,.04,2.4,.04h3.1c.02-.32,.02-.64,.04-.96h-3.26c-.84,0-1.96,.02-2.8,.04v-1.88c.78,.04,1.92,.06,2.8,.06h3.26c-.02-.9-.04-1.52-.08-2.06l2,.22c.26,.02,.42,.14,.42,.28,0,.12-.12,.22-.42,.34v1.22h3.22c.82,0,2.1-.02,2.8-.06v1.88c-.74-.02-2.02-.04-2.8-.04h-3.22v.2c0,.26,0,.52-.02,.76h3.14c.76,0,1.8-.02,2.4-.04v1.88c-.62-.02-1.74-.04-2.4-.04h-3.3c-.04,.36-.12,.74-.2,1.1h4.82c1.1,0,2.68-.04,3.58-.06v2c-.94-.04-2.52-.08-3.58-.08h-3.84Zm-2.54-11.94c0-.54,0-.98-.02-1.28l2.02,.14c.22,.02,.36,.08,.36,.2s-.1,.24-.38,.4v1.12h3.76c1.36,0,2.92-.04,3.96-.1-.04,.72-.04,1.1-.04,1.54v.52c0,.44,.02,.96,.06,1.54h-2.08c.04-.5,.06-1.14,.06-1.54v-.26h-13.54v.26c0,.4,.02,1.04,.06,1.54h-2.08c.04-.58,.06-1.1,.06-1.54v-.52c0-.44,0-.8-.04-1.54,1.04,.06,2.6,.1,3.98,.1h3.86v-.58Z"/><path class="cls-1" d="M93.79,23.31c-.26,2.84-.74,4.66-1.52,6.22-1,1.94-2.38,3.36-4.54,4.64-.64,.38-1.06,.62-2.14,1.16l-.2-.36c-.38-.72-.48-.88-1.04-1.5,4.84-2.2,6.74-4.54,7.3-10.12l-2.82,.06c-1.96,.04-2.28,.04-3.6,.1l-.04-2.06c.3,.02,1.5,.04,3.58,.04l3.02-.04,.06-2.8c0-.48,0-1.08-.04-1.5l2.28,.18c.34,.02,.54,.14,.54,.34,0,.18-.14,.3-.6,.56-.02,1.18-.06,2.22-.12,3.18l5.9-.1,.32-.38,1.48,1.18c.2,.14,.24,.24,.24,.36,0,.16-.04,.22-.44,.4-.02,1.1-.04,1.6-.04,2.36-.04,5.5-.4,7.74-1.44,8.78-.86,.86-1.64,1.02-5.18,1.04-.14-1.02-.28-1.5-.62-2.26l.36,.02c.52,.02,1.06,.02,1.64,.02,1.68,0,2.14-.18,2.52-1,.46-1,.64-3.4,.7-8.64l-5.56,.12Z"/><path class="cls-1" d="M109.11,25.07c.98,.66,1.78,1.3,2.62,2.14l-1.14,1.78c-.42-.56-.96-1.16-1.48-1.66v2.42c0,2.62,.04,4.56,.1,5.84h-2.08c.06-1.3,.1-3.26,.1-5.84v-1.78c-.12,.32-.22,.62-.38,.98-.54,1.32-.94,2.08-1.7,3.28-.58-1.14-.76-1.46-1.16-1.96,1.36-2,2.26-4.26,2.94-7.26h-1c-.54,0-1.18,.02-1.6,.04v-1.9c.44,.02,1.16,.04,1.6,.04h1.3c-.02-2.22-.06-3.6-.12-4.1l2.1,.16c.18,0,.3,.08,.3,.2,0,.1-.1,.22-.36,.38-.02,.58-.02,.68-.04,3.36h1.12c.44,0,1.16-.02,1.6-.04v1.9c-.42-.02-1.06-.04-1.6-.04h-1.12v2.06Zm5.6,10.16h-1.96c.04-.8,.06-1.96,.06-3.52v-10.28c0-1.2-.04-2.54-.06-3.18,.36,.04,.7,.04,1.18,.04h6.9c.46,0,.8,0,1.18-.04q-.04,.66-.06,3.18v10.06c0,1.58,.02,2.76,.06,3.5h-1.98v-.94h-5.32v1.18Zm5.32-12.36v-2.74h-5.32v2.74h5.32Zm-5.32,4.72h5.32v-2.88h-5.32v2.88Zm0,4.62h5.32v-2.78h-5.32v2.78Z"/><path class="cls-1" d="M138.47,19.29c1.24,0,2.96-.02,4-.08v1.96c-1.04-.06-2.84-.08-4-.08h-11.16v4.82c0,4-.68,6.72-2.28,9.22-.56-.9-.64-1.04-1.2-1.68,1.04-1.82,1.5-4.14,1.5-7.68v-4.74c0-.62-.02-1.38-.06-1.76,.68,.02,1.34,.02,2.2,.02h5.16v-1.08c0-.56-.02-1-.04-1.3l2.06,.14c.24,.02,.36,.08,.36,.2,0,.14-.1,.26-.4,.4v1.64h3.86Zm-8,8.02c.12,.04,.2,.12,.2,.22,0,.12-.06,.18-.34,.26-.54,2.92-.78,3.7-1.74,5.58-.82-.72-.92-.8-1.58-1.14,.94-1.8,1.34-3.24,1.58-5.46l1.88,.54Zm2.82-2.68c.18,0,.32,.12,.32,.24,0,.14-.12,.24-.42,.36-.02,.26-.04,.54-.04,.86v6.2c0,.48,.1,.62,.46,.7,.24,.04,1.16,.12,1.6,.12,2.64,0,2.74-.1,2.74-3.04,.98,.28,1.32,.36,1.92,.46-.06,2.6-.32,3.48-1.16,3.94-.7,.4-1.42,.5-3.92,.5-3.02,0-3.56-.36-3.56-2.36v-6.32c0-1.06-.02-1.54-.06-1.84l2.12,.18Zm.68-3.18c1.48,1.02,2.44,1.92,3.7,3.48l-1.5,1.3c-1.14-1.64-1.9-2.44-3.34-3.6l1.14-1.18Zm5.52,4.68c1.74,1.66,2.9,3.26,3.8,5.28l-1.68,1.16c-.88-2.04-1.88-3.62-3.4-5.34l1.28-1.1Z"/><path class="cls-1" d="M154.79,17.55c.28,.1,.4,.2,.4,.32,0,.16,0,.18-.48,.3,1.02,1.58,1.9,2.58,3.16,3.58,1.48,1.2,3.08,2.08,5.34,3q-.72,.86-1.22,1.9c-2.58-1.24-3.54-1.82-5.16-3.16-1.5-1.24-2.04-1.82-3.28-3.78-.98,1.5-1.72,2.36-2.98,3.52-1.6,1.5-2.84,2.38-5.46,3.9-.46-.94-.66-1.26-1.18-1.88,2.32-1.2,3.66-2.12,5.22-3.56,1.56-1.42,2.46-2.56,3.8-4.8l1.84,.66Zm-1.94,7.38c0-.92,0-1.16-.04-1.86l2.14,.14c.22,.02,.36,.08,.36,.2s-.12,.24-.38,.4v3.26h2.84c.76,0,1.78-.02,2.38-.04v1.96c-.6-.04-1.72-.06-2.38-.06h-2.84v4.22h3.62c1.26,0,2.96-.04,3.98-.08v2.06c-1.06-.04-2.76-.06-3.98-.06h-9.86c-1.1,0-2.9,.02-3.98,.06v-2.06c.86,.04,2.28,.06,3.4,.08v-4.6c0-.92,0-1.16-.04-1.84l2.1,.12c.22,.02,.36,.1,.36,.2,0,.12-.12,.24-.4,.4v5.72h2.72v-8.22Z"/><path class="cls-1" d="M174.45,32.05c0,1.52,.02,2.8,.06,3.52h-1.96c.04-.78,.06-1.9,.06-3.52v-1.06c-1.16,1.02-1.92,1.54-3.2,2.24-1.52,.82-2.56,1.24-4.58,1.86-.34-.9-.38-1-.84-1.76,3.02-.8,5.12-1.72,6.9-3h-2.54c-1.04,0-2.34,.02-3.18,.06v-1.7c.84,.04,2.14,.06,3.18,.06h4.26v-.98h-2.56c-1.02,0-2.34,.02-3.18,.06v-1.68c.84,.02,2.16,.06,3.18,.06h2.56v-.94h-3.54c-1.04,0-2.36,.04-3.2,.08v-1.7c.84,.04,2.16,.06,3.2,.06h1.22c-.24-.6-.54-1.16-.88-1.7h-.82c-1.1,0-2.9,.02-3.98,.06v-1.82c.9,.04,2.36,.06,3.48,.06-.4-.66-.7-1.04-1.46-1.88l1.36-1.06c1.12,1.06,1.4,1.38,2.14,2.58l-.56,.36h1.48v-1.96l-.02-1.28,1.88,.14c.24,.02,.38,.08,.38,.2s-.12,.24-.4,.4v2.5h1.46v-1.96c0-.54,0-.98-.02-1.28l1.9,.14c.22,.02,.36,.08,.36,.2s-.12,.24-.4,.4v2.5h.8c.62-1.24,.82-1.82,1.08-2.88l1.94,.7c.12,.04,.22,.14,.22,.22,0,.14-.06,.18-.46,.32q-.12,.24-.6,1.22c-.06,.12-.14,.26-.24,.42,1.22,0,2.74-.02,3.68-.06v1.82c-1.06-.04-2.76-.06-3.98-.06h-1.3c.26,.08,.32,.18,.32,.26,0,.12-.1,.18-.44,.28q-.14,.26-.6,1.16h1.56c.92,0,2.32-.02,3.18-.06v1.7c-.86-.04-2.26-.08-3.18-.08h-3.72v.94h2.72c.92,0,2.34-.04,3.2-.06v1.68c-.86-.04-2.28-.06-3.2-.06h-2.72v.98h4.5c.92,0,2.32-.02,3.18-.06v1.7c-.86-.04-2.26-.06-3.18-.06h-2.96c1.84,1.3,3.9,2.1,7.08,2.8-.46,.74-.56,.96-.9,1.82-2-.5-3.38-1.04-5.06-1.94-1.06-.6-1.66-1.02-2.66-1.96v1Zm.3-8.34c.26-.56,.52-1.12,.7-1.7h-4.06c.38,.52,.68,1.1,.92,1.7h2.44Z"/></g><g><path class="cls-2" d="M66.42,79.61c.56,.58,1.22,1.06,2.08,1.52,1.44,.76,3.02,1.22,5.9,1.72-.44,.56-.62,.82-.72,1.02q-.32,.64-.46,.86c-2.88-.6-4.66-1.28-6.24-2.34-1.04-.7-1.78-1.4-2.4-2.32-.2,.36-.4,.68-.64,.98-1.52,1.9-4.18,3.28-7.66,3.94-.3-.84-.44-1.1-.88-1.76,2.84-.56,4.98-1.38,6.16-2.36,.42-.36,.78-.76,1.1-1.26h-3.18c-1,0-2.74,.04-3.6,.08v-2c.82,.02,2.56,.06,3.6,.06h3.96c.1-.36,.16-.72,.22-1.1h-2.9c-.66,0-1.8,.02-2.4,.04v-1.88c.6,.02,1.62,.04,2.4,.04h3.1c.02-.32,.02-.64,.04-.96h-3.26c-.84,0-1.96,.02-2.8,.04v-1.88c.78,.04,1.92,.06,2.8,.06h3.26c-.02-.9-.04-1.52-.08-2.06l2,.22c.26,.02,.42,.14,.42,.28,0,.12-.12,.22-.42,.34v1.22h3.22c.82,0,2.1-.02,2.8-.06v1.88c-.74-.02-2.02-.04-2.8-.04h-3.22v.2c0,.26,0,.52-.02,.76h3.14c.76,0,1.8-.02,2.4-.04v1.88c-.62-.02-1.74-.04-2.4-.04h-3.3c-.04,.36-.12,.74-.2,1.1h4.82c1.1,0,2.68-.04,3.58-.06v2c-.94-.04-2.52-.08-3.58-.08h-3.84Zm-2.54-11.94c0-.54,0-.98-.02-1.28l2.02,.14c.22,.02,.36,.08,.36,.2s-.1,.24-.38,.4v1.12h3.76c1.36,0,2.92-.04,3.96-.1-.04,.72-.04,1.1-.04,1.54v.52c0,.44,.02,.96,.06,1.54h-2.08c.04-.5,.06-1.14,.06-1.54v-.26h-13.54v.26c0,.4,.02,1.04,.06,1.54h-2.08c.04-.58,.06-1.1,.06-1.54v-.52c0-.44,0-.8-.04-1.54,1.04,.06,2.6,.1,3.98,.1h3.86v-.58Z"/><path class="cls-2" d="M85.02,72.73c-.26,2.84-.74,4.66-1.52,6.22-1,1.94-2.38,3.36-4.54,4.64-.64,.38-1.06,.62-2.14,1.16l-.2-.36c-.38-.72-.48-.88-1.04-1.5,4.84-2.2,6.74-4.54,7.3-10.12l-2.82,.06c-1.96,.04-2.28,.04-3.6,.1l-.04-2.06c.3,.02,1.5,.04,3.58,.04l3.02-.04,.06-2.8c0-.48,0-1.08-.04-1.5l2.28,.18c.34,.02,.54,.14,.54,.34,0,.18-.14,.3-.6,.56-.02,1.18-.06,2.22-.12,3.18l5.9-.1,.32-.38,1.48,1.18c.2,.14,.24,.24,.24,.36,0,.16-.04,.22-.44,.4-.02,1.1-.04,1.6-.04,2.36-.04,5.5-.4,7.74-1.44,8.78-.86,.86-1.64,1.02-5.18,1.04-.14-1.02-.28-1.5-.62-2.26l.36,.02c.52,.02,1.06,.02,1.64,.02,1.68,0,2.14-.18,2.52-1,.46-1,.64-3.4,.7-8.64l-5.56,.12Z"/><path class="cls-2" d="M105.74,72.09c2.36,.88,4.56,2.12,6.72,3.4l-1.26,1.98c-1.72-1.24-3.54-2.36-5.46-3.28v5.8c0,2.06,.04,3.68,.08,4.68h-2.22c.06-1.1,.08-2.64,.08-4.68v-10.2h-4.1c-1.1,0-2.9,.04-3.98,.08v-2.04c1.04,.04,2.84,.08,3.98,.08h10.52c1.26,0,2.96-.04,3.98-.08v2.04c-1.06-.04-2.76-.08-3.98-.08h-4.36v2.3Z"/><path class="cls-2" d="M129.99,74.17l.28-.42,1.46,1.26c.1,.08,.16,.2,.16,.28,0,.18-.14,.32-.48,.44-.04,.4-.1,1.08-.26,2.9-.18,1.86-.68,3.76-1.24,4.64-.82,1.26-1.88,1.62-4.82,1.62h-.62c-.08-.68-.1-.76-.14-.94-.02-.1-.08-.3-.16-.62-.04-.12-.1-.34-.16-.58q1.08,.04,1.26,.04c1.8,0,2.26-.12,2.74-.66,.48-.54,.88-1.78,1.08-3.36,.02-.16,.1-1.1,.26-2.78h-5.14c-.1,.4-.2,.8-.34,1.22-1.1,3.58-3.6,6.08-7.54,7.52-.4-.96-.48-1.1-.92-1.74,2.6-1.1,3.72-1.88,4.9-3.38,1.56-2.02,2.22-4.08,2.52-8.16h-3.02c-1.1,0-2.9,.04-3.98,.08v-1.98c1.04,.04,2.84,.08,3.98,.08h3.9v-1.76c0-.56,0-1-.02-1.28l2.08,.14c.24,0,.36,.08,.36,.2s-.1,.24-.4,.4v2.3h4.14c1.26,0,2.98-.04,4-.08v1.98c-1.08-.04-2.78-.08-4-.08h-4.98c-.1,.9-.18,1.82-.32,2.72h5.42Z"/><path class="cls-2" d="M146.02,66.97c.28,.1,.4,.2,.4,.32,0,.16,0,.18-.48,.3,1.02,1.58,1.9,2.58,3.16,3.58,1.48,1.2,3.08,2.08,5.34,3q-.72,.86-1.22,1.9c-2.58-1.24-3.54-1.82-5.16-3.16-1.5-1.24-2.04-1.82-3.28-3.78-.98,1.5-1.72,2.36-2.98,3.52-1.6,1.5-2.84,2.38-5.46,3.9-.46-.94-.66-1.26-1.18-1.88,2.32-1.2,3.66-2.12,5.22-3.56,1.56-1.42,2.46-2.56,3.8-4.8l1.84,.66Zm-1.94,7.38c0-.92,0-1.16-.04-1.86l2.14,.14c.22,.02,.36,.08,.36,.2s-.12,.24-.38,.4v3.26h2.84c.76,0,1.78-.02,2.38-.04v1.96c-.6-.04-1.72-.06-2.38-.06h-2.84v4.22h3.62c1.26,0,2.96-.04,3.98-.08v2.06c-1.06-.04-2.76-.06-3.98-.06h-9.86c-1.1,0-2.9,.02-3.98,.06v-2.06c.86,.04,2.28,.06,3.4,.08v-4.6c0-.92,0-1.16-.04-1.84l2.1,.12c.22,.02,.36,.1,.36,.2,0,.12-.12,.24-.4,.4v5.72h2.72v-8.22Z"/><path class="cls-2" d="M165.68,81.47c0,1.52,.02,2.8,.06,3.52h-1.96c.04-.78,.06-1.9,.06-3.52v-1.06c-1.16,1.02-1.92,1.54-3.2,2.24-1.52,.82-2.56,1.24-4.58,1.86-.34-.9-.38-1-.84-1.76,3.02-.8,5.12-1.72,6.9-3h-2.54c-1.04,0-2.34,.02-3.18,.06v-1.7c.84,.04,2.14,.06,3.18,.06h4.26v-.98h-2.56c-1.02,0-2.34,.02-3.18,.06v-1.68c.84,.02,2.16,.06,3.18,.06h2.56v-.94h-3.54c-1.04,0-2.36,.04-3.2,.08v-1.7c.84,.04,2.16,.06,3.2,.06h1.22c-.24-.6-.54-1.16-.88-1.7h-.82c-1.1,0-2.9,.02-3.98,.06v-1.82c.9,.04,2.36,.06,3.48,.06-.4-.66-.7-1.04-1.46-1.88l1.36-1.06c1.12,1.06,1.4,1.38,2.14,2.58l-.56,.36h1.48v-1.96l-.02-1.28,1.88,.14c.24,.02,.38,.08,.38,.2s-.12,.24-.4,.4v2.5h1.46v-1.96c0-.54,0-.98-.02-1.28l1.9,.14c.22,.02,.36,.08,.36,.2s-.12,.24-.4,.4v2.5h.8c.62-1.24,.82-1.82,1.08-2.88l1.94,.7c.12,.04,.22,.14,.22,.22,0,.14-.06,.18-.46,.32q-.12,.24-.6,1.22c-.06,.12-.14,.26-.24,.42,1.22,0,2.74-.02,3.68-.06v1.82c-1.06-.04-2.76-.06-3.98-.06h-1.3c.26,.08,.32,.18,.32,.26,0,.12-.1,.18-.44,.28q-.14,.26-.6,1.16h1.56c.92,0,2.32-.02,3.18-.06v1.7c-.86-.04-2.26-.08-3.18-.08h-3.72v.94h2.72c.92,0,2.34-.04,3.2-.06v1.68c-.86-.04-2.28-.06-3.2-.06h-2.72v.98h4.5c.92,0,2.32-.02,3.18-.06v1.7c-.86-.04-2.26-.06-3.18-.06h-2.96c1.84,1.3,3.9,2.1,7.08,2.8-.46,.74-.56,.96-.9,1.82-2-.5-3.38-1.04-5.06-1.94-1.06-.6-1.66-1.02-2.66-1.96v1Zm.3-8.34c.26-.56,.52-1.12,.7-1.7h-4.06c.38,.52,.68,1.1,.92,1.7h2.44Z"/></g></g></g></svg>