<?xml version="1.0" encoding="UTF-8"?><svg id="_レイヤー_2" xmlns="http://www.w3.org/2000/svg" xmlns:xlink="http://www.w3.org/1999/xlink" viewBox="0 0 912.19 418.54"><defs><style>.cls-1{fill:#fff;}.cls-2{fill:#666;}.cls-3{fill:#333;}.cls-4{fill:#bbb;}.cls-5{fill:#231815;}.cls-6{fill:#1a1a1a;}.cls-7{fill:url(#_新規グラデーションスウォッチ_2-22);}.cls-8{fill:url(#_新規グラデーションスウォッチ_2-21);}.cls-9{fill:url(#_新規グラデーションスウォッチ_2-20);}.cls-10{fill:url(#_新規グラデーションスウォッチ_2-18);}.cls-11{fill:url(#_新規グラデーションスウォッチ_2-19);}.cls-12{fill:url(#_新規グラデーションスウォッチ_2-14);}.cls-13{fill:url(#_新規グラデーションスウォッチ_2-17);}.cls-14{fill:url(#_新規グラデーションスウォッチ_2-12);}.cls-15{fill:url(#_新規グラデーションスウォッチ_2-11);}.cls-16{fill:url(#_新規グラデーションスウォッチ_2-16);}.cls-17{fill:url(#_新規グラデーションスウォッチ_2-10);}.cls-18{fill:url(#_新規グラデーションスウォッチ_2-13);}.cls-19{fill:url(#_新規グラデーションスウォッチ_2-15);}.cls-20{fill:url(#_新規グラデーションスウォッチ_2);}.cls-21{fill:url(#_新規グラデーションスウォッチ_2-8);}.cls-22{fill:url(#_新規グラデーションスウォッチ_2-4);}.cls-23{fill:url(#_新規グラデーションスウォッチ_2-5);}.cls-24{fill:url(#_新規グラデーションスウォッチ_2-6);}.cls-25{fill:url(#_新規グラデーションスウォッチ_2-7);}.cls-26{fill:url(#_新規グラデーションスウォッチ_2-9);}.cls-27{fill:url(#_新規グラデーションスウォッチ_2-3);}.cls-28{fill:url(#_新規グラデーションスウォッチ_2-2);}</style><linearGradient id="_新規グラデーションスウォッチ_2" x1="0" y1="417.54" x2="910" y2="417.54" gradientUnits="userSpaceOnUse"><stop offset="0" stop-color="#0d76a3"/><stop offset="0" stop-color="#0d74a2"/><stop offset=".18" stop-color="#10548a"/><stop offset=".37" stop-color="#133b78"/><stop offset=".56" stop-color="#152a6b"/><stop offset=".76" stop-color="#161f63"/><stop offset="1" stop-color="#171c61"/></linearGradient><linearGradient id="_新規グラデーションスウォッチ_2-2" y1="1" y2="1" xlink:href="#_新規グラデーションスウォッチ_2"/><linearGradient id="_新規グラデーションスウォッチ_2-3" x1="1644.08" y1="9148.53" x2="2044.08" y2="9148.53" gradientTransform="translate(-1389.08 -8939.26)" xlink:href="#_新規グラデーションスウォッチ_2"/><linearGradient id="_新規グラデーションスウォッチ_2-4" x1="478.57" y1="244.36" x2="553.49" y2="244.36" xlink:href="#_新規グラデーションスウォッチ_2"/><linearGradient id="_新規グラデーションスウォッチ_2-5" x1="248.53" y1="314.61" x2="436.37" y2="314.61" xlink:href="#_新規グラデーションスウォッチ_2"/><linearGradient id="_新規グラデーションスウォッチ_2-6" x1="303.06" y1="228.37" x2="382.3" y2="228.37" xlink:href="#_新規グラデーションスウォッチ_2"/><linearGradient id="_新規グラデーションスウォッチ_2-7" x1="303.06" y1="228.37" x2="382.3" y2="228.37" xlink:href="#_新規グラデーションスウォッチ_2"/><linearGradient id="_新規グラデーションスウォッチ_2-8" x1="582.39" y1="301.58" x2="640.69" y2="301.58" xlink:href="#_新規グラデーションスウォッチ_2"/><linearGradient id="_新規グラデーションスウォッチ_2-9" x1="582.39" y1="301.58" x2="640.69" y2="301.58" xlink:href="#_新規グラデーションスウォッチ_2"/><linearGradient id="_新規グラデーションスウォッチ_2-10" x1="582.39" y1="301.58" x2="640.69" y2="301.58" xlink:href="#_新規グラデーションスウォッチ_2"/><linearGradient id="_新規グラデーションスウォッチ_2-11" x1="768.01" y1="303.05" x2="793.35" y2="303.05" xlink:href="#_新規グラデーションスウォッチ_2"/><linearGradient id="_新規グラデーションスウォッチ_2-12" x1="768.01" y1="303.05" x2="793.35" y2="303.05" xlink:href="#_新規グラデーションスウォッチ_2"/><linearGradient id="_新規グラデーションスウォッチ_2-13" x1="739.58" y1="301.56" x2="755.43" y2="301.56" xlink:href="#_新規グラデーションスウォッチ_2"/><linearGradient id="_新規グラデーションスウォッチ_2-14" x1="647.43" y1="291.41" x2="733.03" y2="291.41" xlink:href="#_新規グラデーションスウォッチ_2"/><linearGradient id="_新規グラデーションスウォッチ_2-15" x1="647.43" y1="291.41" x2="733.03" y2="291.41" xlink:href="#_新規グラデーションスウォッチ_2"/><linearGradient id="_新規グラデーションスウォッチ_2-16" x1="647.43" y1="291.41" x2="733.03" y2="291.41" xlink:href="#_新規グラデーションスウォッチ_2"/><linearGradient id="_新規グラデーションスウォッチ_2-17" x1="-786.83" y1="58.55" x2="-395.05" y2="58.55" gradientTransform="translate(826.03) skewX(-10)" xlink:href="#_新規グラデーションスウォッチ_2"/><linearGradient id="_新規グラデーションスウォッチ_2-18" x1="145.8" y1="94.06" x2="281.8" y2="94.06" xlink:href="#_新規グラデーションスウォッチ_2"/><linearGradient id="_新規グラデーションスウォッチ_2-19" x1="-324.07" y1="58.55" x2="67.71" y2="58.55" gradientTransform="translate(826.03) skewX(-10)" xlink:href="#_新規グラデーションスウォッチ_2"/><linearGradient id="_新規グラデーションスウォッチ_2-20" x1="608.56" y1="94.06" x2="744.56" y2="94.06" xlink:href="#_新規グラデーションスウォッチ_2"/><linearGradient id="_新規グラデーションスウォッチ_2-21" x1="557.96" y1="244.36" x2="868.15" y2="244.36" xlink:href="#_新規グラデーションスウォッチ_2"/><linearGradient id="_新規グラデーションスウォッチ_2-22" x1="861.72" y1="244.36" x2="891.29" y2="244.36" xlink:href="#_新規グラデーションスウォッチ_2"/></defs><g id="_レイヤー_1-2"><g><rect class="cls-20" y="416.54" width="910" height="2"/><rect class="cls-28" width="910" height="2"/><rect class="cls-27" x="255" y="208.27" width="400" height="2" transform="translate(245.73 664.27) rotate(-90)"/><g><path class="cls-6" d="M72.9,375.63c.1-2.7,1.78-4.28,4.58-4.28s4.5,1.6,4.5,4.08c0,1.46-.5,2.52-2.2,4.58-.86,1.04-1.96,2.32-4.06,4.7h6.42v2.14h-9.42v-1.88q.34-.42,1.54-1.82c4.86-5.7,5.32-6.36,5.32-7.64s-.9-2.1-2.22-2.1c-1.42,0-2.28,.78-2.44,2.22h-2.02Z"/><path class="cls-6" d="M95.66,379.23c0,4.92-1.98,7.86-5.28,7.86s-5.3-2.94-5.3-7.86,1.98-7.86,5.3-7.86,5.28,2.94,5.28,7.86Zm-7.22-4.78c-.64,1.12-.98,2.82-.98,4.78s.34,3.66,.98,4.78c.42,.72,1.1,1.12,1.94,1.12s1.5-.4,1.92-1.12c.64-1.12,1-2.82,1-4.78s-.38-3.72-1-4.78c-.44-.74-1.1-1.12-1.92-1.12s-1.52,.38-1.94,1.12Z"/><path class="cls-6" d="M104.86,380.21v1.8h-6.1v-1.8h6.1Z"/><path class="cls-6" d="M108.86,375.23c.12-2.46,1.82-3.88,4.66-3.88,1.4,0,2.48,.36,3.24,1.1,.72,.7,1.16,1.76,1.16,2.84,0,1.6-.78,2.7-2.4,3.38,1.86,.58,2.74,1.76,2.74,3.68,0,1.48-.62,2.84-1.7,3.7-.88,.68-2,1.02-3.42,1.02-3.08,0-4.9-1.48-4.92-4.06h2.12c.04,1.3,1.02,2.02,2.8,2.02s2.76-.98,2.76-2.64c0-1.12-.54-1.94-1.52-2.32-.44-.16-1.26-.26-2.18-.26l-.48,.02v-1.96c.28,.02,.4,.02,.58,.02,2.1,0,3.24-.86,3.24-2.42,0-1.28-.86-2.1-2.26-2.1s-2.28,.7-2.4,1.86h-2.02Z"/><path class="cls-6" d="M131.46,379.23c0,4.92-1.98,7.86-5.28,7.86s-5.3-2.94-5.3-7.86,1.98-7.86,5.3-7.86,5.28,2.94,5.28,7.86Zm-7.22-4.78c-.64,1.12-.98,2.82-.98,4.78s.34,3.66,.98,4.78c.42,.72,1.1,1.12,1.94,1.12s1.5-.4,1.92-1.12c.64-1.12,1-2.82,1-4.78s-.38-3.72-1-4.78c-.44-.74-1.1-1.12-1.92-1.12s-1.52,.38-1.94,1.12Z"/><path class="cls-6" d="M142.32,375.69c.2,.02,.32,.1,.32,.2,0,.14-.12,.24-.4,.4v8.18c0,1.8,.02,3.22,.06,4.1h-2.06c.04-.9,.06-2.26,.06-4.1v-5.22c-.34,.7-.68,1.24-1.22,2.06-.38-.92-.66-1.4-1.16-1.98,1.84-2.84,3-5.62,3.9-9.44l1.92,.74c.18,.08,.28,.18,.28,.3,0,.14-.06,.2-.48,.32-.56,1.96-.84,2.78-1.52,4.42l.3,.02Zm11.1-.56c1.7-.18,2.36-.26,3.18-.4l.24,1.98c-2,.14-2.66,.2-3.18,.26l-3.6,.4c.06,.44,.12,.86,.2,1.18,.68,3.04,1.74,5.22,3.36,6.84,.48,.48,1,.82,1.28,.82,.36,0,.54-.66,.68-2.44,.58,.34,.72,.42,1.62,.78-.34,3.06-.74,3.82-1.96,3.82-1,0-2.02-.56-3.16-1.74-1.68-1.76-2.82-3.92-3.54-6.76-.22-.86-.36-1.54-.48-2.3l-1.6,.18c-1.82,.2-2.36,.26-3.16,.38l-.26-1.94c2.18-.18,2.68-.22,3.18-.28l1.64-.18c-.08-.78-.12-1.7-.18-2.92-.02-.54-.08-1.36-.16-2.48l2.32,.2c.2,.02,.32,.1,.32,.22,0,.14-.1,.24-.48,.46-.02,.38-.02,.56-.02,.8,0,1.02,.08,2.3,.18,3.5l3.58-.38Zm-2.02-4c1.44,.76,1.9,1.06,2.9,1.98l-1.14,1.6c-1.36-1.2-1.72-1.46-2.72-2.1l.96-1.48Z"/><path class="cls-6" d="M163.08,372.41c.22,.06,.36,.18,.36,.34,0,.22-.14,.34-.54,.48-.76,4.22-.86,5.2-.86,7.56s.26,3.98,1,5.98c-.86,.26-1.36,.44-2.04,.76-.7-1.92-1.02-4.04-1.02-6.74,0-2.16,.14-3.6,.78-7.66,.08-.48,.12-.7,.14-1.14l2.18,.42Zm4.58,8.44c-.56,.74-.72,1.12-.72,1.56,0,1.04,1.18,1.48,3.98,1.48,1.86,0,3.16-.16,4.74-.56-.16,.96-.24,1.62-.26,2.36-1.3,.2-2.84,.3-4.34,.3-1.72,0-3.08-.14-3.96-.44-1.44-.48-2.16-1.42-2.16-2.82,0-.94,.28-1.6,1.18-2.82l1.54,.94Zm-2.26-6.28c2.36-.62,3.92-.82,6.14-.82,1.24,0,2.14,.06,3.46,.22l-.32,1.96c-.36-.02-.64-.04-.82-.06-1.24-.1-1.82-.12-2.92-.12-1.96,0-3,.16-5.1,.82l-.44-2Z"/><path class="cls-6" d="M194.48,379.99c.8,0,1.88-.04,2.48-.06v1.94c-.64-.04-1.72-.06-2.48-.06v1.94c0,.38,.02,1.54,.06,2.28v.28c0,1.78-.66,2.16-3.68,2.16h-.18c-.04-.92-.08-1.12-.38-2.12,.64,.06,.92,.08,1.3,.08,.88,0,.96-.06,.96-.84v-3.78h-4.1c-.84,0-1.96,.02-2.78,.06v-1.76c-.66,.3-1.32,.62-1.98,.9v1.72c0,2.62,.02,4.56,.08,5.84h-2.08c.08-1.3,.1-3.26,.1-5.84v-.94c-1.32,.54-1.42,.58-2.02,.82-.16,.28-.28,.38-.4,.38-.1,0-.2-.1-.28-.26l-.92-1.84c1.28-.38,2.5-.76,3.62-1.16v-3.86h-1.32c-.24,1.2-.56,2.34-.94,3.48l-.36-.26c-.56-.4-.62-.44-1.36-.84,.68-1.98,.9-3.06,1.38-6.7l1.96,.5c.22,.06,.32,.16,.32,.28,0,.14-.04,.18-.46,.36-.06,.46-.12,.9-.2,1.34h.98c-.02-2.1-.06-3.4-.12-3.88l2.12,.14c.18,0,.3,.1,.3,.2,0,.12-.1,.22-.36,.38-.04,.68-.04,.82-.04,3.16h.36c.58,0,1.42-.02,1.98-.04v1.92c-.56-.02-1.4-.04-1.98-.04h-.36v3.16c.82-.32,1.56-.62,2.24-.94l.52,1.64c-.14,.08-.3,.14-.44,.2,.74,.04,1.68,.06,2.44,.06h4.1v-2.06h-4.12c-.84,0-1.96,.02-2.8,.06v-1.94c.78,.04,1.92,.06,2.8,.06h1.76v-2.06h-1.82c-.58,0-1.42,.02-2,.04v-1.92c.58,.04,1.42,.04,2,.04h1.82c0-1.12-.02-1.78-.06-2.26l2.02,.14c.22,0,.34,.08,.34,.2s-.1,.22-.38,.4v1.52h1.94c.58,0,1.42,0,2-.04v1.92c-.58-.02-1.42-.04-2-.04h-1.94v2.06h2.04c.8,0,2.1-.02,2.78-.06v1.94c-.62-.02-1.7-.04-2.46-.06v2.06Zm-6.1,1.98c1.22,.9,1.96,1.58,2.88,2.7l-1.5,1.4c-.9-1.2-1.56-1.9-2.62-2.76l1.24-1.34Z"/><path class="cls-6" d="M201.68,378.51c-.96,1.76-1.36,2.36-2.38,3.68-.4-.86-.76-1.46-1.18-1.96,1.18-1.52,2.14-3.06,2.92-4.72,.68-1.5,1.18-3,1.82-5.62l1.98,.74c.18,.06,.26,.18,.26,.28,0,.18-.06,.22-.48,.32-.68,2.36-.94,3.1-1.56,4.44l.58,.04c.22,0,.34,.08,.34,.2s-.1,.22-.36,.38c-.02,.46-.02,1.02-.02,2.28v5.76c0,1.9,.04,3.32,.1,4.2h-2.12c.08-1.08,.1-2.36,.1-4.2v-5.82Zm7.4-1.8c2.08-.92,3.38-1.72,5.16-3.16l1.82,1.38c.14,.1,.18,.18,.18,.28,0,.2-.16,.26-.7,.26-2.2,1.44-4.2,2.48-6.46,3.28v6.62c0,.42,.14,.54,.62,.58,.44,.04,1.12,.08,1.74,.08,1.76,0,2.44-.08,2.8-.3,.36-.24,.54-.92,.54-2.26l-.02-.58c.8,.28,.86,.3,2.06,.54-.08,2.84-.4,3.84-1.42,4.28-.6,.26-1.46,.32-4.58,.32-1.6,0-2.2-.04-2.74-.2-.68-.22-.98-.8-.98-1.92v-12.76c0-1.58,0-2.42-.06-3l2.08,.14c.22,0,.34,.08,.34,.2s-.1,.22-.38,.4v5.82Z"/><path class="cls-6" d="M224.86,371.77c.22,0,.38,.12,.38,.28,0,.14-.08,.22-.34,.4-.08,1.64-.3,9.66-.3,10.7,0,1.66,.6,2.26,2.28,2.26,1.18,0,2.32-.34,3.52-1.04,1.46-.84,2.28-1.6,3.7-3.48,.32,.74,.52,1.02,1.3,1.92-1.54,1.82-2.44,2.6-3.88,3.44-1.56,.88-3.22,1.34-4.88,1.34s-2.82-.48-3.48-1.36c-.5-.66-.74-1.62-.74-3,0-.54,.02-1,.12-3.56,.06-1.76,.1-3.74,.1-5.74,0-.9-.02-1.62-.06-2.32l2.28,.16Z"/><path class="cls-6" d="M246.12,374.41c.94-.2,1.46-.36,2.64-.78l.64,1.8c-1.28,.5-2.32,.76-3.86,1.02q-.56,2-1.12,3.54c-1.28,3.56-1.96,5.1-3.38,7.74-.66-.58-.82-.68-1.8-1.14,1.56-2.6,2.82-5.58,4.16-9.9-1.32,.1-1.92,.14-3.4,.14l-.02-1.98c1.84,0,2.28-.02,4-.16l.04-.14c.38-1.54,.56-2.44,.74-3.78l2.16,.54c.16,.04,.28,.14,.28,.24,0,.14-.08,.22-.38,.36-.42,1.6-.44,1.68-.64,2.32l-.06,.18Zm2.68,8.3c-.56,.8-.74,1.22-.74,1.74,0,.78,.72,.98,3.62,.98,1.22,0,2.22-.12,3.78-.44-.14,.64-.16,.82-.2,2.14-1.38,.18-2.38,.26-3.7,.26-1.7,0-3.02-.12-3.78-.32-1.08-.3-1.72-1.16-1.72-2.32,0-.96,.36-1.74,1.3-2.88l1.44,.84Zm-2-4.44c2.46-.78,3.84-1.02,5.98-1.02,.42,0,1.06,.02,1.88,.06l-.08,1.94c-1.54-.06-1.74-.06-2-.06-1.68,0-2.74,.18-5.3,.88l-.48-1.8Z"/><path class="cls-6" d="M269.6,375.83v-3.56l-.02-1.28,2.14,.14c.26,.02,.38,.08,.38,.22,0,.12-.08,.2-.38,.38v4.1h1.32c1.1,0,2.68-.02,3.58-.06v2.1c-.94-.02-2.52-.06-3.58-.06h-1.32c-.08,1.94-.08,2.06-.22,2.82-.54,3.2-2.52,5.42-6.72,7.58-.4-.78-.8-1.34-1.38-1.86,2.34-1.02,3.98-2.26,4.96-3.68,.9-1.3,1.18-2.4,1.24-4.86h-3.94v1.52c0,1.32,.02,2.34,.06,2.92h-2.18c.04-.68,.06-1.6,.06-2.92v-1.52h-1.38c-.98,0-2.72,.04-3.58,.06v-2.1c.82,.04,2.56,.06,3.58,.06h1.38v-1.04c0-1.58-.02-2.44-.06-3l2.18,.14c.22,.02,.34,.08,.34,.22,0,.12-.06,.16-.4,.38v3.3h3.94Z"/><path class="cls-6" d="M295.4,380.29c-.94-.02-2.52-.06-3.58-.06h-8.38c-.98,0-2.72,.04-3.58,.06v-2.14c.82,.02,2.56,.06,3.58,.06h8.38c1.1,0,2.68-.02,3.58-.06v2.14Z"/><path class="cls-6" d="M304.72,382.68c0,1.44,.28,1.58,2.96,1.58,1.96,0,4.1-.18,5.96-.52l.32,2.16c-2.08,.32-3.96,.42-7.2,.42-3.46,0-4.2-.56-4.2-3.32v-7.5c0-1.56-.02-2.48-.06-3l2.3,.14c.22,0,.34,.08,.34,.2s-.1,.22-.4,.4c-.02,.6-.02,1.3-.02,2.26v2.32c1.34-.38,2.3-.72,3.44-1.24,1.44-.66,1.82-.88,3.28-1.98l1.7,1.48c.1,.08,.16,.2,.16,.28,0,.14-.14,.24-.38,.24l-.32-.02c-1.98,1.16-2.86,1.6-4.54,2.2-.84,.32-2.58,.88-3.34,1.06v2.84Zm8.06-10.46c.94,.58,1.56,1.06,2.54,2l-1,1.1c-.94-.98-1.38-1.38-2.42-2.08l.88-1.02Zm1.56-1.82c.94,.6,1.56,1.08,2.52,2.02l-1,1.08c-.92-.98-1.36-1.36-2.4-2.06l.88-1.04Z"/><path class="cls-6" d="M321.26,373.97c1.7,0,4.58-.08,6.06-.16l3.66-.22,.3-.36,1.52,1.38c.16,.16,.2,.2,.2,.32s-.08,.18-.24,.22l-.24,.06c-1.68,2.82-1.76,2.92-2.86,4.28,.06,.04,.18,.12,.28,.2,1.76,1.36,1.98,1.54,3.04,2.64,.86,.88,1.26,1.36,2,2.38l-1.74,1.54c-1.36-1.94-2.22-2.96-3.22-3.84q-1.44-1.24-1.7-1.44c-2.14,2.26-4.42,3.82-7.84,5.36-.48-1-.64-1.26-1.16-1.9,3.94-1.72,5.92-3.08,8.26-5.68,.92-1.02,1.58-1.9,2.12-2.78q.16-.24,.26-.42l-2.52,.24c-.18,.02-.88,.06-1.9,.12-.96,.06-3.18,.22-4.1,.3l-.18-2.24Z"/><path class="cls-6" d="M354.98,374.11q.14,.22,.14,.34c0,.16-.08,.2-.64,.24-2.06,.14-3.22,.52-4.58,1.52-1.94,1.44-3,3.22-3,5.06,0,1.72,1.34,3.02,3.58,3.48,1.1,.22,2.08,.32,3.64,.34-.34,.62-.5,1.06-.8,2.16-1.94-.12-3.02-.28-4.3-.64-2.7-.76-4.24-2.68-4.24-5.32,0-2.18,1-3.9,3.24-5.6-1.8,.42-6.14,1.42-7.26,1.68-.5,.1-.62,.14-1,.24l-.5-2.28c1.8-.16,4.3-.56,8.92-1.44,3.92-.74,4.46-.86,5.76-1.34l1.04,1.56Zm-2.04,3.06c.96,.58,1.56,1.06,2.54,2l-1,1.1c-.92-.98-1.38-1.38-2.42-2.08l.88-1.02Zm1.56-1.82c.94,.58,1.56,1.08,2.54,2.02l-1,1.08c-.92-.98-1.38-1.36-2.42-2.06l.88-1.04Z"/><path class="cls-6" d="M370.36,370.07c.26,0,.42,.12,.42,.28s-.08,.26-.36,.48c0,.72,0,1.3-.02,1.66v1.38c3.62-.16,4.86-.24,6.42-.44v2.14h-2.48q-.86,0-3.94,.12v3.58c.08,.96,.1,1.28,.1,1.66,0,4.04-2.22,6.32-7.28,7.44-.24-.78-.54-1.38-.96-1.94,1.96-.44,2.5-.6,3.42-1,1.32-.58,1.9-1.1,2.34-2.08-.42,.28-.62,.34-1.22,.34-1.84,0-3-1.24-3-3.22s1.18-3.4,2.86-3.4c.64,0,1.16,.12,1.66,.44,.02-.36,.02-.56,.02-.7,0-.06,0-.82-.02-1.06-3.78,.1-7.6,.28-9.06,.44l-.14-2.22c1.14,.06,1.64,.08,2.42,.08,2,0,3.98-.04,6.78-.12l-.02-1.32c0-1.48-.04-2.1-.14-2.62l2.2,.08Zm-3.36,8.66c-.82,0-1.4,.68-1.4,1.64s.58,1.62,1.44,1.62c.78,0,1.32-.66,1.32-1.64s-.56-1.62-1.36-1.62Z"/></g><g><path class="cls-6" d="M599.46,376.73v-3.62c0-1.58-.02-2.42-.06-3l2.1,.14c.22,0,.34,.08,.34,.2s-.1,.22-.38,.4c-.02,.46-.02,1-.02,2.26v3.62h4.18v-2.2c0-1.6-.02-2.44-.06-3l2.06,.12c.22,.02,.36,.1,.36,.2,0,.12-.12,.24-.38,.4-.02,.46-.02,1.02-.02,2.28v1.72c0,1.34,.02,2.36,.04,2.94h-2v-.62h-4.18v6.88h4.92v-2.24c0-1.6-.02-2.44-.08-3l2.08,.12c.22,.02,.34,.1,.34,.22,0,.1-.1,.22-.38,.38v4.1c0,1.34,.02,2.36,.04,2.94h-2v-.68h-11.88v1.1h-2c.02-.7,.04-1.64,.04-2.92v-2.26c0-1.6-.02-2.44-.06-3l2.08,.12c.22,.02,.34,.1,.34,.22,0,.1-.1,.22-.38,.38l-.02,2.28v2.24h4.98v-6.88h-4.24v.88h-2c.02-.7,.04-1.66,.04-2.92v-2c0-1.6-.02-2.44-.06-3l2.08,.12c.2,.02,.34,.1,.34,.2,0,.12-.1,.24-.38,.4-.02,.46-.02,1.02-.02,2.28v2.2h4.24Z"/><path class="cls-6" d="M618.2,373.41c.56-1.18,1.02-2.38,1.32-3.64l1.98,.66c.16,.04,.26,.14,.26,.26s0,.12-.38,.26c-.16,.34-.3,.64-.38,.8-.4,.86-.42,.92-.82,1.66h4.56c1.34,0,2.92-.02,3.96-.08q-.02,.62-.04,3.9v5.56c0,.54,.02,2,.04,3.08v.3c0,.98-.18,1.42-.66,1.76-.58,.36-1.14,.44-3.38,.44-.04-.8-.14-1.36-.38-2.1,.66,.04,.94,.06,1.36,.06,.98,0,1.04-.04,1.04-.82v-10.26h-12.36v8.52q.02,3.86,.06,4.7h-2.1c.02-.78,.06-2.64,.06-3.9v-7.34q-.02-3.28-.06-3.9c1.06,.06,2.62,.08,3.98,.08h1.94Zm.2,11.4h-1.92c.04-.46,.06-1.12,.06-2.12v-3.64c0-.62-.02-1.4-.06-1.76,.44,.02,.86,.04,1.44,.04h5.16c.58,0,1-.02,1.44-.04-.04,.36-.06,1.14-.06,1.76v3.36c0,.94,.02,1.62,.06,2.08h-1.92v-.82h-4.2v1.14Zm4.2-5.74h-4.2v2.88h4.2v-2.88Z"/><path class="cls-6" d="M635.48,377.33s-.18-.36-.48-.98c-.28-.6-.38-.9-.38-1.38,0-1.44,1.18-2.36,2.96-2.36,.78,0,1.34,.08,2.08,.3-.24-.48-.34-.9-.34-1.48,0-.24,.06-.64,.14-1.18l1.64,.26c-.02,.28-.04,.54-.04,.74,0,.7,.26,1.2,1.04,2l-1.38,1.44c-.98-.44-1.74-.62-2.54-.62-.84,0-1.38,.38-1.38,.98,0,.36,.14,.74,.6,1.62,.48-.2,1.94-.8,3.06-1.26,2.46-1,3.82-1.36,5.12-1.36,.96,0,1.88,.3,2.54,.8,.74,.56,1.12,1.44,1.12,2.64,0,1.76-.98,2.98-2.86,3.54-.86,.24-2.02,.38-3.3,.38-.64,0-.94-.02-1.6-.08-.02-1.1-.02-1.26-.12-2.12,.82,.1,1.18,.14,1.84,.14,2.58,0,3.92-.7,3.92-2.02,0-.9-.6-1.4-1.7-1.4-1.22,0-2.2,.3-5.74,1.8q-.54,.22-1.42,.62c1.94,3.98,2.28,4.7,4.18,9.16l-2.28,.86c-1.52-4.24-2.44-6.5-3.64-8.9l-.12-.26c-.26,.14-.46,.22-.74,.36q-1.42,.72-2.26,1.12-.56,.26-1.12,.54l-1.06-2.14c.6-.22,1.08-.4,1.38-.5,1.56-.56,1.72-.64,2.94-1.14l-.06-.12Z"/><path class="cls-6" d="M656.52,379.87c-.82,2.1-1.56,3.8-2.44,5.6q-.28,.56-.94,1.72-.12,.24-.3,.58v.14c0,.16-.06,.28-.18,.28q-.08,0-.28-.18l-1.42-1.18c1.28-1.8,2.6-4.42,4.04-7.94l1.52,.98Zm-4.04-5.12c1.02,.9,1.7,1.6,2.5,2.6l-1.56,1.26c-.94-1.24-1.34-1.7-2.3-2.64l1.36-1.22Zm1.2-4.42c.98,.84,1.5,1.4,2.38,2.52l-1.6,1.22c-.74-1.08-1.14-1.54-2.18-2.6l1.4-1.14Zm5.56,4.84c3.34-.48,5.42-.98,7.94-1.94l1.4,1.36c.08,.08,.12,.18,.12,.28,0,.14-.1,.22-.28,.22-.08,0-.18,0-.42-.02-.96,.24-1.9,.48-2.86,.72,.12,.96,.24,1.9,.44,2.84,1.28-.8,1.62-1.08,2.4-1.84l1.44,1.26c.08,.08,.14,.18,.14,.28s-.06,.18-.14,.22c-.04,.02-.12,.04-.26,.06q-.16,.02-.28,.04c-1.16,.7-1.8,1.06-2.9,1.6,.2,.66,.42,1.26,.68,1.86,.76,1.78,1.64,2.94,3.3,4.4-.54,.38-1.02,.84-1.6,1.56-1.82-1.78-2.64-3-3.48-5.12-.8-2-1.2-3.76-1.5-6.76-.24,.06-.46,.08-.7,.14v8.36c0,1.52,.02,2.8,.06,3.52h-2.06c.04-.78,.06-1.9,.06-3.52v-8.08c-.5,.08-1,.14-1.5,.22v1.66c0,2.94-.12,4-.62,5.5-.56,1.66-1.32,2.78-3.02,4.44-.42-.7-.6-.94-1.24-1.64,2.34-2.24,2.98-4,2.98-8.44v-5.28c0-.6-.04-1.38-.06-1.76l1.7,.48c3.42-.48,5.82-1.02,8.06-1.82l1.28,1.34c.1,.1,.14,.18,.14,.26,0,.16-.1,.24-.3,.24t-.42-.02c-4.24,1.06-4.44,1.1-8.5,1.6v1.78Z"/><path class="cls-6" d="M677.72,385.78c.06-.48,.04-.96,.04-1.44v-5.34c0-.58-.02-1.28-.04-1.62,.7,.04,1.3,.04,2.2,.04h5.04c.88,0,1.5,0,2.2-.04-.04,.34-.06,1.04-.06,1.62v.78c0,.66,.02,1.1,.06,1.44h-1.88v-.4h-5.7v.9h6.1c.9,0,1.5,0,2.2-.02-.02,.32-.04,1.02-.04,1.6v.86c0,.66,0,1.1,.04,1.44h-1.86v-.48h-6.44v.7h-1.76c1.28,.52,2.52,.64,5.44,.64,2.24,0,4.96-.08,6.56-.2-.26,.86-.28,.92-.38,1.98-3.42,.06-3.9,.06-6.74,.06-2.58,0-4.28-.3-5.86-1.04-.86-.42-1.46-.9-2-1.68-.66,.72-1.28,1.3-1.74,1.7-.14,.12-.36,.32-.62,.58-.1,.32-.18,.44-.3,.44-.1,0-.2-.08-.28-.18l-1.08-1.5c1.06-.68,2.08-1.44,3.02-2.28v-4.34h-.8c-.52,0-1.4,.02-1.88,.06v-1.94c.46,.04,1.3,.04,1.88,.04h.9q1.42,0,1.84-.04-.02,.36-.04,1.78v4.6c.42,.48,.86,.78,1.56,1.1l.42,.18Zm-4.82-15.36c1.24,1.08,1.88,1.78,2.74,2.96l-1.54,1.24c-.94-1.34-1.14-1.6-2.48-3.04l1.28-1.16Zm6.08,3.96v.5h-1.78c.04-.36,.06-.78,.06-1.48v-.7c0-.58-.02-1.28-.06-1.6,.7,.02,1.32,.02,2.2,.02h1.9c0-.38,.02-.78-.02-1.16l1.94,.12c.24,.02,.36,.1,.36,.22s-.12,.24-.4,.4v.42h2.16c.88,0,1.5,0,2.2-.02-.04,.32-.06,1.02-.06,1.6v.7c0,.66,.02,1.08,.06,1.44h-1.8v-.46h-2.56v.86h3.32c.92,0,2.32-.02,3.18-.06v1.7c-.86-.02-2.26-.06-3.18-.06h-8.08c-1.02,0-2.34,.04-3.18,.06v-1.7c.84,.04,2.16,.06,3.18,.06h2.88v-.86h-2.32Zm2.32-2.04h-2.32v.82h2.32v-.82Zm3.98,7.14v-.74h-5.7v.74h5.7Zm.74,3.58h-6.44v.76h6.44v-.76Zm-.28-9.9v-.82h-2.56v.82h2.56Z"/><path class="cls-6" d="M692.84,375.33l-1.58,.02v-1.88c.44,.02,1.16,.04,1.58,.04h1.3v-1.7c0-.9,0-1.14-.02-1.84l1.96,.12c.22,.02,.36,.1,.36,.2,0,.14-.12,.24-.4,.4v2.82h1.24l.24-.32,1.18,1.04c.08,.08,.16,.22,.16,.32,0,.16-.06,.22-.46,.32-.38,.82-.78,1.62-1.24,2.38-.34,.56-.72,1.08-1.12,1.62v.32c1.2,.68,1.82,1.14,3.18,2.38l-1.34,1.6c-.8-.88-1.32-1.44-1.84-1.9v3.08c0,1.84,.02,3.2,.06,4.1h-2.02c.04-.9,.06-2.26,.06-4.1v-3.36c-1.04,1.08-1.5,1.46-2.68,2.34-.06-.16-.12-.3-.16-.4-.1-.28-.32-.76-.64-1.44,2.82-2.18,4.24-3.74,5.48-6.16h-3.3Zm10,2.68h-1.72c-.66,0-1.8,.04-2.4,.06v-1.94c.6,.04,1.62,.06,2.4,.06h1.72v-3c0-1.58-.02-2.42-.06-3l2.08,.14c.22,.02,.34,.08,.34,.2s-.1,.22-.38,.4l-.02,2.26v3h2.2c.78,0,1.8-.02,2.4-.06v1.94c-.62-.02-1.74-.06-2.4-.06h-2.2v8.16h2.14c.8,0,2.1-.02,2.8-.06v1.94c-.74-.02-2.04-.04-2.8-.04h-6.94c-.84,0-1.96,.02-2.78,.04v-1.94c.76,.04,1.9,.06,2.78,.06h2.84v-8.16Z"/><path class="cls-6" d="M719.1,385.66c.16,.08,.24,.18,.24,.3,0,.2-.12,.26-.64,.3-2.16,1.22-3.88,1.8-6.8,2.3-.16-.84-.32-1.26-.76-1.84,2.84-.38,4.5-.86,6.42-1.82l1.54,.76Zm-3.26-.24h-2.06c.04-.8,.06-1.96,.06-3.5v-2.64c0-1.2-.02-2.54-.06-3.18,.8,.02,1.56,.04,2.68,.04h8.08c1.16,0,1.98-.02,2.8-.04q-.04,.66-.06,3.18v2.56c0,1.6,.02,2.76,.06,3.52h-2.06v-.56h-9.44v.62Zm.7-9.92h-1.96c.04-.48,.06-1.14,.06-2.12v-.92c0-.64-.02-1.4-.06-1.76,.7,.02,1.32,.04,2.2,.04h7.44c.9,0,1.52-.02,2.22-.04-.04,.36-.06,1.12-.06,1.76v.94c0,.94,.02,1.62,.06,2.08h-1.98v-.48h-7.92v.5Zm8.74,2.24h-9.44v.92h9.44v-.92Zm-9.44,3.22h9.44v-.92h-9.44v.92Zm0,2.3h9.44v-.92h-9.44v.92Zm8.62-11.06h-7.92v1.34h7.92v-1.34Zm-1.7,12.66c2.14,.92,4.08,1.4,7.12,1.82-.5,.64-.7,1.02-.9,1.86-1.68-.26-2.32-.4-3.82-.86-1.74-.52-2.3-.74-3.56-1.4l1.16-1.42Z"/><path class="cls-6" d="M735.54,379.19c.04-.62,.06-1.44,.06-2.5-1.1,1.22-2.2,2.02-3.94,2.86-.26-.56-.52-1-.86-1.42,1.82-.98,2.76-1.6,3.74-2.56h-1.2c-.58,0-1.42,.02-2,.04v-1.7c.52,.02,1.42,.02,2,.02h.16c-.44-.78-1.1-1.7-1.66-2.36l1.28-.92c.8,.78,1.36,1.48,2.02,2.56l-1.12,.72h1.58v-.82c0-1.58-.02-2.42-.06-3l1.9,.14c.22,.02,.34,.08,.34,.2s-.1,.22-.38,.4c-.02,.56-.02,1.24-.02,2.26v.82h1.4l-.98-.42c.74-1.32,1.06-2,1.44-3.04l1.64,.62c.2,.06,.26,.12,.26,.22s-.04,.12-.12,.16c-.08,.04-.2,.08-.26,.1-.7,1.18-.74,1.24-1.5,2.36h.16c.58,0,1.48,0,1.98-.02v1.7c-.56-.02-1.4-.04-1.98-.04h-2.04v.16c1.46,.58,2.24,1.02,3.32,1.9l-1.1,1.36c-.6-.62-1.18-1.08-2.22-1.74,.02,.82,.02,1.48,.04,1.94h-1.88Zm-1.9,6.48l-1.58-.9c.4-.5,.9-1.24,1.38-2.06h-.1c-.58,0-1.42,.02-2,.04v-1.7c.58,.02,1.42,.04,2,.04h1.02c.38-.72,.7-1.42,.92-1.98l1.76,.86c.14,.06,.22,.16,.22,.26,0,.16-.18,.24-.62,.26-.12,.2-.22,.4-.34,.6h3.12c.58,0,1.42-.02,1.98-.04v1.7c-.46-.02-1.12-.04-1.66-.04-.4,.78-.82,1.54-1.34,2.24,.5,.26,1,.54,1.52,.84l-1.08,1.56c-.58-.4-1.14-.76-1.68-1.08-1.26,1.04-2.9,1.68-5.42,2.3-.24-.78-.3-.92-.78-1.6,2.08-.44,3.48-.9,4.54-1.6-.44-.22-.88-.42-1.32-.6l-.54,.9Zm1.72-2.96c-.14,.26-.3,.52-.46,.8,.64,.2,1.26,.44,1.88,.7,.4-.46,.72-.98,1.02-1.5h-2.44Zm14.42-6.92c-.36-.02-.88-.04-1.4-.04-.18,1.5-.46,3-.86,4.46-.3,1.06-.7,2.1-1.24,3.06,.82,1.22,1.76,2.08,3.74,3.52-.62,.52-.84,.78-1.32,1.54-1.32-.98-2.62-2.26-3.52-3.46-1.16,1.46-2.74,2.7-4.6,3.68-.38-.76-.42-.84-1-1.54,2.38-1.4,3.54-2.36,4.56-3.78-.76-1.42-1.24-3-1.5-4.58-.34,.68-.74,1.36-1.2,2.06-.5-.56-.7-.72-1.42-1.2,1.1-1.5,1.58-2.48,2.2-4.38,.56-1.68,.84-2.9,1.22-5.14l1.7,.54c.28,.08,.34,.12,.34,.22,0,.14-.1,.22-.44,.32-.22,1.06-.42,2-.64,2.84h3c.76,0,1.78-.02,2.38-.06v1.94Zm-5.92-.06l-.04,.14c.26,1.9,.64,3.78,1.4,5.54,.82-1.78,1.16-3.76,1.42-5.68h-2.78Z"/><path class="cls-6" d="M759.62,371.61v8.82c0,1.82,.06,2.34,.36,3,.46,1.02,1.56,1.62,3,1.62,1.56,0,2.7-.7,3.12-1.92,.2-.56,.24-1.06,.24-2.7v-8.82h2.36v8.86c0,2.28-.08,2.9-.5,3.8-.8,1.78-2.74,2.82-5.22,2.82s-4.42-1.06-5.24-2.82c-.4-.9-.48-1.52-.48-3.8v-8.86h2.36Z"/><path class="cls-6" d="M776.36,371.61c2.36,0,3.62,.24,4.52,.88,1.12,.78,1.72,2.12,1.72,3.82,0,1.8-.7,3.18-1.96,3.9-.84,.48-2,.68-4.06,.68h-1.72v5.92h-2.36v-15.2h3.86Zm.28,7.26c1.2,0,2.06-.14,2.54-.42,.62-.38,.98-1.16,.98-2.2,0-.96-.3-1.7-.88-2.1-.52-.36-1.32-.52-2.7-.52h-1.72v5.24h1.78Z"/></g><path class="cls-3" d="M548.49,189.98l-64.92-.48c-2.76,0-5-2.24-5-5v-39.48c0-2.76,2.24-5,5-5l64.92,.48c2.76,0,5,2.24,5,5v39.48c0,2.76-2.24,5-5,5Z"/><g><path class="cls-1" d="M493.49,160.97c.1-2.7,1.78-4.29,4.59-4.29s4.51,1.6,4.51,4.09c0,1.46-.5,2.52-2.2,4.59-.86,1.04-1.96,2.32-4.07,4.71h6.43v2.14h-9.44v-1.88q.34-.42,1.54-1.82c4.87-5.71,5.33-6.37,5.33-7.65s-.9-2.1-2.22-2.1c-1.42,0-2.29,.78-2.45,2.22h-2.02Z"/><path class="cls-1" d="M516.28,164.57c0,4.93-1.98,7.87-5.29,7.87s-5.31-2.94-5.31-7.87,1.98-7.87,5.31-7.87,5.29,2.94,5.29,7.87Zm-7.23-4.79c-.64,1.12-.98,2.82-.98,4.79s.34,3.67,.98,4.79c.42,.72,1.1,1.12,1.94,1.12s1.5-.4,1.92-1.12c.64-1.12,1-2.83,1-4.79s-.38-3.73-1-4.79c-.44-.74-1.1-1.12-1.92-1.12s-1.52,.38-1.94,1.12Z"/><path class="cls-1" d="M519.4,160.97c.1-2.7,1.78-4.29,4.59-4.29s4.51,1.6,4.51,4.09c0,1.46-.5,2.52-2.2,4.59-.86,1.04-1.96,2.32-4.07,4.71h6.43v2.14h-9.44v-1.88q.34-.42,1.54-1.82c4.87-5.71,5.33-6.37,5.33-7.65s-.9-2.1-2.22-2.1c-1.42,0-2.29,.78-2.45,2.22h-2.02Z"/><path class="cls-1" d="M533.56,159.46c2.14-.06,3.12-.76,3.57-2.56h1.62v15.31h-2.34v-11.38h-2.85v-1.36Z"/></g><path class="cls-22" d="M548.49,269.34l-64.92-.48c-2.76,0-5-2.24-5-5v-39.48c0-2.76,2.24-5,5-5l64.92,.48c2.76,0,5,2.24,5,5v39.48c0,2.76-2.24,5-5,5Z"/><g><path class="cls-1" d="M492.06,240.33c.1-2.7,1.78-4.29,4.59-4.29s4.51,1.6,4.51,4.09c0,1.46-.5,2.52-2.2,4.59-.86,1.04-1.96,2.32-4.07,4.71h6.43v2.14h-9.44v-1.88q.34-.42,1.54-1.82c4.87-5.71,5.33-6.37,5.33-7.65s-.9-2.1-2.22-2.1c-1.42,0-2.28,.78-2.44,2.22h-2.02Z"/><path class="cls-1" d="M514.85,243.93c0,4.93-1.98,7.87-5.29,7.87s-5.31-2.94-5.31-7.87,1.98-7.87,5.31-7.87,5.29,2.94,5.29,7.87Zm-7.23-4.79c-.64,1.12-.98,2.82-.98,4.79s.34,3.67,.98,4.79c.42,.72,1.1,1.12,1.94,1.12s1.5-.4,1.92-1.12c.64-1.12,1-2.83,1-4.79s-.38-3.73-1-4.79c-.44-.74-1.1-1.12-1.92-1.12s-1.52,.38-1.94,1.12Z"/><path class="cls-1" d="M517.97,240.33c.1-2.7,1.78-4.29,4.59-4.29s4.51,1.6,4.51,4.09c0,1.46-.5,2.52-2.2,4.59-.86,1.04-1.96,2.32-4.07,4.71h6.43v2.14h-9.44v-1.88q.34-.42,1.54-1.82c4.87-5.71,5.33-6.37,5.33-7.65s-.9-2.1-2.22-2.1c-1.42,0-2.28,.78-2.44,2.22h-2.02Z"/><path class="cls-1" d="M530.93,240.33c.1-2.7,1.78-4.29,4.59-4.29s4.51,1.6,4.51,4.09c0,1.46-.5,2.52-2.2,4.59-.86,1.04-1.96,2.32-4.07,4.71h6.43v2.14h-9.44v-1.88q.34-.42,1.54-1.82c4.87-5.71,5.33-6.37,5.33-7.65s-.9-2.1-2.22-2.1c-1.42,0-2.28,.78-2.44,2.22h-2.02Z"/></g><rect class="cls-23" x="248.53" y="289.87" width="187.84" height="49.48" rx="5" ry="5"/><g><path class="cls-1" d="M315.6,311.44c-.36-1.88-1.42-2.84-3.15-2.84-2.46,0-4.01,2.26-4.01,5.87s1.54,5.83,4.05,5.83c1.92,0,3.04-1.24,3.27-3.67h2.14c-.22,3.71-2.08,5.71-5.33,5.71-4.03,0-6.61-3.06-6.61-7.85,0-2.74,.8-4.95,2.32-6.35,1.12-1.02,2.6-1.58,4.19-1.58,1.82,0,3.37,.72,4.27,2,.56,.76,.82,1.6,.94,2.88h-2.08Z"/><path class="cls-1" d="M324.83,310.92c2.95,0,5.05,2.38,5.05,5.73s-2.1,5.71-5.05,5.71-5.07-2.38-5.07-5.71,2.1-5.73,5.07-5.73Zm0,9.6c1.64,0,2.74-1.56,2.74-3.87s-1.1-3.91-2.74-3.91-2.76,1.58-2.76,3.91,1.1,3.87,2.76,3.87Z"/><path class="cls-1" d="M341.08,318.69c-.12,.82-.52,1.66-1.06,2.32-.76,.88-1.86,1.34-3.23,1.34-2.99,0-4.95-2.26-4.95-5.71s1.94-5.73,4.97-5.73c2.24,0,3.79,1.3,4.19,3.57h-2.26c-.28-1.18-.92-1.74-1.98-1.74-1.6,0-2.6,1.52-2.6,3.93,0,1.4,.38,2.58,1.06,3.29,.36,.36,.92,.56,1.56,.56,1.12,0,1.8-.58,2.08-1.82h2.22Z"/><path class="cls-1" d="M350.23,311.22h2.72l-4.51,4.95,4.89,5.89h-3.04l-4.27-5.51v5.51h-2.24v-15.31h2.24v9.2l4.21-4.73Z"/><path class="cls-1" d="M359.74,306.83c2.36,0,3.63,.24,4.53,.88,1.12,.78,1.72,2.12,1.72,3.83,0,1.8-.7,3.19-1.96,3.91-.84,.48-2,.68-4.07,.68h-1.72v5.93h-2.36v-15.23h3.87Zm.28,7.27c1.2,0,2.06-.14,2.54-.42,.62-.38,.98-1.16,.98-2.2,0-.96-.3-1.7-.88-2.1-.52-.36-1.32-.52-2.71-.52h-1.72v5.25h1.78Z"/><path class="cls-1" d="M370.65,306.83v2.46h-2.46v-2.46h2.46Zm-.12,4.39v10.84h-2.22v-10.84h2.22Z"/><path class="cls-1" d="M379.27,311.22l-.04,1.76h-2.38c-.02,1.3-.08,4.67-.08,4.91v.78c0,.76,.04,1.06,.22,1.28,.18,.22,.52,.36,.9,.36,.52,0,1.06-.12,1.62-.36l-.02,1.88c-.8,.32-1.44,.44-2.18,.44-1.16,0-2.02-.4-2.48-1.16-.28-.44-.38-.94-.38-1.88q0-.38,.04-1.44l.14-4.81h-1.66l.04-1.76h1.68l.08-3.13h2.18l-.06,3.13h2.38Z"/></g><g><path class="cls-3" d="M308.02,157.97c0,1.79,.02,3.3,.05,4.15h-2.5c.05-.92,.07-2.24,.07-4.15v-3.93h-4.99c-1.3,0-3.42,.05-4.69,.09v-2.36c1.22,.05,3.35,.09,4.69,.09h4.99v-8.34h-4.08c-1.3,0-3.42,.05-4.71,.09v-2.36c1.23,.05,3.35,.09,4.71,.09h10.58c1.48,0,3.51-.05,4.71-.09v2.36c-1.27-.07-3.28-.09-4.71-.09h-4.12v8.34h5.02c1.48,0,3.49-.05,4.69-.09v2.36c-1.25-.07-3.25-.09-4.69-.09h-5.02v3.93Zm-8.03-13.81c1.46,1.86,2.57,3.53,3.75,5.8l-2.19,1.18c-1.72-3.49-1.93-3.84-3.37-5.84l1.81-1.13Zm9.4,6.15c1.55-2.24,2.59-4.1,3.46-6.29l2.29,1.08c.14,.07,.21,.16,.21,.28,0,.17-.19,.26-.64,.28-1.67,2.99-1.84,3.27-3.53,5.7l-1.79-1.06Z"/><path class="cls-3" d="M322.73,147.77h-.97c-.64,0-1.39,0-1.88,.02v-2.21l1.88,.02h.97v-1.18c0-1.88-.02-2.87-.07-3.53l2.4,.14c.26,.02,.4,.12,.4,.26,0,.12-.12,.26-.42,.45-.02,.54-.02,1.2-.02,2.69v1.18h.92l1.88-.02v2.21c-.5-.02-1.25-.02-1.88-.02h-.92v6.17c1.08-.33,2.19-.71,3.3-1.15l.28,2c-1.41,.66-4.29,1.6-7.61,2.54-.19,.33-.33,.45-.47,.45-.12,0-.28-.12-.35-.28l-.82-2.24c1.13-.19,2.26-.4,3.39-.68v-6.81Zm7.82-.47c-.82,1.88-1.7,3.42-2.87,5.11-.54-.73-1.04-1.2-1.67-1.6,2.17-3.02,3.53-6.13,4.55-10.41l2.21,.78c.21,.07,.31,.17,.31,.31q0,.17-.52,.38c-.4,1.23-.75,2.29-1.11,3.25h7.47l.33-.4,1.48,1.3c.09,.09,.17,.24,.17,.38,0,.17-.07,.24-.45,.38-.07,7.44-.07,7.68-.21,9.61-.28,3.42-.66,4.48-1.86,5.11-.66,.38-1.79,.54-3.46,.54h-.12c-.14-1.2-.21-1.48-.64-2.52l1.81,.02c1.08,0,1.34-.17,1.6-.97,.4-1.39,.54-3.93,.59-11.26h-7.61Zm6.93,8.25c-1.51,.59-4.22,1.39-7.42,2.19-.19,.31-.33,.45-.47,.45-.12,0-.28-.14-.33-.28l-.82-2.26q.66-.14,2.5-.49c1.86-.35,3.98-.97,6.15-1.74l.4,2.14Zm-1.23-3.93c-.35-.02-.94-.02-1.39-.02h-3.63c-.45,0-1.06,0-1.39,.02v-2.17c.33,.02,.94,.05,1.39,.05h3.63c.45,0,1.04-.02,1.39-.05v2.17Z"/><path class="cls-3" d="M353.71,145.29h-5.04c-.26,.4-.52,.8-.82,1.25-1.2,1.74-1.98,2.66-3.51,4.08-.4-.64-.71-.97-1.51-1.74,2.9-2.87,4.29-4.99,5.73-8.81l2.1,.8c.33,.14,.49,.28,.49,.4q0,.19-.66,.35c-.24,.59-.47,1.08-.68,1.55h9.57c1.41,0,3.49-.05,4.71-.09v2.31c-1.22-.05-3.3-.09-4.71-.09h-3.35v3.16h3.75c.85,0,2.14-.02,2.8-.05v2.21c-.71-.05-2.03-.07-2.8-.07h-3.75v3.82h4.15c1.93,0,3.09-.02,4.69-.09v2.33c-1.25-.05-3.25-.07-4.69-.07h-4.15v.73c0,2.17,.02,3.77,.07,4.83h-2.45c.05-1.06,.07-2.66,.07-4.83v-.73h-5.91c-1.3,0-3.42,.02-4.69,.07v-2.33c1.01,.05,2.66,.07,3.98,.09v-3.89q-.02-1.67-.05-2.07,.64,.02,2.76,.05h3.91v-3.16Zm-4.41,5.25v3.82h4.41v-3.82h-4.41Z"/><path class="cls-3" d="M368.51,144.07c0-1.08,0-1.37-.02-2.19l2.14,.14c.26,.02,.42,.12,.42,.24,0,.17-.14,.28-.45,.5-.02,.49-.02,.61-.02,1.32v1.01h1.11v-2.73c0-1.08,0-1.37-.02-2.19l2.19,.17c.28,0,.42,.09,.42,.24s-.12,.28-.45,.47v.87h1.67l1.88-.02v1.93c-.5-.02-1.25-.02-1.88-.02h-1.67v1.3h1.41c.94,0,2.47-.02,3.28-.05v2.05c-.85-.02-2.38-.05-3.28-.05h-5.42c-1.01,0-2.33,.02-3.3,.05v-2.05c.54,.02,1.27,.02,1.98,.05v-1.01Zm12.11,4.57c-.45,.57-.92,1.06-1.41,1.53-.38-.78-.59-1.18-1.04-1.79-.07,.07-.17,.12-.24,.16q-.02,.4-.02,3.35v6.05c0,1.79,.02,3.3,.07,4.15h-1.98v-.78h-7.09v.78h-1.98c.05-.92,.07-2.24,.07-4.15v-6.05c0-2.31-.02-3.53-.09-4.22l2.07,.17c.24,.02,.4,.12,.4,.24,0,.14-.14,.28-.45,.47q-.02,.4-.02,3.35v7.56h7.09v-7.56c0-2.31-.02-3.53-.09-4.22l2.07,.17c.12,0,.26,.05,.35,.12,.85-.92,1.58-1.91,2.17-3.02,.8-1.51,1.34-3.16,1.81-4.78l2.14,.85c.38,.14,.47,.21,.47,.38s0,.21-.54,.33c1.13,2.64,2.36,4.22,4.55,5.94-.66,.71-.92,1.06-1.37,1.86-.57-.5-1.04-.94-1.48-1.41v1.91l-.94-.02h-3.6l-.92,.02v-1.37Zm-9.17,10.25c.02-.68,.05-1.58,.05-2.76-.45,.78-.99,1.55-1.53,2.14-.52-.97-.54-1.01-.99-1.48,.92-.92,1.67-1.98,2.31-3.32h-.52c-.45,0-1.06,.02-1.41,.05v-1.86c.35,.02,.97,.02,1.41,.02h.73v-.61c0-1.86-.02-2.87-.07-3.53l1.86,.17c.28,.02,.4,.09,.4,.24s-.12,.26-.45,.45v3.3h.78c.45,0,1.04,0,1.39-.02v1.86c-.35-.02-.94-.05-1.39-.05h-.78v.35c1.15,.78,1.7,1.32,2.5,2.38l-1.11,1.39c-.4-.66-.85-1.25-1.39-1.81,0,1.41,.02,2.5,.05,3.11h-1.84Zm-.97-10.84c.4,1.01,.66,1.86,.92,2.99l-1.39,.45c-.24-1.08-.54-2.24-.8-2.92l1.27-.52Zm2.83,3.02c.5-1.48,.52-1.51,.9-3.11l1.53,.61c.12,.05,.21,.16,.21,.28,0,.14-.17,.24-.52,.26-.38,1.23-.57,1.79-.82,2.47l-1.3-.52Zm10.39,7.59c0,1.53,0,2.73,.05,3.44h-2.29c.05-.82,.07-1.93,.07-3.44v-4.85c-.92,.02-2.07,.05-2.8,.07v-2.21c.9,.02,2.24,.07,3.3,.07h4.05c.68,0,1.18-.02,1.7-.05-.05,.71-.05,1.74-.05,2.85v1.44q0,.87,.02,1.77v.26c0,1.67-.64,2.1-3.2,2.17-.05-.82-.12-1.51-.26-2.26,.28,.02,.42,.05,.59,.05,.64,0,.68-.07,.68-.99v-3.16h-1.86v4.85Zm2.17-10.77c-1.08-1.23-1.93-2.62-2.54-4.12-.35,.99-.78,1.86-1.32,2.78-.28,.49-.57,.94-.85,1.34h4.71Z"/></g><path class="cls-3" d="M413.44,244.34c1.2-.02,2.47-.05,3.37-.09v2.24c-1.2-.05-3.39-.09-4.69-.09h-2.1c.17,1.65,.47,3.3,1.13,4.85,.9-1.06,1.62-2.29,2.29-3.91l1.88,.92c.24,.12,.35,.26,.35,.38,0,.19-.09,.24-.61,.28-.9,1.79-1.74,3.13-2.73,4.24,.71,.87,1.51,1.48,2.03,1.48,.57,0,.73-.4,1.15-2.94,.64,.4,1.2,.68,1.86,.94-.47,2.21-.66,2.78-1.06,3.42-.45,.73-1.01,1.04-1.81,1.04-1.3,0-2.69-.87-3.86-2.38-1.22,.92-2.66,1.65-4.57,2.4-.4-.87-.64-1.3-1.13-1.91,2.17-.85,3.44-1.51,4.52-2.33-.73-1.44-1.18-2.99-1.46-5.16-.07-.52-.12-.85-.17-1.32h-9.07v1.01c0,4.71-.61,7.04-2.52,9.61-.64-1.01-.66-1.06-1.44-1.79,.68-.94,1.15-1.96,1.46-3.23,.21-.87,.38-3.02,.38-4.76v-.85c0-.71-.02-1.63-.07-2.07,.8,.02,1.6,.02,2.62,.02h8.51c0-.28-.02-.59-.05-.92-.05-.64-.07-.9-.12-1.2h-7.49c-1.3,0-3.42,.05-4.69,.09v-2.21c1.15,.07,3.09,.09,4.43,.09v-2c0-1.06,0-1.37-.05-2.17l2.33,.14c.26,.02,.42,.12,.42,.24,0,.14-.14,.28-.45,.47v3.32h3.34v-2.73c0-1.08,0-1.37-.05-2.19l2.33,.16c.28,.02,.42,.09,.42,.24s-.12,.28-.45,.47v.87h4.64c.68,0,1.67-.02,2.33-.05v2.05c-.66-.02-1.65-.05-2.33-.05h-4.64v1.23h4.67c1.48,0,3.51-.02,4.71-.09v2.21c-1.18-.07-2.97-.09-4.36-.09,.61,.45,.99,.78,1.53,1.37l-.75,.75Zm-11.69,6.05c.14,.05,.21,.12,.21,.24,0,.09-.07,.21-.17,.24l-.21,.07c-.68,2.26-1.06,3.09-2,4.52-.4-.5-.73-.78-1.41-1.15,1.11-1.77,1.6-2.92,1.91-4.5l1.67,.59Zm2.83,.92c0,.42,.05,1.7,.07,2.52v.28c0,1.67-.66,2.05-3.6,2.07-.07-1.15-.12-1.27-.47-2.19,.47,.05,.71,.05,1.06,.05,.73,0,.85-.14,.85-.97v-3.86h-1.25c-.64,0-1.37,.02-1.86,.05v-1.93c.52,.02,1.37,.05,1.86,.05h4.19c.52,0,1.37-.02,1.88-.05v1.93c-.5-.02-1.25-.05-1.88-.05h-.85v2.1Zm1.51-1.41c.99,1.04,1.46,1.72,2.05,2.94l-1.55,.97c-.85-1.74-1.04-2.07-1.79-3.02l1.3-.9Zm6.31-5.56c-.09-.09-.21-.24-.38-.42-.19-.21-.49-.49-1.11-.97l.71-.73h-3.11l1.44,.17c.26,.02,.38,.12,.38,.26s-.14,.28-.47,.47c0,.42,.02,.82,.02,1.23h2.52Z"/><g><g><path class="cls-3" d="M303.69,215.84c.35-9.45,6.23-14.98,16.03-14.98s15.75,5.6,15.75,14.28c0,5.11-1.75,8.82-7.7,16.03-3.01,3.64-6.86,8.12-14.21,16.45h22.47v7.49h-32.97v-6.58q1.19-1.47,5.39-6.37c17.01-19.95,18.62-22.26,18.62-26.74s-3.15-7.35-7.77-7.35c-4.97,0-7.98,2.73-8.54,7.77h-7.07Z"/><path class="cls-3" d="M376.42,200.93c-7.28,5.53-14,13.37-16.45,19.04,1.82-.77,4.06-1.19,6.58-1.19,9.31,0,15.75,7.35,15.75,18.06,0,11.27-7,19.04-17.15,19.04-10.71,0-17.78-7.98-17.78-20.16,0-13.09,7.77-26.25,20.51-34.79h8.54Zm-2.45,36.12c0-7-3.71-11.83-9.1-11.83s-9.17,4.83-9.17,11.83,3.85,11.83,9.31,11.83,8.96-4.76,8.96-11.83Z"/></g><g><path class="cls-5" d="M303.69,215.84c.35-9.45,6.23-14.98,16.03-14.98s15.75,5.6,15.75,14.28c0,5.11-1.75,8.82-7.7,16.03-3.01,3.64-6.86,8.12-14.21,16.45h22.47v7.49h-32.97v-6.58q1.19-1.47,5.39-6.37c17.01-19.95,18.62-22.26,18.62-26.74s-3.15-7.35-7.77-7.35c-4.97,0-7.98,2.73-8.54,7.77h-7.07Z"/><path class="cls-5" d="M376.42,200.93c-7.28,5.53-14,13.37-16.45,19.04,1.82-.77,4.06-1.19,6.58-1.19,9.31,0,15.75,7.35,15.75,18.06,0,11.27-7,19.04-17.15,19.04-10.71,0-17.78-7.98-17.78-20.16,0-13.09,7.77-26.25,20.51-34.79h8.54Zm-2.45,36.12c0-7-3.71-11.83-9.1-11.83s-9.17,4.83-9.17,11.83,3.85,11.83,9.31,11.83,8.96-4.76,8.96-11.83Z"/></g><g><path class="cls-24" d="M303.69,215.84c.35-9.45,6.23-14.98,16.03-14.98s15.75,5.6,15.75,14.28c0,5.11-1.75,8.82-7.7,16.03-3.01,3.64-6.86,8.12-14.21,16.45h22.47v7.49h-32.97v-6.58q1.19-1.47,5.39-6.37c17.01-19.95,18.62-22.26,18.62-26.74s-3.15-7.35-7.77-7.35c-4.97,0-7.98,2.73-8.54,7.77h-7.07Z"/><path class="cls-25" d="M376.42,200.93c-7.28,5.53-14,13.37-16.45,19.04,1.82-.77,4.06-1.19,6.58-1.19,9.31,0,15.75,7.35,15.75,18.06,0,11.27-7,19.04-17.15,19.04-10.71,0-17.78-7.98-17.78-20.16,0-13.09,7.77-26.25,20.51-34.79h8.54Zm-2.45,36.12c0-7-3.71-11.83-9.1-11.83s-9.17,4.83-9.17,11.83,3.85,11.83,9.31,11.83,8.96-4.76,8.96-11.83Z"/></g></g><rect class="cls-3" x="13.17" y="289.87" width="187.84" height="49.48" rx="5" ry="5"/><g><path class="cls-1" d="M98.09,320.23c0,1.52,.02,2.81,.06,3.53h-1.96c.04-.78,.06-1.9,.06-3.53v-1.06c-1.16,1.02-1.92,1.54-3.21,2.24-1.52,.82-2.56,1.24-4.59,1.86-.34-.9-.38-1-.84-1.76,3.03-.8,5.13-1.72,6.91-3.01h-2.54c-1.04,0-2.34,.02-3.19,.06v-1.7c.84,.04,2.14,.06,3.19,.06h4.27v-.98h-2.56c-1.02,0-2.34,.02-3.19,.06v-1.68c.84,.02,2.16,.06,3.19,.06h2.56v-.94h-3.55c-1.04,0-2.36,.04-3.21,.08v-1.7c.84,.04,2.16,.06,3.21,.06h1.22c-.24-.6-.54-1.16-.88-1.7h-.82c-1.1,0-2.9,.02-3.99,.06v-1.82c.9,.04,2.36,.06,3.49,.06-.4-.66-.7-1.04-1.46-1.88l1.36-1.06c1.12,1.06,1.4,1.38,2.14,2.58l-.56,.36h1.48v-1.96l-.02-1.28,1.88,.14c.24,.02,.38,.08,.38,.2s-.12,.24-.4,.4v2.5h1.46v-1.96c0-.54,0-.98-.02-1.28l1.9,.14c.22,.02,.36,.08,.36,.2s-.12,.24-.4,.4v2.5h.8c.62-1.24,.82-1.82,1.08-2.89l1.94,.7c.12,.04,.22,.14,.22,.22,0,.14-.06,.18-.46,.32q-.12,.24-.6,1.22c-.06,.12-.14,.26-.24,.42,1.22,0,2.75-.02,3.69-.06v1.82c-1.06-.04-2.76-.06-3.99-.06h-1.3c.26,.08,.32,.18,.32,.26,0,.12-.1,.18-.44,.28q-.14,.26-.6,1.16h1.56c.92,0,2.32-.02,3.19-.06v1.7c-.86-.04-2.26-.08-3.19-.08h-3.73v.94h2.73c.92,0,2.34-.04,3.21-.06v1.68c-.86-.04-2.28-.06-3.21-.06h-2.73v.98h4.51c.92,0,2.32-.02,3.19-.06v1.7c-.86-.04-2.26-.06-3.19-.06h-2.96c1.84,1.3,3.91,2.1,7.09,2.81-.46,.74-.56,.96-.9,1.82-2-.5-3.39-1.04-5.07-1.94-1.06-.6-1.66-1.02-2.67-1.96v1Zm.3-8.35c.26-.56,.52-1.12,.7-1.7h-4.07c.38,.52,.68,1.1,.92,1.7h2.44Z"/><path class="cls-1" d="M120.08,313.86c.66,.68,1.4,1.24,2.32,1.76,1.18,.68,2.42,1.16,4.43,1.66q-.16,.26-.58,.94c-.08,.14-.16,.34-.4,.9-2.04-.64-3.17-1.14-4.55-2.1l-.1,.06v3.75c0,1.32,0,2.34,.04,2.93h-2.08c.04-.68,.06-1.6,.06-2.93v-1.48c0-1.58-.02-2.44-.06-3.01l1.34,.08c-.54-.42-1.04-.86-1.5-1.38-.32-.36-.64-.76-.92-1.18h-1.46c-.82,.92-1.72,1.78-2.72,2.52l1.56,.12c.18,.02,.36,.14,.36,.26s-.14,.22-.38,.34c-.08,2.6-.34,3.53-1.26,4.55-.92,.98-2.38,1.7-4.59,2.26-.24-.8-.4-1.12-.8-1.7,.36-.1,.62-.18,.8-.24,1.9-.58,2.66-1,3.29-1.8,.44-.58,.62-1.38,.62-2.93l-.02-.58c-.18,.14-.38,.26-.58,.4-1.26,.82-2.26,1.32-4.43,2.14-.22-.76-.42-1.18-.82-1.78,2.87-.9,4.89-1.98,6.55-3.57h-2.02v.78h-1.96c.02-.46,.04-1.12,.04-2.1v-4.65c0-.64-.02-1.4-.04-1.76,.7,.02,1.3,.02,2.2,.02h9.76c.9,0,1.5,0,2.2-.02-.02,.36-.04,1.12-.04,1.76v4.41c0,.94,.02,1.62,.04,2.08h-1.96v-.52h-2.32Zm-7.91-5.95v1.24h4.11v-1.24h-4.11Zm0,4.23h4.11v-1.3h-4.11v1.3Zm10.24-4.23h-4.17v1.24h4.17v-1.24Zm0,2.92h-4.17v1.3h4.17v-1.3Z"/></g><path class="cls-3" d="M173.13,244.34c1.2-.02,2.47-.05,3.37-.09v2.24c-1.2-.05-3.39-.09-4.69-.09h-2.1c.17,1.65,.47,3.3,1.13,4.85,.9-1.06,1.62-2.29,2.29-3.91l1.88,.92c.24,.12,.35,.26,.35,.38,0,.19-.09,.24-.61,.28-.9,1.79-1.74,3.13-2.73,4.24,.71,.87,1.51,1.48,2.03,1.48,.57,0,.73-.4,1.15-2.94,.64,.4,1.2,.68,1.86,.94-.47,2.21-.66,2.78-1.06,3.42-.45,.73-1.01,1.04-1.81,1.04-1.3,0-2.69-.87-3.86-2.38-1.22,.92-2.66,1.65-4.57,2.4-.4-.87-.64-1.3-1.13-1.91,2.17-.85,3.44-1.51,4.52-2.33-.73-1.44-1.18-2.99-1.46-5.16-.07-.52-.12-.85-.17-1.32h-9.07v1.01c0,4.71-.61,7.04-2.52,9.61-.64-1.01-.66-1.06-1.44-1.79,.68-.94,1.15-1.96,1.46-3.23,.21-.87,.38-3.02,.38-4.76v-.85c0-.71-.02-1.63-.07-2.07,.8,.02,1.6,.02,2.62,.02h8.51c0-.28-.02-.59-.05-.92-.05-.64-.07-.9-.12-1.2h-7.49c-1.3,0-3.42,.05-4.69,.09v-2.21c1.15,.07,3.09,.09,4.43,.09v-2c0-1.06,0-1.37-.05-2.17l2.33,.14c.26,.02,.42,.12,.42,.24,0,.14-.14,.28-.45,.47v3.32h3.34v-2.73c0-1.08,0-1.37-.05-2.19l2.33,.16c.28,.02,.42,.09,.42,.24s-.12,.28-.45,.47v.87h4.64c.68,0,1.67-.02,2.33-.05v2.05c-.66-.02-1.65-.05-2.33-.05h-4.64v1.23h4.67c1.48,0,3.51-.02,4.71-.09v2.21c-1.18-.07-2.97-.09-4.36-.09,.61,.45,.99,.78,1.53,1.37l-.75,.75Zm-11.69,6.05c.14,.05,.21,.12,.21,.24,0,.09-.07,.21-.17,.24l-.21,.07c-.68,2.26-1.06,3.09-2,4.52-.4-.5-.73-.78-1.41-1.15,1.11-1.77,1.6-2.92,1.91-4.5l1.67,.59Zm2.83,.92c0,.42,.05,1.7,.07,2.52v.28c0,1.67-.66,2.05-3.6,2.07-.07-1.15-.12-1.27-.47-2.19,.47,.05,.71,.05,1.06,.05,.73,0,.85-.14,.85-.97v-3.86h-1.25c-.64,0-1.37,.02-1.86,.05v-1.93c.52,.02,1.37,.05,1.86,.05h4.19c.52,0,1.37-.02,1.88-.05v1.93c-.5-.02-1.25-.05-1.88-.05h-.85v2.1Zm1.51-1.41c.99,1.04,1.46,1.72,2.05,2.94l-1.55,.97c-.85-1.74-1.04-2.07-1.79-3.02l1.3-.9Zm6.31-5.56c-.09-.09-.21-.24-.38-.42-.19-.21-.49-.49-1.11-.97l.71-.73h-3.11l1.44,.17c.26,.02,.38,.12,.38,.26s-.14,.28-.47,.47c0,.42,.02,.82,.02,1.23h2.52Z"/><g><path class="cls-3" d="M102.63,236.49v6.72h-7.63v12.32h-7.84v-12.32h-23.73v-6.37l22.61-35.21h8.96v34.86h7.63Zm-15.47-25.06l-15.75,25.06h15.75v-25.06Z"/><path class="cls-3" d="M116.48,210.59c7.49-.21,10.92-2.66,12.46-8.96h5.67v53.49h-8.19v-39.76h-9.94v-4.76Z"/></g><g><path class="cls-3" d="M72.66,157.97c0,1.79,.02,3.3,.05,4.15h-2.5c.05-.92,.07-2.24,.07-4.15v-3.93h-4.99c-1.29,0-3.42,.05-4.69,.09v-2.36c1.22,.05,3.35,.09,4.69,.09h4.99v-8.34h-4.07c-1.3,0-3.42,.05-4.71,.09v-2.36c1.22,.05,3.35,.09,4.71,.09h10.58c1.48,0,3.51-.05,4.71-.09v2.36c-1.27-.07-3.28-.09-4.71-.09h-4.12v8.34h5.02c1.48,0,3.49-.05,4.69-.09v2.36c-1.25-.07-3.25-.09-4.69-.09h-5.02v3.93Zm-8.04-13.81c1.46,1.86,2.57,3.53,3.75,5.8l-2.19,1.18c-1.72-3.49-1.93-3.84-3.37-5.84l1.81-1.13Zm9.4,6.15c1.55-2.24,2.59-4.1,3.46-6.29l2.29,1.08c.14,.07,.21,.16,.21,.28,0,.17-.19,.26-.64,.28-1.67,2.99-1.84,3.27-3.53,5.7l-1.79-1.06Z"/><path class="cls-3" d="M87.37,147.77h-.96c-.64,0-1.39,0-1.88,.02v-2.21l1.88,.02h.96v-1.18c0-1.88-.02-2.87-.07-3.53l2.4,.14c.26,.02,.4,.12,.4,.26,0,.12-.12,.26-.42,.45-.02,.54-.02,1.2-.02,2.69v1.18h.92l1.88-.02v2.21c-.5-.02-1.25-.02-1.88-.02h-.92v6.17c1.08-.33,2.19-.71,3.3-1.15l.28,2c-1.41,.66-4.29,1.6-7.61,2.54-.19,.33-.33,.45-.47,.45-.12,0-.28-.12-.35-.28l-.82-2.24c1.13-.19,2.26-.4,3.39-.68v-6.81Zm7.82-.47c-.82,1.88-1.7,3.42-2.88,5.11-.54-.73-1.04-1.2-1.67-1.6,2.17-3.02,3.53-6.13,4.55-10.41l2.21,.78c.21,.07,.31,.17,.31,.31q0,.17-.52,.38c-.4,1.23-.75,2.29-1.11,3.25h7.47l.33-.4,1.48,1.3c.09,.09,.16,.24,.16,.38,0,.17-.07,.24-.45,.38-.07,7.44-.07,7.68-.21,9.61-.28,3.42-.66,4.48-1.86,5.11-.66,.38-1.79,.54-3.46,.54h-.12c-.14-1.2-.21-1.48-.64-2.52l1.81,.02c1.08,0,1.34-.17,1.6-.97,.4-1.39,.54-3.93,.59-11.26h-7.61Zm6.93,8.25c-1.51,.59-4.22,1.39-7.42,2.19-.19,.31-.33,.45-.47,.45-.12,0-.28-.14-.33-.28l-.82-2.26q.66-.14,2.5-.49c1.86-.35,3.98-.97,6.15-1.74l.4,2.14Zm-1.22-3.93c-.35-.02-.94-.02-1.39-.02h-3.63c-.45,0-1.06,0-1.39,.02v-2.17c.33,.02,.94,.05,1.39,.05h3.63c.45,0,1.04-.02,1.39-.05v2.17Z"/><path class="cls-3" d="M118.35,145.29h-5.04c-.26,.4-.52,.8-.82,1.25-1.2,1.74-1.98,2.66-3.51,4.08-.4-.64-.71-.97-1.51-1.74,2.9-2.87,4.29-4.99,5.72-8.81l2.1,.8c.33,.14,.49,.28,.49,.4q0,.19-.66,.35c-.23,.59-.47,1.08-.68,1.55h9.57c1.41,0,3.49-.05,4.71-.09v2.31c-1.22-.05-3.3-.09-4.71-.09h-3.35v3.16h3.75c.85,0,2.14-.02,2.8-.05v2.21c-.71-.05-2.03-.07-2.8-.07h-3.75v3.82h4.15c1.93,0,3.09-.02,4.69-.09v2.33c-1.25-.05-3.25-.07-4.69-.07h-4.15v.73c0,2.17,.02,3.77,.07,4.83h-2.45c.05-1.06,.07-2.66,.07-4.83v-.73h-5.91c-1.29,0-3.42,.02-4.69,.07v-2.33c1.01,.05,2.66,.07,3.98,.09v-3.89q-.02-1.67-.05-2.07,.64,.02,2.76,.05h3.91v-3.16Zm-4.41,5.25v3.82h4.41v-3.82h-4.41Z"/><path class="cls-3" d="M133.15,144.07c0-1.08,0-1.37-.02-2.19l2.14,.14c.26,.02,.42,.12,.42,.24,0,.17-.14,.28-.45,.5-.02,.49-.02,.61-.02,1.32v1.01h1.11v-2.73c0-1.08,0-1.37-.02-2.19l2.19,.17c.28,0,.42,.09,.42,.24s-.12,.28-.45,.47v.87h1.67l1.88-.02v1.93c-.49-.02-1.25-.02-1.88-.02h-1.67v1.3h1.41c.94,0,2.47-.02,3.28-.05v2.05c-.85-.02-2.38-.05-3.28-.05h-5.42c-1.01,0-2.33,.02-3.3,.05v-2.05c.54,.02,1.27,.02,1.98,.05v-1.01Zm12.11,4.57c-.45,.57-.92,1.06-1.41,1.53-.38-.78-.59-1.18-1.04-1.79-.07,.07-.16,.12-.23,.16q-.02,.4-.02,3.35v6.05c0,1.79,.02,3.3,.07,4.15h-1.98v-.78h-7.09v.78h-1.98c.05-.92,.07-2.24,.07-4.15v-6.05c0-2.31-.02-3.53-.1-4.22l2.07,.17c.23,.02,.4,.12,.4,.24,0,.14-.14,.28-.45,.47q-.02,.4-.02,3.35v7.56h7.09v-7.56c0-2.31-.02-3.53-.09-4.22l2.07,.17c.12,0,.26,.05,.35,.12,.85-.92,1.58-1.91,2.17-3.02,.8-1.51,1.34-3.16,1.81-4.78l2.14,.85c.38,.14,.47,.21,.47,.38s0,.21-.54,.33c1.13,2.64,2.36,4.22,4.55,5.94-.66,.71-.92,1.06-1.37,1.86-.56-.5-1.04-.94-1.48-1.41v1.91l-.94-.02h-3.61l-.92,.02v-1.37Zm-9.17,10.25c.02-.68,.05-1.58,.05-2.76-.45,.78-.99,1.55-1.53,2.14-.52-.97-.54-1.01-.99-1.48,.92-.92,1.67-1.98,2.31-3.32h-.52c-.45,0-1.06,.02-1.41,.05v-1.86c.35,.02,.96,.02,1.41,.02h.73v-.61c0-1.86-.03-2.87-.07-3.53l1.86,.17c.28,.02,.4,.09,.4,.24s-.12,.26-.45,.45v3.3h.78c.45,0,1.04,0,1.39-.02v1.86c-.35-.02-.94-.05-1.39-.05h-.78v.35c1.15,.78,1.7,1.32,2.5,2.38l-1.11,1.39c-.4-.66-.85-1.25-1.39-1.81,0,1.41,.02,2.5,.05,3.11h-1.84Zm-.96-10.84c.4,1.01,.66,1.86,.92,2.99l-1.39,.45c-.24-1.08-.54-2.24-.8-2.92l1.27-.52Zm2.83,3.02c.5-1.48,.52-1.51,.9-3.11l1.53,.61c.12,.05,.21,.16,.21,.28,0,.14-.16,.24-.52,.26-.38,1.23-.57,1.79-.82,2.47l-1.3-.52Zm10.39,7.59c0,1.53,0,2.73,.05,3.44h-2.29c.05-.82,.07-1.93,.07-3.44v-4.85c-.92,.02-2.07,.05-2.8,.07v-2.21c.89,.02,2.24,.07,3.3,.07h4.05c.68,0,1.18-.02,1.7-.05-.05,.71-.05,1.74-.05,2.85v1.44q0,.87,.02,1.77v.26c0,1.67-.64,2.1-3.21,2.17-.05-.82-.12-1.51-.26-2.26,.28,.02,.43,.05,.59,.05,.64,0,.68-.07,.68-.99v-3.16h-1.86v4.85Zm2.17-10.77c-1.08-1.23-1.93-2.62-2.54-4.12-.35,.99-.78,1.86-1.32,2.78-.28,.49-.56,.94-.85,1.34h4.71Z"/></g><g><g><g><path class="cls-3" d="M584.29,308.72h-1.9c.04-.74,.06-1.92,.06-3.48v-7.72q-.02-2.52-.06-3.18c.38,.02,.72,.04,1.18,.04h3.46c.46,0,.8-.02,1.18-.04-.04,.64-.06,1.98-.06,3.18v6.72c0,1.66,.02,2.74,.06,3.5h-1.9v-1.3h-2.02v2.28Zm2.02-9.2v-3.48h-2.02v3.48h2.02Zm-2.02,5.26h2.02v-3.6h-2.02v3.6Zm10.48-4.9h1.64c.98,0,2.34-.02,3.2-.06v1.98c-.86-.04-2.22-.08-3.2-.08h-1.64v2.28h1.62c.98,0,2.34-.02,3.2-.06v1.98c-.86-.04-2.22-.08-3.2-.08h-1.62v.96c0,1.82,.02,3.2,.08,4.08h-2.06c.04-.88,.06-2.26,.06-4.08v-9.3h-.78c-.66,1.72-1.44,3.26-2.3,4.58-.14-.12-.22-.22-.28-.28-.54-.58-.64-.66-1.22-.98,1.54-2.48,2.42-4.76,3.28-8.54l1.84,.46c.28,.06,.42,.2,.42,.34s-.06,.18-.46,.3c-.2,.8-.42,1.56-.64,2.28h4.52c.96,0,2.32-.02,3.18-.06v1.98c-.86-.04-2.22-.08-3.18-.08h-2.46v2.38Z"/><path class="cls-3" d="M610.91,298c-.54-.04-1.3-.04-1.86-.04-.26,1.78-.64,3.54-1.26,5.24,1.04,.92,1.98,1.9,3.1,3.22l-1.44,1.52c-1.04-1.2-1.82-2.08-2.52-2.8-.02,.04-.06,.1-.08,.14-1.14,2.1-2.32,3.44-4.36,4.98-.46-.8-.72-1.16-1.1-1.52,1.92-1.52,2.92-2.66,3.88-4.5,.08-.16,.16-.3,.24-.46-.92-.8-1.86-1.48-3.28-2.42l1.08-1.5c1.16,.76,2.1,1.42,2.94,2.06,.38-1.3,.64-2.62,.82-3.96h-3.22c-.58,0-1.42,0-2,.04v-1.92c.58,.02,1.42,.04,2,.04h1.54v-1.76c0-.92,0-1.16-.04-1.86l1.98,.12c.24,.02,.36,.1,.36,.22s-.1,.22-.38,.4v2.88h1.6c.58,0,1.42-.02,2-.04v1.92Zm1.72,2.3c1.76,2,1.84,2.1,2.82,3.86l-1.7,1.18c-.54-1.28-1.48-2.78-2.54-3.98l1.42-1.06Zm5.8-3.5c.58,0,1.44-.02,2-.04v1.92c-.56-.04-1.42-.04-2-.04h-.44v5.04c0,.92,.02,2.14,.06,4.6v.2c0,1-.18,1.5-.72,1.84-.62,.4-1.2,.48-3.44,.5q-.04-.78-.38-2.12c.78,.06,1.16,.08,1.76,.08,.72,0,.8-.08,.8-.84v-9.3h-2.72c-.58,0-1.42,0-1.98,.04v-1.92c.56,.02,1.4,.04,1.98,.04h2.72c-.02-2.32-.06-3.8-.12-4.3l2.14,.14c.18,0,.28,.1,.28,.2,0,.12-.1,.22-.36,.38,0,.62,0,.68-.02,3.58h.44Z"/><path class="cls-3" d="M629.71,298.72c.58,0,1.42-.02,2-.04v1.92c-.58-.02-1.42-.04-2-.04h-2.98v6.62c1.54-.44,3.02-.9,4.88-1.54l.3,1.86c-3.02,1.06-6.28,2.06-8.8,2.74-.16,.26-.28,.38-.4,.38-.1,0-.22-.12-.28-.24l-.82-1.98c1.18-.26,2.22-.5,3.16-.72v-11.74c0-1.58-.02-2.42-.06-3l2.06,.14c.22,.02,.34,.08,.34,.2s-.1,.24-.36,.4c-.02,.46-.02,1-.02,2.26v2.78h2.98Zm4.96-.06c1.48-.66,2.48-1.26,3.86-2.3l1.48,1.38c.1,.08,.16,.18,.16,.26,0,.12-.1,.18-.3,.18-.08,0-.18,0-.38-.02-2.06,1.22-2.96,1.68-4.82,2.4v7.06c0,.72,.24,.84,1.68,.84s1.98-.12,2.2-.46q.18-.3,.24-2.6c1.06,.44,1.12,.46,1.9,.66-.16,2.72-.34,3.36-1.04,3.8-.6,.38-1.52,.52-3.5,.52-2.88,0-3.46-.38-3.46-2.16l.02-12.24c0-1.6-.02-2.44-.06-3.02l2.06,.14c.22,.02,.36,.1,.36,.2,0,.12-.12,.24-.38,.4-.02,.46-.02,1.02-.02,2.28v2.68Z"/></g><g><path class="cls-21" d="M584.29,308.72h-1.9c.04-.74,.06-1.92,.06-3.48v-7.72q-.02-2.52-.06-3.18c.38,.02,.72,.04,1.18,.04h3.46c.46,0,.8-.02,1.18-.04-.04,.64-.06,1.98-.06,3.18v6.72c0,1.66,.02,2.74,.06,3.5h-1.9v-1.3h-2.02v2.28Zm2.02-9.2v-3.48h-2.02v3.48h2.02Zm-2.02,5.26h2.02v-3.6h-2.02v3.6Zm10.48-4.9h1.64c.98,0,2.34-.02,3.2-.06v1.98c-.86-.04-2.22-.08-3.2-.08h-1.64v2.28h1.62c.98,0,2.34-.02,3.2-.06v1.98c-.86-.04-2.22-.08-3.2-.08h-1.62v.96c0,1.82,.02,3.2,.08,4.08h-2.06c.04-.88,.06-2.26,.06-4.08v-9.3h-.78c-.66,1.72-1.44,3.26-2.3,4.58-.14-.12-.22-.22-.28-.28-.54-.58-.64-.66-1.22-.98,1.54-2.48,2.42-4.76,3.28-8.54l1.84,.46c.28,.06,.42,.2,.42,.34s-.06,.18-.46,.3c-.2,.8-.42,1.56-.64,2.28h4.52c.96,0,2.32-.02,3.18-.06v1.98c-.86-.04-2.22-.08-3.18-.08h-2.46v2.38Z"/><path class="cls-26" d="M610.91,298c-.54-.04-1.3-.04-1.86-.04-.26,1.78-.64,3.54-1.26,5.24,1.04,.92,1.98,1.9,3.1,3.22l-1.44,1.52c-1.04-1.2-1.82-2.08-2.52-2.8-.02,.04-.06,.1-.08,.14-1.14,2.1-2.32,3.44-4.36,4.98-.46-.8-.72-1.16-1.1-1.52,1.92-1.52,2.92-2.66,3.88-4.5,.08-.16,.16-.3,.24-.46-.92-.8-1.86-1.48-3.28-2.42l1.08-1.5c1.16,.76,2.1,1.42,2.94,2.06,.38-1.3,.64-2.62,.82-3.96h-3.22c-.58,0-1.42,0-2,.04v-1.92c.58,.02,1.42,.04,2,.04h1.54v-1.76c0-.92,0-1.16-.04-1.86l1.98,.12c.24,.02,.36,.1,.36,.22s-.1,.22-.38,.4v2.88h1.6c.58,0,1.42-.02,2-.04v1.92Zm1.72,2.3c1.76,2,1.84,2.1,2.82,3.86l-1.7,1.18c-.54-1.28-1.48-2.78-2.54-3.98l1.42-1.06Zm5.8-3.5c.58,0,1.44-.02,2-.04v1.92c-.56-.04-1.42-.04-2-.04h-.44v5.04c0,.92,.02,2.14,.06,4.6v.2c0,1-.18,1.5-.72,1.84-.62,.4-1.2,.48-3.44,.5q-.04-.78-.38-2.12c.78,.06,1.16,.08,1.76,.08,.72,0,.8-.08,.8-.84v-9.3h-2.72c-.58,0-1.42,0-1.98,.04v-1.92c.56,.02,1.4,.04,1.98,.04h2.72c-.02-2.32-.06-3.8-.12-4.3l2.14,.14c.18,0,.28,.1,.28,.2,0,.12-.1,.22-.36,.38,0,.62,0,.68-.02,3.58h.44Z"/><path class="cls-17" d="M629.71,298.72c.58,0,1.42-.02,2-.04v1.92c-.58-.02-1.42-.04-2-.04h-2.98v6.62c1.54-.44,3.02-.9,4.88-1.54l.3,1.86c-3.02,1.06-6.28,2.06-8.8,2.74-.16,.26-.28,.38-.4,.38-.1,0-.22-.12-.28-.24l-.82-1.98c1.18-.26,2.22-.5,3.16-.72v-11.74c0-1.58-.02-2.42-.06-3l2.06,.14c.22,.02,.34,.08,.34,.2s-.1,.24-.36,.4c-.02,.46-.02,1-.02,2.26v2.78h2.98Zm4.96-.06c1.48-.66,2.48-1.26,3.86-2.3l1.48,1.38c.1,.08,.16,.18,.16,.26,0,.12-.1,.18-.3,.18-.08,0-.18,0-.38-.02-2.06,1.22-2.96,1.68-4.82,2.4v7.06c0,.72,.24,.84,1.68,.84s1.98-.12,2.2-.46q.18-.3,.24-2.6c1.06,.44,1.12,.46,1.9,.66-.16,2.72-.34,3.36-1.04,3.8-.6,.38-1.52,.52-3.5,.52-2.88,0-3.46-.38-3.46-2.16l.02-12.24c0-1.6-.02-2.44-.06-3.02l2.06,.14c.22,.02,.36,.1,.36,.2,0,.12-.12,.24-.38,.4-.02,.46-.02,1.02-.02,2.28v2.68Z"/></g></g><g><g><path class="cls-3" d="M770.37,295.31v8.82c0,1.82,.06,2.34,.36,3,.46,1.02,1.56,1.62,3,1.62,1.56,0,2.7-.7,3.12-1.92,.2-.56,.24-1.06,.24-2.7v-8.82h2.36v8.86c0,2.28-.08,2.9-.5,3.8-.8,1.78-2.74,2.82-5.22,2.82s-4.42-1.06-5.24-2.82c-.4-.9-.48-1.52-.48-3.8v-8.86h2.36Z"/><path class="cls-3" d="M787.11,295.31c2.36,0,3.62,.24,4.52,.88,1.12,.78,1.72,2.12,1.72,3.82,0,1.8-.7,3.18-1.96,3.9-.84,.48-2,.68-4.06,.68h-1.72v5.92h-2.36v-15.2h3.86Zm.28,7.26c1.2,0,2.06-.14,2.54-.42,.62-.38,.98-1.16,.98-2.2,0-.96-.3-1.7-.88-2.1-.52-.36-1.32-.52-2.7-.52h-1.72v5.24h1.78Z"/></g><g><path class="cls-15" d="M770.37,295.31v8.82c0,1.82,.06,2.34,.36,3,.46,1.02,1.56,1.62,3,1.62,1.56,0,2.7-.7,3.12-1.92,.2-.56,.24-1.06,.24-2.7v-8.82h2.36v8.86c0,2.28-.08,2.9-.5,3.8-.8,1.78-2.74,2.82-5.22,2.82s-4.42-1.06-5.24-2.82c-.4-.9-.48-1.52-.48-3.8v-8.86h2.36Z"/><path class="cls-14" d="M787.11,295.31c2.36,0,3.62,.24,4.52,.88,1.12,.78,1.72,2.12,1.72,3.82,0,1.8-.7,3.18-1.96,3.9-.84,.48-2,.68-4.06,.68h-1.72v5.92h-2.36v-15.2h3.86Zm.28,7.26c1.2,0,2.06-.14,2.54-.42,.62-.38,.98-1.16,.98-2.2,0-.96-.3-1.7-.88-2.1-.52-.36-1.32-.52-2.7-.52h-1.72v5.24h1.78Z"/></g></g><g><path class="cls-3" d="M746.79,296.77c0,2.43-1.58,4.31-3.6,4.31s-3.6-1.88-3.6-4.31,1.58-4.31,3.6-4.31,3.6,1.88,3.6,4.31Zm7.07-4.17l-10.44,17.91h-2.26l10.44-17.91h2.26Zm-12.37,4.17c0,1.53,.71,2.57,1.7,2.57s1.67-1.04,1.67-2.57-.68-2.57-1.67-2.57-1.7,1.06-1.7,2.57Zm13.95,9.57c0,2.4-1.58,4.31-3.58,4.31s-3.6-1.91-3.6-4.31,1.58-4.33,3.6-4.33,3.58,1.91,3.58,4.33Zm-5.28,0c0,1.51,.68,2.57,1.67,2.57s1.7-1.06,1.7-2.57-.68-2.57-1.7-2.57-1.67,1.06-1.67,2.57Z"/><path class="cls-18" d="M746.79,296.77c0,2.43-1.58,4.31-3.6,4.31s-3.6-1.88-3.6-4.31,1.58-4.31,3.6-4.31,3.6,1.88,3.6,4.31Zm7.07-4.17l-10.44,17.91h-2.26l10.44-17.91h2.26Zm-12.37,4.17c0,1.53,.71,2.57,1.7,2.57s1.67-1.04,1.67-2.57-.68-2.57-1.67-2.57-1.7,1.06-1.7,2.57Zm13.95,9.57c0,2.4-1.58,4.31-3.58,4.31s-3.6-1.91-3.6-4.31,1.58-4.33,3.6-4.33,3.58,1.91,3.58,4.33Zm-5.28,0c0,1.51,.68,2.57,1.67,2.57s1.7-1.06,1.7-2.57-.68-2.57-1.7-2.57-1.67,1.06-1.67,2.57Z"/></g><g><g><path class="cls-3" d="M647.43,278.71c5.35-.15,7.8-1.9,8.9-6.4h4.05v38.2h-5.85v-28.4h-7.1v-3.4Z"/><path class="cls-3" d="M679.78,278.71c5.35-.15,7.8-1.9,8.9-6.4h4.05v38.2h-5.85v-28.4h-7.1v-3.4Z"/><path class="cls-3" d="M708.98,282.26c0-6.15,4.75-10.5,11.5-10.5s11.45,4.35,11.45,10.5c0,3.45-1.5,6.05-4.5,7.8,3.75,2.05,5.6,5.1,5.6,9.35,0,6.8-5.25,11.65-12.55,11.65s-12.55-4.85-12.55-11.7c0-4.25,1.8-7.25,5.65-9.3-3.05-1.75-4.6-4.35-4.6-7.8Zm4.9,17.15c0,4.1,2.7,6.85,6.6,6.85s6.6-2.75,6.6-6.8-2.65-6.85-6.6-6.85-6.6,2.75-6.6,6.8Zm1.05-17.2c0,3.4,2.2,5.65,5.55,5.65s5.55-2.25,5.55-5.65-2.25-5.7-5.55-5.7-5.55,2.35-5.55,5.7Z"/></g><g><path class="cls-12" d="M647.43,278.71c5.35-.15,7.8-1.9,8.9-6.4h4.05v38.2h-5.85v-28.4h-7.1v-3.4Z"/><path class="cls-19" d="M679.78,278.71c5.35-.15,7.8-1.9,8.9-6.4h4.05v38.2h-5.85v-28.4h-7.1v-3.4Z"/><path class="cls-16" d="M708.98,282.26c0-6.15,4.75-10.5,11.5-10.5s11.45,4.35,11.45,10.5c0,3.45-1.5,6.05-4.5,7.8,3.75,2.05,5.6,5.1,5.6,9.35,0,6.8-5.25,11.65-12.55,11.65s-12.55-4.85-12.55-11.7c0-4.25,1.8-7.25,5.65-9.3-3.05-1.75-4.6-4.35-4.6-7.8Zm4.9,17.15c0,4.1,2.7,6.85,6.6,6.85s6.6-2.75,6.6-6.8-2.65-6.85-6.6-6.85-6.6,2.75-6.6,6.8Zm1.05-17.2c0,3.4,2.2,5.65,5.55,5.65s5.55-2.25,5.55-5.65-2.25-5.7-5.55-5.7-5.55,2.35-5.55,5.7Z"/></g></g></g><g><polygon class="cls-13" points="416.28 83.41 24.49 83.41 33.26 33.68 425.05 33.68 416.28 83.41"/><rect class="cls-10" x="145.8" y="93.06" width="136" height="2"/></g><g><polygon class="cls-11" points="879.04 83.41 487.25 83.41 496.02 33.68 887.81 33.68 879.04 83.41"/><rect class="cls-9" x="608.56" y="93.06" width="136" height="2"/></g><g><path class="cls-1" d="M119.73,58.9c-1.03,2.62-1.95,4.75-3.05,7q-.35,.7-1.17,2.15-.15,.3-.38,.72v.17c0,.2-.07,.35-.22,.35q-.1,0-.35-.23l-1.78-1.47c1.6-2.25,3.25-5.52,5.05-9.92l1.9,1.22Zm-5.05-6.4c1.27,1.12,2.12,2,3.12,3.25l-1.95,1.57c-1.17-1.55-1.67-2.12-2.87-3.3l1.7-1.52Zm1.5-5.52c1.22,1.05,1.87,1.75,2.97,3.15l-2,1.52c-.93-1.35-1.43-1.92-2.72-3.25l1.75-1.42Zm6.95,6.05c4.17-.6,6.77-1.22,9.92-2.42l1.75,1.7c.1,.1,.15,.23,.15,.35,0,.17-.12,.27-.35,.27-.1,0-.22,0-.53-.02-1.2,.3-2.38,.6-3.57,.9,.15,1.2,.3,2.37,.55,3.55,1.6-1,2.02-1.35,3-2.3l1.8,1.57c.1,.1,.17,.23,.17,.35s-.07,.23-.17,.28c-.05,.02-.15,.05-.33,.07q-.2,.02-.35,.05c-1.45,.87-2.25,1.32-3.62,2,.25,.83,.52,1.57,.85,2.32,.95,2.22,2.05,3.67,4.12,5.5-.67,.48-1.27,1.05-2,1.95-2.27-2.22-3.3-3.75-4.35-6.4-1-2.5-1.5-4.7-1.88-8.45-.3,.08-.57,.1-.88,.18v10.45c0,1.9,.03,3.5,.08,4.4h-2.58c.05-.97,.08-2.37,.08-4.4v-10.1c-.62,.1-1.25,.18-1.88,.27v2.07c0,3.67-.15,5-.78,6.87-.7,2.07-1.65,3.47-3.77,5.55-.53-.87-.75-1.17-1.55-2.05,2.92-2.8,3.72-5,3.72-10.55v-6.6c0-.75-.05-1.72-.07-2.2l2.12,.6c4.27-.6,7.27-1.27,10.07-2.27l1.6,1.67c.12,.12,.17,.22,.17,.32,0,.2-.12,.3-.38,.3t-.52-.02c-5.3,1.32-5.55,1.38-10.62,2v2.22Z"/><path class="cls-1" d="M146.23,66.28c.07-.6,.05-1.2,.05-1.8v-6.67c0-.73-.03-1.6-.05-2.02,.87,.05,1.62,.05,2.75,.05h6.3c1.1,0,1.88,0,2.75-.05-.05,.42-.08,1.3-.08,2.02v.97c0,.82,.03,1.37,.08,1.8h-2.35v-.5h-7.12v1.12h7.62c1.12,0,1.87,0,2.75-.02-.02,.4-.05,1.27-.05,2v1.07c0,.82,0,1.37,.05,1.8h-2.32v-.6h-8.05v.88h-2.2c1.6,.65,3.15,.8,6.8,.8,2.8,0,6.2-.1,8.2-.25-.33,1.07-.35,1.15-.48,2.47-4.27,.08-4.87,.08-8.42,.08-3.22,0-5.35-.38-7.32-1.3-1.07-.52-1.82-1.12-2.5-2.1-.83,.9-1.6,1.62-2.18,2.12-.17,.15-.45,.4-.77,.73-.12,.4-.22,.55-.38,.55-.12,0-.25-.1-.35-.23l-1.35-1.87c1.32-.85,2.6-1.8,3.77-2.85v-5.42h-1c-.65,0-1.75,.02-2.35,.08v-2.42c.57,.05,1.62,.05,2.35,.05h1.12q1.77,0,2.3-.05-.03,.45-.05,2.22v5.75c.52,.6,1.07,.98,1.95,1.38l.53,.22Zm-6.03-19.2c1.55,1.35,2.35,2.22,3.43,3.7l-1.93,1.55c-1.17-1.67-1.42-2-3.1-3.8l1.6-1.45Zm7.6,4.95v.62h-2.22c.05-.45,.07-.97,.07-1.85v-.87c0-.73-.03-1.6-.07-2,.88,.02,1.65,.02,2.75,.02h2.38c0-.48,.03-.97-.03-1.45l2.43,.15c.3,.02,.45,.12,.45,.27s-.15,.3-.5,.5v.52h2.7c1.1,0,1.88,0,2.75-.02-.05,.4-.08,1.27-.08,2v.87c0,.82,.03,1.35,.08,1.8h-2.25v-.58h-3.2v1.07h4.15c1.15,0,2.9-.02,3.97-.07v2.12c-1.07-.02-2.82-.08-3.97-.08h-10.1c-1.27,0-2.92,.05-3.97,.08v-2.12c1.05,.05,2.7,.07,3.97,.07h3.6v-1.07h-2.9Zm2.9-2.55h-2.9v1.02h2.9v-1.02Zm4.97,8.92v-.92h-7.12v.92h7.12Zm.92,4.47h-8.05v.95h8.05v-.95Zm-.35-12.37v-1.02h-3.2v1.02h3.2Z"/><path class="cls-1" d="M165.13,53.23l-1.97,.03v-2.35c.55,.02,1.45,.05,1.97,.05h1.62v-2.12c0-1.12,0-1.42-.03-2.3l2.45,.15c.28,.02,.45,.12,.45,.25,0,.17-.15,.3-.5,.5v3.52h1.55l.3-.4,1.47,1.3c.1,.1,.2,.27,.2,.4,0,.2-.07,.27-.57,.4-.48,1.02-.97,2.02-1.55,2.97-.42,.7-.9,1.35-1.4,2.02v.4c1.5,.85,2.27,1.42,3.97,2.97l-1.67,2c-1-1.1-1.65-1.8-2.3-2.37v3.85c0,2.3,.02,4,.07,5.12h-2.53c.05-1.12,.08-2.82,.08-5.12v-4.2c-1.3,1.35-1.88,1.82-3.35,2.92-.07-.2-.15-.37-.2-.5-.12-.35-.4-.95-.8-1.8,3.53-2.72,5.3-4.67,6.85-7.7h-4.12Zm12.5,3.35h-2.15c-.82,0-2.25,.05-3,.07v-2.42c.75,.05,2.03,.07,3,.07h2.15v-3.75c0-1.97-.03-3.02-.08-3.75l2.6,.18c.28,.02,.43,.1,.43,.25s-.12,.27-.48,.5l-.02,2.82v3.75h2.75c.97,0,2.25-.02,3-.07v2.42c-.78-.02-2.17-.07-3-.07h-2.75v10.2h2.67c1,0,2.62-.02,3.5-.08v2.42c-.92-.03-2.55-.05-3.5-.05h-8.67c-1.05,0-2.45,.02-3.47,.05v-2.42c.95,.05,2.37,.08,3.47,.08h3.55v-10.2Z"/><path class="cls-1" d="M197.95,66.13c.2,.1,.3,.23,.3,.38,0,.25-.15,.32-.8,.38-2.7,1.52-4.85,2.25-8.5,2.87-.2-1.05-.4-1.57-.95-2.3,3.55-.47,5.62-1.07,8.02-2.27l1.92,.95Zm-4.07-.3h-2.57c.05-1,.07-2.45,.07-4.37v-3.3c0-1.5-.03-3.17-.07-3.97,1,.02,1.95,.05,3.35,.05h10.1c1.45,0,2.47-.02,3.5-.05q-.05,.82-.08,3.97v3.2c0,2,.03,3.45,.08,4.4h-2.57v-.7h-11.8v.77Zm.87-12.4h-2.45c.05-.6,.08-1.42,.08-2.65v-1.15c0-.8-.03-1.75-.08-2.2,.88,.02,1.65,.05,2.75,.05h9.3c1.12,0,1.9-.02,2.78-.05-.05,.45-.07,1.4-.07,2.2v1.17c0,1.17,.02,2.02,.07,2.6h-2.47v-.6h-9.9v.62Zm10.92,2.8h-11.8v1.15h11.8v-1.15Zm-11.8,4.02h11.8v-1.15h-11.8v1.15Zm0,2.87h11.8v-1.15h-11.8v1.15Zm10.77-13.82h-9.9v1.67h9.9v-1.67Zm-2.12,15.82c2.68,1.15,5.1,1.75,8.9,2.27-.62,.8-.88,1.27-1.12,2.32-2.1-.32-2.9-.5-4.77-1.07-2.17-.65-2.88-.92-4.45-1.75l1.45-1.77Z"/><path class="cls-1" d="M225.93,53.1c.2,.1,.3,.2,.3,.3,0,.15-.12,.3-.35,.42-.9,3.72-1.3,5-2.3,7.25-1.47,3.32-3.1,4.85-5.2,4.85-1.38,0-2.38-.6-3.1-1.77-.62-1.1-.97-2.42-.97-3.82,0-3.12,1.77-6.2,4.7-8.1,1.82-1.2,3.87-1.8,6.22-1.8,2.65,0,4.97,.73,6.87,2.1,2.1,1.55,3.15,3.7,3.15,6.47,0,3.3-1.55,5.8-4.72,7.55-1,.55-2.9,1.27-4.65,1.77-.47-1.3-.65-1.65-1.33-2.5,2.62-.62,3.62-.97,5-1.8,2-1.17,3.07-2.95,3.07-5.05,0-2.57-1.55-4.7-4.2-5.75-.95-.37-2.05-.6-2.85-.6h-.5l.85,.47Zm-6.52,1.7c-1.6,1.6-2.5,3.65-2.5,5.65,0,1.77,.57,2.87,1.5,2.87,.8,0,1.5-.77,2.4-2.65,1.45-3.02,2.32-5.77,2.5-7.92-1.78,.38-2.78,.9-3.9,2.05Z"/><path class="cls-1" d="M250.9,65.3c0,1.9,.02,3.5,.05,4.4h-2.65c.05-.97,.07-2.37,.07-4.4v-4.17h-5.3c-1.38,0-3.62,.05-4.97,.1v-2.5c1.3,.05,3.55,.1,4.97,.1h5.3v-8.85h-4.32c-1.38,0-3.62,.05-5,.1v-2.5c1.3,.05,3.55,.1,5,.1h11.22c1.57,0,3.72-.05,5-.1v2.5c-1.35-.08-3.47-.1-5-.1h-4.37v8.85h5.32c1.57,0,3.7-.05,4.97-.1v2.5c-1.32-.07-3.45-.1-4.97-.1h-5.32v4.17Zm-8.52-14.65c1.55,1.97,2.72,3.75,3.97,6.15l-2.32,1.25c-1.82-3.7-2.05-4.07-3.57-6.2l1.93-1.2Zm9.97,6.52c1.65-2.37,2.75-4.35,3.67-6.67l2.42,1.15c.15,.07,.22,.17,.22,.3,0,.17-.2,.27-.67,.3-1.78,3.17-1.95,3.47-3.75,6.05l-1.9-1.12Z"/><path class="cls-1" d="M266.5,54.48h-1.03c-.67,0-1.47,0-2,.02v-2.35l2,.02h1.03v-1.25c0-2-.03-3.05-.07-3.75l2.55,.15c.28,.02,.42,.12,.42,.27,0,.12-.12,.27-.45,.48-.03,.57-.03,1.27-.03,2.85v1.25h.97l2-.02v2.35c-.53-.02-1.32-.02-2-.02h-.97v6.55c1.15-.35,2.32-.75,3.5-1.22l.3,2.12c-1.5,.7-4.55,1.7-8.07,2.7-.2,.35-.35,.47-.5,.47-.12,0-.3-.12-.38-.3l-.88-2.37c1.2-.2,2.4-.42,3.6-.72v-7.22Zm8.3-.5c-.87,2-1.8,3.62-3.05,5.42-.57-.77-1.1-1.27-1.77-1.7,2.3-3.2,3.75-6.5,4.82-11.05l2.35,.82c.23,.08,.33,.18,.33,.33q0,.17-.55,.4c-.42,1.3-.8,2.42-1.17,3.45h7.92l.35-.43,1.57,1.38c.1,.1,.17,.25,.17,.4,0,.17-.07,.25-.47,.4-.07,7.9-.07,8.15-.22,10.2-.3,3.62-.7,4.75-1.97,5.42-.7,.4-1.9,.57-3.67,.57h-.12c-.15-1.27-.22-1.57-.68-2.67l1.93,.02c1.15,0,1.42-.17,1.7-1.02,.42-1.47,.57-4.17,.62-11.95h-8.07Zm7.35,8.75c-1.6,.62-4.47,1.47-7.87,2.32-.2,.33-.35,.48-.5,.48-.12,0-.3-.15-.35-.3l-.88-2.4q.7-.15,2.65-.52c1.97-.37,4.22-1.02,6.52-1.85l.43,2.27Zm-1.3-4.17c-.38-.02-1-.02-1.47-.02h-3.85c-.48,0-1.12,0-1.47,.02v-2.3c.35,.02,1,.05,1.47,.05h3.85c.47,0,1.1-.02,1.47-.05v2.3Z"/><path class="cls-1" d="M299.38,51.85h-5.35c-.27,.42-.55,.85-.88,1.32-1.27,1.85-2.1,2.82-3.72,4.32-.43-.67-.75-1.02-1.6-1.85,3.07-3.05,4.55-5.3,6.07-9.35l2.22,.85c.35,.15,.53,.3,.53,.42q0,.2-.7,.38c-.25,.62-.5,1.15-.72,1.65h10.15c1.5,0,3.7-.05,5-.1v2.45c-1.3-.05-3.5-.1-5-.1h-3.55v3.35h3.97c.9,0,2.27-.02,2.97-.05v2.35c-.75-.05-2.15-.07-2.97-.07h-3.97v4.05h4.4c2.05,0,3.28-.02,4.97-.1v2.47c-1.32-.05-3.45-.07-4.97-.07h-4.4v.77c0,2.3,.03,4,.07,5.12h-2.6c.05-1.12,.07-2.82,.07-5.12v-.77h-6.27c-1.38,0-3.62,.02-4.97,.07v-2.47c1.08,.05,2.82,.07,4.22,.1v-4.12q-.03-1.77-.05-2.2,.68,.02,2.93,.05h4.15v-3.35Zm-4.67,5.57v4.05h4.67v-4.05h-4.67Z"/><path class="cls-1" d="M315.08,50.55c0-1.15,0-1.45-.02-2.32l2.27,.15c.28,.02,.45,.12,.45,.25,0,.17-.15,.3-.48,.52-.02,.52-.02,.65-.02,1.4v1.07h1.17v-2.9c0-1.15,0-1.45-.03-2.32l2.32,.17c.3,0,.45,.1,.45,.25s-.12,.3-.47,.5v.92h1.77l2-.02v2.05c-.53-.02-1.32-.02-2-.02h-1.77v1.37h1.5c1,0,2.62-.02,3.47-.05v2.17c-.9-.02-2.52-.05-3.47-.05h-5.75c-1.07,0-2.47,.02-3.5,.05v-2.17c.57,.02,1.35,.02,2.1,.05v-1.07Zm12.85,4.85c-.47,.6-.97,1.12-1.5,1.62-.4-.82-.62-1.25-1.1-1.9-.07,.07-.17,.12-.25,.17q-.03,.42-.03,3.55v6.42c0,1.9,.03,3.5,.08,4.4h-2.1v-.82h-7.52v.82h-2.1c.05-.98,.07-2.37,.07-4.4v-6.42c0-2.45-.02-3.75-.1-4.47l2.2,.17c.25,.02,.43,.12,.43,.25,0,.15-.15,.3-.47,.5q-.03,.42-.03,3.55v8.02h7.52v-8.02c0-2.45-.03-3.75-.1-4.47l2.2,.17c.12,0,.28,.05,.38,.12,.9-.97,1.67-2.02,2.3-3.2,.85-1.6,1.43-3.35,1.92-5.07l2.28,.9c.4,.15,.5,.23,.5,.4s0,.23-.57,.35c1.2,2.8,2.5,4.47,4.82,6.3-.7,.75-.97,1.12-1.45,1.97-.6-.52-1.1-1-1.57-1.5v2.02l-1-.03h-3.82l-.97,.03v-1.45Zm-9.72,10.87c.03-.72,.05-1.67,.05-2.92-.47,.82-1.05,1.65-1.62,2.27-.55-1.02-.57-1.07-1.05-1.57,.97-.98,1.78-2.1,2.45-3.52h-.55c-.47,0-1.12,.02-1.5,.05v-1.97c.38,.02,1.03,.02,1.5,.02h.78v-.65c0-1.97-.03-3.05-.08-3.75l1.97,.17c.3,.02,.43,.1,.43,.25s-.12,.27-.47,.48v3.5h.82c.47,0,1.1,0,1.47-.02v1.97c-.38-.03-1-.05-1.47-.05h-.82v.38c1.22,.82,1.8,1.4,2.65,2.52l-1.17,1.47c-.43-.7-.9-1.32-1.47-1.92,0,1.5,.02,2.65,.05,3.3h-1.95Zm-1.03-11.5c.43,1.07,.7,1.97,.97,3.17l-1.47,.47c-.25-1.15-.57-2.37-.85-3.1l1.35-.55Zm3,3.2c.53-1.57,.55-1.6,.95-3.3l1.62,.65c.12,.05,.22,.17,.22,.3,0,.15-.17,.25-.55,.27-.4,1.3-.6,1.9-.88,2.62l-1.38-.55Zm11.02,8.05c0,1.62,0,2.9,.05,3.65h-2.42c.05-.88,.07-2.05,.07-3.65v-5.15c-.97,.02-2.2,.05-2.97,.07v-2.35c.95,.02,2.38,.07,3.5,.07h4.3c.72,0,1.25-.02,1.8-.05-.05,.75-.05,1.85-.05,3.02v1.52q0,.92,.03,1.87v.27c0,1.77-.68,2.22-3.4,2.3-.05-.87-.12-1.6-.28-2.4,.3,.03,.45,.05,.62,.05,.68,0,.72-.08,.72-1.05v-3.35h-1.97v5.15Zm2.3-11.42c-1.15-1.3-2.05-2.77-2.7-4.37-.38,1.05-.83,1.97-1.4,2.95-.3,.52-.6,1-.9,1.42h5Z"/></g><g><path class="cls-1" d="M638.73,58h4.45q2.22-.02,2.95-.05-.03,.45-.05,2.2v.77l3.05-.07v2.12c-1.03-.03-2.02-.08-3.05-.08v1.4c0,.92,0,1.25,.05,2.47h-2.42v-.88h-4.9v.45c0,.07,.02,.15,.02,.38,0,1.3-.22,1.9-.82,2.35-.73,.5-1.4,.62-3.97,.62-.05-.95-.17-1.62-.47-2.57,.75,.07,1.2,.1,1.77,.1,.95,0,1.05-.1,1.05-1.05v-.28h-5.8c-.82,0-2.22,.03-3,.08v-2.07c.75,.03,2.02,.05,3,.05h5.8v-1.07h-5.45c-1.38,0-3.62,.05-4.97,.1v-2.12c1.3,.05,3.55,.1,4.97,.1h5.45v-1.02h-5.8c-.82,0-2.22,.05-3,.07v-2.07c.75,.05,2.02,.07,3,.07h5.8v-1.2h-4.37v.6h-2.35c.03-.58,.05-1.42,.05-2.52v-.77c0-.77-.02-1.75-.05-2.2,.55,.03,1.05,.05,1.8,.05h4.92l-.03-1.17h-5.07c-1.38,0-3.62,.05-4.97,.1v-2.25c1.27,.05,3.55,.07,4.97,.07h5.05c0-.72-.03-1.47-.1-2.2l2.62,.17c.22,.02,.38,.12,.38,.27,0,.12-.12,.25-.45,.48-.03,.42-.03,.85-.03,1.27h5.05c1.58,0,3.7-.02,4.97-.07v2.25c-1.32-.05-3.45-.1-4.97-.1h-5.05c-.02,.4-.02,.77-.02,1.17h4.9c.75,0,1.25-.02,1.82-.05-.05,.45-.07,1.42-.07,2.2v.65c0,1.17,.02,2.02,.07,2.6h-2.37v-.55h-4.35v1.2Zm-2.35-4.2h-4.37v1.15h4.37v-1.15Zm6.7,1.15v-1.15h-4.35v1.15h4.35Zm.62,4.97h-4.97v1.02h4.97v-1.02Zm0,2.95h-4.95v1.07h4.95v-1.07Z"/><path class="cls-1" d="M663.6,65.29c0,1.9,.02,3.5,.08,4.4h-2.45c.05-.97,.08-2.37,.08-4.4v-1.32c-1.45,1.27-2.4,1.92-4,2.8-1.9,1.02-3.2,1.55-5.72,2.32-.42-1.12-.47-1.25-1.05-2.2,3.77-1,6.4-2.15,8.62-3.75h-3.17c-1.3,0-2.92,.02-3.97,.07v-2.12c1.05,.05,2.67,.08,3.97,.08h5.32v-1.22h-3.2c-1.27,0-2.92,.02-3.97,.07v-2.1c1.05,.02,2.7,.07,3.97,.07h3.2v-1.17h-4.42c-1.3,0-2.95,.05-4,.1v-2.12c1.05,.05,2.7,.08,4,.08h1.52c-.3-.75-.67-1.45-1.1-2.12h-1.02c-1.38,0-3.62,.02-4.97,.07v-2.27c1.12,.05,2.95,.08,4.35,.08-.5-.82-.88-1.3-1.82-2.35l1.7-1.32c1.4,1.32,1.75,1.72,2.67,3.22l-.7,.45h1.85v-2.45l-.03-1.6,2.35,.18c.3,.02,.47,.1,.47,.25s-.15,.3-.5,.5v3.12h1.82v-2.45c0-.67,0-1.22-.03-1.6l2.38,.18c.27,.02,.45,.1,.45,.25s-.15,.3-.5,.5v3.12h1c.78-1.55,1.03-2.27,1.35-3.6l2.42,.87c.15,.05,.27,.18,.27,.27,0,.18-.07,.23-.57,.4q-.15,.3-.75,1.52c-.08,.15-.17,.32-.3,.52,1.52,0,3.42-.02,4.6-.08v2.27c-1.32-.05-3.45-.07-4.97-.07h-1.62c.33,.1,.4,.22,.4,.32,0,.15-.12,.23-.55,.35q-.17,.32-.75,1.45h1.95c1.15,0,2.9-.02,3.97-.08v2.12c-1.08-.05-2.82-.1-3.97-.1h-4.65v1.17h3.4c1.15,0,2.92-.05,4-.07v2.1c-1.08-.05-2.85-.07-4-.07h-3.4v1.22h5.62c1.15,0,2.9-.02,3.97-.08v2.12c-1.08-.05-2.82-.07-3.97-.07h-3.7c2.3,1.62,4.87,2.62,8.85,3.5-.58,.92-.7,1.2-1.12,2.27-2.5-.62-4.22-1.3-6.32-2.42-1.33-.75-2.07-1.27-3.32-2.45v1.25Zm.38-10.42c.32-.7,.65-1.4,.88-2.12h-5.07c.47,.65,.85,1.37,1.15,2.12h3.05Z"/><path class="cls-1" d="M685.83,58.25c-.08,4.82-.4,6.77-1.22,7.6-.62,.65-1.17,.77-3.8,.77-.1-.95-.25-1.65-.58-2.5,.58,.02,1.3,.05,1.65,.05,.85,0,1.05-.15,1.25-.85,.25-.87,.35-2.12,.4-4.67h-3.57c-.1,1.65-.32,3.3-.57,4.55-.55,2.45-1.12,3.85-2.42,5.92-.62-.95-1-1.38-1.62-1.92,1.7-2.75,2.37-5.87,2.37-10.97v-3.55c0-.77-.03-1.75-.08-2.2,.85,.02,1.67,.02,2.75,.02h7.57v-.85c-.02-1.6-.07-2.62-.15-3.1l2.67,.3c.28,.02,.4,.12,.4,.27,0,.17-.12,.3-.5,.5-.03,.7-.03,1.27-.03,2.87h3.52c-1.02-1.22-1.25-1.45-2.22-2.35l1.4-1.42c1.05,.8,1.87,1.6,2.75,2.6l-1.2,1.17c1.4-.02,2.97-.05,4.02-.1v2.5c-1.3-.05-3.55-.1-5-.1h-3.25c.1,2.2,.42,4.72,.8,6.22,.15,.57,.33,1.17,.52,1.72,1.33-2,1.83-3.2,2.85-6.75l2.22,.85c.22,.07,.33,.17,.33,.3,0,.17-.15,.3-.48,.4-1.32,3.72-2.4,5.95-3.75,7.77,1.05,1.9,2.27,3.27,3.1,3.27,.55,0,1-.98,1.45-3.1,.6,.33,1.3,.67,2.05,.98-.47,1.95-.7,2.65-1.12,3.37-.57,1.02-1.17,1.42-2.07,1.42-1.75,0-3.57-1.4-5.15-3.95-1.65,1.55-3.77,2.8-7.17,4.22-.38-.85-.7-1.38-1.22-2.07,3.57-1.47,5.57-2.65,7.2-4.4-.6-1.35-1.05-2.77-1.35-4.25-.38-1.97-.5-4-.57-6.02h-7.97v3.72h4.27l.4-.45,1.45,1.45c.17,.2,.2,.22,.2,.32,0,.17-.15,.33-.4,.38l-.12,.02Z"/><path class="cls-1" d="M707.95,66.09c1.85-.38,3.75-.8,5.75-1.3l.33,2.1c-3.52,.92-5.62,1.4-10.7,2.35l-.17,.27c-.1,.17-.2,.25-.33,.25-.15,0-.28-.1-.35-.32l-.83-2.37c1.27-.15,2.57-.32,3.9-.55v-6.4h-.73c-1.07,0-2.47,.02-3.5,.08v-2.42c.95,.05,2.38,.08,3.5,.08h.73v-6.2q-.03-3.2-.08-4c.55,.02,1.38,.05,2.12,.05h10.42c1.02,0,2.25-.02,3-.08v2.32c-.82-.02-2.15-.05-3-.05h-10.07v1.17h7.77c1.03,0,2.57-.05,3.5-.07v2.3c-.92-.05-2.47-.08-3.5-.08h-7.77v1.17h7.77c1.03,0,2.57-.02,3.5-.07v2.3c-.92-.02-2.47-.05-3.5-.05h-7.77v1.27h12.05c1,0,2.62-.05,3.5-.08v2.42c-.92-.05-2.55-.08-3.5-.08h-7.4c.7,1.02,1.5,1.95,2.47,2.75,1.65-.88,2.9-1.65,4-2.5l2.02,1.3c.12,.07,.2,.17,.2,.27,0,.15-.17,.23-.45,.23h-.22c-1.3,.77-2.42,1.4-3.7,2.05,1.82,1.2,3.65,1.95,7.15,3.02-.58,.75-.85,1.15-1.42,2.12-3.87-1.32-6.12-2.47-8.42-4.37-1.8-1.47-2.88-2.75-3.97-4.87h-2.3v5.97Z"/><path class="cls-1" d="M738.23,50.95c-.75,1.1-1.55,2.12-2.38,3.15,.43,.32,.85,.67,1.25,1.02,.7-.95,1.35-1.95,2.07-3.17l2.03,1c.17,.08,.25,.15,.25,.25,0,.15-.15,.27-.48,.38-2.22,2.87-3.12,3.97-4.4,5.22,1.07-.1,2.17-.2,3.25-.35-.28-.52-.55-.92-.95-1.5l1.65-.97c1.45,1.9,1.97,2.77,2.8,4.55l-2.1,1c-.2-.45-.38-.85-.52-1.17-.62,.1-1.28,.2-1.92,.27v1.97h5.35c1.57,0,3.7-.05,4.97-.1v2.5c-1.32-.05-3.45-.1-4.97-.1h-5.35v1.12c0,1.62,.03,2.9,.08,3.65h-2.52c.05-.88,.08-2.05,.08-3.65v-1.12h-5.42c-1.38,0-3.62,.05-4.97,.1v-2.5c1.3,.05,3.55,.1,4.97,.1h5.42v-1.62c-.98,.12-2.08,.28-3.22,.43-.2,.25-.33,.35-.45,.35s-.27-.12-.32-.32l-.7-2.37c.6,0,1.25-.02,1.95-.05,.67-.67,1.33-1.35,1.95-2.07-.98-1-2.22-2.1-3.57-3.12l1.22-1.55c.35,.25,.67,.48,.97,.67,.42-.65,.85-1.3,1.25-1.97h-3.85c-1.37,0-3.62,.05-4.97,.1v-2.42c1.3,.05,3.55,.1,4.97,.1h4.72v-.7c0-.7,0-1.25-.02-1.6l2.47,.18c.27,.02,.45,.1,.45,.25s-.15,.3-.5,.5v1.38h4.82c1.57,0,3.72-.05,5-.1v2.42c-1.35-.05-3.47-.1-5-.1h-5.35Zm-4.6,6.62c-1.4,.92-2.15,1.37-3.1,1.87q-2.07,1.07-2.52,1.35c-.17,.33-.3,.42-.42,.42s-.25-.12-.35-.32l-.95-1.97c1.67-.52,4.22-1.77,6.67-3.3l.67,1.95Zm-5.35-5.77c1.07,.52,2.17,1.35,3.62,2.72l-1.55,1.65c-1.3-1.27-1.92-1.8-3.35-2.9l1.28-1.47Zm13.62,2.27c1.62-.8,3-1.7,4.15-2.7l1.72,1.38c.12,.1,.17,.22,.17,.35s-.1,.2-.28,.2c-.07,0-.17,0-.3-.02q-.85,.5-2.42,1.47c-.45,.27-.98,.55-1.95,1.02l-1.1-1.7Zm1.2,2.05c2.37,1.17,3.25,1.72,5.27,3.42l-1.33,1.95c-1.4-1.35-3.02-2.57-4.92-3.7l.97-1.67Z"/></g><path class="cls-4" d="M906.12,238.3h-348.23v12.12h348.23c3.33,0,6.06-2.73,6.06-6.06s-2.73-6.06-6.06-6.06Z"/><rect class="cls-8" x="557.96" y="238.3" width="310.19" height="12.12"/><circle class="cls-7" cx="876.5" cy="244.36" r="14.78"/><circle class="cls-1" cx="876.5" cy="244.36" r="8.36"/><path class="cls-4" d="M906.13,158.93h-348.23v12.12h348.23c3.33,0,6.06-2.73,6.06-6.06s-2.73-6.06-6.06-6.06Z"/><rect class="cls-2" x="557.88" y="159.52" width="141.21" height="12.12"/><circle class="cls-3" cx="687.07" cy="164.99" r="14.78"/><circle class="cls-1" cx="687.07" cy="164.99" r="8.36"/></g></g></svg>