<?xml version="1.0" encoding="UTF-8"?>
<svg id="_レイヤー_2" data-name="レイヤー 2" xmlns="http://www.w3.org/2000/svg" xmlns:xlink="http://www.w3.org/1999/xlink" viewBox="0 0 869 292.34">
  <defs>
    <style>
      .cls-1 {
        fill: url(#_新規グラデーションスウォッチ_1-10);
      }

      .cls-1, .cls-2, .cls-3, .cls-4, .cls-5, .cls-6, .cls-7, .cls-8, .cls-9, .cls-10, .cls-11, .cls-12 {
        stroke-width: 0px;
      }

      .cls-2 {
        fill: url(#_新規グラデーションスウォッチ_1);
      }

      .cls-3 {
        fill: url(#_新規グラデーションスウォッチ_1-9);
      }

      .cls-4 {
        fill: url(#_新規グラデーションスウォッチ_1-2);
      }

      .cls-5 {
        fill: url(#_新規グラデーションスウォッチ_1-4);
      }

      .cls-6 {
        fill: url(#_新規グラデーションスウォッチ_1-3);
      }

      .cls-7 {
        fill: url(#_新規グラデーションスウォッチ_1-8);
      }

      .cls-8 {
        fill: url(#_新規グラデーションスウォッチ_1-7);
      }

      .cls-9 {
        fill: url(#_新規グラデーションスウォッチ_1-5);
      }

      .cls-10 {
        fill: url(#_新規グラデーションスウォッチ_1-6);
      }

      .cls-13 {
        font-size: 23.56px;
      }

      .cls-13, .cls-14, .cls-15, .cls-16 {
        font-family: DNPShueiGoGinStd-B-83pv-RKSJ-H, 'DNP ShueiGoGinStd';
      }

      .cls-13, .cls-14, .cls-15, .cls-12 {
        fill: #333;
      }

      .cls-14 {
        font-size: 20px;
      }

      .cls-15 {
        font-size: 50px;
      }

      .cls-16 {
        fill: #fff;
        font-size: 20.03px;
      }

      .cls-17 {
        fill: none;
        stroke: url(#_新規グラデーションスウォッチ_6);
        stroke-dasharray: 0 0 0 2;
        stroke-linecap: round;
        stroke-miterlimit: 10;
        stroke-width: .75px;
      }
    </style>
    <linearGradient id="_新規グラデーションスウォッチ_1" data-name="新規グラデーションスウォッチ 1" x1="727.99" y1="267.6" x2="841.83" y2="267.6" gradientUnits="userSpaceOnUse">
      <stop offset="0" stop-color="#0d7695"/>
      <stop offset="0" stop-color="#0d7494"/>
      <stop offset=".18" stop-color="#105481"/>
      <stop offset=".37" stop-color="#133b73"/>
      <stop offset=".56" stop-color="#152a69"/>
      <stop offset=".76" stop-color="#161f62"/>
      <stop offset="1" stop-color="#171c61"/>
    </linearGradient>
    <linearGradient id="_新規グラデーションスウォッチ_1-2" data-name="新規グラデーションスウォッチ 1" x1="749.41" y1="139.45" x2="820.41" y2="139.45" xlink:href="#_新規グラデーションスウォッチ_1"/>
    <linearGradient id="_新規グラデーションスウォッチ_1-3" data-name="新規グラデーションスウォッチ 1" x1="604.71" y1="130.28" x2="630.05" y2="130.28" xlink:href="#_新規グラデーションスウォッチ_1"/>
    <linearGradient id="_新規グラデーションスウォッチ_1-4" data-name="新規グラデーションスウォッチ 1" x1="604.71" y1="130.28" x2="630.05" y2="130.28" xlink:href="#_新規グラデーションスウォッチ_1"/>
    <linearGradient id="_新規グラデーションスウォッチ_1-5" data-name="新規グラデーションスウォッチ 1" x1="653.73" y1="97.79" x2="669.58" y2="97.79" xlink:href="#_新規グラデーションスウォッチ_1"/>
    <linearGradient id="_新規グラデーションスウォッチ_1-6" data-name="新規グラデーションスウォッチ 1" x1="588.66" y1="87.64" x2="646.11" y2="87.64" xlink:href="#_新規グラデーションスウォッチ_1"/>
    <linearGradient id="_新規グラデーションスウォッチ_1-7" data-name="新規グラデーションスウォッチ 1" x1="588.66" y1="87.64" x2="646.11" y2="87.64" xlink:href="#_新規グラデーションスウォッチ_1"/>
    <linearGradient id="_新規グラデーションスウォッチ_6" data-name="新規グラデーションスウォッチ 6" x1="83.71" y1="71.45" x2="785.29" y2="71.45" gradientUnits="userSpaceOnUse">
      <stop offset="0" stop-color="#0d76a6"/>
      <stop offset="0" stop-color="#0d74a5"/>
      <stop offset=".18" stop-color="#10548c"/>
      <stop offset=".37" stop-color="#133b79"/>
      <stop offset=".56" stop-color="#152a6b"/>
      <stop offset=".76" stop-color="#161f63"/>
      <stop offset="1" stop-color="#171c61"/>
    </linearGradient>
    <linearGradient id="_新規グラデーションスウォッチ_1-8" data-name="新規グラデーションスウォッチ 1" x1="78.93" y1="137.74" x2="89.25" y2="137.74" xlink:href="#_新規グラデーションスウォッチ_1"/>
    <linearGradient id="_新規グラデーションスウォッチ_1-9" data-name="新規グラデーションスウォッチ 1" x1="428.34" y1="95.74" x2="438.66" y2="95.74" xlink:href="#_新規グラデーションスウォッチ_1"/>
    <linearGradient id="_新規グラデーションスウォッチ_1-10" data-name="新規グラデーションスウォッチ 1" x1="779.75" y1="5.16" x2="790.07" y2="5.16" xlink:href="#_新規グラデーションスウォッチ_1"/>
  </defs>
  <g id="_レイヤー_1-2" data-name="レイヤー 1">
    <g>
      <rect class="cls-12" x="27.17" y="242.86" width="113.84" height="49.48" rx="5" ry="5"/>
      <text class="cls-16" transform="translate(59.6 275.05)"><tspan x="0" y="0">2021</tspan></text>
      <rect class="cls-12" x="375" y="242.86" width="113.84" height="49.48" rx="5" ry="5"/>
      <text class="cls-16" transform="translate(405.71 275.05)"><tspan x="0" y="0">2022</tspan></text>
      <rect class="cls-2" x="727.99" y="242.86" width="113.84" height="49.48" rx="5" ry="5"/>
      <text class="cls-16" transform="translate(760.43 275.05)"><tspan x="0" y="0">2023</tspan></text>
      <rect class="cls-12" x="48.59" y="194.89" width="71" height="22"/>
      <rect class="cls-12" x="396.42" y="152.89" width="71" height="64"/>
      <rect class="cls-4" x="749.41" y="61.32" width="71" height="156.28"/>
      <rect class="cls-11" y="216.59" width="869" height="2"/>
      <text class="cls-14" transform="translate(234.22 205.89)"><tspan x="0" y="0">UP</tspan></text>
      <text class="cls-13" transform="translate(281.17 174.89)"><tspan x="0" y="0">％</tspan></text>
      <text class="cls-15" transform="translate(216.32 174.89)"><tspan x="0" y="0">55</tspan></text>
      <g>
        <g>
          <path class="cls-12" d="m607.07,122.54v8.82c0,1.82.06,2.34.36,3,.46,1.02,1.56,1.62,3,1.62,1.56,0,2.7-.7,3.12-1.92.2-.56.24-1.06.24-2.7v-8.82h2.36v8.86c0,2.28-.08,2.9-.5,3.8-.8,1.78-2.74,2.82-5.22,2.82s-4.42-1.06-5.24-2.82c-.4-.9-.48-1.52-.48-3.8v-8.86h2.36Z"/>
          <path class="cls-12" d="m623.81,122.54c2.36,0,3.62.24,4.52.88,1.12.78,1.72,2.12,1.72,3.82,0,1.8-.7,3.18-1.96,3.9-.84.48-2,.68-4.06.68h-1.72v5.92h-2.36v-15.2h3.86Zm.28,7.26c1.2,0,2.06-.14,2.54-.42.62-.38.98-1.16.98-2.2,0-.96-.3-1.7-.88-2.1-.52-.36-1.32-.52-2.7-.52h-1.72v5.24h1.78Z"/>
        </g>
        <g>
          <path class="cls-6" d="m607.07,122.54v8.82c0,1.82.06,2.34.36,3,.46,1.02,1.56,1.62,3,1.62,1.56,0,2.7-.7,3.12-1.92.2-.56.24-1.06.24-2.7v-8.82h2.36v8.86c0,2.28-.08,2.9-.5,3.8-.8,1.78-2.74,2.82-5.22,2.82s-4.42-1.06-5.24-2.82c-.4-.9-.48-1.52-.48-3.8v-8.86h2.36Z"/>
          <path class="cls-5" d="m623.81,122.54c2.36,0,3.62.24,4.52.88,1.12.78,1.72,2.12,1.72,3.82,0,1.8-.7,3.18-1.96,3.9-.84.48-2,.68-4.06.68h-1.72v5.92h-2.36v-15.2h3.86Zm.28,7.26c1.2,0,2.06-.14,2.54-.42.62-.38.98-1.16.98-2.2,0-.96-.3-1.7-.88-2.1-.52-.36-1.32-.52-2.7-.52h-1.72v5.24h1.78Z"/>
        </g>
      </g>
      <g>
        <path class="cls-12" d="m660.94,93c0,2.43-1.58,4.31-3.6,4.31s-3.6-1.88-3.6-4.31,1.58-4.31,3.6-4.31,3.6,1.88,3.6,4.31Zm7.07-4.17l-10.44,17.91h-2.26l10.44-17.91h2.26Zm-12.37,4.17c0,1.53.71,2.57,1.7,2.57s1.67-1.04,1.67-2.57-.68-2.57-1.67-2.57-1.7,1.06-1.7,2.57Zm13.95,9.57c0,2.4-1.58,4.31-3.58,4.31s-3.6-1.91-3.6-4.31,1.58-4.33,3.6-4.33,3.58,1.91,3.58,4.33Zm-5.28,0c0,1.51.68,2.57,1.67,2.57s1.7-1.06,1.7-2.57-.68-2.57-1.7-2.57-1.67,1.06-1.67,2.57Z"/>
        <path class="cls-9" d="m660.94,93c0,2.43-1.58,4.31-3.6,4.31s-3.6-1.88-3.6-4.31,1.58-4.31,3.6-4.31,3.6,1.88,3.6,4.31Zm7.07-4.17l-10.44,17.91h-2.26l10.44-17.91h2.26Zm-12.37,4.17c0,1.53.71,2.57,1.7,2.57s1.67-1.04,1.67-2.57-.68-2.57-1.67-2.57-1.7,1.06-1.7,2.57Zm13.95,9.57c0,2.4-1.58,4.31-3.58,4.31s-3.6-1.91-3.6-4.31,1.58-4.33,3.6-4.33,3.58,1.91,3.58,4.33Zm-5.28,0c0,1.51.68,2.57,1.67,2.57s1.7-1.06,1.7-2.57-.68-2.57-1.7-2.57-1.67,1.06-1.67,2.57Z"/>
      </g>
      <g>
        <g>
          <path class="cls-12" d="m589.71,78.49c0-6.15,4.75-10.5,11.5-10.5s11.45,4.35,11.45,10.5c0,3.45-1.5,6.05-4.5,7.8,3.75,2.05,5.6,5.1,5.6,9.35,0,6.8-5.25,11.65-12.55,11.65s-12.55-4.85-12.55-11.7c0-4.25,1.8-7.25,5.65-9.3-3.05-1.75-4.6-4.35-4.6-7.8Zm4.9,17.15c0,4.1,2.7,6.85,6.6,6.85s6.6-2.75,6.6-6.8-2.65-6.85-6.6-6.85-6.6,2.75-6.6,6.8Zm1.05-17.2c0,3.4,2.2,5.65,5.55,5.65s5.55-2.25,5.55-5.65-2.25-5.7-5.55-5.7-5.55,2.35-5.55,5.7Z"/>
          <path class="cls-12" d="m622.61,77.69c.3-6.15,4.55-9.7,11.65-9.7,3.5,0,6.2.9,8.1,2.75,1.8,1.75,2.9,4.4,2.9,7.1,0,4-1.95,6.75-6,8.45,4.65,1.45,6.85,4.4,6.85,9.2,0,3.7-1.55,7.1-4.25,9.25-2.2,1.7-5,2.55-8.55,2.55-7.7,0-12.25-3.7-12.3-10.15h5.3c.1,3.25,2.55,5.05,7,5.05s6.9-2.45,6.9-6.6c0-2.8-1.35-4.85-3.8-5.8-1.1-.4-3.15-.65-5.45-.65l-1.2.05v-4.9c.7.05,1,.05,1.45.05,5.25,0,8.1-2.15,8.1-6.05,0-3.2-2.15-5.25-5.65-5.25s-5.7,1.75-6,4.65h-5.05Z"/>
        </g>
        <g>
          <path class="cls-10" d="m589.71,78.49c0-6.15,4.75-10.5,11.5-10.5s11.45,4.35,11.45,10.5c0,3.45-1.5,6.05-4.5,7.8,3.75,2.05,5.6,5.1,5.6,9.35,0,6.8-5.25,11.65-12.55,11.65s-12.55-4.85-12.55-11.7c0-4.25,1.8-7.25,5.65-9.3-3.05-1.75-4.6-4.35-4.6-7.8Zm4.9,17.15c0,4.1,2.7,6.85,6.6,6.85s6.6-2.75,6.6-6.8-2.65-6.85-6.6-6.85-6.6,2.75-6.6,6.8Zm1.05-17.2c0,3.4,2.2,5.65,5.55,5.65s5.55-2.25,5.55-5.65-2.25-5.7-5.55-5.7-5.55,2.35-5.55,5.7Z"/>
          <path class="cls-8" d="m622.61,77.69c.3-6.15,4.55-9.7,11.65-9.7,3.5,0,6.2.9,8.1,2.75,1.8,1.75,2.9,4.4,2.9,7.1,0,4-1.95,6.75-6,8.45,4.65,1.45,6.85,4.4,6.85,9.2,0,3.7-1.55,7.1-4.25,9.25-2.2,1.7-5,2.55-8.55,2.55-7.7,0-12.25-3.7-12.3-10.15h5.3c.1,3.25,2.55,5.05,7,5.05s6.9-2.45,6.9-6.6c0-2.8-1.35-4.85-3.8-5.8-1.1-.4-3.15-.65-5.45-.65l-1.2.05v-4.9c.7.05,1,.05,1.45.05,5.25,0,8.1-2.15,8.1-6.05,0-3.2-2.15-5.25-5.65-5.25s-5.7,1.75-6,4.65h-5.05Z"/>
        </g>
      </g>
      <g>
        <polyline class="cls-17" points="84.09 137.74 433.5 95.74 784.91 5.16"/>
        <circle class="cls-7" cx="84.09" cy="137.74" r="5.16"/>
        <circle class="cls-3" cx="433.5" cy="95.74" r="5.16"/>
        <circle class="cls-1" cx="784.91" cy="5.16" r="5.16"/>
      </g>
    </g>
  </g>
</svg>