<?xml version="1.0" encoding="UTF-8"?>
<svg id="_レイヤー_2" data-name="レイヤー 2" xmlns="http://www.w3.org/2000/svg" xmlns:xlink="http://www.w3.org/1999/xlink" viewBox="0 0 802.17 326.84">
  <defs>
    <style>
      .cls-1 {
        fill: url(#_新規グラデーションスウォッチ_1);
      }

      .cls-1, .cls-2, .cls-3, .cls-4, .cls-5, .cls-6, .cls-7, .cls-8, .cls-9, .cls-10, .cls-11, .cls-12, .cls-13, .cls-14, .cls-15 {
        stroke-width: 0px;
      }

      .cls-2 {
        fill: url(#_名称未設定グラデーション_8-3);
      }

      .cls-3 {
        fill: url(#_名称未設定グラデーション_8-2);
      }

      .cls-4 {
        fill: url(#_名称未設定グラデーション_8-4);
      }

      .cls-5 {
        fill: url(#_新規グラデーションスウォッチ_1-9);
      }

      .cls-6 {
        fill: url(#_新規グラデーションスウォッチ_1-2);
      }

      .cls-7 {
        fill: url(#_新規グラデーションスウォッチ_1-4);
      }

      .cls-8 {
        fill: url(#_新規グラデーションスウォッチ_1-3);
      }

      .cls-9 {
        fill: url(#_新規グラデーションスウォッチ_1-8);
      }

      .cls-10 {
        fill: url(#_新規グラデーションスウォッチ_1-7);
      }

      .cls-11 {
        fill: url(#_新規グラデーションスウォッチ_1-5);
      }

      .cls-12 {
        fill: url(#_新規グラデーションスウォッチ_1-6);
      }

      .cls-13 {
        fill: url(#_名称未設定グラデーション_8);
      }

      .cls-16 {
        fill: #fff;
        font-family: DNPShueiGoGinStd-B-83pv-RKSJ-H, 'DNP ShueiGoGinStd';
        font-size: 20px;
      }

      .cls-14 {
        fill: #c7c7c7;
      }

      .cls-15 {
        fill: #333;
      }
    </style>
    <linearGradient id="_新規グラデーションスウォッチ_1" data-name="新規グラデーションスウォッチ 1" x1="30.49" y1="301.8" x2="170.02" y2="301.8" gradientUnits="userSpaceOnUse">
      <stop offset="0" stop-color="#0d7695"/>
      <stop offset="0" stop-color="#0d7494"/>
      <stop offset=".18" stop-color="#105481"/>
      <stop offset=".37" stop-color="#133b73"/>
      <stop offset=".56" stop-color="#152a69"/>
      <stop offset=".76" stop-color="#161f62"/>
      <stop offset="1" stop-color="#171c61"/>
    </linearGradient>
    <linearGradient id="_新規グラデーションスウォッチ_1-2" data-name="新規グラデーションスウォッチ 1" x1="406.13" y1="77.25" x2="459.79" y2="77.25" xlink:href="#_新規グラデーションスウォッチ_1"/>
    <linearGradient id="_新規グラデーションスウォッチ_1-3" data-name="新規グラデーションスウォッチ 1" x1="380.86" y1="139.48" x2="393.82" y2="139.48" xlink:href="#_新規グラデーションスウォッチ_1"/>
    <linearGradient id="_新規グラデーションスウォッチ_1-4" data-name="新規グラデーションスウォッチ 1" x1="395.84" y1="139.5" x2="411.04" y2="139.5" xlink:href="#_新規グラデーションスウォッチ_1"/>
    <linearGradient id="_新規グラデーションスウォッチ_1-5" data-name="新規グラデーションスウォッチ 1" x1="412.63" y1="139.52" x2="433.91" y2="139.52" xlink:href="#_新規グラデーションスウォッチ_1"/>
    <linearGradient id="_新規グラデーションスウォッチ_1-6" data-name="新規グラデーションスウォッチ 1" x1="710.8" y1="108.63" x2="802.17" y2="108.63" xlink:href="#_新規グラデーションスウォッチ_1"/>
    <linearGradient id="_新規グラデーションスウォッチ_1-7" data-name="新規グラデーションスウォッチ 1" x1="684.46" y1="139.5" x2="698.8" y2="139.5" xlink:href="#_新規グラデーションスウォッチ_1"/>
    <linearGradient id="_新規グラデーションスウォッチ_1-8" data-name="新規グラデーションスウォッチ 1" x1="700.52" y1="139.5" x2="715.71" y2="139.5" xlink:href="#_新規グラデーションスウォッチ_1"/>
    <linearGradient id="_新規グラデーションスウォッチ_1-9" data-name="新規グラデーションスウォッチ 1" x1="717.31" y1="139.52" x2="738.58" y2="139.52" xlink:href="#_新規グラデーションスウォッチ_1"/>
    <linearGradient id="_名称未設定グラデーション_8" data-name="名称未設定グラデーション 8" x1="122.64" y1="0" x2="122.64" y2="226.54" gradientUnits="userSpaceOnUse">
      <stop offset=".29" stop-color="#0d7695"/>
      <stop offset=".3" stop-color="#0d7494"/>
      <stop offset=".42" stop-color="#105481"/>
      <stop offset=".55" stop-color="#133b73"/>
      <stop offset=".69" stop-color="#152a69"/>
      <stop offset=".83" stop-color="#161f62"/>
      <stop offset="1" stop-color="#171c61"/>
    </linearGradient>
    <linearGradient id="_名称未設定グラデーション_8-2" data-name="名称未設定グラデーション 8" x1="65.95" y1="112.66" x2="84" y2="112.66" xlink:href="#_名称未設定グラデーション_8"/>
    <linearGradient id="_名称未設定グラデーション_8-3" data-name="名称未設定グラデーション 8" x1="86.02" y1="112.52" x2="104.97" y2="112.52" xlink:href="#_名称未設定グラデーション_8"/>
    <linearGradient id="_名称未設定グラデーション_8-4" data-name="名称未設定グラデーション 8" x1="106.95" y1="112.55" x2="133.47" y2="112.55" xlink:href="#_名称未設定グラデーション_8"/>
  </defs>
  <g id="_レイヤー_1-2" data-name="レイヤー 1">
    <g>
      <rect class="cls-1" x="30.49" y="276.75" width="139.54" height="50.09" rx="5.96" ry="5.96"/>
      <text class="cls-16" transform="translate(62.46 309.39)"><tspan x="0" y="0">CockPit</tspan></text>
      <rect class="cls-15" x="647.07" y="276.75" width="139.54" height="50.09" rx="5.96" ry="5.96"/>
      <text class="cls-16" transform="translate(697.07 309.42)"><tspan x="0" y="0">他社</tspan></text>
      <rect class="cls-15" x="338.78" y="276.75" width="139.54" height="50.09" rx="5.96" ry="5.96"/>
      <text class="cls-16" transform="translate(386.54 309.34)"><tspan x="0" y="0">大手</tspan></text>
      <g>
        <path class="cls-14" d="m406.64,219.9c-44,0-79.8-35.8-79.8-79.8s35.8-79.8,79.8-79.8,79.8,35.8,79.8,79.8-35.8,79.8-79.8,79.8Zm0-133.64c-29.69,0-53.84,24.15-53.84,53.84s24.15,53.84,53.84,53.84,53.84-24.15,53.84-53.84-24.15-53.84-53.84-53.84Z"/>
        <path class="cls-6" d="m431.73,105.26c-3.66-2.64-7.68-4.68-11.95-6.05-4.22-1.35-8.63-2.04-13.1-2.05h-.21s0-23.96,0-23.96l-.33-23.96h.51c9.47,0,18.82,1.46,27.79,4.34,9.08,2.92,17.61,7.23,25.36,12.83l-28.06,38.85Z"/>
        <g>
          <path class="cls-8" d="m382.35,147.21h4.2v-12.09c0-.47.01-.96.04-1.48l-2.98,2.49c-.12.1-.25.18-.38.22-.13.04-.26.06-.38.06-.19,0-.37-.04-.52-.12s-.28-.17-.35-.28l-1.12-1.53,6.32-5.38h2.91v18.11h3.73v2.65h-11.47v-2.65Z"/>
          <path class="cls-7" d="m411.04,139.5c0,1.81-.19,3.38-.58,4.71-.39,1.33-.92,2.43-1.61,3.31-.68.87-1.49,1.52-2.42,1.94-.93.42-1.94.64-3.02.64s-2.08-.21-3-.64c-.92-.43-1.72-1.07-2.4-1.94-.68-.87-1.21-1.97-1.59-3.31-.38-1.33-.57-2.9-.57-4.71s.19-3.39.57-4.72c.38-1.33.91-2.43,1.59-3.3.68-.87,1.48-1.52,2.4-1.94.92-.42,1.92-.64,3-.64s2.09.21,3.02.64c.93.43,1.74,1.07,2.42,1.94.68.87,1.22,1.97,1.61,3.3.39,1.33.58,2.9.58,4.72Zm-3.66,0c0-1.5-.11-2.74-.33-3.73-.22-.98-.51-1.77-.88-2.35-.37-.58-.79-.99-1.27-1.23-.48-.23-.98-.35-1.49-.35s-1,.12-1.47.35c-.47.23-.89.64-1.25,1.23-.36.58-.65,1.37-.87,2.35-.22.98-.32,2.23-.32,3.73s.11,2.74.32,3.73c.22.98.5,1.77.87,2.35.36.58.78.99,1.25,1.23.47.24.96.35,1.47.35s1.01-.12,1.49-.35c.48-.23.9-.64,1.27-1.23.37-.58.66-1.37.88-2.35.22-.98.33-2.23.33-3.73Z"/>
          <path class="cls-11" d="m422.21,134.15c0,.78-.13,1.49-.39,2.12-.26.63-.61,1.17-1.05,1.61-.44.44-.95.79-1.53,1.03-.58.24-1.19.36-1.82.36-.69,0-1.32-.12-1.91-.36-.58-.24-1.09-.58-1.51-1.03-.43-.44-.76-.98-1-1.61-.24-.63-.36-1.34-.36-2.12s.12-1.53.36-2.18c.24-.65.57-1.2,1-1.65.43-.45.93-.8,1.51-1.04.58-.24,1.22-.37,1.91-.37s1.33.12,1.91.37c.59.24,1.1.59,1.53,1.04.43.45.76,1,1,1.65.24.65.36,1.38.36,2.18Zm6.9-4.46c.12-.14.26-.27.43-.39.17-.11.41-.17.72-.17h2.57l-15.4,20.2c-.11.15-.26.28-.44.38-.18.1-.39.15-.64.15h-2.64l15.4-20.17Zm-9.63,4.46c0-.55-.05-1.02-.16-1.39-.11-.37-.25-.67-.44-.9-.19-.23-.41-.39-.66-.49-.25-.1-.52-.15-.81-.15s-.55.05-.8.15c-.25.1-.46.26-.65.49-.18.23-.32.53-.42.9-.1.37-.15.84-.15,1.39s.05.98.15,1.34c.1.36.24.65.42.87.18.22.4.38.65.47.25.1.52.14.8.14s.56-.05.81-.14c.25-.1.47-.25.66-.47.19-.22.33-.51.44-.87.1-.36.16-.81.16-1.34Zm14.44,10.84c0,.78-.13,1.49-.39,2.12-.26.63-.61,1.17-1.05,1.61-.44.44-.95.79-1.53,1.03-.58.24-1.19.37-1.82.37-.69,0-1.32-.12-1.91-.37-.58-.24-1.09-.59-1.51-1.03-.43-.44-.76-.98-1-1.61-.24-.63-.36-1.34-.36-2.12s.12-1.53.36-2.18c.24-.65.57-1.2,1-1.65.43-.45.93-.8,1.51-1.04.58-.24,1.22-.37,1.91-.37s1.33.12,1.91.37c.59.24,1.1.59,1.53,1.04.43.45.76,1,1,1.65.24.65.36,1.38.36,2.18Zm-2.72,0c0-.55-.06-1.02-.17-1.39-.11-.37-.26-.67-.44-.9-.19-.23-.41-.39-.66-.49-.25-.1-.52-.15-.81-.15s-.55.05-.8.15c-.25.1-.46.26-.64.49-.18.23-.32.53-.42.9-.11.37-.16.84-.16,1.39s.05.98.16,1.35c.1.36.25.65.42.87.18.22.39.38.64.47.25.1.52.14.8.14s.56-.05.81-.14c.25-.1.47-.25.66-.47.19-.22.33-.51.44-.87.11-.36.17-.81.17-1.35Z"/>
        </g>
      </g>
      <g>
        <path class="cls-14" d="m711.31,219.9c-44,0-79.8-35.8-79.8-79.8s35.8-79.8,79.8-79.8,79.8,35.8,79.8,79.8-35.8,79.8-79.8,79.8Zm0-133.64c-29.69,0-53.84,24.15-53.84,53.84s24.15,53.84,53.84,53.84,53.84-24.15,53.84-53.84-24.15-53.84-53.84-53.84Z"/>
        <path class="cls-12" d="m797.78,168.02l-45.61-14.72c1.37-4.24,2.07-8.68,2.07-13.18v-.21c-.01-4.49-.73-8.96-2.13-13.24-1.4-4.27-3.47-8.29-6.15-11.94-2.67-3.65-5.89-6.84-9.56-9.49-3.66-2.64-7.68-4.68-11.95-6.05-4.22-1.35-8.62-2.04-13.1-2.05h-.22s0-23.96,0-23.96l-.33-23.96h.51c9.47,0,18.82,1.46,27.79,4.34,9.08,2.92,17.61,7.23,25.37,12.83,7.72,5.58,14.5,12.31,20.14,20,5.67,7.73,10.05,16.25,13.03,25.33,2.98,9.07,4.5,18.53,4.52,28.13v.24c0,9.52-1.47,18.91-4.38,27.93Z"/>
        <g>
          <path class="cls-10" d="m692.13,128.9c.95,0,1.82.14,2.59.41.77.27,1.43.65,1.97,1.13.55.48.96,1.05,1.26,1.7.29.65.44,1.35.44,2.11,0,.66-.07,1.24-.22,1.74-.15.5-.36.94-.64,1.31-.28.37-.63.69-1.03.95-.41.26-.87.47-1.38.65,1.24.39,2.17.99,2.78,1.79s.92,1.81.92,3.03c0,1.03-.19,1.94-.57,2.74-.38.79-.9,1.46-1.55,2-.65.54-1.4.95-2.26,1.23-.85.28-1.76.42-2.72.42-1.04,0-1.95-.12-2.72-.36-.77-.24-1.45-.59-2.02-1.06-.57-.47-1.06-1.04-1.46-1.72-.4-.68-.74-1.46-1.03-2.35l1.56-.65c.27-.11.54-.17.82-.17.25,0,.47.05.67.16.19.11.35.26.45.46.17.33.36.66.57.99.21.33.45.61.74.87.29.25.62.46,1.01.62.39.16.85.24,1.38.24.6,0,1.13-.1,1.58-.29.45-.2.82-.45,1.13-.77.3-.32.53-.67.67-1.05.15-.39.22-.78.22-1.17,0-.5-.05-.95-.16-1.35-.11-.41-.33-.75-.66-1.04-.33-.29-.82-.51-1.44-.67-.63-.16-1.46-.24-2.52-.24v-2.54c.87,0,1.59-.08,2.17-.23.57-.15,1.03-.37,1.37-.64.34-.27.58-.6.71-.98.13-.38.2-.8.2-1.26,0-.98-.27-1.73-.8-2.23-.53-.5-1.27-.75-2.19-.75-.84,0-1.54.22-2.09.67-.56.44-.94,1.01-1.16,1.71-.11.36-.27.62-.47.78-.2.16-.46.24-.79.24-.15,0-.32-.01-.49-.04l-1.86-.32c.14-.99.42-1.87.83-2.62.41-.75.93-1.38,1.54-1.88.62-.5,1.32-.88,2.12-1.13.8-.25,1.66-.38,2.57-.38Z"/>
          <path class="cls-9" d="m715.71,139.5c0,1.81-.19,3.38-.58,4.71-.39,1.33-.92,2.43-1.61,3.31-.68.87-1.49,1.52-2.42,1.94-.93.42-1.94.64-3.02.64s-2.08-.21-3-.64c-.92-.43-1.72-1.07-2.4-1.94-.68-.87-1.21-1.97-1.59-3.31-.38-1.33-.57-2.9-.57-4.71s.19-3.39.57-4.72c.38-1.33.91-2.43,1.59-3.3.68-.87,1.48-1.52,2.4-1.94.92-.42,1.92-.64,3-.64s2.09.21,3.02.64c.93.43,1.74,1.07,2.42,1.94.68.87,1.22,1.97,1.61,3.3.39,1.33.58,2.9.58,4.72Zm-3.66,0c0-1.5-.11-2.74-.33-3.73-.22-.98-.51-1.77-.88-2.35-.37-.58-.79-.99-1.27-1.23-.48-.23-.98-.35-1.49-.35s-1,.12-1.47.35c-.47.23-.89.64-1.25,1.23-.36.58-.65,1.37-.87,2.35-.22.98-.32,2.23-.32,3.73s.11,2.74.32,3.73c.21.98.5,1.77.87,2.35.36.58.78.99,1.25,1.23.47.24.96.35,1.47.35s1.01-.12,1.49-.35c.48-.23.9-.64,1.27-1.23.37-.58.66-1.37.88-2.35.22-.98.33-2.23.33-3.73Z"/>
          <path class="cls-5" d="m726.88,134.15c0,.78-.13,1.49-.4,2.12-.26.63-.61,1.17-1.05,1.61-.44.44-.95.79-1.53,1.03-.58.24-1.19.36-1.82.36-.69,0-1.32-.12-1.91-.36-.58-.24-1.09-.58-1.51-1.03-.43-.44-.76-.98-1-1.61-.24-.63-.36-1.34-.36-2.12s.12-1.53.36-2.18c.24-.65.57-1.2,1-1.65.43-.45.93-.8,1.51-1.04.58-.24,1.22-.37,1.91-.37s1.33.12,1.91.37c.59.24,1.1.59,1.53,1.04.43.45.76,1,1,1.65.24.65.36,1.38.36,2.18Zm6.9-4.46c.11-.14.26-.27.43-.39.17-.11.41-.17.72-.17h2.57l-15.4,20.2c-.12.15-.26.28-.44.38-.18.1-.39.15-.64.15h-2.64l15.4-20.17Zm-9.64,4.46c0-.55-.05-1.02-.16-1.39-.11-.37-.25-.67-.44-.9-.19-.23-.41-.39-.66-.49-.25-.1-.52-.15-.81-.15s-.55.05-.8.15c-.25.1-.46.26-.64.49-.18.23-.32.53-.42.9-.1.37-.15.84-.15,1.39s.05.98.15,1.34c.1.36.24.65.42.87.18.22.4.38.64.47.25.1.52.14.8.14s.56-.05.81-.14c.25-.1.47-.25.66-.47.19-.22.33-.51.44-.87.11-.36.16-.81.16-1.34Zm14.44,10.84c0,.78-.13,1.49-.39,2.12-.26.63-.61,1.17-1.05,1.61-.44.44-.95.79-1.53,1.03-.58.24-1.19.37-1.82.37-.69,0-1.32-.12-1.91-.37-.58-.24-1.09-.59-1.51-1.03-.43-.44-.76-.98-1-1.61-.24-.63-.36-1.34-.36-2.12s.12-1.53.36-2.18c.24-.65.57-1.2,1-1.65.43-.45.93-.8,1.51-1.04.58-.24,1.22-.37,1.91-.37s1.33.12,1.91.37c.59.24,1.1.59,1.53,1.04.43.45.76,1,1,1.65.24.65.36,1.38.36,2.18Zm-2.72,0c0-.55-.06-1.02-.17-1.39-.11-.37-.26-.67-.44-.9-.19-.23-.41-.39-.66-.49-.25-.1-.52-.15-.81-.15s-.56.05-.8.15c-.25.1-.46.26-.64.49-.18.23-.32.53-.42.9-.1.37-.16.84-.16,1.39s.05.98.16,1.35c.11.36.25.65.42.87.18.22.39.38.64.47.25.1.52.14.8.14s.56-.05.81-.14c.25-.1.47-.25.66-.47.19-.22.33-.51.44-.87.11-.36.17-.81.17-1.35Z"/>
        </g>
      </g>
      <g>
        <path class="cls-14" d="m99.48,212.75C44.63,212.75,0,168.13,0,113.27S44.63,13.79,99.48,13.79s99.48,44.63,99.48,99.48-44.63,99.48-99.48,99.48Zm0-166.6c-37.01,0-67.12,30.11-67.12,67.12s30.11,67.11,67.12,67.11,67.12-30.11,67.12-67.11-30.11-67.12-67.12-67.12Z"/>
        <path class="cls-13" d="m99.48,226.54h-.57c-11.92-.07-23.6-1.97-34.79-5.64-11.32-3.71-21.94-9.18-31.57-16.25l35.34-48.18c4.55,3.33,9.55,5.91,14.88,7.66,5.33,1.75,10.9,2.64,16.57,2.66h.4c5.54-.02,10.99-.89,16.21-2.57,5.35-1.73,10.38-4.29,14.95-7.61,4.58-3.33,8.59-7.34,11.92-11.92,3.32-4.57,5.88-9.6,7.61-14.95,1.71-5.28,2.57-10.81,2.58-16.42v-.27c-.02-5.6-.91-11.17-2.66-16.5-1.75-5.33-4.33-10.33-7.66-14.88-3.34-4.55-7.35-8.53-11.92-11.83-4.56-3.3-9.57-5.83-14.9-7.54-5.26-1.69-10.75-2.55-16.33-2.55h-.27s0-29.87,0-29.87L99.01,0h.47c11.8,0,23.46,1.82,34.64,5.41,11.32,3.63,21.96,9.02,31.62,15.99,9.63,6.95,18.08,15.34,25.11,24.93,7.07,9.63,12.53,20.26,16.25,31.57,3.71,11.3,5.61,23.1,5.64,35.06v.3c0,11.87-1.84,23.58-5.47,34.82-3.67,11.36-9.1,22.04-16.14,31.72-7.02,9.65-15.47,18.1-25.12,25.12-9.69,7.04-20.36,12.47-31.73,16.14-11.24,3.63-22.95,5.47-34.82,5.47Z"/>
        <g>
          <path class="cls-3" d="m76.37,109.3c.98,0,1.93.16,2.85.48.92.32,1.74.81,2.44,1.46.7.65,1.27,1.46,1.7,2.42.43.97.64,2.09.64,3.38,0,1.2-.22,2.33-.66,3.39-.44,1.06-1.06,1.98-1.86,2.76-.8.79-1.76,1.41-2.89,1.86-1.13.45-2.37.68-3.73.68s-2.62-.22-3.72-.66c-1.1-.44-2.03-1.06-2.81-1.85-.77-.79-1.37-1.75-1.78-2.86-.41-1.11-.62-2.35-.62-3.71,0-1.22.25-2.46.74-3.74.49-1.28,1.26-2.61,2.3-3.99l6.17-8.27c.22-.29.53-.53.94-.73.41-.2.88-.3,1.42-.3h3.93l-7.67,9.38c-.17.2-.33.39-.47.57-.15.18-.29.36-.44.56.5-.25,1.04-.45,1.62-.59.58-.14,1.21-.21,1.89-.21Zm-6.18,8.03c0,.71.1,1.37.3,1.96.2.59.49,1.09.88,1.51.39.42.87.74,1.44.97.57.23,1.23.35,1.98.35.7,0,1.35-.12,1.94-.36.59-.24,1.1-.57,1.52-1,.42-.43.75-.93.99-1.51.24-.58.36-1.21.36-1.89,0-.74-.11-1.4-.34-1.99-.23-.59-.55-1.09-.96-1.5-.42-.41-.92-.72-1.5-.94-.58-.21-1.23-.32-1.93-.32s-1.34.12-1.91.36c-.57.24-1.06.57-1.47.99-.41.42-.73.92-.95,1.5-.22.58-.33,1.2-.33,1.87Z"/>
          <path class="cls-2" d="m104.97,112.52c0,2.25-.24,4.21-.72,5.87-.48,1.66-1.15,3.04-2,4.12-.85,1.08-1.86,1.89-3.02,2.42-1.16.53-2.42.8-3.76.8s-2.59-.27-3.74-.8c-1.15-.53-2.15-1.34-2.99-2.42-.85-1.08-1.51-2.46-1.98-4.12-.48-1.66-.71-3.62-.71-5.87s.24-4.22.71-5.88c.48-1.66,1.14-3.03,1.98-4.11.85-1.08,1.84-1.89,2.99-2.42,1.15-.53,2.4-.8,3.74-.8s2.6.27,3.76.8c1.16.53,2.17,1.34,3.02,2.42.85,1.08,1.52,2.45,2,4.11.48,1.66.72,3.62.72,5.88Zm-4.56,0c0-1.87-.14-3.42-.41-4.65-.27-1.23-.64-2.2-1.1-2.93-.46-.73-.99-1.24-1.58-1.53-.6-.29-1.22-.44-1.86-.44s-1.24.15-1.83.44c-.59.29-1.11.8-1.56,1.53-.45.73-.81,1.7-1.08,2.93-.27,1.23-.4,2.78-.4,4.65s.13,3.42.4,4.65c.27,1.23.63,2.21,1.08,2.93.45.73.97,1.24,1.56,1.53.59.29,1.2.44,1.83.44s1.26-.15,1.86-.44c.6-.29,1.12-.8,1.58-1.53.46-.73.82-1.71,1.1-2.93.27-1.23.41-2.78.41-4.65Z"/>
          <path class="cls-4" d="m118.89,105.85c0,.98-.16,1.86-.49,2.65-.33.79-.77,1.46-1.31,2.01-.55.55-1.19.98-1.91,1.28-.73.3-1.48.45-2.27.45-.86,0-1.65-.15-2.38-.45-.73-.3-1.36-.72-1.89-1.28s-.94-1.22-1.24-2.01c-.3-.79-.45-1.67-.45-2.65s.15-1.91.45-2.72c.3-.81.71-1.5,1.24-2.06.53-.56,1.16-.99,1.89-1.29.73-.3,1.52-.46,2.38-.46s1.65.15,2.39.46c.73.3,1.37.74,1.9,1.29.54.56.95,1.25,1.25,2.06.3.81.45,1.72.45,2.72Zm8.6-5.56c.14-.18.32-.34.54-.48.21-.14.51-.21.89-.21h3.2l-19.2,25.18c-.14.19-.33.35-.55.47-.22.12-.49.19-.8.19h-3.29l19.2-25.15Zm-12.01,5.56c0-.69-.07-1.27-.2-1.73-.13-.46-.31-.84-.55-1.13-.23-.29-.51-.49-.82-.62-.32-.13-.65-.19-1.01-.19s-.69.06-1,.19c-.31.12-.58.33-.8.62-.23.29-.4.66-.53,1.13-.12.46-.19,1.04-.19,1.73s.06,1.22.19,1.67c.12.45.3.81.53,1.08.23.28.49.47.8.59.31.12.64.18,1,.18s.69-.06,1.01-.18c.32-.12.59-.32.82-.59.23-.27.41-.63.55-1.08.13-.45.2-1,.2-1.67Zm18,13.51c0,.98-.16,1.86-.49,2.65-.33.79-.77,1.46-1.31,2.01-.55.56-1.19.98-1.91,1.29-.73.3-1.48.46-2.27.46-.86,0-1.65-.15-2.38-.46-.73-.3-1.35-.73-1.88-1.29-.53-.55-.94-1.22-1.24-2.01-.3-.79-.45-1.67-.45-2.65s.15-1.91.45-2.72c.3-.81.71-1.49,1.24-2.05.53-.56,1.16-.99,1.88-1.3.73-.3,1.52-.46,2.38-.46s1.65.15,2.39.46,1.37.74,1.9,1.3c.54.56.95,1.24,1.25,2.05.3.81.45,1.72.45,2.72Zm-3.4,0c0-.69-.07-1.27-.21-1.73-.14-.47-.32-.84-.55-1.13-.23-.29-.51-.49-.82-.62s-.65-.19-1.01-.19-.69.06-1,.19-.57.33-.8.62c-.22.29-.4.66-.53,1.13-.13.46-.2,1.04-.2,1.73s.06,1.23.2,1.68c.13.45.31.82.53,1.09.22.28.49.47.8.59.31.12.64.18,1,.18s.69-.06,1.01-.18c.32-.12.59-.32.82-.59.23-.27.42-.64.55-1.09.14-.45.21-1.01.21-1.68Z"/>
        </g>
      </g>
    </g>
  </g>
</svg>