<?xml version="1.0" encoding="UTF-8"?><svg id="_レイヤー_2" xmlns="http://www.w3.org/2000/svg" xmlns:xlink="http://www.w3.org/1999/xlink" viewBox="0 0 869 446.81"><defs><style>.cls-1{font-family:DINAlternate-Bold, 'DIN Alternate';font-size:35px;font-weight:700;}.cls-1,.cls-2,.cls-3{fill:#333;}.cls-4{fill:#1a1a1a;}.cls-3{font-size:20px;}.cls-3,.cls-5{font-family:DNPShueiGoGinStd-B-83pv-RKSJ-H, 'DNP ShueiGoGinStd';}.cls-6{fill:none;stroke:#333;stroke-dasharray:0 2;stroke-miterlimit:10;stroke-width:2px;}.cls-7{fill:url(#_新規グラデーションスウォッチ_1);}.cls-5{fill:#fff;font-size:17px;}.cls-8{fill:url(#_新規グラデーションスウォッチ_1-2);}.cls-9{fill:url(#_新規グラデーションスウォッチ_1-3);}</style><linearGradient id="_新規グラデーションスウォッチ_1" x1="693" y1="425.81" x2="810" y2="425.81" gradientUnits="userSpaceOnUse"><stop offset="0" stop-color="#0d76a3"/><stop offset="0" stop-color="#0d74a2"/><stop offset=".18" stop-color="#10548a"/><stop offset=".37" stop-color="#133b78"/><stop offset=".56" stop-color="#152a6b"/><stop offset=".76" stop-color="#161f63"/><stop offset="1" stop-color="#171c61"/></linearGradient><linearGradient id="_新規グラデーションスウォッチ_1-2" x1="716" y1="215.81" x2="787" y2="215.81" xlink:href="#_新規グラデーションスウォッチ_1"/><linearGradient id="_新規グラデーションスウォッチ_1-3" x1="723.81" y1="25.69" x2="775.19" y2="25.69" xlink:href="#_新規グラデーションスウォッチ_1"/></defs><g id="_レイヤー_1-2"><g><text class="cls-3" transform="translate(65 60.37)"><tspan x="0" y="0">※ご紹介数 / 月</tspan><tspan x="0" y="34">※昨対比</tspan></text><text class="cls-3" transform="translate(153.65 374.77)"><tspan x="0" y="0">%</tspan></text><text class="cls-3" transform="translate(469.65 374.77)"><tspan x="0" y="0">%</tspan></text><text class="cls-3" transform="translate(786.65 374.77)"><tspan x="0" y="0">%</tspan></text><text class="cls-1" transform="translate(97.64 374.77)"><tspan x="0" y="0">150</tspan></text><text class="cls-1" transform="translate(409.67 374.77)"><tspan x="0" y="0">200</tspan></text><text class="cls-3" transform="translate(765.65 225.77)"><tspan x="0" y="0">名</tspan></text><text class="cls-1" transform="translate(726.98 374.77)"><tspan x="0" y="0">300</tspan></text><g><rect class="cls-2" x="65" y="404.81" width="117" height="42" rx="5" ry="5"/><text class="cls-5" transform="translate(101.26 432.14)"><tspan x="0" y="0">2020</tspan></text></g><g><rect class="cls-2" x="376" y="404.81" width="117" height="42" rx="5" ry="5"/><text class="cls-5" transform="translate(412.26 432.14)"><tspan x="0" y="0">2021</tspan></text></g><g><rect class="cls-7" x="693" y="404.81" width="117" height="42" rx="5" ry="5"/><text class="cls-5" transform="translate(729.26 432.14)"><tspan x="0" y="0">2022</tspan></text></g><rect class="cls-2" x="88" y="309.11" width="71" height="22"/><rect class="cls-2" x="399" y="267.11" width="71" height="64"/><rect class="cls-8" x="716" y="99.81" width="71" height="232"/><rect y="330.81" width="869" height="2"/><circle class="cls-4" cx="125.5" cy="300" r="5.5"/><polyline class="cls-6" points="125.5 300 434.5 239 749.5 25.69"/><circle class="cls-9" cx="749.5" cy="25.69" r="25.69"/><circle class="cls-4" cx="434.94" cy="239.46" r="12"/></g></g></svg>