<?xml version="1.0" encoding="UTF-8"?><svg id="_レイヤー_2" xmlns="http://www.w3.org/2000/svg" xmlns:xlink="http://www.w3.org/1999/xlink" viewBox="0 0 975.02 360.48"><defs><style>.cls-1{fill:#bbb;}.cls-2{fill:#e1e1e1;}.cls-3{fill:#d5d5d5;}.cls-4{fill:url(#_新規グラデーションスウォッチ_1);}</style><linearGradient id="_新規グラデーションスウォッチ_1" x1="733.23" y1="212.92" x2="975.02" y2="212.92" gradientUnits="userSpaceOnUse"><stop offset="0" stop-color="#0d76a3"/><stop offset="0" stop-color="#0d74a2"/><stop offset=".18" stop-color="#10548a"/><stop offset=".37" stop-color="#133b78"/><stop offset=".56" stop-color="#152a6b"/><stop offset=".76" stop-color="#161f63"/><stop offset="1" stop-color="#171c61"/></linearGradient></defs><g id="_レイヤー_1-2"><g><g><polygon class="cls-3" points="431.7 347.05 486.21 297.08 486.21 277.94 431.7 312.44 431.7 347.05"/><polygon class="cls-3" points="366.37 324.54 429.6 312.97 429.6 348.91 366.37 360.48 366.37 324.54"/><polygon class="cls-3" points="364.26 324.54 301.03 312.97 301.03 348.91 364.26 360.48 364.26 324.54"/><polygon class="cls-3" points="366.37 322.92 429.6 311.34 429.6 294.85 366.37 306.2 366.37 322.92"/><g><polygon class="cls-3" points="301.03 295.07 301.03 311.34 364.26 322.92 364.26 306.24 364.22 306.24 301.03 295.07"/><polygon class="cls-3" points="301.04 275.41 301.03 275.41 301.03 275.77 301.04 275.77 301.04 275.41"/><polygon class="cls-3" points="301.04 275.41 301.03 275.41 301.03 275.77 301.04 275.77 301.04 275.41"/><rect class="cls-3" x="364.22" y="306.23" width=".04" height="0"/><rect class="cls-3" x="364.22" y="306.23" width=".04" height="0"/></g><polygon class="cls-3" points="486.21 240.7 431.7 294.11 431.7 310.79 486.21 276.32 486.21 240.7"/><polygon class="cls-3" points="298.93 347.05 244.42 297.08 244.42 277.94 298.93 312.44 298.93 347.05"/><polygon class="cls-3" points="244.42 240.7 298.93 294.11 298.93 310.79 244.42 276.32 244.42 240.7"/></g><g><polygon class="cls-1" points="543.33 188.78 488.82 238.75 488.82 257.89 543.33 223.39 543.33 188.78"/><polygon class="cls-1" points="608.67 211.29 545.44 222.86 545.44 186.93 608.67 175.35 608.67 211.29"/><polygon class="cls-1" points="610.77 211.29 674 222.86 674 186.93 610.77 175.35 610.77 211.29"/><polygon class="cls-1" points="608.67 212.91 545.44 224.49 545.44 240.98 608.67 229.63 608.67 212.91"/><g><polygon class="cls-1" points="674 240.76 674 224.49 610.77 212.91 610.77 229.59 610.81 229.6 674 240.76"/><polygon class="cls-1" points="673.99 260.42 674 260.42 674 260.06 673.99 260.06 673.99 260.42"/><polygon class="cls-1" points="673.99 260.42 674 260.42 674 260.06 673.99 260.06 673.99 260.42"/><rect class="cls-1" x="610.77" y="229.59" width=".04" height="0"/><rect class="cls-1" x="610.77" y="229.59" width=".04" height="0"/></g><polygon class="cls-1" points="488.82 295.13 543.33 241.72 543.33 225.04 488.82 259.51 488.82 295.13"/><polygon class="cls-1" points="676.11 188.78 730.62 238.75 730.62 257.89 676.11 223.39 676.11 188.78"/><polygon class="cls-1" points="730.62 295.13 676.11 241.72 676.11 225.04 730.62 259.51 730.62 295.13"/></g><g><polygon class="cls-2" points="54.51 188.78 0 238.75 0 257.89 54.51 223.39 54.51 188.78"/><polygon class="cls-2" points="119.85 211.29 56.61 222.86 56.61 186.93 119.85 175.35 119.85 211.29"/><polygon class="cls-2" points="121.95 211.29 185.18 222.86 185.18 186.93 121.95 175.35 121.95 211.29"/><polygon class="cls-2" points="119.85 212.91 56.61 224.49 56.61 240.98 119.85 229.63 119.85 212.91"/><g><polygon class="cls-2" points="185.18 240.76 185.18 224.49 121.95 212.91 121.95 229.59 121.99 229.6 185.18 240.76"/><polygon class="cls-2" points="185.17 260.42 185.18 260.42 185.18 260.06 185.17 260.06 185.17 260.42"/><polygon class="cls-2" points="185.17 260.42 185.18 260.42 185.18 260.06 185.17 260.06 185.17 260.42"/><rect class="cls-2" x="121.95" y="229.59" width=".04" height="0"/><rect class="cls-2" x="121.95" y="229.59" width=".04" height="0"/></g><polygon class="cls-2" points="0 295.13 54.51 241.72 54.51 225.04 0 259.51 0 295.13"/><polygon class="cls-2" points="187.28 188.78 241.8 238.75 241.8 257.89 187.28 223.39 187.28 188.78"/><polygon class="cls-2" points="241.8 295.13 187.28 241.72 187.28 225.04 241.8 259.51 241.8 295.13"/></g><g><polygon class="cls-3" points="431.7 288.46 486.21 238.48 486.21 219.34 431.7 253.85 431.7 288.46"/><polygon class="cls-3" points="366.37 265.95 429.6 254.37 429.6 290.31 366.37 301.88 366.37 265.95"/><polygon class="cls-3" points="364.26 265.95 301.03 254.37 301.03 290.31 364.26 301.88 364.26 265.95"/><polygon class="cls-3" points="366.37 264.32 429.6 252.75 429.6 236.26 366.37 247.6 366.37 264.32"/><g><polygon class="cls-3" points="301.03 236.47 301.03 252.75 364.26 264.32 364.26 247.64 364.22 247.64 301.03 236.47"/><polygon class="cls-3" points="301.04 216.81 301.03 216.81 301.03 217.17 301.04 217.17 301.04 216.81"/><polygon class="cls-3" points="301.04 216.81 301.03 216.81 301.03 217.17 301.04 217.17 301.04 216.81"/><rect class="cls-3" x="364.22" y="247.63" width=".04" height="0"/><rect class="cls-3" x="364.22" y="247.63" width=".04" height="0"/></g><polygon class="cls-3" points="486.21 182.1 431.7 235.51 431.7 252.19 486.21 217.73 486.21 182.1"/><polygon class="cls-3" points="298.93 288.46 244.42 238.48 244.42 219.34 298.93 253.85 298.93 288.46"/><polygon class="cls-3" points="244.42 182.1 298.93 235.51 298.93 252.19 244.42 217.73 244.42 182.1"/></g><g><polygon class="cls-1" points="543.33 130.4 488.82 180.38 488.82 199.52 543.33 165.01 543.33 130.4"/><polygon class="cls-1" points="608.67 152.91 545.44 164.49 545.44 128.55 608.67 116.97 608.67 152.91"/><polygon class="cls-1" points="610.77 152.91 674 164.49 674 128.55 610.77 116.97 610.77 152.91"/><polygon class="cls-1" points="608.67 154.54 545.44 166.11 545.44 182.6 608.67 171.26 608.67 154.54"/><g><polygon class="cls-1" points="674 182.39 674 166.11 610.77 154.54 610.77 171.21 610.81 171.22 674 182.39"/><polygon class="cls-1" points="673.99 202.05 674 202.05 674 201.69 673.99 201.68 673.99 202.05"/><polygon class="cls-1" points="673.99 202.05 674 202.05 674 201.69 673.99 201.68 673.99 202.05"/><rect class="cls-1" x="610.77" y="171.22" width=".04" height="0"/><rect class="cls-1" x="610.77" y="171.22" width=".04" height="0"/></g><polygon class="cls-1" points="488.82 236.75 543.33 183.34 543.33 166.67 488.82 201.13 488.82 236.75"/><polygon class="cls-1" points="676.11 130.4 730.62 180.38 730.62 199.52 676.11 165.01 676.11 130.4"/><polygon class="cls-1" points="730.62 236.75 676.11 183.34 676.11 166.67 730.62 201.13 730.62 236.75"/></g><g><polygon class="cls-2" points="54.51 130.4 0 180.38 0 199.52 54.51 165.01 54.51 130.4"/><polygon class="cls-2" points="119.85 152.91 56.61 164.49 56.61 128.55 119.85 116.97 119.85 152.91"/><polygon class="cls-2" points="121.95 152.91 185.18 164.49 185.18 128.55 121.95 116.97 121.95 152.91"/><polygon class="cls-2" points="119.85 154.54 56.61 166.11 56.61 182.6 119.85 171.26 119.85 154.54"/><g><polygon class="cls-2" points="185.18 182.39 185.18 166.11 121.95 154.54 121.95 171.21 121.99 171.22 185.18 182.39"/><polygon class="cls-2" points="185.17 202.05 185.18 202.05 185.18 201.69 185.17 201.68 185.17 202.05"/><polygon class="cls-2" points="185.17 202.05 185.18 202.05 185.18 201.69 185.17 201.68 185.17 202.05"/><rect class="cls-2" x="121.95" y="171.22" width=".04" height="0"/><rect class="cls-2" x="121.95" y="171.22" width=".04" height="0"/></g><polygon class="cls-2" points="0 236.75 54.51 183.34 54.51 166.67 0 201.13 0 236.75"/><polygon class="cls-2" points="187.28 130.4 241.8 180.38 241.8 199.52 187.28 165.01 187.28 130.4"/><polygon class="cls-2" points="241.8 236.75 187.28 183.34 187.28 166.67 241.8 201.13 241.8 236.75"/></g><g><polygon class="cls-3" points="431.7 230.08 486.21 180.1 486.21 160.96 431.7 195.47 431.7 230.08"/><polygon class="cls-3" points="366.37 207.57 429.6 196 429.6 231.93 366.37 243.51 366.37 207.57"/><polygon class="cls-3" points="364.26 207.57 301.03 196 301.03 231.93 364.26 243.51 364.26 207.57"/><polygon class="cls-3" points="366.37 205.94 429.6 194.37 429.6 177.88 366.37 189.23 366.37 205.94"/><g><polygon class="cls-3" points="301.03 178.1 301.03 194.37 364.26 205.94 364.26 189.27 364.22 189.26 301.03 178.1"/><polygon class="cls-3" points="301.04 158.44 301.03 158.43 301.03 158.8 301.04 158.8 301.04 158.44"/><polygon class="cls-3" points="301.04 158.44 301.03 158.43 301.03 158.8 301.04 158.8 301.04 158.44"/><rect class="cls-3" x="364.22" y="189.26" width=".04" height="0"/><rect class="cls-3" x="364.22" y="189.26" width=".04" height="0"/></g><polygon class="cls-3" points="486.21 123.73 431.7 177.14 431.7 193.82 486.21 159.35 486.21 123.73"/><polygon class="cls-3" points="298.93 230.08 244.42 180.1 244.42 160.96 298.93 195.47 298.93 230.08"/><polygon class="cls-3" points="244.42 123.73 298.93 177.14 298.93 193.82 244.42 159.35 244.42 123.73"/></g><g><polygon class="cls-1" points="543.33 72.03 488.82 122 488.82 141.14 543.33 106.64 543.33 72.03"/><polygon class="cls-1" points="608.67 94.53 545.44 106.11 545.44 70.17 608.67 58.6 608.67 94.53"/><polygon class="cls-1" points="610.77 94.53 674 106.11 674 70.17 610.77 58.6 610.77 94.53"/><polygon class="cls-1" points="608.67 96.16 545.44 107.74 545.44 124.23 608.67 112.88 608.67 96.16"/><g><polygon class="cls-1" points="674 124.01 674 107.74 610.77 96.16 610.77 112.84 610.81 112.84 674 124.01"/><polygon class="cls-1" points="673.99 143.67 674 143.67 674 143.31 673.99 143.31 673.99 143.67"/><polygon class="cls-1" points="673.99 143.67 674 143.67 674 143.31 673.99 143.31 673.99 143.67"/><rect class="cls-1" x="610.77" y="112.84" width=".04" height="0"/><rect class="cls-1" x="610.77" y="112.84" width=".04" height="0"/></g><polygon class="cls-1" points="488.82 178.38 543.33 124.97 543.33 108.29 488.82 142.76 488.82 178.38"/><polygon class="cls-1" points="676.11 72.03 730.62 122 730.62 141.14 676.11 106.64 676.11 72.03"/><polygon class="cls-1" points="730.62 178.38 676.11 124.97 676.11 108.29 730.62 142.76 730.62 178.38"/></g><g><polygon class="cls-2" points="54.51 72.03 0 122 0 141.14 54.51 106.64 54.51 72.03"/><polygon class="cls-2" points="119.85 94.53 56.61 106.11 56.61 70.17 119.85 58.6 119.85 94.53"/><polygon class="cls-2" points="121.95 94.53 185.18 106.11 185.18 70.17 121.95 58.6 121.95 94.53"/><polygon class="cls-2" points="119.85 96.16 56.61 107.74 56.61 124.23 119.85 112.88 119.85 96.16"/><g><polygon class="cls-2" points="185.18 124.01 185.18 107.74 121.95 96.16 121.95 112.84 121.99 112.84 185.18 124.01"/><polygon class="cls-2" points="185.17 143.67 185.18 143.67 185.18 143.31 185.17 143.31 185.17 143.67"/><polygon class="cls-2" points="185.17 143.67 185.18 143.67 185.18 143.31 185.17 143.31 185.17 143.67"/><rect class="cls-2" x="121.95" y="112.84" width=".04" height="0"/><rect class="cls-2" x="121.95" y="112.84" width=".04" height="0"/></g><polygon class="cls-2" points="0 178.38 54.51 124.97 54.51 108.29 0 142.76 0 178.38"/><polygon class="cls-2" points="187.28 72.03 241.8 122 241.8 141.14 187.28 106.64 187.28 72.03"/><polygon class="cls-2" points="241.8 178.38 187.28 124.97 187.28 108.29 241.8 142.76 241.8 178.38"/></g><g><polygon class="cls-3" points="431.7 171.7 486.21 121.73 486.21 102.59 431.7 137.09 431.7 171.7"/><polygon class="cls-3" points="366.37 149.19 429.6 137.62 429.6 173.56 366.37 185.13 366.37 149.19"/><polygon class="cls-3" points="364.26 149.19 301.03 137.62 301.03 173.56 364.26 185.13 364.26 149.19"/><polygon class="cls-3" points="366.37 147.57 429.6 135.99 429.6 119.5 366.37 130.85 366.37 147.57"/><g><polygon class="cls-3" points="301.03 119.72 301.03 135.99 364.26 147.57 364.26 130.89 364.22 130.88 301.03 119.72"/><polygon class="cls-3" points="301.04 100.06 301.03 100.06 301.03 100.42 301.04 100.42 301.04 100.06"/><polygon class="cls-3" points="301.04 100.06 301.03 100.06 301.03 100.42 301.04 100.42 301.04 100.06"/><rect class="cls-3" x="364.22" y="130.88" width=".04" height="0"/><rect class="cls-3" x="364.22" y="130.88" width=".04" height="0"/></g><polygon class="cls-3" points="486.21 65.35 431.7 118.76 431.7 135.44 486.21 100.97 486.21 65.35"/><polygon class="cls-3" points="298.93 171.7 244.42 121.73 244.42 102.59 298.93 137.09 298.93 171.7"/><polygon class="cls-3" points="244.42 65.35 298.93 118.76 298.93 135.44 244.42 100.97 244.42 65.35"/></g><g><polygon class="cls-1" points="543.33 13.43 488.82 63.4 488.82 82.54 543.33 48.04 543.33 13.43"/><polygon class="cls-1" points="608.67 35.94 545.44 47.51 545.44 11.57 608.67 0 608.67 35.94"/><polygon class="cls-1" points="610.77 35.94 674 47.51 674 11.57 610.77 0 610.77 35.94"/><polygon class="cls-1" points="608.67 37.56 545.44 49.14 545.44 65.63 608.67 54.28 608.67 37.56"/><g><polygon class="cls-1" points="674 65.41 674 49.14 610.77 37.56 610.77 54.24 610.81 54.25 674 65.41"/><polygon class="cls-1" points="673.99 85.07 674 85.07 674 84.71 673.99 84.71 673.99 85.07"/><polygon class="cls-1" points="673.99 85.07 674 85.07 674 84.71 673.99 84.71 673.99 85.07"/><rect class="cls-1" x="610.77" y="54.24" width=".04" height="0"/><rect class="cls-1" x="610.77" y="54.24" width=".04" height="0"/></g><polygon class="cls-1" points="488.82 119.78 543.33 66.37 543.33 49.69 488.82 84.16 488.82 119.78"/><polygon class="cls-1" points="676.11 13.43 730.62 63.4 730.62 82.54 676.11 48.04 676.11 13.43"/><polygon class="cls-1" points="730.62 119.78 676.11 66.37 676.11 49.69 730.62 84.16 730.62 119.78"/></g><g><polygon class="cls-2" points="54.51 13.43 0 63.4 0 82.54 54.51 48.04 54.51 13.43"/><polygon class="cls-2" points="119.85 35.94 56.61 47.51 56.61 11.57 119.85 0 119.85 35.94"/><polygon class="cls-2" points="121.95 35.94 185.18 47.51 185.18 11.57 121.95 0 121.95 35.94"/><polygon class="cls-2" points="119.85 37.56 56.61 49.14 56.61 65.63 119.85 54.28 119.85 37.56"/><g><polygon class="cls-2" points="185.18 65.41 185.18 49.14 121.95 37.56 121.95 54.24 121.99 54.25 185.18 65.41"/><polygon class="cls-2" points="185.17 85.07 185.18 85.07 185.18 84.71 185.17 84.71 185.17 85.07"/><polygon class="cls-2" points="185.17 85.07 185.18 85.07 185.18 84.71 185.17 84.71 185.17 85.07"/><rect class="cls-2" x="121.95" y="54.24" width=".04" height="0"/><rect class="cls-2" x="121.95" y="54.24" width=".04" height="0"/></g><polygon class="cls-2" points="0 119.78 54.51 66.37 54.51 49.69 0 84.16 0 119.78"/><polygon class="cls-2" points="187.28 13.43 241.8 63.4 241.8 82.54 187.28 48.04 187.28 13.43"/><polygon class="cls-2" points="241.8 119.78 187.28 66.37 187.28 49.69 241.8 84.16 241.8 119.78"/></g><path class="cls-4" d="M920.51,312.44l54.51-34.51v19.14l-54.51,49.98v-34.61Zm-65.33,48.04l63.23-11.57v-35.94s-63.23,11.57-63.23,11.57v35.94Zm-2.1-35.94l-63.23-11.57v35.94s63.23,11.57,63.23,11.57v-35.94Zm2.1-1.63l63.23-11.57v-16.49l-63.23,11.35v16.72Zm-65.33-27.85v16.27l63.23,11.57v-16.68h-.04s-63.19-11.17-63.19-11.17Zm0-19.66h0s0,.36,0,.36h.01s0-.36,0-.36Zm0,0h0s0,.36,0,.36h.01s0-.36,0-.36Zm63.18,30.82h0s.04,.01,.04,.01h0s-.04-.01-.04-.01Zm0,0h0s.04,.01,.04,.01h0s-.04-.01-.04-.01Zm121.99-65.53l-54.51,53.41v16.68s54.51-34.47,54.51-34.47v-35.62Zm-187.28,71.74l-54.51-34.51v19.14s54.51,49.98,54.51,49.98v-34.61Zm-54.51-36.12l54.51,34.47v-16.68s-54.51-53.41-54.51-53.41v35.62Zm187.28,12.13l54.51-49.98v-19.14l-54.51,34.51v34.61Zm-65.33,13.43l63.23-11.57v-35.94s-63.23,11.57-63.23,11.57v35.94Zm-2.1-35.94l-63.23-11.57v35.94s63.23,11.57,63.23,11.57v-35.94Zm2.1-1.63l63.23-11.57v-16.49l-63.23,11.35v16.72Zm-65.33-27.85v16.27l63.23,11.57v-16.68h-.04s-63.19-11.17-63.19-11.17Zm0-19.66h0s0,.36,0,.36h.01s0-.36,0-.36Zm0,0h0s0,.36,0,.36h.01s0-.36,0-.36Zm63.18,30.82h0s.04,.01,.04,.01h0s-.04-.01-.04-.01Zm0,0h0s.04,.01,.04,.01h0s-.04-.01-.04-.01Zm121.99-65.53l-54.51,53.41v16.68s54.51-34.47,54.51-34.47v-35.62Zm-187.28,71.74l-54.51-34.51v19.14s54.51,49.98,54.51,49.98v-34.61Zm-54.51-36.12l54.51,34.47v-16.68s-54.51-53.41-54.51-53.41v35.62Zm187.28,12.35l54.51-49.98v-19.14l-54.51,34.51v34.61Zm-65.33,13.43l63.23-11.57v-35.94s-63.23,11.57-63.23,11.57v35.94Zm-2.1-35.94l-63.23-11.57v35.94s63.23,11.57,63.23,11.57v-35.94Zm2.1-1.63l63.23-11.57v-16.49l-63.23,11.35v16.72Zm-65.33-27.85v16.27l63.23,11.57v-16.68h-.04s-63.19-11.17-63.19-11.17Zm0-19.66h0s0,.36,0,.36h.01s0-.36,0-.36Zm0,0h0s0,.36,0,.36h.01s0-.36,0-.36Zm63.18,30.82h0s.04,.01,.04,.01h0s-.04-.01-.04-.01Zm0,0h0s.04,.01,.04,.01h0s-.04-.01-.04-.01Zm121.99-65.53l-54.51,53.41v16.68s54.51-34.47,54.51-34.47v-35.62Zm-187.28,71.74l-54.51-34.51v19.14s54.51,49.98,54.51,49.98v-34.61Zm-54.51-36.12l54.51,34.47v-16.68s-54.51-53.41-54.51-53.41v35.62Zm187.28,12.35l54.51-49.98v-19.14l-54.51,34.51v34.61Zm-65.33,13.43l63.23-11.57v-35.94s-63.23,11.57-63.23,11.57v35.94Zm-2.1-35.94l-63.23-11.57v35.94s63.23,11.57,63.23,11.57v-35.94Zm2.1-1.63l63.23-11.57v-16.49l-63.23,11.35v16.72Zm-65.33-27.85v16.27l63.23,11.57v-16.68h-.04s-63.19-11.17-63.19-11.17Zm0-19.66h0s0,.36,0,.36h.01s0-.36,0-.36Zm0,0h0s0,.36,0,.36h.01s0-.36,0-.36Zm63.18,30.82h0s.04,.01,.04,.01h0s-.04-.01-.04-.01Zm0,0h0s.04,.01,.04,.01h0s-.04-.01-.04-.01Zm121.99-65.53l-54.51,53.41v16.68s54.51-34.47,54.51-34.47v-35.62Zm-187.28,71.74l-54.51-34.51v19.14s54.51,49.98,54.51,49.98v-34.61Zm-54.51-36.12l54.51,34.47v-16.68s-54.51-53.41-54.51-53.41v35.62Z"/></g></g></svg>