<?xml version="1.0" encoding="UTF-8"?><svg id="_レイヤー_2" xmlns="http://www.w3.org/2000/svg" xmlns:xlink="http://www.w3.org/1999/xlink" viewBox="0 0 140.33 49.55"><defs><style>.cls-1{fill:#fff;}.cls-2{fill:url(#_新規グラデーションスウォッチ_1);}</style><linearGradient id="_新規グラデーションスウォッチ_1" x1="0" y1="24.78" x2="140.33" y2="24.78" gradientUnits="userSpaceOnUse"><stop offset="0" stop-color="#0d76a3"/><stop offset="0" stop-color="#0d74a2"/><stop offset=".18" stop-color="#10548a"/><stop offset=".37" stop-color="#133b78"/><stop offset=".56" stop-color="#152a6b"/><stop offset=".76" stop-color="#161f63"/><stop offset="1" stop-color="#171c61"/></linearGradient></defs><g id="_レイヤー_1-2"><g><polygon class="cls-2" points="135.99 49.55 0 49.55 4.34 0 140.33 0 135.99 49.55"/><g><path class="cls-1" d="M41.55,26.59c-.24,1.26-.49,1.88-.95,2.48-.87,1.16-1.92,1.72-4.3,2.33-.13-.48-.31-.91-.55-1.33,2.86-.63,3.94-1.41,4.4-3.47h-1.2c-.69,0-1.91,.03-2.51,.06v-1.39c.57,.03,1.79,.04,2.51,.04h6.88c.77,0,1.89-.01,2.51-.04v1.39c-.64-.03-1.76-.06-2.51-.06h-1.34v2.66c0,.53,.17,.6,1.26,.6,.81,0,1.26-.06,1.44-.17,.25-.17,.36-.69,.36-1.64v-.21q.85,.25,1.34,.35c-.11,2.77-.32,2.96-3.22,2.96-2.12,0-2.56-.25-2.56-1.49v-3.07h-1.55Zm4.01-6.75c.97,0,2.06-.03,2.77-.06-.01,.6-.01,.76-.01,1.06v.74c0,.35,.01,.77,.04,1.22h-1.44c.03-.41,.04-.9,.04-1.22v-.52h-9.16v.52c0,.32,.01,.81,.04,1.22h-1.44c.03-.45,.04-.87,.04-1.22v-.74c0-.31,0-.56-.01-1.06,.71,.03,1.81,.06,2.77,.06h2.48v-.56c0-.38,0-.7-.01-.9l1.4,.1c.17,.01,.25,.06,.25,.14s-.07,.17-.27,.28v.94h2.51Zm.84,3.89c-.42-.01-1.22-.03-1.68-.03h-4.72c-.46,0-1.25,.01-1.67,.03v-1.34c.42,.01,1.13,.03,1.67,.03h4.72c.55,0,1.26-.01,1.68-.03v1.34Z"/><path class="cls-1" d="M57.06,26.5h1.64c.56,0,1.47-.01,1.96-.04v1.37c-.52-.01-1.43-.04-1.96-.04h-1.64v1.93h2.52c.88,0,2.07-.03,2.79-.06v1.4c-.74-.03-1.93-.06-2.79-.06h-6.35c-.77,0-2.03,.03-2.79,.06v-1.4c.71,.03,1.99,.06,2.79,.06h2.48v-1.93h-1.65c-.59,0-1.37,.03-1.96,.04v-1.37c.55,.03,1.34,.04,1.96,.04h1.65v-1.7h-1.37c-.46,0-1.25,.01-1.67,.03v-1.09c-.66,.49-1.37,.94-2.21,1.43-.27-.5-.38-.67-.76-1.18,3.14-1.75,4.58-3.12,6.16-5.87l1.3,.48c.18,.07,.28,.15,.28,.25,0,.11-.03,.15-.27,.22,.67,1.08,1.27,1.79,2.1,2.49,1.01,.84,2.13,1.48,3.71,2.16-.39,.46-.49,.62-.81,1.26-.91-.46-1.53-.8-2.06-1.13v.98c-.43-.01-1.22-.03-1.68-.03h-1.39v1.7Zm1.39-2.98c.36,0,.8,0,1.18-.01-.31-.22-.62-.46-.97-.76-1.06-.91-1.44-1.33-2.35-2.83-.73,1.15-1.27,1.81-2.17,2.62-.36,.34-.74,.66-1.13,.97,.42,0,.94,.01,1.34,.01h4.1Z"/><path class="cls-1" d="M65.56,26.29c.1,.03,.15,.08,.15,.17,0,.06-.03,.1-.1,.14l-.14,.08c-.15,1.42-.41,2.65-.74,3.61-.6-.41-.63-.42-1.11-.63,.45-1.22,.63-2.12,.76-3.68l1.18,.31Zm-1.72-2.12c.34,0,.67-.01,1-.01,.28-.39,.56-.79,.84-1.19-.53-.46-1.02-.83-1.76-1.33l.57-1.05c.13,.08,.25,.15,.38,.24,.46-.83,.92-1.79,1.11-2.41l1.19,.49c.07,.03,.13,.11,.13,.18,0,.08-.08,.14-.29,.2-.41,.87-.81,1.62-1.16,2.19,.18,.13,.36,.27,.53,.41,.39-.66,.69-1.25,.92-1.83l1.19,.58c.08,.04,.15,.13,.15,.2,0,.1-.08,.15-.31,.2-.99,1.71-1.36,2.28-1.97,3.08,.42-.03,.84-.06,1.26-.1-.13-.27-.24-.5-.38-.73l1.01-.56c.53,.91,.79,1.43,1.13,2.4l-1.13,.55c-.07-.22-.14-.42-.21-.6-.28,.04-.55,.08-.83,.13v3.26c0,1.29,.01,2.26,.04,2.87h-1.43c.03-.62,.04-1.58,.04-2.87v-3.1c-.42,.06-.83,.11-1.22,.15-.11,.14-.18,.2-.24,.2-.08,0-.17-.08-.2-.2l-.36-1.32Zm4.55,1.68c.48,.8,.73,1.49,1.01,2.65l-1.16,.5c-.31-1.43-.45-1.88-.81-2.7l.97-.45Zm7.41-7.06l.81,.73c.1,.08,.13,.14,.13,.21,0,.1-.07,.17-.25,.24h-.04c-.22,2.61-.53,3.85-1.08,4.36-.46,.43-.99,.56-2.61,.56-.08-.76-.14-1.01-.34-1.48,.34,.03,.63,.04,.99,.04,.6,0,.85-.13,1.05-.52,.25-.49,.45-1.32,.6-2.65h-2.28c-.15,1.22-.36,1.91-.81,2.68-.49,.87-1.08,1.53-2,2.24-.22-.43-.5-.83-.83-1.11,.91-.69,1.25-1.08,1.69-1.95,.31-.63,.45-1.05,.55-1.86h-.27c-.59,0-1.42,.01-1.95,.04v-1.36c.53,.01,1.36,.03,1.95,.03h4.52l.15-.2Zm-4.76,12.55h-1.36c.03-.56,.04-1.37,.04-2.47v-1.15c0-.84-.03-1.78-.04-2.23,.36,.01,.7,.03,1.19,.03h4.19c.48,0,.81-.01,1.19-.03q-.03,.46-.04,2.23v.95c0,1.12,.01,1.93,.04,2.46h-1.36v-.55h-3.85v.74Zm3.85-2.03v-2.49h-3.85v2.49h3.85Z"/><path class="cls-1" d="M81.52,24.04c0-.34,0-.6-.01-.8-.9,.71-1.83,1.27-3.11,1.91-.2-.6-.36-.92-.71-1.37,1.71-.84,2.66-1.46,3.63-2.3,1.06-.95,1.82-1.91,2.55-3.22l1.33,.42c.15,.06,.22,.14,.22,.25s-.06,.17-.25,.22c.64,.98,1.27,1.65,2.21,2.37,1.02,.8,1.95,1.27,3.73,1.92-.32,.48-.48,.78-.7,1.4-1.61-.56-2.66-1.13-3.92-2.13-.94-.73-1.46-1.29-2.18-2.45-.63,.99-1.25,1.67-2.16,2.46-.17,.15-.34,.29-.5,.43l1.27,.08c.18,.01,.27,.06,.27,.14s-.07,.17-.28,.28v2.42c0,1.54-.24,2.63-.73,3.33-.55,.8-1.28,1.28-2.98,2-.24-.5-.45-.81-.83-1.28,2.56-.99,3.17-1.76,3.17-4.06v-2.05Zm3.96,7.28c.06-.69,.08-1.68,.08-3.15v-1.83c0-1.77-.04-2.86-.1-3.18l1.58,.13c.13,0,.21,.07,.21,.14,0,.08-.07,.15-.25,.25q-.03,.35-.04,2.66v1.83c0,1.47,.03,2.48,.08,3.15h-1.57Z"/><path class="cls-1" d="M96.39,27.29c0,1.83,.03,3.19,.07,4.09h-1.46c.04-.91,.07-2.28,.07-4.09v-.56h-1.32v2.37c0,.64,.01,1.18,.04,1.48h-1.37c.03-.34,.03-.8,.03-1.48v-2.35c0-.45-.01-.98-.03-1.23,.49,.01,.91,.01,1.54,.01h1.11v-1.09h-1.5c-.46,0-1.25,.01-1.68,.03v-1.36c.42,.03,1.13,.04,1.68,.04h1.5v-1.48h-1.5c-.22,.55-.43,.91-.76,1.4q-.38-.35-1.02-.8c.7-1.11,1.04-1.91,1.47-3.57l1.15,.34c.18,.06,.25,.1,.25,.18s-.08,.14-.32,.21c-.11,.36-.22,.67-.31,.95h1.02c-.01-.99-.04-1.62-.07-1.89l1.47,.1c.13,0,.21,.07,.21,.14,0,.08-.07,.15-.27,.27v1.39h1.02c.53,0,1.25-.01,1.67-.03v1.34c-.42-.01-1.2-.03-1.67-.03h-1.04v1.48h1.6c.53,0,1.25-.01,1.67-.04v1.36c-.42-.01-1.2-.03-1.67-.03h-1.6v1.09h1.19c.62,0,1.05,0,1.54-.01-.03,.25-.04,.78-.04,1.23v.92c0,.21,.03,.74,.04,1.12v.22c.01,1.23-.49,1.58-2.2,1.58h-.11c-.04-.7-.07-.92-.2-1.4,.39,.01,.57,.01,.66,.01,.43,0,.5-.07,.5-.57v-1.91h-1.39v.56Zm5.25-7.63c.14,.01,.21,.06,.21,.14s-.07,.17-.25,.27q0,.29-.01,2.8v2.55c0,1.49,.03,2.59,.06,3.28h-1.44c.03-.77,.06-1.85,.06-3.28v-2.55c0-1.83-.03-2.96-.07-3.29l1.46,.08Zm2.75-.87c.11,.01,.2,.07,.2,.15,0,.07-.07,.14-.25,.27q-.01,.48-.01,3.6v3.5c0,.63,.01,1.47,.04,3.15v.18c0,.73-.13,1.08-.46,1.32-.39,.28-.76,.34-2.24,.35-.03-.59-.06-.76-.27-1.49,.42,.04,.67,.06,.99,.06,.53,0,.59-.06,.59-.59v-6.49c0-2.28-.03-3.68-.08-4.12l1.5,.1Z"/></g></g></g></svg>