<?xml version="1.0" encoding="UTF-8"?><svg id="_レイヤー_2" xmlns="http://www.w3.org/2000/svg" xmlns:xlink="http://www.w3.org/1999/xlink" viewBox="0 0 140.33 49.55"><defs><style>.cls-1{fill:#fff;}.cls-2{fill:url(#_新規グラデーションスウォッチ_1);}</style><linearGradient id="_新規グラデーションスウォッチ_1" x1="0" y1="24.78" x2="140.33" y2="24.78" gradientUnits="userSpaceOnUse"><stop offset="0" stop-color="#0d76a3"/><stop offset="0" stop-color="#0d74a2"/><stop offset=".18" stop-color="#10548a"/><stop offset=".37" stop-color="#133b78"/><stop offset=".56" stop-color="#152a6b"/><stop offset=".76" stop-color="#161f63"/><stop offset="1" stop-color="#171c61"/></linearGradient></defs><g id="_レイヤー_1-2"><g><polygon class="cls-2" points="135.99 49.55 0 49.55 4.34 0 140.33 0 135.99 49.55"/><g><path class="cls-1" d="M14.11,21.49c.12,0,.19,.04,.19,.11s-.04,.11-.21,.22q0,.32-.01,1.24v2.1c0,.77,.01,1.25,.02,1.61h-1.29c.02-.37,.03-.88,.03-1.61v-2.1c0-.87-.01-1.34-.03-1.65l1.3,.08Zm3.26,3.37c0,2.33-.34,3.34-1.46,4.28-.63,.52-1.17,.81-2.35,1.3-.2-.57-.36-.83-.7-1.08,.95-.32,1.66-.68,2.17-1.1,.83-.68,1.11-1.53,1.11-3.29v-2.15c0-.84-.01-1.34-.03-1.65l1.3,.08c.12,.01,.19,.04,.19,.12,0,.05-.04,.11-.19,.21q-.02,.32-.02,1.24v2.04Z"/><path class="cls-1" d="M24.48,27.31c0,.79,.15,.87,1.63,.87,1.08,0,2.26-.1,3.28-.29l.18,1.19c-1.14,.18-2.18,.23-3.96,.23-1.9,0-2.31-.31-2.31-1.83v-4.13c0-.86-.01-1.36-.03-1.65l1.26,.08c.12,0,.19,.04,.19,.11s-.06,.12-.22,.22c-.01,.33-.01,.71-.01,1.24v1.28c.74-.21,1.27-.4,1.89-.68,.79-.36,1-.48,1.8-1.09l.94,.81c.05,.04,.09,.11,.09,.15,0,.08-.08,.13-.21,.13h-.18c-1.09,.63-1.57,.87-2.5,1.2-.46,.18-1.42,.48-1.84,.58v1.56Zm6.44-5.38c0,.62-.5,1.12-1.12,1.12s-1.12-.51-1.12-1.12,.51-1.13,1.12-1.13,1.12,.51,1.12,1.13Zm-1.71,0c0,.32,.26,.58,.58,.58s.59-.26,.59-.58-.26-.59-.59-.59-.58,.26-.58,.59Z"/><path class="cls-1" d="M41.36,26c-.52-.01-1.39-.03-1.97-.03h-4.61c-.54,0-1.5,.02-1.97,.03v-1.18c.45,.01,1.41,.03,1.97,.03h4.61c.61,0,1.47-.01,1.97-.03v1.18Z"/><path class="cls-1" d="M47.88,24.11c1.47,.54,2.35,.98,3.44,1.68l-.69,1.04c-.85-.64-1.69-1.11-2.75-1.54v2.34c0,1.03,.01,1.68,.02,2.25h-1.31c.07-.54,.1-1.25,.1-2.25v-4.4c0-1.25-.01-1.95-.04-2.29l1.29,.08c.11,0,.18,.04,.18,.11s-.07,.13-.21,.21c-.02,.73-.02,.86-.02,1.89v.87Z"/><path class="cls-1" d="M59.38,22.29c-.33,.48-.68,.94-1.04,1.39,.19,.14,.37,.3,.55,.45,.31-.42,.59-.86,.91-1.4l.89,.44c.08,.03,.11,.07,.11,.11,0,.07-.07,.12-.21,.17-.98,1.27-1.38,1.75-1.94,2.3,.47-.04,.96-.09,1.43-.15-.12-.23-.24-.41-.42-.66l.73-.43c.64,.84,.87,1.22,1.23,2l-.92,.44c-.09-.2-.17-.37-.23-.52-.27,.04-.56,.09-.85,.12v.87h2.35c.69,0,1.63-.02,2.19-.04v1.1c-.58-.02-1.52-.04-2.19-.04h-2.35v.5c0,.71,.01,1.28,.03,1.61h-1.11c.02-.38,.03-.9,.03-1.61v-.5h-2.39c-.61,0-1.6,.02-2.19,.04v-1.1c.57,.02,1.56,.04,2.19,.04h2.39v-.71c-.43,.05-.91,.12-1.42,.19-.09,.11-.14,.15-.2,.15s-.12-.05-.14-.14l-.31-1.05c.26,0,.55-.01,.86-.02,.3-.3,.58-.59,.86-.91-.43-.44-.98-.92-1.57-1.38l.54-.68c.15,.11,.3,.21,.43,.3,.19-.29,.38-.57,.55-.87h-1.69c-.61,0-1.6,.02-2.19,.04v-1.07c.57,.02,1.56,.04,2.19,.04h2.08v-.31c0-.31,0-.55-.01-.7l1.09,.08c.12,.01,.2,.04,.2,.11s-.07,.13-.22,.22v.61h2.12c.69,0,1.64-.02,2.2-.04v1.07c-.59-.02-1.53-.04-2.2-.04h-2.35Zm-2.02,2.92c-.62,.41-.95,.6-1.36,.83q-.91,.47-1.11,.59c-.08,.14-.13,.19-.19,.19s-.11-.06-.15-.14l-.42-.87c.74-.23,1.86-.78,2.94-1.45l.3,.86Zm-2.35-2.54c.47,.23,.96,.59,1.6,1.2l-.68,.73c-.57-.56-.85-.79-1.47-1.28l.56-.65Zm6,1c.71-.35,1.32-.75,1.83-1.19l.76,.6c.06,.04,.08,.1,.08,.15s-.04,.09-.12,.09c-.03,0-.08,0-.13-.01q-.37,.22-1.07,.65c-.2,.12-.43,.24-.86,.45l-.48-.75Zm.53,.9c1.04,.52,1.43,.76,2.32,1.51l-.58,.86c-.62-.59-1.33-1.13-2.17-1.63l.43-.74Z"/></g><g><path class="cls-1" d="M90.26,9.96v3.22l-11.48,23.38h-4.45l11.17-22.72h-12.6v-3.88h17.36Z"/><path class="cls-1" d="M109.89,23.23c0,8.61-3.46,13.76-9.24,13.76s-9.28-5.15-9.28-13.76,3.46-13.76,9.28-13.76,9.24,5.15,9.24,13.76Zm-12.64-8.37c-1.12,1.96-1.72,4.94-1.72,8.37s.6,6.41,1.72,8.37c.73,1.26,1.92,1.96,3.39,1.96s2.63-.7,3.36-1.96c1.12-1.96,1.75-4.94,1.75-8.37s-.67-6.51-1.75-8.37c-.77-1.29-1.92-1.96-3.36-1.96s-2.66,.67-3.39,1.96Z"/></g><path class="cls-1" d="M121.52,28.83c0,1.44-.94,2.56-2.14,2.56s-2.14-1.12-2.14-2.56,.94-2.56,2.14-2.56,2.14,1.12,2.14,2.56Zm4.2-2.48l-6.21,10.65h-1.34l6.21-10.65h1.34Zm-7.35,2.48c0,.91,.42,1.53,1.01,1.53s1-.62,1-1.53-.41-1.53-1-1.53-1.01,.63-1.01,1.53Zm8.29,5.69c0,1.43-.94,2.56-2.13,2.56s-2.14-1.13-2.14-2.56,.94-2.58,2.14-2.58,2.13,1.13,2.13,2.58Zm-3.14,0c0,.9,.41,1.53,.99,1.53s1.01-.63,1.01-1.53-.41-1.53-1.01-1.53-.99,.63-.99,1.53Z"/></g></g></svg>