<?xml version="1.0" encoding="UTF-8"?>
<svg id="_レイヤー_2" data-name="レイヤー 2" xmlns="http://www.w3.org/2000/svg" xmlns:xlink="http://www.w3.org/1999/xlink" viewBox="0 0 140.33 49.55">
  <defs>
    <style>
      .cls-1 {
        fill: url(#_新規グラデーションスウォッチ_1);
      }

      .cls-1, .cls-2 {
        stroke-width: 0px;
      }

      .cls-2 {
        fill: #fff;
      }
    </style>
    <linearGradient id="_新規グラデーションスウォッチ_1" data-name="新規グラデーションスウォッチ 1" x1="0" y1="24.78" x2="140.33" y2="24.78" gradientUnits="userSpaceOnUse">
      <stop offset="0" stop-color="#0d76a3"/>
      <stop offset="0" stop-color="#0d74a2"/>
      <stop offset=".18" stop-color="#10548a"/>
      <stop offset=".37" stop-color="#133b78"/>
      <stop offset=".56" stop-color="#152a6b"/>
      <stop offset=".76" stop-color="#161f63"/>
      <stop offset="1" stop-color="#171c61"/>
    </linearGradient>
  </defs>
  <g id="_レイヤー_1-2" data-name="レイヤー 1">
    <g>
      <polygon class="cls-1" points="135.99 49.55 0 49.55 4.34 0 140.33 0 135.99 49.55"/>
      <g>
        <path class="cls-2" d="m18.66,24.87h.76c.24,0,.64,0,.88-.01v1.01c-.23-.01-.58-.01-.88-.01h-.8c-.01.29-.05.57-.09.85.75.48,1.3.95,1.84,1.55l-.69.9c-.43-.58-.69-.88-1.38-1.45-.11.38-.25.73-.43,1.06-.44.82-.77,1.22-1.52,1.81-.18-.35-.36-.63-.59-.87.66-.55,1-.98,1.34-1.72.25-.56.42-1.27.5-2.13h-.76c-.3,0-.65,0-.88.01v-1.01c.24.01.64.01.88.01h.81v-1.69h-.47c-.22.51-.5,1-.85,1.55-.21-.36-.33-.52-.66-.79.41-.64.55-.91.8-1.63.26-.75.34-1.08.45-1.86l.99.25c.14.03.22.1.22.17q0,.09-.26.19c-.1.42-.21.79-.32,1.14h2.34s0,1,0,1c-.21-.01-.58-.02-.88-.02h-.35v1.69Zm4.67,4.47c.34-.83.69-1.96.84-2.66l1.03.31c.1.03.15.08.15.14,0,.03-.02.05-.08.09l-.12.07c-.1.24-.19.47-.24.6-.29.77-.4,1.06-.58,1.45h.37c.44,0,1.16-.01,1.53-.03v1.07c-.4-.01-1.11-.02-1.53-.02h-3.83c-.46,0-1.08.01-1.54.02v-1.07c.43.02,1.06.03,1.54.03h2.45Zm2.85-7.33c-.41-.01-1.12-.03-1.54-.03h-3.12c-.46,0-1.08.01-1.54.03v-1.07c.43.02,1.06.03,1.54.03h3.12c.44,0,1.16-.01,1.54-.03v1.07Zm-4.37,4.72h-1.08c.02-.26.03-.63.03-1.18v-1.56c0-.35-.01-.77-.03-.97.38.01.73.01,1.22.01h2.31c.5,0,.84,0,1.22-.01-.02.2-.03.62-.03.97v1.47c0,.52.01.89.03,1.14h-1.08v-.26h-2.6v.38Zm.14.14c.45.88.58,1.2.83,2.04l-.99.33c-.19-.78-.39-1.32-.73-2.02l.89-.34Zm2.45-1.51v-1.35h-2.6v1.35h2.6Z"/>
        <path class="cls-2" d="m29.44,28.3c.11.06.14.1.14.15,0,.09-.04.12-.29.17-.55.77-1.13,1.32-2.05,1.95-.29-.52-.35-.61-.58-.87,1-.69,1.44-1.11,1.94-1.87l.84.47Zm-1.35-5.49c-.32,0-.78.01-1.09.02v-.99c.31.01.77.02,1.09.02v-.56c0-.31-.01-.55-.02-.7l1.09.07c.13.01.2.05.2.12s-.06.12-.21.22v.86h1.36v-.56c0-.31,0-.55-.01-.7l1.08.07c.13.01.21.05.21.12s-.07.12-.21.22v.86c.32,0,.76-.01,1.06-.02v.99c-.3-.01-.74-.02-1.06-.02v3.92s.02,0,.02,0c.3,0,.76-.01,1.07-.02v1.02c-.31-.01-.77-.02-1.09-.02h-3.54c-.32,0-.78.01-1.09.02v-1.02c.31.01.77.02,1.09.02h.05v-3.92Zm2.42.74v-.74h-1.36v.74h1.36Zm-1.36.85v.74h1.36v-.74h-1.36Zm0,1.58v.75h1.36v-.75h-1.36Zm1.29,1.9c.64.35,1.01.63,1.55,1.12l-.73.83c-.56-.62-.83-.86-1.4-1.28l.57-.67Zm3.72-1.11c-.07.67-.17,1.18-.31,1.64-.29.87-.68,1.47-1.45,2.19-.26-.38-.43-.56-.74-.79,1.3-1.31,1.53-2.11,1.53-5.14v-2.07q-.01-1.41-.03-1.75c.21.01.4.02.65.02h2.12c.26,0,.45-.01.66-.02q-.02.34-.03,1.75v4.68c0,.41,0,.92.01,1.97v.12c0,.61-.15.87-.61,1.01-.29.09-.63.12-1.5.12-.02-.53-.05-.7-.19-1.13.32.02.62.04.74.04.45,0,.5-.04.5-.46v-2.18h-1.35Zm1.35-2.49h-1.29v.35c0,.4,0,.78-.02,1.18h1.31v-1.53Zm0-2.46h-1.29v1.51h1.29v-1.51Z"/>
        <path class="cls-2" d="m40,20.94c0-.31,0-.55-.01-.72l1.07.08c.13.01.21.06.21.11,0,.08-.07.13-.22.22v.58h.98c.42,0,.99-.01,1.32-.03v.93c-.34-.01-.96-.02-1.32-.02h-2.75c-.36,0-.99.01-1.32.02v-.93c.33.02.89.03,1.32.03h.73v-.27Zm.58,6.12c-.09.32-.19.65-.29.97.19-.02.39-.06.57-.1-.05-.18-.12-.35-.19-.53l.65-.23c.22.46.42,1.01.57,1.62l-.75.23c-.03-.12-.05-.25-.09-.37-.44.11-.92.22-1.28.29-.1.13-.18.19-.24.19-.04,0-.12-.07-.14-.14l-.28-.83.36-.03c.1-.35.21-.7.29-1.06h-.67v.9q.01,2.13.03,2.6h-1.03c.01-.43.03-1.45.03-2.15v-.78q-.01-1.18-.03-1.47c.47.03,1.07.05,1.79.05h.05c.04-.29.1-.57.15-.86l.96.18c.07.01.12.07.12.12,0,.08-.02.09-.24.15-.04.15-.08.29-.12.41h.52c.58,0,1.21-.02,1.63-.05-.01.29-.02,1.1-.02,1.43v.61c0,.17.01.66.02,1.01v.12c0,.5-.1.76-.36.92-.32.2-.68.25-1.71.25-.01-.47-.03-.67-.15-1.11.37.03.56.04.83.04.35,0,.41-.06.41-.45v-1.93h-1.4Zm1.29-2.51v-1.18c0-.46-.01-.88-.03-1.06l.95.08c.12.01.19.04.19.11s-.07.13-.21.22c-.01.22-.01.3-.01.65v1.16c0,.47.01.81.03,1.02h-.91v-.21h-2.62v.24h-.91c.02-.25.03-.57.03-1.02v-1.21c0-.47-.02-.89-.03-1.06l.94.08c.12.01.19.04.19.11s-.05.12-.21.22v1.85h2.62Zm-2.09-2.18c.31.15.56.3.78.44.14-.19.27-.38.41-.62l.66.3c.09.03.13.09.13.14,0,.09-.04.11-.3.13-.11.19-.21.34-.31.48.2.18.38.36.58.59l-.46.54c-.2-.23-.38-.42-.57-.59-.22.22-.48.44-.86.73-.22-.32-.3-.4-.54-.57.32-.23.58-.43.79-.63-.2-.14-.43-.29-.68-.42l.36-.53Zm5.96-.21c.18-.55.34-1.19.46-1.82l1.02.34c.1.03.12.05.12.11,0,.08-.03.1-.24.2-.1.32-.24.75-.4,1.17.47,0,1.01-.01,1.38-.03v1.02c-.41-.02-1.03-.03-1.54-.03v1.2c.43,0,.88-.01,1.2-.02v1.02c-.32-.01-.77-.02-1.2-.03v1.3c.43-.01.88-.02,1.2-.03v1.02c-.32-.01-.77-.02-1.2-.03v1.45c.52,0,1.22-.02,1.67-.04v1.03c-.47-.02-1.22-.04-1.75-.04h-1.75v.62h-1.01c.03-.71.04-1.79.04-3.21v-2.82c-.13.24-.26.47-.48.8-.15-.46-.31-.78-.5-1.03.47-.77.64-1.1.91-1.84.34-.88.5-1.39.65-2.17l.92.34c.1.03.15.09.15.15,0,.09-.03.11-.26.19-.14.51-.24.84-.36,1.19h.96Zm-.17,2.17v-1.21h-.86v1.21h.86Zm-.86,2.26h.86v-1.3h-.86v1.3Zm.86.96h-.86v1.45h.86v-1.45Z"/>
        <path class="cls-2" d="m52.07,27.98c0,1.12.01,2.02.04,2.57h-1.07c.02-.61.04-1.46.04-2.57v-.14c-.22.09-.38.14-.53.2q-.69.25-1.03.4c-.08.17-.12.21-.19.21-.05,0-.13-.06-.15-.12l-.38-1.02c.21-.04.4-.09.57-.13v-5.66c-.15,0-.31.01-.43.01v-.97c.32.01.78.02,1.1.02h1.52c.32,0,.79-.01,1.1-.02v.97c-.17-.01-.38-.01-.59-.01v6.27Zm-1.72-6.28v1.13h.74v-1.13h-.74Zm0,2.06v1.18h.74v-1.18h-.74Zm0,2.1v1.23c.24-.07.5-.15.74-.23v-1h-.74Zm6.97-.76c.01.31.02.59.04.86.02.36.07.7.12,1.03.24-.44.43-.94.62-1.57l.87.34c.11.04.14.08.14.14,0,.08-.02.09-.24.17-.29.9-.62,1.58-1.08,2.19.07.18.13.34.2.52.09.23.18.35.23.35.11,0,.24-.47.32-1.17.2.11.42.23.79.4-.15.81-.21,1.07-.32,1.42-.14.44-.34.64-.64.64-.54,0-.95-.41-1.32-1.32-.55.54-1.17.92-2.3,1.47-.21-.38-.35-.56-.63-.85.61-.24,1.06-.46,1.44-.7h-.81v-.22h-.92v.56h-.96c.01-.26.02-.63.02-1.18v-1.66c0-.35-.01-.77-.02-.97.24.01.46.01.79.01h1.25c.33,0,.55,0,.79-.01-.01.2-.02.62-.02.97v1.35c0,.46.01.8.02,1.06.31-.21.58-.44.86-.73.05-.05.1-.1.14-.15-.25-.97-.33-1.96-.4-2.95h-2.52c-.46,0-1.08.01-1.53.02v-1c.23.01.53.01.84.01-.11-.45-.21-.78-.35-1.2l.66-.22h-.87s0-.97,0-.97c.17.01.45.02.66.02h.56v-.7c0-.31-.01-.55-.02-.7l1.01.07c.13.01.2.06.2.11,0,.07-.05.13-.21.23v1h.65c.21,0,.5-.01.66-.02v.98h-.66s-.37-.01-.37-.01l.83.21c.11.03.2.11.2.19,0,.09-.04.11-.29.17-.12.33-.23.63-.32.87h.84c-.02-.71-.03-1.53-.03-2.46,0-.74-.02-1.15-.07-1.35l1.11.12c.12.01.18.05.18.12,0,.08-.07.14-.22.22-.01.36-.01.63-.01,1.9,0,.33.01.87.04,1.45h.35c.44,0,1.16-.01,1.53-.02v1c-.41-.01-1.11-.02-1.53-.02h-.31Zm-2.84-.96c.15-.46.28-.95.35-1.43h-1.23c.17.39.31.76.42,1.17l-.74.26h1.2Zm.28,2.27h-.92v.37h.92v-.37Zm0,1.14h-.92v.4h.92v-.4Zm3.37-6.08c.42.65.66,1.14.87,1.71l-.88.41c-.19-.6-.47-1.23-.79-1.74l.8-.37Z"/>
        <path class="cls-2" d="m65.34,22.3c-.33.48-.68.94-1.04,1.39.19.14.37.3.55.45.31-.42.59-.86.91-1.4l.89.44c.08.03.11.07.11.11,0,.07-.07.12-.21.17-.98,1.27-1.38,1.75-1.94,2.3.47-.04.96-.09,1.43-.15-.12-.23-.24-.41-.42-.66l.73-.43c.64.84.87,1.22,1.23,2l-.92.44c-.09-.2-.17-.37-.23-.52-.27.04-.56.09-.85.12v.87h2.35c.69,0,1.63-.02,2.19-.04v1.1c-.58-.02-1.52-.04-2.19-.04h-2.35v.5c0,.71.01,1.28.03,1.61h-1.11c.02-.38.03-.9.03-1.61v-.5h-2.39c-.61,0-1.6.02-2.19.04v-1.1c.57.02,1.56.04,2.19.04h2.39v-.71c-.43.05-.91.12-1.42.19-.09.11-.14.15-.2.15s-.12-.05-.14-.14l-.31-1.05c.26,0,.55-.01.86-.02.3-.3.58-.59.86-.91-.43-.44-.98-.92-1.57-1.38l.54-.68c.15.11.3.21.43.3.19-.29.38-.57.55-.87h-1.69c-.61,0-1.6.02-2.19.04v-1.07c.57.02,1.56.04,2.19.04h2.08v-.31c0-.31,0-.55-.01-.7l1.09.08c.12.01.2.04.2.11s-.07.13-.22.22v.61h2.12c.69,0,1.64-.02,2.2-.04v1.07c-.59-.02-1.53-.04-2.2-.04h-2.35Zm-2.02,2.92c-.62.41-.95.6-1.36.83q-.91.47-1.11.59c-.08.14-.13.19-.19.19s-.11-.06-.15-.14l-.42-.87c.74-.23,1.86-.78,2.94-1.45l.3.86Zm-2.35-2.54c.47.23.96.59,1.6,1.2l-.68.73c-.57-.56-.85-.79-1.47-1.28l.56-.65Zm6,1c.71-.35,1.32-.75,1.83-1.19l.76.6c.06.04.08.1.08.15s-.04.09-.12.09c-.03,0-.08,0-.13-.01q-.37.22-1.07.65c-.2.12-.43.24-.86.45l-.48-.75Zm.53.9c1.04.52,1.43.76,2.32,1.51l-.58.86c-.62-.59-1.33-1.13-2.17-1.63l.43-.74Z"/>
      </g>
      <path class="cls-2" d="m81.94,17.36c.17-4.73,3.12-7.49,8.02-7.49s7.88,2.8,7.88,7.14c0,2.56-.88,4.41-3.85,8.02-1.5,1.82-3.43,4.06-7.11,8.23h11.24v3.75h-16.49v-3.29q.6-.74,2.7-3.19c8.51-9.98,9.31-11.13,9.31-13.37s-1.58-3.68-3.89-3.68c-2.49,0-3.99,1.37-4.27,3.89h-3.54Z"/>
      <path class="cls-2" d="m108.14,28.83c0,1.44-.94,2.56-2.14,2.56s-2.14-1.12-2.14-2.56.94-2.56,2.14-2.56,2.14,1.12,2.14,2.56Zm4.2-2.48l-6.21,10.65h-1.34l6.21-10.65h1.34Zm-7.35,2.48c0,.91.42,1.53,1.01,1.53s1-.62,1-1.53-.41-1.53-1-1.53-1.01.63-1.01,1.53Zm8.29,5.69c0,1.43-.94,2.56-2.13,2.56s-2.14-1.13-2.14-2.56.94-2.58,2.14-2.58,2.13,1.13,2.13,2.58Zm-3.14,0c0,.9.41,1.53.99,1.53s1.01-.63,1.01-1.53-.41-1.53-1.01-1.53-.99.63-.99,1.53Z"/>
    </g>
  </g>
</svg>