<?xml version="1.0" encoding="UTF-8"?>
<svg id="_レイヤー_2" xmlns="http://www.w3.org/2000/svg" viewBox="0 0 980.14 381.12">
    <defs>
        <style>.cls-1{fill:#e1e1e1;}</style>
    </defs>
    <g id="_レイヤー_1-2">
        <g>
            <polygon class="cls-1" points="54.51 13.43 0 63.4 0 82.54 54.51 48.04 54.51 13.43" />
            <polygon class="cls-1" points="119.85 35.94 56.61 47.51 56.61 11.57 119.85 0 119.85 35.94" />
            <polygon class="cls-1" points="121.95 35.94 185.18 47.51 185.18 11.57 121.95 0 121.95 35.94" />
            <polygon class="cls-1" points="119.85 37.56 56.61 49.14 56.61 65.63 119.85 54.28 119.85 37.56" />
            <g>
                <polygon class="cls-1" points="185.18 65.41 185.18 49.14 121.95 37.56 121.95 54.24 121.99 54.25 185.18 65.41" />
                <polygon class="cls-1" points="185.17 85.07 185.18 85.07 185.18 84.71 185.17 84.71 185.17 85.07" />
                <polygon class="cls-1" points="185.17 85.07 185.18 85.07 185.18 84.71 185.17 84.71 185.17 85.07" />
                <rect class="cls-1" x="121.95" y="54.24" width=".04" height="0" />
                <rect class="cls-1" x="121.95" y="54.24" width=".04" height="0" />
            </g>
            <polygon class="cls-1" points="0 119.78 54.51 66.37 54.51 49.69 0 84.16 0 119.78" />
            <polygon class="cls-1" points="187.28 13.43 241.8 63.4 241.8 82.54 187.28 48.04 187.28 13.43" />
            <polygon class="cls-1" points="241.8 119.78 187.28 66.37 187.28 49.69 241.8 84.16 241.8 119.78" />
            <polygon class="cls-1" points="54.51 78.83 0 128.81 0 147.95 54.51 113.44 54.51 78.83" />
            <polygon class="cls-1" points="119.85 101.34 56.61 112.91 56.61 76.98 119.85 65.4 119.85 101.34" />
            <polygon class="cls-1" points="121.95 101.34 185.18 112.91 185.18 76.98 121.95 65.4 121.95 101.34" />
            <polygon class="cls-1" points="119.85 102.97 56.61 114.54 56.61 131.03 119.85 119.68 119.85 102.97" />
            <g>
                <polygon class="cls-1" points="185.18 130.81 185.18 114.54 121.95 102.97 121.95 119.64 121.99 119.65 185.18 130.81" />
                <polygon class="cls-1" points="185.17 150.48 185.18 150.48 185.18 150.11 185.17 150.11 185.17 150.48" />
                <polygon class="cls-1" points="185.17 150.48 185.18 150.48 185.18 150.11 185.17 150.11 185.17 150.48" />
                <rect class="cls-1" x="121.95" y="119.65" width=".04" height="0" />
                <rect class="cls-1" x="121.95" y="119.65" width=".04" height="0" />
            </g>
            <polygon class="cls-1" points="0 185.18 54.51 131.77 54.51 115.09 0 149.56 0 185.18" />
            <polygon class="cls-1" points="187.28 78.83 241.8 128.81 241.8 147.95 187.28 113.44 187.28 78.83" />
            <polygon class="cls-1" points="241.8 185.18 187.28 131.77 187.28 115.09 241.8 149.56 241.8 185.18" />
            <polygon class="cls-1" points="54.51 144.23 0 194.21 0 213.35 54.51 178.84 54.51 144.23" />
            <polygon class="cls-1" points="119.85 166.74 56.61 178.32 56.61 142.38 119.85 130.81 119.85 166.74" />
            <polygon class="cls-1" points="121.95 166.74 185.18 178.32 185.18 142.38 121.95 130.81 121.95 166.74" />
            <polygon class="cls-1" points="119.85 168.37 56.61 179.94 56.61 196.43 119.85 185.09 119.85 168.37" />
            <g>
                <polygon class="cls-1" points="185.18 196.22 185.18 179.94 121.95 168.37 121.95 185.05 121.99 185.05 185.18 196.22" />
                <polygon class="cls-1" points="185.17 215.88 185.18 215.88 185.18 215.52 185.17 215.52 185.17 215.88" />
                <polygon class="cls-1" points="185.17 215.88 185.18 215.88 185.18 215.52 185.17 215.52 185.17 215.88" />
                <rect class="cls-1" x="121.95" y="185.05" width=".04" height="0" />
                <rect class="cls-1" x="121.95" y="185.05" width=".04" height="0" />
            </g>
            <polygon class="cls-1" points="0 250.59 54.51 197.18 54.51 180.5 0 214.96 0 250.59" />
            <polygon class="cls-1" points="187.28 144.23 241.8 194.21 241.8 213.35 187.28 178.84 187.28 144.23" />
            <polygon class="cls-1" points="241.8 250.59 187.28 197.18 187.28 180.5 241.8 214.96 241.8 250.59" />
            <polygon class="cls-1" points="54.51 209.42 0 259.39 0 278.53 54.51 244.03 54.51 209.42" />
            <polygon class="cls-1" points="119.85 231.93 56.61 243.5 56.61 207.56 119.85 195.99 119.85 231.93" />
            <polygon class="cls-1" points="121.95 231.93 185.18 243.5 185.18 207.56 121.95 195.99 121.95 231.93" />
            <polygon class="cls-1" points="119.85 233.55 56.61 245.13 56.61 261.62 119.85 250.27 119.85 233.55" />
            <g>
                <polygon class="cls-1" points="185.18 261.4 185.18 245.13 121.95 233.55 121.95 250.23 121.99 250.23 185.18 261.4" />
                <polygon class="cls-1" points="185.17 281.06 185.18 281.06 185.18 280.7 185.17 280.7 185.17 281.06" />
                <polygon class="cls-1" points="185.17 281.06 185.18 281.06 185.18 280.7 185.17 280.7 185.17 281.06" />
                <rect class="cls-1" x="121.95" y="250.23" width=".04" height="0" />
                <rect class="cls-1" x="121.95" y="250.23" width=".04" height="0" />
            </g>
            <polygon class="cls-1" points="0 315.77 54.51 262.36 54.51 245.68 0 280.15 0 315.77" />
            <polygon class="cls-1" points="187.28 209.42 241.8 259.39 241.8 278.53 187.28 244.03 187.28 209.42" />
            <polygon class="cls-1" points="241.8 315.77 187.28 262.36 187.28 245.68 241.8 280.15 241.8 315.77" />
            <g>
                <polygon class="cls-1" points="433.16 367.69 487.68 317.72 487.68 298.58 433.16 333.08 433.16 367.69" />
                <polygon class="cls-1" points="367.83 345.18 431.06 333.61 431.06 369.54 367.83 381.12 367.83 345.18" />
                <polygon class="cls-1" points="365.73 345.18 302.49 333.61 302.49 369.54 365.73 381.12 365.73 345.18" />
                <polygon class="cls-1" points="367.83 343.56 431.06 331.98 431.06 315.49 367.83 326.84 367.83 343.56" />
                <g>
                    <polygon class="cls-1" points="302.49 315.71 302.49 331.98 365.73 343.56 365.73 326.88 365.69 326.87 302.49 315.71" />
                    <polygon class="cls-1" points="302.5 296.05 302.49 296.05 302.49 296.41 302.51 296.41 302.5 296.05" />
                    <polygon class="cls-1" points="302.5 296.05 302.49 296.05 302.49 296.41 302.51 296.41 302.5 296.05" />
                    <rect class="cls-1" x="365.69" y="326.87" width=".04" height="0" />
                    <rect class="cls-1" x="365.69" y="326.87" width=".04" height="0" />
                </g>
                <polygon class="cls-1" points="487.68 261.34 433.16 314.75 433.16 331.43 487.68 296.96 487.68 261.34" />
                <polygon class="cls-1" points="300.39 367.69 245.88 317.72 245.88 298.58 300.39 333.08 300.39 367.69" />
                <polygon class="cls-1" points="245.88 261.34 300.39 314.75 300.39 331.43 245.88 296.96 245.88 261.34" />
            </g>
            <g>
                <polygon class="cls-1" points="433.16 302.29 487.68 252.31 487.68 233.17 433.16 267.68 433.16 302.29" />
                <polygon class="cls-1" points="367.83 279.78 431.06 268.2 431.06 304.14 367.83 315.72 367.83 279.78" />
                <polygon class="cls-1" points="365.73 279.78 302.49 268.2 302.49 304.14 365.73 315.72 365.73 279.78" />
                <polygon class="cls-1" points="367.83 278.15 431.06 266.58 431.06 250.09 367.83 261.43 367.83 278.15" />
                <g>
                    <polygon class="cls-1" points="302.49 250.3 302.49 266.58 365.73 278.15 365.73 261.48 365.69 261.47 302.49 250.3" />
                    <polygon class="cls-1" points="302.5 230.64 302.49 230.64 302.49 231 302.51 231.01 302.5 230.64" />
                    <polygon class="cls-1" points="302.5 230.64 302.49 230.64 302.49 231 302.51 231.01 302.5 230.64" />
                    <rect class="cls-1" x="365.69" y="261.47" width=".04" height="0" />
                    <rect class="cls-1" x="365.69" y="261.47" width=".04" height="0" />
                </g>
                <polygon class="cls-1" points="487.68 195.94 433.16 249.35 433.16 266.02 487.68 231.56 487.68 195.94" />
                <polygon class="cls-1" points="300.39 302.29 245.88 252.31 245.88 233.17 300.39 267.68 300.39 302.29" />
                <polygon class="cls-1" points="245.88 195.94 300.39 249.35 300.39 266.02 245.88 231.56 245.88 195.94" />
            </g>
            <g>
                <polygon class="cls-1" points="433.16 236.88 487.68 186.91 487.68 167.77 433.16 202.27 433.16 236.88" />
                <polygon class="cls-1" points="367.83 214.38 431.06 202.8 431.06 238.74 367.83 250.31 367.83 214.38" />
                <polygon class="cls-1" points="365.73 214.38 302.49 202.8 302.49 238.74 365.73 250.31 365.73 214.38" />
                <polygon class="cls-1" points="367.83 212.75 431.06 201.17 431.06 184.68 367.83 196.03 367.83 212.75" />
                <g>
                    <polygon class="cls-1" points="302.49 184.9 302.49 201.17 365.73 212.75 365.73 196.07 365.69 196.07 302.49 184.9" />
                    <polygon class="cls-1" points="302.5 165.24 302.49 165.24 302.49 165.6 302.51 165.6 302.5 165.24" />
                    <polygon class="cls-1" points="302.5 165.24 302.49 165.24 302.49 165.6 302.51 165.6 302.5 165.24" />
                    <rect class="cls-1" x="365.69" y="196.06" width=".04" height="0" />
                    <rect class="cls-1" x="365.69" y="196.06" width=".04" height="0" />
                </g>
                <polygon class="cls-1" points="487.68 130.53 433.16 183.94 433.16 200.62 487.68 166.15 487.68 130.53" />
                <polygon class="cls-1" points="300.39 236.88 245.88 186.91 245.88 167.77 300.39 202.27 300.39 236.88" />
                <polygon class="cls-1" points="245.88 130.53 300.39 183.94 300.39 200.62 245.88 166.15 245.88 130.53" />
            </g>
            <g>
                <polygon class="cls-1" points="433.16 171.7 487.68 121.73 487.68 102.59 433.16 137.09 433.16 171.7" />
                <polygon class="cls-1" points="367.83 149.19 431.06 137.62 431.06 173.56 367.83 185.13 367.83 149.19" />
                <polygon class="cls-1" points="365.73 149.19 302.49 137.62 302.49 173.56 365.73 185.13 365.73 149.19" />
                <polygon class="cls-1" points="367.83 147.57 431.06 135.99 431.06 119.5 367.83 130.85 367.83 147.57" />
                <g>
                    <polygon class="cls-1" points="302.49 119.72 302.49 135.99 365.73 147.57 365.73 130.89 365.69 130.88 302.49 119.72" />
                    <polygon class="cls-1" points="302.5 100.06 302.49 100.06 302.49 100.42 302.51 100.42 302.5 100.06" />
                    <polygon class="cls-1" points="302.5 100.06 302.49 100.06 302.49 100.42 302.51 100.42 302.5 100.06" />
                    <rect class="cls-1" x="365.69" y="130.88" width=".04" height="0" />
                    <rect class="cls-1" x="365.69" y="130.88" width=".04" height="0" />
                </g>
                <polygon class="cls-1" points="487.68 65.35 433.16 118.76 433.16 135.44 487.68 100.97 487.68 65.35" />
                <polygon class="cls-1" points="300.39 171.7 245.88 121.73 245.88 102.59 300.39 137.09 300.39 171.7" />
                <polygon class="cls-1" points="245.88 65.35 300.39 118.76 300.39 135.44 245.88 100.97 245.88 65.35" />
            </g>
            <g>
                <g>
                    <polygon class="cls-1" points="546.98 13.43 492.47 63.4 492.47 82.54 546.98 48.04 546.98 13.43" />
                    <polygon class="cls-1" points="612.31 35.94 549.08 47.51 549.08 11.57 612.31 0 612.31 35.94" />
                    <polygon class="cls-1" points="614.42 35.94 677.65 47.51 677.65 11.57 614.42 0 614.42 35.94" />
                    <polygon class="cls-1" points="612.31 37.56 549.08 49.14 549.08 65.63 612.31 54.28 612.31 37.56" />
                    <g>
                        <polygon class="cls-1" points="677.65 65.41 677.65 49.14 614.42 37.56 614.42 54.24 614.46 54.25 677.65 65.41" />
                        <polygon class="cls-1" points="677.64 85.07 677.65 85.07 677.65 84.71 677.64 84.71 677.64 85.07" />
                        <polygon class="cls-1" points="677.64 85.07 677.65 85.07 677.65 84.71 677.64 84.71 677.64 85.07" />
                        <rect class="cls-1" x="614.42" y="54.24" width=".04" height="0" />
                        <rect class="cls-1" x="614.42" y="54.24" width=".04" height="0" />
                    </g>
                    <polygon class="cls-1" points="492.47 119.78 546.98 66.37 546.98 49.69 492.47 84.16 492.47 119.78" />
                    <polygon class="cls-1" points="679.75 13.43 734.26 63.4 734.26 82.54 679.75 48.04 679.75 13.43" />
                    <polygon class="cls-1" points="734.26 119.78 679.75 66.37 679.75 49.69 734.26 84.16 734.26 119.78" />
                </g>
                <g>
                    <polygon class="cls-1" points="546.98 78.83 492.47 128.81 492.47 147.95 546.98 113.44 546.98 78.83" />
                    <polygon class="cls-1" points="612.31 101.34 549.08 112.91 549.08 76.98 612.31 65.4 612.31 101.34" />
                    <polygon class="cls-1" points="614.42 101.34 677.65 112.91 677.65 76.98 614.42 65.4 614.42 101.34" />
                    <polygon class="cls-1" points="612.31 102.97 549.08 114.54 549.08 131.03 612.31 119.68 612.31 102.97" />
                    <g>
                        <polygon class="cls-1" points="677.65 130.81 677.65 114.54 614.42 102.97 614.42 119.64 614.46 119.65 677.65 130.81" />
                        <polygon class="cls-1" points="677.64 150.48 677.65 150.48 677.65 150.11 677.64 150.11 677.64 150.48" />
                        <polygon class="cls-1" points="677.64 150.48 677.65 150.48 677.65 150.11 677.64 150.11 677.64 150.48" />
                        <rect class="cls-1" x="614.42" y="119.65" width=".04" height="0" />
                        <rect class="cls-1" x="614.42" y="119.65" width=".04" height="0" />
                    </g>
                    <polygon class="cls-1" points="492.47 185.18 546.98 131.77 546.98 115.09 492.47 149.56 492.47 185.18" />
                    <polygon class="cls-1" points="679.75 78.83 734.26 128.81 734.26 147.95 679.75 113.44 679.75 78.83" />
                    <polygon class="cls-1" points="734.26 185.18 679.75 131.77 679.75 115.09 734.26 149.56 734.26 185.18" />
                </g>
                <g>
                    <polygon class="cls-1" points="546.98 144.23 492.47 194.21 492.47 213.35 546.98 178.84 546.98 144.23" />
                    <polygon class="cls-1" points="612.31 166.74 549.08 178.32 549.08 142.38 612.31 130.81 612.31 166.74" />
                    <polygon class="cls-1" points="614.42 166.74 677.65 178.32 677.65 142.38 614.42 130.81 614.42 166.74" />
                    <polygon class="cls-1" points="612.31 168.37 549.08 179.94 549.08 196.43 612.31 185.09 612.31 168.37" />
                    <g>
                        <polygon class="cls-1" points="677.65 196.22 677.65 179.94 614.42 168.37 614.42 185.05 614.46 185.05 677.65 196.22" />
                        <polygon class="cls-1" points="677.64 215.88 677.65 215.88 677.65 215.52 677.64 215.52 677.64 215.88" />
                        <polygon class="cls-1" points="677.64 215.88 677.65 215.88 677.65 215.52 677.64 215.52 677.64 215.88" />
                        <rect class="cls-1" x="614.42" y="185.05" width=".04" height="0" />
                        <rect class="cls-1" x="614.42" y="185.05" width=".04" height="0" />
                    </g>
                    <polygon class="cls-1" points="492.47 250.59 546.98 197.18 546.98 180.5 492.47 214.96 492.47 250.59" />
                    <polygon class="cls-1" points="679.75 144.23 734.26 194.21 734.26 213.35 679.75 178.84 679.75 144.23" />
                    <polygon class="cls-1" points="734.26 250.59 679.75 197.18 679.75 180.5 734.26 214.96 734.26 250.59" />
                </g>
                <g>
                    <polygon class="cls-1" points="546.98 209.42 492.47 259.39 492.47 278.53 546.98 244.03 546.98 209.42" />
                    <polygon class="cls-1" points="612.31 231.93 549.08 243.5 549.08 207.56 612.31 195.99 612.31 231.93" />
                    <polygon class="cls-1" points="614.42 231.93 677.65 243.5 677.65 207.56 614.42 195.99 614.42 231.93" />
                    <polygon class="cls-1" points="612.31 233.55 549.08 245.13 549.08 261.62 612.31 250.27 612.31 233.55" />
                    <g>
                        <polygon class="cls-1" points="677.65 261.4 677.65 245.13 614.42 233.55 614.42 250.23 614.46 250.23 677.65 261.4" />
                        <polygon class="cls-1" points="677.64 281.06 677.65 281.06 677.65 280.7 677.64 280.7 677.64 281.06" />
                        <polygon class="cls-1" points="677.64 281.06 677.65 281.06 677.65 280.7 677.64 280.7 677.64 281.06" />
                        <rect class="cls-1" x="614.42" y="250.23" width=".04" height="0" />
                        <rect class="cls-1" x="614.42" y="250.23" width=".04" height="0" />
                    </g>
                    <polygon class="cls-1" points="492.47 315.77 546.98 262.36 546.98 245.68 492.47 280.15 492.47 315.77" />
                    <polygon class="cls-1" points="679.75 209.42 734.26 259.39 734.26 278.53 679.75 244.03 679.75 209.42" />
                    <polygon class="cls-1" points="734.26 315.77 679.75 262.36 679.75 245.68 734.26 280.15 734.26 315.77" />
                </g>
                <g>
                    <polygon class="cls-1" points="925.63 367.69 980.14 317.72 980.14 298.58 925.63 333.08 925.63 367.69" />
                    <polygon class="cls-1" points="860.3 345.18 923.53 333.61 923.53 369.54 860.3 381.12 860.3 345.18" />
                    <polygon class="cls-1" points="858.19 345.18 794.96 333.61 794.96 369.54 858.19 381.12 858.19 345.18" />
                    <polygon class="cls-1" points="860.3 343.56 923.53 331.98 923.53 315.49 860.3 326.84 860.3 343.56" />
                    <g>
                        <polygon class="cls-1" points="794.96 315.71 794.96 331.98 858.19 343.56 858.19 326.88 858.15 326.87 794.96 315.71" />
                        <polygon class="cls-1" points="794.97 296.05 794.96 296.05 794.96 296.41 794.97 296.41 794.97 296.05" />
                        <polygon class="cls-1" points="794.97 296.05 794.96 296.05 794.96 296.41 794.97 296.41 794.97 296.05" />
                        <rect class="cls-1" x="858.15" y="326.87" width=".04" height="0" />
                        <rect class="cls-1" x="858.15" y="326.87" width=".04" height="0" />
                    </g>
                    <polygon class="cls-1" points="980.14 261.34 925.63 314.75 925.63 331.43 980.14 296.96 980.14 261.34" />
                    <polygon class="cls-1" points="792.86 367.69 738.35 317.72 738.35 298.58 792.86 333.08 792.86 367.69" />
                    <polygon class="cls-1" points="738.35 261.34 792.86 314.75 792.86 331.43 738.35 296.96 738.35 261.34" />
                </g>
                <g>
                    <polygon class="cls-1" points="925.63 302.29 980.14 252.31 980.14 233.17 925.63 267.68 925.63 302.29" />
                    <polygon class="cls-1" points="860.3 279.78 923.53 268.2 923.53 304.14 860.3 315.72 860.3 279.78" />
                    <polygon class="cls-1" points="858.19 279.78 794.96 268.2 794.96 304.14 858.19 315.72 858.19 279.78" />
                    <polygon class="cls-1" points="860.3 278.15 923.53 266.58 923.53 250.09 860.3 261.43 860.3 278.15" />
                    <g>
                        <polygon class="cls-1" points="794.96 250.3 794.96 266.58 858.19 278.15 858.19 261.48 858.15 261.47 794.96 250.3" />
                        <polygon class="cls-1" points="794.97 230.64 794.96 230.64 794.96 231 794.97 231.01 794.97 230.64" />
                        <polygon class="cls-1" points="794.97 230.64 794.96 230.64 794.96 231 794.97 231.01 794.97 230.64" />
                        <rect class="cls-1" x="858.15" y="261.47" width=".04" height="0" />
                        <rect class="cls-1" x="858.15" y="261.47" width=".04" height="0" />
                    </g>
                    <polygon class="cls-1" points="980.14 195.94 925.63 249.35 925.63 266.02 980.14 231.56 980.14 195.94" />
                    <polygon class="cls-1" points="792.86 302.29 738.35 252.31 738.35 233.17 792.86 267.68 792.86 302.29" />
                    <polygon class="cls-1" points="738.35 195.94 792.86 249.35 792.86 266.02 738.35 231.56 738.35 195.94" />
                </g>
                <g>
                    <polygon class="cls-1" points="925.63 236.88 980.14 186.91 980.14 167.77 925.63 202.27 925.63 236.88" />
                    <polygon class="cls-1" points="860.3 214.38 923.53 202.8 923.53 238.74 860.3 250.31 860.3 214.38" />
                    <polygon class="cls-1" points="858.19 214.38 794.96 202.8 794.96 238.74 858.19 250.31 858.19 214.38" />
                    <polygon class="cls-1" points="860.3 212.75 923.53 201.17 923.53 184.68 860.3 196.03 860.3 212.75" />
                    <g>
                        <polygon class="cls-1" points="794.96 184.9 794.96 201.17 858.19 212.75 858.19 196.07 858.15 196.07 794.96 184.9" />
                        <polygon class="cls-1" points="794.97 165.24 794.96 165.24 794.96 165.6 794.97 165.6 794.97 165.24" />
                        <polygon class="cls-1" points="794.97 165.24 794.96 165.24 794.96 165.6 794.97 165.6 794.97 165.24" />
                        <rect class="cls-1" x="858.15" y="196.06" width=".04" height="0" />
                        <rect class="cls-1" x="858.15" y="196.06" width=".04" height="0" />
                    </g>
                    <polygon class="cls-1" points="980.14 130.53 925.63 183.94 925.63 200.62 980.14 166.15 980.14 130.53" />
                    <polygon class="cls-1" points="792.86 236.88 738.35 186.91 738.35 167.77 792.86 202.27 792.86 236.88" />
                    <polygon class="cls-1" points="738.35 130.53 792.86 183.94 792.86 200.62 738.35 166.15 738.35 130.53" />
                </g>
                <g>
                    <polygon class="cls-1" points="925.63 171.7 980.14 121.73 980.14 102.59 925.63 137.09 925.63 171.7" />
                    <polygon class="cls-1" points="860.3 149.19 923.53 137.62 923.53 173.56 860.3 185.13 860.3 149.19" />
                    <polygon class="cls-1" points="858.19 149.19 794.96 137.62 794.96 173.56 858.19 185.13 858.19 149.19" />
                    <polygon class="cls-1" points="860.3 147.57 923.53 135.99 923.53 119.5 860.3 130.85 860.3 147.57" />
                    <g>
                        <polygon class="cls-1" points="794.96 119.72 794.96 135.99 858.19 147.57 858.19 130.89 858.15 130.88 794.96 119.72" />
                        <polygon class="cls-1" points="794.97 100.06 794.96 100.06 794.96 100.42 794.97 100.42 794.97 100.06" />
                        <polygon class="cls-1" points="794.97 100.06 794.96 100.06 794.96 100.42 794.97 100.42 794.97 100.06" />
                        <rect class="cls-1" x="858.15" y="130.88" width=".04" height="0" />
                        <rect class="cls-1" x="858.15" y="130.88" width=".04" height="0" />
                    </g>
                    <polygon class="cls-1" points="980.14 65.35 925.63 118.76 925.63 135.44 980.14 100.97 980.14 65.35" />
                    <polygon class="cls-1" points="792.86 171.7 738.35 121.73 738.35 102.59 792.86 137.09 792.86 171.7" />
                    <polygon class="cls-1" points="738.35 65.35 792.86 118.76 792.86 135.44 738.35 100.97 738.35 65.35" />
                </g>
            </g>
        </g>
    </g>
</svg>