<?xml version="1.0" encoding="UTF-8"?><svg id="_レイヤー_2" xmlns="http://www.w3.org/2000/svg" xmlns:xlink="http://www.w3.org/1999/xlink" viewBox="0 0 217.74 91.01"><defs><style>.cls-1{stroke:url(#_新規グラデーションスウォッチ_1-6);}.cls-1,.cls-2,.cls-3,.cls-4,.cls-5,.cls-6{fill:none;stroke-linecap:round;stroke-linejoin:round;stroke-width:2px;}.cls-2{stroke:url(#_新規グラデーションスウォッチ_1-3);}.cls-3{stroke:url(#_新規グラデーションスウォッチ_1-4);}.cls-4{stroke:url(#_新規グラデーションスウォッチ_1-2);}.cls-5{stroke:url(#_新規グラデーションスウォッチ_1-5);}.cls-7{fill:#fff;}.cls-6{stroke:url(#_新規グラデーションスウォッチ_1);}</style><linearGradient id="_新規グラデーションスウォッチ_1" x1="120.66" y1="45.34" x2="131.31" y2="45.34" gradientUnits="userSpaceOnUse"><stop offset="0" stop-color="#0d76a3"/><stop offset="0" stop-color="#0d74a2"/><stop offset=".18" stop-color="#10548a"/><stop offset=".37" stop-color="#133b78"/><stop offset=".56" stop-color="#152a6b"/><stop offset=".76" stop-color="#161f63"/><stop offset="1" stop-color="#171c61"/></linearGradient><linearGradient id="_新規グラデーションスウォッチ_1-2" x1="82.13" y1="45.5" x2="135.32" y2="45.5" xlink:href="#_新規グラデーションスウォッチ_1"/><linearGradient id="_新規グラデーションスウォッチ_1-3" x1="120.95" y1="23.32" x2="131.6" y2="23.32" xlink:href="#_新規グラデーションスウォッチ_1"/><linearGradient id="_新規グラデーションスウォッチ_1-4" x1="117.46" y1="23.48" x2="135.61" y2="23.48" xlink:href="#_新規グラデーションスウォッチ_1"/><linearGradient id="_新規グラデーションスウォッチ_1-5" x1="120.37" y1="67.37" x2="131.02" y2="67.37" xlink:href="#_新規グラデーションスウォッチ_1"/><linearGradient id="_新規グラデーションスウォッチ_1-6" x1="116.88" y1="67.53" x2="135.03" y2="67.53" xlink:href="#_新規グラデーションスウォッチ_1"/></defs><g id="_レイヤー_1-2"><g><polygon class="cls-7" points="201.73 91.01 0 91.01 16.01 0 217.74 0 201.73 91.01"/><g><polyline class="cls-6" points="121.66 45.39 124.5 49.1 130.31 41.58"/><path class="cls-4" d="M120.65,37.43h11.19c1.36,0,2.48,1.12,2.48,2.48v11.19c0,1.36-1.12,2.48-2.48,2.48h-11.19c-1.36,0-2.48-1.12-2.48-2.48v-11.19c0-1.36,1.12-2.48,2.48-2.48h0Zm-23.85,17.68v17.29c-.02,4.3,8.29,4.24,8.24-.06l-.15-11.87-.2-21.02m.22,11.55c1.15,3.04,2.89,3.42,4.11,2.72,2.01-1.15,1.31-3.54,1.23-5.43l-.63-13.82c-.22-4.77-24.77-4.41-25.56-.05-.65,2.7-.74,8.87-.81,13.53-.04,2.27-.88,6.92,2.59,6.56,1-.06,2.09-.89,2.9-3.02m.22-12.04l-.2,21.02-.15,11.87c-.05,4.31,8.19,4.37,8.18,.06m-.15-57c3.33,0,6.02,2.7,6.02,6.02,0,2.25-1.23,4.21-3.06,5.24-.9,.53-1.94,.83-3.05,.83-3.33,0-6.02-2.7-6.02-6.02,0-2.25,1.23-4.21,3.05-5.24,.9-.53,1.94-.83,3.05-.83h0Z"/><polyline class="cls-2" points="121.95 23.37 124.79 27.08 130.6 19.56"/><path class="cls-3" d="M120.94,15.41h11.19c1.36,0,2.48,1.12,2.48,2.48v11.19c0,1.36-1.12,2.48-2.48,2.48h-11.19c-1.36,0-2.48-1.12-2.48-2.48v-11.19c0-1.36,1.12-2.48,2.48-2.48h0Z"/><polyline class="cls-5" points="121.37 67.41 124.21 71.12 130.02 63.61"/><path class="cls-1" d="M120.36,59.45h11.19c1.36,0,2.48,1.12,2.48,2.48v11.19c0,1.36-1.12,2.48-2.48,2.48h-11.19c-1.36,0-2.48-1.12-2.48-2.48v-11.19c0-1.36,1.12-2.48,2.48-2.48h0Z"/></g></g></g></svg>