<?xml version="1.0" encoding="UTF-8"?><svg id="_レイヤー_2" xmlns="http://www.w3.org/2000/svg" xmlns:xlink="http://www.w3.org/1999/xlink" viewBox="0 0 217.74 91.01"><defs><style>.cls-1{fill:#fff;}.cls-2{fill:url(#_新規グラデーションスウォッチ_1);}.cls-3{fill:url(#_新規グラデーションスウォッチ_1-2);}.cls-4{fill:url(#_新規グラデーションスウォッチ_1-4);}.cls-5{fill:url(#_新規グラデーションスウォッチ_1-3);}</style><linearGradient id="_新規グラデーションスウォッチ_1" x1="118.95" y1="20.78" x2="141.24" y2="20.78" gradientUnits="userSpaceOnUse"><stop offset="0" stop-color="#0d76a3"/><stop offset="0" stop-color="#0d74a2"/><stop offset=".18" stop-color="#10548a"/><stop offset=".37" stop-color="#133b78"/><stop offset=".56" stop-color="#152a6b"/><stop offset=".76" stop-color="#161f63"/><stop offset="1" stop-color="#171c61"/></linearGradient><linearGradient id="_新規グラデーションスウォッチ_1-2" x1="74.93" y1="45.67" x2="141.24" y2="45.67" xlink:href="#_新規グラデーションスウォッチ_1"/><linearGradient id="_新規グラデーションスウォッチ_1-3" x1="95.7" y1="19.04" x2="106.73" y2="19.04" xlink:href="#_新規グラデーションスウォッチ_1"/><linearGradient id="_新規グラデーションスウォッチ_1-4" x1="77.27" y1="49.36" x2="120.77" y2="49.36" xlink:href="#_新規グラデーションスウォッチ_1"/></defs><g id="_レイヤー_1-2"><g><polygon class="cls-1" points="201.73 91.01 0 91.01 16.01 0 217.74 0 201.73 91.01"/><path class="cls-2" d="M140.57,28.37c-.06,0-.13,0-.19-.03l-20.31-6.07c-.66-.2-1.11-.8-1.11-1.49s.45-1.29,1.11-1.49l20.31-6.07c.36-.11,.73,.1,.84,.45s-.1,.73-.45,.84l-20.31,6.07c-.1,.03-.14,.09-.14,.19s.05,.17,.14,.19l20.31,6.07c.36,.11,.56,.48,.45,.84-.09,.29-.36,.48-.65,.48Z"/><g><path class="cls-1" d="M140.57,63.98c-1.24,0-2.25-1.01-2.25-2.25V21.44c0-1.24,1.01-2.25,2.25-2.25s2.25,1.01,2.25,2.25V61.73c0,1.24-1.01,2.25-2.25,2.25Z"/><path class="cls-3" d="M97.5,77.82h-21.9c-.37,0-.68-.3-.68-.68s.3-.68,.68-.68h21.23v-7.03c0-.37,.3-.68,.68-.68h21.23v-7.03c0-.37,.3-.68,.68-.68h20.48V14.2c0-.37,.3-.68,.68-.68s.68,.3,.68,.68V61.73c0,.37-.3,.68-.68,.68h-20.48v7.03c0,.37-.3,.68-.68,.68h-21.23v7.03c0,.37-.3,.68-.68,.68Z"/><g><path class="cls-5" d="M101.21,24.55c-3.04,0-5.52-2.47-5.52-5.52s2.48-5.52,5.52-5.52,5.52,2.47,5.52,5.52-2.48,5.52-5.52,5.52Zm0-9.68c-2.3,0-4.17,1.87-4.17,4.17s1.87,4.17,4.17,4.17,4.17-1.87,4.17-4.17-1.87-4.17-4.17-4.17Z"/><path class="cls-4" d="M85.82,72.55c-.41,0-.82-.07-1.22-.22-1.77-.67-2.67-2.66-2-4.44l10.05-34.83h-4.35l-4.6,8.13c-.61,1.08-1.76,1.75-3,1.75-.59,0-1.18-.15-1.69-.45-.8-.45-1.38-1.19-1.62-2.08-.25-.89-.13-1.81,.32-2.61l5.59-9.87c.61-1.08,1.76-1.75,3-1.75h12.52c2.15,0,4.22,1.02,5.53,2.74l5.29,6.96,6.97-1.5c.99-.21,2.02,.02,2.82,.64,.8,.61,1.28,1.54,1.34,2.55,.09,1.66-1.14,3.2-2.87,3.57l-8.95,1.93c-1.27,.27-2.67-.24-3.46-1.28l-3.8-5.03-3.43,9.87,8.43,.52c.06,0,.11,.01,.17,.03,.52,.17,1.21,.61,1.52,1.74l3.37,11.5c.61,1.76-.34,3.72-2.13,4.35-.36,.13-.75,.19-1.13,.19-1.46,0-2.77-.93-3.25-2.31l-3.19-8.31-7.04-.15-5.96,16.13c-.33,.86-.97,1.55-1.81,1.92-.45,.2-.93,.31-1.41,.31Zm2.09-40.84h5.64c.21,0,.41,.1,.54,.27,.13,.17,.17,.39,.11,.59l-10.32,35.74c-.42,1.13,.12,2.34,1.2,2.75,.52,.2,1.09,.18,1.6-.05,.51-.23,.9-.64,1.1-1.17l6.12-16.57c.1-.27,.38-.44,.65-.44l7.98,.17c.27,0,.52,.18,.62,.43l3.36,8.75c.3,.86,1.09,1.42,1.98,1.42,.24,0,.47-.04,.69-.12,1.09-.38,1.67-1.57,1.29-2.66l-3.38-11.55c-.15-.56-.42-.73-.57-.8l-9.22-.57c-.21-.01-.4-.12-.52-.3-.12-.18-.15-.4-.08-.6l4.13-11.9c.08-.24,.29-.41,.53-.45,.25-.04,.49,.06,.64,.26l4.56,6.04c.48,.63,1.34,.94,2.1,.78l8.95-1.93c1.08-.23,1.86-1.17,1.81-2.18-.03-.63-.32-1.18-.81-1.55-.49-.38-1.12-.52-1.72-.39l-7.38,1.59c-.26,.06-.52-.04-.68-.25l-5.55-7.3c-1.05-1.38-2.71-2.21-4.45-2.21h-12.52c-.75,0-1.45,.41-1.82,1.06l-5.59,9.87c-.28,.49-.35,1.05-.2,1.59,.15,.54,.5,.99,.99,1.26,.98,.55,2.3,.18,2.85-.79l4.79-8.47c.12-.21,.34-.34,.59-.34Z"/></g></g></g></g></svg>